 0
SECTION
 2
ENTITIES
  0
LINE
 8
half
10
45.481596046842355
20
32.61592571148512
30
0.0
11
48.16312540713928
21
28.27552626057748
31
0.0
  0
LINE
 8
half
10
42.75231717811744
20
36.92645978051942
30
0.0
11
45.481596046842355
21
32.61592571148512
31
0.0
  0
LINE
 8
half
10
39.975621388932666
20
41.20660318908617
30
0.0
11
42.75231717811744
21
36.92645978051942
31
0.0
  0
LINE
 8
half
10
37.15184704544811
20
45.45583436197518
30
0.0
11
39.975621388932666
21
41.20660318908617
31
0.0
  0
LINE
 8
half
10
34.28133825078277
20
49.67363549091937
30
0.0
11
37.15184704544811
21
45.45583436197518
31
0.0
  0
LINE
 8
half
10
31.364444803082222
20
53.85949259769393
30
0.0
11
34.28133825078277
21
49.67363549091937
31
0.0
  0
LINE
 8
half
10
28.401522152892937
20
58.01289559675013
30
0.0
11
31.364444803082222
21
53.85949259769393
31
0.0
  0
LINE
 8
half
10
25.392931359846784
20
62.133338357373304
30
0.0
11
28.401522152892937
21
58.01289559675013
31
0.0
  0
LINE
 8
half
10
22.33903904866304
20
66.22031876535993
30
0.0
11
25.392931359846784
21
62.133338357373304
31
0.0
  0
LINE
 8
half
10
19.240217364471334
20
70.27333878420473
30
0.0
11
22.33903904866304
21
66.22031876535993
31
0.0
  0
LINE
 8
half
10
16.096843927462487
20
74.29190451579126
30
0.0
11
19.240217364471334
21
70.27333878420473
31
0.0
  0
LINE
 8
half
10
12.909301786872248
20
78.27552626057762
30
0.0
11
16.096843927462487
21
74.29190451579126
31
0.0
  0
LINE
 8
half
10
12.909301786872248
20
78.27552626057762
30
0.0
11
157.9093017868722
21
78.27552626057752
31
0.0
  0
LINE
 8
half
10
151.3952289051859
20
74.19720473311448
30
0.0
11
157.9093017868722
21
78.27552626057752
31
0.0
  0
LINE
 8
half
10
144.92658385226036
20
70.04720676099991
30
0.0
11
151.3952289051859
21
74.19720473311448
31
0.0
  0
LINE
 8
half
10
138.50415527343708
20
65.8260383043748
30
0.0
11
144.92658385226036
21
70.04720676099991
31
0.0
  0
LINE
 8
half
10
132.12872617942904
20
61.53421400035578
30
0.0
11
138.50415527343708
21
65.8260383043748
31
0.0
  0
LINE
 8
half
10
125.80107385085843
20
57.17225710029045
30
0.0
11
132.12872617942904
21
61.53421400035578
31
0.0
  0
LINE
 8
half
10
119.52196974349191
20
52.740699405963966
30
0.0
11
125.80107385085843
21
57.17225710029045
31
0.0
  0
LINE
 8
half
10
113.29217939418578
20
48.24008120476266
30
0.0
11
119.52196974349191
21
52.740699405963966
31
0.0
  0
LINE
 8
half
10
107.11246232755364
20
43.67095120380314
30
0.0
11
113.29217939418578
21
48.24008120476266
31
0.0
  0
LINE
 8
half
10
100.98357196336644
20
39.03386646303488
30
0.0
11
107.11246232755364
21
43.67095120380314
31
0.0
  0
LINE
 8
half
10
94.90625552469639
20
34.329392327325046
30
0.0
11
100.98357196336644
21
39.03386646303488
31
0.0
  0
LINE
 8
half
10
88.88125394681752
20
29.558102357531627
30
0.0
11
94.90625552469639
21
34.329392327325046
31
0.0
  0
LINE
 8
half
10
82.90930178687226
20
24.720578260577607
30
0.0
11
88.88125394681752
21
29.558102357531627
31
0.0
  0
LINE
 8
half
10
80.04003645975958
20
25.22735592199643
30
0.0
11
82.90930178687226
21
24.720578260577607
31
0.0
  0
LINE
 8
half
10
77.16430944151219
20
25.696078902023007
30
0.0
11
80.04003645975958
21
25.22735592199643
31
0.0
  0
LINE
 8
half
10
74.28262542348472
20
26.12666493956844
30
0.0
11
77.16430944151219
21
25.696078902023007
31
0.0
  0
LINE
 8
half
10
71.3954901424886
20
26.519038466593972
30
0.0
11
74.28262542348472
21
26.12666493956844
31
0.0
  0
LINE
 8
half
10
68.5034102920337
20
26.873130621373214
30
0.0
11
71.3954901424886
21
26.519038466593972
31
0.0
  0
LINE
 8
half
10
65.60689343340431
20
27.18887926057758
30
0.0
11
68.5034102920337
21
26.873130621373214
31
0.0
  0
LINE
 8
half
10
62.70644790658161
20
27.46622897018201
30
0.0
11
65.60689343340431
21
27.18887926057758
31
0.0
  0
LINE
 8
half
10
59.80258274102971
20
27.70513107519072
30
0.0
11
62.70644790658161
21
27.46622897018201
31
0.0
  0
LINE
 8
half
10
56.89580756636077
20
27.905543648179282
30
0.0
11
59.80258274102971
21
27.70513107519072
31
0.0
  0
LINE
 8
half
10
53.986632522894965
20
28.067431516653212
30
0.0
11
56.89580756636077
21
27.905543648179282
31
0.0
  0
LINE
 8
half
10
51.075568172130346
20
28.190766269220354
30
0.0
11
53.986632522894965
21
28.067431516653212
31
0.0
  0
LINE
 8
half
10
48.16312540713928
20
28.27552626057748
30
0.0
11
51.075568172130346
21
28.190766269220354
31
0.0
  0
LINE
 8
half
10
125.33700752690214
20
123.93512680967012
30
0.0
11
122.6554781666052
21
128.27552626057775
31
0.0
  0
LINE
 8
half
10
128.06628639562706
20
119.62459274063582
30
0.0
11
125.33700752690214
21
123.93512680967012
31
0.0
  0
LINE
 8
half
10
130.84298218481183
20
115.34444933206908
30
0.0
11
128.06628639562706
21
119.62459274063582
31
0.0
  0
LINE
 8
half
10
133.6667565282964
20
111.09521815918006
30
0.0
11
130.84298218481183
21
115.34444933206908
31
0.0
  0
LINE
 8
half
10
136.53726532296173
20
106.87741703023588
30
0.0
11
133.6667565282964
21
111.09521815918006
31
0.0
  0
LINE
 8
half
10
139.45415877066227
20
102.69155992346131
30
0.0
11
136.53726532296173
21
106.87741703023588
31
0.0
  0
LINE
 8
half
10
142.41708142085156
20
98.53815692440511
30
0.0
11
139.45415877066227
21
102.69155992346131
31
0.0
  0
LINE
 8
half
10
145.4256722138977
20
94.41771416378194
30
0.0
11
142.41708142085156
21
98.53815692440511
31
0.0
  0
LINE
 8
half
10
148.47956452508146
20
90.33073375579531
30
0.0
11
145.4256722138977
21
94.41771416378194
31
0.0
  0
LINE
 8
half
10
151.57838620927316
20
86.27771373695052
30
0.0
11
148.47956452508146
21
90.33073375579531
31
0.0
  0
LINE
 8
half
10
154.721759646282
20
82.25914800536398
30
0.0
11
151.57838620927316
21
86.27771373695052
31
0.0
  0
LINE
 8
half
10
157.90930178687225
20
78.27552626057762
30
0.0
11
154.721759646282
21
82.25914800536398
31
0.0
  0
LINE
 8
half
10
157.90930178687225
20
78.27552626057762
30
0.0
11
12.909301786872305
21
78.27552626057772
31
0.0
  0
LINE
 8
half
10
19.42337466855861
20
82.35384778804077
30
0.0
11
12.909301786872305
21
78.27552626057772
31
0.0
  0
LINE
 8
half
10
25.892019721484132
20
86.50384576015533
30
0.0
11
19.42337466855861
21
82.35384778804077
31
0.0
  0
LINE
 8
half
10
32.31444830030742
20
90.72501421678044
30
0.0
11
25.892019721484132
21
86.50384576015533
31
0.0
  0
LINE
 8
half
10
38.68987739431546
20
95.01683852079947
30
0.0
11
32.31444830030742
21
90.72501421678044
31
0.0
  0
LINE
 8
half
10
45.01752972288607
20
99.37879542086479
30
0.0
11
38.68987739431546
21
95.01683852079947
31
0.0
  0
LINE
 8
half
10
51.29663383025259
20
103.81035311519128
30
0.0
11
45.01752972288607
21
99.37879542086479
31
0.0
  0
LINE
 8
half
10
57.52642417955872
20
108.31097131639258
30
0.0
11
51.29663383025259
21
103.81035311519128
31
0.0
  0
LINE
 8
half
10
63.70614124619085
20
112.8801013173521
30
0.0
11
57.52642417955872
21
108.31097131639258
31
0.0
  0
LINE
 8
half
10
69.83503161037805
20
117.51718605812036
30
0.0
11
63.70614124619085
21
112.8801013173521
31
0.0
  0
LINE
 8
half
10
75.9123480490481
20
122.22166019383019
30
0.0
11
69.83503161037805
21
117.51718605812036
31
0.0
  0
LINE
 8
half
10
81.93734962692697
20
126.99295016362362
30
0.0
11
75.9123480490481
21
122.22166019383019
31
0.0
  0
LINE
 8
half
10
87.90930178687223
20
131.83047426057763
30
0.0
11
81.93734962692697
21
126.99295016362362
31
0.0
  0
LINE
 8
half
10
90.77856711398492
20
131.3236965991588
30
0.0
11
87.90930178687223
21
131.83047426057763
31
0.0
  0
LINE
 8
half
10
93.65429413223231
20
130.85497361913224
30
0.0
11
90.77856711398492
21
131.3236965991588
31
0.0
  0
LINE
 8
half
10
96.53597815025978
20
130.4243875815868
30
0.0
11
93.65429413223231
21
130.85497361913224
31
0.0
  0
LINE
 8
half
10
99.4231134312559
20
130.03201405456127
30
0.0
11
96.53597815025978
21
130.4243875815868
31
0.0
  0
LINE
 8
half
10
102.31519328171079
20
129.67792189978204
30
0.0
11
99.4231134312559
21
130.03201405456127
31
0.0
  0
LINE
 8
half
10
105.21171014034019
20
129.36217326057766
30
0.0
11
102.31519328171079
21
129.67792189978204
31
0.0
  0
LINE
 8
half
10
108.11215566716288
20
129.08482355097323
30
0.0
11
105.21171014034019
21
129.36217326057766
31
0.0
  0
LINE
 8
half
10
111.01602083271479
20
128.8459214459645
30
0.0
11
108.11215566716288
21
129.08482355097323
31
0.0
  0
LINE
 8
half
10
113.92279600738372
20
128.64550887297597
30
0.0
11
111.01602083271479
21
128.8459214459645
31
0.0
  0
LINE
 8
half
10
116.83197105084953
20
128.48362100450203
30
0.0
11
113.92279600738372
21
128.64550887297597
31
0.0
  0
LINE
 8
half
10
119.74303540161415
20
128.3602862519349
30
0.0
11
116.83197105084953
21
128.48362100450203
31
0.0
  0
LINE
 8
half
10
122.6554781666052
20
128.27552626057775
30
0.0
11
119.74303540161415
21
128.3602862519349
31
0.0
 0
ENDSEC
 0
EOF
