  0
SECTION
  2
HEADER
  9
$ACADVER
  1
AC1027
  9
$ACADMAINTVER
 70
     8
  9
$DWGCODEPAGE
  3
ANSI_1252
  9
$REQUIREDVERSIONS
160
                 0
  9
$INSBASE
 10
0.0
 20
0.0
 30
0.0
  9
$EXTMIN
 10
1.000000000000000E+20
 20
1.000000000000000E+20
 30
1.000000000000000E+20
  9
$EXTMAX
 10
-1.000000000000000E+20
 20
-1.000000000000000E+20
 30
-1.000000000000000E+20
  9
$LIMMIN
 10
0.0
 20
0.0
  9
$LIMMAX
 10
12.0
 20
9.0
  9
$ORTHOMODE
 70
     0
  9
$REGENMODE
 70
     1
  9
$FILLMODE
 70
     1
  9
$QTEXTMODE
 70
     0
  9
$MIRRTEXT
 70
     1
  9
$LTSCALE
 40
1.0
  9
$ATTMODE
 70
     1
  9
$TEXTSIZE
 40
0.2
  9
$TRACEWID
 40
0.05
  9
$TEXTSTYLE
  7
Standard
  9
$CLAYER
  8
0
  9
$CELTYPE
  6
ByLayer
  9
$CECOLOR
 62
    18
  9
$CELTSCALE
 40
1.0
  9
$DISPSILH
 70
     0
  9
$DIMSCALE
 40
1.0
  9
$DIMASZ
 40
0.125
  9
$DIMEXO
 40
0.03125
  9
$DIMDLI
 40
0.38
  9
$DIMRND
 40
0.0
  9
$DIMDLE
 40
0.0
  9
$DIMEXE
 40
0.0625
  9
$DIMTP
 40
0.0
  9
$DIMTM
 40
0.0
  9
$DIMTXT
 40
0.125
  9
$DIMCEN
 40
0.09
  9
$DIMTSZ
 40
0.0
  9
$DIMTOL
 70
     0
  9
$DIMLIM
 70
     0
  9
$DIMTIH
 70
     1
  9
$DIMTOH
 70
     1
  9
$DIMSE1
 70
     0
  9
$DIMSE2
 70
     0
  9
$DIMTAD
 70
     0
  9
$DIMZIN
 70
     8
  9
$DIMBLK
  1

  9
$DIMASO
 70
     1
  9
$DIMSHO
 70
     1
  9
$DIMPOST
  1

  9
$DIMAPOST
  1

  9
$DIMALT
 70
     0
  9
$DIMALTD
 70
     2
  9
$DIMALTF
 40
25.4
  9
$DIMLFAC
 40
1.0
  9
$DIMTOFL
 70
     0
  9
$DIMTVP
 40
0.0
  9
$DIMTIX
 70
     0
  9
$DIMSOXD
 70
     0
  9
$DIMSAH
 70
     0
  9
$DIMBLK1
  1

  9
$DIMBLK2
  1

  9
$DIMSTYLE
  2
Standard
  9
$DIMCLRD
 70
    18
  9
$DIMCLRE
 70
    18
  9
$DIMCLRT
 70
    18
  9
$DIMTFAC
 40
1.0
  9
$DIMGAP
 40
0.03125
  9
$DIMJUST
 70
     0
  9
$DIMSD1
 70
     0
  9
$DIMSD2
 70
     0
  9
$DIMTOLJ
 70
     1
  9
$DIMTZIN
 70
     0
  9
$DIMALTZ
 70
     0
  9
$DIMALTTZ
 70
     0
  9
$DIMUPT
 70
     0
  9
$DIMDEC
 70
     4
  9
$DIMTDEC
 70
     4
  9
$DIMALTU
 70
     2
  9
$DIMALTTD
 70
     2
  9
$DIMTXSTY
  7
Standard
  9
$DIMAUNIT
 70
     0
  9
$DIMADEC
 70
     0
  9
$DIMALTRND
 40
0.0
  9
$DIMAZIN
 70
     2
  9
$DIMDSEP
 70
    46
  9
$DIMATFIT
 70
     3
  9
$DIMFRAC
 70
     0
  9
$DIMLDRBLK
  1

  9
$DIMLUNIT
 70
     3
  9
$DIMLWD
 70
    -2
  9
$DIMLWE
 70
    -2
  9
$DIMTMOVE
 70
     0
  9
$DIMFXL
 40
1.0
  9
$DIMFXLON
 70
     0
  9
$DIMJOGANG
 40
0.7853981633974483
  9
$DIMTFILL
 70
     0
  9
$DIMTFILLCLR
 70
     0
  9
$DIMARCSYM
 70
     0
  9
$DIMLTYPE
  6

  9
$DIMLTEX1
  6

  9
$DIMLTEX2
  6

  9
$DIMTXTDIRECTION
 70
     0
  9
$LUNITS
 70
     2
  9
$LUPREC
 70
     4
  9
$SKETCHINC
 40
0.1
  9
$FILLETRAD
 40
0.5
  9
$AUNITS
 70
     0
  9
$AUPREC
 70
     0
  9
$MENU
  1
.
  9
$ELEVATION
 40
0.0
  9
$PELEVATION
 40
0.0
  9
$THICKNESS
 40
0.0
  9
$LIMCHECK
 70
     0
  9
$CHAMFERA
 40
0.0
  9
$CHAMFERB
 40
0.0
  9
$CHAMFERC
 40
0.0
  9
$CHAMFERD
 40
0.0
  9
$SKPOLY
 70
     0
  9
$TDCREATE
 40
2457508.422820266
  9
$TDUCREATE
 40
2457508.672820266
  9
$TDUPDATE
 40
2457508.422820729
  9
$TDUUPDATE
 40
2457508.672820729
  9
$TDINDWG
 40
0.0000000116
  9
$TDUSRTIMER
 40
0.0000000116
  9
$USRTIMER
 70
     1
  9
$ANGBASE
 50
0.0
  9
$ANGDIR
 70
     0
  9
$PDMODE
 70
     0
  9
$PDSIZE
 40
0.0
  9
$PLINEWID
 40
0.0
  9
$SPLFRAME
 70
     0
  9
$SPLINETYPE
 70
     6
  9
$SPLINESEGS
 70
     8
  9
$HANDSEED
  5
52C
  9
$SURFTAB1
 70
     6
  9
$SURFTAB2
 70
     6
  9
$SURFTYPE
 70
     6
  9
$SURFU
 70
     6
  9
$SURFV
 70
     6
  9
$UCSBASE
  2

  9
$UCSNAME
  2

  9
$UCSORG
 10
0.0
 20
0.0
 30
0.0
  9
$UCSXDIR
 10
1.0
 20
0.0
 30
0.0
  9
$UCSYDIR
 10
0.0
 20
1.0
 30
0.0
  9
$UCSORTHOREF
  2

  9
$UCSORTHOVIEW
 70
     0
  9
$UCSORGTOP
 10
0.0
 20
0.0
 30
0.0
  9
$UCSORGBOTTOM
 10
0.0
 20
0.0
 30
0.0
  9
$UCSORGLEFT
 10
0.0
 20
0.0
 30
0.0
  9
$UCSORGRIGHT
 10
0.0
 20
0.0
 30
0.0
  9
$UCSORGFRONT
 10
0.0
 20
0.0
 30
0.0
  9
$UCSORGBACK
 10
0.0
 20
0.0
 30
0.0
  9
$PUCSBASE
  2

  9
$PUCSNAME
  2

  9
$PUCSORG
 10
0.0
 20
0.0
 30
0.0
  9
$PUCSXDIR
 10
1.0
 20
0.0
 30
0.0
  9
$PUCSYDIR
 10
0.0
 20
1.0
 30
0.0
  9
$PUCSORTHOREF
  2

  9
$PUCSORTHOVIEW
 70
     0
  9
$PUCSORGTOP
 10
0.0
 20
0.0
 30
0.0
  9
$PUCSORGBOTTOM
 10
0.0
 20
0.0
 30
0.0
  9
$PUCSORGLEFT
 10
0.0
 20
0.0
 30
0.0
  9
$PUCSORGRIGHT
 10
0.0
 20
0.0
 30
0.0
  9
$PUCSORGFRONT
 10
0.0
 20
0.0
 30
0.0
  9
$PUCSORGBACK
 10
0.0
 20
0.0
 30
0.0
  9
$USERI1
 70
     0
  9
$USERI2
 70
     0
  9
$USERI3
 70
     0
  9
$USERI4
 70
     0
  9
$USERI5
 70
     0
  9
$USERR1
 40
0.0
  9
$USERR2
 40
0.0
  9
$USERR3
 40
0.0
  9
$USERR4
 40
0.0
  9
$USERR5
 40
0.0
  9
$WORLDVIEW
 70
     1
  9
$SHADEDGE
 70
     3
  9
$SHADEDIF
 70
    70
  9
$TILEMODE
 70
     1
  9
$MAXACTVP
 70
     2
  9
$PINSBASE
 10
0.0
 20
0.0
 30
0.0
  9
$PLIMCHECK
 70
     0
  9
$PEXTMIN
 10
1.000000000000000E+20
 20
1.000000000000000E+20
 30
1.000000000000000E+20
  9
$PEXTMAX
 10
-1.000000000000000E+20
 20
-1.000000000000000E+20
 30
-1.000000000000000E+20
  9
$PLIMMIN
 10
0.0
 20
0.0
  9
$PLIMMAX
 10
12.0
 20
9.0
  9
$UNITMODE
 70
     0
  9
$VISRETAIN
 70
     1
  9
$PLINEGEN
 70
     0
  9
$PSLTSCALE
 70
     1
  9
$TREEDEPTH
 70
  3020
  9
$CMLSTYLE
  2
Standard
  9
$CMLJUST
 70
     0
  9
$CMLSCALE
 40
1.0
  9
$PROXYGRAPHICS
 70
     1
  9
$MEASUREMENT
 70
     1
  9
$CELWEIGHT
370
    -1
  9
$ENDCAPS
280
     0
  9
$JOINSTYLE
280
     0
  9
$LWDISPLAY
290
     0
  9
$INSUNITS
 70
     1
  9
$HYPERLINKBASE
  1

  9
$STYLESHEET
  1

  9
$XEDIT
290
     1
  9
$CEPSNTYPE
380
     0
  9
$PSTYLEMODE
290
     1
  9
$FINGERPRINTGUID
  2
{CD8EBD97-A0A3-4C6C-AB53-E22498151A72}
  9
$VERSIONGUID
  2
{FAEB1C32-E019-11D5-929B-00C0DF256EC4}
  9
$EXTNAMES
290
     1
  9
$PSVPSCALE
 40
0.0
  9
$OLESTARTUP
290
     0
  9
$SORTENTS
280
   127
  9
$INDEXCTL
280
     0
  9
$HIDETEXT
280
     1
  9
$XCLIPFRAME
280
     2
  9
$HALOGAP
280
     0
  9
$OBSCOLOR
 70
   257
  9
$OBSLTYPE
280
     0
  9
$INTERSECTIONDISPLAY
280
     0
  9
$INTERSECTIONCOLOR
 70
   257
  9
$DIMASSOC
280
     2
  9
$PROJECTNAME
  1

  9
$CAMERADISPLAY
290
     0
  9
$LENSLENGTH
 40
50.0
  9
$CAMERAHEIGHT
 40
0.0
  9
$STEPSPERSEC
 40
2.0
  9
$STEPSIZE
 40
6.0
  9
$3DDWFPREC
 40
2.0
  9
$PSOLWIDTH
 40
0.25
  9
$PSOLHEIGHT
 40
4.0
  9
$LOFTANG1
 40
1.570796326794897
  9
$LOFTANG2
 40
1.570796326794897
  9
$LOFTMAG1
 40
0.0
  9
$LOFTMAG2
 40
0.0
  9
$LOFTPARAM
 70
     7
  9
$LOFTNORMALS
280
     1
  9
$LATITUDE
 40
37.795
  9
$LONGITUDE
 40
-122.394
  9
$NORTHDIRECTION
 40
0.0
  9
$TIMEZONE
 70
 -8000
  9
$LIGHTGLYPHDISPLAY
280
     1
  9
$TILEMODELIGHTSYNCH
280
     1
  9
$CMATERIAL
347
35C
  9
$SOLIDHIST
280
     0
  9
$SHOWHIST
280
     1
  9
$DWFFRAME
280
     2
  9
$DGNFRAME
280
     2
  9
$REALWORLDSCALE
290
     1
  9
$INTERFERECOLOR
 62
   256
  9
$CSHADOW
280
     0
  9
$SHADOWPLANELOCATION
 40
0.0
  0
ENDSEC
  0
SECTION
  2
CLASSES
  0
CLASS
  1
ACDBDICTIONARYWDFLT
  2
AcDbDictionaryWithDefault
  3
ObjectDBX Classes
 90
        0
 91
        4
280
     0
281
     0
  0
CLASS
  1
VISUALSTYLE
  2
AcDbVisualStyle
  3
ObjectDBX Classes
 90
     4095
 91
        4
280
     0
281
     0
  0
CLASS
  1
MATERIAL
  2
AcDbMaterial
  3
ObjectDBX Classes
 90
     1153
 91
        4
280
     0
281
     0
  0
CLASS
  1
SCALE
  2
AcDbScale
  3
ObjectDBX Classes
 90
     1153
 91
        4
280
     0
281
     0
  0
CLASS
  1
TABLESTYLE
  2
AcDbTableStyle
  3
ObjectDBX Classes
 90
     4095
 91
        4
280
     0
281
     0
  0
CLASS
  1
MLEADERSTYLE
  2
AcDbMLeaderStyle
  3
ACDB_MLEADERSTYLE_CLASS
 90
     4095
 91
        4
280
     0
281
     0
  0
CLASS
  1
SUN
  2
AcDbSun
  3
SCENEOE
 90
     1153
 91
        4
280
     0
281
     0
  0
CLASS
  1
DICTIONARYVAR
  2
AcDbDictionaryVar
  3
ObjectDBX Classes
 90
        0
 91
        4
280
     0
281
     0
  0
CLASS
  1
CELLSTYLEMAP
  2
AcDbCellStyleMap
  3
ObjectDBX Classes
 90
     1152
 91
        4
280
     0
281
     0
  0
ENDSEC
  0
SECTION
  2
TABLES
  0
TABLE
  2
VPORT
  5
321
330
0
100
AcDbSymbolTable
 70
     1
  0
VPORT
  5
341
330
321
100
AcDbSymbolTableRecord
100
AcDbViewportTableRecord
  2
*Active
 70
     0
 10
0.0
 20
0.0
 11
1.0
 21
1.0
 12
10.42990654205607
 22
4.5
 13
0.0
 23
0.0
 14
0.5
 24
0.5
 15
0.5
 25
0.5
 16
0.0
 26
0.0
 36
1.0
 17
0.0
 27
0.0
 37
0.0
 40
9.0
 41
1.972972972850329
 42
50.0
 43
0.0
 44
0.0
 50
0.0
 51
0.0
 71
     0
 72
   100
 73
     1
 74
     3
 75
     0
 76
     0
 77
     0
 78
     0
281
     0
 65
     1
110
0.0
120
0.0
130
0.0
111
1.0
121
0.0
131
0.0
112
0.0
122
1.0
132
0.0
 79
     0
146
0.0
 60
     3
 61
     5
292
     1
282
     1
141
0.0
142
0.0
 63
   250
361
385
  0
ENDTAB
  0
TABLE
  2
LTYPE
  5
31E
330
0
100
AcDbSymbolTable
 70
    48
  0
LTYPE
  5
32C
330
31E
100
AcDbSymbolTableRecord
100
AcDbLinetypeTableRecord
  2
ByBlock
 70
     0
  3

 72
    65
 73
     0
 40
0.0
  0
LTYPE
  5
32D
330
31E
100
AcDbSymbolTableRecord
100
AcDbLinetypeTableRecord
  2
ByLayer
 70
     0
  3

 72
    65
 73
     0
 40
0.0
  0
LTYPE
  5
32E
330
31E
100
AcDbSymbolTableRecord
100
AcDbLinetypeTableRecord
  2
Continuous
 70
     0
  3
Solid line
 72
    65
 73
     0
 40
0.0
  0
LTYPE
  5
3B9
330
31E
100
AcDbSymbolTableRecord
100
AcDbLinetypeTableRecord
  2
BORDERX2
 70
     0
  3
Border (2x) ____  ____  .  ____  ____  .  ___
 72
    65
 73
     6
 40
88.89999999999999
 49
25.4
 74
     0
 49
-12.7
 74
     0
 49
25.4
 74
     0
 49
-12.7
 74
     0
 49
0.0
 74
     0
 49
-12.7
 74
     0
  0
LTYPE
  5
3BA
330
31E
100
AcDbSymbolTableRecord
100
AcDbLinetypeTableRecord
  2
CENTER
 70
     0
  3
Center ____ _ ____ _ ____ _ ____ _ ____ _ ____
 72
    65
 73
     4
 40
50.8
 49
31.75
 74
     0
 49
-6.35
 74
     0
 49
6.35
 74
     0
 49
-6.35
 74
     0
  0
LTYPE
  5
3BB
330
31E
100
AcDbSymbolTableRecord
100
AcDbLinetypeTableRecord
  2
BORDER
 70
     0
  3
Border __ __ . __ __ . __ __ . __ __ . __ __ .
 72
    65
 73
     6
 40
44.45
 49
12.7
 74
     0
 49
-6.35
 74
     0
 49
12.7
 74
     0
 49
-6.35
 74
     0
 49
0.0
 74
     0
 49
-6.35
 74
     0
  0
LTYPE
  5
3BC
330
31E
100
AcDbSymbolTableRecord
100
AcDbLinetypeTableRecord
  2
BORDER2
 70
     0
  3
Border (.5x) __.__.__.__.__.__.__.__.__.__.__.
 72
    65
 73
     6
 40
22.225
 49
6.35
 74
     0
 49
-3.175
 74
     0
 49
6.35
 74
     0
 49
-3.175
 74
     0
 49
0.0
 74
     0
 49
-3.175
 74
     0
  0
LTYPE
  5
3BD
330
31E
100
AcDbSymbolTableRecord
100
AcDbLinetypeTableRecord
  2
ACAD_ISO15W100
 70
     0
  3
ISO double-dash triple-dot __ __ . . . __ __ . .
 72
    65
 73
    10
 40
39.0
 49
12.0
 74
     0
 49
-3.0
 74
     0
 49
12.0
 74
     0
 49
-3.0
 74
     0
 49
0.0
 74
     0
 49
-3.0
 74
     0
 49
0.0
 74
     0
 49
-3.0
 74
     0
 49
0.0
 74
     0
 49
-3.0
 74
     0
  0
LTYPE
  5
3C0
330
31E
100
AcDbSymbolTableRecord
100
AcDbLinetypeTableRecord
  2
BATTING
 70
     0
  3
Batting SSSSSSSSSSSSSSSSSSSSSSSSSSSSSSSSSSSSSSSSSSSSSSS
 72
    65
 73
     4
 40
10.16254
 49
0.00254
 74
     0
 49
-2.54
 74
     2
 75
     0
340
3BE
 46
2.54
 50
0.0
 44
-2.54
 45
0.0
  9
BAT
 49
-5.08
 74
     2
 75
     0
340
3BF
 46
2.54
 50
180.0
 44
2.54
 45
0.0
  9
BAT
 49
-2.54
 74
     0
  0
LTYPE
  5
3C1
330
31E
100
AcDbSymbolTableRecord
100
AcDbLinetypeTableRecord
  2
ACAD_ISO13W100
 70
     0
  3
ISO double-dash double-dot __ __ . . __ __ . . _
 72
    65
 73
     8
 40
36.0
 49
12.0
 74
     0
 49
-3.0
 74
     0
 49
12.0
 74
     0
 49
-3.0
 74
     0
 49
0.0
 74
     0
 49
-3.0
 74
     0
 49
0.0
 74
     0
 49
-3.0
 74
     0
  0
LTYPE
  5
3C2
330
31E
100
AcDbSymbolTableRecord
100
AcDbLinetypeTableRecord
  2
ACAD_ISO14W100
 70
     0
  3
ISO dash triple-dot __ . . . __ . . . __ . . . _
 72
    65
 73
     8
 40
24.0
 49
12.0
 74
     0
 49
-3.0
 74
     0
 49
0.0
 74
     0
 49
-3.0
 74
     0
 49
0.0
 74
     0
 49
-3.0
 74
     0
 49
0.0
 74
     0
 49
-3.0
 74
     0
  0
LTYPE
  5
3C3
330
31E
100
AcDbSymbolTableRecord
100
AcDbLinetypeTableRecord
  2
DASHED2
 70
     0
  3
Dashed (.5x) _ _ _ _ _ _ _ _ _ _ _ _ _ _ _ _ _ 
 72
    65
 73
     2
 40
9.524999999999999
 49
6.35
 74
     0
 49
-3.175
 74
     0
  0
LTYPE
  5
3C4
330
31E
100
AcDbSymbolTableRecord
100
AcDbLinetypeTableRecord
  2
DASHEDX2
 70
     0
  3
Dashed (2x) ____  ____  ____  ____  ____  ___
 72
    65
 73
     2
 40
38.09999999999999
 49
25.4
 74
     0
 49
-12.7
 74
     0
  0
LTYPE
  5
3C5
330
31E
100
AcDbSymbolTableRecord
100
AcDbLinetypeTableRecord
  2
DASHDOTX2
 70
     0
  3
Dash dot (2x) ____  .  ____  .  ____  .  ___
 72
    65
 73
     4
 40
50.8
 49
25.4
 74
     0
 49
-12.7
 74
     0
 49
0.0
 74
     0
 49
-12.7
 74
     0
  0
LTYPE
  5
3C6
330
31E
100
AcDbSymbolTableRecord
100
AcDbLinetypeTableRecord
  2
DASHED
 70
     0
  3
Dashed __ __ __ __ __ __ __ __ __ __ __ __ __ _
 72
    65
 73
     2
 40
19.05
 49
12.7
 74
     0
 49
-6.35
 74
     0
  0
LTYPE
  5
3C7
330
31E
100
AcDbSymbolTableRecord
100
AcDbLinetypeTableRecord
  2
DASHDOT
 70
     0
  3
Dash dot __ . __ . __ . __ . __ . __ . __ . __
 72
    65
 73
     4
 40
25.4
 49
12.7
 74
     0
 49
-6.35
 74
     0
 49
0.0
 74
     0
 49
-6.35
 74
     0
  0
LTYPE
  5
3C8
330
31E
100
AcDbSymbolTableRecord
100
AcDbLinetypeTableRecord
  2
DASHDOT2
 70
     0
  3
Dash dot (.5x) _._._._._._._._._._._._._._._.
 72
    65
 73
     4
 40
12.7
 49
6.35
 74
     0
 49
-3.175
 74
     0
 49
0.0
 74
     0
 49
-3.175
 74
     0
  0
LTYPE
  5
3C9
330
31E
100
AcDbSymbolTableRecord
100
AcDbLinetypeTableRecord
  2
CENTER2
 70
     0
  3
Center (.5x) ___ _ ___ _ ___ _ ___ _ ___ _ ___
 72
    65
 73
     4
 40
28.575
 49
19.05
 74
     0
 49
-3.175
 74
     0
 49
3.175
 74
     0
 49
-3.175
 74
     0
  0
LTYPE
  5
3CA
330
31E
100
AcDbSymbolTableRecord
100
AcDbLinetypeTableRecord
  2
CENTERX2
 70
     0
  3
Center (2x) ________  __  ________  __  _____
 72
    65
 73
     4
 40
101.6
 49
63.5
 74
     0
 49
-12.7
 74
     0
 49
12.7
 74
     0
 49
-12.7
 74
     0
  0
LTYPE
  5
3CB
330
31E
100
AcDbSymbolTableRecord
100
AcDbLinetypeTableRecord
  2
ACAD_ISO03W100
 70
     0
  3
ISO dash space __    __    __    __    __    __
 72
    65
 73
     2
 40
30.0
 49
12.0
 74
     0
 49
-18.0
 74
     0
  0
LTYPE
  5
3CC
330
31E
100
AcDbSymbolTableRecord
100
AcDbLinetypeTableRecord
  2
ACAD_ISO04W100
 70
     0
  3
ISO long-dash dot ____ . ____ . ____ . ____ . _
 72
    65
 73
     4
 40
30.0
 49
24.0
 74
     0
 49
-3.0
 74
     0
 49
0.0
 74
     0
 49
-3.0
 74
     0
  0
LTYPE
  5
3CD
330
31E
100
AcDbSymbolTableRecord
100
AcDbLinetypeTableRecord
  2
ACAD_ISO02W100
 70
     0
  3
ISO dash __ __ __ __ __ __ __ __ __ __ __ __ __
 72
    65
 73
     2
 40
15.0
 49
12.0
 74
     0
 49
-3.0
 74
     0
  0
LTYPE
  5
3CE
330
31E
100
AcDbSymbolTableRecord
100
AcDbLinetypeTableRecord
  2
ACAD_ISO11W100
 70
     0
  3
ISO double-dash dot __ __ . __ __ . __ __ . __ _
 72
    65
 73
     6
 40
33.0
 49
12.0
 74
     0
 49
-3.0
 74
     0
 49
12.0
 74
     0
 49
-3.0
 74
     0
 49
0.0
 74
     0
 49
-3.0
 74
     0
  0
LTYPE
  5
3CF
330
31E
100
AcDbSymbolTableRecord
100
AcDbLinetypeTableRecord
  2
ACAD_ISO12W100
 70
     0
  3
ISO dash double-dot __ . . __ . . __ . . __ . . 
 72
    65
 73
     6
 40
21.0
 49
12.0
 74
     0
 49
-3.0
 74
     0
 49
0.0
 74
     0
 49
-3.0
 74
     0
 49
0.0
 74
     0
 49
-3.0
 74
     0
  0
LTYPE
  5
3D0
330
31E
100
AcDbSymbolTableRecord
100
AcDbLinetypeTableRecord
  2
ACAD_ISO09W100
 70
     0
  3
ISO long-dash double-short-dash ____ __ __ ____
 72
    65
 73
     6
 40
45.0
 49
24.0
 74
     0
 49
-3.0
 74
     0
 49
6.0
 74
     0
 49
-3.0
 74
     0
 49
6.0
 74
     0
 49
-3.0
 74
     0
  0
LTYPE
  5
3D1
330
31E
100
AcDbSymbolTableRecord
100
AcDbLinetypeTableRecord
  2
ACAD_ISO10W100
 70
     0
  3
ISO dash dot __ . __ . __ . __ . __ . __ . __ . 
 72
    65
 73
     4
 40
18.0
 49
12.0
 74
     0
 49
-3.0
 74
     0
 49
0.0
 74
     0
 49
-3.0
 74
     0
  0
LTYPE
  5
3D2
330
31E
100
AcDbSymbolTableRecord
100
AcDbLinetypeTableRecord
  2
ACAD_ISO07W100
 70
     0
  3
ISO dot . . . . . . . . . . . . . . . . . . . . 
 72
    65
 73
     2
 40
3.0
 49
0.0
 74
     0
 49
-3.0
 74
     0
  0
LTYPE
  5
3D3
330
31E
100
AcDbSymbolTableRecord
100
AcDbLinetypeTableRecord
  2
ACAD_ISO08W100
 70
     0
  3
ISO long-dash short-dash ____ __ ____ __ ____ _
 72
    65
 73
     4
 40
36.0
 49
24.0
 74
     0
 49
-3.0
 74
     0
 49
6.0
 74
     0
 49
-3.0
 74
     0
  0
LTYPE
  5
3D4
330
31E
100
AcDbSymbolTableRecord
100
AcDbLinetypeTableRecord
  2
ACAD_ISO05W100
 70
     0
  3
ISO long-dash double-dot ____ .. ____ .. ____ . 
 72
    65
 73
     6
 40
33.0
 49
24.0
 74
     0
 49
-3.0
 74
     0
 49
0.0
 74
     0
 49
-3.0
 74
     0
 49
0.0
 74
     0
 49
-3.0
 74
     0
  0
LTYPE
  5
3D5
330
31E
100
AcDbSymbolTableRecord
100
AcDbLinetypeTableRecord
  2
ACAD_ISO06W100
 70
     0
  3
ISO long-dash triple-dot ____ ... ____ ... ____
 72
    65
 73
     8
 40
36.0
 49
24.0
 74
     0
 49
-3.0
 74
     0
 49
0.0
 74
     0
 49
-3.0
 74
     0
 49
0.0
 74
     0
 49
-3.0
 74
     0
 49
0.0
 74
     0
 49
-3.0
 74
     0
  0
LTYPE
  5
3D7
330
31E
100
AcDbSymbolTableRecord
100
AcDbLinetypeTableRecord
  2
TRACKS
 70
     0
  3
Tracks -|-|-|-|-|-|-|-|-|-|-|-|-|-|-|-|-|-|-|-|-|-|-|-|-
 72
    65
 73
     2
 40
7.62
 49
3.81
 74
     2
 75
     0
340
3D6
 46
6.35
 50
0.0
 44
0.0
 45
0.0
  9
TRACK1
 49
3.81
 74
     0
  0
LTYPE
  5
3DA
330
31E
100
AcDbSymbolTableRecord
100
AcDbLinetypeTableRecord
  2
ZIGZAG
 70
     0
  3
Zig zag /\/\/\/\/\/\/\/\/\/\/\/\/\/\/\/\/\/\/\/\/\/\/\/
 72
    65
 73
     4
 40
20.32254
 49
0.00254
 74
     0
 49
-5.08
 74
     2
 75
     0
340
3D8
 46
5.08
 50
0.0
 44
-5.08
 45
0.0
  9
ZIG
 49
-10.16
 74
     2
 75
     0
340
3D9
 46
5.08
 50
180.0
 44
5.08
 45
0.0
  9
ZIG
 49
-5.08
 74
     0
  0
LTYPE
  5
3DB
330
31E
100
AcDbSymbolTableRecord
100
AcDbLinetypeTableRecord
  2
PHANTOM2
 70
     0
  3
Phantom (.5x) ___ _ _ ___ _ _ ___ _ _ ___ _ _
 72
    65
 73
     6
 40
31.75
 49
15.875
 74
     0
 49
-3.175
 74
     0
 49
3.175
 74
     0
 49
-3.175
 74
     0
 49
3.175
 74
     0
 49
-3.175
 74
     0
  0
LTYPE
  5
3DC
330
31E
100
AcDbSymbolTableRecord
100
AcDbLinetypeTableRecord
  2
PHANTOMX2
 70
     0
  3
Phantom (2x) ____________    ____    ____   _
 72
    65
 73
     6
 40
127.0
 49
63.5
 74
     0
 49
-12.7
 74
     0
 49
12.7
 74
     0
 49
-12.7
 74
     0
 49
12.7
 74
     0
 49
-12.7
 74
     0
  0
LTYPE
  5
3DE
330
31E
100
AcDbSymbolTableRecord
100
AcDbLinetypeTableRecord
  2
DRAINAGE
 70
     0
  3
Drainage ---->---->---->----
 72
    65
 73
     2
 40
10.16
 49
5.08
 74
     2
 75
     0
340
3DD
 46
2.54
 50
180.0
 44
0.0
 45
0.0
  9
RIGHT_ARROW
 49
5.08
 74
     0
  0
LTYPE
  5
3E0
330
31E
100
AcDbSymbolTableRecord
100
AcDbLinetypeTableRecord
  2
DRAINAGE2
 70
     0
  3
Drainage reversed----<----<----<----
 72
    65
 73
     2
 40
10.16
 49
5.08
 74
     2
 75
     0
340
3DF
 46
2.54
 50
0.0
 44
0.0
 45
0.0
  9
RIGHT_ARROW
 49
5.08
 74
     0
  0
LTYPE
  5
3E1
330
31E
100
AcDbSymbolTableRecord
100
AcDbLinetypeTableRecord
  2
DOT2
 70
     0
  3
Dot (.5x) ........................................
 72
    65
 73
     2
 40
3.175
 49
0.0
 74
     0
 49
-3.175
 74
     0
  0
LTYPE
  5
3E2
330
31E
100
AcDbSymbolTableRecord
100
AcDbLinetypeTableRecord
  2
DOTX2
 70
     0
  3
Dot (2x) .  .  .  .  .  .  .  .  .  .  .  .  .  .
 72
    65
 73
     2
 40
12.7
 49
0.0
 74
     0
 49
-12.7
 74
     0
  0
LTYPE
  5
3E3
330
31E
100
AcDbSymbolTableRecord
100
AcDbLinetypeTableRecord
  2
DIVIDEX2
 70
     0
  3
Divide (2x) ________  .  .  ________  .  .  _
 72
    65
 73
     6
 40
63.5
 49
25.4
 74
     0
 49
-12.7
 74
     0
 49
0.0
 74
     0
 49
-12.7
 74
     0
 49
0.0
 74
     0
 49
-12.7
 74
     0
  0
LTYPE
  5
3E4
330
31E
100
AcDbSymbolTableRecord
100
AcDbLinetypeTableRecord
  2
DOT
 70
     0
  3
Dot . . . . . . . . . . . . . . . . . . . . . . . .
 72
    65
 73
     2
 40
6.35
 49
0.0
 74
     0
 49
-6.35
 74
     0
  0
LTYPE
  5
3E5
330
31E
100
AcDbSymbolTableRecord
100
AcDbLinetypeTableRecord
  2
DIVIDE
 70
     0
  3
Divide ____ . . ____ . . ____ . . ____ . . ____
 72
    65
 73
     6
 40
31.75
 49
12.7
 74
     0
 49
-6.35
 74
     0
 49
0.0
 74
     0
 49
-6.35
 74
     0
 49
0.0
 74
     0
 49
-6.35
 74
     0
  0
LTYPE
  5
3E6
330
31E
100
AcDbSymbolTableRecord
100
AcDbLinetypeTableRecord
  2
DIVIDE2
 70
     0
  3
Divide (.5x) __..__..__..__..__..__..__..__.._
 72
    65
 73
     6
 40
15.875
 49
6.35
 74
     0
 49
-3.175
 74
     0
 49
0.0
 74
     0
 49
-3.175
 74
     0
 49
0.0
 74
     0
 49
-3.175
 74
     0
  0
LTYPE
  5
3E8
330
31E
100
AcDbSymbolTableRecord
100
AcDbLinetypeTableRecord
  2
HOT_WATER_SUPPLY
 70
     0
  3
Hot water supply ---- HW ---- HW ---- HW ----
 72
    65
 73
     3
 40
22.86
 49
12.7
 74
     0
 49
-5.08
 74
     2
 75
     0
340
3E7
 46
2.54
 50
0.0
 44
-2.54
 45
-1.27
  9
HW
 49
-5.08
 74
     0
  0
LTYPE
  5
3E9
330
31E
100
AcDbSymbolTableRecord
100
AcDbLinetypeTableRecord
  2
PHANTOM
 70
     0
  3
Phantom ______  __  __  ______  __  __  ______ 
 72
    65
 73
     6
 40
63.50000000000001
 49
31.75
 74
     0
 49
-6.35
 74
     0
 49
6.35
 74
     0
 49
-6.35
 74
     0
 49
6.35
 74
     0
 49
-6.35
 74
     0
  0
LTYPE
  5
3EA
330
31E
100
AcDbSymbolTableRecord
100
AcDbLinetypeTableRecord
  2
HIDDEN2
 70
     0
  3
Hidden (.5x) _ _ _ _ _ _ _ _ _ _ _ _ _ _ _ _ _ 
 72
    65
 73
     2
 40
4.762499999999999
 49
3.175
 74
     0
 49
-1.5875
 74
     0
  0
LTYPE
  5
3EB
330
31E
100
AcDbSymbolTableRecord
100
AcDbLinetypeTableRecord
  2
HIDDENX2
 70
     0
  3
Hidden (2x) ____ ____ ____ ____ ____ ____ ____ 
 72
    65
 73
     2
 40
19.05
 49
12.7
 74
     0
 49
-6.35
 74
     0
  0
LTYPE
  5
3ED
330
31E
100
AcDbSymbolTableRecord
100
AcDbLinetypeTableRecord
  2
GAS_LINE
 70
     0
  3
Gas line ----GAS----GAS----GAS----GAS----GAS----GAS--
 72
    65
 73
     3
 40
24.13
 49
12.7
 74
     0
 49
-5.08
 74
     2
 75
     0
340
3EC
 46
2.54
 50
0.0
 44
-2.54
 45
-1.27
  9
GAS
 49
-6.35
 74
     0
  0
LTYPE
  5
3EE
330
31E
100
AcDbSymbolTableRecord
100
AcDbLinetypeTableRecord
  2
HIDDEN
 70
     0
  3
Hidden __ __ __ __ __ __ __ __ __ __ __ __ __ __
 72
    65
 73
     2
 40
9.524999999999999
 49
6.35
 74
     0
 49
-3.175
 74
     0
  0
LTYPE
  5
3F0
330
31E
100
AcDbSymbolTableRecord
100
AcDbLinetypeTableRecord
  2
FENCELINE1
 70
     0
  3
Fenceline circle ----0-----0----0-----0----0-----0--
 72
    65
 73
     4
 40
36.83
 49
6.35
 74
     0
 49
-2.54
 74
     2
 75
     0
340
3EF
 46
2.54
 50
0.0
 44
-2.54
 45
0.0
  9
CIRC1
 49
-2.54
 74
     0
 49
25.4
 74
     0
  0
LTYPE
  5
3F2
330
31E
100
AcDbSymbolTableRecord
100
AcDbLinetypeTableRecord
  2
FENCELINE2
 70
     0
  3
Fenceline square ----[]-----[]----[]-----[]----[]---
 72
    65
 73
     4
 40
36.83
 49
6.35
 74
     0
 49
-2.54
 74
     2
 75
     0
340
3F1
 46
2.54
 50
0.0
 44
-2.54
 45
0.0
  9
BOX
 49
-2.54
 74
     0
 49
25.4
 74
     0
  0
ENDTAB
  0
TABLE
  2
LAYER
  5
31B
330
0
100
AcDbSymbolTable
 70
     9
  0
LAYER
  5
329
330
31B
100
AcDbSymbolTableRecord
100
AcDbLayerTableRecord
  2
0
 70
     0
 62
     7
420
 16777215
  6
Continuous
370
    25
390
328
347
35E
348
0
  0
LAYER
  5
3F3
330
31B
100
AcDbSymbolTableRecord
100
AcDbLayerTableRecord
  2
Labels
 70
     0
 62
     4
420
    65535
  6
Continuous
370
    25
390
328
347
35E
348
0
  0
LAYER
  5
3F4
330
31B
100
AcDbSymbolTableRecord
100
AcDbLayerTableRecord
  2
BagCutSize
 70
     0
 62
     6
420
 16711935
  6
Continuous
370
    25
390
328
347
35E
348
0
  0
LAYER
  5
3F5
330
31B
100
AcDbSymbolTableRecord
100
AcDbLayerTableRecord
  2
FinishedTarp
 70
     0
 62
     5
420
      255
  6
Continuous
370
    25
390
328
347
35E
348
0
  0
LAYER
  5
3F6
330
31B
100
AcDbSymbolTableRecord
100
AcDbLayerTableRecord
  2
Defpoints
 70
     0
 62
     7
420
 16777215
  6
Continuous
290
     0
370
    -3
390
328
347
35E
348
0
  0
LAYER
  5
3F7
330
31B
100
AcDbSymbolTableRecord
100
AcDbLayerTableRecord
  2
FinishedBag
 70
     0
 62
     3
420
    65280
  6
Continuous
370
    25
390
328
347
35E
348
0
  0
LAYER
  5
3F8
330
31B
100
AcDbSymbolTableRecord
100
AcDbLayerTableRecord
  2
Reinforcements
 70
     0
 62
     2
420
 16776960
  6
Continuous
370
    25
390
328
347
35E
348
0
  0
LAYER
  5
3F9
330
31B
100
AcDbSymbolTableRecord
100
AcDbLayerTableRecord
  2
CutSize
 70
     0
 62
     1
420
 16711680
  6
Continuous
370
    25
390
328
347
35E
348
0
  0
LAYER
  5
3FA
330
31B
100
AcDbSymbolTableRecord
100
AcDbLayerTableRecord
  2
Dimensions
 70
     0
 62
    30
420
 16744192
  6
Continuous
370
    25
390
328
347
35E
348
0
  0
ENDTAB
  0
TABLE
  2
STYLE
  5
31C
330
0
100
AcDbSymbolTable
 70
    22
  0
STYLE
  5
32A
330
31C
100
AcDbSymbolTableRecord
100
AcDbTextStyleTableRecord
  2
Standard
 70
     0
 40
0.0
 41
1.0
 50
0.0
 71
     0
 42
0.2
  3
txt
  4

  0
STYLE
  5
3B7
330
31C
100
AcDbSymbolTableRecord
100
AcDbTextStyleTableRecord
  2
QCADDimTextStyle
 70
     0
 40
0.0
 41
1.0
 50
0.0
 71
     0
 42
0.2
  3

  4

  0
STYLE
  5
3BE
330
31C
100
AcDbSymbolTableRecord
100
AcDbTextStyleTableRecord
  2
textstyle0
 70
     0
 40
0.0
 41
1.0
 50
0.0
 71
     0
 42
0.2
  3
ltypeshp.shx
  4

  0
STYLE
  5
3BF
330
31C
100
AcDbSymbolTableRecord
100
AcDbTextStyleTableRecord
  2
textstyle1
 70
     0
 40
0.0
 41
1.0
 50
0.0
 71
     0
 42
0.2
  3
ltypeshp.shx
  4

  0
STYLE
  5
3D6
330
31C
100
AcDbSymbolTableRecord
100
AcDbTextStyleTableRecord
  2
textstyle2
 70
     0
 40
0.0
 41
1.0
 50
0.0
 71
     0
 42
0.2
  3
ltypeshp.shx
  4

  0
STYLE
  5
3D8
330
31C
100
AcDbSymbolTableRecord
100
AcDbTextStyleTableRecord
  2
textstyle3
 70
     0
 40
0.0
 41
1.0
 50
0.0
 71
     0
 42
0.2
  3
ltypeshp.shx
  4

  0
STYLE
  5
3D9
330
31C
100
AcDbSymbolTableRecord
100
AcDbTextStyleTableRecord
  2
textstyle4
 70
     0
 40
0.0
 41
1.0
 50
0.0
 71
     0
 42
0.2
  3
ltypeshp.shx
  4

  0
STYLE
  5
3DD
330
31C
100
AcDbSymbolTableRecord
100
AcDbTextStyleTableRecord
  2
textstyle5
 70
     0
 40
0.0
 41
1.0
 50
0.0
 71
     0
 42
0.2
  3
qcadshp.shx
  4

  0
STYLE
  5
3DF
330
31C
100
AcDbSymbolTableRecord
100
AcDbTextStyleTableRecord
  2
textstyle6
 70
     0
 40
0.0
 41
1.0
 50
0.0
 71
     0
 42
0.2
  3
qcadshp.shx
  4

  0
STYLE
  5
3E7
330
31C
100
AcDbSymbolTableRecord
100
AcDbTextStyleTableRecord
  2
textstyle7
 70
     0
 40
0.0
 41
1.0
 50
0.0
 71
     0
 42
0.2
  3
STANDARD
  4

  0
STYLE
  5
3EC
330
31C
100
AcDbSymbolTableRecord
100
AcDbTextStyleTableRecord
  2
textstyle8
 70
     0
 40
0.0
 41
1.0
 50
0.0
 71
     0
 42
0.2
  3
STANDARD
  4

  0
STYLE
  5
3EF
330
31C
100
AcDbSymbolTableRecord
100
AcDbTextStyleTableRecord
  2
textstyle9
 70
     0
 40
0.0
 41
1.0
 50
0.0
 71
     0
 42
0.2
  3
ltypeshp.shx
  4

  0
STYLE
  5
3F1
330
31C
100
AcDbSymbolTableRecord
100
AcDbTextStyleTableRecord
  2
textstyle10
 70
     0
 40
0.0
 41
1.0
 50
0.0
 71
     0
 42
0.2
  3
ltypeshp.shx
  4

  0
STYLE
  5
3FB
330
31C
100
AcDbSymbolTableRecord
100
AcDbTextStyleTableRecord
  2
textstyle11
 70
     0
 40
0.0
 41
1.0
 50
0.0
 71
     0
 42
0.2
  3
Standard
  4

1001
ACAD
1000
Standard
1071
        0
  0
STYLE
  5
3FC
330
31C
100
AcDbSymbolTableRecord
100
AcDbTextStyleTableRecord
  2
textstyle12
 70
     0
 40
0.0
 41
1.0
 50
0.0
 71
     0
 42
0.2
  3
Standard
  4

1001
ACAD
1000
Standard
1071
        0
  0
STYLE
  5
3FD
330
31C
100
AcDbSymbolTableRecord
100
AcDbTextStyleTableRecord
  2
textstyle13
 70
     0
 40
0.0
 41
1.0
 50
0.0
 71
     0
 42
0.2
  3
Standard
  4

1001
ACAD
1000
Standard
1071
        0
  0
STYLE
  5
3FE
330
31C
100
AcDbSymbolTableRecord
100
AcDbTextStyleTableRecord
  2
textstyle14
 70
     0
 40
0.0
 41
1.0
 50
0.0
 71
     0
 42
0.2
  3
Standard
  4

1001
ACAD
1000
Standard
1071
        0
  0
STYLE
  5
3FF
330
31C
100
AcDbSymbolTableRecord
100
AcDbTextStyleTableRecord
  2
textstyle15
 70
     0
 40
0.0
 41
1.0
 50
0.0
 71
     0
 42
0.2
  3
Standard
  4

1001
ACAD
1000
Standard
1071
        0
  0
STYLE
  5
400
330
31C
100
AcDbSymbolTableRecord
100
AcDbTextStyleTableRecord
  2
textstyle16
 70
     0
 40
0.0
 41
1.0
 50
0.0
 71
     0
 42
0.2
  3
Standard
  4

1001
ACAD
1000
Standard
1071
        0
  0
STYLE
  5
401
330
31C
100
AcDbSymbolTableRecord
100
AcDbTextStyleTableRecord
  2
textstyle17
 70
     0
 40
0.0
 41
1.0
 50
0.0
 71
     0
 42
0.2
  3
Standard
  4

1001
ACAD
1000
Standard
1071
        0
  0
STYLE
  5
402
330
31C
100
AcDbSymbolTableRecord
100
AcDbTextStyleTableRecord
  2
textstyle18
 70
     0
 40
0.0
 41
1.0
 50
0.0
 71
     0
 42
0.2
  3
Standard
  4

1001
ACAD
1000
Standard
1071
        0
  0
STYLE
  5
403
330
31C
100
AcDbSymbolTableRecord
100
AcDbTextStyleTableRecord
  2
textstyle19
 70
     0
 40
0.0
 41
1.0
 50
0.0
 71
     0
 42
0.2
  3
Standard
  4

1001
ACAD
1000
Standard
1071
        0
  0
ENDTAB
  0
TABLE
  2
VIEW
  5
31F
330
0
100
AcDbSymbolTable
 70
     0
  0
ENDTAB
  0
TABLE
  2
UCS
  5
320
330
0
100
AcDbSymbolTable
 70
     0
  0
ENDTAB
  0
TABLE
  2
APPID
  5
322
330
0
100
AcDbSymbolTable
 70
     2
  0
APPID
  5
32B
330
322
100
AcDbSymbolTableRecord
100
AcDbRegAppTableRecord
  2
ACAD
 70
     0
  0
APPID
  5
386
330
322
100
AcDbSymbolTableRecord
100
AcDbRegAppTableRecord
  2
QCAD
 70
     0
  0
ENDTAB
  0
TABLE
  2
DIMSTYLE
  5
323
330
0
100
AcDbSymbolTable
 70
     2
100
AcDbDimStyleTable
  0
DIMSTYLE
105
33F
330
323
100
AcDbSymbolTableRecord
100
AcDbDimStyleTableRecord
  2
Standard
 70
     0
178
     0
340
32A
  0
DIMSTYLE
105
3B8
102
{ACAD_REACTORS
330
200
330
201
330
202
330
204
330
205
330
206
330
207
330
208
330
209
330
20A
330
20B
330
20D
330
20E
330
20F
330
210
330
211
330
212
330
227
330
229
330
22A
330
22B
330
22C
330
22D
102
}
330
323
100
AcDbSymbolTableRecord
100
AcDbDimStyleTableRecord
  2
QCADDimStyle
 70
     0
 41
0.125
 42
0.03125
 44
0.0625
 73
     0
 77
     1
140
0.125
147
0.03125
178
     0
340
3B7
  0
ENDTAB
  0
TABLE
  2
BLOCK_RECORD
  5
31A
330
0
100
AcDbSymbolTable
 70
    24
  0
BLOCK_RECORD
  5
337
330
31A
100
AcDbSymbolTableRecord
100
AcDbBlockTableRecord
  2
*Model_Space
340
33A
 70
     0
280
     1
281
     0
  0
BLOCK_RECORD
  5
333
330
31A
100
AcDbSymbolTableRecord
100
AcDbBlockTableRecord
  2
*Paper_Space
340
336
 70
     0
280
     1
281
     0
  0
BLOCK_RECORD
  5
33B
330
31A
100
AcDbSymbolTableRecord
100
AcDbBlockTableRecord
  2
*Paper_Space0
340
33E
 70
     0
280
     1
281
     0
  0
BLOCK_RECORD
  5
404
330
31A
100
AcDbSymbolTableRecord
100
AcDbBlockTableRecord
  2
*D1
340
0
 70
     0
280
     1
281
     0
  0
BLOCK_RECORD
  5
411
330
31A
100
AcDbSymbolTableRecord
100
AcDbBlockTableRecord
  2
*D2
340
0
 70
     0
280
     1
281
     0
  0
BLOCK_RECORD
  5
41E
330
31A
100
AcDbSymbolTableRecord
100
AcDbBlockTableRecord
  2
*D3
340
0
 70
     0
280
     1
281
     0
  0
BLOCK_RECORD
  5
42B
330
31A
100
AcDbSymbolTableRecord
100
AcDbBlockTableRecord
  2
*D4
340
0
 70
     0
280
     1
281
     0
  0
BLOCK_RECORD
  5
438
330
31A
100
AcDbSymbolTableRecord
100
AcDbBlockTableRecord
  2
*D5
340
0
 70
     0
280
     1
281
     0
  0
BLOCK_RECORD
  5
445
330
31A
100
AcDbSymbolTableRecord
100
AcDbBlockTableRecord
  2
*D6
340
0
 70
     0
280
     1
281
     0
  0
BLOCK_RECORD
  5
452
330
31A
100
AcDbSymbolTableRecord
100
AcDbBlockTableRecord
  2
*D7
340
0
 70
     0
280
     1
281
     0
  0
BLOCK_RECORD
  5
45F
330
31A
100
AcDbSymbolTableRecord
100
AcDbBlockTableRecord
  2
*D8
340
0
 70
     0
280
     1
281
     0
  0
BLOCK_RECORD
  5
46C
330
31A
100
AcDbSymbolTableRecord
100
AcDbBlockTableRecord
  2
*D9
340
0
 70
     0
280
     1
281
     0
  0
BLOCK_RECORD
  5
479
330
31A
100
AcDbSymbolTableRecord
100
AcDbBlockTableRecord
  2
*D10
340
0
 70
     0
280
     1
281
     0
  0
BLOCK_RECORD
  5
486
330
31A
100
AcDbSymbolTableRecord
100
AcDbBlockTableRecord
  2
*D11
340
0
 70
     0
280
     1
281
     0
  0
BLOCK_RECORD
  5
493
330
31A
100
AcDbSymbolTableRecord
100
AcDbBlockTableRecord
  2
*D12
340
0
 70
     0
280
     1
281
     0
  0
BLOCK_RECORD
  5
4A0
330
31A
100
AcDbSymbolTableRecord
100
AcDbBlockTableRecord
  2
*D13
340
0
 70
     0
280
     1
281
     0
  0
BLOCK_RECORD
  5
4AD
330
31A
100
AcDbSymbolTableRecord
100
AcDbBlockTableRecord
  2
*D14
340
0
 70
     0
280
     1
281
     0
  0
BLOCK_RECORD
  5
4BA
330
31A
100
AcDbSymbolTableRecord
100
AcDbBlockTableRecord
  2
*D15
340
0
 70
     0
280
     1
281
     0
  0
BLOCK_RECORD
  5
4C7
330
31A
100
AcDbSymbolTableRecord
100
AcDbBlockTableRecord
  2
*D16
340
0
 70
     0
280
     1
281
     0
  0
BLOCK_RECORD
  5
4D4
330
31A
100
AcDbSymbolTableRecord
100
AcDbBlockTableRecord
  2
*D17
340
0
 70
     0
280
     1
281
     0
  0
BLOCK_RECORD
  5
4E1
330
31A
100
AcDbSymbolTableRecord
100
AcDbBlockTableRecord
  2
*D18
340
0
 70
     0
280
     1
281
     0
  0
BLOCK_RECORD
  5
4EC
330
31A
100
AcDbSymbolTableRecord
100
AcDbBlockTableRecord
  2
*D19
340
0
 70
     0
280
     1
281
     0
  0
BLOCK_RECORD
  5
4F7
330
31A
100
AcDbSymbolTableRecord
100
AcDbBlockTableRecord
  2
*D20
340
0
 70
     0
280
     1
281
     0
  0
BLOCK_RECORD
  5
502
330
31A
100
AcDbSymbolTableRecord
100
AcDbBlockTableRecord
  2
*D21
340
0
 70
     0
280
     1
281
     0
  0
BLOCK_RECORD
  5
50D
330
31A
100
AcDbSymbolTableRecord
100
AcDbBlockTableRecord
  2
*D22
340
0
 70
     0
280
     1
281
     0
  0
BLOCK_RECORD
  5
518
330
31A
100
AcDbSymbolTableRecord
100
AcDbBlockTableRecord
  2
*D23
340
0
 70
     0
280
     1
281
     0
  0
ENDTAB
  0
ENDSEC
  0
SECTION
  2
BLOCKS
  0
BLOCK
  5
338
330
337
100
AcDbEntity
  8
0
100
AcDbBlockBegin
  2
*Model_Space
 70
     0
 10
0.0
 20
0.0
 30
0.0
  3
*Model_Space
  1
*Model_Space
  0
ENDBLK
  5
339
330
337
100
AcDbEntity
  8
0
100
AcDbBlockEnd
  0
BLOCK
  5
334
330
333
100
AcDbEntity
 67
     1
  8
0
100
AcDbBlockBegin
  2
*Paper_Space
 70
     0
 10
0.0
 20
0.0
 30
0.0
  3
*Paper_Space
  1
*Paper_Space
  0
ENDBLK
  5
335
330
333
100
AcDbEntity
 67
     1
  8
0
100
AcDbBlockEnd
  0
BLOCK
  5
33C
330
33B
100
AcDbEntity
  8
0
100
AcDbBlockBegin
  2
*Paper_Space0
 70
     0
 10
0.0
 20
0.0
 30
0.0
  3
*Paper_Space0
  1
*Paper_Space0
  0
ENDBLK
  5
33D
330
33B
100
AcDbEntity
  8
0
100
AcDbBlockEnd
  0
BLOCK
  5
405
330
404
100
AcDbEntity
  8
0
100
AcDbBlockBegin
  2
*D1
 70
     1
 10
0.0
 20
0.0
 30
0.0
  3
*D1
  1
*D1
  0
LINE
  5
407
330
404
100
AcDbEntity
  8
Dimensions
 62
     0
370
    -2
100
AcDbLine
 10
124.82981191149
 20
159.9999999999998
 30
0.0
 11
133.6
 21
159.9999999999998
 31
0.0
  0
LINE
  5
408
330
404
100
AcDbEntity
  8
Dimensions
 62
     0
370
    -2
100
AcDbLine
 10
85.4541195181181
 20
183.4999999999998
 30
0.0
 11
133.6
 21
183.4999999999998
 31
0.0
  0
LINE
  5
409
330
404
100
AcDbEntity
  8
Dimensions
 62
     0
370
    -2
100
AcDbLine
 10
130.0
 20
163.5999999999998
 30
0.0
 11
130.0
 21
168.1499999999998
 31
0.0
  0
LINE
  5
40A
330
404
100
AcDbEntity
  8
Dimensions
 62
     0
370
    -2
100
AcDbLine
 10
130.0
 20
179.8999999999998
 30
0.0
 11
130.0
 21
175.3499999999998
 31
0.0
  0
SOLID
  5
40B
330
404
100
AcDbEntity
  8
Dimensions
 62
     0
100
AcDbTrace
 10
129.4
 20
163.5999999999998
 30
0.0
 11
130.6
 21
163.5999999999998
 31
0.0
 12
130.0
 22
159.9999999999998
 32
0.0
 13
130.0
 23
159.9999999999998
 33
0.0
  0
SOLID
  5
40C
330
404
100
AcDbEntity
  8
Dimensions
 62
     0
100
AcDbTrace
 10
130.6
 20
179.8999999999998
 30
0.0
 11
129.4
 21
179.8999999999998
 31
0.0
 12
130.0
 22
183.4999999999998
 32
0.0
 13
130.0
 23
183.4999999999998
 33
0.0
  0
MTEXT
  5
40D
330
404
100
AcDbEntity
  8
Dimensions
 62
     0
100
AcDbMText
 10
130.0
 20
171.7499999999998
 30
0.0
 40
3.6
 41
0.0
 46
0.0
 71
     5
 72
     1
  1
\A1;23.5000
 73
     1
 44
1.0
  0
POINT
  5
40E
330
404
100
AcDbEntity
  8
Defpoints
 62
     0
100
AcDbPoint
 10
123.57981191149
 20
159.9999999999998
 30
0.0
  0
POINT
  5
40F
330
404
100
AcDbEntity
  8
Defpoints
 62
     0
100
AcDbPoint
 10
84.2041195181181
 20
183.4999999999998
 30
0.0
  0
POINT
  5
410
330
404
100
AcDbEntity
  8
Defpoints
 62
     0
100
AcDbPoint
 10
130.0
 20
183.4999999999998
 30
0.0
  0
ENDBLK
  5
406
330
404
100
AcDbEntity
  8
0
100
AcDbBlockEnd
  0
BLOCK
  5
412
330
411
100
AcDbEntity
  8
0
100
AcDbBlockBegin
  2
*D2
 70
     1
 10
0.0
 20
0.0
 30
0.0
  3
*D2
  1
*D2
  0
LINE
  5
414
330
411
100
AcDbEntity
  8
Dimensions
 62
     0
370
    -2
100
AcDbLine
 10
92.65971961803854
 20
218.8988316174601
 30
0.0
 11
143.6
 21
218.8988316174601
 31
0.0
  0
LINE
  5
415
330
411
100
AcDbEntity
  8
Dimensions
 62
     0
370
    -2
100
AcDbLine
 10
124.82981191149
 20
159.9999999999998
 30
0.0
 11
143.6
 21
159.9999999999998
 31
0.0
  0
LINE
  5
416
330
411
100
AcDbEntity
  8
Dimensions
 62
     0
370
    -2
100
AcDbLine
 10
140.0
 20
215.2988316174601
 30
0.0
 11
140.0
 21
193.04941580873
 31
0.0
  0
LINE
  5
417
330
411
100
AcDbEntity
  8
Dimensions
 62
     0
370
    -2
100
AcDbLine
 10
140.0
 20
163.5999999999998
 30
0.0
 11
140.0
 21
185.8494158087299
 31
0.0
  0
SOLID
  5
418
330
411
100
AcDbEntity
  8
Dimensions
 62
     0
100
AcDbTrace
 10
140.6
 20
215.2988316174601
 30
0.0
 11
139.4
 21
215.2988316174601
 31
0.0
 12
140.0
 22
218.8988316174601
 32
0.0
 13
140.0
 23
218.8988316174601
 33
0.0
  0
SOLID
  5
419
330
411
100
AcDbEntity
  8
Dimensions
 62
     0
100
AcDbTrace
 10
139.4
 20
163.5999999999998
 30
0.0
 11
140.6
 21
163.5999999999998
 31
0.0
 12
140.0
 22
159.9999999999998
 32
0.0
 13
140.0
 23
159.9999999999998
 33
0.0
  0
MTEXT
  5
41A
330
411
100
AcDbEntity
  8
Dimensions
 62
     0
100
AcDbMText
 10
140.0
 20
189.44941580873
 30
0.0
 40
3.6
 41
0.0
 46
0.0
 71
     5
 72
     1
  1
\A1;58.8988
 73
     1
 44
1.0
  0
POINT
  5
41B
330
411
100
AcDbEntity
  8
Defpoints
 62
     0
100
AcDbPoint
 10
91.40971961803854
 20
218.8988316174601
 30
0.0
  0
POINT
  5
41C
330
411
100
AcDbEntity
  8
Defpoints
 62
     0
100
AcDbPoint
 10
123.57981191149
 20
159.9999999999998
 30
0.0
  0
POINT
  5
41D
330
411
100
AcDbEntity
  8
Defpoints
 62
     0
100
AcDbPoint
 10
140.0
 20
159.9999999999998
 30
0.0
  0
ENDBLK
  5
413
330
411
100
AcDbEntity
  8
0
100
AcDbBlockEnd
  0
BLOCK
  5
41F
330
41E
100
AcDbEntity
  8
0
100
AcDbBlockBegin
  2
*D3
 70
     1
 10
0.0
 20
0.0
 30
0.0
  3
*D3
  1
*D3
  0
LINE
  5
421
330
41E
100
AcDbEntity
  8
Dimensions
 62
     0
370
    -2
100
AcDbLine
 10
82.78990595574501
 20
186.1642135623731
 30
0.0
 11
82.78990595574501
 21
193.6
 31
0.0
  0
LINE
  5
422
330
41E
100
AcDbEntity
  8
Dimensions
 62
     0
370
    -2
100
AcDbLine
 10
123.57981191149
 20
161.2499999999998
 30
0.0
 11
123.57981191149
 21
193.6
 31
0.0
  0
LINE
  5
423
330
41E
100
AcDbEntity
  8
Dimensions
 62
     0
370
    -2
100
AcDbLine
 10
86.38990595574501
 20
190.0
 30
0.0
 11
90.84200179076036
 21
190.0
 31
0.0
  0
LINE
  5
424
330
41E
100
AcDbEntity
  8
Dimensions
 62
     0
370
    -2
100
AcDbLine
 10
119.97981191149
 20
190.0
 30
0.0
 11
115.5277160764746
 21
190.0
 31
0.0
  0
SOLID
  5
425
330
41E
100
AcDbEntity
  8
Dimensions
 62
     0
100
AcDbTrace
 10
86.38990595574501
 20
190.6
 30
0.0
 11
86.38990595574501
 21
189.4
 31
0.0
 12
82.78990595574501
 22
190.0
 32
0.0
 13
82.78990595574501
 23
190.0
 33
0.0
  0
SOLID
  5
426
330
41E
100
AcDbEntity
  8
Dimensions
 62
     0
100
AcDbTrace
 10
119.97981191149
 20
189.4
 30
0.0
 11
119.97981191149
 21
190.6
 31
0.0
 12
123.57981191149
 22
190.0
 32
0.0
 13
123.57981191149
 23
190.0
 33
0.0
  0
MTEXT
  5
427
330
41E
100
AcDbEntity
  8
Dimensions
 62
     0
100
AcDbMText
 10
103.1848589336175
 20
190.0
 30
0.0
 40
3.6
 41
0.0
 46
0.0
 71
     5
 72
     1
  1
\A1;40.7899
 73
     1
 44
1.0
  0
POINT
  5
428
330
41E
100
AcDbEntity
  8
Defpoints
 62
     0
100
AcDbPoint
 10
82.78990595574501
 20
184.9142135623731
 30
0.0
  0
POINT
  5
429
330
41E
100
AcDbEntity
  8
Defpoints
 62
     0
100
AcDbPoint
 10
123.57981191149
 20
159.9999999999998
 30
0.0
  0
POINT
  5
42A
330
41E
100
AcDbEntity
  8
Defpoints
 62
     0
100
AcDbPoint
 10
123.57981191149
 20
190.0
 30
0.0
  0
ENDBLK
  5
420
330
41E
100
AcDbEntity
  8
0
100
AcDbBlockEnd
  0
BLOCK
  5
42C
330
42B
100
AcDbEntity
  8
0
100
AcDbBlockBegin
  2
*D4
 70
     1
 10
0.0
 20
0.0
 30
0.0
  3
*D4
  1
*D4
  0
LINE
  5
42E
330
42B
100
AcDbEntity
  8
Dimensions
 62
     0
370
    -2
100
AcDbLine
 10
0.0
 20
161.25
 30
0.0
 11
0.0
 21
233.6
 31
0.0
  0
LINE
  5
42F
330
42B
100
AcDbEntity
  8
Dimensions
 62
     0
370
    -2
100
AcDbLine
 10
32.17009229345133
 20
220.1488316174602
 30
0.0
 11
32.17009229345133
 21
233.6
 31
0.0
  0
LINE
  5
430
330
42B
100
AcDbEntity
  8
Dimensions
 62
     0
370
    -2
100
AcDbLine
 10
-3.6
 20
230.0
 30
0.0
 11
-7.199999999999999
 21
230.0
 31
0.0
  0
LINE
  5
431
330
42B
100
AcDbEntity
  8
Dimensions
 62
     0
370
    -2
100
AcDbLine
 10
35.77009229345133
 20
230.0
 30
0.0
 11
39.37009229345134
 21
230.0
 31
0.0
  0
SOLID
  5
432
330
42B
100
AcDbEntity
  8
Dimensions
 62
     0
100
AcDbTrace
 10
-3.6
 20
229.4
 30
0.0
 11
-3.6
 21
230.6
 31
0.0
 12
0.0
 22
230.0
 32
0.0
 13
0.0
 23
230.0
 33
0.0
  0
SOLID
  5
433
330
42B
100
AcDbEntity
  8
Dimensions
 62
     0
100
AcDbTrace
 10
35.77009229345133
 20
230.6
 30
0.0
 11
35.77009229345133
 21
229.4
 31
0.0
 12
32.17009229345133
 22
230.0
 32
0.0
 13
32.17009229345133
 23
230.0
 33
0.0
  0
MTEXT
  5
434
330
42B
100
AcDbEntity
  8
Dimensions
 62
     0
100
AcDbMText
 10
16.08504614672567
 20
230.0
 30
0.0
 40
3.6
 41
0.0
 46
0.0
 71
     5
 72
     1
  1
\A1;32.1701
 73
     1
 44
1.0
  0
POINT
  5
435
330
42B
100
AcDbEntity
  8
Defpoints
 62
     0
100
AcDbPoint
 10
0.0
 20
160.0
 30
0.0
  0
POINT
  5
436
330
42B
100
AcDbEntity
  8
Defpoints
 62
     0
100
AcDbPoint
 10
32.17009229345133
 20
218.8988316174602
 30
0.0
  0
POINT
  5
437
330
42B
100
AcDbEntity
  8
Defpoints
 62
     0
100
AcDbPoint
 10
32.17009229345133
 20
230.0
 30
0.0
  0
ENDBLK
  5
42D
330
42B
100
AcDbEntity
  8
0
100
AcDbBlockEnd
  0
BLOCK
  5
439
330
438
100
AcDbEntity
  8
0
100
AcDbBlockBegin
  2
*D5
 70
     1
 10
0.0
 20
0.0
 30
0.0
  3
*D5
  1
*D5
  0
LINE
  5
43B
330
438
100
AcDbEntity
  8
Dimensions
 62
     0
370
    -2
100
AcDbLine
 10
91.40971961803854
 20
220.1488316174601
 30
0.0
 11
91.40971961803854
 21
233.6
 31
0.0
  0
LINE
  5
43C
330
438
100
AcDbEntity
  8
Dimensions
 62
     0
370
    -2
100
AcDbLine
 10
32.17009229345133
 20
220.1488316174602
 30
0.0
 11
32.17009229345133
 21
233.6
 31
0.0
  0
LINE
  5
43D
330
438
100
AcDbEntity
  8
Dimensions
 62
     0
370
    -2
100
AcDbLine
 10
87.80971961803854
 20
230.0
 30
0.0
 11
74.21847738431636
 21
230.0
 31
0.0
  0
LINE
  5
43E
330
438
100
AcDbEntity
  8
Dimensions
 62
     0
370
    -2
100
AcDbLine
 10
35.77009229345133
 20
230.0
 30
0.0
 11
49.36133452717351
 21
230.0
 31
0.0
  0
SOLID
  5
43F
330
438
100
AcDbEntity
  8
Dimensions
 62
     0
100
AcDbTrace
 10
87.80971961803854
 20
229.4
 30
0.0
 11
87.80971961803854
 21
230.6
 31
0.0
 12
91.40971961803854
 22
230.0
 32
0.0
 13
91.40971961803854
 23
230.0
 33
0.0
  0
SOLID
  5
440
330
438
100
AcDbEntity
  8
Dimensions
 62
     0
100
AcDbTrace
 10
35.77009229345133
 20
230.6
 30
0.0
 11
35.77009229345133
 21
229.4
 31
0.0
 12
32.17009229345133
 22
230.0
 32
0.0
 13
32.17009229345133
 23
230.0
 33
0.0
  0
MTEXT
  5
441
330
438
100
AcDbEntity
  8
Dimensions
 62
     0
100
AcDbMText
 10
61.78990595574493
 20
230.0
 30
0.0
 40
3.6
 41
0.0
 46
0.0
 71
     5
 72
     1
  1
\A1;59.2396
 73
     1
 44
1.0
  0
POINT
  5
442
330
438
100
AcDbEntity
  8
Defpoints
 62
     0
100
AcDbPoint
 10
91.40971961803854
 20
218.8988316174601
 30
0.0
  0
POINT
  5
443
330
438
100
AcDbEntity
  8
Defpoints
 62
     0
100
AcDbPoint
 10
32.17009229345133
 20
218.8988316174602
 30
0.0
  0
POINT
  5
444
330
438
100
AcDbEntity
  8
Defpoints
 62
     0
100
AcDbPoint
 10
32.17009229345133
 20
230.0
 30
0.0
  0
ENDBLK
  5
43A
330
438
100
AcDbEntity
  8
0
100
AcDbBlockEnd
  0
BLOCK
  5
446
330
445
100
AcDbEntity
  8
0
100
AcDbBlockBegin
  2
*D6
 70
     1
 10
0.0
 20
0.0
 30
0.0
  3
*D6
  1
*D6
  0
LINE
  5
448
330
445
100
AcDbEntity
  8
Dimensions
 62
     0
370
    -2
100
AcDbLine
 10
0.0
 20
161.25
 30
0.0
 11
0.0
 21
243.6
 31
0.0
  0
LINE
  5
449
330
445
100
AcDbEntity
  8
Dimensions
 62
     0
370
    -2
100
AcDbLine
 10
123.57981191149
 20
161.2499999999998
 30
0.0
 11
123.57981191149
 21
243.6
 31
0.0
  0
LINE
  5
44A
330
445
100
AcDbEntity
  8
Dimensions
 62
     0
370
    -2
100
AcDbLine
 10
3.6
 20
240.0
 30
0.0
 11
47.90419167003071
 21
240.0
 31
0.0
  0
LINE
  5
44B
330
445
100
AcDbEntity
  8
Dimensions
 62
     0
370
    -2
100
AcDbLine
 10
119.97981191149
 20
240.0
 30
0.0
 11
75.67562024145928
 21
240.0
 31
0.0
  0
SOLID
  5
44C
330
445
100
AcDbEntity
  8
Dimensions
 62
     0
100
AcDbTrace
 10
3.6
 20
240.6
 30
0.0
 11
3.6
 21
239.4
 31
0.0
 12
0.0
 22
240.0
 32
0.0
 13
0.0
 23
240.0
 33
0.0
  0
SOLID
  5
44D
330
445
100
AcDbEntity
  8
Dimensions
 62
     0
100
AcDbTrace
 10
119.97981191149
 20
239.4
 30
0.0
 11
119.97981191149
 21
240.6
 31
0.0
 12
123.57981191149
 22
240.0
 32
0.0
 13
123.57981191149
 23
240.0
 33
0.0
  0
MTEXT
  5
44E
330
445
100
AcDbEntity
  8
Dimensions
 62
     0
100
AcDbMText
 10
61.789905955745
 20
240.0
 30
0.0
 40
3.6
 41
0.0
 46
0.0
 71
     5
 72
     1
  1
\A1;123.5798
 73
     1
 44
1.0
  0
POINT
  5
44F
330
445
100
AcDbEntity
  8
Defpoints
 62
     0
100
AcDbPoint
 10
0.0
 20
160.0
 30
0.0
  0
POINT
  5
450
330
445
100
AcDbEntity
  8
Defpoints
 62
     0
100
AcDbPoint
 10
123.57981191149
 20
159.9999999999998
 30
0.0
  0
POINT
  5
451
330
445
100
AcDbEntity
  8
Defpoints
 62
     0
100
AcDbPoint
 10
123.57981191149
 20
240.0
 30
0.0
  0
ENDBLK
  5
447
330
445
100
AcDbEntity
  8
0
100
AcDbBlockEnd
  0
BLOCK
  5
453
330
452
100
AcDbEntity
  8
0
100
AcDbBlockBegin
  2
*D7
 70
     1
 10
0.0
 20
0.0
 30
0.0
  3
*D7
  1
*D7
  0
LINE
  5
455
330
452
100
AcDbEntity
  8
Dimensions
 62
     0
370
    -2
100
AcDbLine
 10
0.0000000000000136
 20
61.25000000000003
 30
0.0
 11
-0.0000000000000017
 21
93.6
 31
0.0
  0
LINE
  5
456
330
452
100
AcDbEntity
  8
Dimensions
 62
     0
370
    -2
100
AcDbLine
 10
219.0000000000002
 20
1.249999999999929
 30
0.0
 11
219.0000000000002
 21
93.6
 31
0.0
  0
LINE
  5
457
330
452
100
AcDbEntity
  8
Dimensions
 62
     0
370
    -2
100
AcDbLine
 10
3.6
 20
90.0
 30
0.0
 11
95.35714285714296
 21
90.0
 31
0.0
  0
LINE
  5
458
330
452
100
AcDbEntity
  8
Dimensions
 62
     0
370
    -2
100
AcDbLine
 10
215.4000000000002
 20
90.0
 30
0.0
 11
123.6428571428572
 21
90.0
 31
0.0
  0
SOLID
  5
459
330
452
100
AcDbEntity
  8
Dimensions
 62
     0
100
AcDbTrace
 10
3.6
 20
90.6
 30
0.0
 11
3.6
 21
89.4
 31
0.0
 12
0.0
 22
90.0
 32
0.0
 13
0.0
 23
90.0
 33
0.0
  0
SOLID
  5
45A
330
452
100
AcDbEntity
  8
Dimensions
 62
     0
100
AcDbTrace
 10
215.4000000000002
 20
89.4
 30
0.0
 11
215.4000000000002
 21
90.6
 31
0.0
 12
219.0000000000002
 22
90.0
 32
0.0
 13
219.0000000000002
 23
90.0
 33
0.0
  0
MTEXT
  5
45B
330
452
100
AcDbEntity
  8
Dimensions
 62
     0
100
AcDbMText
 10
109.5000000000001
 20
90.0
 30
0.0
 40
3.6
 41
0.0
 46
0.0
 71
     5
 72
     1
  1
\A1;219.0000
 73
     1
 44
1.0
  0
POINT
  5
45C
330
452
100
AcDbEntity
  8
Defpoints
 62
     0
100
AcDbPoint
 10
0.0000000000000142
 20
60.00000000000003
 30
0.0
  0
POINT
  5
45D
330
452
100
AcDbEntity
  8
Defpoints
 62
     0
100
AcDbPoint
 10
219.0000000000002
 20
-0.0000000000000711
 30
0.0
  0
POINT
  5
45E
330
452
100
AcDbEntity
  8
Defpoints
 62
     0
100
AcDbPoint
 10
219.0000000000002
 20
90.0
 30
0.0
  0
ENDBLK
  5
454
330
452
100
AcDbEntity
  8
0
100
AcDbBlockEnd
  0
BLOCK
  5
460
330
45F
100
AcDbEntity
  8
0
100
AcDbBlockBegin
  2
*D8
 70
     1
 10
0.0
 20
0.0
 30
0.0
  3
*D8
  1
*D8
  0
LINE
  5
462
330
45F
100
AcDbEntity
  8
Dimensions
 62
     0
370
    -2
100
AcDbLine
 10
0.0000000000000142
 20
61.25000000000003
 30
0.0
 11
0.0000000000000142
 21
83.6
 31
0.0
  0
LINE
  5
463
330
45F
100
AcDbEntity
  8
Dimensions
 62
     0
370
    -2
100
AcDbLine
 10
126.0000000000001
 20
61.25
 30
0.0
 11
126.0000000000001
 21
83.6
 31
0.0
  0
LINE
  5
464
330
45F
100
AcDbEntity
  8
Dimensions
 62
     0
370
    -2
100
AcDbLine
 10
3.600000000000014
 20
80.0
 30
0.0
 11
49.11428571428578
 21
80.0
 31
0.0
  0
LINE
  5
465
330
45F
100
AcDbEntity
  8
Dimensions
 62
     0
370
    -2
100
AcDbLine
 10
122.4000000000001
 20
80.0
 30
0.0
 11
76.88571428571436
 21
80.0
 31
0.0
  0
SOLID
  5
466
330
45F
100
AcDbEntity
  8
Dimensions
 62
     0
100
AcDbTrace
 10
3.600000000000014
 20
80.6
 30
0.0
 11
3.600000000000014
 21
79.4
 31
0.0
 12
0.0000000000000142
 22
80.0
 32
0.0
 13
0.0000000000000142
 23
80.0
 33
0.0
  0
SOLID
  5
467
330
45F
100
AcDbEntity
  8
Dimensions
 62
     0
100
AcDbTrace
 10
122.4000000000001
 20
79.4
 30
0.0
 11
122.4000000000001
 21
80.6
 31
0.0
 12
126.0000000000001
 22
80.0
 32
0.0
 13
126.0000000000001
 23
80.0
 33
0.0
  0
MTEXT
  5
468
330
45F
100
AcDbEntity
  8
Dimensions
 62
     0
100
AcDbMText
 10
63.00000000000006
 20
80.0
 30
0.0
 40
3.6
 41
0.0
 46
0.0
 71
     5
 72
     1
  1
\A1;126.0000
 73
     1
 44
1.0
  0
POINT
  5
469
330
45F
100
AcDbEntity
  8
Defpoints
 62
     0
100
AcDbPoint
 10
0.0000000000000142
 20
60.00000000000003
 30
0.0
  0
POINT
  5
46A
330
45F
100
AcDbEntity
  8
Defpoints
 62
     0
100
AcDbPoint
 10
126.0000000000001
 20
60.0
 30
0.0
  0
POINT
  5
46B
330
45F
100
AcDbEntity
  8
Defpoints
 62
     0
100
AcDbPoint
 10
126.0000000000001
 20
80.0
 30
0.0
  0
ENDBLK
  5
461
330
45F
100
AcDbEntity
  8
0
100
AcDbBlockEnd
  0
BLOCK
  5
46D
330
46C
100
AcDbEntity
  8
0
100
AcDbBlockBegin
  2
*D9
 70
     1
 10
0.0
 20
0.0
 30
0.0
  3
*D9
  1
*D9
  0
LINE
  5
46F
330
46C
100
AcDbEntity
  8
Dimensions
 62
     0
370
    -2
100
AcDbLine
 10
126.0000000000001
 20
61.25
 30
0.0
 11
126.0000000000001
 21
83.6
 31
0.0
  0
LINE
  5
470
330
46C
100
AcDbEntity
  8
Dimensions
 62
     0
370
    -2
100
AcDbLine
 10
186.0000000000001
 20
61.25000000000013
 30
0.0
 11
186.0000000000001
 21
83.6
 31
0.0
  0
LINE
  5
471
330
46C
100
AcDbEntity
  8
Dimensions
 62
     0
370
    -2
100
AcDbLine
 10
129.6000000000001
 20
80.0
 30
0.0
 11
143.657142857143
 21
80.0
 31
0.0
  0
LINE
  5
472
330
46C
100
AcDbEntity
  8
Dimensions
 62
     0
370
    -2
100
AcDbLine
 10
182.4000000000001
 20
80.0
 30
0.0
 11
168.3428571428573
 21
80.0
 31
0.0
  0
SOLID
  5
473
330
46C
100
AcDbEntity
  8
Dimensions
 62
     0
100
AcDbTrace
 10
129.6000000000001
 20
80.6
 30
0.0
 11
129.6000000000001
 21
79.4
 31
0.0
 12
126.0000000000001
 22
80.0
 32
0.0
 13
126.0000000000001
 23
80.0
 33
0.0
  0
SOLID
  5
474
330
46C
100
AcDbEntity
  8
Dimensions
 62
     0
100
AcDbTrace
 10
182.4000000000001
 20
79.4
 30
0.0
 11
182.4000000000001
 21
80.6
 31
0.0
 12
186.0000000000001
 22
80.0
 32
0.0
 13
186.0000000000001
 23
80.0
 33
0.0
  0
MTEXT
  5
475
330
46C
100
AcDbEntity
  8
Dimensions
 62
     0
100
AcDbMText
 10
156.0000000000001
 20
80.0
 30
0.0
 40
3.6
 41
0.0
 46
0.0
 71
     5
 72
     1
  1
\A1;60.0000
 73
     1
 44
1.0
  0
POINT
  5
476
330
46C
100
AcDbEntity
  8
Defpoints
 62
     0
100
AcDbPoint
 10
126.0000000000001
 20
60.0
 30
0.0
  0
POINT
  5
477
330
46C
100
AcDbEntity
  8
Defpoints
 62
     0
100
AcDbPoint
 10
186.0000000000001
 20
60.00000000000013
 30
0.0
  0
POINT
  5
478
330
46C
100
AcDbEntity
  8
Defpoints
 62
     0
100
AcDbPoint
 10
186.0000000000001
 20
80.0
 30
0.0
  0
ENDBLK
  5
46E
330
46C
100
AcDbEntity
  8
0
100
AcDbBlockEnd
  0
BLOCK
  5
47A
330
479
100
AcDbEntity
  8
0
100
AcDbBlockBegin
  2
*D10
 70
     1
 10
0.0
 20
0.0
 30
0.0
  3
*D10
  1
*D10
  0
LINE
  5
47C
330
479
100
AcDbEntity
  8
Dimensions
 62
     0
370
    -2
100
AcDbLine
 10
186.0000000000001
 20
61.25000000000013
 30
0.0
 11
186.0000000000001
 21
83.6
 31
0.0
  0
LINE
  5
47D
330
479
100
AcDbEntity
  8
Dimensions
 62
     0
370
    -2
100
AcDbLine
 10
219.0000000000002
 20
1.249999999999929
 30
0.0
 11
219.0000000000002
 21
83.6
 31
0.0
  0
LINE
  5
47E
330
479
100
AcDbEntity
  8
Dimensions
 62
     0
370
    -2
100
AcDbLine
 10
182.4000000000001
 20
80.0
 30
0.0
 11
178.8000000000001
 21
80.0
 31
0.0
  0
LINE
  5
47F
330
479
100
AcDbEntity
  8
Dimensions
 62
     0
370
    -2
100
AcDbLine
 10
222.6000000000002
 20
80.0
 30
0.0
 11
226.2000000000002
 21
80.0
 31
0.0
  0
SOLID
  5
480
330
479
100
AcDbEntity
  8
Dimensions
 62
     0
100
AcDbTrace
 10
182.4000000000001
 20
79.4
 30
0.0
 11
182.4000000000001
 21
80.6
 31
0.0
 12
186.0000000000001
 22
80.0
 32
0.0
 13
186.0000000000001
 23
80.0
 33
0.0
  0
SOLID
  5
481
330
479
100
AcDbEntity
  8
Dimensions
 62
     0
100
AcDbTrace
 10
222.6000000000002
 20
80.6
 30
0.0
 11
222.6000000000002
 21
79.4
 31
0.0
 12
219.0000000000002
 22
80.0
 32
0.0
 13
219.0000000000002
 23
80.0
 33
0.0
  0
MTEXT
  5
482
330
479
100
AcDbEntity
  8
Dimensions
 62
     0
100
AcDbMText
 10
202.5000000000002
 20
80.0
 30
0.0
 40
3.6
 41
0.0
 46
0.0
 71
     5
 72
     1
  1
\A1;33.0000
 73
     1
 44
1.0
  0
POINT
  5
483
330
479
100
AcDbEntity
  8
Defpoints
 62
     0
100
AcDbPoint
 10
186.0000000000001
 20
60.00000000000013
 30
0.0
  0
POINT
  5
484
330
479
100
AcDbEntity
  8
Defpoints
 62
     0
100
AcDbPoint
 10
219.0000000000002
 20
-0.0000000000000711
 30
0.0
  0
POINT
  5
485
330
479
100
AcDbEntity
  8
Defpoints
 62
     0
100
AcDbPoint
 10
219.0000000000002
 20
80.0
 30
0.0
  0
ENDBLK
  5
47B
330
479
100
AcDbEntity
  8
0
100
AcDbBlockEnd
  0
BLOCK
  5
487
330
486
100
AcDbEntity
  8
0
100
AcDbBlockBegin
  2
*D11
 70
     1
 10
0.0
 20
0.0
 30
0.0
  3
*D11
  1
*D11
  0
LINE
  5
489
330
486
100
AcDbEntity
  8
Dimensions
 62
     0
370
    -2
100
AcDbLine
 10
187.2500000000001
 20
60.00000000000013
 30
0.0
 11
233.6
 21
60.00000000000013
 31
0.0
  0
LINE
  5
48A
330
486
100
AcDbEntity
  8
Dimensions
 62
     0
370
    -2
100
AcDbLine
 10
220.2500000000002
 20
-0.0000000000000712
 30
0.0
 11
233.6
 21
-0.000000000000072
 31
0.0
  0
LINE
  5
48B
330
486
100
AcDbEntity
  8
Dimensions
 62
     0
370
    -2
100
AcDbLine
 10
230.0
 20
56.40000000000013
 30
0.0
 11
230.0
 21
33.60000000000003
 31
0.0
  0
LINE
  5
48C
330
486
100
AcDbEntity
  8
Dimensions
 62
     0
370
    -2
100
AcDbLine
 10
230.0
 20
3.599999999999928
 30
0.0
 11
230.0
 21
26.40000000000003
 31
0.0
  0
SOLID
  5
48D
330
486
100
AcDbEntity
  8
Dimensions
 62
     0
100
AcDbTrace
 10
230.6
 20
56.40000000000013
 30
0.0
 11
229.4
 21
56.40000000000013
 31
0.0
 12
230.0
 22
60.00000000000013
 32
0.0
 13
230.0
 23
60.00000000000013
 33
0.0
  0
SOLID
  5
48E
330
486
100
AcDbEntity
  8
Dimensions
 62
     0
100
AcDbTrace
 10
229.4
 20
3.599999999999928
 30
0.0
 11
230.6
 21
3.599999999999928
 31
0.0
 12
230.0
 22
-0.0000000000000718
 32
0.0
 13
230.0
 23
-0.0000000000000718
 33
0.0
  0
MTEXT
  5
48F
330
486
100
AcDbEntity
  8
Dimensions
 62
     0
100
AcDbMText
 10
230.0
 20
30.00000000000003
 30
0.0
 40
3.6
 41
0.0
 46
0.0
 71
     5
 72
     1
  1
\A1;60.0000
 73
     1
 44
1.0
  0
POINT
  5
490
330
486
100
AcDbEntity
  8
Defpoints
 62
     0
100
AcDbPoint
 10
186.0000000000001
 20
60.00000000000013
 30
0.0
  0
POINT
  5
491
330
486
100
AcDbEntity
  8
Defpoints
 62
     0
100
AcDbPoint
 10
219.0000000000002
 20
-0.0000000000000711
 30
0.0
  0
POINT
  5
492
330
486
100
AcDbEntity
  8
Defpoints
 62
     0
100
AcDbPoint
 10
230.0
 20
-0.0000000000000718
 30
0.0
  0
ENDBLK
  5
488
330
486
100
AcDbEntity
  8
0
100
AcDbBlockEnd
  0
BLOCK
  5
494
330
493
100
AcDbEntity
  8
0
100
AcDbBlockBegin
  2
*D12
 70
     1
 10
0.0
 20
0.0
 30
0.0
  3
*D12
  1
*D12
  0
LINE
  5
496
330
493
100
AcDbEntity
  8
Dimensions
 62
     0
370
    -2
100
AcDbLine
 10
272.6202711556675
 20
91.42490653194123
 30
0.0
 11
272.620271155667
 21
96.59999999999998
 31
0.0
  0
LINE
  5
497
330
493
100
AcDbEntity
  8
Dimensions
 62
     0
370
    -2
100
AcDbLine
 10
274.6202711556675
 20
91.42490653194142
 30
0.0
 11
274.620271155667
 21
96.60000000000016
 31
0.0
  0
LINE
  5
498
330
493
100
AcDbEntity
  8
Dimensions
 62
     0
370
    -2
100
AcDbLine
 10
269.0202711556673
 20
92.99999999999966
 30
0.0
 11
265.4202711556673
 21
92.99999999999933
 31
0.0
  0
LINE
  5
499
330
493
100
AcDbEntity
  8
Dimensions
 62
     0
370
    -2
100
AcDbLine
 10
278.2202711556673
 20
93.0000000000005
 30
0.0
 11
281.8202711556673
 21
93.00000000000082
 31
0.0
  0
SOLID
  5
49A
330
493
100
AcDbEntity
  8
Dimensions
 62
     0
100
AcDbTrace
 10
269.0202711556673
 20
92.39999999999966
 30
0.0
 11
269.0202711556672
 21
93.59999999999965
 31
0.0
 12
272.6202711556673
 22
92.99999999999999
 32
0.0
 13
272.6202711556673
 23
92.99999999999999
 33
0.0
  0
SOLID
  5
49B
330
493
100
AcDbEntity
  8
Dimensions
 62
     0
100
AcDbTrace
 10
278.2202711556673
 20
93.60000000000049
 30
0.0
 11
278.2202711556674
 21
92.4000000000005
 31
0.0
 12
274.6202711556673
 22
93.00000000000017
 32
0.0
 13
274.6202711556673
 23
93.00000000000017
 33
0.0
  0
MTEXT
  5
49C
330
493
100
AcDbEntity
  8
Dimensions
 62
     0
100
AcDbMText
 10
273.6202711556676
 20
93.09375000000011
 30
0.0
 40
3.6
 41
0.0
 46
0.0
 71
     5
 72
     1
  1
\A1;2.0000
 73
     1
 44
1.0
  0
POINT
  5
49D
330
493
100
AcDbEntity
  8
Defpoints
 62
     0
100
AcDbPoint
 10
272.6202711556676
 20
90.17490653194123
 30
0.0
  0
POINT
  5
49E
330
493
100
AcDbEntity
  8
Defpoints
 62
     0
100
AcDbPoint
 10
274.6202711556676
 20
90.17490653194142
 30
0.0
  0
POINT
  5
49F
330
493
100
AcDbEntity
  8
Defpoints
 62
     0
100
AcDbPoint
 10
274.6202711556673
 20
93.00000000000017
 30
0.0
  0
ENDBLK
  5
495
330
493
100
AcDbEntity
  8
0
100
AcDbBlockEnd
  0
BLOCK
  5
4A1
330
4A0
100
AcDbEntity
  8
0
100
AcDbBlockBegin
  2
*D13
 70
     1
 10
0.0
 20
0.0
 30
0.0
  3
*D13
  1
*D13
  0
LINE
  5
4A3
330
4A0
100
AcDbEntity
  8
Dimensions
 62
     0
370
    -2
100
AcDbLine
 10
275.8702711556676
 20
90.17490653194142
 30
0.0
 11
280.6
 21
90.17490653194142
 31
0.0
  0
LINE
  5
4A4
330
4A0
100
AcDbEntity
  8
Dimensions
 62
     0
370
    -2
100
AcDbLine
 10
275.8702711556676
 20
88.17490653194135
 30
0.0
 11
280.6
 21
88.17490653194135
 31
0.0
  0
LINE
  5
4A5
330
4A0
100
AcDbEntity
  8
Dimensions
 62
     0
370
    -2
100
AcDbLine
 10
277.0
 20
93.77490653194141
 30
0.0
 11
277.0
 21
97.3749065319414
 31
0.0
  0
LINE
  5
4A6
330
4A0
100
AcDbEntity
  8
Dimensions
 62
     0
370
    -2
100
AcDbLine
 10
277.0
 20
84.57490653194135
 30
0.0
 11
277.0
 21
80.97490653194136
 31
0.0
  0
SOLID
  5
4A7
330
4A0
100
AcDbEntity
  8
Dimensions
 62
     0
100
AcDbTrace
 10
276.4
 20
93.77490653194141
 30
0.0
 11
277.6
 21
93.77490653194141
 31
0.0
 12
277.0
 22
90.17490653194142
 32
0.0
 13
277.0
 23
90.17490653194142
 33
0.0
  0
SOLID
  5
4A8
330
4A0
100
AcDbEntity
  8
Dimensions
 62
     0
100
AcDbTrace
 10
277.6
 20
84.57490653194135
 30
0.0
 11
276.4
 21
84.57490653194135
 31
0.0
 12
277.0
 22
88.17490653194135
 32
0.0
 13
277.0
 23
88.17490653194135
 33
0.0
  0
MTEXT
  5
4A9
330
4A0
100
AcDbEntity
  8
Dimensions
 62
     0
100
AcDbMText
 10
276.90625
 20
89.17490653194145
 30
0.0
 40
3.6
 41
0.0
 46
0.0
 71
     5
 72
     1
  1
\A1;2.0000
 73
     1
 44
1.0
  0
POINT
  5
4AA
330
4A0
100
AcDbEntity
  8
Defpoints
 62
     0
100
AcDbPoint
 10
274.6202711556676
 20
90.17490653194142
 30
0.0
  0
POINT
  5
4AB
330
4A0
100
AcDbEntity
  8
Defpoints
 62
     0
100
AcDbPoint
 10
274.6202711556676
 20
88.17490653194135
 30
0.0
  0
POINT
  5
4AC
330
4A0
100
AcDbEntity
  8
Defpoints
 62
     0
100
AcDbPoint
 10
277.0
 20
88.17490653194135
 30
0.0
  0
ENDBLK
  5
4A2
330
4A0
100
AcDbEntity
  8
0
100
AcDbBlockEnd
  0
BLOCK
  5
4AE
330
4AD
100
AcDbEntity
  8
0
100
AcDbBlockBegin
  2
*D14
 70
     1
 10
0.0
 20
0.0
 30
0.0
  3
*D14
  1
*D14
  0
LINE
  5
4B0
330
4AD
100
AcDbEntity
  8
Dimensions
 62
     0
370
    -2
100
AcDbLine
 10
274.719891950022
 20
126.7817884090449
 30
0.0
 11
273.5883402720974
 21
121.860582574651
 31
0.0
  0
LINE
  5
4B1
330
4AD
100
AcDbEntity
  8
Dimensions
 62
     0
370
    -2
100
AcDbLine
 10
277.6435997683147
 20
126.1095290890976
 30
0.0
 11
276.5120480903901
 21
121.1883232547037
 31
0.0
  0
LINE
  5
4B2
330
4AD
100
AcDbEntity
  8
Dimensions
 62
     0
370
    -2
100
AcDbLine
 10
270.8866020740832
 20
126.1757431405386
 30
0.0
 11
267.3781526921323
 21
126.9824543244753
 31
0.0
  0
LINE
  5
4B3
330
4AD
100
AcDbEntity
  8
Dimensions
 62
     0
370
    -2
100
AcDbLine
 10
280.8272086562777
 20
123.8900614527179
 30
0.0
 11
284.3356580382285
 21
123.0833502687812
 31
0.0
  0
SOLID
  5
4B4
330
4AD
100
AcDbEntity
  8
Dimensions
 62
     0
100
AcDbTrace
 10
270.7521502100938
 20
125.5910015768801
 30
0.0
 11
271.0210539380727
 21
126.7604847041971
 31
0.0
 12
274.3950514560341
 22
125.3690319566019
 32
0.0
 13
274.3950514560341
 23
125.3690319566019
 33
0.0
  0
SOLID
  5
4B5
330
4AD
100
AcDbEntity
  8
Dimensions
 62
     0
100
AcDbTrace
 10
280.9616605202671
 20
124.4748030163764
 30
0.0
 11
280.6927567922882
 21
123.3053198890594
 31
0.0
 12
277.3187592743268
 22
124.6967726366546
 32
0.0
 13
277.3187592743268
 23
124.6967726366546
 33
0.0
  0
MTEXT
  5
4B6
330
4AD
100
AcDbEntity
  8
Dimensions
 62
     0
100
AcDbMText
 10
273.2350940173862
 20
113.6304418052879
 30
0.0
 40
3.6
 41
0.0
 46
0.0
 71
     5
 72
     1
  1
\A1;3.0000
 73
     1
 44
1.0
  0
POINT
  5
4B7
330
4AD
100
AcDbEntity
  8
Defpoints
 62
     0
100
AcDbPoint
 10
275.0
 20
128.0000000000001
 30
0.0
  0
POINT
  5
4B8
330
4AD
100
AcDbEntity
  8
Defpoints
 62
     0
100
AcDbPoint
 10
277.9237078182927
 20
127.3277406800528
 30
0.0
  0
POINT
  5
4B9
330
4AD
100
AcDbEntity
  8
Defpoints
 62
     0
100
AcDbPoint
 10
277.3187592743268
 20
124.6967726366546
 30
0.0
  0
ENDBLK
  5
4AF
330
4AD
100
AcDbEntity
  8
0
100
AcDbBlockEnd
  0
BLOCK
  5
4BB
330
4BA
100
AcDbEntity
  8
0
100
AcDbBlockBegin
  2
*D15
 70
     1
 10
0.0
 20
0.0
 30
0.0
  3
*D15
  1
*D15
  0
LINE
  5
4BD
330
4BA
100
AcDbEntity
  8
Dimensions
 62
     0
370
    -2
100
AcDbLine
 10
273.7795613556872
 20
128.2702397370264
 30
0.0
 11
268.7342982773411
 21
129.3874041056525
 31
0.0
  0
LINE
  5
4BE
330
4BA
100
AcDbEntity
  8
Dimensions
 62
     0
370
    -2
100
AcDbLine
 10
274.4281367245503
 20
131.1992924833771
 30
0.0
 11
269.3828736462042
 21
132.3164568520033
 31
0.0
  0
LINE
  5
4BF
330
4BA
100
AcDbEntity
  8
Dimensions
 62
     0
370
    -2
100
AcDbLine
 10
271.4708711303263
 20
125.0942503673961
 30
0.0
 11
270.6925806876906
 21
121.5793870717753
 31
0.0
  0
LINE
  5
4C0
330
4BA
100
AcDbEntity
  8
Dimensions
 62
     0
370
    -2
100
AcDbLine
 10
273.6760273844606
 20
135.0530297049884
 30
0.0
 11
274.4543178270962
 21
138.5678930006091
 31
0.0
  0
SOLID
  5
4C1
330
4BA
100
AcDbEntity
  8
Dimensions
 62
     0
100
AcDbTrace
 10
272.0566816795964
 20
124.9645352936235
 30
0.0
 11
270.8850605810561
 21
125.2239654411687
 31
0.0
 12
272.2491615729619
 22
128.6091136630168
 32
0.0
 13
272.2491615729619
 23
128.6091136630168
 33
0.0
  0
SOLID
  5
4C2
330
4BA
100
AcDbEntity
  8
Dimensions
 62
     0
100
AcDbTrace
 10
273.0902168351905
 20
135.182744778761
 30
0.0
 11
274.2618379337308
 21
134.9233146312158
 31
0.0
 12
272.897736941825
 22
131.5381664093676
 32
0.0
 13
272.897736941825
 23
131.5381664093676
 33
0.0
  0
MTEXT
  5
4C3
330
4BA
100
AcDbEntity
  8
Dimensions
 62
     0
100
AcDbMText
 10
264.6650068422467
 20
131.8247935321224
 30
0.0
 40
3.6
 41
0.0
 46
0.0
 71
     5
 72
     1
  1
\A1;3.0000
 73
     1
 44
1.0
  0
POINT
  5
4C4
330
4BA
100
AcDbEntity
  8
Defpoints
 62
     0
100
AcDbPoint
 10
275.0
 20
128.0000000000001
 30
0.0
  0
POINT
  5
4C5
330
4BA
100
AcDbEntity
  8
Defpoints
 62
     0
100
AcDbPoint
 10
275.6485753688631
 20
130.9290527463509
 30
0.0
  0
POINT
  5
4C6
330
4BA
100
AcDbEntity
  8
Defpoints
 62
     0
100
AcDbPoint
 10
272.897736941825
 20
131.5381664093676
 30
0.0
  0
ENDBLK
  5
4BC
330
4BA
100
AcDbEntity
  8
0
100
AcDbBlockEnd
  0
BLOCK
  5
4C8
330
4C7
100
AcDbEntity
  8
0
100
AcDbBlockBegin
  2
*D16
 70
     1
 10
0.0
 20
0.0
 30
0.0
  3
*D16
  1
*D16
  0
LINE
  5
4CA
330
4C7
100
AcDbEntity
  8
Dimensions
 62
     0
370
    -2
100
AcDbLine
 10
275.0588171591815
 20
169.3583199605638
 30
0.0
 11
272.1342361662093
 21
172.236523160689
 31
0.0
  0
LINE
  5
4CB
330
4C7
100
AcDbEntity
  8
Dimensions
 62
     0
370
    -2
100
AcDbLine
 10
272.9545183250972
 20
167.2201136054917
 30
0.0
 11
270.029937332125
 21
170.0983168056169
 31
0.0
  0
LINE
  5
4CC
330
4C7
100
AcDbEntity
  8
Dimensions
 62
     0
370
    -2
100
AcDbLine
 10
277.2252423931972
 20
172.2772121858744
 30
0.0
 11
279.7504009940984
 21
174.843059811961
 31
0.0
  0
LINE
  5
4CD
330
4C7
100
AcDbEntity
  8
Dimensions
 62
     0
370
    -2
100
AcDbLine
 10
270.0706263573103
 20
165.007310578629
 30
0.0
 11
267.5454677564091
 21
162.4414629525424
 31
0.0
  0
SOLID
  5
4CE
330
4C7
100
AcDbEntity
  8
Dimensions
 62
     0
100
AcDbTrace
 10
276.7976011221828
 20
172.6980719526912
 30
0.0
 11
277.6528836642116
 21
171.8563524190575
 31
0.0
 12
274.7000837922959
 22
169.7113645597877
 32
0.0
 13
274.7000837922959
 23
169.7113645597877
 33
0.0
  0
SOLID
  5
4CF
330
4C7
100
AcDbEntity
  8
Dimensions
 62
     0
100
AcDbTrace
 10
270.4982676283248
 20
164.5864508118121
 30
0.0
 11
269.6429850862959
 21
165.4281703454459
 31
0.0
 12
272.5957849582116
 22
167.5731582047156
 32
0.0
 13
272.5957849582116
 23
167.5731582047156
 33
0.0
  0
MTEXT
  5
4D0
330
4C7
100
AcDbEntity
  8
Dimensions
 62
     0
100
AcDbMText
 10
267.8747772165588
 20
174.3238682342795
 30
0.0
 40
3.6
 41
0.0
 46
0.0
 71
     5
 72
     1
  1
\A1;3.0000
 73
     1
 44
1.0
  0
POINT
  5
4D1
330
4C7
100
AcDbEntity
  8
Defpoints
 62
     0
100
AcDbPoint
 10
275.9497364737949
 20
168.4815287796953
 30
0.0
  0
POINT
  5
4D2
330
4C7
100
AcDbEntity
  8
Defpoints
 62
     0
100
AcDbPoint
 10
273.8454376397106
 20
166.3433224246232
 30
0.0
  0
POINT
  5
4D3
330
4C7
100
AcDbEntity
  8
Defpoints
 62
     0
100
AcDbPoint
 10
272.5957849582116
 20
167.5731582047156
 30
0.0
  0
ENDBLK
  5
4C9
330
4C7
100
AcDbEntity
  8
0
100
AcDbBlockEnd
  0
BLOCK
  5
4D5
330
4D4
100
AcDbEntity
  8
0
100
AcDbBlockBegin
  2
*D17
 70
     1
 10
0.0
 20
0.0
 30
0.0
  3
*D17
  1
*D17
  0
LINE
  5
4D7
330
4D4
100
AcDbEntity
  8
Dimensions
 62
     0
370
    -2
100
AcDbLine
 10
272.9585167336068
 20
165.4624868518198
 30
0.0
 11
270.1972852262571
 21
162.7202006798731
 31
0.0
  0
LINE
  5
4D8
330
4D4
100
AcDbEntity
  8
Dimensions
 62
     0
370
    -2
100
AcDbLine
 10
275.0725221083347
 20
163.3338766771707
 30
0.0
 11
272.311290600985
 21
160.591590505224
 31
0.0
  0
LINE
  5
4D9
330
4D4
100
AcDbEntity
  8
Dimensions
 62
     0
370
    -2
100
AcDbLine
 10
270.2148109861624
 20
167.811339339126
 30
0.0
 11
267.6780045364886
 21
170.3656715487052
 31
0.0
  0
LINE
  5
4DA
330
4D4
100
AcDbEntity
  8
Dimensions
 62
     0
370
    -2
100
AcDbLine
 10
277.402429260238
 20
160.5740647453186
 30
0.0
 11
279.9392357099118
 21
158.0197325357395
 31
0.0
  0
SOLID
  5
4DB
330
4D4
100
AcDbEntity
  8
Dimensions
 62
     0
100
AcDbTrace
 10
269.7890889512326
 20
167.3885382641804
 30
0.0
 11
270.6405330210923
 21
168.2341404140716
 31
0.0
 12
272.7516174358362
 22
165.2570071295469
 32
0.0
 13
272.7516174358362
 23
165.2570071295469
 33
0.0
  0
SOLID
  5
4DC
330
4D4
100
AcDbEntity
  8
Dimensions
 62
     0
100
AcDbTrace
 10
277.8281512951679
 20
160.9968658202642
 30
0.0
 11
276.9767072253082
 21
160.151263670373
 31
0.0
 12
274.8656228105642
 22
163.1283969548978
 32
0.0
 13
274.8656228105642
 23
163.1283969548978
 33
0.0
  0
MTEXT
  5
4DD
330
4D4
100
AcDbEntity
  8
Dimensions
 62
     0
100
AcDbMText
 10
265.5070404420679
 20
155.9480810807826
 30
0.0
 40
3.6
 41
0.0
 46
0.0
 71
     5
 72
     1
  1
\A1;3.0000
 73
     1
 44
1.0
  0
POINT
  5
4DE
330
4D4
100
AcDbEntity
  8
Defpoints
 62
     0
100
AcDbPoint
 10
273.8454376397106
 20
166.3433224246232
 30
0.0
  0
POINT
  5
4DF
330
4D4
100
AcDbEntity
  8
Defpoints
 62
     0
100
AcDbPoint
 10
275.9594430144386
 20
164.2147122499741
 30
0.0
  0
POINT
  5
4E0
330
4D4
100
AcDbEntity
  8
Defpoints
 62
     0
100
AcDbPoint
 10
274.8656228105642
 20
163.1283969548978
 30
0.0
  0
ENDBLK
  5
4D6
330
4D4
100
AcDbEntity
  8
0
100
AcDbBlockEnd
  0
BLOCK
  5
4E2
330
4E1
100
AcDbEntity
  8
0
100
AcDbBlockBegin
  2
*D18
 70
     1
 10
0.0
 20
0.0
 30
0.0
  3
*D18
  1
*D18
  0
LINE
  5
4E4
330
4E1
100
AcDbEntity
  8
Dimensions
 62
     0
370
    -2
100
AcDbLine
 10
87.92613667881558
 20
195.0079253021892
 30
0.0
 11
91.52613667881558
 21
195.0079253021892
 31
0.0
  0
LINE
  5
4E5
330
4E1
100
AcDbEntity
  8
Dimensions
 62
     0
370
    -2
100
AcDbLine
 10
94.83968929439169
 20
196.4151811651397
 30
0.0
 11
91.52613667881558
 21
195.0079253021892
 31
0.0
  0
MTEXT
  5
4E6
330
4E1
100
AcDbEntity
  8
Dimensions
 62
     0
100
AcDbMText
 10
72.06899382167273
 20
195.0079253021892
 30
0.0
 40
3.6
 41
0.0
 46
0.0
 71
     5
 72
     1
  1
\A1;R120.5000
 73
     1
 44
1.0
  0
SOLID
  5
4E7
330
4E1
100
AcDbEntity
  8
Dimensions
 62
     0
100
AcDbTrace
 10
95.07423193821678
 20
195.862922395877
 30
0.0
 11
94.6051466505666
 21
196.9674399344024
 31
0.0
 12
98.1532419099678
 22
197.8224370280903
 32
0.0
 13
98.1532419099678
 23
197.8224370280903
 33
0.0
  0
LINE
  5
4E8
330
4E1
100
AcDbEntity
  8
Dimensions
 62
     0
100
AcDbLine
 10
207.265211403557
 20
244.9264179962965
 30
0.0
 11
210.865211403557
 21
244.9264179962965
 31
0.0
  0
LINE
  5
4E9
330
4E1
100
AcDbEntity
  8
Dimensions
 62
     0
100
AcDbLine
 10
209.065211403557
 20
243.1264179962965
 30
0.0
 11
209.065211403557
 21
246.7264179962965
 31
0.0
  0
POINT
  5
4EA
330
4E1
100
AcDbEntity
  8
Defpoints
 62
     0
100
AcDbPoint
 10
98.1532419099678
 20
197.8224370280903
 30
0.0
  0
POINT
  5
4EB
330
4E1
100
AcDbEntity
  8
Defpoints
 62
     0
100
AcDbPoint
 10
209.065211403557
 20
244.9264179962965
 30
0.0
  0
ENDBLK
  5
4E3
330
4E1
100
AcDbEntity
  8
0
100
AcDbBlockEnd
  0
BLOCK
  5
4ED
330
4EC
100
AcDbEntity
  8
0
100
AcDbBlockBegin
  2
*D19
 70
     1
 10
0.0
 20
0.0
 30
0.0
  3
*D19
  1
*D19
  0
LINE
  5
4EF
330
4EC
100
AcDbEntity
  8
Dimensions
 62
     0
370
    -2
100
AcDbLine
 10
88.50852368005178
 20
210.2719133538606
 30
0.0
 11
84.90852368005179
 21
210.2719133538606
 31
0.0
  0
LINE
  5
4F0
330
4EC
100
AcDbEntity
  8
Dimensions
 62
     0
370
    -2
100
AcDbLine
 10
84.3127683199408
 20
213.8222760889764
 30
0.0
 11
84.90852368005179
 21
210.2719133538606
 31
0.0
  0
MTEXT
  5
4F1
330
4EC
100
AcDbEntity
  8
Dimensions
 62
     0
100
AcDbMText
 10
104.3656665371946
 20
210.2719133538606
 30
0.0
 40
3.6
 41
0.0
 46
0.0
 71
     5
 72
     1
  1
\A1;R132.5000
 73
     1
 44
1.0
  0
SOLID
  5
4F2
330
4EC
100
AcDbEntity
  8
Dimensions
 62
     0
100
AcDbTrace
 10
84.9044954424601
 20
213.9215686489949
 30
0.0
 11
83.7210411974215
 21
213.7229835289579
 31
0.0
 12
83.71701295982982
 22
217.3726388240922
 32
0.0
 13
83.71701295982982
 23
217.3726388240922
 33
0.0
  0
LINE
  5
4F3
330
4EC
100
AcDbEntity
  8
Dimensions
 62
     0
100
AcDbLine
 10
59.98990595574498
 20
348.0457117137714
 30
0.0
 11
63.58990595574497
 21
348.0457117137714
 31
0.0
  0
LINE
  5
4F4
330
4EC
100
AcDbEntity
  8
Dimensions
 62
     0
100
AcDbLine
 10
61.78990595574498
 20
346.2457117137714
 30
0.0
 11
61.78990595574498
 21
349.8457117137714
 31
0.0
  0
POINT
  5
4F5
330
4EC
100
AcDbEntity
  8
Defpoints
 62
     0
100
AcDbPoint
 10
83.71701295982982
 20
217.3726388240922
 30
0.0
  0
POINT
  5
4F6
330
4EC
100
AcDbEntity
  8
Defpoints
 62
     0
100
AcDbPoint
 10
61.78990595574498
 20
348.0457117137714
 30
0.0
  0
ENDBLK
  5
4EE
330
4EC
100
AcDbEntity
  8
0
100
AcDbBlockEnd
  0
BLOCK
  5
4F8
330
4F7
100
AcDbEntity
  8
0
100
AcDbBlockBegin
  2
*D20
 70
     1
 10
0.0
 20
0.0
 30
0.0
  3
*D20
  1
*D20
  0
LINE
  5
4FA
330
4F7
100
AcDbEntity
  8
Dimensions
 62
     0
370
    -2
100
AcDbLine
 10
188.2409942771027
 20
24.08936317696664
 30
0.0
 11
191.8409942771027
 21
24.08936317696664
 31
0.0
  0
LINE
  5
4FB
330
4F7
100
AcDbEntity
  8
Dimensions
 62
     0
370
    -2
100
AcDbLine
 10
194.994795536651
 20
25.82531755864578
 30
0.0
 11
191.8409942771027
 21
24.08936317696664
 31
0.0
  0
MTEXT
  5
4FC
330
4F7
100
AcDbEntity
  8
Dimensions
 62
     0
100
AcDbMText
 10
172.3838514199598
 20
24.08936317696663
 30
0.0
 40
3.6
 41
0.0
 46
0.0
 71
     5
 72
     1
  1
\A1;R120.0000
 73
     1
 44
1.0
  0
SOLID
  5
4FD
330
4F7
100
AcDbEntity
  8
Dimensions
 62
     0
100
AcDbTrace
 10
195.2841212669309
 20
25.29968401538772
 30
0.0
 11
194.7054698063712
 21
26.35095110190385
 31
0.0
 12
198.1485967961994
 22
27.56127194032493
 32
0.0
 13
198.1485967961994
 23
27.56127194032493
 33
0.0
  0
LINE
  5
4FE
330
4F7
100
AcDbEntity
  8
Dimensions
 62
     0
100
AcDbLine
 10
301.4753054478122
 20
85.42641799629654
 30
0.0
 11
305.0753054478122
 21
85.42641799629654
 31
0.0
  0
LINE
  5
4FF
330
4F7
100
AcDbEntity
  8
Dimensions
 62
     0
100
AcDbLine
 10
303.2753054478122
 20
83.62641799629654
 30
0.0
 11
303.2753054478122
 21
87.22641799629653
 31
0.0
  0
POINT
  5
500
330
4F7
100
AcDbEntity
  8
Defpoints
 62
     0
100
AcDbPoint
 10
198.1485967961994
 20
27.56127194032493
 30
0.0
  0
POINT
  5
501
330
4F7
100
AcDbEntity
  8
Defpoints
 62
     0
100
AcDbPoint
 10
303.2753054478122
 20
85.42641799629654
 30
0.0
  0
ENDBLK
  5
4F9
330
4F7
100
AcDbEntity
  8
0
100
AcDbBlockEnd
  0
BLOCK
  5
503
330
502
100
AcDbEntity
  8
0
100
AcDbBlockBegin
  2
*D21
 70
     1
 10
0.0
 20
0.0
 30
0.0
  3
*D21
  1
*D21
  0
LINE
  5
505
330
502
100
AcDbEntity
  8
Dimensions
 62
     0
370
    -2
100
AcDbLine
 10
133.1903387165282
 20
50.67755399280126
 30
0.0
 11
136.7903387165282
 21
50.67755399280126
 31
0.0
  0
LINE
  5
506
330
502
100
AcDbEntity
  8
Dimensions
 62
     0
370
    -2
100
AcDbLine
 10
137.2871403014455
 20
54.2431097959298
 30
0.0
 11
136.7903387165282
 21
50.67755399280126
 31
0.0
  0
MTEXT
  5
507
330
502
100
AcDbEntity
  8
Dimensions
 62
     0
100
AcDbMText
 10
117.3331958593853
 20
50.67755399280126
 30
0.0
 40
3.6
 41
0.0
 46
0.0
 71
     5
 72
     1
  1
\A1;R132.0000
 73
     1
 44
1.0
  0
SOLID
  5
508
330
502
100
AcDbEntity
  8
Dimensions
 62
     0
100
AcDbTrace
 10
137.881399601967
 20
54.1603095317769
 30
0.0
 11
136.6928810009241
 21
54.32591006008269
 31
0.0
 12
137.7839418863629
 22
57.80866559905834
 32
0.0
 13
137.7839418863629
 23
57.80866559905834
 33
0.0
  0
LINE
  5
509
330
502
100
AcDbEntity
  8
Dimensions
 62
     0
100
AcDbLine
 10
154.1999999999998
 20
188.5457117137714
 30
0.0
 11
157.7999999999998
 21
188.5457117137714
 31
0.0
  0
LINE
  5
50A
330
502
100
AcDbEntity
  8
Dimensions
 62
     0
100
AcDbLine
 10
155.9999999999998
 20
186.7457117137714
 30
0.0
 11
155.9999999999998
 21
190.3457117137714
 31
0.0
  0
POINT
  5
50B
330
502
100
AcDbEntity
  8
Defpoints
 62
     0
100
AcDbPoint
 10
137.7839418863629
 20
57.80866559905834
 30
0.0
  0
POINT
  5
50C
330
502
100
AcDbEntity
  8
Defpoints
 62
     0
100
AcDbPoint
 10
155.9999999999998
 20
188.5457117137714
 30
0.0
  0
ENDBLK
  5
504
330
502
100
AcDbEntity
  8
0
100
AcDbBlockEnd
  0
BLOCK
  5
50E
330
50D
100
AcDbEntity
  8
0
100
AcDbBlockBegin
  2
*D22
 70
     1
 10
0.0
 20
0.0
 30
0.0
  3
*D22
  1
*D22
  0
LINE
  5
510
330
50D
100
AcDbEntity
  8
Dimensions
 62
     0
370
    -2
100
AcDbLine
 10
287.6278080423633
 20
166.9427663195632
 30
0.0
 11
284.0278080423633
 21
166.9427663195632
 31
0.0
  0
LINE
  5
511
330
50D
100
AcDbEntity
  8
Dimensions
 62
     0
370
    -2
100
AcDbLine
 10
280.4340302531917
 20
166.7311978860549
 30
0.0
 11
284.0278080423633
 21
166.9427663195632
 31
0.0
  0
MTEXT
  5
512
330
50D
100
AcDbEntity
  8
Dimensions
 62
     0
100
AcDbMText
 10
300.0563794709347
 20
166.9427663195632
 30
0.0
 40
3.6
 41
0.0
 46
0.0
 71
     5
 72
     1
  1
\A1;R3.0000
 73
     1
 44
1.0
  0
SOLID
  5
513
330
50D
100
AcDbEntity
  8
Dimensions
 62
     0
100
AcDbTrace
 10
280.398768847607
 20
167.3301608509169
 30
0.0
 11
280.4692916587765
 21
166.132234921193
 31
0.0
 12
276.8402524640202
 22
166.5196294525466
 32
0.0
 13
276.8402524640202
 23
166.5196294525466
 33
0.0
  0
LINE
  5
514
330
50D
100
AcDbEntity
  8
Dimensions
 62
     0
100
AcDbLine
 10
272.0454376397106
 20
166.343322424623
 30
0.0
 11
275.6454376397106
 21
166.343322424623
 31
0.0
  0
LINE
  5
515
330
50D
100
AcDbEntity
  8
Dimensions
 62
     0
100
AcDbLine
 10
273.8454376397106
 20
164.543322424623
 30
0.0
 11
273.8454376397106
 21
168.143322424623
 31
0.0
  0
POINT
  5
516
330
50D
100
AcDbEntity
  8
Defpoints
 62
     0
100
AcDbPoint
 10
276.8402524640202
 20
166.5196294525466
 30
0.0
  0
POINT
  5
517
330
50D
100
AcDbEntity
  8
Defpoints
 62
     0
100
AcDbPoint
 10
273.8454376397106
 20
166.343322424623
 30
0.0
  0
ENDBLK
  5
50F
330
50D
100
AcDbEntity
  8
0
100
AcDbBlockEnd
  0
BLOCK
  5
519
330
518
100
AcDbEntity
  8
0
100
AcDbBlockBegin
  2
*D23
 70
     1
 10
0.0
 20
0.0
 30
0.0
  3
*D23
  1
*D23
  0
LINE
  5
51B
330
518
100
AcDbEntity
  8
Dimensions
 62
     0
370
    -2
100
AcDbLine
 10
286.9000814063087
 20
133.9286295759348
 30
0.0
 11
283.3000814063087
 21
133.9286295759348
 31
0.0
  0
LINE
  5
51C
330
518
100
AcDbEntity
  8
Dimensions
 62
     0
370
    -2
100
AcDbLine
 10
280.3706409099644
 20
131.836172078546
 30
0.0
 11
283.3000814063087
 21
133.9286295759348
 31
0.0
  0
MTEXT
  5
51D
330
518
100
AcDbEntity
  8
Dimensions
 62
     0
100
AcDbMText
 10
299.3286528348801
 20
133.9286295759348
 30
0.0
 40
3.6
 41
0.0
 46
0.0
 71
     5
 72
     1
  1
\A1;R3.0000
 73
     1
 44
1.0
  0
SOLID
  5
51E
330
518
100
AcDbEntity
  8
Dimensions
 62
     0
100
AcDbTrace
 10
280.021897993733
 20
132.3244121612701
 30
0.0
 11
280.7193838261959
 21
131.347931995822
 31
0.0
 12
277.4412004136202
 22
129.7437145811573
 32
0.0
 13
277.4412004136202
 23
129.7437145811573
 33
0.0
  0
LINE
  5
51F
330
518
100
AcDbEntity
  8
Dimensions
 62
     0
100
AcDbLine
 10
273.2
 20
128.0
 30
0.0
 11
276.8
 21
128.0
 31
0.0
  0
LINE
  5
520
330
518
100
AcDbEntity
  8
Dimensions
 62
     0
100
AcDbLine
 10
275.0
 20
126.2
 30
0.0
 11
275.0
 21
129.8
 31
0.0
  0
POINT
  5
521
330
518
100
AcDbEntity
  8
Defpoints
 62
     0
100
AcDbPoint
 10
277.4412004136202
 20
129.7437145811573
 30
0.0
  0
POINT
  5
522
330
518
100
AcDbEntity
  8
Defpoints
 62
     0
100
AcDbPoint
 10
275.0
 20
128.0
 30
0.0
  0
ENDBLK
  5
51A
330
518
100
AcDbEntity
  8
0
100
AcDbBlockEnd
  0
ENDSEC
  0
SECTION
  2
ENTITIES
  0
LINE
  5
139
330
337
100
AcDbEntity
  8
CutSize
 62
     7
420
 16777215
100
AcDbLine
 10
126.0
 20
60.00000000000003
 30
0.0
 11
0.0000000000000142
 21
60.00000000000003
 31
0.0
  0
LINE
  5
143
330
337
100
AcDbEntity
  8
CutSize
 62
     7
420
 16777215
100
AcDbLine
 10
93.00000000000006
 20
-0.0000000000000426
 30
0.0
 11
219.0000000000001
 21
-0.0000000000000711
 31
0.0
  0
ARC
  5
13A
330
337
100
AcDbEntity
  8
CutSize
 62
     7
420
 16777215
100
AcDbCircle
 10
210.2753054478121
 20
-25.42641799629656
 30
0.0
 40
120.0
100
AcDbArc
 50
134.6113599913775
 51
167.7670525226763
  0
ARC
  5
144
330
337
100
AcDbEntity
  8
CutSize
 62
     7
420
 16777215
100
AcDbCircle
 10
8.72469455218814
 20
85.42641799629688
 30
0.0
 40
120.0
100
AcDbArc
 50
314.6113599913775
 51
347.7670525226763
  0
ARC
  5
162
330
337
100
AcDbEntity
  8
Reinforcements
 62
     7
420
 16777215
100
AcDbCircle
 10
354.7561199066542
 20
82.81494903396917
 30
0.0
 40
120.0
100
AcDbArc
 50
134.0865496193202
 51
135.5189814117104
  0
ARC
  5
165
330
337
100
AcDbEntity
  8
Reinforcements
 62
     7
420
 16777215
100
AcDbCircle
 10
189.7646855077639
 20
80.72540887304115
 30
0.0
 40
120.0
100
AcDbArc
 50
44.08654961932027
 51
45.51898141171036
  0
ARC
  5
152
330
337
100
AcDbEntity
  8
Reinforcements
 62
     7
420
 16777215
100
AcDbCircle
 10
152.5783360208947
 20
149.5241215540344
 30
0.0
 40
120.0
100
AcDbArc
 50
346.3346207302863
 51
347.7670525226763
  0
ARC
  5
155
330
337
100
AcDbEntity
  8
Reinforcements
 62
     7
420
 16777215
100
AcDbCircle
 10
249.5735820037034
 20
10.724694552188
 30
0.0
 40
120.0
100
AcDbArc
 50
76.33462073028633
 51
77.76705252267627
  0
ARC
  5
169
330
337
100
AcDbEntity
  8
Reinforcements
 62
     7
420
 16777215
100
AcDbCircle
 10
385.7653113291088
 20
95.1162824348072
 30
0.0
 40
120.0
100
AcDbArc
 50
165.9470858790409
 51
167.3795176714308
  0
ARC
  5
168
330
337
100
AcDbEntity
  8
Reinforcements
 62
     7
420
 16777215
100
AcDbCircle
 10
240.3248431551037
 20
8.350960040903573
 30
0.0
 40
120.0
100
AcDbArc
 50
75.94708587904088
 51
77.37951767143082
  0
ARC
  5
13C
330
337
100
AcDbEntity
  8
CutSize
 62
     7
420
 16777215
100
AcDbCircle
 10
-84.27530544781202
 20
-25.42641799629659
 30
0.0
 40
120.0
100
AcDbArc
 50
12.23294747732368
 51
45.3886400086224
  0
ARC
  5
145
330
337
100
AcDbEntity
  8
CutSize
 62
     7
420
 16777215
100
AcDbCircle
 10
303.2753054478122
 20
85.42641799629654
 30
0.0
 40
120.0
100
AcDbArc
 50
192.2329474773237
 51
225.3886400086224
  0
ARC
  5
166
330
337
100
AcDbEntity
  8
Reinforcements
 62
     7
420
 16777215
100
AcDbCircle
 10
189.3760150097538
 20
251.5778027747828
 30
0.0
 40
120.0
100
AcDbArc
 50
314.7417013944655
 51
316.1741331868554
  0
ARC
  5
163
330
337
100
AcDbEntity
  8
Reinforcements
 62
     7
420
 16777215
100
AcDbCircle
 10
183.9037260049125
 20
82.42627853595911
 30
0.0
 40
120.0
100
AcDbArc
 50
44.74170139446552
 51
46.17413318685545
  0
ARC
  5
13E
330
337
100
AcDbEntity
  8
CutSize
 62
     7
420
 16777215
100
AcDbCircle
 10
63.00000000000021
 20
-128.5457117137714
 30
0.0
 40
132.0
100
AcDbArc
 50
76.86344121305522
 51
103.1365587869449
  0
ARC
  5
146
330
337
100
AcDbEntity
  8
CutSize
 62
     7
420
 16777215
100
AcDbCircle
 10
155.9999999999998
 20
188.5457117137714
 30
0.0
 40
132.0
100
AcDbArc
 50
256.8634412130552
 51
283.1365587869449
  0
ARC
  5
156
330
337
100
AcDbEntity
  8
Reinforcements
 62
     7
420
 16777215
100
AcDbCircle
 10
146.4542882862287
 20
157.9999999999998
 30
0.0
 40
132.0
100
AcDbArc
 50
346.8634412130552
 51
348.165646047299
  0
ARC
  5
153
330
337
100
AcDbEntity
  8
Reinforcements
 62
     7
420
 16777215
100
AcDbCircle
 10
299.8536414687064
 20
252.6434152715092
 30
0.0
 40
132.0
100
AcDbArc
 50
256.8634412130552
 51
258.165646047299
  0
ARC
  5
16A
330
337
100
AcDbEntity
  8
Reinforcements
 62
     7
420
 16777215
100
AcDbCircle
 10
299.3852754160923
 20
252.7934644466731
 30
0.0
 40
132.0
100
AcDbArc
 50
255.5484923544182
 51
256.850697188662
  0
ARC
  5
16B
330
337
100
AcDbEntity
  8
Reinforcements
 62
     7
420
 16777215
100
AcDbCircle
 10
398.0020251669695
 20
94.73099595392023
 30
0.0
 40
132.0
100
AcDbArc
 50
165.5484923544182
 51
166.850697188662
  0
LINE
  5
220
330
337
100
AcDbEntity
  8
BagCutSize
 62
     7
420
 16777215
100
AcDbLine
 10
197.3853405022427
 20
129.7656490608803
 30
0.0
 11
202.6353405022427
 21
129.7656490608803
 31
0.0
  0
LINE
  5
221
330
337
100
AcDbEntity
  8
BagCutSize
 62
     7
420
 16777215
100
AcDbLine
 10
197.3853405022427
 20
129.7656490608803
 30
0.0
 11
197.3853405022427
 21
115.7656490608803
 31
0.0
  0
LINE
  5
222
330
337
100
AcDbEntity
  8
BagCutSize
 62
     7
420
 16777215
100
AcDbLine
 10
197.3853405022427
 20
115.7656490608803
 30
0.0
 11
202.6353405022427
 21
115.7656490608803
 31
0.0
  0
LINE
  5
213
330
337
100
AcDbEntity
  8
FinishedBag
 62
     7
420
 16777215
100
AcDbLine
 10
202.75
 20
171.9999999999999
 30
0.0
 11
198.0
 21
171.9999999999999
 31
0.0
  0
LINE
  5
214
330
337
100
AcDbEntity
  8
FinishedBag
 62
     7
420
 16777215
100
AcDbLine
 10
202.75
 20
170.9999999999999
 30
0.0
 11
202.75
 21
171.9999999999999
 31
0.0
  0
LINE
  5
215
330
337
100
AcDbEntity
  8
FinishedBag
 62
     7
420
 16777215
100
AcDbLine
 10
198.0
 20
171.9999999999999
 30
0.0
 11
198.0
 21
170.9999999999999
 31
0.0
  0
LINE
  5
216
330
337
100
AcDbEntity
  8
FinishedBag
 62
     7
420
 16777215
100
AcDbLine
 10
198.0
 20
170.9999999999999
 30
0.0
 11
202.75
 21
170.9999999999999
 31
0.0
  0
LINE
  5
217
330
337
100
AcDbEntity
  8
FinishedBag
 62
     7
420
 16777215
100
AcDbLine
 10
198.0
 20
170.9999999999999
 30
0.0
 11
198.0
 21
168.2499997621118
 31
0.0
  0
ARC
  5
218
330
337
100
AcDbEntity
  8
FinishedBag
 62
     7
420
 16777215
100
AcDbCircle
 10
200.75
 20
168.25
 30
0.0
 40
2.0
100
AcDbArc
 50
270.0
 51
0.0
  0
ARC
  5
219
330
337
100
AcDbEntity
  8
FinishedBag
 62
     7
420
 16777215
100
AcDbCircle
 10
200.0
 20
168.2499999999999
 30
0.0
 40
2.0
100
AcDbArc
 50
180.0
 51
269.9999999999984
  0
LINE
  5
21A
330
337
100
AcDbEntity
  8
FinishedBag
 62
     7
420
 16777215
100
AcDbLine
 10
200.0
 20
166.2499999999999
 30
0.0
 11
200.75
 21
166.2499999999999
 31
0.0
  0
LINE
  5
21B
330
337
100
AcDbEntity
  8
FinishedBag
 62
     7
420
 16777215
100
AcDbLine
 10
202.75
 20
168.25
 30
0.0
 11
202.75
 21
170.9999999999999
 31
0.0
  0
MTEXT
  5
124
330
337
100
AcDbEntity
  8
0
100
AcDbMText
 10
230.0
 20
220.0
 30
0.0
 40
0.0684343
 41
0.0
 46
0.0
 71
     5
 72
     1
  1
\H3.00133;Hummingbird Hammocks\PHex Tarp V1
  7
textstyle11
 73
     1
 44
1.0
  0
MTEXT
  5
125
330
337
100
AcDbEntity
  8
0
100
AcDbMText
 10
229.7851762931257
 20
207.5761620591473
 30
0.0
 40
0.0684343
 41
0.0
 46
0.0
 71
     5
 72
     1
  1
\fHelvetica Neue,Helvetica,Arial,sans-serif|b0|i0|c0|p0;\c3618615;\H1.99926;This work is licensed under a \P\c13730329;Creative Commons Attribution-ShareAlike 4.0 International License
  7
textstyle12
 73
     1
 44
1.0
  0
LINE
  5
223
330
337
100
AcDbEntity
  8
BagCutSize
 62
     7
420
 16777215
100
AcDbLine
 10
202.6353405022427
 20
129.7656490608803
 30
0.0
 11
202.6353405022427
 21
115.7656490608803
 31
0.0
  0
ARC
  5
154
330
337
100
AcDbEntity
  8
Reinforcements
 62
     7
420
 16777215
100
AcDbCircle
 10
269.8536414687067
 20
124.0977035577378
 30
0.0
 40
3.0
100
AcDbArc
 50
257.0508366264812
 51
347.5145436301771
  0
ARC
  5
157
330
337
100
AcDbEntity
  8
Reinforcements
 62
     7
420
 16777215
100
AcDbCircle
 10
275.0
 20
128.0
 30
0.0
 40
3.0
100
AcDbArc
 50
347.0508366264812
 51
77.51454363017719
  0
ARC
  5
16D
330
337
100
AcDbEntity
  8
Reinforcements
 62
     7
420
 16777215
100
AcDbCircle
 10
269.4629893884802
 20
124.7595870153781
 30
0.0
 40
3.0
100
AcDbArc
 50
76.19959477153998
 51
166.663301775236
  0
ARC
  5
16C
330
337
100
AcDbEntity
  8
Reinforcements
 62
     7
420
 16777215
100
AcDbCircle
 10
269.3566843546344
 20
124.2544286681839
 30
0.0
 40
3.0
100
AcDbArc
 50
166.19959477154
 51
256.6633017752358
  0
ARC
  5
164
330
337
100
AcDbEntity
  8
Reinforcements
 62
     7
420
 16777215
100
AcDbCircle
 10
269.1382063550723
 20
166.8957011659157
 30
0.0
 40
3.0
100
AcDbArc
 50
44.80276551551536
 51
135.4579172906607
  0
ARC
  5
167
330
337
100
AcDbEntity
  8
Reinforcements
 62
     7
420
 16777215
100
AcDbCircle
 10
273.8454376397106
 20
166.343322424623
 30
0.0
 40
3.0
100
AcDbArc
 50
314.8027655155154
 51
45.4579172906607
  0
ARC
  5
1B5
330
337
100
AcDbEntity
  8
FinishedTarp
 62
     7
420
 16777215
100
AcDbCircle
 10
91.7899059557451
 20
219.5000000000003
 30
0.0
 40
3.0
100
AcDbArc
 50
206.9845376362145
 51
268.4478269532246
  0
ARC
  5
1D6
330
337
100
AcDbEntity
  8
FinishedTarp
 62
     7
420
 16777215
100
AcDbCircle
 10
31.78990595574506
 20
100.4999999999997
 30
0.0
 40
3.0
100
AcDbArc
 50
26.98453763621452
 51
88.44782695322456
  0
ARC
  5
1D7
330
337
100
AcDbEntity
  8
FinishedTarp
 62
     7
420
 16777215
100
AcDbCircle
 10
91.78990595574508
 20
100.4999999999998
 30
0.0
 40
3.0
100
AcDbArc
 50
91.55217304677542
 51
153.0154623637856
  0
ARC
  5
1C1
330
337
100
AcDbEntity
  8
FinishedTarp
 62
     7
420
 16777215
100
AcDbCircle
 10
31.78990595574498
 20
219.5000000000001
 30
0.0
 40
3.0
100
AcDbArc
 50
271.5521730467754
 51
333.0154623637856
  0
MTEXT
  5
170
330
337
100
AcDbEntity
  8
Labels
100
AcDbMText
 10
61.78990595574506
 20
121.8672910838613
 30
0.0
 40
0.0684343
 41
0.0
 46
0.0
 71
     5
 72
     1
  1
\H3;Tarp Finished Size
  7
textstyle13
 73
     1
 44
1.0
  0
MTEXT
  5
171
330
337
100
AcDbEntity
  8
Labels
100
AcDbMText
 10
60.0
 20
20.0
 30
0.0
 40
0.0684343
 41
0.0
 46
0.0
 71
     5
 72
     1
  1
\H3;Tarp Cut Size
  7
textstyle14
 73
     1
 44
1.0
  0
MTEXT
  5
172
330
337
100
AcDbEntity
  8
Labels
100
AcDbMText
 10
270.0
 20
140.0
 30
0.0
 40
0.0684343
 41
0.0
 46
0.0
 71
     5
 72
     1
  1
\H3;Corner Reinforcements
  7
textstyle15
 73
     1
 44
1.0
  0
MTEXT
  5
173
330
337
100
AcDbEntity
  8
Labels
100
AcDbMText
 10
270.0
 20
180.0
 30
0.0
 40
0.0684343
 41
0.0
 46
0.0
 71
     5
 72
     1
  1
\H3;Center Reinforcements
  7
textstyle16
 73
     1
 44
1.0
  0
MTEXT
  5
174
330
337
100
AcDbEntity
  8
Labels
100
AcDbMText
 10
270.0
 20
100.0000000000001
 30
0.0
 40
0.0684343
 41
0.0
 46
0.0
 71
     5
 72
     1
  1
\H3;Pullout Reinforcements
  7
textstyle17
 73
     1
 44
1.0
  0
LINE
  5
1D9
330
337
100
AcDbEntity
  8
FinishedTarp
 62
     7
420
 16777215
100
AcDbLine
 10
81.78990595574503
 20
135.0857864376267
 30
0.0
 11
80.37569239337192
 21
136.4999999999998
 31
0.0
  0
LINE
  5
1D8
330
337
100
AcDbEntity
  8
FinishedTarp
 62
     7
420
 16777215
100
AcDbLine
 10
40.78990595574503
 20
135.0857864376267
 30
0.0
 11
39.37569239337192
 21
136.4999999999998
 31
0.0
  0
LINE
  5
175
330
337
100
AcDbEntity
  8
Reinforcements
 62
     7
420
 16777215
100
AcDbLine
 10
267.6202711556676
 20
83.17490653194133
 30
0.0
 11
267.6202711556676
 21
85.17490653194133
 31
0.0
  0
LINE
  5
17A
330
337
100
AcDbEntity
  8
Reinforcements
 62
     7
420
 16777215
100
AcDbLine
 10
270.6202711556676
 20
83.17490653194133
 30
0.0
 11
270.6202711556676
 21
85.17490653194133
 31
0.0
  0
LINE
  5
17E
330
337
100
AcDbEntity
  8
Reinforcements
 62
     7
420
 16777215
100
AcDbLine
 10
267.6202711556676
 20
86.17490653194133
 30
0.0
 11
267.6202711556676
 21
88.17490653194133
 31
0.0
  0
LINE
  5
192
330
337
100
AcDbEntity
  8
FinishedTarp
 62
     7
420
 16777215
100
AcDbLine
 10
41.78990595574504
 20
184.9142135623733
 30
0.0
 11
43.20411951811809
 21
183.5
 31
0.0
  0
LINE
  5
196
330
337
100
AcDbEntity
  8
FinishedTarp
 62
     7
420
 16777215
100
AcDbLine
 10
82.78990595574498
 20
184.9142135623731
 30
0.0
 11
84.20411951811809
 21
183.4999999999997
 31
0.0
  0
LINE
  5
182
330
337
100
AcDbEntity
  8
Reinforcements
 62
     7
420
 16777215
100
AcDbLine
 10
272.6202711556676
 20
88.17490653194133
 30
0.0
 11
272.6202711556676
 21
90.17490653194133
 31
0.0
  0
LINE
  5
1DA
330
337
100
AcDbEntity
  8
FinishedTarp
 62
     7
420
 16777215
100
AcDbLine
 10
80.37569239337192
 20
136.4999999999998
 30
0.0
 11
81.78990595574503
 21
137.9142135623729
 31
0.0
  0
LINE
  5
1DB
330
337
100
AcDbEntity
  8
FinishedTarp
 62
     7
420
 16777215
100
AcDbLine
 10
39.37569239337192
 20
136.4999999999998
 30
0.0
 11
40.78990595574503
 21
137.9142135623729
 31
0.0
  0
LINE
  5
176
330
337
100
AcDbEntity
  8
Reinforcements
 62
     7
420
 16777215
100
AcDbLine
 10
267.6202711556676
 20
85.17490653194133
 30
0.0
 11
269.6202711556676
 21
85.17490653194133
 31
0.0
  0
LINE
  5
17B
330
337
100
AcDbEntity
  8
Reinforcements
 62
     7
420
 16777215
100
AcDbLine
 10
270.6202711556676
 20
85.17490653194133
 30
0.0
 11
272.6202711556676
 21
85.17490653194133
 31
0.0
  0
LINE
  5
193
330
337
100
AcDbEntity
  8
FinishedTarp
 62
     7
420
 16777215
100
AcDbLine
 10
43.20411951811809
 20
183.5
 30
0.0
 11
41.78990595574498
 21
182.0857864376269
 31
0.0
  0
LINE
  5
197
330
337
100
AcDbEntity
  8
FinishedTarp
 62
     7
420
 16777215
100
AcDbLine
 10
84.20411951811809
 20
183.4999999999997
 30
0.0
 11
82.78990595574498
 21
182.0857864376269
 31
0.0
  0
LINE
  5
17F
330
337
100
AcDbEntity
  8
Reinforcements
 62
     7
420
 16777215
100
AcDbLine
 10
267.6202711556676
 20
88.17490653194133
 30
0.0
 11
269.6202711556676
 21
88.17490653194133
 31
0.0
  0
LINE
  5
183
330
337
100
AcDbEntity
  8
Reinforcements
 62
     7
420
 16777215
100
AcDbLine
 10
272.6202711556676
 20
90.17490653194133
 30
0.0
 11
274.6202711556676
 21
90.17490653194133
 31
0.0
  0
LINE
  5
1DD
330
337
100
AcDbEntity
  8
FinishedTarp
 62
     7
420
 16777215
100
AcDbLine
 10
81.78990595574503
 20
137.9142135623729
 30
0.0
 11
83.20411951811813
 21
136.4999999999998
 31
0.0
  0
LINE
  5
1DC
330
337
100
AcDbEntity
  8
FinishedTarp
 62
     7
420
 16777215
100
AcDbLine
 10
40.78990595574503
 20
137.9142135623729
 30
0.0
 11
42.20411951811813
 21
136.4999999999998
 31
0.0
  0
LINE
  5
177
330
337
100
AcDbEntity
  8
Reinforcements
 62
     7
420
 16777215
100
AcDbLine
 10
269.6202711556676
 20
85.17490653194133
 30
0.0
 11
269.6202711556676
 21
83.17490653194133
 31
0.0
  0
LINE
  5
17C
330
337
100
AcDbEntity
  8
Reinforcements
 62
     7
420
 16777215
100
AcDbLine
 10
272.6202711556676
 20
85.17490653194133
 30
0.0
 11
272.6202711556676
 21
83.17490653194133
 31
0.0
  0
LINE
  5
194
330
337
100
AcDbEntity
  8
FinishedTarp
 62
     7
420
 16777215
100
AcDbLine
 10
41.78990595574498
 20
182.0857864376269
 30
0.0
 11
40.37569239337188
 21
183.5000000000001
 31
0.0
  0
LINE
  5
198
330
337
100
AcDbEntity
  8
FinishedTarp
 62
     7
420
 16777215
100
AcDbLine
 10
82.78990595574498
 20
182.0857864376269
 30
0.0
 11
81.37569239337188
 21
183.4999999999999
 31
0.0
  0
LINE
  5
180
330
337
100
AcDbEntity
  8
Reinforcements
 62
     7
420
 16777215
100
AcDbLine
 10
269.6202711556676
 20
88.17490653194133
 30
0.0
 11
269.6202711556676
 21
86.17490653194133
 31
0.0
  0
LINE
  5
184
330
337
100
AcDbEntity
  8
Reinforcements
 62
     7
420
 16777215
100
AcDbLine
 10
274.6202711556676
 20
90.17490653194133
 30
0.0
 11
274.6202711556676
 21
88.17490653194133
 31
0.0
  0
LINE
  5
1DE
330
337
100
AcDbEntity
  8
FinishedTarp
 62
     7
420
 16777215
100
AcDbLine
 10
42.20411951811813
 20
136.4999999999998
 30
0.0
 11
40.78990595574503
 21
135.0857864376267
 31
0.0
  0
LINE
  5
178
330
337
100
AcDbEntity
  8
Reinforcements
 62
     7
420
 16777215
100
AcDbLine
 10
269.6202711556676
 20
83.17490653194133
 30
0.0
 11
267.6202711556676
 21
83.17490653194133
 31
0.0
  0
LINE
  5
17D
330
337
100
AcDbEntity
  8
Reinforcements
 62
     7
420
 16777215
100
AcDbLine
 10
272.6202711556676
 20
83.17490653194133
 30
0.0
 11
270.6202711556676
 21
83.17490653194133
 31
0.0
  0
LINE
  5
195
330
337
100
AcDbEntity
  8
FinishedTarp
 62
     7
420
 16777215
100
AcDbLine
 10
40.37569239337188
 20
183.5000000000001
 30
0.0
 11
41.78990595574504
 21
184.9142135623733
 31
0.0
  0
LINE
  5
199
330
337
100
AcDbEntity
  8
FinishedTarp
 62
     7
420
 16777215
100
AcDbLine
 10
81.37569239337188
 20
183.4999999999999
 30
0.0
 11
82.78990595574498
 21
184.9142135623731
 31
0.0
  0
LINE
  5
181
330
337
100
AcDbEntity
  8
Reinforcements
 62
     7
420
 16777215
100
AcDbLine
 10
269.6202711556676
 20
86.17490653194133
 30
0.0
 11
267.6202711556676
 21
86.17490653194133
 31
0.0
  0
LINE
  5
185
330
337
100
AcDbEntity
  8
Reinforcements
 62
     7
420
 16777215
100
AcDbLine
 10
274.6202711556676
 20
88.17490653194133
 30
0.0
 11
272.6202711556676
 21
88.17490653194133
 31
0.0
  0
LINE
  5
1DF
330
337
100
AcDbEntity
  8
FinishedTarp
 62
     7
420
 16777215
100
AcDbLine
 10
83.20411951811813
 20
136.4999999999998
 30
0.0
 11
81.78990595574503
 21
135.0857864376267
 31
0.0
  0
MTEXT
  5
19A
330
337
100
AcDbEntity
  8
Labels
100
AcDbMText
 10
200.0
 20
139.9999999999999
 30
0.0
 40
0.0684343
 41
0.0
 46
0.0
 71
     5
 72
     1
  1
\H3;Bag Cut Size
  7
textstyle18
 73
     1
 44
1.0
  0
MTEXT
  5
19B
330
337
100
AcDbEntity
  8
Labels
100
AcDbMText
 10
200.0
 20
180.0000000000001
 30
0.0
 40
0.0684343
 41
0.0
 46
0.0
 71
     5
 72
     1
  1
\H3;Bag Finished Size
  7
textstyle19
 73
     1
 44
1.0
  0
ARC
  5
1C9
330
337
100
AcDbEntity
  8
FinishedTarp
 62
     7
420
 16777215
100
AcDbCircle
 10
61.78990595574498
 20
348.0457117137714
 30
0.0
 40
132.5
100
AcDbArc
 50
257.0826214446487
 51
282.9173785553514
  0
ARC
  5
1E0
330
337
100
AcDbEntity
  8
FinishedTarp
 62
     7
420
 16777215
100
AcDbCircle
 10
61.78990595574523
 20
-28.04571171377154
 30
0.0
 40
132.5
100
AcDbArc
 50
77.08262144464872
 51
102.9173785553514
  0
ARC
  5
1B9
330
337
100
AcDbEntity
  8
FinishedTarp
 62
     7
420
 16777215
100
AcDbCircle
 10
209.065211403557
 20
244.9264179962965
 30
0.0
 40
120.5
100
AcDbArc
 50
192.4740002855091
 51
224.8120601837384
  0
ARC
  5
1E1
330
337
100
AcDbEntity
  8
FinishedTarp
 62
     7
420
 16777215
100
AcDbCircle
 10
-85.48539949206696
 20
75.07358200370324
 30
0.0
 40
120.5
100
AcDbArc
 50
12.47400028550911
 51
44.81206018373842
  0
ARC
  5
1D1
330
337
100
AcDbEntity
  8
FinishedTarp
 62
     7
420
 16777215
100
AcDbCircle
 10
-85.48539949206713
 20
244.9264179962966
 30
0.0
 40
120.5
100
AcDbArc
 50
315.1879398162616
 51
347.5259997144909
  0
ARC
  5
1E2
330
337
100
AcDbEntity
  8
FinishedTarp
 62
     7
420
 16777215
100
AcDbCircle
 10
209.0652114035571
 20
75.07358200370327
 30
0.0
 40
120.5
100
AcDbArc
 50
135.1879398162616
 51
167.5259997144909
  0
ARC
  5
1C3
330
337
100
AcDbEntity
  8
FinishedTarp
 62
     7
420
 16777215
100
AcDbCircle
 10
61.78990595574498
 20
348.0457117137714
 30
0.0
 40
132.75
100
AcDbArc
 50
257.1912473754305
 51
282.8087526245697
  0
ARC
  5
1E3
330
337
100
AcDbEntity
  8
FinishedTarp
 62
     7
420
 16777215
100
AcDbCircle
 10
61.78990595574523
 20
-28.04571171377154
 30
0.0
 40
132.75
100
AcDbArc
 50
77.19124737543044
 51
102.8087526245697
  0
ARC
  5
1BD
330
337
100
AcDbEntity
  8
FinishedTarp
 62
     7
420
 16777215
100
AcDbCircle
 10
209.065211403557
 20
244.9264179962965
 30
0.0
 40
120.75
100
AcDbArc
 50
192.4748063525232
 51
224.6943311372203
  0
ARC
  5
1E4
330
337
100
AcDbEntity
  8
FinishedTarp
 62
     7
420
 16777215
100
AcDbCircle
 10
-85.48539949206696
 20
75.07358200370324
 30
0.0
 40
120.75
100
AcDbArc
 50
12.47480635252317
 51
44.69433113722029
  0
ARC
  5
1D3
330
337
100
AcDbEntity
  8
FinishedTarp
 62
     7
420
 16777215
100
AcDbCircle
 10
-85.48539949206713
 20
244.9264179962966
 30
0.0
 40
120.75
100
AcDbArc
 50
315.3056688627798
 51
347.5251936474768
  0
ARC
  5
1E5
330
337
100
AcDbEntity
  8
FinishedTarp
 62
     7
420
 16777215
100
AcDbCircle
 10
209.0652114035571
 20
75.07358200370327
 30
0.0
 40
120.75
100
AcDbArc
 50
135.3056688627798
 51
167.5251936474768
  0
LINE
  5
1FA
330
337
100
AcDbEntity
  8
FinishedTarp
 62
     7
420
 16777215
100
AcDbLine
 10
120.5902467257146
 20
159.7499999999999
 30
0.0
 11
2.989565185775035
 21
159.7499999999999
 31
0.0
  0
LINE
  5
1F7
330
337
100
AcDbEntity
  8
FinishedTarp
 62
     7
420
 16777215
100
AcDbLine
 10
2.989565185775348
 20
160.2500000000001
 30
0.0
 11
120.5902467257146
 21
160.2499999999997
 31
0.0
  0
ARC
  5
1ED
330
337
100
AcDbEntity
  8
FinishedTarp
 62
     7
420
 16777215
100
AcDbCircle
 10
123.57981191149
 20
159.9999999999998
 30
0.0
 40
3.0
100
AcDbArc
 50
134.0988162915743
 51
225.9011837084253
  0
ARC
  5
1F5
330
337
100
AcDbEntity
  8
FinishedTarp
 62
     7
420
 16777215
100
AcDbCircle
 10
0.0
 20
160.0
 30
0.0
 40
3.0
100
AcDbArc
 50
314.0988162915742
 51
45.9011837084259
  0
DIMENSION
  5
200
330
337
100
AcDbEntity
  8
Dimensions
100
AcDbDimension
280
     0
  2
*D1
 10
130.0
 20
183.4999999999998
 30
0.0
 11
130.0
 21
171.7499999999998
 31
0.0
 70
    32
 71
     5
 42
23.5
 73
     0
 74
     0
 75
     0
  3
QCADDimStyle
100
AcDbAlignedDimension
 13
123.57981191149
 23
159.9999999999998
 33
0.0
 14
84.2041195181181
 24
183.4999999999998
 34
0.0
 50
90.0
100
AcDbRotatedDimension
1001
ACAD
1000
DSTYLE
1002
{
1070
    41
1040
0.18
1070
    44
1040
0.18
1070
    42
1040
0.0625
1070
   147
1040
0.09
1070
    40
1040
20.0
1070
    77
1070
     0
1070
    73
1070
     1
1070
   279
1070
     2
1070
   340
1005
0
1070
   140
1040
0.18
1002
}
  0
DIMENSION
  5
201
330
337
100
AcDbEntity
  8
Dimensions
100
AcDbDimension
280
     0
  2
*D2
 10
140.0
 20
159.9999999999998
 30
0.0
 11
140.0
 21
189.44941580873
 31
0.0
 70
    32
 71
     5
 42
58.8988316174603
 73
     0
 74
     0
 75
     0
  3
QCADDimStyle
100
AcDbAlignedDimension
 13
91.40971961803854
 23
218.8988316174601
 33
0.0
 14
123.57981191149
 24
159.9999999999998
 34
0.0
 50
90.0
100
AcDbRotatedDimension
1001
ACAD
1000
DSTYLE
1002
{
1070
    41
1040
0.18
1070
    44
1040
0.18
1070
    42
1040
0.0625
1070
   147
1040
0.09
1070
    40
1040
20.0
1070
    77
1070
     0
1070
    73
1070
     1
1070
   279
1070
     2
1070
   340
1005
0
1070
   140
1040
0.18
1002
}
  0
DIMENSION
  5
202
330
337
100
AcDbEntity
  8
Dimensions
100
AcDbDimension
280
     0
  2
*D3
 10
123.57981191149
 20
190.0
 30
0.0
 11
103.1848589336175
 21
190.0
 31
0.0
 70
    32
 71
     5
 42
40.78990595574498
 73
     0
 74
     0
 75
     0
  3
QCADDimStyle
100
AcDbAlignedDimension
 13
82.78990595574501
 23
184.9142135623731
 33
0.0
 14
123.57981191149
 24
159.9999999999998
 34
0.0
100
AcDbRotatedDimension
1001
ACAD
1000
DSTYLE
1002
{
1070
    41
1040
0.18
1070
    44
1040
0.18
1070
    42
1040
0.0625
1070
   147
1040
0.09
1070
    40
1040
20.0
1070
    77
1070
     0
1070
    73
1070
     1
1070
   279
1070
     2
1070
   340
1005
0
1070
   140
1040
0.18
1002
}
  0
DIMENSION
  5
204
330
337
100
AcDbEntity
  8
Dimensions
100
AcDbDimension
280
     0
  2
*D4
 10
32.17009229345133
 20
230.0
 30
0.0
 11
16.08504614672567
 21
230.0
 31
0.0
 70
    32
 71
     5
 42
32.17009229345133
 73
     0
 74
     0
 75
     0
  3
QCADDimStyle
100
AcDbAlignedDimension
 13
0.0
 23
160.0
 33
0.0
 14
32.17009229345133
 24
218.8988316174602
 34
0.0
100
AcDbRotatedDimension
1001
ACAD
1000
DSTYLE
1002
{
1070
    41
1040
0.18
1070
    44
1040
0.18
1070
    42
1040
0.0625
1070
   147
1040
0.09
1070
    40
1040
20.0
1070
    77
1070
     0
1070
    73
1070
     1
1070
   279
1070
     2
1070
   340
1005
0
1070
   140
1040
0.18
1002
}
  0
DIMENSION
  5
205
330
337
100
AcDbEntity
  8
Dimensions
100
AcDbDimension
280
     0
  2
*D5
 10
32.17009229345133
 20
230.0
 30
0.0
 11
61.78990595574493
 21
230.0
 31
0.0
 70
    32
 71
     5
 42
59.2396273245872
 73
     0
 74
     0
 75
     0
  3
QCADDimStyle
100
AcDbAlignedDimension
 13
91.40971961803854
 23
218.8988316174601
 33
0.0
 14
32.17009229345133
 24
218.8988316174602
 34
0.0
100
AcDbRotatedDimension
1001
ACAD
1000
DSTYLE
1002
{
1070
    41
1040
0.18
1070
    44
1040
0.18
1070
    42
1040
0.0625
1070
   147
1040
0.09
1070
    40
1040
20.0
1070
    77
1070
     0
1070
    73
1070
     1
1070
   279
1070
     2
1070
   340
1005
0
1070
   140
1040
0.18
1002
}
  0
DIMENSION
  5
206
330
337
100
AcDbEntity
  8
Dimensions
100
AcDbDimension
280
     0
  2
*D6
 10
123.57981191149
 20
240.0
 30
0.0
 11
61.789905955745
 21
240.0
 31
0.0
 70
    32
 71
     5
 42
123.57981191149
 73
     0
 74
     0
 75
     0
  3
QCADDimStyle
100
AcDbAlignedDimension
 13
0.0
 23
160.0
 33
0.0
 14
123.57981191149
 24
159.9999999999998
 34
0.0
100
AcDbRotatedDimension
1001
ACAD
1000
DSTYLE
1002
{
1070
    41
1040
0.18
1070
    44
1040
0.18
1070
    42
1040
0.0625
1070
   147
1040
0.09
1070
    40
1040
20.0
1070
    77
1070
     0
1070
    73
1070
     1
1070
   279
1070
     2
1070
   340
1005
0
1070
   140
1040
0.18
1002
}
  0
DIMENSION
  5
207
330
337
100
AcDbEntity
  8
Dimensions
100
AcDbDimension
280
     0
  2
*D7
 10
219.0000000000002
 20
90.0
 30
0.0
 11
109.5000000000001
 21
90.0
 31
0.0
 70
    32
 71
     5
 42
219.0000000000002
 73
     0
 74
     0
 75
     0
  3
QCADDimStyle
100
AcDbAlignedDimension
 13
0.0000000000000142
 23
60.00000000000003
 33
0.0
 14
219.0000000000002
 24
-0.0000000000000711
 34
0.0
100
AcDbRotatedDimension
1001
ACAD
1000
DSTYLE
1002
{
1070
    41
1040
0.18
1070
    44
1040
0.18
1070
    42
1040
0.0625
1070
   147
1040
0.09
1070
    40
1040
20.0
1070
    77
1070
     0
1070
    73
1070
     1
1070
   279
1070
     2
1070
   340
1005
0
1070
   140
1040
0.18
1002
}
  0
DIMENSION
  5
208
330
337
100
AcDbEntity
  8
Dimensions
100
AcDbDimension
280
     0
  2
*D8
 10
126.0000000000001
 20
80.0
 30
0.0
 11
63.00000000000006
 21
80.0
 31
0.0
 70
    32
 71
     5
 42
126.0000000000001
 73
     0
 74
     0
 75
     0
  3
QCADDimStyle
100
AcDbAlignedDimension
 13
0.0000000000000142
 23
60.00000000000003
 33
0.0
 14
126.0000000000001
 24
60.0
 34
0.0
100
AcDbRotatedDimension
1001
ACAD
1000
DSTYLE
1002
{
1070
    41
1040
0.18
1070
    44
1040
0.18
1070
    42
1040
0.0625
1070
   147
1040
0.09
1070
    40
1040
20.0
1070
    77
1070
     0
1070
    73
1070
     1
1070
   279
1070
     2
1070
   340
1005
0
1070
   140
1040
0.18
1002
}
  0
DIMENSION
  5
209
330
337
100
AcDbEntity
  8
Dimensions
100
AcDbDimension
280
     0
  2
*D9
 10
186.0000000000001
 20
80.0
 30
0.0
 11
156.0000000000001
 21
80.0
 31
0.0
 70
    32
 71
     5
 42
60.00000000000001
 73
     0
 74
     0
 75
     0
  3
QCADDimStyle
100
AcDbAlignedDimension
 13
126.0000000000001
 23
60.0
 33
0.0
 14
186.0000000000001
 24
60.00000000000013
 34
0.0
100
AcDbRotatedDimension
1001
ACAD
1000
DSTYLE
1002
{
1070
    41
1040
0.18
1070
    44
1040
0.18
1070
    42
1040
0.0625
1070
   147
1040
0.09
1070
    40
1040
20.0
1070
    77
1070
     0
1070
    73
1070
     1
1070
   279
1070
     2
1070
   340
1005
0
1070
   140
1040
0.18
1002
}
  0
DIMENSION
  5
20A
330
337
100
AcDbEntity
  8
Dimensions
100
AcDbDimension
280
     0
  2
*D10
 10
219.0000000000002
 20
80.0
 30
0.0
 11
202.5000000000002
 21
80.0
 31
0.0
 70
    32
 71
     5
 42
33.00000000000009
 73
     0
 74
     0
 75
     0
  3
QCADDimStyle
100
AcDbAlignedDimension
 13
186.0000000000001
 23
60.00000000000013
 33
0.0
 14
219.0000000000002
 24
-0.0000000000000711
 34
0.0
100
AcDbRotatedDimension
1001
ACAD
1000
DSTYLE
1002
{
1070
    41
1040
0.18
1070
    44
1040
0.18
1070
    42
1040
0.0625
1070
   147
1040
0.09
1070
    40
1040
20.0
1070
    77
1070
     0
1070
    73
1070
     1
1070
   279
1070
     2
1070
   340
1005
0
1070
   140
1040
0.18
1002
}
  0
DIMENSION
  5
20B
330
337
100
AcDbEntity
  8
Dimensions
100
AcDbDimension
280
     0
  2
*D11
 10
230.0
 20
-0.0000000000000718
 30
0.0
 11
230.0
 21
30.00000000000003
 31
0.0
 70
    32
 71
     5
 42
60.0000000000002
 73
     0
 74
     0
 75
     0
  3
QCADDimStyle
100
AcDbAlignedDimension
 13
186.0000000000001
 23
60.00000000000013
 33
0.0
 14
219.0000000000002
 24
-0.0000000000000711
 34
0.0
 50
90.0
100
AcDbRotatedDimension
1001
ACAD
1000
DSTYLE
1002
{
1070
    41
1040
0.18
1070
    44
1040
0.18
1070
    42
1040
0.0625
1070
   147
1040
0.09
1070
    40
1040
20.0
1070
    77
1070
     0
1070
    73
1070
     1
1070
   279
1070
     2
1070
   340
1005
0
1070
   140
1040
0.18
1002
}
  0
DIMENSION
  5
20D
330
337
100
AcDbEntity
  8
Dimensions
100
AcDbDimension
280
     0
  2
*D12
 10
274.6202711556673
 20
93.00000000000017
 30
0.0
 11
273.6202711556676
 21
93.09375000000011
 31
0.0
 70
   161
 71
     5
 42
2.0
 73
     0
 74
     0
 75
     0
  3
QCADDimStyle
100
AcDbAlignedDimension
 13
272.6202711556676
 23
90.17490653194123
 33
0.0
 14
274.6202711556676
 24
90.17490653194142
 34
0.0
1001
ACAD
1000
DSTYLE
1002
{
1070
    41
1040
0.18
1070
    44
1040
0.18
1070
    42
1040
0.0625
1070
   147
1040
0.09
1070
    40
1040
20.0
1070
    77
1070
     0
1070
    73
1070
     1
1070
   279
1070
     2
1070
   340
1005
0
1070
   140
1040
0.18
1002
}
  0
DIMENSION
  5
20E
330
337
100
AcDbEntity
  8
Dimensions
100
AcDbDimension
280
     0
  2
*D13
 10
277.0
 20
88.17490653194135
 30
0.0
 11
276.90625
 21
89.17490653194145
 31
0.0
 70
   161
 71
     5
 42
2.000000000000071
 73
     0
 74
     0
 75
     0
  3
QCADDimStyle
100
AcDbAlignedDimension
 13
274.6202711556676
 23
90.17490653194142
 33
0.0
 14
274.6202711556676
 24
88.17490653194135
 34
0.0
1001
ACAD
1000
DSTYLE
1002
{
1070
    41
1040
0.18
1070
    44
1040
0.18
1070
    42
1040
0.0625
1070
   147
1040
0.09
1070
    40
1040
20.0
1070
    77
1070
     0
1070
    73
1070
     1
1070
   279
1070
     2
1070
   340
1005
0
1070
   140
1040
0.18
1002
}
  0
DIMENSION
  5
20F
330
337
100
AcDbEntity
  8
Dimensions
100
AcDbDimension
280
     0
  2
*D14
 10
277.3187592743268
 20
124.6967726366546
 30
0.0
 11
273.2350940173862
 21
113.6304418052879
 31
0.0
 70
    33
 71
     5
 42
3.000000000000326
 73
     0
 74
     0
 75
     0
  3
QCADDimStyle
100
AcDbAlignedDimension
 13
275.0
 23
128.0000000000001
 33
0.0
 14
277.9237078182927
 24
127.3277406800528
 34
0.0
1001
ACAD
1000
DSTYLE
1002
{
1070
    41
1040
0.18
1070
    44
1040
0.18
1070
    42
1040
0.0625
1070
   147
1040
0.09
1070
    40
1040
20.0
1070
    77
1070
     0
1070
    73
1070
     1
1070
   279
1070
     2
1070
   340
1005
0
1070
   140
1040
0.18
1002
}
  0
DIMENSION
  5
210
330
337
100
AcDbEntity
  8
Dimensions
100
AcDbDimension
280
     0
  2
*D15
 10
272.897736941825
 20
131.5381664093676
 30
0.0
 11
264.6650068422467
 21
131.8247935321224
 31
0.0
 70
    33
 71
     5
 42
3.000000000000151
 73
     0
 74
     0
 75
     0
  3
QCADDimStyle
100
AcDbAlignedDimension
 13
275.0
 23
128.0000000000001
 33
0.0
 14
275.6485753688631
 24
130.9290527463509
 34
0.0
1001
ACAD
1000
DSTYLE
1002
{
1070
    41
1040
0.18
1070
    44
1040
0.18
1070
    42
1040
0.0625
1070
   147
1040
0.09
1070
    40
1040
20.0
1070
    77
1070
     0
1070
    73
1070
     1
1070
   279
1070
     2
1070
   340
1005
0
1070
   140
1040
0.18
1002
}
  0
DIMENSION
  5
211
330
337
100
AcDbEntity
  8
Dimensions
100
AcDbDimension
280
     0
  2
*D16
 10
272.5957849582116
 20
167.5731582047156
 30
0.0
 11
267.8747772165588
 21
174.3238682342795
 31
0.0
 70
    33
 71
     5
 42
2.999999999999889
 73
     0
 74
     0
 75
     0
  3
QCADDimStyle
100
AcDbAlignedDimension
 13
275.9497364737949
 23
168.4815287796953
 33
0.0
 14
273.8454376397106
 24
166.3433224246232
 34
0.0
1001
ACAD
1000
DSTYLE
1002
{
1070
    41
1040
0.18
1070
    44
1040
0.18
1070
    42
1040
0.0625
1070
   147
1040
0.09
1070
    40
1040
20.0
1070
    77
1070
     0
1070
    73
1070
     1
1070
   279
1070
     2
1070
   340
1005
0
1070
   140
1040
0.18
1002
}
  0
DIMENSION
  5
212
330
337
100
AcDbEntity
  8
Dimensions
100
AcDbDimension
280
     0
  2
*D17
 10
274.8656228105642
 20
163.1283969548978
 30
0.0
 11
265.5070404420679
 21
155.9480810807826
 31
0.0
 70
    33
 71
     5
 42
2.999999999999752
 73
     0
 74
     0
 75
     0
  3
QCADDimStyle
100
AcDbAlignedDimension
 13
273.8454376397106
 23
166.3433224246232
 33
0.0
 14
275.9594430144386
 24
164.2147122499741
 34
0.0
1001
ACAD
1000
DSTYLE
1002
{
1070
    41
1040
0.18
1070
    44
1040
0.18
1070
    42
1040
0.0625
1070
   147
1040
0.09
1070
    40
1040
20.0
1070
    77
1070
     0
1070
    73
1070
     1
1070
   279
1070
     2
1070
   340
1005
0
1070
   140
1040
0.18
1002
}
  0
DIMENSION
  5
227
330
337
100
AcDbEntity
  8
Dimensions
100
AcDbDimension
280
     0
  2
*D18
 10
209.065211403557
 20
244.9264179962965
 30
0.0
 11
72.06899382167273
 21
195.0079253021892
 31
0.0
 70
    36
 71
     5
 42
120.5
 73
     0
 74
     0
 75
     0
  3
QCADDimStyle
100
AcDbRadialDimension
 15
98.1532419099678
 25
197.8224370280903
 35
0.0
 40
0.0
1001
ACAD
1000
DSTYLE
1002
{
1070
    41
1040
0.18
1070
    44
1040
0.18
1070
    42
1040
0.0625
1070
   147
1040
0.09
1070
    40
1040
20.0
1070
    77
1070
     0
1070
    73
1070
     1
1070
   279
1070
     2
1070
   340
1005
0
1070
   140
1040
0.18
1002
}
  0
DIMENSION
  5
229
330
337
100
AcDbEntity
  8
Dimensions
100
AcDbDimension
280
     0
  2
*D19
 10
61.78990595574498
 20
348.0457117137714
 30
0.0
 11
104.3656665371946
 21
210.2719133538606
 31
0.0
 70
    36
 71
     5
 42
132.5
 73
     0
 74
     0
 75
     0
  3
QCADDimStyle
100
AcDbRadialDimension
 15
83.71701295982982
 25
217.3726388240922
 35
0.0
 40
0.0
1001
ACAD
1000
DSTYLE
1002
{
1070
    41
1040
0.18
1070
    44
1040
0.18
1070
    42
1040
0.0625
1070
   147
1040
0.09
1070
    40
1040
20.0
1070
    77
1070
     0
1070
    73
1070
     1
1070
   279
1070
     2
1070
   340
1005
0
1070
   140
1040
0.18
1002
}
  0
DIMENSION
  5
22A
330
337
100
AcDbEntity
  8
Dimensions
100
AcDbDimension
280
     0
  2
*D20
 10
303.2753054478122
 20
85.42641799629654
 30
0.0
 11
172.3838514199598
 21
24.08936317696663
 31
0.0
 70
    36
 71
     5
 42
120.0
 73
     0
 74
     0
 75
     0
  3
QCADDimStyle
100
AcDbRadialDimension
 15
198.1485967961994
 25
27.56127194032493
 35
0.0
 40
0.0
1001
ACAD
1000
DSTYLE
1002
{
1070
    41
1040
0.18
1070
    44
1040
0.18
1070
    42
1040
0.0625
1070
   147
1040
0.09
1070
    40
1040
20.0
1070
    77
1070
     0
1070
    73
1070
     1
1070
   279
1070
     2
1070
   340
1005
0
1070
   140
1040
0.18
1002
}
  0
DIMENSION
  5
22B
330
337
100
AcDbEntity
  8
Dimensions
100
AcDbDimension
280
     0
  2
*D21
 10
155.9999999999998
 20
188.5457117137714
 30
0.0
 11
117.3331958593853
 21
50.67755399280126
 31
0.0
 70
    36
 71
     5
 42
132.0
 73
     0
 74
     0
 75
     0
  3
QCADDimStyle
100
AcDbRadialDimension
 15
137.7839418863629
 25
57.80866559905834
 35
0.0
 40
0.0
1001
ACAD
1000
DSTYLE
1002
{
1070
    41
1040
0.18
1070
    44
1040
0.18
1070
    42
1040
0.0625
1070
   147
1040
0.09
1070
    40
1040
20.0
1070
    77
1070
     0
1070
    73
1070
     1
1070
   279
1070
     2
1070
   340
1005
0
1070
   140
1040
0.18
1002
}
  0
DIMENSION
  5
22C
330
337
100
AcDbEntity
  8
Dimensions
100
AcDbDimension
280
     0
  2
*D22
 10
273.8454376397106
 20
166.343322424623
 30
0.0
 11
300.0563794709347
 21
166.9427663195632
 31
0.0
 70
    36
 71
     5
 42
2.999999999999937
 73
     0
 74
     0
 75
     0
  3
QCADDimStyle
100
AcDbRadialDimension
 15
276.8402524640202
 25
166.5196294525466
 35
0.0
 40
0.0
1001
ACAD
1000
DSTYLE
1002
{
1070
    41
1040
0.18
1070
    44
1040
0.18
1070
    42
1040
0.0625
1070
   147
1040
0.09
1070
    40
1040
20.0
1070
    77
1070
     0
1070
    73
1070
     1
1070
   279
1070
     2
1070
   340
1005
0
1070
   140
1040
0.18
1002
}
  0
DIMENSION
  5
22D
330
337
100
AcDbEntity
  8
Dimensions
100
AcDbDimension
280
     0
  2
*D23
 10
275.0
 20
128.0
 30
0.0
 11
299.3286528348801
 21
133.9286295759348
 31
0.0
 70
    36
 71
     5
 42
3.000000000000004
 73
     0
 74
     0
 75
     0
  3
QCADDimStyle
100
AcDbRadialDimension
 15
277.4412004136202
 25
129.7437145811573
 35
0.0
 40
0.0
1001
ACAD
1000
DSTYLE
1002
{
1070
    41
1040
0.18
1070
    44
1040
0.18
1070
    42
1040
0.0625
1070
   147
1040
0.09
1070
    40
1040
20.0
1070
    77
1070
     0
1070
    73
1070
     1
1070
   279
1070
     2
1070
   340
1005
0
1070
   140
1040
0.18
1002
}
  0
ENDSEC
  0
SECTION
  2
OBJECTS
  0
DICTIONARY
  5
325
330
0
100
AcDbDictionary
281
     1
  3
ACAD_DETAILVIEWSTYLE
350
52A
  3
ACAD_GROUP
350
326
  3
ACAD_LAYOUT
350
332
  3
ACAD_MATERIAL
350
35B
  3
ACAD_MLEADERSTYLE
350
383
  3
ACAD_MLINESTYLE
350
32F
  3
ACAD_PLOTSETTINGS
350
331
  3
ACAD_PLOTSTYLENAME
350
327
  3
ACAD_SCALELIST
350
35F
  3
ACAD_SECTIONVIEWSTYLE
350
52B
  3
ACAD_TABLESTYLE
350
381
  3
ACAD_VISUALSTYLE
350
342
  3
ACDB_RECOMPOSE_DATA
350
527
  3
AcDbVariableDictionary
350
523
  3
QCAD_OBJECTS
350
387
  0
SUN
  5
385
330
341
100
AcDbSun
 90
        1
290
     0
 63
     7
421
 16777215
 40
1.0
291
     1
 91
  2455826
 92
 54000000
292
     0
 70
     2
 71
   256
280
     1
  0
DICTIONARY
  5
52A
102
{ACAD_REACTORS
330
325
102
}
330
325
100
AcDbDictionary
281
     1
  0
DICTIONARY
  5
326
102
{ACAD_REACTORS
330
325
102
}
330
325
100
AcDbDictionary
281
     1
  0
DICTIONARY
  5
332
102
{ACAD_REACTORS
330
325
102
}
330
325
100
AcDbDictionary
281
     1
  3
Layout1
350
336
  3
Layout2
350
33E
  3
Model
350
33A
  0
DICTIONARY
  5
35B
102
{ACAD_REACTORS
330
325
102
}
330
325
100
AcDbDictionary
281
     1
  3
ByBlock
350
35D
  3
ByLayer
350
35C
  3
Global
350
35E
  0
DICTIONARY
  5
383
102
{ACAD_REACTORS
330
325
102
}
330
325
100
AcDbDictionary
281
     1
  3
Standard
350
384
  0
DICTIONARY
  5
32F
102
{ACAD_REACTORS
330
325
102
}
330
325
100
AcDbDictionary
281
     1
  3
Standard
350
330
  0
DICTIONARY
  5
331
102
{ACAD_REACTORS
330
325
102
}
330
325
100
AcDbDictionary
281
     1
  0
ACDBDICTIONARYWDFLT
  5
327
102
{ACAD_REACTORS
330
325
102
}
330
325
100
AcDbDictionary
281
     1
  3
Normal
350
328
100
AcDbDictionaryWithDefault
340
328
  0
DICTIONARY
  5
35F
102
{ACAD_REACTORS
330
325
102
}
330
325
100
AcDbDictionary
281
     1
  3
A0
350
360
  3
A1
350
361
  3
A2
350
362
  3
A3
350
363
  3
A4
350
364
  3
A5
350
365
  3
A6
350
366
  3
A7
350
367
  3
A8
350
368
  3
A9
350
369
  3
B0
350
36A
  3
B1
350
36B
  3
B2
350
36C
  3
B3
350
36D
  3
B4
350
36E
  3
B5
350
36F
  3
B6
350
370
  3
B7
350
371
  3
B8
350
372
  3
B9
350
373
  3
C0
350
374
  3
C1
350
375
  3
C2
350
376
  3
C3
350
377
  3
C4
350
378
  3
C5
350
379
  3
C6
350
37A
  3
C7
350
37B
  3
C8
350
37C
  3
C9
350
37D
  3
D0
350
37E
  3
D1
350
37F
  3
D2
350
380
  0
DICTIONARY
  5
52B
102
{ACAD_REACTORS
330
325
102
}
330
325
100
AcDbDictionary
281
     1
  0
DICTIONARY
  5
381
102
{ACAD_REACTORS
330
325
102
}
330
325
100
AcDbDictionary
281
     1
  3
Standard
350
382
  0
DICTIONARY
  5
342
102
{ACAD_REACTORS
330
325
102
}
330
325
100
AcDbDictionary
281
     1
  3
2dWireframe
350
347
  3
Basic
350
34A
  3
Brighten
350
34E
  3
ColorChange
350
352
  3
Conceptual
350
34C
  3
Dim
350
34D
  3
EdgeColorOff
350
355
  3
Facepattern
350
351
  3
Flat
350
343
  3
FlatWithEdges
350
344
  3
Gouraud
350
345
  3
GouraudWithEdges
350
346
  3
Hidden
350
349
  3
JitterOff
350
353
  3
Linepattern
350
350
  3
OverhangOff
350
354
  3
Realistic
350
34B
  3
Shaded
350
35A
  3
Shaded with edges
350
359
  3
Shades of Gray
350
356
  3
Sketchy
350
357
  3
Thicken
350
34F
  3
Wireframe
350
348
  3
X-Ray
350
358
  0
XRECORD
  5
527
102
{ACAD_REACTORS
330
325
102
}
330
325
100
AcDbXrecord
280
     1
 90
        1
330
382
  0
DICTIONARY
  5
523
102
{ACAD_REACTORS
330
325
102
}
330
325
100
AcDbDictionary
281
     1
  3
CANNOSCALE
350
524
  3
CMLEADERSTYLE
350
529
  3
CTABLESTYLE
350
528
  0
DICTIONARY
  5
387
102
{ACAD_REACTORS
330
325
102
}
330
325
100
AcDbDictionary
281
     1
  3
ColorSettings/BackgroundColor
350
389
  3
ColorSettings/ColorMode
350
38A
  3
Grid/DisplayGrid00
350
38B
  3
Grid/DisplayGrid01
350
38C
  3
Grid/DisplayGrid02
350
38D
  3
Grid/DisplayGrid03
350
38E
  3
Grid/GridSpacingX00
350
38F
  3
Grid/GridSpacingX01
350
390
  3
Grid/GridSpacingX02
350
391
  3
Grid/GridSpacingX03
350
392
  3
Grid/GridSpacingY00
350
393
  3
Grid/GridSpacingY01
350
394
  3
Grid/GridSpacingY02
350
395
  3
Grid/GridSpacingY03
350
396
  3
Grid/IsometricGrid00
350
397
  3
Grid/IsometricGrid01
350
398
  3
Grid/IsometricGrid02
350
399
  3
Grid/IsometricGrid03
350
39A
  3
Grid/IsometricProjection00
350
39B
  3
Grid/IsometricProjection01
350
39C
  3
Grid/IsometricProjection02
350
39D
  3
Grid/IsometricProjection03
350
39E
  3
Grid/MetaGridSpacingX00
350
39F
  3
Grid/MetaGridSpacingX01
350
3A0
  3
Grid/MetaGridSpacingX02
350
3A1
  3
Grid/MetaGridSpacingX03
350
3A2
  3
Grid/MetaGridSpacingY00
350
3A3
  3
Grid/MetaGridSpacingY01
350
3A4
  3
Grid/MetaGridSpacingY02
350
3A5
  3
Grid/MetaGridSpacingY03
350
3A6
  3
MultiPageSettings/Columns
350
3A7
  3
MultiPageSettings/GlueMarginsBottom
350
3A8
  3
MultiPageSettings/GlueMarginsLeft
350
3A9
  3
MultiPageSettings/GlueMarginsRight
350
3AA
  3
MultiPageSettings/GlueMarginsTop
350
3AB
  3
MultiPageSettings/PrintCropMarks
350
3AC
  3
MultiPageSettings/Rows
350
3AD
  3
PageSettings/OffsetX
350
3AE
  3
PageSettings/OffsetY
350
3AF
  3
PageSettings/PageOrientation
350
3B0
  3
PageSettings/PaperHeight
350
3B1
  3
PageSettings/PaperWidth
350
3B2
  3
PageSettings/Scale
350
3B3
  3
PageSettings/ShowPaperBorders
350
3B4
  3
QCADVersion
350
3B5
  3
UnitSettings/PaperUnit
350
3B6
  0
LAYOUT
  5
336
102
{ACAD_REACTORS
330
332
102
}
330
332
100
AcDbPlotSettings
  1

  2
none_device
  4

  6

 40
0.0
 41
0.0
 42
0.0
 43
0.0
 44
0.0
 45
0.0
 46
0.0
 47
0.0
 48
0.0
 49
0.0
140
0.0
141
0.0
142
1.0
143
1.0
 70
   688
 72
     0
 73
     0
 74
     5
  7

 75
    16
 76
     0
 77
     2
 78
   300
147
1.0
148
0.0
149
0.0
100
AcDbLayout
  1
Layout1
 70
     1
 71
     1
 10
0.0
 20
0.0
 11
12.0
 21
9.0
 12
0.0
 22
0.0
 32
0.0
 14
1.000000000000000E+20
 24
1.000000000000000E+20
 34
1.000000000000000E+20
 15
-1.000000000000000E+20
 25
-1.000000000000000E+20
 35
-1.000000000000000E+20
146
0.0
 13
0.0
 23
0.0
 33
0.0
 16
1.0
 26
0.0
 36
0.0
 17
0.0
 27
1.0
 37
0.0
 76
     0
330
333
  0
LAYOUT
  5
33E
102
{ACAD_REACTORS
330
332
102
}
330
332
100
AcDbPlotSettings
  1

  2
none_device
  4

  6

 40
0.0
 41
0.0
 42
0.0
 43
0.0
 44
0.0
 45
0.0
 46
0.0
 47
0.0
 48
0.0
 49
0.0
140
0.0
141
0.0
142
1.0
143
1.0
 70
   688
 72
     0
 73
     0
 74
     5
  7

 75
    16
 76
     0
 77
     2
 78
   300
147
1.0
148
0.0
149
0.0
100
AcDbLayout
  1
Layout2
 70
     1
 71
     2
 10
0.0
 20
0.0
 11
0.0
 21
0.0
 12
0.0
 22
0.0
 32
0.0
 14
0.0
 24
0.0
 34
0.0
 15
0.0
 25
0.0
 35
0.0
146
0.0
 13
0.0
 23
0.0
 33
0.0
 16
1.0
 26
0.0
 36
0.0
 17
0.0
 27
1.0
 37
0.0
 76
     0
330
33B
  0
LAYOUT
  5
33A
102
{ACAD_REACTORS
330
332
102
}
330
332
100
AcDbPlotSettings
  1

  2
none_device
  4
Letter_(8.50_x_11.00_Inches)
  6

 40
6.35
 41
6.35
 42
6.35000508
 43
6.35000508
 44
215.9
 45
279.4
 46
0.0
 47
0.0
 48
0.0
 49
0.0
140
0.0
141
0.0
142
1.0
143
1.0
 70
  1712
 72
     0
 73
     0
 74
     0
  7

 75
     0
 76
     0
 77
     2
 78
   300
147
1.0
148
0.0
149
0.0
100
AcDbLayout
  1
Model
 70
     1
 71
     0
 10
0.0
 20
0.0
 11
12.0
 21
9.0
 12
0.0
 22
0.0
 32
0.0
 14
1.000000000000000E+20
 24
1.000000000000000E+20
 34
1.000000000000000E+20
 15
-1.000000000000000E+20
 25
-1.000000000000000E+20
 35
-1.000000000000000E+20
146
0.0
 13
0.0
 23
0.0
 33
0.0
 16
1.0
 26
0.0
 36
0.0
 17
0.0
 27
1.0
 37
0.0
 76
     0
330
337
331
341
  0
MATERIAL
  5
35D
102
{ACAD_REACTORS
330
35B
102
}
330
35B
100
AcDbMaterial
  1
ByBlock
 72
     1
 94
      127
  0
MATERIAL
  5
35C
102
{ACAD_REACTORS
330
35B
102
}
330
35B
100
AcDbMaterial
  1
ByLayer
 72
     1
 94
      127
  0
MATERIAL
  5
35E
102
{ACAD_REACTORS
330
35B
102
}
330
35B
100
AcDbMaterial
  1
Global
 72
     1
 94
      127
  0
MLEADERSTYLE
  5
384
102
{ACAD_REACTORS
330
383
102
}
330
383
100
AcDbMLeaderStyle
179
     2
170
     2
171
     1
172
     0
 90
        2
 40
0.0
 41
0.0
173
     1
 91
-1056964608
340
32C
 92
       -2
290
     1
 42
0.09
291
     1
 43
0.36
  3
Standard
341
0
 44
0.18
300

342
32A
174
     1
178
     6
175
     1
176
     0
 93
-1056964608
 45
0.18
292
     0
297
     0
 46
0.18
343
0
 94
-1056964608
 47
1.0
 49
1.0
140
1.0
293
     1
141
0.0
294
     1
177
     0
142
1.0
295
     0
296
     0
143
0.125
271
     0
272
     9
273
     9
298
     0
  0
MLINESTYLE
  5
330
102
{ACAD_REACTORS
330
32F
102
}
330
32F
100
AcDbMlineStyle
  2
Standard
 70
     0
  3

 62
   256
 51
90.0
 52
90.0
 71
     2
 49
0.5
 62
   256
  6
BYLAYER
 49
-0.5
 62
   256
  6
BYLAYER
  0
ACDBPLACEHOLDER
  5
328
102
{ACAD_REACTORS
330
327
102
}
330
327
  0
SCALE
  5
360
102
{ACAD_REACTORS
330
35F
102
}
330
35F
100
AcDbScale
 70
     0
300
1:1
140
1.0
141
1.0
290
     1
  0
SCALE
  5
361
102
{ACAD_REACTORS
330
35F
102
}
330
35F
100
AcDbScale
 70
     0
300
1:2
140
1.0
141
2.0
290
     0
  0
SCALE
  5
362
102
{ACAD_REACTORS
330
35F
102
}
330
35F
100
AcDbScale
 70
     0
300
1:4
140
1.0
141
4.0
290
     0
  0
SCALE
  5
363
102
{ACAD_REACTORS
330
35F
102
}
330
35F
100
AcDbScale
 70
     0
300
1:5
140
1.0
141
5.0
290
     0
  0
SCALE
  5
364
102
{ACAD_REACTORS
330
35F
102
}
330
35F
100
AcDbScale
 70
     0
300
1:8
140
1.0
141
8.0
290
     0
  0
SCALE
  5
365
102
{ACAD_REACTORS
330
35F
102
}
330
35F
100
AcDbScale
 70
     0
300
1:10
140
1.0
141
10.0
290
     0
  0
SCALE
  5
366
102
{ACAD_REACTORS
330
35F
102
}
330
35F
100
AcDbScale
 70
     0
300
1:16
140
1.0
141
16.0
290
     0
  0
SCALE
  5
367
102
{ACAD_REACTORS
330
35F
102
}
330
35F
100
AcDbScale
 70
     0
300
1:20
140
1.0
141
20.0
290
     0
  0
SCALE
  5
368
102
{ACAD_REACTORS
330
35F
102
}
330
35F
100
AcDbScale
 70
     0
300
1:30
140
1.0
141
30.0
290
     0
  0
SCALE
  5
369
102
{ACAD_REACTORS
330
35F
102
}
330
35F
100
AcDbScale
 70
     0
300
1:40
140
1.0
141
40.0
290
     0
  0
SCALE
  5
36A
102
{ACAD_REACTORS
330
35F
102
}
330
35F
100
AcDbScale
 70
     0
300
1:50
140
1.0
141
50.0
290
     0
  0
SCALE
  5
36B
102
{ACAD_REACTORS
330
35F
102
}
330
35F
100
AcDbScale
 70
     0
300
1:100
140
1.0
141
100.0
290
     0
  0
SCALE
  5
36C
102
{ACAD_REACTORS
330
35F
102
}
330
35F
100
AcDbScale
 70
     0
300
2:1
140
2.0
141
1.0
290
     0
  0
SCALE
  5
36D
102
{ACAD_REACTORS
330
35F
102
}
330
35F
100
AcDbScale
 70
     0
300
4:1
140
4.0
141
1.0
290
     0
  0
SCALE
  5
36E
102
{ACAD_REACTORS
330
35F
102
}
330
35F
100
AcDbScale
 70
     0
300
8:1
140
8.0
141
1.0
290
     0
  0
SCALE
  5
36F
102
{ACAD_REACTORS
330
35F
102
}
330
35F
100
AcDbScale
 70
     0
300
10:1
140
10.0
141
1.0
290
     0
  0
SCALE
  5
370
102
{ACAD_REACTORS
330
35F
102
}
330
35F
100
AcDbScale
 70
     0
300
100:1
140
100.0
141
1.0
290
     0
  0
SCALE
  5
371
102
{ACAD_REACTORS
330
35F
102
}
330
35F
100
AcDbScale
 70
     0
300
1/128" = 1'-0"
140
0.0078125
141
12.0
290
     0
  0
SCALE
  5
372
102
{ACAD_REACTORS
330
35F
102
}
330
35F
100
AcDbScale
 70
     0
300
1/64" = 1'-0"
140
0.015625
141
12.0
290
     0
  0
SCALE
  5
373
102
{ACAD_REACTORS
330
35F
102
}
330
35F
100
AcDbScale
 70
     0
300
1/32" = 1'-0"
140
0.03125
141
12.0
290
     0
  0
SCALE
  5
374
102
{ACAD_REACTORS
330
35F
102
}
330
35F
100
AcDbScale
 70
     0
300
1/16" = 1'-0"
140
0.0625
141
12.0
290
     0
  0
SCALE
  5
375
102
{ACAD_REACTORS
330
35F
102
}
330
35F
100
AcDbScale
 70
     0
300
3/32" = 1'-0"
140
0.09375
141
12.0
290
     0
  0
SCALE
  5
376
102
{ACAD_REACTORS
330
35F
102
}
330
35F
100
AcDbScale
 70
     0
300
1/8" = 1'-0"
140
0.125
141
12.0
290
     0
  0
SCALE
  5
377
102
{ACAD_REACTORS
330
35F
102
}
330
35F
100
AcDbScale
 70
     0
300
3/16" = 1'-0"
140
0.1875
141
12.0
290
     0
  0
SCALE
  5
378
102
{ACAD_REACTORS
330
35F
102
}
330
35F
100
AcDbScale
 70
     0
300
1/4" = 1'-0"
140
0.25
141
12.0
290
     0
  0
SCALE
  5
379
102
{ACAD_REACTORS
330
35F
102
}
330
35F
100
AcDbScale
 70
     0
300
3/8" = 1'-0"
140
0.375
141
12.0
290
     0
  0
SCALE
  5
37A
102
{ACAD_REACTORS
330
35F
102
}
330
35F
100
AcDbScale
 70
     0
300
1/2" = 1'-0"
140
0.5
141
12.0
290
     0
  0
SCALE
  5
37B
102
{ACAD_REACTORS
330
35F
102
}
330
35F
100
AcDbScale
 70
     0
300
3/4" = 1'-0"
140
0.75
141
12.0
290
     0
  0
SCALE
  5
37C
102
{ACAD_REACTORS
330
35F
102
}
330
35F
100
AcDbScale
 70
     0
300
1" = 1'-0"
140
1.0
141
12.0
290
     0
  0
SCALE
  5
37D
102
{ACAD_REACTORS
330
35F
102
}
330
35F
100
AcDbScale
 70
     0
300
1-1/2" = 1'-0"
140
1.5
141
12.0
290
     0
  0
SCALE
  5
37E
102
{ACAD_REACTORS
330
35F
102
}
330
35F
100
AcDbScale
 70
     0
300
3" = 1'-0"
140
3.0
141
12.0
290
     0
  0
SCALE
  5
37F
102
{ACAD_REACTORS
330
35F
102
}
330
35F
100
AcDbScale
 70
     0
300
6" = 1'-0"
140
6.0
141
12.0
290
     0
  0
SCALE
  5
380
102
{ACAD_REACTORS
330
35F
102
}
330
35F
100
AcDbScale
 70
     0
300
1'-0" = 1'-0"
140
12.0
141
12.0
290
     0
  0
TABLESTYLE
  5
382
102
{ACAD_REACTORS
330
381
102
}
102
{ACAD_XDICTIONARY
360
525
102
}
330
381
100
AcDbTableStyle
  3
Standard
 70
     0
 71
     0
 40
0.06
 41
0.06
280
     0
281
     0
  7
Standard
140
0.18
170
     2
 62
     0
 63
   257
283
     0
 90
        4
 91
        0
  1

274
    -2
284
     1
 64
     0
275
    -2
285
     1
 65
     0
276
    -2
286
     1
 66
     0
277
    -2
287
     1
 67
     0
278
    -2
288
     1
 68
     0
279
    -2
289
     1
 69
     0
  7
Standard
140
0.25
170
     5
 62
     0
 63
   257
283
     0
 90
        4
 91
        0
  1

274
    -2
284
     1
 64
     0
275
    -2
285
     1
 65
     0
276
    -2
286
     1
 66
     0
277
    -2
287
     1
 67
     0
278
    -2
288
     1
 68
     0
279
    -2
289
     1
 69
     0
  7
Standard
140
0.18
170
     5
 62
     0
 63
   257
283
     0
 90
        4
 91
        0
  1

274
    -2
284
     1
 64
     0
275
    -2
285
     1
 65
     0
276
    -2
286
     1
 66
     0
277
    -2
287
     1
 67
     0
278
    -2
288
     1
 68
     0
279
    -2
289
     1
 69
     0
  0
VISUALSTYLE
  5
347
102
{ACAD_REACTORS
330
342
102
}
330
342
100
AcDbVisualStyle
  2
2dWireframe
 70
     4
177
     3
291
     0
 70
    58
 90
        0
176
     1
 90
        2
176
     1
 90
        0
176
     1
 90
        0
176
     1
 40
0.6
176
     1
 40
30.0
176
     1
 62
     7
420
 16777215
176
     1
 90
        1
176
     1
 90
        4
176
     1
 62
     7
176
     1
 62
   257
176
     1
 90
        1
176
     1
 90
        1
176
     1
 40
1.0
176
     1
 90
        0
176
     1
 62
   257
176
     1
 40
1.0
176
     1
 90
        1
176
     1
 90
        6
176
     1
 90
        2
176
     1
 62
     7
176
     1
 90
        5
176
     1
 90
        0
176
     1
 90
        0
176
     1
290
     0
176
     1
 90
        1
176
     1
 40
0.0
176
     1
 90
        0
176
     1
290
     1
176
     1
290
     1
176
     1
290
     0
176
     1
290
     0
176
     1
290
     0
176
     1
290
     0
176
     1
290
     0
176
     1
290
     0
176
     1
290
     0
176
     1
 90
       50
176
     1
 40
0.0
176
     1
 40
1.0
176
     1
 90
        0
176
     1
 62
    18
420
        0
176
     1
 90
       50
176
     1
 90
        3
176
     1
 62
     5
420
      255
176
     1
290
     0
176
     1
 90
       50
176
     1
 90
       50
176
     1
 90
       50
176
     1
290
     0
176
     1
 90
       50
176
     1
 62
   256
176
     0
 40
1.0
176
     0
 90
        2
176
     1
  1
strokes_ogs.tif
176
     1
290
     0
176
     1
 40
1.0
176
     1
 40
1.0
176
     1
  0
VISUALSTYLE
  5
34A
102
{ACAD_REACTORS
330
342
102
}
330
342
100
AcDbVisualStyle
  2
Basic
 70
     7
177
     3
291
     1
 70
    58
 90
        1
176
     1
 90
        0
176
     1
 90
        1
176
     1
 90
        0
176
     1
 40
0.6
176
     1
 40
30.0
176
     1
 62
     7
420
 16777215
176
     1
 90
        0
176
     1
 90
        4
176
     1
 62
     7
176
     1
 62
   257
176
     1
 90
        1
176
     1
 90
        1
176
     1
 40
1.0
176
     1
 90
        8
176
     1
 62
     7
176
     1
 40
1.0
176
     1
 90
        1
176
     1
 90
        6
176
     1
 90
        2
176
     1
 62
     7
176
     1
 90
        5
176
     1
 90
        0
176
     1
 90
        0
176
     1
290
     0
176
     1
 90
        1
176
     1
 40
0.0
176
     1
 90
        0
176
     1
290
     0
176
     1
290
     1
176
     1
290
     1
176
     1
290
     0
176
     1
290
     0
176
     1
290
     0
176
     1
290
     0
176
     1
290
     0
176
     1
290
     0
176
     1
 90
       50
176
     1
 40
0.0
176
     1
 40
1.0
176
     1
 90
        0
176
     1
 62
    18
420
        0
176
     1
 90
       50
176
     1
 90
        3
176
     1
 62
     5
420
      255
176
     1
290
     0
176
     1
 90
       50
176
     1
 90
       50
176
     1
 90
       50
176
     1
290
     0
176
     1
 90
       50
176
     1
 62
   256
176
     0
 40
1.0
176
     0
 90
        2
176
     1
  1
strokes_ogs.tif
176
     1
290
     0
176
     1
 40
1.0
176
     1
 40
1.0
176
     1
  0
VISUALSTYLE
  5
34E
102
{ACAD_REACTORS
330
342
102
}
330
342
100
AcDbVisualStyle
  2
Brighten
 70
    12
177
     3
291
     1
 70
    58
 90
        2
176
     1
 90
        2
176
     1
 90
        0
176
     1
 90
        0
176
     1
 40
0.6
176
     1
 40
30.0
176
     1
 62
     7
420
 16777215
176
     1
 90
        1
176
     1
 90
        4
176
     1
 62
     7
176
     1
 62
   257
176
     1
 90
        1
176
     1
 90
        1
176
     1
 40
1.0
176
     1
 90
        8
176
     1
 62
     7
176
     1
 40
1.0
176
     1
 90
        1
176
     1
 90
        6
176
     1
 90
        2
176
     1
 62
     7
176
     1
 90
        5
176
     1
 90
        0
176
     1
 90
        0
176
     1
290
     0
176
     1
 90
        1
176
     1
 40
50.0
176
     1
 90
        0
176
     1
290
     0
176
     1
290
     1
176
     1
290
     1
176
     1
290
     0
176
     1
290
     0
176
     1
290
     0
176
     1
290
     0
176
     1
290
     0
176
     1
290
     0
176
     1
 90
       50
176
     1
 40
0.0
176
     1
 40
1.0
176
     1
 90
        0
176
     1
 62
    18
420
        0
176
     1
 90
       50
176
     1
 90
        3
176
     1
 62
     5
420
      255
176
     1
290
     0
176
     1
 90
       50
176
     1
 90
       50
176
     1
 90
       50
176
     1
290
     0
176
     1
 90
       50
176
     1
 62
   256
176
     0
 40
1.0
176
     0
 90
        2
176
     1
  1
strokes_ogs.tif
176
     1
290
     0
176
     1
 40
1.0
176
     1
 40
1.0
176
     1
  0
VISUALSTYLE
  5
352
102
{ACAD_REACTORS
330
342
102
}
330
342
100
AcDbVisualStyle
  2
ColorChange
 70
    16
177
     3
291
     1
 70
    58
 90
        2
176
     1
 90
        2
176
     1
 90
        3
176
     1
 90
        0
176
     1
 40
0.6
176
     1
 40
30.0
176
     1
 62
     8
420
  8421504
176
     1
 90
        1
176
     1
 90
        4
176
     1
 62
     7
176
     1
 62
   257
176
     1
 90
        1
176
     1
 90
        1
176
     1
 40
1.0
176
     1
 90
        8
176
     1
 62
     8
420
  8421504
176
     1
 40
1.0
176
     1
 90
        1
176
     1
 90
        6
176
     1
 90
        2
176
     1
 62
     7
176
     1
 90
        5
176
     1
 90
        0
176
     1
 90
        0
176
     1
290
     0
176
     1
 90
        1
176
     1
 40
0.0
176
     1
 90
        0
176
     1
290
     0
176
     1
290
     1
176
     1
290
     1
176
     1
290
     0
176
     1
290
     0
176
     1
290
     0
176
     1
290
     0
176
     1
290
     0
176
     1
290
     0
176
     1
 90
       50
176
     1
 40
0.0
176
     1
 40
1.0
176
     1
 90
        0
176
     1
 62
    18
420
        0
176
     1
 90
       50
176
     1
 90
        3
176
     1
 62
     5
420
      255
176
     1
290
     0
176
     1
 90
       50
176
     1
 90
       50
176
     1
 90
       50
176
     1
290
     0
176
     1
 90
       50
176
     1
 62
   256
176
     0
 40
1.0
176
     0
 90
        2
176
     1
  1
strokes_ogs.tif
176
     1
290
     0
176
     1
 40
1.0
176
     1
 40
1.0
176
     1
  0
VISUALSTYLE
  5
34C
102
{ACAD_REACTORS
330
342
102
}
330
342
100
AcDbVisualStyle
  2
Conceptual
 70
     9
177
     3
291
     0
 70
    58
 90
        3
176
     1
 90
        2
176
     1
 90
        0
176
     1
 90
        0
176
     1
 40
0.6
176
     1
 40
30.0
176
     1
 62
     7
420
 16777215
176
     1
 90
        2
176
     1
 90
        2
176
     1
 62
     7
176
     1
 62
   257
176
     1
 90
        1
176
     1
 90
        1
176
     1
 40
179.0
176
     1
 90
        8
176
     1
 62
     7
176
     1
 40
1.0
176
     1
 90
        1
176
     1
 90
        6
176
     1
 90
        2
176
     1
 62
     7
176
     1
 90
        3
176
     1
 90
        0
176
     1
 90
        0
176
     1
290
     0
176
     1
 90
        1
176
     1
 40
0.0
176
     1
 90
        0
176
     1
290
     0
176
     1
290
     1
176
     1
290
     1
176
     1
290
     0
176
     1
290
     0
176
     1
290
     0
176
     1
290
     0
176
     1
290
     0
176
     1
290
     0
176
     1
 90
       50
176
     1
 40
0.0
176
     1
 40
1.0
176
     1
 90
        0
176
     1
 62
    18
420
        0
176
     1
 90
       50
176
     1
 90
        3
176
     1
 62
     5
420
      255
176
     1
290
     0
176
     1
 90
       50
176
     1
 90
       50
176
     1
 90
       50
176
     1
290
     0
176
     1
 90
       50
176
     1
 62
   256
176
     0
 40
1.0
176
     0
 90
        2
176
     1
  1
strokes_ogs.tif
176
     1
290
     0
176
     1
 40
1.0
176
     1
 40
1.0
176
     1
  0
VISUALSTYLE
  5
34D
102
{ACAD_REACTORS
330
342
102
}
330
342
100
AcDbVisualStyle
  2
Dim
 70
    11
177
     3
291
     1
 70
    58
 90
        2
176
     1
 90
        2
176
     1
 90
        0
176
     1
 90
        0
176
     1
 40
0.6
176
     1
 40
30.0
176
     1
 62
     7
420
 16777215
176
     1
 90
        1
176
     1
 90
        4
176
     1
 62
     7
176
     1
 62
   257
176
     1
 90
        1
176
     1
 90
        1
176
     1
 40
1.0
176
     1
 90
        8
176
     1
 62
     7
176
     1
 40
1.0
176
     1
 90
        1
176
     1
 90
        6
176
     1
 90
        2
176
     1
 62
     7
176
     1
 90
        5
176
     1
 90
        0
176
     1
 90
        0
176
     1
290
     0
176
     1
 90
        1
176
     1
 40
-50.0
176
     1
 90
        0
176
     1
290
     0
176
     1
290
     1
176
     1
290
     1
176
     1
290
     0
176
     1
290
     0
176
     1
290
     0
176
     1
290
     0
176
     1
290
     0
176
     1
290
     0
176
     1
 90
       50
176
     1
 40
0.0
176
     1
 40
1.0
176
     1
 90
        0
176
     1
 62
    18
420
        0
176
     1
 90
       50
176
     1
 90
        3
176
     1
 62
     5
420
      255
176
     1
290
     0
176
     1
 90
       50
176
     1
 90
       50
176
     1
 90
       50
176
     1
290
     0
176
     1
 90
       50
176
     1
 62
   256
176
     0
 40
1.0
176
     0
 90
        2
176
     1
  1
strokes_ogs.tif
176
     1
290
     0
176
     1
 40
1.0
176
     1
 40
1.0
176
     1
  0
VISUALSTYLE
  5
355
102
{ACAD_REACTORS
330
342
102
}
330
342
100
AcDbVisualStyle
  2
EdgeColorOff
 70
    22
177
     3
291
     1
 70
    58
 90
        2
176
     0
 90
        2
176
     0
 90
        0
176
     0
 90
        0
176
     0
 40
0.6
176
     0
 40
30.0
176
     0
 62
     7
420
 16777215
176
     0
 90
        1
176
     0
 90
        4
176
     0
 62
     7
176
     0
 62
   257
176
     0
 90
        1
176
     0
 90
        1
176
     0
 40
1.0
176
     0
 90
        8
176
     2
 62
     7
176
     0
 40
1.0
176
     0
 90
        1
176
     0
 90
        6
176
     0
 90
        2
176
     0
 62
     7
176
     0
 90
        5
176
     0
 90
        0
176
     0
 90
        0
176
     0
290
     0
176
     0
 90
        1
176
     0
 40
0.0
176
     0
 90
        0
176
     0
290
     0
176
     0
290
     1
176
     0
290
     1
176
     0
290
     0
176
     0
290
     0
176
     0
290
     0
176
     0
290
     0
176
     0
290
     0
176
     0
290
     0
176
     0
 90
       50
176
     0
 40
0.0
176
     0
 40
1.0
176
     0
 90
        0
176
     0
 62
    18
420
        0
176
     0
 90
       50
176
     0
 90
        3
176
     0
 62
     5
420
      255
176
     0
290
     0
176
     0
 90
       50
176
     0
 90
       50
176
     0
 90
       50
176
     0
290
     0
176
     0
 90
       50
176
     0
 62
   256
176
     0
 40
1.0
176
     0
 90
        2
176
     0
  1
strokes_ogs.tif
176
     0
290
     0
176
     0
 40
1.0
176
     0
 40
1.0
176
     0
  0
VISUALSTYLE
  5
351
102
{ACAD_REACTORS
330
342
102
}
330
342
100
AcDbVisualStyle
  2
Facepattern
 70
    15
177
     3
291
     1
 70
    58
 90
        2
176
     1
 90
        2
176
     1
 90
        0
176
     1
 90
        0
176
     1
 40
0.6
176
     1
 40
30.0
176
     1
 62
     7
420
 16777215
176
     1
 90
        1
176
     1
 90
        4
176
     1
 62
     7
176
     1
 62
   257
176
     1
 90
        1
176
     1
 90
        1
176
     1
 40
1.0
176
     1
 90
        8
176
     1
 62
     7
176
     1
 40
1.0
176
     1
 90
        1
176
     1
 90
        6
176
     1
 90
        2
176
     1
 62
     7
176
     1
 90
        5
176
     1
 90
        0
176
     1
 90
        0
176
     1
290
     0
176
     1
 90
        1
176
     1
 40
0.0
176
     1
 90
        0
176
     1
290
     0
176
     1
290
     1
176
     1
290
     1
176
     1
290
     0
176
     1
290
     0
176
     1
290
     0
176
     1
290
     0
176
     1
290
     0
176
     1
290
     0
176
     1
 90
       50
176
     1
 40
0.0
176
     1
 40
1.0
176
     1
 90
        0
176
     1
 62
    18
420
        0
176
     1
 90
       50
176
     1
 90
        3
176
     1
 62
     5
420
      255
176
     1
290
     0
176
     1
 90
       50
176
     1
 90
       50
176
     1
 90
       50
176
     1
290
     0
176
     1
 90
       50
176
     1
 62
   256
176
     0
 40
1.0
176
     0
 90
        2
176
     1
  1
strokes_ogs.tif
176
     1
290
     0
176
     1
 40
1.0
176
     1
 40
1.0
176
     1
  0
VISUALSTYLE
  5
343
102
{ACAD_REACTORS
330
342
102
}
330
342
100
AcDbVisualStyle
  2
Flat
 70
     0
177
     3
291
     1
 70
    58
 90
        2
176
     1
 90
        1
176
     1
 90
        1
176
     1
 90
        2
176
     1
 40
0.6
176
     1
 40
30.0
176
     1
 62
     7
420
 16777215
176
     1
 90
        0
176
     1
 90
        0
176
     1
 62
     7
176
     1
 62
   257
176
     1
 90
        1
176
     1
 90
        1
176
     1
 40
1.0
176
     1
 90
        8
176
     1
 62
     7
176
     1
 40
1.0
176
     1
 90
        1
176
     1
 90
        6
176
     1
 90
        2
176
     1
 62
     7
176
     1
 90
        5
176
     1
 90
        0
176
     1
 90
        0
176
     1
290
     0
176
     1
 90
       13
176
     1
 40
0.0
176
     1
 90
        0
176
     1
290
     0
176
     1
290
     1
176
     1
290
     1
176
     1
290
     0
176
     1
290
     0
176
     1
290
     0
176
     1
290
     0
176
     1
290
     0
176
     1
290
     0
176
     1
 90
       50
176
     1
 40
0.0
176
     1
 40
1.0
176
     1
 90
        0
176
     1
 62
    18
420
        0
176
     1
 90
       50
176
     1
 90
        3
176
     1
 62
     5
420
      255
176
     1
290
     0
176
     1
 90
       50
176
     1
 90
       50
176
     1
 90
       50
176
     1
290
     0
176
     1
 90
       50
176
     1
 62
   256
176
     0
 40
1.0
176
     0
 90
        2
176
     1
  1
strokes_ogs.tif
176
     1
290
     0
176
     1
 40
1.0
176
     1
 40
1.0
176
     1
  0
VISUALSTYLE
  5
344
102
{ACAD_REACTORS
330
342
102
}
330
342
100
AcDbVisualStyle
  2
FlatWithEdges
 70
     1
177
     3
291
     1
 70
    58
 90
        2
176
     1
 90
        1
176
     1
 90
        1
176
     1
 90
        2
176
     1
 40
0.6
176
     1
 40
30.0
176
     1
 62
     7
420
 16777215
176
     1
 90
        1
176
     1
 90
        0
176
     1
 62
     7
176
     1
 62
   257
176
     1
 90
        1
176
     1
 90
        1
176
     1
 40
1.0
176
     1
 90
        0
176
     1
 62
   257
176
     1
 40
1.0
176
     1
 90
        1
176
     1
 90
        6
176
     1
 90
        2
176
     1
 62
     7
176
     1
 90
        5
176
     1
 90
        0
176
     1
 90
        0
176
     1
290
     0
176
     1
 90
       13
176
     1
 40
0.0
176
     1
 90
        0
176
     1
290
     0
176
     1
290
     1
176
     1
290
     1
176
     1
290
     0
176
     1
290
     0
176
     1
290
     0
176
     1
290
     0
176
     1
290
     0
176
     1
290
     0
176
     1
 90
       50
176
     1
 40
0.0
176
     1
 40
1.0
176
     1
 90
        0
176
     1
 62
    18
420
        0
176
     1
 90
       50
176
     1
 90
        3
176
     1
 62
     5
420
      255
176
     1
290
     0
176
     1
 90
       50
176
     1
 90
       50
176
     1
 90
       50
176
     1
290
     0
176
     1
 90
       50
176
     1
 62
   256
176
     0
 40
1.0
176
     0
 90
        2
176
     1
  1
strokes_ogs.tif
176
     1
290
     0
176
     1
 40
1.0
176
     1
 40
1.0
176
     1
  0
VISUALSTYLE
  5
345
102
{ACAD_REACTORS
330
342
102
}
330
342
100
AcDbVisualStyle
  2
Gouraud
 70
     2
177
     3
291
     1
 70
    58
 90
        2
176
     1
 90
        2
176
     1
 90
        1
176
     1
 90
        2
176
     1
 40
0.6
176
     1
 40
30.0
176
     1
 62
     7
420
 16777215
176
     1
 90
        0
176
     1
 90
        0
176
     1
 62
     7
176
     1
 62
   257
176
     1
 90
        1
176
     1
 90
        1
176
     1
 40
1.0
176
     1
 90
        0
176
     1
 62
     7
176
     1
 40
1.0
176
     1
 90
        1
176
     1
 90
        6
176
     1
 90
        2
176
     1
 62
     7
176
     1
 90
        5
176
     1
 90
        0
176
     1
 90
        0
176
     1
290
     0
176
     1
 90
       13
176
     1
 40
0.0
176
     1
 90
        0
176
     1
290
     0
176
     1
290
     1
176
     1
290
     1
176
     1
290
     0
176
     1
290
     0
176
     1
290
     0
176
     1
290
     0
176
     1
290
     0
176
     1
290
     0
176
     1
 90
       50
176
     1
 40
0.0
176
     1
 40
1.0
176
     1
 90
        0
176
     1
 62
    18
420
        0
176
     1
 90
       50
176
     1
 90
        3
176
     1
 62
     5
420
      255
176
     1
290
     0
176
     1
 90
       50
176
     1
 90
       50
176
     1
 90
       50
176
     1
290
     0
176
     1
 90
       50
176
     1
 62
   256
176
     0
 40
1.0
176
     0
 90
        2
176
     1
  1
strokes_ogs.tif
176
     1
290
     0
176
     1
 40
1.0
176
     1
 40
1.0
176
     1
  0
VISUALSTYLE
  5
346
102
{ACAD_REACTORS
330
342
102
}
330
342
100
AcDbVisualStyle
  2
GouraudWithEdges
 70
     3
177
     3
291
     1
 70
    58
 90
        2
176
     1
 90
        2
176
     1
 90
        1
176
     1
 90
        2
176
     1
 40
0.6
176
     1
 40
30.0
176
     1
 62
     7
420
 16777215
176
     1
 90
        1
176
     1
 90
        0
176
     1
 62
     7
176
     1
 62
   257
176
     1
 90
        1
176
     1
 90
        1
176
     1
 40
1.0
176
     1
 90
        0
176
     1
 62
   257
176
     1
 40
1.0
176
     1
 90
        1
176
     1
 90
        6
176
     1
 90
        2
176
     1
 62
     7
176
     1
 90
        5
176
     1
 90
        0
176
     1
 90
        0
176
     1
290
     0
176
     1
 90
       13
176
     1
 40
0.0
176
     1
 90
        0
176
     1
290
     0
176
     1
290
     1
176
     1
290
     1
176
     1
290
     0
176
     1
290
     0
176
     1
290
     0
176
     1
290
     0
176
     1
290
     0
176
     1
290
     0
176
     1
 90
       50
176
     1
 40
0.0
176
     1
 40
1.0
176
     1
 90
        0
176
     1
 62
    18
420
        0
176
     1
 90
       50
176
     1
 90
        3
176
     1
 62
     5
420
      255
176
     1
290
     0
176
     1
 90
       50
176
     1
 90
       50
176
     1
 90
       50
176
     1
290
     0
176
     1
 90
       50
176
     1
 62
   256
176
     0
 40
1.0
176
     0
 90
        2
176
     1
  1
strokes_ogs.tif
176
     1
290
     0
176
     1
 40
1.0
176
     1
 40
1.0
176
     1
  0
VISUALSTYLE
  5
349
102
{ACAD_REACTORS
330
342
102
}
330
342
100
AcDbVisualStyle
  2
Hidden
 70
     6
177
     3
291
     0
 70
    58
 90
        1
176
     1
 90
        2
176
     1
 90
        2
176
     1
 90
        0
176
     1
 40
0.6
176
     1
 40
30.0
176
     1
 62
     7
420
 16777215
176
     1
 90
        2
176
     1
 90
        2
176
     1
 62
     7
176
     1
 62
   257
176
     1
 90
        2
176
     1
 90
        1
176
     1
 40
40.0
176
     1
 90
        0
176
     1
 62
   257
176
     1
 40
1.0
176
     1
 90
        1
176
     1
 90
        6
176
     1
 90
        2
176
     1
 62
     7
176
     1
 90
        3
176
     1
 90
        0
176
     1
 90
        0
176
     1
290
     0
176
     1
 90
        1
176
     1
 40
0.0
176
     1
 90
        0
176
     1
290
     0
176
     1
290
     1
176
     1
290
     1
176
     1
290
     0
176
     1
290
     0
176
     1
290
     0
176
     1
290
     0
176
     1
290
     0
176
     1
290
     0
176
     1
 90
       50
176
     1
 40
0.0
176
     1
 40
1.0
176
     1
 90
        0
176
     1
 62
    18
420
        0
176
     1
 90
       50
176
     1
 90
        3
176
     1
 62
     5
420
      255
176
     1
290
     0
176
     1
 90
       50
176
     1
 90
       50
176
     1
 90
       50
176
     1
290
     0
176
     1
 90
       50
176
     1
 62
   256
176
     0
 40
1.0
176
     0
 90
        2
176
     1
  1
strokes_ogs.tif
176
     1
290
     0
176
     1
 40
1.0
176
     1
 40
1.0
176
     1
  0
VISUALSTYLE
  5
353
102
{ACAD_REACTORS
330
342
102
}
330
342
100
AcDbVisualStyle
  2
JitterOff
 70
    20
177
     3
291
     1
 70
    58
 90
        2
176
     0
 90
        2
176
     0
 90
        0
176
     0
 90
        0
176
     0
 40
0.6
176
     0
 40
30.0
176
     0
 62
     7
420
 16777215
176
     0
 90
        1
176
     0
 90
        4
176
     0
 62
     7
176
     0
 62
   257
176
     0
 90
        1
176
     0
 90
        1
176
     0
 40
1.0
176
     0
 90
       10
176
     2
 62
     7
176
     0
 40
1.0
176
     0
 90
        1
176
     0
 90
        6
176
     0
 90
        2
176
     0
 62
     7
176
     0
 90
        5
176
     0
 90
        0
176
     0
 90
        0
176
     0
290
     0
176
     0
 90
        1
176
     0
 40
0.0
176
     0
 90
        0
176
     0
290
     0
176
     0
290
     1
176
     0
290
     1
176
     0
290
     0
176
     0
290
     0
176
     0
290
     0
176
     0
290
     0
176
     0
290
     0
176
     0
290
     0
176
     0
 90
       50
176
     0
 40
0.0
176
     0
 40
1.0
176
     0
 90
        0
176
     0
 62
    18
420
        0
176
     0
 90
       50
176
     0
 90
        3
176
     0
 62
     5
420
      255
176
     0
290
     0
176
     0
 90
       50
176
     0
 90
       50
176
     0
 90
       50
176
     0
290
     0
176
     0
 90
       50
176
     0
 62
   256
176
     0
 40
1.0
176
     0
 90
        2
176
     0
  1
strokes_ogs.tif
176
     0
290
     0
176
     0
 40
1.0
176
     0
 40
1.0
176
     0
  0
VISUALSTYLE
  5
350
102
{ACAD_REACTORS
330
342
102
}
330
342
100
AcDbVisualStyle
  2
Linepattern
 70
    14
177
     3
291
     1
 70
    58
 90
        2
176
     1
 90
        2
176
     1
 90
        0
176
     1
 90
        0
176
     1
 40
0.6
176
     1
 40
30.0
176
     1
 62
     7
420
 16777215
176
     1
 90
        1
176
     1
 90
        4
176
     1
 62
     7
176
     1
 62
   257
176
     1
 90
        7
176
     1
 90
        7
176
     1
 40
1.0
176
     1
 90
        8
176
     1
 62
     7
176
     1
 40
1.0
176
     1
 90
        1
176
     1
 90
        6
176
     1
 90
        2
176
     1
 62
     7
176
     1
 90
        5
176
     1
 90
        0
176
     1
 90
        0
176
     1
290
     0
176
     1
 90
        1
176
     1
 40
0.0
176
     1
 90
        0
176
     1
290
     0
176
     1
290
     1
176
     1
290
     1
176
     1
290
     0
176
     1
290
     0
176
     1
290
     0
176
     1
290
     0
176
     1
290
     0
176
     1
290
     0
176
     1
 90
       50
176
     1
 40
0.0
176
     1
 40
1.0
176
     1
 90
        0
176
     1
 62
    18
420
        0
176
     1
 90
       50
176
     1
 90
        3
176
     1
 62
     5
420
      255
176
     1
290
     0
176
     1
 90
       50
176
     1
 90
       50
176
     1
 90
       50
176
     1
290
     0
176
     1
 90
       50
176
     1
 62
   256
176
     0
 40
1.0
176
     0
 90
        2
176
     1
  1
strokes_ogs.tif
176
     1
290
     0
176
     1
 40
1.0
176
     1
 40
1.0
176
     1
  0
VISUALSTYLE
  5
354
102
{ACAD_REACTORS
330
342
102
}
330
342
100
AcDbVisualStyle
  2
OverhangOff
 70
    21
177
     3
291
     1
 70
    58
 90
        2
176
     0
 90
        2
176
     0
 90
        0
176
     0
 90
        0
176
     0
 40
0.6
176
     0
 40
30.0
176
     0
 62
     7
420
 16777215
176
     0
 90
        1
176
     0
 90
        4
176
     0
 62
     7
176
     0
 62
   257
176
     0
 90
        1
176
     0
 90
        1
176
     0
 40
1.0
176
     0
 90
        9
176
     2
 62
     7
176
     0
 40
1.0
176
     0
 90
        1
176
     0
 90
        6
176
     0
 90
        2
176
     0
 62
     7
176
     0
 90
        5
176
     0
 90
        0
176
     0
 90
        0
176
     0
290
     0
176
     0
 90
        1
176
     0
 40
0.0
176
     0
 90
        0
176
     0
290
     0
176
     0
290
     1
176
     0
290
     1
176
     0
290
     0
176
     0
290
     0
176
     0
290
     0
176
     0
290
     0
176
     0
290
     0
176
     0
290
     0
176
     0
 90
       50
176
     0
 40
0.0
176
     0
 40
1.0
176
     0
 90
        0
176
     0
 62
    18
420
        0
176
     0
 90
       50
176
     0
 90
        3
176
     0
 62
     5
420
      255
176
     0
290
     0
176
     0
 90
       50
176
     0
 90
       50
176
     0
 90
       50
176
     0
290
     0
176
     0
 90
       50
176
     0
 62
   256
176
     0
 40
1.0
176
     0
 90
        2
176
     0
  1
strokes_ogs.tif
176
     0
290
     0
176
     0
 40
1.0
176
     0
 40
1.0
176
     0
  0
VISUALSTYLE
  5
34B
102
{ACAD_REACTORS
330
342
102
}
330
342
100
AcDbVisualStyle
  2
Realistic
 70
     8
177
     3
291
     0
 70
    58
 90
        2
176
     1
 90
        3
176
     1
 90
        0
176
     1
 90
        2
176
     1
 40
0.6
176
     1
 40
30.0
176
     1
 62
     7
420
 16777215
176
     1
 90
        0
176
     1
 90
        0
176
     1
 62
     7
176
     1
 62
   257
176
     1
 90
        1
176
     1
 90
        1
176
     1
 40
1.0
176
     1
 90
        8
176
     1
 62
   257
176
     1
 40
1.0
176
     1
 90
        1
176
     1
 90
        6
176
     1
 90
        2
176
     1
 62
     7
176
     1
 90
        3
176
     1
 90
        0
176
     1
 90
        0
176
     1
290
     0
176
     1
 90
       13
176
     1
 40
0.0
176
     1
 90
        0
176
     1
290
     0
176
     1
290
     1
176
     1
290
     1
176
     1
290
     0
176
     1
290
     0
176
     1
290
     0
176
     1
290
     0
176
     1
290
     0
176
     1
290
     0
176
     1
 90
       50
176
     1
 40
0.0
176
     1
 40
1.0
176
     1
 90
        0
176
     1
 62
    18
420
        0
176
     1
 90
       50
176
     1
 90
        3
176
     1
 62
     5
420
      255
176
     1
290
     0
176
     1
 90
       50
176
     1
 90
       50
176
     1
 90
       50
176
     1
290
     0
176
     1
 90
       50
176
     1
 62
   256
176
     0
 40
1.0
176
     0
 90
        2
176
     1
  1
strokes_ogs.tif
176
     1
290
     0
176
     1
 40
1.0
176
     1
 40
1.0
176
     1
  0
VISUALSTYLE
  5
35A
102
{ACAD_REACTORS
330
342
102
}
330
342
100
AcDbVisualStyle
  2
Shaded
 70
    27
177
     3
291
     0
 70
    58
 90
        2
176
     1
 90
        2
176
     1
 90
        1
176
     1
 90
        2
176
     1
 40
0.6
176
     1
 40
30.0
176
     1
 62
     7
420
 16777215
176
     1
 90
        0
176
     1
 90
        4
176
     1
 62
     7
176
     1
 62
   257
176
     1
 90
        1
176
     1
 90
        1
176
     1
 40
1.0
176
     1
 90
        8
176
     1
 62
   257
176
     1
 40
1.0
176
     1
 90
        1
176
     1
 90
        6
176
     1
 90
        2
176
     1
 62
     8
420
  7895160
176
     1
 90
        3
176
     1
 90
        0
176
     1
 90
        0
176
     1
290
     0
176
     1
 90
        5
176
     1
 40
0.0
176
     1
 90
        0
176
     1
290
     0
176
     1
290
     1
176
     1
290
     1
176
     1
290
     0
176
     1
290
     0
176
     1
290
     0
176
     1
290
     0
176
     1
290
     0
176
     1
290
     0
176
     1
 90
       50
176
     1
 40
0.0
176
     1
 40
1.0
176
     1
 90
        0
176
     1
 62
    18
420
        0
176
     1
 90
       50
176
     1
 90
        3
176
     1
 62
     5
420
      255
176
     1
290
     0
176
     1
 90
       50
176
     1
 90
       50
176
     1
 90
       50
176
     1
290
     0
176
     1
 90
       50
176
     1
 62
   256
176
     0
 40
1.0
176
     0
 90
        2
176
     1
  1
strokes_ogs.tif
176
     1
290
     0
176
     1
 40
1.0
176
     1
 40
1.0
176
     1
  0
VISUALSTYLE
  5
359
102
{ACAD_REACTORS
330
342
102
}
330
342
100
AcDbVisualStyle
  2
Shaded with edges
 70
    26
177
     3
291
     0
 70
    58
 90
        2
176
     1
 90
        2
176
     1
 90
        1
176
     1
 90
        2
176
     1
 40
0.6
176
     1
 40
30.0
176
     1
 62
     7
420
 16777215
176
     1
 90
        1
176
     1
 90
       10
176
     1
 62
     7
176
     1
 62
   257
176
     1
 90
        2
176
     1
 90
        1
176
     1
 40
1.0
176
     1
 90
        8
176
     1
 62
   257
176
     1
 40
1.0
176
     1
 90
        1
176
     1
 90
        6
176
     1
 90
        2
176
     1
 62
     7
176
     1
 90
        3
176
     1
 90
        0
176
     1
 90
        0
176
     1
290
     0
176
     1
 90
        5
176
     1
 40
0.0
176
     1
 90
        0
176
     1
290
     0
176
     1
290
     1
176
     1
290
     1
176
     1
290
     0
176
     1
290
     0
176
     1
290
     0
176
     1
290
     0
176
     1
290
     0
176
     1
290
     0
176
     1
 90
       50
176
     1
 40
0.0
176
     1
 40
1.0
176
     1
 90
        0
176
     1
 62
    18
420
        0
176
     1
 90
       50
176
     1
 90
        3
176
     1
 62
     5
420
      255
176
     1
290
     0
176
     1
 90
       50
176
     1
 90
       50
176
     1
 90
       50
176
     1
290
     0
176
     1
 90
       50
176
     1
 62
   256
176
     0
 40
1.0
176
     0
 90
        2
176
     1
  1
strokes_ogs.tif
176
     1
290
     0
176
     1
 40
1.0
176
     1
 40
1.0
176
     1
  0
VISUALSTYLE
  5
356
102
{ACAD_REACTORS
330
342
102
}
330
342
100
AcDbVisualStyle
  2
Shades of Gray
 70
    23
177
     3
291
     0
 70
    58
 90
        2
176
     1
 90
        2
176
     1
 90
        3
176
     1
 90
        0
176
     1
 40
0.6
176
     1
 40
30.0
176
     1
 62
     7
420
 16777215
176
     1
 90
        2
176
     1
 90
        2
176
     1
 62
     7
176
     1
 62
     7
176
     1
 90
        1
176
     1
 90
        1
176
     1
 40
40.0
176
     1
 90
        8
176
     1
 62
     7
176
     1
 40
1.0
176
     1
 90
        1
176
     1
 90
        6
176
     1
 90
        2
176
     1
 62
     7
176
     1
 90
        3
176
     1
 90
        0
176
     1
 90
        0
176
     1
290
     0
176
     1
 90
        1
176
     1
 40
0.0
176
     1
 90
        0
176
     1
290
     0
176
     1
290
     1
176
     1
290
     1
176
     1
290
     0
176
     1
290
     0
176
     1
290
     0
176
     1
290
     0
176
     1
290
     0
176
     1
290
     0
176
     1
 90
       50
176
     1
 40
0.0
176
     1
 40
1.0
176
     1
 90
        0
176
     1
 62
    18
420
        0
176
     1
 90
       50
176
     1
 90
        3
176
     1
 62
     5
420
      255
176
     1
290
     0
176
     1
 90
       50
176
     1
 90
       50
176
     1
 90
       50
176
     1
290
     0
176
     1
 90
       50
176
     1
 62
   256
176
     0
 40
1.0
176
     0
 90
        2
176
     1
  1
strokes_ogs.tif
176
     1
290
     0
176
     1
 40
1.0
176
     1
 40
1.0
176
     1
  0
VISUALSTYLE
  5
357
102
{ACAD_REACTORS
330
342
102
}
330
342
100
AcDbVisualStyle
  2
Sketchy
 70
    24
177
     3
291
     0
 70
    58
 90
        1
176
     1
 90
        2
176
     1
 90
        2
176
     1
 90
        0
176
     1
 40
0.6
176
     1
 40
30.0
176
     1
 62
     7
420
 16777215
176
     1
 90
        2
176
     1
 90
        2
176
     1
 62
     7
176
     1
 62
     7
176
     1
 90
        1
176
     1
 90
        1
176
     1
 40
40.0
176
     1
 90
       11
176
     1
 62
     7
176
     1
 40
1.0
176
     1
 90
        1
176
     1
 90
        6
176
     1
 90
        2
176
     1
 62
     7
176
     1
 90
        6
176
     1
 90
        0
176
     1
 90
        0
176
     1
290
     0
176
     1
 90
        1
176
     1
 40
0.0
176
     1
 90
        0
176
     1
290
     0
176
     1
290
     1
176
     1
290
     1
176
     1
290
     0
176
     1
290
     0
176
     1
290
     0
176
     1
290
     0
176
     1
290
     0
176
     1
290
     0
176
     1
 90
       50
176
     1
 40
0.0
176
     1
 40
1.0
176
     1
 90
        0
176
     1
 62
    18
420
        0
176
     1
 90
       50
176
     1
 90
        3
176
     1
 62
     5
420
      255
176
     1
290
     0
176
     1
 90
       50
176
     1
 90
       50
176
     1
 90
       50
176
     1
290
     0
176
     1
 90
       50
176
     1
 62
   256
176
     0
 40
1.0
176
     0
 90
        2
176
     1
  1
strokes_ogs.tif
176
     1
290
     0
176
     1
 40
1.0
176
     1
 40
1.0
176
     1
  0
VISUALSTYLE
  5
34F
102
{ACAD_REACTORS
330
342
102
}
330
342
100
AcDbVisualStyle
  2
Thicken
 70
    13
177
     3
291
     1
 70
    58
 90
        2
176
     1
 90
        2
176
     1
 90
        0
176
     1
 90
        0
176
     1
 40
0.6
176
     1
 40
30.0
176
     1
 62
     7
420
 16777215
176
     1
 90
        1
176
     1
 90
        4
176
     1
 62
     7
176
     1
 62
   257
176
     1
 90
        1
176
     1
 90
        1
176
     1
 40
1.0
176
     1
 90
       12
176
     1
 62
     7
176
     1
 40
1.0
176
     1
 90
        1
176
     1
 90
        6
176
     1
 90
        2
176
     1
 62
     7
176
     1
 90
        5
176
     1
 90
        0
176
     1
 90
        0
176
     1
290
     0
176
     1
 90
        1
176
     1
 40
0.0
176
     1
 90
        0
176
     1
290
     0
176
     1
290
     1
176
     1
290
     1
176
     1
290
     0
176
     1
290
     0
176
     1
290
     0
176
     1
290
     0
176
     1
290
     0
176
     1
290
     0
176
     1
 90
       50
176
     1
 40
0.0
176
     1
 40
1.0
176
     1
 90
        0
176
     1
 62
    18
420
        0
176
     1
 90
       50
176
     1
 90
        3
176
     1
 62
     5
420
      255
176
     1
290
     0
176
     1
 90
       50
176
     1
 90
       50
176
     1
 90
       50
176
     1
290
     0
176
     1
 90
       50
176
     1
 62
   256
176
     0
 40
1.0
176
     0
 90
        2
176
     1
  1
strokes_ogs.tif
176
     1
290
     0
176
     1
 40
1.0
176
     1
 40
1.0
176
     1
  0
VISUALSTYLE
  5
348
102
{ACAD_REACTORS
330
342
102
}
330
342
100
AcDbVisualStyle
  2
Wireframe
 70
     5
177
     3
291
     0
 70
    58
 90
        0
176
     1
 90
        2
176
     1
 90
        0
176
     1
 90
        0
176
     1
 40
0.6
176
     1
 40
30.0
176
     1
 62
     7
420
 16777215
176
     1
 90
        1
176
     1
 90
        4
176
     1
 62
     7
176
     1
 62
   257
176
     1
 90
        1
176
     1
 90
        1
176
     1
 40
1.0
176
     1
 90
        0
176
     1
 62
   257
176
     1
 40
1.0
176
     1
 90
        1
176
     1
 90
        6
176
     1
 90
        2
176
     1
 62
     7
176
     1
 90
        3
176
     1
 90
        0
176
     1
 90
        0
176
     1
290
     0
176
     1
 90
        1
176
     1
 40
0.0
176
     1
 90
        0
176
     1
290
     0
176
     1
290
     1
176
     1
290
     1
176
     1
290
     0
176
     1
290
     0
176
     1
290
     0
176
     1
290
     0
176
     1
290
     0
176
     1
290
     0
176
     1
 90
       50
176
     1
 40
0.0
176
     1
 40
1.0
176
     1
 90
        0
176
     1
 62
    18
420
        0
176
     1
 90
       50
176
     1
 90
        3
176
     1
 62
     5
420
      255
176
     1
290
     0
176
     1
 90
       50
176
     1
 90
       50
176
     1
 90
       50
176
     1
290
     0
176
     1
 90
       50
176
     1
 62
   256
176
     0
 40
1.0
176
     0
 90
        2
176
     1
  1
strokes_ogs.tif
176
     1
290
     0
176
     1
 40
1.0
176
     1
 40
1.0
176
     1
  0
VISUALSTYLE
  5
358
102
{ACAD_REACTORS
330
342
102
}
330
342
100
AcDbVisualStyle
  2
X-Ray
 70
    25
177
     3
291
     0
 70
    58
 90
        2
176
     1
 90
        2
176
     1
 90
        1
176
     1
 90
        1
176
     1
 40
0.5
176
     1
 40
30.0
176
     1
 62
     7
420
 16777215
176
     1
 90
        1
176
     1
 90
        0
176
     1
 62
     7
176
     1
 62
   257
176
     1
 90
        1
176
     1
 90
        1
176
     1
 40
1.0
176
     1
 90
        8
176
     1
 62
     7
176
     1
 40
1.0
176
     1
 90
        1
176
     1
 90
        6
176
     1
 90
        2
176
     1
 62
     7
176
     1
 90
        3
176
     1
 90
        0
176
     1
 90
        0
176
     1
290
     0
176
     1
 90
       13
176
     1
 40
0.0
176
     1
 90
        0
176
     1
290
     0
176
     1
290
     1
176
     1
290
     1
176
     1
290
     0
176
     1
290
     0
176
     1
290
     0
176
     1
290
     0
176
     1
290
     0
176
     1
290
     0
176
     1
 90
       50
176
     1
 40
0.0
176
     1
 40
1.0
176
     1
 90
        0
176
     1
 62
    18
420
        0
176
     1
 90
       50
176
     1
 90
        3
176
     1
 62
     5
420
      255
176
     1
290
     0
176
     1
 90
       50
176
     1
 90
       50
176
     1
 90
       50
176
     1
290
     0
176
     1
 90
       50
176
     1
 62
   256
176
     0
 40
1.0
176
     0
 90
        2
176
     1
  1
strokes_ogs.tif
176
     1
290
     0
176
     1
 40
1.0
176
     1
 40
1.0
176
     1
  0
DICTIONARYVAR
  5
524
102
{ACAD_REACTORS
330
523
102
}
330
523
100
DictionaryVariables
280
     0
  1
1:1
  0
DICTIONARYVAR
  5
529
102
{ACAD_REACTORS
330
523
102
}
330
523
100
DictionaryVariables
280
     0
  1
Standard
  0
DICTIONARYVAR
  5
528
102
{ACAD_REACTORS
330
523
102
}
330
523
100
DictionaryVariables
280
     0
  1
Standard
  0
XRECORD
  5
389
102
{ACAD_REACTORS
330
387
102
}
330
387
100
AcDbXrecord
280
     1
1000
#ffffff
  0
XRECORD
  5
38A
102
{ACAD_REACTORS
330
387
102
}
330
387
100
AcDbXrecord
280
     1
1000
FullColor
  0
XRECORD
  5
38B
102
{ACAD_REACTORS
330
387
102
}
330
387
100
AcDbXrecord
280
     1
290
     1
  0
XRECORD
  5
38C
102
{ACAD_REACTORS
330
387
102
}
330
387
100
AcDbXrecord
280
     1
290
     1
  0
XRECORD
  5
38D
102
{ACAD_REACTORS
330
387
102
}
330
387
100
AcDbXrecord
280
     1
290
     1
  0
XRECORD
  5
38E
102
{ACAD_REACTORS
330
387
102
}
330
387
100
AcDbXrecord
280
     1
290
     1
  0
XRECORD
  5
38F
102
{ACAD_REACTORS
330
387
102
}
330
387
100
AcDbXrecord
280
     1
1000
auto
  0
XRECORD
  5
390
102
{ACAD_REACTORS
330
387
102
}
330
387
100
AcDbXrecord
280
     1
1000
auto
  0
XRECORD
  5
391
102
{ACAD_REACTORS
330
387
102
}
330
387
100
AcDbXrecord
280
     1
1000
auto
  0
XRECORD
  5
392
102
{ACAD_REACTORS
330
387
102
}
330
387
100
AcDbXrecord
280
     1
1000
auto
  0
XRECORD
  5
393
102
{ACAD_REACTORS
330
387
102
}
330
387
100
AcDbXrecord
280
     1
1000
auto
  0
XRECORD
  5
394
102
{ACAD_REACTORS
330
387
102
}
330
387
100
AcDbXrecord
280
     1
1000
auto
  0
XRECORD
  5
395
102
{ACAD_REACTORS
330
387
102
}
330
387
100
AcDbXrecord
280
     1
1000
auto
  0
XRECORD
  5
396
102
{ACAD_REACTORS
330
387
102
}
330
387
100
AcDbXrecord
280
     1
1000
auto
  0
XRECORD
  5
397
102
{ACAD_REACTORS
330
387
102
}
330
387
100
AcDbXrecord
280
     1
290
     0
  0
XRECORD
  5
398
102
{ACAD_REACTORS
330
387
102
}
330
387
100
AcDbXrecord
280
     1
290
     0
  0
XRECORD
  5
399
102
{ACAD_REACTORS
330
387
102
}
330
387
100
AcDbXrecord
280
     1
290
     0
  0
XRECORD
  5
39A
102
{ACAD_REACTORS
330
387
102
}
330
387
100
AcDbXrecord
280
     1
290
     0
  0
XRECORD
  5
39B
102
{ACAD_REACTORS
330
387
102
}
330
387
100
AcDbXrecord
280
     1
 90
        0
  0
XRECORD
  5
39C
102
{ACAD_REACTORS
330
387
102
}
330
387
100
AcDbXrecord
280
     1
 90
        0
  0
XRECORD
  5
39D
102
{ACAD_REACTORS
330
387
102
}
330
387
100
AcDbXrecord
280
     1
 90
        0
  0
XRECORD
  5
39E
102
{ACAD_REACTORS
330
387
102
}
330
387
100
AcDbXrecord
280
     1
 90
        0
  0
XRECORD
  5
39F
102
{ACAD_REACTORS
330
387
102
}
330
387
100
AcDbXrecord
280
     1
1000
auto
  0
XRECORD
  5
3A0
102
{ACAD_REACTORS
330
387
102
}
330
387
100
AcDbXrecord
280
     1
1000
auto
  0
XRECORD
  5
3A1
102
{ACAD_REACTORS
330
387
102
}
330
387
100
AcDbXrecord
280
     1
1000
auto
  0
XRECORD
  5
3A2
102
{ACAD_REACTORS
330
387
102
}
330
387
100
AcDbXrecord
280
     1
1000
auto
  0
XRECORD
  5
3A3
102
{ACAD_REACTORS
330
387
102
}
330
387
100
AcDbXrecord
280
     1
1000
auto
  0
XRECORD
  5
3A4
102
{ACAD_REACTORS
330
387
102
}
330
387
100
AcDbXrecord
280
     1
1000
auto
  0
XRECORD
  5
3A5
102
{ACAD_REACTORS
330
387
102
}
330
387
100
AcDbXrecord
280
     1
1000
auto
  0
XRECORD
  5
3A6
102
{ACAD_REACTORS
330
387
102
}
330
387
100
AcDbXrecord
280
     1
1000
auto
  0
XRECORD
  5
3A7
102
{ACAD_REACTORS
330
387
102
}
330
387
100
AcDbXrecord
280
     1
 90
        1
  0
XRECORD
  5
3A8
102
{ACAD_REACTORS
330
387
102
}
330
387
100
AcDbXrecord
280
     1
 40
0.5
  0
XRECORD
  5
3A9
102
{ACAD_REACTORS
330
387
102
}
330
387
100
AcDbXrecord
280
     1
 40
0.5
  0
XRECORD
  5
3AA
102
{ACAD_REACTORS
330
387
102
}
330
387
100
AcDbXrecord
280
     1
 40
0.5
  0
XRECORD
  5
3AB
102
{ACAD_REACTORS
330
387
102
}
330
387
100
AcDbXrecord
280
     1
 40
0.5
  0
XRECORD
  5
3AC
102
{ACAD_REACTORS
330
387
102
}
330
387
100
AcDbXrecord
280
     1
290
     0
  0
XRECORD
  5
3AD
102
{ACAD_REACTORS
330
387
102
}
330
387
100
AcDbXrecord
280
     1
 90
        1
  0
XRECORD
  5
3AE
102
{ACAD_REACTORS
330
387
102
}
330
387
100
AcDbXrecord
280
     1
 40
-78.77337008477753
  0
XRECORD
  5
3AF
102
{ACAD_REACTORS
330
387
102
}
330
387
100
AcDbXrecord
280
     1
 40
-35.05396725502515
  0
XRECORD
  5
3B0
102
{ACAD_REACTORS
330
387
102
}
330
387
100
AcDbXrecord
280
     1
1000
Landscape
  0
XRECORD
  5
3B1
102
{ACAD_REACTORS
330
387
102
}
330
387
100
AcDbXrecord
280
     1
 40
11.0
  0
XRECORD
  5
3B2
102
{ACAD_REACTORS
330
387
102
}
330
387
100
AcDbXrecord
280
     1
 40
8.5
  0
XRECORD
  5
3B3
102
{ACAD_REACTORS
330
387
102
}
330
387
100
AcDbXrecord
280
     1
1000
0.0247
  0
XRECORD
  5
3B4
102
{ACAD_REACTORS
330
387
102
}
330
387
100
AcDbXrecord
280
     1
290
     1
  0
XRECORD
  5
3B5
102
{ACAD_REACTORS
330
387
102
}
330
387
100
AcDbXrecord
280
     1
1000
3.13.1
  0
XRECORD
  5
3B6
102
{ACAD_REACTORS
330
387
102
}
330
387
100
AcDbXrecord
280
     1
 90
        1
  0
DICTIONARY
  5
525
330
382
100
AcDbDictionary
280
     1
281
     1
  3
ACAD_ROUNDTRIP_2008_TABLESTYLE_CELLSTYLEMAP
360
526
  0
CELLSTYLEMAP
  5
526
102
{ACAD_REACTORS
330
525
102
}
330
525
100
AcDbCellStyleMap
 90
        3
300
CELLSTYLE
  1
TABLEFORMAT_BEGIN
 90
        5
170
     1
 91
        0
 92
    32768
 62
   257
 93
        1
300
CONTENTFORMAT
  1
CONTENTFORMAT_BEGIN
 90
        0
 91
        0
 92
        4
 93
        0
300

 40
0.0
140
1.0
 94
        5
 62
     0
340
32A
144
0.25
309
CONTENTFORMAT_END
171
     1
301
MARGIN
  1
CELLMARGIN_BEGIN
 40
0.06
 40
0.06
 40
0.06
 40
0.06
 40
0.06
 40
0.06
309
CELLMARGIN_END
 94
        6
 95
        1
302
GRIDFORMAT
  1
GRIDFORMAT_BEGIN
 90
        0
 91
        1
 62
     0
 92
       -2
340
32C
 93
        0
 40
0.045
309
GRIDFORMAT_END
 95
        2
302
GRIDFORMAT
  1
GRIDFORMAT_BEGIN
 90
        0
 91
        1
 62
     0
 92
       -2
340
32C
 93
        0
 40
0.045
309
GRIDFORMAT_END
 95
        4
302
GRIDFORMAT
  1
GRIDFORMAT_BEGIN
 90
        0
 91
        1
 62
     0
 92
       -2
340
32C
 93
        0
 40
0.045
309
GRIDFORMAT_END
 95
        8
302
GRIDFORMAT
  1
GRIDFORMAT_BEGIN
 90
        0
 91
        1
 62
     0
 92
       -2
340
32C
 93
        0
 40
0.045
309
GRIDFORMAT_END
 95
       16
302
GRIDFORMAT
  1
GRIDFORMAT_BEGIN
 90
        0
 91
        1
 62
     0
 92
       -2
340
32C
 93
        0
 40
0.045
309
GRIDFORMAT_END
 95
       32
302
GRIDFORMAT
  1
GRIDFORMAT_BEGIN
 90
        0
 91
        1
 62
     0
 92
       -2
340
32C
 93
        0
 40
0.045
309
GRIDFORMAT_END
309
TABLEFORMAT_END
  1
CELLSTYLE_BEGIN
 90
        1
 91
        1
300
_TITLE
309
CELLSTYLE_END
300
CELLSTYLE
  1
TABLEFORMAT_BEGIN
 90
        5
170
     1
 91
        0
 92
        0
 62
   257
 93
        1
300
CONTENTFORMAT
  1
CONTENTFORMAT_BEGIN
 90
        0
 91
        0
 92
        4
 93
        0
300

 40
0.0
140
1.0
 94
        5
 62
     0
340
32A
144
0.18
309
CONTENTFORMAT_END
171
     1
301
MARGIN
  1
CELLMARGIN_BEGIN
 40
0.06
 40
0.06
 40
0.06
 40
0.06
 40
0.06
 40
0.06
309
CELLMARGIN_END
 94
        6
 95
        1
302
GRIDFORMAT
  1
GRIDFORMAT_BEGIN
 90
        0
 91
        1
 62
     0
 92
       -2
340
32C
 93
        0
 40
0.045
309
GRIDFORMAT_END
 95
        2
302
GRIDFORMAT
  1
GRIDFORMAT_BEGIN
 90
        0
 91
        1
 62
     0
 92
       -2
340
32C
 93
        0
 40
0.045
309
GRIDFORMAT_END
 95
        4
302
GRIDFORMAT
  1
GRIDFORMAT_BEGIN
 90
        0
 91
        1
 62
     0
 92
       -2
340
32C
 93
        0
 40
0.045
309
GRIDFORMAT_END
 95
        8
302
GRIDFORMAT
  1
GRIDFORMAT_BEGIN
 90
        0
 91
        1
 62
     0
 92
       -2
340
32C
 93
        0
 40
0.045
309
GRIDFORMAT_END
 95
       16
302
GRIDFORMAT
  1
GRIDFORMAT_BEGIN
 90
        0
 91
        1
 62
     0
 92
       -2
340
32C
 93
        0
 40
0.045
309
GRIDFORMAT_END
 95
       32
302
GRIDFORMAT
  1
GRIDFORMAT_BEGIN
 90
        0
 91
        1
 62
     0
 92
       -2
340
32C
 93
        0
 40
0.045
309
GRIDFORMAT_END
309
TABLEFORMAT_END
  1
CELLSTYLE_BEGIN
 90
        2
 91
        1
300
_HEADER
309
CELLSTYLE_END
300
CELLSTYLE
  1
TABLEFORMAT_BEGIN
 90
        5
170
     1
 91
        0
 92
        0
 62
   257
 93
        1
300
CONTENTFORMAT
  1
CONTENTFORMAT_BEGIN
 90
        0
 91
        0
 92
        4
 93
        0
300

 40
0.0
140
1.0
 94
        2
 62
     0
340
32A
144
0.18
309
CONTENTFORMAT_END
171
     1
301
MARGIN
  1
CELLMARGIN_BEGIN
 40
0.06
 40
0.06
 40
0.06
 40
0.06
 40
0.06
 40
0.06
309
CELLMARGIN_END
 94
        6
 95
        1
302
GRIDFORMAT
  1
GRIDFORMAT_BEGIN
 90
        0
 91
        1
 62
     0
 92
       -2
340
32C
 93
        0
 40
0.045
309
GRIDFORMAT_END
 95
        2
302
GRIDFORMAT
  1
GRIDFORMAT_BEGIN
 90
        0
 91
        1
 62
     0
 92
       -2
340
32C
 93
        0
 40
0.045
309
GRIDFORMAT_END
 95
        4
302
GRIDFORMAT
  1
GRIDFORMAT_BEGIN
 90
        0
 91
        1
 62
     0
 92
       -2
340
32C
 93
        0
 40
0.045
309
GRIDFORMAT_END
 95
        8
302
GRIDFORMAT
  1
GRIDFORMAT_BEGIN
 90
        0
 91
        1
 62
     0
 92
       -2
340
32C
 93
        0
 40
0.045
309
GRIDFORMAT_END
 95
       16
302
GRIDFORMAT
  1
GRIDFORMAT_BEGIN
 90
        0
 91
        1
 62
     0
 92
       -2
340
32C
 93
        0
 40
0.045
309
GRIDFORMAT_END
 95
       32
302
GRIDFORMAT
  1
GRIDFORMAT_BEGIN
 90
        0
 91
        1
 62
     0
 92
       -2
340
32C
 93
        0
 40
0.045
309
GRIDFORMAT_END
309
TABLEFORMAT_END
  1
CELLSTYLE_BEGIN
 90
        3
 91
        2
300
_DATA
309
CELLSTYLE_END
  0
ENDSEC
  0
EOF
