  0
SECTION
  2
HEADER
  9
$ACADVER
  1
AC1027
  9
$ACADMAINTVER
 70
     8
  9
$DWGCODEPAGE
  3
ANSI_1252
  9
$REQUIREDVERSIONS
160
                 0
  9
$INSBASE
 10
0.0
 20
0.0
 30
0.0
  9
$EXTMIN
 10
1.000000000000000E+20
 20
1.000000000000000E+20
 30
1.000000000000000E+20
  9
$EXTMAX
 10
-1.000000000000000E+20
 20
-1.000000000000000E+20
 30
-1.000000000000000E+20
  9
$LIMMIN
 10
0.0
 20
0.0
  9
$LIMMAX
 10
12.0
 20
9.0
  9
$ORTHOMODE
 70
     0
  9
$REGENMODE
 70
     1
  9
$FILLMODE
 70
     1
  9
$QTEXTMODE
 70
     0
  9
$MIRRTEXT
 70
     1
  9
$LTSCALE
 40
1.0
  9
$ATTMODE
 70
     1
  9
$TEXTSIZE
 40
0.2
  9
$TRACEWID
 40
0.05
  9
$TEXTSTYLE
  7
Standard
  9
$CLAYER
  8
0
  9
$CELTYPE
  6
ByLayer
  9
$CECOLOR
 62
    18
  9
$CELTSCALE
 40
1.0
  9
$DISPSILH
 70
     0
  9
$DIMSCALE
 40
1.0
  9
$DIMASZ
 40
0.125
  9
$DIMEXO
 40
0.03125
  9
$DIMDLI
 40
0.38
  9
$DIMRND
 40
0.0
  9
$DIMDLE
 40
0.0
  9
$DIMEXE
 40
0.0625
  9
$DIMTP
 40
0.0
  9
$DIMTM
 40
0.0
  9
$DIMTXT
 40
0.125
  9
$DIMCEN
 40
0.09
  9
$DIMTSZ
 40
0.0
  9
$DIMTOL
 70
     0
  9
$DIMLIM
 70
     0
  9
$DIMTIH
 70
     1
  9
$DIMTOH
 70
     1
  9
$DIMSE1
 70
     0
  9
$DIMSE2
 70
     0
  9
$DIMTAD
 70
     0
  9
$DIMZIN
 70
     8
  9
$DIMBLK
  1

  9
$DIMASO
 70
     1
  9
$DIMSHO
 70
     1
  9
$DIMPOST
  1

  9
$DIMAPOST
  1

  9
$DIMALT
 70
     0
  9
$DIMALTD
 70
     2
  9
$DIMALTF
 40
25.4
  9
$DIMLFAC
 40
1.0
  9
$DIMTOFL
 70
     0
  9
$DIMTVP
 40
0.0
  9
$DIMTIX
 70
     0
  9
$DIMSOXD
 70
     0
  9
$DIMSAH
 70
     0
  9
$DIMBLK1
  1

  9
$DIMBLK2
  1

  9
$DIMSTYLE
  2
Standard
  9
$DIMCLRD
 70
    18
  9
$DIMCLRE
 70
    18
  9
$DIMCLRT
 70
    18
  9
$DIMTFAC
 40
1.0
  9
$DIMGAP
 40
0.03125
  9
$DIMJUST
 70
     0
  9
$DIMSD1
 70
     0
  9
$DIMSD2
 70
     0
  9
$DIMTOLJ
 70
     1
  9
$DIMTZIN
 70
     0
  9
$DIMALTZ
 70
     0
  9
$DIMALTTZ
 70
     0
  9
$DIMUPT
 70
     0
  9
$DIMDEC
 70
     4
  9
$DIMTDEC
 70
     4
  9
$DIMALTU
 70
     2
  9
$DIMALTTD
 70
     2
  9
$DIMTXSTY
  7
Standard
  9
$DIMAUNIT
 70
     0
  9
$DIMADEC
 70
     0
  9
$DIMALTRND
 40
0.0
  9
$DIMAZIN
 70
     2
  9
$DIMDSEP
 70
    46
  9
$DIMATFIT
 70
     3
  9
$DIMFRAC
 70
     0
  9
$DIMLDRBLK
  1

  9
$DIMLUNIT
 70
     3
  9
$DIMLWD
 70
    -2
  9
$DIMLWE
 70
    -2
  9
$DIMTMOVE
 70
     0
  9
$DIMFXL
 40
1.0
  9
$DIMFXLON
 70
     0
  9
$DIMJOGANG
 40
0.7853981633974483
  9
$DIMTFILL
 70
     0
  9
$DIMTFILLCLR
 70
     0
  9
$DIMARCSYM
 70
     0
  9
$DIMLTYPE
  6

  9
$DIMLTEX1
  6

  9
$DIMLTEX2
  6

  9
$DIMTXTDIRECTION
 70
     0
  9
$LUNITS
 70
     2
  9
$LUPREC
 70
     4
  9
$SKETCHINC
 40
0.1
  9
$FILLETRAD
 40
0.5
  9
$AUNITS
 70
     0
  9
$AUPREC
 70
     0
  9
$MENU
  1
.
  9
$ELEVATION
 40
0.0
  9
$PELEVATION
 40
0.0
  9
$THICKNESS
 40
0.0
  9
$LIMCHECK
 70
     0
  9
$CHAMFERA
 40
0.0
  9
$CHAMFERB
 40
0.0
  9
$CHAMFERC
 40
0.0
  9
$CHAMFERD
 40
0.0
  9
$SKPOLY
 70
     0
  9
$TDCREATE
 40
2457567.486961585
  9
$TDUCREATE
 40
2457567.736961585
  9
$TDUPDATE
 40
2457567.486961863
  9
$TDUUPDATE
 40
2457567.736961863
  9
$TDINDWG
 40
0.0000000116
  9
$TDUSRTIMER
 40
0.0000000116
  9
$USRTIMER
 70
     1
  9
$ANGBASE
 50
0.0
  9
$ANGDIR
 70
     0
  9
$PDMODE
 70
     0
  9
$PDSIZE
 40
0.0
  9
$PLINEWID
 40
0.0
  9
$SPLFRAME
 70
     0
  9
$SPLINETYPE
 70
     6
  9
$SPLINESEGS
 70
     8
  9
$HANDSEED
  5
A3B
  9
$SURFTAB1
 70
     6
  9
$SURFTAB2
 70
     6
  9
$SURFTYPE
 70
     6
  9
$SURFU
 70
     6
  9
$SURFV
 70
     6
  9
$UCSBASE
  2

  9
$UCSNAME
  2

  9
$UCSORG
 10
0.0
 20
0.0
 30
0.0
  9
$UCSXDIR
 10
1.0
 20
0.0
 30
0.0
  9
$UCSYDIR
 10
0.0
 20
1.0
 30
0.0
  9
$UCSORTHOREF
  2

  9
$UCSORTHOVIEW
 70
     0
  9
$UCSORGTOP
 10
0.0
 20
0.0
 30
0.0
  9
$UCSORGBOTTOM
 10
0.0
 20
0.0
 30
0.0
  9
$UCSORGLEFT
 10
0.0
 20
0.0
 30
0.0
  9
$UCSORGRIGHT
 10
0.0
 20
0.0
 30
0.0
  9
$UCSORGFRONT
 10
0.0
 20
0.0
 30
0.0
  9
$UCSORGBACK
 10
0.0
 20
0.0
 30
0.0
  9
$PUCSBASE
  2

  9
$PUCSNAME
  2

  9
$PUCSORG
 10
0.0
 20
0.0
 30
0.0
  9
$PUCSXDIR
 10
1.0
 20
0.0
 30
0.0
  9
$PUCSYDIR
 10
0.0
 20
1.0
 30
0.0
  9
$PUCSORTHOREF
  2

  9
$PUCSORTHOVIEW
 70
     0
  9
$PUCSORGTOP
 10
0.0
 20
0.0
 30
0.0
  9
$PUCSORGBOTTOM
 10
0.0
 20
0.0
 30
0.0
  9
$PUCSORGLEFT
 10
0.0
 20
0.0
 30
0.0
  9
$PUCSORGRIGHT
 10
0.0
 20
0.0
 30
0.0
  9
$PUCSORGFRONT
 10
0.0
 20
0.0
 30
0.0
  9
$PUCSORGBACK
 10
0.0
 20
0.0
 30
0.0
  9
$USERI1
 70
     0
  9
$USERI2
 70
     0
  9
$USERI3
 70
     0
  9
$USERI4
 70
     0
  9
$USERI5
 70
     0
  9
$USERR1
 40
0.0
  9
$USERR2
 40
0.0
  9
$USERR3
 40
0.0
  9
$USERR4
 40
0.0
  9
$USERR5
 40
0.0
  9
$WORLDVIEW
 70
     1
  9
$SHADEDGE
 70
     3
  9
$SHADEDIF
 70
    70
  9
$TILEMODE
 70
     1
  9
$MAXACTVP
 70
     2
  9
$PINSBASE
 10
0.0
 20
0.0
 30
0.0
  9
$PLIMCHECK
 70
     0
  9
$PEXTMIN
 10
1.000000000000000E+20
 20
1.000000000000000E+20
 30
1.000000000000000E+20
  9
$PEXTMAX
 10
-1.000000000000000E+20
 20
-1.000000000000000E+20
 30
-1.000000000000000E+20
  9
$PLIMMIN
 10
0.0
 20
0.0
  9
$PLIMMAX
 10
12.0
 20
9.0
  9
$UNITMODE
 70
     0
  9
$VISRETAIN
 70
     1
  9
$PLINEGEN
 70
     0
  9
$PSLTSCALE
 70
     1
  9
$TREEDEPTH
 70
  3020
  9
$CMLSTYLE
  2
Standard
  9
$CMLJUST
 70
     0
  9
$CMLSCALE
 40
1.0
  9
$PROXYGRAPHICS
 70
     1
  9
$MEASUREMENT
 70
     1
  9
$CELWEIGHT
370
    -1
  9
$ENDCAPS
280
     0
  9
$JOINSTYLE
280
     0
  9
$LWDISPLAY
290
     0
  9
$INSUNITS
 70
     1
  9
$HYPERLINKBASE
  1

  9
$STYLESHEET
  1

  9
$XEDIT
290
     1
  9
$CEPSNTYPE
380
     0
  9
$PSTYLEMODE
290
     1
  9
$FINGERPRINTGUID
  2
{68612EEF-7616-4412-AD1C-54BFCDF3CF63}
  9
$VERSIONGUID
  2
{FAEB1C32-E019-11D5-929B-00C0DF256EC4}
  9
$EXTNAMES
290
     1
  9
$PSVPSCALE
 40
0.0
  9
$OLESTARTUP
290
     0
  9
$SORTENTS
280
   127
  9
$INDEXCTL
280
     0
  9
$HIDETEXT
280
     1
  9
$XCLIPFRAME
280
     2
  9
$HALOGAP
280
     0
  9
$OBSCOLOR
 70
   257
  9
$OBSLTYPE
280
     0
  9
$INTERSECTIONDISPLAY
280
     0
  9
$INTERSECTIONCOLOR
 70
   257
  9
$DIMASSOC
280
     2
  9
$PROJECTNAME
  1

  9
$CAMERADISPLAY
290
     0
  9
$LENSLENGTH
 40
50.0
  9
$CAMERAHEIGHT
 40
0.0
  9
$STEPSPERSEC
 40
2.0
  9
$STEPSIZE
 40
6.0
  9
$3DDWFPREC
 40
2.0
  9
$PSOLWIDTH
 40
0.25
  9
$PSOLHEIGHT
 40
4.0
  9
$LOFTANG1
 40
1.570796326794897
  9
$LOFTANG2
 40
1.570796326794897
  9
$LOFTMAG1
 40
0.0
  9
$LOFTMAG2
 40
0.0
  9
$LOFTPARAM
 70
     7
  9
$LOFTNORMALS
280
     1
  9
$LATITUDE
 40
37.795
  9
$LONGITUDE
 40
-122.394
  9
$NORTHDIRECTION
 40
0.0
  9
$TIMEZONE
 70
 -8000
  9
$LIGHTGLYPHDISPLAY
280
     1
  9
$TILEMODELIGHTSYNCH
280
     1
  9
$CMATERIAL
347
824
  9
$SOLIDHIST
280
     0
  9
$SHOWHIST
280
     1
  9
$DWFFRAME
280
     2
  9
$DGNFRAME
280
     2
  9
$REALWORLDSCALE
290
     1
  9
$INTERFERECOLOR
 62
   256
  9
$CSHADOW
280
     0
  9
$SHADOWPLANELOCATION
 40
0.0
  0
ENDSEC
  0
SECTION
  2
CLASSES
  0
CLASS
  1
ACDBDICTIONARYWDFLT
  2
AcDbDictionaryWithDefault
  3
ObjectDBX Classes
 90
        0
 91
        4
280
     0
281
     0
  0
CLASS
  1
VISUALSTYLE
  2
AcDbVisualStyle
  3
ObjectDBX Classes
 90
     4095
 91
        4
280
     0
281
     0
  0
CLASS
  1
MATERIAL
  2
AcDbMaterial
  3
ObjectDBX Classes
 90
     1153
 91
        4
280
     0
281
     0
  0
CLASS
  1
SCALE
  2
AcDbScale
  3
ObjectDBX Classes
 90
     1153
 91
        4
280
     0
281
     0
  0
CLASS
  1
TABLESTYLE
  2
AcDbTableStyle
  3
ObjectDBX Classes
 90
     4095
 91
        4
280
     0
281
     0
  0
CLASS
  1
MLEADERSTYLE
  2
AcDbMLeaderStyle
  3
ACDB_MLEADERSTYLE_CLASS
 90
     4095
 91
        4
280
     0
281
     0
  0
CLASS
  1
SUN
  2
AcDbSun
  3
SCENEOE
 90
     1153
 91
        4
280
     0
281
     0
  0
CLASS
  1
DICTIONARYVAR
  2
AcDbDictionaryVar
  3
ObjectDBX Classes
 90
        0
 91
        4
280
     0
281
     0
  0
CLASS
  1
CELLSTYLEMAP
  2
AcDbCellStyleMap
  3
ObjectDBX Classes
 90
     1152
 91
        4
280
     0
281
     0
  0
ENDSEC
  0
SECTION
  2
TABLES
  0
TABLE
  2
VPORT
  5
7E9
330
0
100
AcDbSymbolTable
 70
     1
  0
VPORT
  5
809
330
7E9
100
AcDbSymbolTableRecord
100
AcDbViewportTableRecord
  2
*Active
 70
     0
 10
0.0
 20
0.0
 11
1.0
 21
1.0
 12
10.42990654205607
 22
4.5
 13
0.0
 23
0.0
 14
0.5
 24
0.5
 15
0.5
 25
0.5
 16
0.0
 26
0.0
 36
1.0
 17
0.0
 27
0.0
 37
0.0
 40
9.0
 41
1.972972972850329
 42
50.0
 43
0.0
 44
0.0
 50
0.0
 51
0.0
 71
     0
 72
   100
 73
     1
 74
     3
 75
     0
 76
     0
 77
     0
 78
     0
281
     0
 65
     1
110
0.0
120
0.0
130
0.0
111
1.0
121
0.0
131
0.0
112
0.0
122
1.0
132
0.0
 79
     0
146
0.0
 60
     3
 61
     5
292
     1
282
     1
141
0.0
142
0.0
 63
   250
361
84D
  0
ENDTAB
  0
TABLE
  2
LTYPE
  5
7E6
330
0
100
AcDbSymbolTable
 70
    48
  0
LTYPE
  5
7F4
330
7E6
100
AcDbSymbolTableRecord
100
AcDbLinetypeTableRecord
  2
ByBlock
 70
     0
  3

 72
    65
 73
     0
 40
0.0
  0
LTYPE
  5
7F5
330
7E6
100
AcDbSymbolTableRecord
100
AcDbLinetypeTableRecord
  2
ByLayer
 70
     0
  3

 72
    65
 73
     0
 40
0.0
  0
LTYPE
  5
7F6
330
7E6
100
AcDbSymbolTableRecord
100
AcDbLinetypeTableRecord
  2
Continuous
 70
     0
  3
Solid line
 72
    65
 73
     0
 40
0.0
  0
LTYPE
  5
881
330
7E6
100
AcDbSymbolTableRecord
100
AcDbLinetypeTableRecord
  2
DOTX2
 70
     0
  3
Dot (2x) .  .  .  .  .  .  .  .  .  .  .  .  .  .
 72
    65
 73
     2
 40
12.7
 49
0.0
 74
     0
 49
-12.7
 74
     0
  0
LTYPE
  5
883
330
7E6
100
AcDbSymbolTableRecord
100
AcDbLinetypeTableRecord
  2
DRAINAGE
 70
     0
  3
Drainage ---->---->---->----
 72
    65
 73
     2
 40
10.16
 49
5.08
 74
     2
 75
     0
340
882
 46
2.54
 50
180.0
 44
0.0
 45
0.0
  9
RIGHT_ARROW
 49
5.08
 74
     0
  0
LTYPE
  5
885
330
7E6
100
AcDbSymbolTableRecord
100
AcDbLinetypeTableRecord
  2
DRAINAGE2
 70
     0
  3
Drainage reversed----<----<----<----
 72
    65
 73
     2
 40
10.16
 49
5.08
 74
     2
 75
     0
340
884
 46
2.54
 50
0.0
 44
0.0
 45
0.0
  9
RIGHT_ARROW
 49
5.08
 74
     0
  0
LTYPE
  5
886
330
7E6
100
AcDbSymbolTableRecord
100
AcDbLinetypeTableRecord
  2
DIVIDE
 70
     0
  3
Divide ____ . . ____ . . ____ . . ____ . . ____
 72
    65
 73
     6
 40
31.75
 49
12.7
 74
     0
 49
-6.35
 74
     0
 49
0.0
 74
     0
 49
-6.35
 74
     0
 49
0.0
 74
     0
 49
-6.35
 74
     0
  0
LTYPE
  5
887
330
7E6
100
AcDbSymbolTableRecord
100
AcDbLinetypeTableRecord
  2
DIVIDE2
 70
     0
  3
Divide (.5x) __..__..__..__..__..__..__..__.._
 72
    65
 73
     6
 40
15.875
 49
6.35
 74
     0
 49
-3.175
 74
     0
 49
0.0
 74
     0
 49
-3.175
 74
     0
 49
0.0
 74
     0
 49
-3.175
 74
     0
  0
LTYPE
  5
888
330
7E6
100
AcDbSymbolTableRecord
100
AcDbLinetypeTableRecord
  2
DIVIDEX2
 70
     0
  3
Divide (2x) ________  .  .  ________  .  .  _
 72
    65
 73
     6
 40
63.5
 49
25.4
 74
     0
 49
-12.7
 74
     0
 49
0.0
 74
     0
 49
-12.7
 74
     0
 49
0.0
 74
     0
 49
-12.7
 74
     0
  0
LTYPE
  5
889
330
7E6
100
AcDbSymbolTableRecord
100
AcDbLinetypeTableRecord
  2
DOT
 70
     0
  3
Dot . . . . . . . . . . . . . . . . . . . . . . . .
 72
    65
 73
     2
 40
6.35
 49
0.0
 74
     0
 49
-6.35
 74
     0
  0
LTYPE
  5
88A
330
7E6
100
AcDbSymbolTableRecord
100
AcDbLinetypeTableRecord
  2
DASHDOTX2
 70
     0
  3
Dash dot (2x) ____  .  ____  .  ____  .  ___
 72
    65
 73
     4
 40
50.8
 49
25.4
 74
     0
 49
-12.7
 74
     0
 49
0.0
 74
     0
 49
-12.7
 74
     0
  0
LTYPE
  5
88B
330
7E6
100
AcDbSymbolTableRecord
100
AcDbLinetypeTableRecord
  2
DASHED
 70
     0
  3
Dashed __ __ __ __ __ __ __ __ __ __ __ __ __ _
 72
    65
 73
     2
 40
19.05
 49
12.7
 74
     0
 49
-6.35
 74
     0
  0
LTYPE
  5
88C
330
7E6
100
AcDbSymbolTableRecord
100
AcDbLinetypeTableRecord
  2
DASHED2
 70
     0
  3
Dashed (.5x) _ _ _ _ _ _ _ _ _ _ _ _ _ _ _ _ _ 
 72
    65
 73
     2
 40
9.524999999999999
 49
6.35
 74
     0
 49
-3.175
 74
     0
  0
LTYPE
  5
88D
330
7E6
100
AcDbSymbolTableRecord
100
AcDbLinetypeTableRecord
  2
DASHEDX2
 70
     0
  3
Dashed (2x) ____  ____  ____  ____  ____  ___
 72
    65
 73
     2
 40
38.09999999999999
 49
25.4
 74
     0
 49
-12.7
 74
     0
  0
LTYPE
  5
88E
330
7E6
100
AcDbSymbolTableRecord
100
AcDbLinetypeTableRecord
  2
CENTER2
 70
     0
  3
Center (.5x) ___ _ ___ _ ___ _ ___ _ ___ _ ___
 72
    65
 73
     4
 40
28.575
 49
19.05
 74
     0
 49
-3.175
 74
     0
 49
3.175
 74
     0
 49
-3.175
 74
     0
  0
LTYPE
  5
88F
330
7E6
100
AcDbSymbolTableRecord
100
AcDbLinetypeTableRecord
  2
CENTERX2
 70
     0
  3
Center (2x) ________  __  ________  __  _____
 72
    65
 73
     4
 40
101.6
 49
63.5
 74
     0
 49
-12.7
 74
     0
 49
12.7
 74
     0
 49
-12.7
 74
     0
  0
LTYPE
  5
890
330
7E6
100
AcDbSymbolTableRecord
100
AcDbLinetypeTableRecord
  2
DASHDOT
 70
     0
  3
Dash dot __ . __ . __ . __ . __ . __ . __ . __
 72
    65
 73
     4
 40
25.4
 49
12.7
 74
     0
 49
-6.35
 74
     0
 49
0.0
 74
     0
 49
-6.35
 74
     0
  0
LTYPE
  5
891
330
7E6
100
AcDbSymbolTableRecord
100
AcDbLinetypeTableRecord
  2
DASHDOT2
 70
     0
  3
Dash dot (.5x) _._._._._._._._._._._._._._._.
 72
    65
 73
     4
 40
12.7
 49
6.35
 74
     0
 49
-3.175
 74
     0
 49
0.0
 74
     0
 49
-3.175
 74
     0
  0
LTYPE
  5
892
330
7E6
100
AcDbSymbolTableRecord
100
AcDbLinetypeTableRecord
  2
BORDER
 70
     0
  3
Border __ __ . __ __ . __ __ . __ __ . __ __ .
 72
    65
 73
     6
 40
44.45
 49
12.7
 74
     0
 49
-6.35
 74
     0
 49
12.7
 74
     0
 49
-6.35
 74
     0
 49
0.0
 74
     0
 49
-6.35
 74
     0
  0
LTYPE
  5
893
330
7E6
100
AcDbSymbolTableRecord
100
AcDbLinetypeTableRecord
  2
BORDER2
 70
     0
  3
Border (.5x) __.__.__.__.__.__.__.__.__.__.__.
 72
    65
 73
     6
 40
22.225
 49
6.35
 74
     0
 49
-3.175
 74
     0
 49
6.35
 74
     0
 49
-3.175
 74
     0
 49
0.0
 74
     0
 49
-3.175
 74
     0
  0
LTYPE
  5
894
330
7E6
100
AcDbSymbolTableRecord
100
AcDbLinetypeTableRecord
  2
BORDERX2
 70
     0
  3
Border (2x) ____  ____  .  ____  ____  .  ___
 72
    65
 73
     6
 40
88.89999999999999
 49
25.4
 74
     0
 49
-12.7
 74
     0
 49
25.4
 74
     0
 49
-12.7
 74
     0
 49
0.0
 74
     0
 49
-12.7
 74
     0
  0
LTYPE
  5
895
330
7E6
100
AcDbSymbolTableRecord
100
AcDbLinetypeTableRecord
  2
CENTER
 70
     0
  3
Center ____ _ ____ _ ____ _ ____ _ ____ _ ____
 72
    65
 73
     4
 40
50.8
 49
31.75
 74
     0
 49
-6.35
 74
     0
 49
6.35
 74
     0
 49
-6.35
 74
     0
  0
LTYPE
  5
896
330
7E6
100
AcDbSymbolTableRecord
100
AcDbLinetypeTableRecord
  2
ACAD_ISO13W100
 70
     0
  3
ISO double-dash double-dot __ __ . . __ __ . . _
 72
    65
 73
     8
 40
36.0
 49
12.0
 74
     0
 49
-3.0
 74
     0
 49
12.0
 74
     0
 49
-3.0
 74
     0
 49
0.0
 74
     0
 49
-3.0
 74
     0
 49
0.0
 74
     0
 49
-3.0
 74
     0
  0
LTYPE
  5
897
330
7E6
100
AcDbSymbolTableRecord
100
AcDbLinetypeTableRecord
  2
ACAD_ISO14W100
 70
     0
  3
ISO dash triple-dot __ . . . __ . . . __ . . . _
 72
    65
 73
     8
 40
24.0
 49
12.0
 74
     0
 49
-3.0
 74
     0
 49
0.0
 74
     0
 49
-3.0
 74
     0
 49
0.0
 74
     0
 49
-3.0
 74
     0
 49
0.0
 74
     0
 49
-3.0
 74
     0
  0
LTYPE
  5
898
330
7E6
100
AcDbSymbolTableRecord
100
AcDbLinetypeTableRecord
  2
ACAD_ISO15W100
 70
     0
  3
ISO double-dash triple-dot __ __ . . . __ __ . .
 72
    65
 73
    10
 40
39.0
 49
12.0
 74
     0
 49
-3.0
 74
     0
 49
12.0
 74
     0
 49
-3.0
 74
     0
 49
0.0
 74
     0
 49
-3.0
 74
     0
 49
0.0
 74
     0
 49
-3.0
 74
     0
 49
0.0
 74
     0
 49
-3.0
 74
     0
  0
LTYPE
  5
89B
330
7E6
100
AcDbSymbolTableRecord
100
AcDbLinetypeTableRecord
  2
BATTING
 70
     0
  3
Batting SSSSSSSSSSSSSSSSSSSSSSSSSSSSSSSSSSSSSSSSSSSSSSS
 72
    65
 73
     4
 40
10.16254
 49
0.00254
 74
     0
 49
-2.54
 74
     2
 75
     0
340
899
 46
2.54
 50
0.0
 44
-2.54
 45
0.0
  9
BAT
 49
-5.08
 74
     2
 75
     0
340
89A
 46
2.54
 50
180.0
 44
2.54
 45
0.0
  9
BAT
 49
-2.54
 74
     0
  0
LTYPE
  5
89C
330
7E6
100
AcDbSymbolTableRecord
100
AcDbLinetypeTableRecord
  2
ACAD_ISO09W100
 70
     0
  3
ISO long-dash double-short-dash ____ __ __ ____
 72
    65
 73
     6
 40
45.0
 49
24.0
 74
     0
 49
-3.0
 74
     0
 49
6.0
 74
     0
 49
-3.0
 74
     0
 49
6.0
 74
     0
 49
-3.0
 74
     0
  0
LTYPE
  5
89D
330
7E6
100
AcDbSymbolTableRecord
100
AcDbLinetypeTableRecord
  2
ACAD_ISO10W100
 70
     0
  3
ISO dash dot __ . __ . __ . __ . __ . __ . __ . 
 72
    65
 73
     4
 40
18.0
 49
12.0
 74
     0
 49
-3.0
 74
     0
 49
0.0
 74
     0
 49
-3.0
 74
     0
  0
LTYPE
  5
89E
330
7E6
100
AcDbSymbolTableRecord
100
AcDbLinetypeTableRecord
  2
ACAD_ISO11W100
 70
     0
  3
ISO double-dash dot __ __ . __ __ . __ __ . __ _
 72
    65
 73
     6
 40
33.0
 49
12.0
 74
     0
 49
-3.0
 74
     0
 49
12.0
 74
     0
 49
-3.0
 74
     0
 49
0.0
 74
     0
 49
-3.0
 74
     0
  0
LTYPE
  5
89F
330
7E6
100
AcDbSymbolTableRecord
100
AcDbLinetypeTableRecord
  2
ACAD_ISO12W100
 70
     0
  3
ISO dash double-dot __ . . __ . . __ . . __ . . 
 72
    65
 73
     6
 40
21.0
 49
12.0
 74
     0
 49
-3.0
 74
     0
 49
0.0
 74
     0
 49
-3.0
 74
     0
 49
0.0
 74
     0
 49
-3.0
 74
     0
  0
LTYPE
  5
8A0
330
7E6
100
AcDbSymbolTableRecord
100
AcDbLinetypeTableRecord
  2
ACAD_ISO05W100
 70
     0
  3
ISO long-dash double-dot ____ .. ____ .. ____ . 
 72
    65
 73
     6
 40
33.0
 49
24.0
 74
     0
 49
-3.0
 74
     0
 49
0.0
 74
     0
 49
-3.0
 74
     0
 49
0.0
 74
     0
 49
-3.0
 74
     0
  0
LTYPE
  5
8A1
330
7E6
100
AcDbSymbolTableRecord
100
AcDbLinetypeTableRecord
  2
ACAD_ISO06W100
 70
     0
  3
ISO long-dash triple-dot ____ ... ____ ... ____
 72
    65
 73
     8
 40
36.0
 49
24.0
 74
     0
 49
-3.0
 74
     0
 49
0.0
 74
     0
 49
-3.0
 74
     0
 49
0.0
 74
     0
 49
-3.0
 74
     0
 49
0.0
 74
     0
 49
-3.0
 74
     0
  0
LTYPE
  5
8A2
330
7E6
100
AcDbSymbolTableRecord
100
AcDbLinetypeTableRecord
  2
ACAD_ISO07W100
 70
     0
  3
ISO dot . . . . . . . . . . . . . . . . . . . . 
 72
    65
 73
     2
 40
3.0
 49
0.0
 74
     0
 49
-3.0
 74
     0
  0
LTYPE
  5
8A3
330
7E6
100
AcDbSymbolTableRecord
100
AcDbLinetypeTableRecord
  2
ACAD_ISO08W100
 70
     0
  3
ISO long-dash short-dash ____ __ ____ __ ____ _
 72
    65
 73
     4
 40
36.0
 49
24.0
 74
     0
 49
-3.0
 74
     0
 49
6.0
 74
     0
 49
-3.0
 74
     0
  0
LTYPE
  5
8A4
330
7E6
100
AcDbSymbolTableRecord
100
AcDbLinetypeTableRecord
  2
ACAD_ISO02W100
 70
     0
  3
ISO dash __ __ __ __ __ __ __ __ __ __ __ __ __
 72
    65
 73
     2
 40
15.0
 49
12.0
 74
     0
 49
-3.0
 74
     0
  0
LTYPE
  5
8A5
330
7E6
100
AcDbSymbolTableRecord
100
AcDbLinetypeTableRecord
  2
ACAD_ISO03W100
 70
     0
  3
ISO dash space __    __    __    __    __    __
 72
    65
 73
     2
 40
30.0
 49
12.0
 74
     0
 49
-18.0
 74
     0
  0
LTYPE
  5
8A6
330
7E6
100
AcDbSymbolTableRecord
100
AcDbLinetypeTableRecord
  2
ACAD_ISO04W100
 70
     0
  3
ISO long-dash dot ____ . ____ . ____ . ____ . _
 72
    65
 73
     4
 40
30.0
 49
24.0
 74
     0
 49
-3.0
 74
     0
 49
0.0
 74
     0
 49
-3.0
 74
     0
  0
LTYPE
  5
8A7
330
7E6
100
AcDbSymbolTableRecord
100
AcDbLinetypeTableRecord
  2
PHANTOM2
 70
     0
  3
Phantom (.5x) ___ _ _ ___ _ _ ___ _ _ ___ _ _
 72
    65
 73
     6
 40
31.75
 49
15.875
 74
     0
 49
-3.175
 74
     0
 49
3.175
 74
     0
 49
-3.175
 74
     0
 49
3.175
 74
     0
 49
-3.175
 74
     0
  0
LTYPE
  5
8A8
330
7E6
100
AcDbSymbolTableRecord
100
AcDbLinetypeTableRecord
  2
PHANTOMX2
 70
     0
  3
Phantom (2x) ____________    ____    ____   _
 72
    65
 73
     6
 40
127.0
 49
63.5
 74
     0
 49
-12.7
 74
     0
 49
12.7
 74
     0
 49
-12.7
 74
     0
 49
12.7
 74
     0
 49
-12.7
 74
     0
  0
LTYPE
  5
8AA
330
7E6
100
AcDbSymbolTableRecord
100
AcDbLinetypeTableRecord
  2
TRACKS
 70
     0
  3
Tracks -|-|-|-|-|-|-|-|-|-|-|-|-|-|-|-|-|-|-|-|-|-|-|-|-
 72
    65
 73
     2
 40
7.62
 49
3.81
 74
     2
 75
     0
340
8A9
 46
6.35
 50
0.0
 44
0.0
 45
0.0
  9
TRACK1
 49
3.81
 74
     0
  0
LTYPE
  5
8AD
330
7E6
100
AcDbSymbolTableRecord
100
AcDbLinetypeTableRecord
  2
ZIGZAG
 70
     0
  3
Zig zag /\/\/\/\/\/\/\/\/\/\/\/\/\/\/\/\/\/\/\/\/\/\/\/
 72
    65
 73
     4
 40
20.32254
 49
0.00254
 74
     0
 49
-5.08
 74
     2
 75
     0
340
8AB
 46
5.08
 50
0.0
 44
-5.08
 45
0.0
  9
ZIG
 49
-10.16
 74
     2
 75
     0
340
8AC
 46
5.08
 50
180.0
 44
5.08
 45
0.0
  9
ZIG
 49
-5.08
 74
     0
  0
LTYPE
  5
8AE
330
7E6
100
AcDbSymbolTableRecord
100
AcDbLinetypeTableRecord
  2
HIDDEN2
 70
     0
  3
Hidden (.5x) _ _ _ _ _ _ _ _ _ _ _ _ _ _ _ _ _ 
 72
    65
 73
     2
 40
4.762499999999999
 49
3.175
 74
     0
 49
-1.5875
 74
     0
  0
LTYPE
  5
8AF
330
7E6
100
AcDbSymbolTableRecord
100
AcDbLinetypeTableRecord
  2
HIDDENX2
 70
     0
  3
Hidden (2x) ____ ____ ____ ____ ____ ____ ____ 
 72
    65
 73
     2
 40
19.05
 49
12.7
 74
     0
 49
-6.35
 74
     0
  0
LTYPE
  5
8B1
330
7E6
100
AcDbSymbolTableRecord
100
AcDbLinetypeTableRecord
  2
HOT_WATER_SUPPLY
 70
     0
  3
Hot water supply ---- HW ---- HW ---- HW ----
 72
    65
 73
     3
 40
22.86
 49
12.7
 74
     0
 49
-5.08
 74
     2
 75
     0
340
8B0
 46
2.54
 50
0.0
 44
-2.54
 45
-1.27
  9
HW
 49
-5.08
 74
     0
  0
LTYPE
  5
8B2
330
7E6
100
AcDbSymbolTableRecord
100
AcDbLinetypeTableRecord
  2
PHANTOM
 70
     0
  3
Phantom ______  __  __  ______  __  __  ______ 
 72
    65
 73
     6
 40
63.50000000000001
 49
31.75
 74
     0
 49
-6.35
 74
     0
 49
6.35
 74
     0
 49
-6.35
 74
     0
 49
6.35
 74
     0
 49
-6.35
 74
     0
  0
LTYPE
  5
8B4
330
7E6
100
AcDbSymbolTableRecord
100
AcDbLinetypeTableRecord
  2
FENCELINE1
 70
     0
  3
Fenceline circle ----0-----0----0-----0----0-----0--
 72
    65
 73
     4
 40
36.83
 49
6.35
 74
     0
 49
-2.54
 74
     2
 75
     0
340
8B3
 46
2.54
 50
0.0
 44
-2.54
 45
0.0
  9
CIRC1
 49
-2.54
 74
     0
 49
25.4
 74
     0
  0
LTYPE
  5
8B6
330
7E6
100
AcDbSymbolTableRecord
100
AcDbLinetypeTableRecord
  2
FENCELINE2
 70
     0
  3
Fenceline square ----[]-----[]----[]-----[]----[]---
 72
    65
 73
     4
 40
36.83
 49
6.35
 74
     0
 49
-2.54
 74
     2
 75
     0
340
8B5
 46
2.54
 50
0.0
 44
-2.54
 45
0.0
  9
BOX
 49
-2.54
 74
     0
 49
25.4
 74
     0
  0
LTYPE
  5
8B8
330
7E6
100
AcDbSymbolTableRecord
100
AcDbLinetypeTableRecord
  2
GAS_LINE
 70
     0
  3
Gas line ----GAS----GAS----GAS----GAS----GAS----GAS--
 72
    65
 73
     3
 40
24.13
 49
12.7
 74
     0
 49
-5.08
 74
     2
 75
     0
340
8B7
 46
2.54
 50
0.0
 44
-2.54
 45
-1.27
  9
GAS
 49
-6.35
 74
     0
  0
LTYPE
  5
8B9
330
7E6
100
AcDbSymbolTableRecord
100
AcDbLinetypeTableRecord
  2
HIDDEN
 70
     0
  3
Hidden __ __ __ __ __ __ __ __ __ __ __ __ __ __
 72
    65
 73
     2
 40
9.524999999999999
 49
6.35
 74
     0
 49
-3.175
 74
     0
  0
LTYPE
  5
8BA
330
7E6
100
AcDbSymbolTableRecord
100
AcDbLinetypeTableRecord
  2
DOT2
 70
     0
  3
Dot (.5x) ........................................
 72
    65
 73
     2
 40
3.175
 49
0.0
 74
     0
 49
-3.175
 74
     0
  0
ENDTAB
  0
TABLE
  2
LAYER
  5
7E3
330
0
100
AcDbSymbolTable
 70
     9
  0
LAYER
  5
7F1
330
7E3
100
AcDbSymbolTableRecord
100
AcDbLayerTableRecord
  2
0
 70
     0
 62
     7
420
 16777215
  6
Continuous
370
    25
390
7F0
347
826
348
0
  0
LAYER
  5
8BB
330
7E3
100
AcDbSymbolTableRecord
100
AcDbLayerTableRecord
  2
FinishedTarp
 70
     0
 62
     5
420
      255
  6
Continuous
370
    25
390
7F0
347
826
348
0
  0
LAYER
  5
8BC
330
7E3
100
AcDbSymbolTableRecord
100
AcDbLayerTableRecord
  2
Dimensions
 70
     0
 62
    30
420
 16744192
  6
Continuous
370
    25
390
7F0
347
826
348
0
  0
LAYER
  5
8BD
330
7E3
100
AcDbSymbolTableRecord
100
AcDbLayerTableRecord
  2
Labels
 70
     0
 62
     4
420
    65535
  6
Continuous
370
    25
390
7F0
347
826
348
0
  0
LAYER
  5
8BE
330
7E3
100
AcDbSymbolTableRecord
100
AcDbLayerTableRecord
  2
Reinforcements
 70
     0
 62
     2
420
 16776960
  6
Continuous
370
    25
390
7F0
347
826
348
0
  0
LAYER
  5
8BF
330
7E3
100
AcDbSymbolTableRecord
100
AcDbLayerTableRecord
  2
FinishedBag
 70
     0
 62
     3
420
    65280
  6
Continuous
370
    25
390
7F0
347
826
348
0
  0
LAYER
  5
8C0
330
7E3
100
AcDbSymbolTableRecord
100
AcDbLayerTableRecord
  2
CutSize
 70
     0
 62
     1
420
 16711680
  6
Continuous
370
    25
390
7F0
347
826
348
0
  0
LAYER
  5
8C1
330
7E3
100
AcDbSymbolTableRecord
100
AcDbLayerTableRecord
  2
Defpoints
 70
     0
 62
     7
420
 16777215
  6
Continuous
290
     0
370
    -3
390
7F0
347
826
348
0
  0
LAYER
  5
8C2
330
7E3
100
AcDbSymbolTableRecord
100
AcDbLayerTableRecord
  2
BagCutSize
 70
     0
 62
     6
420
 16711935
  6
Continuous
370
    25
390
7F0
347
826
348
0
  0
ENDTAB
  0
TABLE
  2
STYLE
  5
7E4
330
0
100
AcDbSymbolTable
 70
    22
  0
STYLE
  5
7F2
330
7E4
100
AcDbSymbolTableRecord
100
AcDbTextStyleTableRecord
  2
Standard
 70
     0
 40
0.0
 41
1.0
 50
0.0
 71
     0
 42
0.2
  3
txt
  4

  0
STYLE
  5
87F
330
7E4
100
AcDbSymbolTableRecord
100
AcDbTextStyleTableRecord
  2
QCADDimTextStyle
 70
     0
 40
0.0
 41
1.0
 50
0.0
 71
     0
 42
0.2
  3

  4

  0
STYLE
  5
882
330
7E4
100
AcDbSymbolTableRecord
100
AcDbTextStyleTableRecord
  2
textstyle0
 70
     0
 40
0.0
 41
1.0
 50
0.0
 71
     0
 42
0.2
  3
qcadshp.shx
  4

  0
STYLE
  5
884
330
7E4
100
AcDbSymbolTableRecord
100
AcDbTextStyleTableRecord
  2
textstyle1
 70
     0
 40
0.0
 41
1.0
 50
0.0
 71
     0
 42
0.2
  3
qcadshp.shx
  4

  0
STYLE
  5
899
330
7E4
100
AcDbSymbolTableRecord
100
AcDbTextStyleTableRecord
  2
textstyle2
 70
     0
 40
0.0
 41
1.0
 50
0.0
 71
     0
 42
0.2
  3
ltypeshp.shx
  4

  0
STYLE
  5
89A
330
7E4
100
AcDbSymbolTableRecord
100
AcDbTextStyleTableRecord
  2
textstyle3
 70
     0
 40
0.0
 41
1.0
 50
0.0
 71
     0
 42
0.2
  3
ltypeshp.shx
  4

  0
STYLE
  5
8A9
330
7E4
100
AcDbSymbolTableRecord
100
AcDbTextStyleTableRecord
  2
textstyle4
 70
     0
 40
0.0
 41
1.0
 50
0.0
 71
     0
 42
0.2
  3
ltypeshp.shx
  4

  0
STYLE
  5
8AB
330
7E4
100
AcDbSymbolTableRecord
100
AcDbTextStyleTableRecord
  2
textstyle5
 70
     0
 40
0.0
 41
1.0
 50
0.0
 71
     0
 42
0.2
  3
ltypeshp.shx
  4

  0
STYLE
  5
8AC
330
7E4
100
AcDbSymbolTableRecord
100
AcDbTextStyleTableRecord
  2
textstyle6
 70
     0
 40
0.0
 41
1.0
 50
0.0
 71
     0
 42
0.2
  3
ltypeshp.shx
  4

  0
STYLE
  5
8B0
330
7E4
100
AcDbSymbolTableRecord
100
AcDbTextStyleTableRecord
  2
textstyle7
 70
     0
 40
0.0
 41
1.0
 50
0.0
 71
     0
 42
0.2
  3
STANDARD
  4

  0
STYLE
  5
8B3
330
7E4
100
AcDbSymbolTableRecord
100
AcDbTextStyleTableRecord
  2
textstyle8
 70
     0
 40
0.0
 41
1.0
 50
0.0
 71
     0
 42
0.2
  3
ltypeshp.shx
  4

  0
STYLE
  5
8B5
330
7E4
100
AcDbSymbolTableRecord
100
AcDbTextStyleTableRecord
  2
textstyle9
 70
     0
 40
0.0
 41
1.0
 50
0.0
 71
     0
 42
0.2
  3
ltypeshp.shx
  4

  0
STYLE
  5
8B7
330
7E4
100
AcDbSymbolTableRecord
100
AcDbTextStyleTableRecord
  2
textstyle10
 70
     0
 40
0.0
 41
1.0
 50
0.0
 71
     0
 42
0.2
  3
STANDARD
  4

  0
STYLE
  5
8C3
330
7E4
100
AcDbSymbolTableRecord
100
AcDbTextStyleTableRecord
  2
textstyle11
 70
     0
 40
0.0
 41
1.0
 50
0.0
 71
     0
 42
0.2
  3
Standard
  4

1001
ACAD
1000
Standard
1071
        0
  0
STYLE
  5
8C4
330
7E4
100
AcDbSymbolTableRecord
100
AcDbTextStyleTableRecord
  2
textstyle12
 70
     0
 40
0.0
 41
1.0
 50
0.0
 71
     0
 42
0.2
  3
Standard
  4

1001
ACAD
1000
Standard
1071
        0
  0
STYLE
  5
8C5
330
7E4
100
AcDbSymbolTableRecord
100
AcDbTextStyleTableRecord
  2
textstyle13
 70
     0
 40
0.0
 41
1.0
 50
0.0
 71
     0
 42
0.2
  3
Standard
  4

1001
ACAD
1000
Standard
1071
        0
  0
STYLE
  5
8C6
330
7E4
100
AcDbSymbolTableRecord
100
AcDbTextStyleTableRecord
  2
textstyle14
 70
     0
 40
0.0
 41
1.0
 50
0.0
 71
     0
 42
0.2
  3
Standard
  4

1001
ACAD
1000
Standard
1071
        0
  0
STYLE
  5
8C7
330
7E4
100
AcDbSymbolTableRecord
100
AcDbTextStyleTableRecord
  2
textstyle15
 70
     0
 40
0.0
 41
1.0
 50
0.0
 71
     0
 42
0.2
  3
Standard
  4

1001
ACAD
1000
Standard
1071
        0
  0
STYLE
  5
8C8
330
7E4
100
AcDbSymbolTableRecord
100
AcDbTextStyleTableRecord
  2
textstyle16
 70
     0
 40
0.0
 41
1.0
 50
0.0
 71
     0
 42
0.2
  3
Standard
  4

1001
ACAD
1000
Standard
1071
        0
  0
STYLE
  5
8C9
330
7E4
100
AcDbSymbolTableRecord
100
AcDbTextStyleTableRecord
  2
textstyle17
 70
     0
 40
0.0
 41
1.0
 50
0.0
 71
     0
 42
0.2
  3
Standard
  4

1001
ACAD
1000
Standard
1071
        0
  0
STYLE
  5
8CA
330
7E4
100
AcDbSymbolTableRecord
100
AcDbTextStyleTableRecord
  2
textstyle18
 70
     0
 40
0.0
 41
1.0
 50
0.0
 71
     0
 42
0.2
  3
Standard
  4

1001
ACAD
1000
Standard
1071
        0
  0
STYLE
  5
8CB
330
7E4
100
AcDbSymbolTableRecord
100
AcDbTextStyleTableRecord
  2
textstyle19
 70
     0
 40
0.0
 41
1.0
 50
0.0
 71
     0
 42
0.2
  3
Standard
  4

1001
ACAD
1000
Standard
1071
        0
  0
ENDTAB
  0
TABLE
  2
VIEW
  5
7E7
330
0
100
AcDbSymbolTable
 70
     0
  0
ENDTAB
  0
TABLE
  2
UCS
  5
7E8
330
0
100
AcDbSymbolTable
 70
     0
  0
ENDTAB
  0
TABLE
  2
APPID
  5
7EA
330
0
100
AcDbSymbolTable
 70
     2
  0
APPID
  5
7F3
330
7EA
100
AcDbSymbolTableRecord
100
AcDbRegAppTableRecord
  2
ACAD
 70
     0
  0
APPID
  5
84E
330
7EA
100
AcDbSymbolTableRecord
100
AcDbRegAppTableRecord
  2
QCAD
 70
     0
  0
ENDTAB
  0
TABLE
  2
DIMSTYLE
  5
7EB
330
0
100
AcDbSymbolTable
 70
     2
100
AcDbDimStyleTable
  0
DIMSTYLE
105
807
330
7EB
100
AcDbSymbolTableRecord
100
AcDbDimStyleTableRecord
  2
Standard
 70
     0
178
     0
340
7F2
  0
DIMSTYLE
105
880
102
{ACAD_REACTORS
330
6E8
330
6E9
330
6EA
330
6F0
330
6F1
330
6EB
330
200
330
201
330
202
330
204
330
205
330
206
330
207
330
208
330
209
330
20A
330
20B
330
20D
330
20E
330
20F
330
210
330
211
330
212
330
227
330
229
330
22A
330
22B
330
22C
330
22D
102
}
330
7EB
100
AcDbSymbolTableRecord
100
AcDbDimStyleTableRecord
  2
QCADDimStyle
 70
     0
 41
0.125
 42
0.03125
 44
0.0625
 73
     0
 77
     1
140
0.125
147
0.03125
178
     0
340
87F
  0
ENDTAB
  0
TABLE
  2
BLOCK_RECORD
  5
7E2
330
0
100
AcDbSymbolTable
 70
    30
  0
BLOCK_RECORD
  5
7FF
330
7E2
100
AcDbSymbolTableRecord
100
AcDbBlockTableRecord
  2
*Model_Space
340
802
 70
     0
280
     1
281
     0
  0
BLOCK_RECORD
  5
7FB
330
7E2
100
AcDbSymbolTableRecord
100
AcDbBlockTableRecord
  2
*Paper_Space
340
7FE
 70
     0
280
     1
281
     0
  0
BLOCK_RECORD
  5
803
330
7E2
100
AcDbSymbolTableRecord
100
AcDbBlockTableRecord
  2
*Paper_Space0
340
806
 70
     0
280
     1
281
     0
  0
BLOCK_RECORD
  5
8CC
330
7E2
100
AcDbSymbolTableRecord
100
AcDbBlockTableRecord
  2
*D1
340
0
 70
     0
280
     1
281
     0
  0
BLOCK_RECORD
  5
8D8
330
7E2
100
AcDbSymbolTableRecord
100
AcDbBlockTableRecord
  2
*D2
340
0
 70
     0
280
     1
281
     0
  0
BLOCK_RECORD
  5
8E4
330
7E2
100
AcDbSymbolTableRecord
100
AcDbBlockTableRecord
  2
*D3
340
0
 70
     0
280
     1
281
     0
  0
BLOCK_RECORD
  5
8F0
330
7E2
100
AcDbSymbolTableRecord
100
AcDbBlockTableRecord
  2
*D4
340
0
 70
     0
280
     1
281
     0
  0
BLOCK_RECORD
  5
8FC
330
7E2
100
AcDbSymbolTableRecord
100
AcDbBlockTableRecord
  2
*D5
340
0
 70
     0
280
     1
281
     0
  0
BLOCK_RECORD
  5
908
330
7E2
100
AcDbSymbolTableRecord
100
AcDbBlockTableRecord
  2
*D6
340
0
 70
     0
280
     1
281
     0
  0
BLOCK_RECORD
  5
913
330
7E2
100
AcDbSymbolTableRecord
100
AcDbBlockTableRecord
  2
*D7
340
0
 70
     0
280
     1
281
     0
  0
BLOCK_RECORD
  5
920
330
7E2
100
AcDbSymbolTableRecord
100
AcDbBlockTableRecord
  2
*D8
340
0
 70
     0
280
     1
281
     0
  0
BLOCK_RECORD
  5
92D
330
7E2
100
AcDbSymbolTableRecord
100
AcDbBlockTableRecord
  2
*D9
340
0
 70
     0
280
     1
281
     0
  0
BLOCK_RECORD
  5
93A
330
7E2
100
AcDbSymbolTableRecord
100
AcDbBlockTableRecord
  2
*D10
340
0
 70
     0
280
     1
281
     0
  0
BLOCK_RECORD
  5
947
330
7E2
100
AcDbSymbolTableRecord
100
AcDbBlockTableRecord
  2
*D11
340
0
 70
     0
280
     1
281
     0
  0
BLOCK_RECORD
  5
954
330
7E2
100
AcDbSymbolTableRecord
100
AcDbBlockTableRecord
  2
*D12
340
0
 70
     0
280
     1
281
     0
  0
BLOCK_RECORD
  5
961
330
7E2
100
AcDbSymbolTableRecord
100
AcDbBlockTableRecord
  2
*D13
340
0
 70
     0
280
     1
281
     0
  0
BLOCK_RECORD
  5
96E
330
7E2
100
AcDbSymbolTableRecord
100
AcDbBlockTableRecord
  2
*D14
340
0
 70
     0
280
     1
281
     0
  0
BLOCK_RECORD
  5
97B
330
7E2
100
AcDbSymbolTableRecord
100
AcDbBlockTableRecord
  2
*D15
340
0
 70
     0
280
     1
281
     0
  0
BLOCK_RECORD
  5
988
330
7E2
100
AcDbSymbolTableRecord
100
AcDbBlockTableRecord
  2
*D16
340
0
 70
     0
280
     1
281
     0
  0
BLOCK_RECORD
  5
995
330
7E2
100
AcDbSymbolTableRecord
100
AcDbBlockTableRecord
  2
*D17
340
0
 70
     0
280
     1
281
     0
  0
BLOCK_RECORD
  5
9A2
330
7E2
100
AcDbSymbolTableRecord
100
AcDbBlockTableRecord
  2
*D18
340
0
 70
     0
280
     1
281
     0
  0
BLOCK_RECORD
  5
9AF
330
7E2
100
AcDbSymbolTableRecord
100
AcDbBlockTableRecord
  2
*D19
340
0
 70
     0
280
     1
281
     0
  0
BLOCK_RECORD
  5
9BC
330
7E2
100
AcDbSymbolTableRecord
100
AcDbBlockTableRecord
  2
*D20
340
0
 70
     0
280
     1
281
     0
  0
BLOCK_RECORD
  5
9C9
330
7E2
100
AcDbSymbolTableRecord
100
AcDbBlockTableRecord
  2
*D21
340
0
 70
     0
280
     1
281
     0
  0
BLOCK_RECORD
  5
9D6
330
7E2
100
AcDbSymbolTableRecord
100
AcDbBlockTableRecord
  2
*D22
340
0
 70
     0
280
     1
281
     0
  0
BLOCK_RECORD
  5
9E3
330
7E2
100
AcDbSymbolTableRecord
100
AcDbBlockTableRecord
  2
*D23
340
0
 70
     0
280
     1
281
     0
  0
BLOCK_RECORD
  5
9F0
330
7E2
100
AcDbSymbolTableRecord
100
AcDbBlockTableRecord
  2
*D24
340
0
 70
     0
280
     1
281
     0
  0
BLOCK_RECORD
  5
9FB
330
7E2
100
AcDbSymbolTableRecord
100
AcDbBlockTableRecord
  2
*D25
340
0
 70
     0
280
     1
281
     0
  0
BLOCK_RECORD
  5
A06
330
7E2
100
AcDbSymbolTableRecord
100
AcDbBlockTableRecord
  2
*D26
340
0
 70
     0
280
     1
281
     0
  0
BLOCK_RECORD
  5
A11
330
7E2
100
AcDbSymbolTableRecord
100
AcDbBlockTableRecord
  2
*D27
340
0
 70
     0
280
     1
281
     0
  0
BLOCK_RECORD
  5
A1C
330
7E2
100
AcDbSymbolTableRecord
100
AcDbBlockTableRecord
  2
*D28
340
0
 70
     0
280
     1
281
     0
  0
BLOCK_RECORD
  5
A27
330
7E2
100
AcDbSymbolTableRecord
100
AcDbBlockTableRecord
  2
*D29
340
0
 70
     0
280
     1
281
     0
  0
ENDTAB
  0
ENDSEC
  0
SECTION
  2
BLOCKS
  0
BLOCK
  5
800
330
7FF
100
AcDbEntity
  8
0
100
AcDbBlockBegin
  2
*Model_Space
 70
     0
 10
0.0
 20
0.0
 30
0.0
  3
*Model_Space
  1
*Model_Space
  0
ENDBLK
  5
801
330
7FF
100
AcDbEntity
  8
0
100
AcDbBlockEnd
  0
BLOCK
  5
7FC
330
7FB
100
AcDbEntity
 67
     1
  8
0
100
AcDbBlockBegin
  2
*Paper_Space
 70
     0
 10
0.0
 20
0.0
 30
0.0
  3
*Paper_Space
  1
*Paper_Space
  0
ENDBLK
  5
7FD
330
7FB
100
AcDbEntity
 67
     1
  8
0
100
AcDbBlockEnd
  0
BLOCK
  5
804
330
803
100
AcDbEntity
  8
0
100
AcDbBlockBegin
  2
*Paper_Space0
 70
     0
 10
0.0
 20
0.0
 30
0.0
  3
*Paper_Space0
  1
*Paper_Space0
  0
ENDBLK
  5
805
330
803
100
AcDbEntity
  8
0
100
AcDbBlockEnd
  0
BLOCK
  5
8CD
330
8CC
100
AcDbEntity
  8
0
100
AcDbBlockBegin
  2
*D1
 70
     1
 10
0.0
 20
0.0
 30
0.0
  3
*D1
  1
*D1
  0
LINE
  5
8CF
330
8CC
100
AcDbEntity
  8
Dimensions
 62
     0
370
    -2
100
AcDbLine
 10
198.0
 20
162.03125
 30
0.0
 11
198.0
 21
164.3125
 31
0.0
  0
LINE
  5
8D0
330
8CC
100
AcDbEntity
  8
Dimensions
 62
     0
370
    -2
100
AcDbLine
 10
203.25
 20
162.03125
 30
0.0
 11
203.25
 21
164.3125
 31
0.0
  0
LINE
  5
8D1
330
8CC
100
AcDbEntity
  8
Dimensions
 62
     0
370
    -2
100
AcDbLine
 10
198.125
 20
164.25
 30
0.0
 11
203.125
 21
164.25
 31
0.0
  0
SOLID
  5
8D2
330
8CC
100
AcDbEntity
  8
Dimensions
 62
     0
100
AcDbTrace
 10
198.125
 20
164.2708333333333
 30
0.0
 11
198.125
 21
164.2291666666667
 31
0.0
 12
198.0
 22
164.25
 32
0.0
 13
198.0
 23
164.25
 33
0.0
  0
SOLID
  5
8D3
330
8CC
100
AcDbEntity
  8
Dimensions
 62
     0
100
AcDbTrace
 10
203.125
 20
164.2291666666667
 30
0.0
 11
203.125
 21
164.2708333333333
 31
0.0
 12
203.25
 22
164.25
 32
0.0
 13
203.25
 23
164.25
 33
0.0
  0
MTEXT
  5
8D4
330
8CC
100
AcDbEntity
  8
Dimensions
 62
     0
100
AcDbMText
 10
200.625
 20
164.34375
 30
0.0
 40
0.125
 41
0.0
 46
0.0
 71
     5
 72
     1
  1
\A1;5.25"
  7
QCADDimTextStyle
 73
     1
 44
1.0
  0
POINT
  5
8D5
330
8CC
100
AcDbEntity
  8
Defpoints
 62
     0
100
AcDbPoint
 10
198.0
 20
162.0
 30
0.0
  0
POINT
  5
8D6
330
8CC
100
AcDbEntity
  8
Defpoints
 62
     0
100
AcDbPoint
 10
203.25
 20
162.0
 30
0.0
  0
POINT
  5
8D7
330
8CC
100
AcDbEntity
  8
Defpoints
 62
     0
100
AcDbPoint
 10
203.25
 20
164.25
 30
0.0
  0
ENDBLK
  5
8CE
330
8CC
100
AcDbEntity
  8
0
100
AcDbBlockEnd
  0
BLOCK
  5
8D9
330
8D8
100
AcDbEntity
  8
0
100
AcDbBlockBegin
  2
*D2
 70
     1
 10
0.0
 20
0.0
 30
0.0
  3
*D2
  1
*D2
  0
LINE
  5
8DB
330
8D8
100
AcDbEntity
  8
Dimensions
 62
     0
370
    -2
100
AcDbLine
 10
203.28125
 20
162.0
 30
0.0
 11
205.0625
 21
162.0
 31
0.0
  0
LINE
  5
8DC
330
8D8
100
AcDbEntity
  8
Dimensions
 62
     0
370
    -2
100
AcDbLine
 10
203.28125
 20
161.0
 30
0.0
 11
205.0625
 21
161.0
 31
0.0
  0
LINE
  5
8DD
330
8D8
100
AcDbEntity
  8
Dimensions
 62
     0
370
    -2
100
AcDbLine
 10
205.0
 20
161.875
 30
0.0
 11
205.0
 21
161.125
 31
0.0
  0
SOLID
  5
8DE
330
8D8
100
AcDbEntity
  8
Dimensions
 62
     0
100
AcDbTrace
 10
205.0208333333333
 20
161.875
 30
0.0
 11
204.9791666666667
 21
161.875
 31
0.0
 12
205.0
 22
162.0
 32
0.0
 13
205.0
 23
162.0
 33
0.0
  0
SOLID
  5
8DF
330
8D8
100
AcDbEntity
  8
Dimensions
 62
     0
100
AcDbTrace
 10
204.9791666666667
 20
161.125
 30
0.0
 11
205.0208333333333
 21
161.125
 31
0.0
 12
205.0
 22
161.0
 32
0.0
 13
205.0
 23
161.0
 33
0.0
  0
MTEXT
  5
8E0
330
8D8
100
AcDbEntity
  8
Dimensions
 62
     0
100
AcDbMText
 10
204.90625
 20
161.5
 30
0.0
 40
0.125
 41
0.0
 46
0.0
 71
     5
 72
     1
  1
\A1;1"
  7
QCADDimTextStyle
 11
0.0
 21
1.0
 31
0.0
 73
     1
 44
1.0
  0
POINT
  5
8E1
330
8D8
100
AcDbEntity
  8
Defpoints
 62
     0
100
AcDbPoint
 10
203.25
 20
162.0
 30
0.0
  0
POINT
  5
8E2
330
8D8
100
AcDbEntity
  8
Defpoints
 62
     0
100
AcDbPoint
 10
203.25
 20
161.0
 30
0.0
  0
POINT
  5
8E3
330
8D8
100
AcDbEntity
  8
Defpoints
 62
     0
100
AcDbPoint
 10
205.0
 20
161.0
 30
0.0
  0
ENDBLK
  5
8DA
330
8D8
100
AcDbEntity
  8
0
100
AcDbBlockEnd
  0
BLOCK
  5
8E5
330
8E4
100
AcDbEntity
  8
0
100
AcDbBlockBegin
  2
*D3
 70
     1
 10
0.0
 20
0.0
 30
0.0
  3
*D3
  1
*D3
  0
LINE
  5
8E7
330
8E4
100
AcDbEntity
  8
Dimensions
 62
     0
370
    -2
100
AcDbLine
 10
203.28125
 20
162.0
 30
0.0
 11
206.5625
 21
162.0
 31
0.0
  0
LINE
  5
8E8
330
8E4
100
AcDbEntity
  8
Dimensions
 62
     0
370
    -2
100
AcDbLine
 10
202.23125
 20
153.0
 30
0.0
 11
206.5625
 21
153.0
 31
0.0
  0
LINE
  5
8E9
330
8E4
100
AcDbEntity
  8
Dimensions
 62
     0
370
    -2
100
AcDbLine
 10
206.5
 20
161.875
 30
0.0
 11
206.5
 21
153.125
 31
0.0
  0
SOLID
  5
8EA
330
8E4
100
AcDbEntity
  8
Dimensions
 62
     0
100
AcDbTrace
 10
206.5208333333333
 20
161.875
 30
0.0
 11
206.4791666666667
 21
161.875
 31
0.0
 12
206.5
 22
162.0
 32
0.0
 13
206.5
 23
162.0
 33
0.0
  0
SOLID
  5
8EB
330
8E4
100
AcDbEntity
  8
Dimensions
 62
     0
100
AcDbTrace
 10
206.4791666666667
 20
153.125
 30
0.0
 11
206.5208333333333
 21
153.125
 31
0.0
 12
206.5
 22
153.0
 32
0.0
 13
206.5
 23
153.0
 33
0.0
  0
MTEXT
  5
8EC
330
8E4
100
AcDbEntity
  8
Dimensions
 62
     0
100
AcDbMText
 10
206.40625
 20
157.5
 30
0.0
 40
0.125
 41
0.0
 46
0.0
 71
     5
 72
     1
  1
\A1;9"
  7
QCADDimTextStyle
 11
0.0
 21
1.0
 31
0.0
 73
     1
 44
1.0
  0
POINT
  5
8ED
330
8E4
100
AcDbEntity
  8
Defpoints
 62
     0
100
AcDbPoint
 10
203.25
 20
162.0
 30
0.0
  0
POINT
  5
8EE
330
8E4
100
AcDbEntity
  8
Defpoints
 62
     0
100
AcDbPoint
 10
202.2
 20
153.0
 30
0.0
  0
POINT
  5
8EF
330
8E4
100
AcDbEntity
  8
Defpoints
 62
     0
100
AcDbPoint
 10
206.5
 20
153.0
 30
0.0
  0
ENDBLK
  5
8E6
330
8E4
100
AcDbEntity
  8
0
100
AcDbBlockEnd
  0
BLOCK
  5
8F1
330
8F0
100
AcDbEntity
  8
0
100
AcDbBlockBegin
  2
*D4
 70
     1
 10
0.0
 20
0.0
 30
0.0
  3
*D4
  1
*D4
  0
LINE
  5
8F3
330
8F0
100
AcDbEntity
  8
Dimensions
 62
     0
370
    -2
100
AcDbLine
 10
197.0
 20
130.03125
 30
0.0
 11
197.0
 21
133.0624999999999
 31
0.0
  0
LINE
  5
8F4
330
8F0
100
AcDbEntity
  8
Dimensions
 62
     0
370
    -2
100
AcDbLine
 10
203.0
 20
130.03125
 30
0.0
 11
203.0
 21
133.0624999999999
 31
0.0
  0
LINE
  5
8F5
330
8F0
100
AcDbEntity
  8
Dimensions
 62
     0
370
    -2
100
AcDbLine
 10
197.125
 20
132.9999999999999
 30
0.0
 11
202.875
 21
132.9999999999999
 31
0.0
  0
SOLID
  5
8F6
330
8F0
100
AcDbEntity
  8
Dimensions
 62
     0
100
AcDbTrace
 10
197.125
 20
133.0208333333332
 30
0.0
 11
197.125
 21
132.9791666666665
 31
0.0
 12
197.0
 22
132.9999999999999
 32
0.0
 13
197.0
 23
132.9999999999999
 33
0.0
  0
SOLID
  5
8F7
330
8F0
100
AcDbEntity
  8
Dimensions
 62
     0
100
AcDbTrace
 10
202.875
 20
132.9791666666665
 30
0.0
 11
202.875
 21
133.0208333333332
 31
0.0
 12
203.0
 22
132.9999999999999
 32
0.0
 13
203.0
 23
132.9999999999999
 33
0.0
  0
MTEXT
  5
8F8
330
8F0
100
AcDbEntity
  8
Dimensions
 62
     0
100
AcDbMText
 10
200.0
 20
133.0937499999999
 30
0.0
 40
0.125
 41
0.0
 46
0.0
 71
     5
 72
     1
  1
\A1;6"
  7
QCADDimTextStyle
 73
     1
 44
1.0
  0
POINT
  5
8F9
330
8F0
100
AcDbEntity
  8
Defpoints
 62
     0
100
AcDbPoint
 10
197.0
 20
130.0
 30
0.0
  0
POINT
  5
8FA
330
8F0
100
AcDbEntity
  8
Defpoints
 62
     0
100
AcDbPoint
 10
203.0
 20
130.0
 30
0.0
  0
POINT
  5
8FB
330
8F0
100
AcDbEntity
  8
Defpoints
 62
     0
100
AcDbPoint
 10
203.0
 20
132.9999999999999
 30
0.0
  0
ENDBLK
  5
8F2
330
8F0
100
AcDbEntity
  8
0
100
AcDbBlockEnd
  0
BLOCK
  5
8FD
330
8FC
100
AcDbEntity
  8
0
100
AcDbBlockBegin
  2
*D5
 70
     1
 10
0.0
 20
0.0
 30
0.0
  3
*D5
  1
*D5
  0
LINE
  5
8FF
330
8FC
100
AcDbEntity
  8
Dimensions
 62
     0
370
    -2
100
AcDbLine
 10
203.03125
 20
130.0
 30
0.0
 11
206.0625
 21
130.0
 31
0.0
  0
LINE
  5
900
330
8FC
100
AcDbEntity
  8
Dimensions
 62
     0
370
    -2
100
AcDbLine
 10
203.03125
 20
109.5
 30
0.0
 11
206.0625
 21
109.5
 31
0.0
  0
LINE
  5
901
330
8FC
100
AcDbEntity
  8
Dimensions
 62
     0
370
    -2
100
AcDbLine
 10
206.0
 20
129.875
 30
0.0
 11
206.0
 21
109.625
 31
0.0
  0
SOLID
  5
902
330
8FC
100
AcDbEntity
  8
Dimensions
 62
     0
100
AcDbTrace
 10
206.0208333333333
 20
129.875
 30
0.0
 11
205.9791666666667
 21
129.875
 31
0.0
 12
206.0
 22
130.0
 32
0.0
 13
206.0
 23
130.0
 33
0.0
  0
SOLID
  5
903
330
8FC
100
AcDbEntity
  8
Dimensions
 62
     0
100
AcDbTrace
 10
205.9791666666667
 20
109.625
 30
0.0
 11
206.0208333333333
 21
109.625
 31
0.0
 12
206.0
 22
109.5
 32
0.0
 13
206.0
 23
109.5
 33
0.0
  0
MTEXT
  5
904
330
8FC
100
AcDbEntity
  8
Dimensions
 62
     0
100
AcDbMText
 10
205.90625
 20
119.75
 30
0.0
 40
0.125
 41
0.0
 46
0.0
 71
     5
 72
     1
  1
\A1;1'-8.5"
  7
QCADDimTextStyle
 11
0.0
 21
1.0
 31
0.0
 73
     1
 44
1.0
  0
POINT
  5
905
330
8FC
100
AcDbEntity
  8
Defpoints
 62
     0
100
AcDbPoint
 10
203.0
 20
130.0
 30
0.0
  0
POINT
  5
906
330
8FC
100
AcDbEntity
  8
Defpoints
 62
     0
100
AcDbPoint
 10
203.0
 20
109.5
 30
0.0
  0
POINT
  5
907
330
8FC
100
AcDbEntity
  8
Defpoints
 62
     0
100
AcDbPoint
 10
206.0
 20
109.5
 30
0.0
  0
ENDBLK
  5
8FE
330
8FC
100
AcDbEntity
  8
0
100
AcDbBlockEnd
  0
BLOCK
  5
909
330
908
100
AcDbEntity
  8
0
100
AcDbBlockBegin
  2
*D6
 70
     1
 10
0.0
 20
0.0
 30
0.0
  3
*D6
  1
*D6
  0
LINE
  5
90B
330
908
100
AcDbEntity
  8
Dimensions
 62
     0
370
    -2
100
AcDbLine
 10
197.968147138019
 20
153.3539167120649
 30
0.0
 11
198.2910638046857
 21
153.3539167120649
 31
0.0
  0
LINE
  5
90C
330
908
100
AcDbEntity
  8
Dimensions
 62
     0
370
    -2
100
AcDbLine
 10
198.4875455599798
 20
153.5084965291062
 30
0.0
 11
198.2910638046857
 21
153.3539167120649
 31
0.0
  0
MTEXT
  5
90D
330
908
100
AcDbEntity
  8
Dimensions
 62
     0
100
AcDbMText
 10
198.1139804713523
 20
153.4476667120649
 30
0.0
 40
0.125
 41
0.0
 46
0.0
 71
     5
 72
     1
  1
\A1;R2"
  7
QCADDimTextStyle
 73
     1
 44
1.0
  0
SOLID
  5
90E
330
908
100
AcDbEntity
  8
Dimensions
 62
     0
100
AcDbTrace
 10
198.5004272113999
 20
153.4921230494984
 30
0.0
 11
198.4746639085597
 21
153.5248700087141
 31
0.0
 12
198.5857864376269
 22
153.5857864376269
 32
0.0
 13
198.5857864376269
 23
153.5857864376269
 33
0.0
  0
LINE
  5
90F
330
908
100
AcDbEntity
  8
Dimensions
 62
     0
100
AcDbLine
 10
200.0676404799801
 20
154.8224249739577
 30
0.0
 11
200.2476404799801
 21
154.8224249739577
 31
0.0
  0
LINE
  5
910
330
908
100
AcDbEntity
  8
Dimensions
 62
     0
100
AcDbLine
 10
200.1576404799801
 20
154.7324249739577
 30
0.0
 11
200.1576404799801
 21
154.9124249739577
 31
0.0
  0
POINT
  5
911
330
908
100
AcDbEntity
  8
Defpoints
 62
     0
100
AcDbPoint
 10
198.5857864376269
 20
153.5857864376269
 30
0.0
  0
POINT
  5
912
330
908
100
AcDbEntity
  8
Defpoints
 62
     0
100
AcDbPoint
 10
200.1576404799801
 20
154.8224249739577
 30
0.0
  0
ENDBLK
  5
90A
330
908
100
AcDbEntity
  8
0
100
AcDbBlockEnd
  0
BLOCK
  5
914
330
913
100
AcDbEntity
  8
0
100
AcDbBlockBegin
  2
*D7
 70
     1
 10
0.0
 20
0.0
 30
0.0
  3
*D7
  1
*D7
  0
LINE
  5
916
330
913
100
AcDbEntity
  8
Dimensions
 62
     0
370
    -2
100
AcDbLine
 10
133.25
 20
159.9999999999999
 30
0.0
 11
142.02018808851
 21
159.9999999999999
 31
0.0
  0
LINE
  5
917
330
913
100
AcDbEntity
  8
Dimensions
 62
     0
370
    -2
100
AcDbLine
 10
93.87430760662808
 20
183.4999999999999
 30
0.0
 11
142.02018808851
 21
183.4999999999999
 31
0.0
  0
LINE
  5
918
330
913
100
AcDbEntity
  8
Dimensions
 62
     0
370
    -2
100
AcDbLine
 10
138.42018808851
 20
163.5999999999999
 30
0.0
 11
138.42018808851
 21
168.1499999999999
 31
0.0
  0
LINE
  5
919
330
913
100
AcDbEntity
  8
Dimensions
 62
     0
370
    -2
100
AcDbLine
 10
138.42018808851
 20
179.8999999999999
 30
0.0
 11
138.42018808851
 21
175.3499999999999
 31
0.0
  0
SOLID
  5
91A
330
913
100
AcDbEntity
  8
Dimensions
 62
     0
100
AcDbTrace
 10
137.82018808851
 20
163.5999999999999
 30
0.0
 11
139.02018808851
 21
163.5999999999999
 31
0.0
 12
138.42018808851
 22
159.9999999999999
 32
0.0
 13
138.42018808851
 23
159.9999999999999
 33
0.0
  0
SOLID
  5
91B
330
913
100
AcDbEntity
  8
Dimensions
 62
     0
100
AcDbTrace
 10
139.02018808851
 20
179.8999999999999
 30
0.0
 11
137.82018808851
 21
179.8999999999999
 31
0.0
 12
138.42018808851
 22
183.4999999999999
 32
0.0
 13
138.42018808851
 23
183.4999999999999
 33
0.0
  0
MTEXT
  5
91C
330
913
100
AcDbEntity
  8
Dimensions
 62
     0
100
AcDbMText
 10
138.42018808851
 20
171.7499999999999
 30
0.0
 40
3.6
 41
0.0
 46
0.0
 71
     5
 72
     1
  1
\A1;23.5000
 73
     1
 44
1.0
  0
POINT
  5
91D
330
913
100
AcDbEntity
  8
Defpoints
 62
     0
100
AcDbPoint
 10
132.0
 20
159.9999999999999
 30
0.0
  0
POINT
  5
91E
330
913
100
AcDbEntity
  8
Defpoints
 62
     0
100
AcDbPoint
 10
92.62430760662808
 20
183.4999999999999
 30
0.0
  0
POINT
  5
91F
330
913
100
AcDbEntity
  8
Defpoints
 62
     0
100
AcDbPoint
 10
138.42018808851
 20
183.4999999999999
 30
0.0
  0
ENDBLK
  5
915
330
913
100
AcDbEntity
  8
0
100
AcDbBlockEnd
  0
BLOCK
  5
921
330
920
100
AcDbEntity
  8
0
100
AcDbBlockBegin
  2
*D8
 70
     1
 10
0.0
 20
0.0
 30
0.0
  3
*D8
  1
*D8
  0
LINE
  5
923
330
920
100
AcDbEntity
  8
Dimensions
 62
     0
370
    -2
100
AcDbLine
 10
101.0799077065485
 20
218.8988316174602
 30
0.0
 11
152.02018808851
 21
218.8988316174602
 31
0.0
  0
LINE
  5
924
330
920
100
AcDbEntity
  8
Dimensions
 62
     0
370
    -2
100
AcDbLine
 10
133.25
 20
159.9999999999999
 30
0.0
 11
152.02018808851
 21
159.9999999999999
 31
0.0
  0
LINE
  5
925
330
920
100
AcDbEntity
  8
Dimensions
 62
     0
370
    -2
100
AcDbLine
 10
148.42018808851
 20
215.2988316174602
 30
0.0
 11
148.42018808851
 21
193.0494158087301
 31
0.0
  0
LINE
  5
926
330
920
100
AcDbEntity
  8
Dimensions
 62
     0
370
    -2
100
AcDbLine
 10
148.42018808851
 20
163.5999999999999
 30
0.0
 11
148.42018808851
 21
185.84941580873
 31
0.0
  0
SOLID
  5
927
330
920
100
AcDbEntity
  8
Dimensions
 62
     0
100
AcDbTrace
 10
149.02018808851
 20
215.2988316174602
 30
0.0
 11
147.82018808851
 21
215.2988316174602
 31
0.0
 12
148.42018808851
 22
218.8988316174602
 32
0.0
 13
148.42018808851
 23
218.8988316174602
 33
0.0
  0
SOLID
  5
928
330
920
100
AcDbEntity
  8
Dimensions
 62
     0
100
AcDbTrace
 10
147.82018808851
 20
163.5999999999999
 30
0.0
 11
149.02018808851
 21
163.5999999999999
 31
0.0
 12
148.42018808851
 22
159.9999999999999
 32
0.0
 13
148.42018808851
 23
159.9999999999999
 33
0.0
  0
MTEXT
  5
929
330
920
100
AcDbEntity
  8
Dimensions
 62
     0
100
AcDbMText
 10
148.42018808851
 20
189.44941580873
 30
0.0
 40
3.6
 41
0.0
 46
0.0
 71
     5
 72
     1
  1
\A1;58.8988
 73
     1
 44
1.0
  0
POINT
  5
92A
330
920
100
AcDbEntity
  8
Defpoints
 62
     0
100
AcDbPoint
 10
99.82990770654851
 20
218.8988316174602
 30
0.0
  0
POINT
  5
92B
330
920
100
AcDbEntity
  8
Defpoints
 62
     0
100
AcDbPoint
 10
132.0
 20
159.9999999999999
 30
0.0
  0
POINT
  5
92C
330
920
100
AcDbEntity
  8
Defpoints
 62
     0
100
AcDbPoint
 10
148.42018808851
 20
159.9999999999999
 30
0.0
  0
ENDBLK
  5
922
330
920
100
AcDbEntity
  8
0
100
AcDbBlockEnd
  0
BLOCK
  5
92E
330
92D
100
AcDbEntity
  8
0
100
AcDbBlockBegin
  2
*D9
 70
     1
 10
0.0
 20
0.0
 30
0.0
  3
*D9
  1
*D9
  0
LINE
  5
930
330
92D
100
AcDbEntity
  8
Dimensions
 62
     0
370
    -2
100
AcDbLine
 10
91.21009404425499
 20
186.1642135623732
 30
0.0
 11
91.21009404425499
 21
193.6000000000001
 31
0.0
  0
LINE
  5
931
330
92D
100
AcDbEntity
  8
Dimensions
 62
     0
370
    -2
100
AcDbLine
 10
132.0
 20
161.2499999999999
 30
0.0
 11
132.0
 21
193.6000000000001
 31
0.0
  0
LINE
  5
932
330
92D
100
AcDbEntity
  8
Dimensions
 62
     0
370
    -2
100
AcDbLine
 10
94.81009404425498
 20
190.0000000000001
 30
0.0
 11
99.26218987927034
 21
190.0000000000001
 31
0.0
  0
LINE
  5
933
330
92D
100
AcDbEntity
  8
Dimensions
 62
     0
370
    -2
100
AcDbLine
 10
128.4
 20
190.0000000000001
 30
0.0
 11
123.9479041649846
 21
190.0000000000001
 31
0.0
  0
SOLID
  5
934
330
92D
100
AcDbEntity
  8
Dimensions
 62
     0
100
AcDbTrace
 10
94.81009404425498
 20
190.6000000000001
 30
0.0
 11
94.81009404425498
 21
189.4000000000001
 31
0.0
 12
91.21009404425499
 22
190.0000000000001
 32
0.0
 13
91.21009404425499
 23
190.0000000000001
 33
0.0
  0
SOLID
  5
935
330
92D
100
AcDbEntity
  8
Dimensions
 62
     0
100
AcDbTrace
 10
128.4
 20
189.4000000000001
 30
0.0
 11
128.4
 21
190.6000000000001
 31
0.0
 12
132.0
 22
190.0000000000001
 32
0.0
 13
132.0
 23
190.0000000000001
 33
0.0
  0
MTEXT
  5
936
330
92D
100
AcDbEntity
  8
Dimensions
 62
     0
100
AcDbMText
 10
111.6050470221275
 20
190.0000000000001
 30
0.0
 40
3.6
 41
0.0
 46
0.0
 71
     5
 72
     1
  1
\A1;40.7899
 73
     1
 44
1.0
  0
POINT
  5
937
330
92D
100
AcDbEntity
  8
Defpoints
 62
     0
100
AcDbPoint
 10
91.21009404425499
 20
184.9142135623732
 30
0.0
  0
POINT
  5
938
330
92D
100
AcDbEntity
  8
Defpoints
 62
     0
100
AcDbPoint
 10
132.0
 20
159.9999999999999
 30
0.0
  0
POINT
  5
939
330
92D
100
AcDbEntity
  8
Defpoints
 62
     0
100
AcDbPoint
 10
132.0
 20
190.0000000000001
 30
0.0
  0
ENDBLK
  5
92F
330
92D
100
AcDbEntity
  8
0
100
AcDbBlockEnd
  0
BLOCK
  5
93B
330
93A
100
AcDbEntity
  8
0
100
AcDbBlockBegin
  2
*D10
 70
     1
 10
0.0
 20
0.0
 30
0.0
  3
*D10
  1
*D10
  0
LINE
  5
93D
330
93A
100
AcDbEntity
  8
Dimensions
 62
     0
370
    -2
100
AcDbLine
 10
-0.0000000000000995
 20
161.2500000000001
 30
0.0
 11
-0.0000000000000995
 21
233.6000000000001
 31
0.0
  0
LINE
  5
93E
330
93A
100
AcDbEntity
  8
Dimensions
 62
     0
370
    -2
100
AcDbLine
 10
32.17009229345123
 20
220.1488316174603
 30
0.0
 11
32.17009229345123
 21
233.6000000000001
 31
0.0
  0
LINE
  5
93F
330
93A
100
AcDbEntity
  8
Dimensions
 62
     0
370
    -2
100
AcDbLine
 10
-3.600000000000099
 20
230.0000000000001
 30
0.0
 11
-7.200000000000099
 21
230.0000000000001
 31
0.0
  0
LINE
  5
940
330
93A
100
AcDbEntity
  8
Dimensions
 62
     0
370
    -2
100
AcDbLine
 10
35.77009229345123
 20
230.0000000000001
 30
0.0
 11
39.37009229345124
 21
230.0000000000001
 31
0.0
  0
SOLID
  5
941
330
93A
100
AcDbEntity
  8
Dimensions
 62
     0
100
AcDbTrace
 10
-3.600000000000099
 20
229.4000000000001
 30
0.0
 11
-3.600000000000099
 21
230.6000000000001
 31
0.0
 12
-0.0000000000000995
 22
230.0000000000001
 32
0.0
 13
-0.0000000000000995
 23
230.0000000000001
 33
0.0
  0
SOLID
  5
942
330
93A
100
AcDbEntity
  8
Dimensions
 62
     0
100
AcDbTrace
 10
35.77009229345123
 20
230.6000000000001
 30
0.0
 11
35.77009229345123
 21
229.4000000000001
 31
0.0
 12
32.17009229345123
 22
230.0000000000001
 32
0.0
 13
32.17009229345123
 23
230.0000000000001
 33
0.0
  0
MTEXT
  5
943
330
93A
100
AcDbEntity
  8
Dimensions
 62
     0
100
AcDbMText
 10
16.08504614672557
 20
230.0000000000001
 30
0.0
 40
3.6
 41
0.0
 46
0.0
 71
     5
 72
     1
  1
\A1;32.1701
 73
     1
 44
1.0
  0
POINT
  5
944
330
93A
100
AcDbEntity
  8
Defpoints
 62
     0
100
AcDbPoint
 10
-0.0000000000000995
 20
160.0000000000001
 30
0.0
  0
POINT
  5
945
330
93A
100
AcDbEntity
  8
Defpoints
 62
     0
100
AcDbPoint
 10
32.17009229345123
 20
218.8988316174603
 30
0.0
  0
POINT
  5
946
330
93A
100
AcDbEntity
  8
Defpoints
 62
     0
100
AcDbPoint
 10
32.17009229345123
 20
230.0000000000001
 30
0.0
  0
ENDBLK
  5
93C
330
93A
100
AcDbEntity
  8
0
100
AcDbBlockEnd
  0
BLOCK
  5
948
330
947
100
AcDbEntity
  8
0
100
AcDbBlockBegin
  2
*D11
 70
     1
 10
0.0
 20
0.0
 30
0.0
  3
*D11
  1
*D11
  0
LINE
  5
94A
330
947
100
AcDbEntity
  8
Dimensions
 62
     0
370
    -2
100
AcDbLine
 10
99.82990770654851
 20
220.1488316174602
 30
0.0
 11
99.82990770654851
 21
233.6000000000001
 31
0.0
  0
LINE
  5
94B
330
947
100
AcDbEntity
  8
Dimensions
 62
     0
370
    -2
100
AcDbLine
 10
40.59028038196131
 20
220.1488316174603
 30
0.0
 11
40.59028038196131
 21
233.6000000000001
 31
0.0
  0
LINE
  5
94C
330
947
100
AcDbEntity
  8
Dimensions
 62
     0
370
    -2
100
AcDbLine
 10
96.22990770654852
 20
230.0000000000001
 30
0.0
 11
82.63866547282633
 21
230.0000000000001
 31
0.0
  0
LINE
  5
94D
330
947
100
AcDbEntity
  8
Dimensions
 62
     0
370
    -2
100
AcDbLine
 10
44.19028038196131
 20
230.0000000000001
 30
0.0
 11
57.78152261568347
 21
230.0000000000001
 31
0.0
  0
SOLID
  5
94E
330
947
100
AcDbEntity
  8
Dimensions
 62
     0
100
AcDbTrace
 10
96.22990770654852
 20
229.4000000000001
 30
0.0
 11
96.22990770654852
 21
230.6000000000001
 31
0.0
 12
99.82990770654851
 22
230.0000000000001
 32
0.0
 13
99.82990770654851
 23
230.0000000000001
 33
0.0
  0
SOLID
  5
94F
330
947
100
AcDbEntity
  8
Dimensions
 62
     0
100
AcDbTrace
 10
44.19028038196131
 20
230.6000000000001
 30
0.0
 11
44.19028038196131
 21
229.4000000000001
 31
0.0
 12
40.59028038196131
 22
230.0000000000001
 32
0.0
 13
40.59028038196131
 23
230.0000000000001
 33
0.0
  0
MTEXT
  5
950
330
947
100
AcDbEntity
  8
Dimensions
 62
     0
100
AcDbMText
 10
70.2100940442549
 20
230.0000000000001
 30
0.0
 40
3.6
 41
0.0
 46
0.0
 71
     5
 72
     1
  1
\A1;59.2396
 73
     1
 44
1.0
  0
POINT
  5
951
330
947
100
AcDbEntity
  8
Defpoints
 62
     0
100
AcDbPoint
 10
99.82990770654851
 20
218.8988316174602
 30
0.0
  0
POINT
  5
952
330
947
100
AcDbEntity
  8
Defpoints
 62
     0
100
AcDbPoint
 10
40.59028038196131
 20
218.8988316174603
 30
0.0
  0
POINT
  5
953
330
947
100
AcDbEntity
  8
Defpoints
 62
     0
100
AcDbPoint
 10
40.59028038196131
 20
230.0000000000001
 30
0.0
  0
ENDBLK
  5
949
330
947
100
AcDbEntity
  8
0
100
AcDbBlockEnd
  0
BLOCK
  5
955
330
954
100
AcDbEntity
  8
0
100
AcDbBlockBegin
  2
*D12
 70
     1
 10
0.0
 20
0.0
 30
0.0
  3
*D12
  1
*D12
  0
LINE
  5
957
330
954
100
AcDbEntity
  8
Dimensions
 62
     0
370
    -2
100
AcDbLine
 10
0.0
 20
161.25
 30
0.0
 11
0.0
 21
243.6000000000001
 31
0.0
  0
LINE
  5
958
330
954
100
AcDbEntity
  8
Dimensions
 62
     0
370
    -2
100
AcDbLine
 10
132.0
 20
161.2499999999999
 30
0.0
 11
132.0
 21
243.6000000000001
 31
0.0
  0
LINE
  5
959
330
954
100
AcDbEntity
  8
Dimensions
 62
     0
370
    -2
100
AcDbLine
 10
3.6
 20
240.0000000000001
 30
0.0
 11
52.11428571428571
 21
240.0000000000001
 31
0.0
  0
LINE
  5
95A
330
954
100
AcDbEntity
  8
Dimensions
 62
     0
370
    -2
100
AcDbLine
 10
128.4
 20
240.0000000000001
 30
0.0
 11
79.88571428571427
 21
240.0000000000001
 31
0.0
  0
SOLID
  5
95B
330
954
100
AcDbEntity
  8
Dimensions
 62
     0
100
AcDbTrace
 10
3.6
 20
240.6000000000001
 30
0.0
 11
3.6
 21
239.4000000000001
 31
0.0
 12
0.0
 22
240.0000000000001
 32
0.0
 13
0.0
 23
240.0000000000001
 33
0.0
  0
SOLID
  5
95C
330
954
100
AcDbEntity
  8
Dimensions
 62
     0
100
AcDbTrace
 10
128.4
 20
239.4000000000001
 30
0.0
 11
128.4
 21
240.6000000000001
 31
0.0
 12
132.0
 22
240.0000000000001
 32
0.0
 13
132.0
 23
240.0000000000001
 33
0.0
  0
MTEXT
  5
95D
330
954
100
AcDbEntity
  8
Dimensions
 62
     0
100
AcDbMText
 10
65.99999999999999
 20
240.0000000000001
 30
0.0
 40
3.6
 41
0.0
 46
0.0
 71
     5
 72
     1
  1
\A1;132.0000
 73
     1
 44
1.0
  0
POINT
  5
95E
330
954
100
AcDbEntity
  8
Defpoints
 62
     0
100
AcDbPoint
 10
0.0
 20
160.0
 30
0.0
  0
POINT
  5
95F
330
954
100
AcDbEntity
  8
Defpoints
 62
     0
100
AcDbPoint
 10
132.0
 20
159.9999999999999
 30
0.0
  0
POINT
  5
960
330
954
100
AcDbEntity
  8
Defpoints
 62
     0
100
AcDbPoint
 10
132.0
 20
240.0000000000001
 30
0.0
  0
ENDBLK
  5
956
330
954
100
AcDbEntity
  8
0
100
AcDbBlockEnd
  0
BLOCK
  5
962
330
961
100
AcDbEntity
  8
0
100
AcDbBlockBegin
  2
*D13
 70
     1
 10
0.0
 20
0.0
 30
0.0
  3
*D13
  1
*D13
  0
LINE
  5
964
330
961
100
AcDbEntity
  8
Dimensions
 62
     0
370
    -2
100
AcDbLine
 10
0.0
 20
61.25
 30
0.0
 11
0.0
 21
93.59999999999997
 31
0.0
  0
LINE
  5
965
330
961
100
AcDbEntity
  8
Dimensions
 62
     0
370
    -2
100
AcDbLine
 10
230.9999999999999
 20
1.25
 30
0.0
 11
230.9999999999999
 21
93.59999999999997
 31
0.0
  0
LINE
  5
966
330
961
100
AcDbEntity
  8
Dimensions
 62
     0
370
    -2
100
AcDbLine
 10
3.6
 20
89.99999999999997
 30
0.0
 11
101.3571428571428
 21
89.99999999999997
 31
0.0
  0
LINE
  5
967
330
961
100
AcDbEntity
  8
Dimensions
 62
     0
370
    -2
100
AcDbLine
 10
227.3999999999999
 20
89.99999999999997
 30
0.0
 11
129.6428571428571
 21
89.99999999999997
 31
0.0
  0
SOLID
  5
968
330
961
100
AcDbEntity
  8
Dimensions
 62
     0
100
AcDbTrace
 10
3.6
 20
90.59999999999997
 30
0.0
 11
3.6
 21
89.39999999999998
 31
0.0
 12
0.0
 22
89.99999999999997
 32
0.0
 13
0.0
 23
89.99999999999997
 33
0.0
  0
SOLID
  5
969
330
961
100
AcDbEntity
  8
Dimensions
 62
     0
100
AcDbTrace
 10
227.3999999999999
 20
89.39999999999998
 30
0.0
 11
227.3999999999999
 21
90.59999999999997
 31
0.0
 12
230.9999999999999
 22
89.99999999999997
 32
0.0
 13
230.9999999999999
 23
89.99999999999997
 33
0.0
  0
MTEXT
  5
96A
330
961
100
AcDbEntity
  8
Dimensions
 62
     0
100
AcDbMText
 10
115.5
 20
89.99999999999997
 30
0.0
 40
3.6
 41
0.0
 46
0.0
 71
     5
 72
     1
  1
\A1;231.0000
 73
     1
 44
1.0
  0
POINT
  5
96B
330
961
100
AcDbEntity
  8
Defpoints
 62
     0
100
AcDbPoint
 10
0.0
 20
60.0
 30
0.0
  0
POINT
  5
96C
330
961
100
AcDbEntity
  8
Defpoints
 62
     0
100
AcDbPoint
 10
230.9999999999999
 20
0.0
 30
0.0
  0
POINT
  5
96D
330
961
100
AcDbEntity
  8
Defpoints
 62
     0
100
AcDbPoint
 10
230.9999999999999
 20
89.99999999999997
 30
0.0
  0
ENDBLK
  5
963
330
961
100
AcDbEntity
  8
0
100
AcDbBlockEnd
  0
BLOCK
  5
96F
330
96E
100
AcDbEntity
  8
0
100
AcDbBlockBegin
  2
*D14
 70
     1
 10
0.0
 20
0.0
 30
0.0
  3
*D14
  1
*D14
  0
LINE
  5
971
330
96E
100
AcDbEntity
  8
Dimensions
 62
     0
370
    -2
100
AcDbLine
 10
0.0
 20
61.25
 30
0.0
 11
0.0
 21
83.59999999999997
 31
0.0
  0
LINE
  5
972
330
96E
100
AcDbEntity
  8
Dimensions
 62
     0
370
    -2
100
AcDbLine
 10
132.0000000000001
 20
61.24999999999997
 30
0.0
 11
132.0000000000001
 21
83.59999999999997
 31
0.0
  0
LINE
  5
973
330
96E
100
AcDbEntity
  8
Dimensions
 62
     0
370
    -2
100
AcDbLine
 10
3.6
 20
79.99999999999997
 30
0.0
 11
52.11428571428578
 21
79.99999999999997
 31
0.0
  0
LINE
  5
974
330
96E
100
AcDbEntity
  8
Dimensions
 62
     0
370
    -2
100
AcDbLine
 10
128.4000000000001
 20
79.99999999999997
 30
0.0
 11
79.88571428571436
 21
79.99999999999997
 31
0.0
  0
SOLID
  5
975
330
96E
100
AcDbEntity
  8
Dimensions
 62
     0
100
AcDbTrace
 10
3.6
 20
80.59999999999997
 30
0.0
 11
3.6
 21
79.39999999999998
 31
0.0
 12
0.0
 22
79.99999999999997
 32
0.0
 13
0.0
 23
79.99999999999997
 33
0.0
  0
SOLID
  5
976
330
96E
100
AcDbEntity
  8
Dimensions
 62
     0
100
AcDbTrace
 10
128.4000000000001
 20
79.39999999999998
 30
0.0
 11
128.4000000000001
 21
80.59999999999997
 31
0.0
 12
132.0000000000001
 22
79.99999999999997
 32
0.0
 13
132.0000000000001
 23
79.99999999999997
 33
0.0
  0
MTEXT
  5
977
330
96E
100
AcDbEntity
  8
Dimensions
 62
     0
100
AcDbMText
 10
66.00000000000006
 20
79.99999999999997
 30
0.0
 40
3.6
 41
0.0
 46
0.0
 71
     5
 72
     1
  1
\A1;132.0000
 73
     1
 44
1.0
  0
POINT
  5
978
330
96E
100
AcDbEntity
  8
Defpoints
 62
     0
100
AcDbPoint
 10
0.0
 20
60.0
 30
0.0
  0
POINT
  5
979
330
96E
100
AcDbEntity
  8
Defpoints
 62
     0
100
AcDbPoint
 10
132.0000000000001
 20
59.99999999999997
 30
0.0
  0
POINT
  5
97A
330
96E
100
AcDbEntity
  8
Defpoints
 62
     0
100
AcDbPoint
 10
132.0000000000001
 20
79.99999999999997
 30
0.0
  0
ENDBLK
  5
970
330
96E
100
AcDbEntity
  8
0
100
AcDbBlockEnd
  0
BLOCK
  5
97C
330
97B
100
AcDbEntity
  8
0
100
AcDbBlockBegin
  2
*D15
 70
     1
 10
0.0
 20
0.0
 30
0.0
  3
*D15
  1
*D15
  0
LINE
  5
97E
330
97B
100
AcDbEntity
  8
Dimensions
 62
     0
370
    -2
100
AcDbLine
 10
132.0000000000001
 20
61.24999999999997
 30
0.0
 11
132.0000000000001
 21
83.59999999999997
 31
0.0
  0
LINE
  5
97F
330
97B
100
AcDbEntity
  8
Dimensions
 62
     0
370
    -2
100
AcDbLine
 10
192.0000000000001
 20
61.2500000000001
 30
0.0
 11
192.0000000000001
 21
83.59999999999997
 31
0.0
  0
LINE
  5
980
330
97B
100
AcDbEntity
  8
Dimensions
 62
     0
370
    -2
100
AcDbLine
 10
135.6000000000001
 20
79.99999999999997
 30
0.0
 11
149.657142857143
 21
79.99999999999997
 31
0.0
  0
LINE
  5
981
330
97B
100
AcDbEntity
  8
Dimensions
 62
     0
370
    -2
100
AcDbLine
 10
188.4000000000001
 20
79.99999999999997
 30
0.0
 11
174.3428571428573
 21
79.99999999999997
 31
0.0
  0
SOLID
  5
982
330
97B
100
AcDbEntity
  8
Dimensions
 62
     0
100
AcDbTrace
 10
135.6000000000001
 20
80.59999999999997
 30
0.0
 11
135.6000000000001
 21
79.39999999999998
 31
0.0
 12
132.0000000000001
 22
79.99999999999997
 32
0.0
 13
132.0000000000001
 23
79.99999999999997
 33
0.0
  0
SOLID
  5
983
330
97B
100
AcDbEntity
  8
Dimensions
 62
     0
100
AcDbTrace
 10
188.4000000000001
 20
79.39999999999998
 30
0.0
 11
188.4000000000001
 21
80.59999999999997
 31
0.0
 12
192.0000000000001
 22
79.99999999999997
 32
0.0
 13
192.0000000000001
 23
79.99999999999997
 33
0.0
  0
MTEXT
  5
984
330
97B
100
AcDbEntity
  8
Dimensions
 62
     0
100
AcDbMText
 10
162.0000000000001
 20
79.99999999999997
 30
0.0
 40
3.6
 41
0.0
 46
0.0
 71
     5
 72
     1
  1
\A1;60.0000
 73
     1
 44
1.0
  0
POINT
  5
985
330
97B
100
AcDbEntity
  8
Defpoints
 62
     0
100
AcDbPoint
 10
132.0000000000001
 20
59.99999999999997
 30
0.0
  0
POINT
  5
986
330
97B
100
AcDbEntity
  8
Defpoints
 62
     0
100
AcDbPoint
 10
192.0000000000001
 20
60.0000000000001
 30
0.0
  0
POINT
  5
987
330
97B
100
AcDbEntity
  8
Defpoints
 62
     0
100
AcDbPoint
 10
192.0000000000001
 20
79.99999999999997
 30
0.0
  0
ENDBLK
  5
97D
330
97B
100
AcDbEntity
  8
0
100
AcDbBlockEnd
  0
BLOCK
  5
989
330
988
100
AcDbEntity
  8
0
100
AcDbBlockBegin
  2
*D16
 70
     1
 10
0.0
 20
0.0
 30
0.0
  3
*D16
  1
*D16
  0
LINE
  5
98B
330
988
100
AcDbEntity
  8
Dimensions
 62
     0
370
    -2
100
AcDbLine
 10
192.0000000000001
 20
61.2500000000001
 30
0.0
 11
192.0000000000001
 21
83.59999999999997
 31
0.0
  0
LINE
  5
98C
330
988
100
AcDbEntity
  8
Dimensions
 62
     0
370
    -2
100
AcDbLine
 10
230.9999999999999
 20
1.25
 30
0.0
 11
230.9999999999999
 21
83.59999999999997
 31
0.0
  0
LINE
  5
98D
330
988
100
AcDbEntity
  8
Dimensions
 62
     0
370
    -2
100
AcDbLine
 10
195.6000000000001
 20
79.99999999999997
 30
0.0
 11
199.0714285714286
 21
79.99999999999997
 31
0.0
  0
LINE
  5
98E
330
988
100
AcDbEntity
  8
Dimensions
 62
     0
370
    -2
100
AcDbLine
 10
227.3999999999999
 20
79.99999999999997
 30
0.0
 11
223.9285714285715
 21
79.99999999999997
 31
0.0
  0
SOLID
  5
98F
330
988
100
AcDbEntity
  8
Dimensions
 62
     0
100
AcDbTrace
 10
195.6000000000001
 20
80.59999999999997
 30
0.0
 11
195.6000000000001
 21
79.39999999999998
 31
0.0
 12
192.0000000000001
 22
79.99999999999997
 32
0.0
 13
192.0000000000001
 23
79.99999999999997
 33
0.0
  0
SOLID
  5
990
330
988
100
AcDbEntity
  8
Dimensions
 62
     0
100
AcDbTrace
 10
227.3999999999999
 20
79.39999999999998
 30
0.0
 11
227.3999999999999
 21
80.59999999999997
 31
0.0
 12
230.9999999999999
 22
79.99999999999997
 32
0.0
 13
230.9999999999999
 23
79.99999999999997
 33
0.0
  0
MTEXT
  5
991
330
988
100
AcDbEntity
  8
Dimensions
 62
     0
100
AcDbMText
 10
211.5
 20
79.99999999999997
 30
0.0
 40
3.6
 41
0.0
 46
0.0
 71
     5
 72
     1
  1
\A1;39.0000
 73
     1
 44
1.0
  0
POINT
  5
992
330
988
100
AcDbEntity
  8
Defpoints
 62
     0
100
AcDbPoint
 10
192.0000000000001
 20
60.0000000000001
 30
0.0
  0
POINT
  5
993
330
988
100
AcDbEntity
  8
Defpoints
 62
     0
100
AcDbPoint
 10
230.9999999999999
 20
0.0
 30
0.0
  0
POINT
  5
994
330
988
100
AcDbEntity
  8
Defpoints
 62
     0
100
AcDbPoint
 10
230.9999999999999
 20
79.99999999999997
 30
0.0
  0
ENDBLK
  5
98A
330
988
100
AcDbEntity
  8
0
100
AcDbBlockEnd
  0
BLOCK
  5
996
330
995
100
AcDbEntity
  8
0
100
AcDbBlockBegin
  2
*D17
 70
     1
 10
0.0
 20
0.0
 30
0.0
  3
*D17
  1
*D17
  0
LINE
  5
998
330
995
100
AcDbEntity
  8
Dimensions
 62
     0
370
    -2
100
AcDbLine
 10
193.2500000000001
 20
60.0000000000001
 30
0.0
 11
239.6
 21
60.0000000000001
 31
0.0
  0
LINE
  5
999
330
995
100
AcDbEntity
  8
Dimensions
 62
     0
370
    -2
100
AcDbLine
 10
232.2500000000001
 20
-0.0000000000000996
 30
0.0
 11
239.6
 21
-0.0000000000001
 31
0.0
  0
LINE
  5
99A
330
995
100
AcDbEntity
  8
Dimensions
 62
     0
370
    -2
100
AcDbLine
 10
236.0
 20
56.4000000000001
 30
0.0
 11
236.0
 21
33.6
 31
0.0
  0
LINE
  5
99B
330
995
100
AcDbEntity
  8
Dimensions
 62
     0
370
    -2
100
AcDbLine
 10
236.0
 20
3.5999999999999
 30
0.0
 11
236.0
 21
26.4
 31
0.0
  0
SOLID
  5
99C
330
995
100
AcDbEntity
  8
Dimensions
 62
     0
100
AcDbTrace
 10
236.6
 20
56.4000000000001
 30
0.0
 11
235.4
 21
56.4000000000001
 31
0.0
 12
236.0
 22
60.0000000000001
 32
0.0
 13
236.0
 23
60.0000000000001
 33
0.0
  0
SOLID
  5
99D
330
995
100
AcDbEntity
  8
Dimensions
 62
     0
100
AcDbTrace
 10
235.4
 20
3.5999999999999
 30
0.0
 11
236.6
 21
3.5999999999999
 31
0.0
 12
236.0
 22
-0.0000000000000998
 32
0.0
 13
236.0
 23
-0.0000000000000998
 33
0.0
  0
MTEXT
  5
99E
330
995
100
AcDbEntity
  8
Dimensions
 62
     0
100
AcDbMText
 10
236.0
 20
30.0
 30
0.0
 40
3.6
 41
0.0
 46
0.0
 71
     5
 72
     1
  1
\A1;60.0000
 73
     1
 44
1.0
  0
POINT
  5
99F
330
995
100
AcDbEntity
  8
Defpoints
 62
     0
100
AcDbPoint
 10
192.0000000000001
 20
60.0000000000001
 30
0.0
  0
POINT
  5
9A0
330
995
100
AcDbEntity
  8
Defpoints
 62
     0
100
AcDbPoint
 10
231.0000000000001
 20
-0.0000000000000995
 30
0.0
  0
POINT
  5
9A1
330
995
100
AcDbEntity
  8
Defpoints
 62
     0
100
AcDbPoint
 10
236.0
 20
-0.0000000000000998
 30
0.0
  0
ENDBLK
  5
997
330
995
100
AcDbEntity
  8
0
100
AcDbBlockEnd
  0
BLOCK
  5
9A3
330
9A2
100
AcDbEntity
  8
0
100
AcDbBlockBegin
  2
*D18
 70
     1
 10
0.0
 20
0.0
 30
0.0
  3
*D18
  1
*D18
  0
LINE
  5
9A5
330
9A2
100
AcDbEntity
  8
Dimensions
 62
     0
370
    -2
100
AcDbLine
 10
272.6202711556675
 20
91.42490653194123
 30
0.0
 11
272.620271155667
 21
96.59999999999998
 31
0.0
  0
LINE
  5
9A6
330
9A2
100
AcDbEntity
  8
Dimensions
 62
     0
370
    -2
100
AcDbLine
 10
274.6202711556675
 20
91.42490653194142
 30
0.0
 11
274.620271155667
 21
96.60000000000016
 31
0.0
  0
LINE
  5
9A7
330
9A2
100
AcDbEntity
  8
Dimensions
 62
     0
370
    -2
100
AcDbLine
 10
269.0202711556673
 20
92.99999999999966
 30
0.0
 11
265.4202711556673
 21
92.99999999999933
 31
0.0
  0
LINE
  5
9A8
330
9A2
100
AcDbEntity
  8
Dimensions
 62
     0
370
    -2
100
AcDbLine
 10
278.2202711556673
 20
93.0000000000005
 30
0.0
 11
281.8202711556673
 21
93.00000000000082
 31
0.0
  0
SOLID
  5
9A9
330
9A2
100
AcDbEntity
  8
Dimensions
 62
     0
100
AcDbTrace
 10
269.0202711556673
 20
92.39999999999966
 30
0.0
 11
269.0202711556672
 21
93.59999999999965
 31
0.0
 12
272.6202711556673
 22
92.99999999999999
 32
0.0
 13
272.6202711556673
 23
92.99999999999999
 33
0.0
  0
SOLID
  5
9AA
330
9A2
100
AcDbEntity
  8
Dimensions
 62
     0
100
AcDbTrace
 10
278.2202711556673
 20
93.60000000000049
 30
0.0
 11
278.2202711556674
 21
92.4000000000005
 31
0.0
 12
274.6202711556673
 22
93.00000000000017
 32
0.0
 13
274.6202711556673
 23
93.00000000000017
 33
0.0
  0
MTEXT
  5
9AB
330
9A2
100
AcDbEntity
  8
Dimensions
 62
     0
100
AcDbMText
 10
273.6202711556676
 20
93.09375000000011
 30
0.0
 40
3.6
 41
0.0
 46
0.0
 71
     5
 72
     1
  1
\A1;2.0000
 73
     1
 44
1.0
  0
POINT
  5
9AC
330
9A2
100
AcDbEntity
  8
Defpoints
 62
     0
100
AcDbPoint
 10
272.6202711556676
 20
90.17490653194123
 30
0.0
  0
POINT
  5
9AD
330
9A2
100
AcDbEntity
  8
Defpoints
 62
     0
100
AcDbPoint
 10
274.6202711556676
 20
90.17490653194142
 30
0.0
  0
POINT
  5
9AE
330
9A2
100
AcDbEntity
  8
Defpoints
 62
     0
100
AcDbPoint
 10
274.6202711556673
 20
93.00000000000017
 30
0.0
  0
ENDBLK
  5
9A4
330
9A2
100
AcDbEntity
  8
0
100
AcDbBlockEnd
  0
BLOCK
  5
9B0
330
9AF
100
AcDbEntity
  8
0
100
AcDbBlockBegin
  2
*D19
 70
     1
 10
0.0
 20
0.0
 30
0.0
  3
*D19
  1
*D19
  0
LINE
  5
9B2
330
9AF
100
AcDbEntity
  8
Dimensions
 62
     0
370
    -2
100
AcDbLine
 10
275.8702711556676
 20
90.17490653194142
 30
0.0
 11
280.6
 21
90.17490653194142
 31
0.0
  0
LINE
  5
9B3
330
9AF
100
AcDbEntity
  8
Dimensions
 62
     0
370
    -2
100
AcDbLine
 10
275.8702711556676
 20
88.17490653194135
 30
0.0
 11
280.6
 21
88.17490653194135
 31
0.0
  0
LINE
  5
9B4
330
9AF
100
AcDbEntity
  8
Dimensions
 62
     0
370
    -2
100
AcDbLine
 10
277.0
 20
93.77490653194141
 30
0.0
 11
277.0
 21
97.3749065319414
 31
0.0
  0
LINE
  5
9B5
330
9AF
100
AcDbEntity
  8
Dimensions
 62
     0
370
    -2
100
AcDbLine
 10
277.0
 20
84.57490653194135
 30
0.0
 11
277.0
 21
80.97490653194136
 31
0.0
  0
SOLID
  5
9B6
330
9AF
100
AcDbEntity
  8
Dimensions
 62
     0
100
AcDbTrace
 10
276.4
 20
93.77490653194141
 30
0.0
 11
277.6
 21
93.77490653194141
 31
0.0
 12
277.0
 22
90.17490653194142
 32
0.0
 13
277.0
 23
90.17490653194142
 33
0.0
  0
SOLID
  5
9B7
330
9AF
100
AcDbEntity
  8
Dimensions
 62
     0
100
AcDbTrace
 10
277.6
 20
84.57490653194135
 30
0.0
 11
276.4
 21
84.57490653194135
 31
0.0
 12
277.0
 22
88.17490653194135
 32
0.0
 13
277.0
 23
88.17490653194135
 33
0.0
  0
MTEXT
  5
9B8
330
9AF
100
AcDbEntity
  8
Dimensions
 62
     0
100
AcDbMText
 10
276.90625
 20
89.17490653194145
 30
0.0
 40
3.6
 41
0.0
 46
0.0
 71
     5
 72
     1
  1
\A1;2.0000
 73
     1
 44
1.0
  0
POINT
  5
9B9
330
9AF
100
AcDbEntity
  8
Defpoints
 62
     0
100
AcDbPoint
 10
274.6202711556676
 20
90.17490653194142
 30
0.0
  0
POINT
  5
9BA
330
9AF
100
AcDbEntity
  8
Defpoints
 62
     0
100
AcDbPoint
 10
274.6202711556676
 20
88.17490653194135
 30
0.0
  0
POINT
  5
9BB
330
9AF
100
AcDbEntity
  8
Defpoints
 62
     0
100
AcDbPoint
 10
277.0
 20
88.17490653194135
 30
0.0
  0
ENDBLK
  5
9B1
330
9AF
100
AcDbEntity
  8
0
100
AcDbBlockEnd
  0
BLOCK
  5
9BD
330
9BC
100
AcDbEntity
  8
0
100
AcDbBlockBegin
  2
*D20
 70
     1
 10
0.0
 20
0.0
 30
0.0
  3
*D20
  1
*D20
  0
LINE
  5
9BF
330
9BC
100
AcDbEntity
  8
Dimensions
 62
     0
370
    -2
100
AcDbLine
 10
274.719891950022
 20
126.7817884090449
 30
0.0
 11
273.5883402720974
 21
121.860582574651
 31
0.0
  0
LINE
  5
9C0
330
9BC
100
AcDbEntity
  8
Dimensions
 62
     0
370
    -2
100
AcDbLine
 10
277.6435997683147
 20
126.1095290890976
 30
0.0
 11
276.5120480903901
 21
121.1883232547037
 31
0.0
  0
LINE
  5
9C1
330
9BC
100
AcDbEntity
  8
Dimensions
 62
     0
370
    -2
100
AcDbLine
 10
270.8866020740832
 20
126.1757431405386
 30
0.0
 11
267.3781526921323
 21
126.9824543244753
 31
0.0
  0
LINE
  5
9C2
330
9BC
100
AcDbEntity
  8
Dimensions
 62
     0
370
    -2
100
AcDbLine
 10
280.8272086562777
 20
123.8900614527179
 30
0.0
 11
284.3356580382285
 21
123.0833502687812
 31
0.0
  0
SOLID
  5
9C3
330
9BC
100
AcDbEntity
  8
Dimensions
 62
     0
100
AcDbTrace
 10
270.7521502100938
 20
125.5910015768801
 30
0.0
 11
271.0210539380727
 21
126.7604847041971
 31
0.0
 12
274.3950514560341
 22
125.3690319566019
 32
0.0
 13
274.3950514560341
 23
125.3690319566019
 33
0.0
  0
SOLID
  5
9C4
330
9BC
100
AcDbEntity
  8
Dimensions
 62
     0
100
AcDbTrace
 10
280.9616605202671
 20
124.4748030163764
 30
0.0
 11
280.6927567922882
 21
123.3053198890594
 31
0.0
 12
277.3187592743268
 22
124.6967726366546
 32
0.0
 13
277.3187592743268
 23
124.6967726366546
 33
0.0
  0
MTEXT
  5
9C5
330
9BC
100
AcDbEntity
  8
Dimensions
 62
     0
100
AcDbMText
 10
273.2350940173862
 20
113.6304418052879
 30
0.0
 40
3.6
 41
0.0
 46
0.0
 71
     5
 72
     1
  1
\A1;3.0000
 73
     1
 44
1.0
  0
POINT
  5
9C6
330
9BC
100
AcDbEntity
  8
Defpoints
 62
     0
100
AcDbPoint
 10
275.0
 20
128.0000000000001
 30
0.0
  0
POINT
  5
9C7
330
9BC
100
AcDbEntity
  8
Defpoints
 62
     0
100
AcDbPoint
 10
277.9237078182927
 20
127.3277406800528
 30
0.0
  0
POINT
  5
9C8
330
9BC
100
AcDbEntity
  8
Defpoints
 62
     0
100
AcDbPoint
 10
277.3187592743268
 20
124.6967726366546
 30
0.0
  0
ENDBLK
  5
9BE
330
9BC
100
AcDbEntity
  8
0
100
AcDbBlockEnd
  0
BLOCK
  5
9CA
330
9C9
100
AcDbEntity
  8
0
100
AcDbBlockBegin
  2
*D21
 70
     1
 10
0.0
 20
0.0
 30
0.0
  3
*D21
  1
*D21
  0
LINE
  5
9CC
330
9C9
100
AcDbEntity
  8
Dimensions
 62
     0
370
    -2
100
AcDbLine
 10
273.7795613556872
 20
128.2702397370264
 30
0.0
 11
268.7342982773411
 21
129.3874041056525
 31
0.0
  0
LINE
  5
9CD
330
9C9
100
AcDbEntity
  8
Dimensions
 62
     0
370
    -2
100
AcDbLine
 10
274.4281367245503
 20
131.1992924833771
 30
0.0
 11
269.3828736462042
 21
132.3164568520033
 31
0.0
  0
LINE
  5
9CE
330
9C9
100
AcDbEntity
  8
Dimensions
 62
     0
370
    -2
100
AcDbLine
 10
271.4708711303263
 20
125.0942503673961
 30
0.0
 11
270.6925806876906
 21
121.5793870717753
 31
0.0
  0
LINE
  5
9CF
330
9C9
100
AcDbEntity
  8
Dimensions
 62
     0
370
    -2
100
AcDbLine
 10
273.6760273844606
 20
135.0530297049884
 30
0.0
 11
274.4543178270962
 21
138.5678930006091
 31
0.0
  0
SOLID
  5
9D0
330
9C9
100
AcDbEntity
  8
Dimensions
 62
     0
100
AcDbTrace
 10
272.0566816795964
 20
124.9645352936235
 30
0.0
 11
270.8850605810561
 21
125.2239654411687
 31
0.0
 12
272.2491615729619
 22
128.6091136630168
 32
0.0
 13
272.2491615729619
 23
128.6091136630168
 33
0.0
  0
SOLID
  5
9D1
330
9C9
100
AcDbEntity
  8
Dimensions
 62
     0
100
AcDbTrace
 10
273.0902168351905
 20
135.182744778761
 30
0.0
 11
274.2618379337308
 21
134.9233146312158
 31
0.0
 12
272.897736941825
 22
131.5381664093676
 32
0.0
 13
272.897736941825
 23
131.5381664093676
 33
0.0
  0
MTEXT
  5
9D2
330
9C9
100
AcDbEntity
  8
Dimensions
 62
     0
100
AcDbMText
 10
264.6650068422467
 20
131.8247935321224
 30
0.0
 40
3.6
 41
0.0
 46
0.0
 71
     5
 72
     1
  1
\A1;3.0000
 73
     1
 44
1.0
  0
POINT
  5
9D3
330
9C9
100
AcDbEntity
  8
Defpoints
 62
     0
100
AcDbPoint
 10
275.0
 20
128.0000000000001
 30
0.0
  0
POINT
  5
9D4
330
9C9
100
AcDbEntity
  8
Defpoints
 62
     0
100
AcDbPoint
 10
275.6485753688631
 20
130.9290527463509
 30
0.0
  0
POINT
  5
9D5
330
9C9
100
AcDbEntity
  8
Defpoints
 62
     0
100
AcDbPoint
 10
272.897736941825
 20
131.5381664093676
 30
0.0
  0
ENDBLK
  5
9CB
330
9C9
100
AcDbEntity
  8
0
100
AcDbBlockEnd
  0
BLOCK
  5
9D7
330
9D6
100
AcDbEntity
  8
0
100
AcDbBlockBegin
  2
*D22
 70
     1
 10
0.0
 20
0.0
 30
0.0
  3
*D22
  1
*D22
  0
LINE
  5
9D9
330
9D6
100
AcDbEntity
  8
Dimensions
 62
     0
370
    -2
100
AcDbLine
 10
275.0588171591815
 20
169.3583199605638
 30
0.0
 11
272.1342361662093
 21
172.236523160689
 31
0.0
  0
LINE
  5
9DA
330
9D6
100
AcDbEntity
  8
Dimensions
 62
     0
370
    -2
100
AcDbLine
 10
272.9545183250972
 20
167.2201136054917
 30
0.0
 11
270.029937332125
 21
170.0983168056169
 31
0.0
  0
LINE
  5
9DB
330
9D6
100
AcDbEntity
  8
Dimensions
 62
     0
370
    -2
100
AcDbLine
 10
277.2252423931972
 20
172.2772121858744
 30
0.0
 11
279.7504009940984
 21
174.843059811961
 31
0.0
  0
LINE
  5
9DC
330
9D6
100
AcDbEntity
  8
Dimensions
 62
     0
370
    -2
100
AcDbLine
 10
270.0706263573103
 20
165.007310578629
 30
0.0
 11
267.5454677564091
 21
162.4414629525424
 31
0.0
  0
SOLID
  5
9DD
330
9D6
100
AcDbEntity
  8
Dimensions
 62
     0
100
AcDbTrace
 10
276.7976011221828
 20
172.6980719526912
 30
0.0
 11
277.6528836642116
 21
171.8563524190575
 31
0.0
 12
274.7000837922959
 22
169.7113645597877
 32
0.0
 13
274.7000837922959
 23
169.7113645597877
 33
0.0
  0
SOLID
  5
9DE
330
9D6
100
AcDbEntity
  8
Dimensions
 62
     0
100
AcDbTrace
 10
270.4982676283248
 20
164.5864508118121
 30
0.0
 11
269.6429850862959
 21
165.4281703454459
 31
0.0
 12
272.5957849582116
 22
167.5731582047156
 32
0.0
 13
272.5957849582116
 23
167.5731582047156
 33
0.0
  0
MTEXT
  5
9DF
330
9D6
100
AcDbEntity
  8
Dimensions
 62
     0
100
AcDbMText
 10
267.8747772165588
 20
174.3238682342795
 30
0.0
 40
3.6
 41
0.0
 46
0.0
 71
     5
 72
     1
  1
\A1;3.0000
 73
     1
 44
1.0
  0
POINT
  5
9E0
330
9D6
100
AcDbEntity
  8
Defpoints
 62
     0
100
AcDbPoint
 10
275.9497364737949
 20
168.4815287796953
 30
0.0
  0
POINT
  5
9E1
330
9D6
100
AcDbEntity
  8
Defpoints
 62
     0
100
AcDbPoint
 10
273.8454376397106
 20
166.3433224246232
 30
0.0
  0
POINT
  5
9E2
330
9D6
100
AcDbEntity
  8
Defpoints
 62
     0
100
AcDbPoint
 10
272.5957849582116
 20
167.5731582047156
 30
0.0
  0
ENDBLK
  5
9D8
330
9D6
100
AcDbEntity
  8
0
100
AcDbBlockEnd
  0
BLOCK
  5
9E4
330
9E3
100
AcDbEntity
  8
0
100
AcDbBlockBegin
  2
*D23
 70
     1
 10
0.0
 20
0.0
 30
0.0
  3
*D23
  1
*D23
  0
LINE
  5
9E6
330
9E3
100
AcDbEntity
  8
Dimensions
 62
     0
370
    -2
100
AcDbLine
 10
272.9585167336068
 20
165.4624868518198
 30
0.0
 11
270.1972852262571
 21
162.7202006798731
 31
0.0
  0
LINE
  5
9E7
330
9E3
100
AcDbEntity
  8
Dimensions
 62
     0
370
    -2
100
AcDbLine
 10
275.0725221083347
 20
163.3338766771707
 30
0.0
 11
272.311290600985
 21
160.591590505224
 31
0.0
  0
LINE
  5
9E8
330
9E3
100
AcDbEntity
  8
Dimensions
 62
     0
370
    -2
100
AcDbLine
 10
270.2148109861624
 20
167.811339339126
 30
0.0
 11
267.6780045364886
 21
170.3656715487052
 31
0.0
  0
LINE
  5
9E9
330
9E3
100
AcDbEntity
  8
Dimensions
 62
     0
370
    -2
100
AcDbLine
 10
277.402429260238
 20
160.5740647453186
 30
0.0
 11
279.9392357099118
 21
158.0197325357395
 31
0.0
  0
SOLID
  5
9EA
330
9E3
100
AcDbEntity
  8
Dimensions
 62
     0
100
AcDbTrace
 10
269.7890889512326
 20
167.3885382641804
 30
0.0
 11
270.6405330210923
 21
168.2341404140716
 31
0.0
 12
272.7516174358362
 22
165.2570071295469
 32
0.0
 13
272.7516174358362
 23
165.2570071295469
 33
0.0
  0
SOLID
  5
9EB
330
9E3
100
AcDbEntity
  8
Dimensions
 62
     0
100
AcDbTrace
 10
277.8281512951679
 20
160.9968658202642
 30
0.0
 11
276.9767072253082
 21
160.151263670373
 31
0.0
 12
274.8656228105642
 22
163.1283969548978
 32
0.0
 13
274.8656228105642
 23
163.1283969548978
 33
0.0
  0
MTEXT
  5
9EC
330
9E3
100
AcDbEntity
  8
Dimensions
 62
     0
100
AcDbMText
 10
265.5070404420679
 20
155.9480810807826
 30
0.0
 40
3.6
 41
0.0
 46
0.0
 71
     5
 72
     1
  1
\A1;3.0000
 73
     1
 44
1.0
  0
POINT
  5
9ED
330
9E3
100
AcDbEntity
  8
Defpoints
 62
     0
100
AcDbPoint
 10
273.8454376397106
 20
166.3433224246232
 30
0.0
  0
POINT
  5
9EE
330
9E3
100
AcDbEntity
  8
Defpoints
 62
     0
100
AcDbPoint
 10
275.9594430144386
 20
164.2147122499741
 30
0.0
  0
POINT
  5
9EF
330
9E3
100
AcDbEntity
  8
Defpoints
 62
     0
100
AcDbPoint
 10
274.8656228105642
 20
163.1283969548978
 30
0.0
  0
ENDBLK
  5
9E5
330
9E3
100
AcDbEntity
  8
0
100
AcDbBlockEnd
  0
BLOCK
  5
9F1
330
9F0
100
AcDbEntity
  8
0
100
AcDbBlockBegin
  2
*D24
 70
     1
 10
0.0
 20
0.0
 30
0.0
  3
*D24
  1
*D24
  0
LINE
  5
9F3
330
9F0
100
AcDbEntity
  8
Dimensions
 62
     0
370
    -2
100
AcDbLine
 10
96.34632476732556
 20
195.0079253021892
 30
0.0
 11
99.94632476732555
 21
195.0079253021892
 31
0.0
  0
LINE
  5
9F4
330
9F0
100
AcDbEntity
  8
Dimensions
 62
     0
370
    -2
100
AcDbLine
 10
103.2598773829017
 20
196.4151811651398
 30
0.0
 11
99.94632476732555
 21
195.0079253021892
 31
0.0
  0
MTEXT
  5
9F5
330
9F0
100
AcDbEntity
  8
Dimensions
 62
     0
100
AcDbMText
 10
80.48918191018271
 20
195.0079253021892
 30
0.0
 40
3.6
 41
0.0
 46
0.0
 71
     5
 72
     1
  1
\A1;R120.5000
 73
     1
 44
1.0
  0
SOLID
  5
9F6
330
9F0
100
AcDbEntity
  8
Dimensions
 62
     0
100
AcDbTrace
 10
103.4944200267268
 20
195.8629223958771
 30
0.0
 11
103.0253347390766
 21
196.9674399344025
 31
0.0
 12
106.5734299984778
 22
197.8224370280904
 32
0.0
 13
106.5734299984778
 23
197.8224370280904
 33
0.0
  0
LINE
  5
9F7
330
9F0
100
AcDbEntity
  8
Dimensions
 62
     0
100
AcDbLine
 10
215.6853994920669
 20
244.9264179962966
 30
0.0
 11
219.285399492067
 21
244.9264179962966
 31
0.0
  0
LINE
  5
9F8
330
9F0
100
AcDbEntity
  8
Dimensions
 62
     0
100
AcDbLine
 10
217.485399492067
 20
243.1264179962966
 30
0.0
 11
217.485399492067
 21
246.7264179962966
 31
0.0
  0
POINT
  5
9F9
330
9F0
100
AcDbEntity
  8
Defpoints
 62
     0
100
AcDbPoint
 10
106.5734299984778
 20
197.8224370280904
 30
0.0
  0
POINT
  5
9FA
330
9F0
100
AcDbEntity
  8
Defpoints
 62
     0
100
AcDbPoint
 10
217.485399492067
 20
244.9264179962966
 30
0.0
  0
ENDBLK
  5
9F2
330
9F0
100
AcDbEntity
  8
0
100
AcDbBlockEnd
  0
BLOCK
  5
9FC
330
9FB
100
AcDbEntity
  8
0
100
AcDbBlockBegin
  2
*D25
 70
     1
 10
0.0
 20
0.0
 30
0.0
  3
*D25
  1
*D25
  0
LINE
  5
9FE
330
9FB
100
AcDbEntity
  8
Dimensions
 62
     0
370
    -2
100
AcDbLine
 10
96.92871176856175
 20
210.2719133538607
 30
0.0
 11
93.32871176856176
 21
210.2719133538607
 31
0.0
  0
LINE
  5
9FF
330
9FB
100
AcDbEntity
  8
Dimensions
 62
     0
370
    -2
100
AcDbLine
 10
92.73295640845078
 20
213.8222760889765
 30
0.0
 11
93.32871176856176
 21
210.2719133538607
 31
0.0
  0
MTEXT
  5
A00
330
9FB
100
AcDbEntity
  8
Dimensions
 62
     0
100
AcDbMText
 10
112.7858546257046
 20
210.2719133538607
 30
0.0
 40
3.6
 41
0.0
 46
0.0
 71
     5
 72
     1
  1
\A1;R132.5000
 73
     1
 44
1.0
  0
SOLID
  5
A01
330
9FB
100
AcDbEntity
  8
Dimensions
 62
     0
100
AcDbTrace
 10
93.32468353097008
 20
213.921568648995
 30
0.0
 11
92.14122928593147
 21
213.722983528958
 31
0.0
 12
92.13720104833979
 22
217.3726388240923
 32
0.0
 13
92.13720104833979
 23
217.3726388240923
 33
0.0
  0
LINE
  5
A02
330
9FB
100
AcDbEntity
  8
Dimensions
 62
     0
100
AcDbLine
 10
68.41009404425496
 20
348.0457117137715
 30
0.0
 11
72.01009404425496
 21
348.0457117137715
 31
0.0
  0
LINE
  5
A03
330
9FB
100
AcDbEntity
  8
Dimensions
 62
     0
100
AcDbLine
 10
70.21009404425496
 20
346.2457117137715
 30
0.0
 11
70.21009404425496
 21
349.8457117137715
 31
0.0
  0
POINT
  5
A04
330
9FB
100
AcDbEntity
  8
Defpoints
 62
     0
100
AcDbPoint
 10
92.13720104833979
 20
217.3726388240923
 30
0.0
  0
POINT
  5
A05
330
9FB
100
AcDbEntity
  8
Defpoints
 62
     0
100
AcDbPoint
 10
70.21009404425496
 20
348.0457117137715
 30
0.0
  0
ENDBLK
  5
9FD
330
9FB
100
AcDbEntity
  8
0
100
AcDbBlockEnd
  0
BLOCK
  5
A07
330
A06
100
AcDbEntity
  8
0
100
AcDbBlockBegin
  2
*D26
 70
     1
 10
0.0
 20
0.0
 30
0.0
  3
*D26
  1
*D26
  0
LINE
  5
A09
330
A06
100
AcDbEntity
  8
Dimensions
 62
     0
370
    -2
100
AcDbLine
 10
212.0923974809033
 20
6.528091236641703
 30
0.0
 11
215.6923974809033
 21
6.528091236641703
 31
0.0
  0
LINE
  5
A0A
330
A06
100
AcDbEntity
  8
Dimensions
 62
     0
370
    -2
100
AcDbLine
 10
218.8461987404516
 20
8.264045618320852
 30
0.0
 11
215.6923974809033
 21
6.528091236641703
 31
0.0
  0
MTEXT
  5
A0B
330
A06
100
AcDbEntity
  8
Dimensions
 62
     0
100
AcDbMText
 10
196.2352546237603
 20
6.528091236641704
 30
0.0
 40
3.6
 41
0.0
 46
0.0
 71
     5
 72
     1
  1
\A1;R120.0000
 73
     1
 44
1.0
  0
SOLID
  5
A0C
330
A06
100
AcDbEntity
  8
Dimensions
 62
     0
100
AcDbTrace
 10
219.1355244707315
 20
7.738412075062788
 30
0.0
 11
218.5568730101718
 21
8.789679161578915
 31
0.0
 12
222.0
 22
10.0
 32
0.0
 13
222.0
 23
10.0
 33
0.0
  0
LINE
  5
A0D
330
A06
100
AcDbEntity
  8
Dimensions
 62
     0
100
AcDbLine
 10
325.3267086516128
 20
67.8651460559716
 30
0.0
 11
328.9267086516128
 21
67.8651460559716
 31
0.0
  0
LINE
  5
A0E
330
A06
100
AcDbEntity
  8
Dimensions
 62
     0
100
AcDbLine
 10
327.1267086516128
 20
66.06514605597161
 30
0.0
 11
327.1267086516128
 21
69.6651460559716
 31
0.0
  0
POINT
  5
A0F
330
A06
100
AcDbEntity
  8
Defpoints
 62
     0
100
AcDbPoint
 10
222.0
 20
10.0
 30
0.0
  0
POINT
  5
A10
330
A06
100
AcDbEntity
  8
Defpoints
 62
     0
100
AcDbPoint
 10
327.1267086516128
 20
67.8651460559716
 30
0.0
  0
ENDBLK
  5
A08
330
A06
100
AcDbEntity
  8
0
100
AcDbBlockEnd
  0
BLOCK
  5
A12
330
A11
100
AcDbEntity
  8
0
100
AcDbBlockBegin
  2
*D27
 70
     1
 10
0.0
 20
0.0
 30
0.0
  3
*D27
  1
*D27
  0
LINE
  5
A14
330
A11
100
AcDbEntity
  8
Dimensions
 62
     0
370
    -2
100
AcDbLine
 10
139.1903387165282
 20
50.67755399280123
 30
0.0
 11
142.7903387165282
 21
50.67755399280123
 31
0.0
  0
LINE
  5
A15
330
A11
100
AcDbEntity
  8
Dimensions
 62
     0
370
    -2
100
AcDbLine
 10
143.2871403014455
 20
54.24310979592977
 30
0.0
 11
142.7903387165282
 21
50.67755399280123
 31
0.0
  0
MTEXT
  5
A16
330
A11
100
AcDbEntity
  8
Dimensions
 62
     0
100
AcDbMText
 10
123.3331958593853
 20
50.67755399280124
 30
0.0
 40
3.6
 41
0.0
 46
0.0
 71
     5
 72
     1
  1
\A1;R132.0000
 73
     1
 44
1.0
  0
SOLID
  5
A17
330
A11
100
AcDbEntity
  8
Dimensions
 62
     0
100
AcDbTrace
 10
143.881399601967
 20
54.16030953177687
 30
0.0
 11
142.6928810009241
 21
54.32591006008266
 31
0.0
 12
143.7839418863629
 22
57.80866559905831
 32
0.0
 13
143.7839418863629
 23
57.80866559905831
 33
0.0
  0
LINE
  5
A18
330
A11
100
AcDbEntity
  8
Dimensions
 62
     0
100
AcDbLine
 10
160.1999999999998
 20
188.5457117137714
 30
0.0
 11
163.7999999999998
 21
188.5457117137714
 31
0.0
  0
LINE
  5
A19
330
A11
100
AcDbEntity
  8
Dimensions
 62
     0
100
AcDbLine
 10
161.9999999999998
 20
186.7457117137714
 30
0.0
 11
161.9999999999998
 21
190.3457117137714
 31
0.0
  0
POINT
  5
A1A
330
A11
100
AcDbEntity
  8
Defpoints
 62
     0
100
AcDbPoint
 10
143.7839418863629
 20
57.80866559905831
 30
0.0
  0
POINT
  5
A1B
330
A11
100
AcDbEntity
  8
Defpoints
 62
     0
100
AcDbPoint
 10
161.9999999999998
 20
188.5457117137714
 30
0.0
  0
ENDBLK
  5
A13
330
A11
100
AcDbEntity
  8
0
100
AcDbBlockEnd
  0
BLOCK
  5
A1D
330
A1C
100
AcDbEntity
  8
0
100
AcDbBlockBegin
  2
*D28
 70
     1
 10
0.0
 20
0.0
 30
0.0
  3
*D28
  1
*D28
  0
LINE
  5
A1F
330
A1C
100
AcDbEntity
  8
Dimensions
 62
     0
370
    -2
100
AcDbLine
 10
287.6278080423633
 20
166.9427663195632
 30
0.0
 11
284.0278080423633
 21
166.9427663195632
 31
0.0
  0
LINE
  5
A20
330
A1C
100
AcDbEntity
  8
Dimensions
 62
     0
370
    -2
100
AcDbLine
 10
280.4340302531917
 20
166.7311978860549
 30
0.0
 11
284.0278080423633
 21
166.9427663195632
 31
0.0
  0
MTEXT
  5
A21
330
A1C
100
AcDbEntity
  8
Dimensions
 62
     0
100
AcDbMText
 10
300.0563794709347
 20
166.9427663195632
 30
0.0
 40
3.6
 41
0.0
 46
0.0
 71
     5
 72
     1
  1
\A1;R3.0000
 73
     1
 44
1.0
  0
SOLID
  5
A22
330
A1C
100
AcDbEntity
  8
Dimensions
 62
     0
100
AcDbTrace
 10
280.398768847607
 20
167.3301608509169
 30
0.0
 11
280.4692916587765
 21
166.132234921193
 31
0.0
 12
276.8402524640202
 22
166.5196294525466
 32
0.0
 13
276.8402524640202
 23
166.5196294525466
 33
0.0
  0
LINE
  5
A23
330
A1C
100
AcDbEntity
  8
Dimensions
 62
     0
100
AcDbLine
 10
272.0454376397106
 20
166.343322424623
 30
0.0
 11
275.6454376397106
 21
166.343322424623
 31
0.0
  0
LINE
  5
A24
330
A1C
100
AcDbEntity
  8
Dimensions
 62
     0
100
AcDbLine
 10
273.8454376397106
 20
164.543322424623
 30
0.0
 11
273.8454376397106
 21
168.143322424623
 31
0.0
  0
POINT
  5
A25
330
A1C
100
AcDbEntity
  8
Defpoints
 62
     0
100
AcDbPoint
 10
276.8402524640202
 20
166.5196294525466
 30
0.0
  0
POINT
  5
A26
330
A1C
100
AcDbEntity
  8
Defpoints
 62
     0
100
AcDbPoint
 10
273.8454376397106
 20
166.343322424623
 30
0.0
  0
ENDBLK
  5
A1E
330
A1C
100
AcDbEntity
  8
0
100
AcDbBlockEnd
  0
BLOCK
  5
A28
330
A27
100
AcDbEntity
  8
0
100
AcDbBlockBegin
  2
*D29
 70
     1
 10
0.0
 20
0.0
 30
0.0
  3
*D29
  1
*D29
  0
LINE
  5
A2A
330
A27
100
AcDbEntity
  8
Dimensions
 62
     0
370
    -2
100
AcDbLine
 10
286.9000814063087
 20
133.9286295759348
 30
0.0
 11
283.3000814063087
 21
133.9286295759348
 31
0.0
  0
LINE
  5
A2B
330
A27
100
AcDbEntity
  8
Dimensions
 62
     0
370
    -2
100
AcDbLine
 10
280.3706409099644
 20
131.836172078546
 30
0.0
 11
283.3000814063087
 21
133.9286295759348
 31
0.0
  0
MTEXT
  5
A2C
330
A27
100
AcDbEntity
  8
Dimensions
 62
     0
100
AcDbMText
 10
299.3286528348801
 20
133.9286295759348
 30
0.0
 40
3.6
 41
0.0
 46
0.0
 71
     5
 72
     1
  1
\A1;R3.0000
 73
     1
 44
1.0
  0
SOLID
  5
A2D
330
A27
100
AcDbEntity
  8
Dimensions
 62
     0
100
AcDbTrace
 10
280.021897993733
 20
132.3244121612701
 30
0.0
 11
280.7193838261959
 21
131.347931995822
 31
0.0
 12
277.4412004136202
 22
129.7437145811573
 32
0.0
 13
277.4412004136202
 23
129.7437145811573
 33
0.0
  0
LINE
  5
A2E
330
A27
100
AcDbEntity
  8
Dimensions
 62
     0
100
AcDbLine
 10
273.2
 20
128.0
 30
0.0
 11
276.8
 21
128.0
 31
0.0
  0
LINE
  5
A2F
330
A27
100
AcDbEntity
  8
Dimensions
 62
     0
100
AcDbLine
 10
275.0
 20
126.2
 30
0.0
 11
275.0
 21
129.8
 31
0.0
  0
POINT
  5
A30
330
A27
100
AcDbEntity
  8
Defpoints
 62
     0
100
AcDbPoint
 10
277.4412004136202
 20
129.7437145811573
 30
0.0
  0
POINT
  5
A31
330
A27
100
AcDbEntity
  8
Defpoints
 62
     0
100
AcDbPoint
 10
275.0
 20
128.0
 30
0.0
  0
ENDBLK
  5
A29
330
A27
100
AcDbEntity
  8
0
100
AcDbBlockEnd
  0
ENDSEC
  0
SECTION
  2
ENTITIES
  0
LINE
  5
139
330
7FF
100
AcDbEntity
  8
CutSize
 62
     7
420
 16777215
100
AcDbLine
 10
132.0
 20
60.0
 30
0.0
 11
0.0
 21
60.0
 31
0.0
  0
LINE
  5
143
330
7FF
100
AcDbEntity
  8
CutSize
 62
     7
420
 16777215
100
AcDbLine
 10
99.00000000000006
 20
-0.000000000000071
 30
0.0
 11
231.0
 21
0.0
 31
0.0
  0
ARC
  5
13A
330
7FF
100
AcDbEntity
  8
CutSize
 62
     7
420
 16777215
100
AcDbCircle
 10
216.2753054478121
 20
-25.42641799629659
 30
0.0
 40
120.0
100
AcDbArc
 50
134.6113599913775
 51
167.7670525226763
  0
ARC
  5
144
330
7FF
100
AcDbEntity
  8
CutSize
 62
     7
420
 16777215
100
AcDbCircle
 10
14.72469455218814
 20
85.42641799629685
 30
0.0
 40
120.0
100
AcDbArc
 50
314.6113599913775
 51
347.7670525226763
  0
ARC
  5
162
330
7FF
100
AcDbEntity
  8
Reinforcements
 62
     7
420
 16777215
100
AcDbCircle
 10
354.7561199066542
 20
82.81494903396917
 30
0.0
 40
120.0
100
AcDbArc
 50
134.0865496193202
 51
135.5189814117104
  0
ARC
  5
165
330
7FF
100
AcDbEntity
  8
Reinforcements
 62
     7
420
 16777215
100
AcDbCircle
 10
189.7646855077639
 20
80.72540887304115
 30
0.0
 40
120.0
100
AcDbArc
 50
44.08654961932027
 51
45.51898141171036
  0
ARC
  5
152
330
7FF
100
AcDbEntity
  8
Reinforcements
 62
     7
420
 16777215
100
AcDbCircle
 10
152.5783360208947
 20
149.5241215540344
 30
0.0
 40
120.0
100
AcDbArc
 50
346.3346207302863
 51
347.7670525226763
  0
ARC
  5
155
330
7FF
100
AcDbEntity
  8
Reinforcements
 62
     7
420
 16777215
100
AcDbCircle
 10
249.5735820037034
 20
10.724694552188
 30
0.0
 40
120.0
100
AcDbArc
 50
76.33462073028633
 51
77.76705252267627
  0
ARC
  5
169
330
7FF
100
AcDbEntity
  8
Reinforcements
 62
     7
420
 16777215
100
AcDbCircle
 10
385.7653113291088
 20
95.1162824348072
 30
0.0
 40
120.0
100
AcDbArc
 50
165.9470858790409
 51
167.3795176714308
  0
ARC
  5
168
330
7FF
100
AcDbEntity
  8
Reinforcements
 62
     7
420
 16777215
100
AcDbCircle
 10
240.3248431551037
 20
8.350960040903573
 30
0.0
 40
120.0
100
AcDbArc
 50
75.94708587904088
 51
77.37951767143082
  0
ARC
  5
13C
330
7FF
100
AcDbEntity
  8
CutSize
 62
     7
420
 16777215
100
AcDbCircle
 10
-84.27530544781204
 20
-25.42641799629656
 30
0.0
 40
120.0
100
AcDbArc
 50
12.23294747732368
 51
45.3886400086224
  0
ARC
  5
145
330
7FF
100
AcDbEntity
  8
CutSize
 62
     7
420
 16777215
100
AcDbCircle
 10
315.2753054478121
 20
85.42641799629651
 30
0.0
 40
120.0
100
AcDbArc
 50
192.2329474773237
 51
225.3886400086224
  0
ARC
  5
166
330
7FF
100
AcDbEntity
  8
Reinforcements
 62
     7
420
 16777215
100
AcDbCircle
 10
189.3760150097538
 20
251.5778027747828
 30
0.0
 40
120.0
100
AcDbArc
 50
314.7417013944655
 51
316.1741331868554
  0
ARC
  5
163
330
7FF
100
AcDbEntity
  8
Reinforcements
 62
     7
420
 16777215
100
AcDbCircle
 10
183.9037260049125
 20
82.42627853595911
 30
0.0
 40
120.0
100
AcDbArc
 50
44.74170139446552
 51
46.17413318685545
  0
ARC
  5
13E
330
7FF
100
AcDbEntity
  8
CutSize
 62
     7
420
 16777215
100
AcDbCircle
 10
65.99999999999997
 20
-141.4002828851488
 30
0.0
 40
145.2000000000004
100
AcDbArc
 50
76.86344121305515
 51
103.1365587869448
  0
ARC
  5
146
330
7FF
100
AcDbEntity
  8
CutSize
 62
     7
420
 16777215
100
AcDbCircle
 10
164.9999999999999
 20
201.400282885149
 30
0.0
 40
145.2000000000005
100
AcDbArc
 50
256.8634412130552
 51
283.1365587869448
  0
ARC
  5
156
330
7FF
100
AcDbEntity
  8
Reinforcements
 62
     7
420
 16777215
100
AcDbCircle
 10
146.4542882862287
 20
157.9999999999998
 30
0.0
 40
132.0
100
AcDbArc
 50
346.8634412130552
 51
348.165646047299
  0
ARC
  5
153
330
7FF
100
AcDbEntity
  8
Reinforcements
 62
     7
420
 16777215
100
AcDbCircle
 10
299.8536414687064
 20
252.6434152715092
 30
0.0
 40
132.0
100
AcDbArc
 50
256.8634412130552
 51
258.165646047299
  0
ARC
  5
16A
330
7FF
100
AcDbEntity
  8
Reinforcements
 62
     7
420
 16777215
100
AcDbCircle
 10
299.3852754160923
 20
252.7934644466731
 30
0.0
 40
132.0
100
AcDbArc
 50
255.5484923544182
 51
256.850697188662
  0
ARC
  5
16B
330
7FF
100
AcDbEntity
  8
Reinforcements
 62
     7
420
 16777215
100
AcDbCircle
 10
398.0020251669695
 20
94.73099595392023
 30
0.0
 40
132.0
100
AcDbArc
 50
165.5484923544182
 51
166.850697188662
  0
MTEXT
  5
124
330
7FF
100
AcDbEntity
  8
0
100
AcDbMText
 10
230.0
 20
220.0
 30
0.0
 40
0.0684343
 41
0.0
 46
0.0
 71
     5
 72
     1
  1
\H3;Hummingbird Hammocks\PHeron Tarp V1.5
  7
textstyle11
 73
     1
 44
1.0
  0
MTEXT
  5
125
330
7FF
100
AcDbEntity
  8
0
100
AcDbMText
 10
229.7851762931257
 20
207.5761620591473
 30
0.0
 40
0.0684343
 41
0.0
 46
0.0
 71
     5
 72
     1
  1
\fHelvetica Neue,Helvetica,Arial,sans-serif|b0|i0|c0|p0;\c3618615;\H1.99926;This work is licensed under a \P\c13730329;Creative Commons Attribution-ShareAlike 4.0 International License
  7
textstyle12
 73
     1
 44
1.0
  0
ARC
  5
154
330
7FF
100
AcDbEntity
  8
Reinforcements
 62
     7
420
 16777215
100
AcDbCircle
 10
269.8536414687067
 20
124.0977035577378
 30
0.0
 40
3.0
100
AcDbArc
 50
257.0508366264812
 51
347.5145436301771
  0
ARC
  5
157
330
7FF
100
AcDbEntity
  8
Reinforcements
 62
     7
420
 16777215
100
AcDbCircle
 10
275.0
 20
128.0
 30
0.0
 40
3.0
100
AcDbArc
 50
347.0508366264812
 51
77.51454363017719
  0
ARC
  5
16D
330
7FF
100
AcDbEntity
  8
Reinforcements
 62
     7
420
 16777215
100
AcDbCircle
 10
269.4629893884802
 20
124.7595870153781
 30
0.0
 40
3.0
100
AcDbArc
 50
76.19959477153998
 51
166.663301775236
  0
ARC
  5
16C
330
7FF
100
AcDbEntity
  8
Reinforcements
 62
     7
420
 16777215
100
AcDbCircle
 10
269.3566843546344
 20
124.2544286681839
 30
0.0
 40
3.0
100
AcDbArc
 50
166.19959477154
 51
256.6633017752358
  0
ARC
  5
164
330
7FF
100
AcDbEntity
  8
Reinforcements
 62
     7
420
 16777215
100
AcDbCircle
 10
269.1382063550723
 20
166.8957011659157
 30
0.0
 40
3.0
100
AcDbArc
 50
44.80276551551536
 51
135.4579172906607
  0
ARC
  5
167
330
7FF
100
AcDbEntity
  8
Reinforcements
 62
     7
420
 16777215
100
AcDbCircle
 10
273.8454376397106
 20
166.343322424623
 30
0.0
 40
3.0
100
AcDbArc
 50
314.8027655155154
 51
45.4579172906607
  0
LINE
  5
6EC
330
7FF
100
AcDbEntity
  8
BagCutSize
 62
     7
420
 16777215
100
AcDbLine
 10
197.0
 20
130.0
 30
0.0
 11
203.03125
 21
130.0
 31
0.0
  0
ARC
  5
1B5
330
7FF
100
AcDbEntity
  8
FinishedTarp
 62
     7
420
 16777215
100
AcDbCircle
 10
100.2100940442551
 20
219.5000000000004
 30
0.0
 40
3.0
100
AcDbArc
 50
206.9845376362145
 51
268.4478269532246
  0
LINE
  5
6ED
330
7FF
100
AcDbEntity
  8
BagCutSize
 62
     7
420
 16777215
100
AcDbLine
 10
197.0
 20
130.0
 30
0.0
 11
197.03125
 21
109.5
 31
0.0
  0
ARC
  5
1D6
330
7FF
100
AcDbEntity
  8
FinishedTarp
 62
     7
420
 16777215
100
AcDbCircle
 10
31.78990595574496
 20
100.4999999999998
 30
0.0
 40
3.0
100
AcDbArc
 50
26.98453763621452
 51
88.44782695322456
  0
LINE
  5
6EE
330
7FF
100
AcDbEntity
  8
BagCutSize
 62
     7
420
 16777215
100
AcDbLine
 10
197.03125
 20
109.5
 30
0.0
 11
203.03125
 21
109.5
 31
0.0
  0
ARC
  5
1D7
330
7FF
100
AcDbEntity
  8
FinishedTarp
 62
     7
420
 16777215
100
AcDbCircle
 10
100.2100940442551
 20
100.4999999999999
 30
0.0
 40
3.0
100
AcDbArc
 50
91.55217304677542
 51
153.0154623637856
  0
ARC
  5
1C1
330
7FF
100
AcDbEntity
  8
FinishedTarp
 62
     7
420
 16777215
100
AcDbCircle
 10
31.78990595574488
 20
219.5000000000002
 30
0.0
 40
3.0
100
AcDbArc
 50
271.5521730467754
 51
333.0154623637856
  0
MTEXT
  5
170
330
7FF
100
AcDbEntity
  8
Labels
100
AcDbMText
 10
70.21009404425504
 20
121.8672910838614
 30
0.0
 40
0.0684343
 41
0.0
 46
0.0
 71
     5
 72
     1
  1
\H3;Tarp Finished Size
  7
textstyle13
 73
     1
 44
1.0
  0
MTEXT
  5
171
330
7FF
100
AcDbEntity
  8
Labels
100
AcDbMText
 10
66.0
 20
19.99999999999997
 30
0.0
 40
0.0684343
 41
0.0
 46
0.0
 71
     5
 72
     1
  1
\H3;Tarp Cut Size
  7
textstyle14
 73
     1
 44
1.0
  0
MTEXT
  5
172
330
7FF
100
AcDbEntity
  8
Labels
100
AcDbMText
 10
270.0
 20
140.0
 30
0.0
 40
0.0684343
 41
0.0
 46
0.0
 71
     5
 72
     1
  1
\H3;Corner Reinforcements
  7
textstyle15
 73
     1
 44
1.0
  0
MTEXT
  5
173
330
7FF
100
AcDbEntity
  8
Labels
100
AcDbMText
 10
270.0
 20
180.0
 30
0.0
 40
0.0684343
 41
0.0
 46
0.0
 71
     5
 72
     1
  1
\H3;Center Reinforcements
  7
textstyle16
 73
     1
 44
1.0
  0
MTEXT
  5
174
330
7FF
100
AcDbEntity
  8
Labels
100
AcDbMText
 10
270.0
 20
100.0000000000001
 30
0.0
 40
0.0684343
 41
0.0
 46
0.0
 71
     5
 72
     1
  1
\H3;Pullout Reinforcements
  7
textstyle17
 73
     1
 44
1.0
  0
LINE
  5
1D9
330
7FF
100
AcDbEntity
  8
FinishedTarp
 62
     7
420
 16777215
100
AcDbLine
 10
90.210094044255
 20
135.0857864376268
 30
0.0
 11
88.7958804818819
 21
136.4999999999999
 31
0.0
  0
LINE
  5
1D8
330
7FF
100
AcDbEntity
  8
FinishedTarp
 62
     7
420
 16777215
100
AcDbLine
 10
40.78990595574493
 20
135.0857864376268
 30
0.0
 11
39.37569239337182
 21
136.4999999999999
 31
0.0
  0
LINE
  5
175
330
7FF
100
AcDbEntity
  8
Reinforcements
 62
     7
420
 16777215
100
AcDbLine
 10
267.6202711556676
 20
83.17490653194133
 30
0.0
 11
267.6202711556676
 21
85.17490653194133
 31
0.0
  0
LINE
  5
17A
330
7FF
100
AcDbEntity
  8
Reinforcements
 62
     7
420
 16777215
100
AcDbLine
 10
270.6202711556676
 20
83.17490653194133
 30
0.0
 11
270.6202711556676
 21
85.17490653194133
 31
0.0
  0
LINE
  5
17E
330
7FF
100
AcDbEntity
  8
Reinforcements
 62
     7
420
 16777215
100
AcDbLine
 10
267.6202711556676
 20
86.17490653194133
 30
0.0
 11
267.6202711556676
 21
88.17490653194133
 31
0.0
  0
LINE
  5
192
330
7FF
100
AcDbEntity
  8
FinishedTarp
 62
     7
420
 16777215
100
AcDbLine
 10
41.78990595574494
 20
184.9142135623734
 30
0.0
 11
43.20411951811799
 21
183.5000000000001
 31
0.0
  0
LINE
  5
196
330
7FF
100
AcDbEntity
  8
FinishedTarp
 62
     7
420
 16777215
100
AcDbLine
 10
91.21009404425496
 20
184.9142135623732
 30
0.0
 11
92.62430760662807
 21
183.4999999999998
 31
0.0
  0
LINE
  5
182
330
7FF
100
AcDbEntity
  8
Reinforcements
 62
     7
420
 16777215
100
AcDbLine
 10
272.6202711556676
 20
88.17490653194133
 30
0.0
 11
272.6202711556676
 21
90.17490653194133
 31
0.0
  0
LINE
  5
1DA
330
7FF
100
AcDbEntity
  8
FinishedTarp
 62
     7
420
 16777215
100
AcDbLine
 10
88.7958804818819
 20
136.4999999999999
 30
0.0
 11
90.210094044255
 21
137.914213562373
 31
0.0
  0
LINE
  5
1DB
330
7FF
100
AcDbEntity
  8
FinishedTarp
 62
     7
420
 16777215
100
AcDbLine
 10
39.37569239337182
 20
136.4999999999999
 30
0.0
 11
40.78990595574493
 21
137.914213562373
 31
0.0
  0
LINE
  5
176
330
7FF
100
AcDbEntity
  8
Reinforcements
 62
     7
420
 16777215
100
AcDbLine
 10
267.6202711556676
 20
85.17490653194133
 30
0.0
 11
269.6202711556676
 21
85.17490653194133
 31
0.0
  0
LINE
  5
17B
330
7FF
100
AcDbEntity
  8
Reinforcements
 62
     7
420
 16777215
100
AcDbLine
 10
270.6202711556676
 20
85.17490653194133
 30
0.0
 11
272.6202711556676
 21
85.17490653194133
 31
0.0
  0
LINE
  5
193
330
7FF
100
AcDbEntity
  8
FinishedTarp
 62
     7
420
 16777215
100
AcDbLine
 10
43.20411951811799
 20
183.5000000000001
 30
0.0
 11
41.78990595574488
 21
182.085786437627
 31
0.0
  0
LINE
  5
197
330
7FF
100
AcDbEntity
  8
FinishedTarp
 62
     7
420
 16777215
100
AcDbLine
 10
92.62430760662807
 20
183.4999999999998
 30
0.0
 11
91.21009404425496
 21
182.085786437627
 31
0.0
  0
LINE
  5
17F
330
7FF
100
AcDbEntity
  8
Reinforcements
 62
     7
420
 16777215
100
AcDbLine
 10
267.6202711556676
 20
88.17490653194133
 30
0.0
 11
269.6202711556676
 21
88.17490653194133
 31
0.0
  0
LINE
  5
183
330
7FF
100
AcDbEntity
  8
Reinforcements
 62
     7
420
 16777215
100
AcDbLine
 10
272.6202711556676
 20
90.17490653194133
 30
0.0
 11
274.6202711556676
 21
90.17490653194133
 31
0.0
  0
LINE
  5
1DD
330
7FF
100
AcDbEntity
  8
FinishedTarp
 62
     7
420
 16777215
100
AcDbLine
 10
90.210094044255
 20
137.914213562373
 30
0.0
 11
91.62430760662811
 21
136.4999999999999
 31
0.0
  0
LINE
  5
1DC
330
7FF
100
AcDbEntity
  8
FinishedTarp
 62
     7
420
 16777215
100
AcDbLine
 10
40.78990595574493
 20
137.914213562373
 30
0.0
 11
42.20411951811803
 21
136.4999999999999
 31
0.0
  0
LINE
  5
177
330
7FF
100
AcDbEntity
  8
Reinforcements
 62
     7
420
 16777215
100
AcDbLine
 10
269.6202711556676
 20
85.17490653194133
 30
0.0
 11
269.6202711556676
 21
83.17490653194133
 31
0.0
  0
LINE
  5
17C
330
7FF
100
AcDbEntity
  8
Reinforcements
 62
     7
420
 16777215
100
AcDbLine
 10
272.6202711556676
 20
85.17490653194133
 30
0.0
 11
272.6202711556676
 21
83.17490653194133
 31
0.0
  0
LINE
  5
194
330
7FF
100
AcDbEntity
  8
FinishedTarp
 62
     7
420
 16777215
100
AcDbLine
 10
41.78990595574488
 20
182.085786437627
 30
0.0
 11
40.37569239337178
 21
183.5000000000002
 31
0.0
  0
LINE
  5
198
330
7FF
100
AcDbEntity
  8
FinishedTarp
 62
     7
420
 16777215
100
AcDbLine
 10
91.21009404425496
 20
182.085786437627
 30
0.0
 11
89.79588048188185
 21
183.5
 31
0.0
  0
LINE
  5
6DF
330
7FF
100
AcDbEntity
  8
FinishedBag
 62
     7
420
 16777215
100
AcDbLine
 10
203.25
 20
162.0
 30
0.0
 11
198.0
 21
162.0
 31
0.0
  0
LINE
  5
180
330
7FF
100
AcDbEntity
  8
Reinforcements
 62
     7
420
 16777215
100
AcDbLine
 10
269.6202711556676
 20
88.17490653194133
 30
0.0
 11
269.6202711556676
 21
86.17490653194133
 31
0.0
  0
LINE
  5
6E0
330
7FF
100
AcDbEntity
  8
FinishedBag
 62
     7
420
 16777215
100
AcDbLine
 10
203.25
 20
161.0
 30
0.0
 11
203.25
 21
162.0
 31
0.0
  0
LINE
  5
184
330
7FF
100
AcDbEntity
  8
Reinforcements
 62
     7
420
 16777215
100
AcDbLine
 10
274.6202711556676
 20
90.17490653194133
 30
0.0
 11
274.6202711556676
 21
88.17490653194133
 31
0.0
  0
LINE
  5
6E1
330
7FF
100
AcDbEntity
  8
FinishedBag
 62
     7
420
 16777215
100
AcDbLine
 10
198.0
 20
162.0
 30
0.0
 11
198.0
 21
161.0
 31
0.0
  0
LINE
  5
1DE
330
7FF
100
AcDbEntity
  8
FinishedTarp
 62
     7
420
 16777215
100
AcDbLine
 10
42.20411951811803
 20
136.4999999999999
 30
0.0
 11
40.78990595574493
 21
135.0857864376268
 31
0.0
  0
LINE
  5
6E2
330
7FF
100
AcDbEntity
  8
FinishedBag
 62
     7
420
 16777215
100
AcDbLine
 10
198.0
 20
161.0
 30
0.0
 11
203.25
 21
161.0
 31
0.0
  0
LINE
  5
178
330
7FF
100
AcDbEntity
  8
Reinforcements
 62
     7
420
 16777215
100
AcDbLine
 10
269.6202711556676
 20
83.17490653194133
 30
0.0
 11
267.6202711556676
 21
83.17490653194133
 31
0.0
  0
LINE
  5
6E3
330
7FF
100
AcDbEntity
  8
FinishedBag
 62
     7
420
 16777215
100
AcDbLine
 10
198.0
 20
161.0
 30
0.0
 11
198.0
 21
155.0
 31
0.0
  0
LINE
  5
17D
330
7FF
100
AcDbEntity
  8
Reinforcements
 62
     7
420
 16777215
100
AcDbLine
 10
272.6202711556676
 20
83.17490653194133
 30
0.0
 11
270.6202711556676
 21
83.17490653194133
 31
0.0
  0
ARC
  5
6E4
330
7FF
100
AcDbEntity
  8
FinishedBag
 62
     7
420
 16777215
100
AcDbCircle
 10
201.2500000000001
 20
155.0000002378881
 30
0.0
 40
2.0
100
AcDbArc
 50
270.0
 51
0.0
  0
LINE
  5
195
330
7FF
100
AcDbEntity
  8
FinishedTarp
 62
     7
420
 16777215
100
AcDbLine
 10
40.37569239337178
 20
183.5000000000002
 30
0.0
 11
41.78990595574494
 21
184.9142135623734
 31
0.0
  0
LINE
  5
199
330
7FF
100
AcDbEntity
  8
FinishedTarp
 62
     7
420
 16777215
100
AcDbLine
 10
89.79588048188185
 20
183.5
 30
0.0
 11
91.21009404425496
 21
184.9142135623732
 31
0.0
  0
ARC
  5
6E5
330
7FF
100
AcDbEntity
  8
FinishedBag
 62
     7
420
 16777215
100
AcDbCircle
 10
200.0
 20
155.0
 30
0.0
 40
2.0
100
AcDbArc
 50
180.0
 51
269.9999999999984
  0
LINE
  5
181
330
7FF
100
AcDbEntity
  8
Reinforcements
 62
     7
420
 16777215
100
AcDbLine
 10
269.6202711556676
 20
86.17490653194133
 30
0.0
 11
267.6202711556676
 21
86.17490653194133
 31
0.0
  0
LINE
  5
6E6
330
7FF
100
AcDbEntity
  8
FinishedBag
 62
     7
420
 16777215
100
AcDbLine
 10
200.0
 20
153.0
 30
0.0
 11
201.2500000000001
 21
153.0000002378881
 31
0.0
  0
LINE
  5
185
330
7FF
100
AcDbEntity
  8
Reinforcements
 62
     7
420
 16777215
100
AcDbLine
 10
274.6202711556676
 20
88.17490653194133
 30
0.0
 11
272.6202711556676
 21
88.17490653194133
 31
0.0
  0
LINE
  5
6E7
330
7FF
100
AcDbEntity
  8
FinishedBag
 62
     7
420
 16777215
100
AcDbLine
 10
203.2500000000001
 20
155.0000002378881
 30
0.0
 11
203.25
 21
161.0
 31
0.0
  0
LINE
  5
1DF
330
7FF
100
AcDbEntity
  8
FinishedTarp
 62
     7
420
 16777215
100
AcDbLine
 10
91.62430760662811
 20
136.4999999999999
 30
0.0
 11
90.210094044255
 21
135.0857864376268
 31
0.0
  0
MTEXT
  5
19A
330
7FF
100
AcDbEntity
  8
Labels
100
AcDbMText
 10
200.0
 20
139.9999999999999
 30
0.0
 40
0.0684343
 41
0.0
 46
0.0
 71
     5
 72
     1
  1
\H3;Bag Cut Size
  7
textstyle18
 73
     1
 44
1.0
  0
MTEXT
  5
19B
330
7FF
100
AcDbEntity
  8
Labels
100
AcDbMText
 10
200.0
 20
180.0000000000001
 30
0.0
 40
0.0684343
 41
0.0
 46
0.0
 71
     5
 72
     1
  1
\H3;Bag Finished Size
  7
textstyle19
 73
     1
 44
1.0
  0
ARC
  5
1C9
330
7FF
100
AcDbEntity
  8
FinishedTarp
 62
     7
420
 16777215
100
AcDbCircle
 10
65.99999999999991
 20
366.4023603047033
 30
0.0
 40
151.3332535519605
100
AcDbArc
 50
257.0826214446486
 51
282.9173785553514
  0
DIMENSION
  5
6E8
330
7FF
100
AcDbEntity
  8
Dimensions
100
AcDbDimension
280
     0
  2
*D1
 10
203.25
 20
164.25
 30
0.0
 11
200.625
 21
164.34375
 31
0.0
 70
    32
 71
     5
 42
5.25
 73
     0
 74
     0
 75
     0
  3
QCADDimStyle
100
AcDbAlignedDimension
 13
198.0
 23
162.0
 33
0.0
 14
203.25
 24
162.0
 34
0.0
100
AcDbRotatedDimension
1001
ACAD
1000
DSTYLE
1002
{
1070
   279
1070
     2
1070
    41
1040
0.125
1070
    79
1070
     2
1070
   176
1070
     0
1070
   177
1070
     0
1070
   178
1070
     0
1070
    44
1040
0.0625
1070
    42
1040
0.03125
1070
   147
1040
0.03125
1070
   277
1070
     3
1070
   140
1040
0.125
1070
    78
1070
     8
1002
}
  0
ARC
  5
1E0
330
7FF
100
AcDbEntity
  8
FinishedTarp
 62
     7
420
 16777215
100
AcDbCircle
 10
65.99999999999997
 20
-46.40236030470317
 30
0.0
 40
151.3332535519604
100
AcDbArc
 50
77.08262144464865
 51
102.9173785553513
  0
ARC
  5
1B9
330
7FF
100
AcDbEntity
  8
FinishedTarp
 62
     7
420
 16777215
100
AcDbCircle
 10
217.485399492067
 20
244.9264179962966
 30
0.0
 40
120.5
100
AcDbArc
 50
192.4740002855091
 51
224.8120601837384
  0
ARC
  5
1E1
330
7FF
100
AcDbEntity
  8
FinishedTarp
 62
     7
420
 16777215
100
AcDbCircle
 10
-85.48539949206706
 20
75.07358200370332
 30
0.0
 40
120.5
100
AcDbArc
 50
12.47400028550911
 51
44.81206018373842
  0
DIMENSION
  5
6E9
330
7FF
100
AcDbEntity
  8
Dimensions
100
AcDbDimension
280
     0
  2
*D2
 10
205.0
 20
161.0
 30
0.0
 11
204.90625
 21
161.5
 31
0.0
 70
    32
 71
     5
 42
1.0
 73
     0
 74
     0
 75
     0
  3
QCADDimStyle
100
AcDbAlignedDimension
 13
203.25
 23
162.0
 33
0.0
 14
203.25
 24
161.0
 34
0.0
 50
90.0
100
AcDbRotatedDimension
1001
ACAD
1000
DSTYLE
1002
{
1070
   279
1070
     2
1070
    41
1040
0.125
1070
    79
1070
     2
1070
   176
1070
     0
1070
   177
1070
     0
1070
   178
1070
     0
1070
    44
1040
0.0625
1070
    42
1040
0.03125
1070
   147
1040
0.03125
1070
   277
1070
     3
1070
   140
1040
0.125
1070
    78
1070
     8
1002
}
  0
ARC
  5
1D1
330
7FF
100
AcDbEntity
  8
FinishedTarp
 62
     7
420
 16777215
100
AcDbCircle
 10
-85.48539949206723
 20
244.9264179962967
 30
0.0
 40
120.5
100
AcDbArc
 50
315.1879398162616
 51
347.5259997144909
  0
DIMENSION
  5
6EA
330
7FF
100
AcDbEntity
  8
Dimensions
100
AcDbDimension
280
     0
  2
*D3
 10
206.5
 20
153.0
 30
0.0
 11
206.40625
 21
157.5
 31
0.0
 70
    32
 71
     5
 42
9.0
 73
     0
 74
     0
 75
     0
  3
QCADDimStyle
100
AcDbAlignedDimension
 13
203.25
 23
162.0
 33
0.0
 14
202.2
 24
153.0
 34
0.0
 50
90.0
100
AcDbRotatedDimension
1001
ACAD
1000
DSTYLE
1002
{
1070
   279
1070
     2
1070
    41
1040
0.125
1070
    79
1070
     2
1070
   176
1070
     0
1070
   177
1070
     0
1070
   178
1070
     0
1070
    44
1040
0.0625
1070
    42
1040
0.03125
1070
   147
1040
0.03125
1070
   277
1070
     3
1070
   140
1040
0.125
1070
    78
1070
     8
1002
}
  0
ARC
  5
1E2
330
7FF
100
AcDbEntity
  8
FinishedTarp
 62
     7
420
 16777215
100
AcDbCircle
 10
217.4853994920671
 20
75.07358200370335
 30
0.0
 40
120.5
100
AcDbArc
 50
135.1879398162616
 51
167.5259997144909
  0
ARC
  5
1BD
330
7FF
100
AcDbEntity
  8
FinishedTarp
 62
     7
420
 16777215
100
AcDbCircle
 10
217.485399492067
 20
244.9264179962966
 30
0.0
 40
120.75
100
AcDbArc
 50
192.4748063525232
 51
224.6943311372203
  0
LINE
  5
6EF
330
7FF
100
AcDbEntity
  8
BagCutSize
 62
     7
420
 16777215
100
AcDbLine
 10
203.0
 20
130.0
 30
0.0
 11
203.03125
 21
109.5
 31
0.0
  0
ARC
  5
1E4
330
7FF
100
AcDbEntity
  8
FinishedTarp
 62
     7
420
 16777215
100
AcDbCircle
 10
-85.48539949206706
 20
75.07358200370332
 30
0.0
 40
120.75
100
AcDbArc
 50
12.47480635252317
 51
44.69433113722029
  0
DIMENSION
  5
6F0
330
7FF
100
AcDbEntity
  8
Dimensions
100
AcDbDimension
280
     0
  2
*D4
 10
203.0
 20
132.9999999999999
 30
0.0
 11
200.0
 21
133.0937499999999
 31
0.0
 70
    32
 71
     5
 42
6.0
 73
     0
 74
     0
 75
     0
  3
QCADDimStyle
100
AcDbAlignedDimension
 13
197.0
 23
130.0
 33
0.0
 14
203.0
 24
130.0
 34
0.0
100
AcDbRotatedDimension
1001
ACAD
1000
DSTYLE
1002
{
1070
   279
1070
     2
1070
    41
1040
0.125
1070
    79
1070
     2
1070
   176
1070
     0
1070
   177
1070
     0
1070
   178
1070
     0
1070
    44
1040
0.0625
1070
    42
1040
0.03125
1070
   147
1040
0.03125
1070
   277
1070
     3
1070
   140
1040
0.125
1070
    78
1070
     8
1002
}
  0
ARC
  5
1D3
330
7FF
100
AcDbEntity
  8
FinishedTarp
 62
     7
420
 16777215
100
AcDbCircle
 10
-85.48539949206723
 20
244.9264179962967
 30
0.0
 40
120.75
100
AcDbArc
 50
315.3056688627798
 51
347.5251936474768
  0
DIMENSION
  5
6F1
330
7FF
100
AcDbEntity
  8
Dimensions
100
AcDbDimension
280
     0
  2
*D5
 10
206.0
 20
109.5
 30
0.0
 11
205.90625
 21
119.75
 31
0.0
 70
    32
 71
     5
 42
20.5
 73
     0
 74
     0
 75
     0
  3
QCADDimStyle
100
AcDbAlignedDimension
 13
203.0
 23
130.0
 33
0.0
 14
203.0
 24
109.5
 34
0.0
 50
90.0
100
AcDbRotatedDimension
1001
ACAD
1000
DSTYLE
1002
{
1070
   279
1070
     2
1070
    41
1040
0.125
1070
    79
1070
     2
1070
   176
1070
     0
1070
   177
1070
     0
1070
   178
1070
     0
1070
    44
1040
0.0625
1070
    42
1040
0.03125
1070
   147
1040
0.03125
1070
   277
1070
     3
1070
   140
1040
0.125
1070
    78
1070
     8
1002
}
  0
ARC
  5
1E5
330
7FF
100
AcDbEntity
  8
FinishedTarp
 62
     7
420
 16777215
100
AcDbCircle
 10
217.4853994920671
 20
75.07358200370335
 30
0.0
 40
120.75
100
AcDbArc
 50
135.3056688627798
 51
167.5251936474768
  0
DIMENSION
  5
6EB
330
7FF
100
AcDbEntity
  8
Dimensions
100
AcDbDimension
280
     0
  2
*D6
 10
200.1576404799801
 20
154.8224249739577
 30
0.0
 11
198.1139804713523
 21
153.4476667120649
 31
0.0
 70
    36
 71
     5
 42
2.000000000000136
 73
     0
 74
     0
 75
     0
  3
QCADDimStyle
100
AcDbRadialDimension
 15
198.5857864376269
 25
153.5857864376269
 35
0.0
 40
0.0
1001
ACAD
1000
DSTYLE
1002
{
1070
   279
1070
     2
1070
    41
1040
0.125
1070
    79
1070
     2
1070
   176
1070
     0
1070
   177
1070
     0
1070
   178
1070
     0
1070
    44
1040
0.0625
1070
    42
1040
0.03125
1070
   147
1040
0.03125
1070
   277
1070
     3
1070
   140
1040
0.125
1070
    78
1070
     8
1002
}
  0
ARC
  5
1ED
330
7FF
100
AcDbEntity
  8
FinishedTarp
 62
     7
420
 16777215
100
AcDbCircle
 10
132.0
 20
159.9999999999999
 30
0.0
 40
3.0
100
AcDbArc
 50
134.0988162915743
 51
225.9011837084253
  0
ARC
  5
1F5
330
7FF
100
AcDbEntity
  8
FinishedTarp
 62
     7
420
 16777215
100
AcDbCircle
 10
-0.0000000000000995
 20
160.0000000000001
 30
0.0
 40
3.0
100
AcDbArc
 50
314.0988162915742
 51
45.9011837084259
  0
DIMENSION
  5
200
330
7FF
100
AcDbEntity
  8
Dimensions
100
AcDbDimension
280
     0
  2
*D7
 10
138.42018808851
 20
183.4999999999999
 30
0.0
 11
138.42018808851
 21
171.7499999999999
 31
0.0
 70
    32
 71
     5
 42
23.5
 73
     0
 74
     0
 75
     0
  3
QCADDimStyle
100
AcDbAlignedDimension
 13
132.0
 23
159.9999999999999
 33
0.0
 14
92.62430760662808
 24
183.4999999999999
 34
0.0
 50
90.0
100
AcDbRotatedDimension
1001
ACAD
1000
DSTYLE
1002
{
1070
    41
1040
0.18
1070
    44
1040
0.18
1070
    42
1040
0.0625
1070
   147
1040
0.09
1070
    40
1040
20.0
1070
    77
1070
     0
1070
    73
1070
     1
1070
   279
1070
     2
1070
   340
1005
0
1070
   140
1040
0.18
1002
}
  0
DIMENSION
  5
201
330
7FF
100
AcDbEntity
  8
Dimensions
100
AcDbDimension
280
     0
  2
*D8
 10
148.42018808851
 20
159.9999999999999
 30
0.0
 11
148.42018808851
 21
189.44941580873
 31
0.0
 70
    32
 71
     5
 42
58.8988316174603
 73
     0
 74
     0
 75
     0
  3
QCADDimStyle
100
AcDbAlignedDimension
 13
99.82990770654851
 23
218.8988316174602
 33
0.0
 14
132.0
 24
159.9999999999999
 34
0.0
 50
90.0
100
AcDbRotatedDimension
1001
ACAD
1000
DSTYLE
1002
{
1070
    41
1040
0.18
1070
    44
1040
0.18
1070
    42
1040
0.0625
1070
   147
1040
0.09
1070
    40
1040
20.0
1070
    77
1070
     0
1070
    73
1070
     1
1070
   279
1070
     2
1070
   340
1005
0
1070
   140
1040
0.18
1002
}
  0
DIMENSION
  5
202
330
7FF
100
AcDbEntity
  8
Dimensions
100
AcDbDimension
280
     0
  2
*D9
 10
132.0
 20
190.0000000000001
 30
0.0
 11
111.6050470221275
 21
190.0000000000001
 31
0.0
 70
    32
 71
     5
 42
40.78990595574498
 73
     0
 74
     0
 75
     0
  3
QCADDimStyle
100
AcDbAlignedDimension
 13
91.21009404425499
 23
184.9142135623732
 33
0.0
 14
132.0
 24
159.9999999999999
 34
0.0
100
AcDbRotatedDimension
1001
ACAD
1000
DSTYLE
1002
{
1070
    41
1040
0.18
1070
    44
1040
0.18
1070
    42
1040
0.0625
1070
   147
1040
0.09
1070
    40
1040
20.0
1070
    77
1070
     0
1070
    73
1070
     1
1070
   279
1070
     2
1070
   340
1005
0
1070
   140
1040
0.18
1002
}
  0
DIMENSION
  5
204
330
7FF
100
AcDbEntity
  8
Dimensions
100
AcDbDimension
280
     0
  2
*D10
 10
32.17009229345123
 20
230.0000000000001
 30
0.0
 11
16.08504614672557
 21
230.0000000000001
 31
0.0
 70
    32
 71
     5
 42
32.17009229345133
 73
     0
 74
     0
 75
     0
  3
QCADDimStyle
100
AcDbAlignedDimension
 13
-0.0000000000000995
 23
160.0000000000001
 33
0.0
 14
32.17009229345123
 24
218.8988316174603
 34
0.0
100
AcDbRotatedDimension
1001
ACAD
1000
DSTYLE
1002
{
1070
    41
1040
0.18
1070
    44
1040
0.18
1070
    42
1040
0.0625
1070
   147
1040
0.09
1070
    40
1040
20.0
1070
    77
1070
     0
1070
    73
1070
     1
1070
   279
1070
     2
1070
   340
1005
0
1070
   140
1040
0.18
1002
}
  0
DIMENSION
  5
205
330
7FF
100
AcDbEntity
  8
Dimensions
100
AcDbDimension
280
     0
  2
*D11
 10
40.59028038196131
 20
230.0000000000001
 30
0.0
 11
70.2100940442549
 21
230.0000000000001
 31
0.0
 70
    32
 71
     5
 42
59.2396273245872
 73
     0
 74
     0
 75
     0
  3
QCADDimStyle
100
AcDbAlignedDimension
 13
99.82990770654851
 23
218.8988316174602
 33
0.0
 14
40.59028038196131
 24
218.8988316174603
 34
0.0
100
AcDbRotatedDimension
1001
ACAD
1000
DSTYLE
1002
{
1070
    41
1040
0.18
1070
    44
1040
0.18
1070
    42
1040
0.0625
1070
   147
1040
0.09
1070
    40
1040
20.0
1070
    77
1070
     0
1070
    73
1070
     1
1070
   279
1070
     2
1070
   340
1005
0
1070
   140
1040
0.18
1002
}
  0
DIMENSION
  5
206
330
7FF
100
AcDbEntity
  8
Dimensions
100
AcDbDimension
280
     0
  2
*D12
 10
132.0
 20
240.0000000000001
 30
0.0
 11
65.99999999999999
 21
240.0000000000001
 31
0.0
 70
    32
 71
     5
 42
132.0
 73
     0
 74
     0
 75
     0
  3
QCADDimStyle
100
AcDbAlignedDimension
 13
0.0
 23
160.0
 33
0.0
 14
132.0
 24
159.9999999999999
 34
0.0
100
AcDbRotatedDimension
1001
ACAD
1000
DSTYLE
1002
{
1070
    41
1040
0.18
1070
    44
1040
0.18
1070
    42
1040
0.0625
1070
   147
1040
0.09
1070
    40
1040
20.0
1070
    77
1070
     0
1070
    73
1070
     1
1070
   279
1070
     2
1070
   340
1005
0
1070
   140
1040
0.18
1002
}
  0
DIMENSION
  5
207
330
7FF
100
AcDbEntity
  8
Dimensions
100
AcDbDimension
280
     0
  2
*D13
 10
230.9999999999999
 20
89.99999999999997
 30
0.0
 11
115.5
 21
89.99999999999997
 31
0.0
 70
    32
 71
     5
 42
230.9999999999999
 73
     0
 74
     0
 75
     0
  3
QCADDimStyle
100
AcDbAlignedDimension
 13
0.0
 23
60.0
 33
0.0
 14
230.9999999999999
 24
0.0
 34
0.0
100
AcDbRotatedDimension
1001
ACAD
1000
DSTYLE
1002
{
1070
    41
1040
0.18
1070
    44
1040
0.18
1070
    42
1040
0.0625
1070
   147
1040
0.09
1070
    40
1040
20.0
1070
    77
1070
     0
1070
    73
1070
     1
1070
   279
1070
     2
1070
   340
1005
0
1070
   140
1040
0.18
1002
}
  0
DIMENSION
  5
208
330
7FF
100
AcDbEntity
  8
Dimensions
100
AcDbDimension
280
     0
  2
*D14
 10
132.0000000000001
 20
79.99999999999997
 30
0.0
 11
66.00000000000006
 21
79.99999999999997
 31
0.0
 70
    32
 71
     5
 42
132.0000000000001
 73
     0
 74
     0
 75
     0
  3
QCADDimStyle
100
AcDbAlignedDimension
 13
0.0
 23
60.0
 33
0.0
 14
132.0000000000001
 24
59.99999999999997
 34
0.0
100
AcDbRotatedDimension
1001
ACAD
1000
DSTYLE
1002
{
1070
    41
1040
0.18
1070
    44
1040
0.18
1070
    42
1040
0.0625
1070
   147
1040
0.09
1070
    40
1040
20.0
1070
    77
1070
     0
1070
    73
1070
     1
1070
   279
1070
     2
1070
   340
1005
0
1070
   140
1040
0.18
1002
}
  0
DIMENSION
  5
209
330
7FF
100
AcDbEntity
  8
Dimensions
100
AcDbDimension
280
     0
  2
*D15
 10
192.0000000000001
 20
79.99999999999997
 30
0.0
 11
162.0000000000001
 21
79.99999999999997
 31
0.0
 70
    32
 71
     5
 42
60.0
 73
     0
 74
     0
 75
     0
  3
QCADDimStyle
100
AcDbAlignedDimension
 13
132.0000000000001
 23
59.99999999999997
 33
0.0
 14
192.0000000000001
 24
60.0000000000001
 34
0.0
100
AcDbRotatedDimension
1001
ACAD
1000
DSTYLE
1002
{
1070
    41
1040
0.18
1070
    44
1040
0.18
1070
    42
1040
0.0625
1070
   147
1040
0.09
1070
    40
1040
20.0
1070
    77
1070
     0
1070
    73
1070
     1
1070
   279
1070
     2
1070
   340
1005
0
1070
   140
1040
0.18
1002
}
  0
DIMENSION
  5
20A
330
7FF
100
AcDbEntity
  8
Dimensions
100
AcDbDimension
280
     0
  2
*D16
 10
230.9999999999999
 20
79.99999999999997
 30
0.0
 11
211.5
 21
79.99999999999997
 31
0.0
 70
    32
 71
     5
 42
38.99999999999983
 73
     0
 74
     0
 75
     0
  3
QCADDimStyle
100
AcDbAlignedDimension
 13
192.0000000000001
 23
60.0000000000001
 33
0.0
 14
230.9999999999999
 24
0.0
 34
0.0
100
AcDbRotatedDimension
1001
ACAD
1000
DSTYLE
1002
{
1070
    41
1040
0.18
1070
    44
1040
0.18
1070
    42
1040
0.0625
1070
   147
1040
0.09
1070
    40
1040
20.0
1070
    77
1070
     0
1070
    73
1070
     1
1070
   279
1070
     2
1070
   340
1005
0
1070
   140
1040
0.18
1002
}
  0
DIMENSION
  5
20B
330
7FF
100
AcDbEntity
  8
Dimensions
100
AcDbDimension
280
     0
  2
*D17
 10
236.0
 20
-0.0000000000000998
 30
0.0
 11
236.0
 21
30.0
 31
0.0
 70
    32
 71
     5
 42
60.0000000000002
 73
     0
 74
     0
 75
     0
  3
QCADDimStyle
100
AcDbAlignedDimension
 13
192.0000000000001
 23
60.0000000000001
 33
0.0
 14
231.0000000000001
 24
-0.0000000000000995
 34
0.0
 50
90.0
100
AcDbRotatedDimension
1001
ACAD
1000
DSTYLE
1002
{
1070
    41
1040
0.18
1070
    44
1040
0.18
1070
    42
1040
0.0625
1070
   147
1040
0.09
1070
    40
1040
20.0
1070
    77
1070
     0
1070
    73
1070
     1
1070
   279
1070
     2
1070
   340
1005
0
1070
   140
1040
0.18
1002
}
  0
DIMENSION
  5
20D
330
7FF
100
AcDbEntity
  8
Dimensions
100
AcDbDimension
280
     0
  2
*D18
 10
274.6202711556673
 20
93.00000000000017
 30
0.0
 11
273.6202711556676
 21
93.09375000000011
 31
0.0
 70
   161
 71
     5
 42
2.0
 73
     0
 74
     0
 75
     0
  3
QCADDimStyle
100
AcDbAlignedDimension
 13
272.6202711556676
 23
90.17490653194123
 33
0.0
 14
274.6202711556676
 24
90.17490653194142
 34
0.0
1001
ACAD
1000
DSTYLE
1002
{
1070
    41
1040
0.18
1070
    44
1040
0.18
1070
    42
1040
0.0625
1070
   147
1040
0.09
1070
    40
1040
20.0
1070
    77
1070
     0
1070
    73
1070
     1
1070
   279
1070
     2
1070
   340
1005
0
1070
   140
1040
0.18
1002
}
  0
DIMENSION
  5
20E
330
7FF
100
AcDbEntity
  8
Dimensions
100
AcDbDimension
280
     0
  2
*D19
 10
277.0
 20
88.17490653194135
 30
0.0
 11
276.90625
 21
89.17490653194145
 31
0.0
 70
   161
 71
     5
 42
2.000000000000071
 73
     0
 74
     0
 75
     0
  3
QCADDimStyle
100
AcDbAlignedDimension
 13
274.6202711556676
 23
90.17490653194142
 33
0.0
 14
274.6202711556676
 24
88.17490653194135
 34
0.0
1001
ACAD
1000
DSTYLE
1002
{
1070
    41
1040
0.18
1070
    44
1040
0.18
1070
    42
1040
0.0625
1070
   147
1040
0.09
1070
    40
1040
20.0
1070
    77
1070
     0
1070
    73
1070
     1
1070
   279
1070
     2
1070
   340
1005
0
1070
   140
1040
0.18
1002
}
  0
DIMENSION
  5
20F
330
7FF
100
AcDbEntity
  8
Dimensions
100
AcDbDimension
280
     0
  2
*D20
 10
277.3187592743268
 20
124.6967726366546
 30
0.0
 11
273.2350940173862
 21
113.6304418052879
 31
0.0
 70
    33
 71
     5
 42
3.000000000000326
 73
     0
 74
     0
 75
     0
  3
QCADDimStyle
100
AcDbAlignedDimension
 13
275.0
 23
128.0000000000001
 33
0.0
 14
277.9237078182927
 24
127.3277406800528
 34
0.0
1001
ACAD
1000
DSTYLE
1002
{
1070
    41
1040
0.18
1070
    44
1040
0.18
1070
    42
1040
0.0625
1070
   147
1040
0.09
1070
    40
1040
20.0
1070
    77
1070
     0
1070
    73
1070
     1
1070
   279
1070
     2
1070
   340
1005
0
1070
   140
1040
0.18
1002
}
  0
DIMENSION
  5
210
330
7FF
100
AcDbEntity
  8
Dimensions
100
AcDbDimension
280
     0
  2
*D21
 10
272.897736941825
 20
131.5381664093676
 30
0.0
 11
264.6650068422467
 21
131.8247935321224
 31
0.0
 70
    33
 71
     5
 42
3.000000000000151
 73
     0
 74
     0
 75
     0
  3
QCADDimStyle
100
AcDbAlignedDimension
 13
275.0
 23
128.0000000000001
 33
0.0
 14
275.6485753688631
 24
130.9290527463509
 34
0.0
1001
ACAD
1000
DSTYLE
1002
{
1070
    41
1040
0.18
1070
    44
1040
0.18
1070
    42
1040
0.0625
1070
   147
1040
0.09
1070
    40
1040
20.0
1070
    77
1070
     0
1070
    73
1070
     1
1070
   279
1070
     2
1070
   340
1005
0
1070
   140
1040
0.18
1002
}
  0
DIMENSION
  5
211
330
7FF
100
AcDbEntity
  8
Dimensions
100
AcDbDimension
280
     0
  2
*D22
 10
272.5957849582116
 20
167.5731582047156
 30
0.0
 11
267.8747772165588
 21
174.3238682342795
 31
0.0
 70
    33
 71
     5
 42
2.999999999999889
 73
     0
 74
     0
 75
     0
  3
QCADDimStyle
100
AcDbAlignedDimension
 13
275.9497364737949
 23
168.4815287796953
 33
0.0
 14
273.8454376397106
 24
166.3433224246232
 34
0.0
1001
ACAD
1000
DSTYLE
1002
{
1070
    41
1040
0.18
1070
    44
1040
0.18
1070
    42
1040
0.0625
1070
   147
1040
0.09
1070
    40
1040
20.0
1070
    77
1070
     0
1070
    73
1070
     1
1070
   279
1070
     2
1070
   340
1005
0
1070
   140
1040
0.18
1002
}
  0
DIMENSION
  5
212
330
7FF
100
AcDbEntity
  8
Dimensions
100
AcDbDimension
280
     0
  2
*D23
 10
274.8656228105642
 20
163.1283969548978
 30
0.0
 11
265.5070404420679
 21
155.9480810807826
 31
0.0
 70
    33
 71
     5
 42
2.999999999999752
 73
     0
 74
     0
 75
     0
  3
QCADDimStyle
100
AcDbAlignedDimension
 13
273.8454376397106
 23
166.3433224246232
 33
0.0
 14
275.9594430144386
 24
164.2147122499741
 34
0.0
1001
ACAD
1000
DSTYLE
1002
{
1070
    41
1040
0.18
1070
    44
1040
0.18
1070
    42
1040
0.0625
1070
   147
1040
0.09
1070
    40
1040
20.0
1070
    77
1070
     0
1070
    73
1070
     1
1070
   279
1070
     2
1070
   340
1005
0
1070
   140
1040
0.18
1002
}
  0
DIMENSION
  5
227
330
7FF
100
AcDbEntity
  8
Dimensions
100
AcDbDimension
280
     0
  2
*D24
 10
217.485399492067
 20
244.9264179962966
 30
0.0
 11
80.48918191018271
 21
195.0079253021892
 31
0.0
 70
    36
 71
     5
 42
120.5
 73
     0
 74
     0
 75
     0
  3
QCADDimStyle
100
AcDbRadialDimension
 15
106.5734299984778
 25
197.8224370280904
 35
0.0
 40
0.0
1001
ACAD
1000
DSTYLE
1002
{
1070
    41
1040
0.18
1070
    44
1040
0.18
1070
    42
1040
0.0625
1070
   147
1040
0.09
1070
    40
1040
20.0
1070
    77
1070
     0
1070
    73
1070
     1
1070
   279
1070
     2
1070
   340
1005
0
1070
   140
1040
0.18
1002
}
  0
DIMENSION
  5
229
330
7FF
100
AcDbEntity
  8
Dimensions
100
AcDbDimension
280
     0
  2
*D25
 10
70.21009404425496
 20
348.0457117137715
 30
0.0
 11
112.7858546257046
 21
210.2719133538607
 31
0.0
 70
    36
 71
     5
 42
132.5
 73
     0
 74
     0
 75
     0
  3
QCADDimStyle
100
AcDbRadialDimension
 15
92.13720104833979
 25
217.3726388240923
 35
0.0
 40
0.0
1001
ACAD
1000
DSTYLE
1002
{
1070
    41
1040
0.18
1070
    44
1040
0.18
1070
    42
1040
0.0625
1070
   147
1040
0.09
1070
    40
1040
20.0
1070
    77
1070
     0
1070
    73
1070
     1
1070
   279
1070
     2
1070
   340
1005
0
1070
   140
1040
0.18
1002
}
  0
DIMENSION
  5
22A
330
7FF
100
AcDbEntity
  8
Dimensions
100
AcDbDimension
280
     0
  2
*D26
 10
327.1267086516128
 20
67.8651460559716
 30
0.0
 11
196.2352546237603
 21
6.528091236641704
 31
0.0
 70
    36
 71
     5
 42
120.0
 73
     0
 74
     0
 75
     0
  3
QCADDimStyle
100
AcDbRadialDimension
 15
222.0
 25
10.0
 35
0.0
 40
0.0
1001
ACAD
1000
DSTYLE
1002
{
1070
    41
1040
0.18
1070
    44
1040
0.18
1070
    42
1040
0.0625
1070
   147
1040
0.09
1070
    40
1040
20.0
1070
    77
1070
     0
1070
    73
1070
     1
1070
   279
1070
     2
1070
   340
1005
0
1070
   140
1040
0.18
1002
}
  0
DIMENSION
  5
22B
330
7FF
100
AcDbEntity
  8
Dimensions
100
AcDbDimension
280
     0
  2
*D27
 10
161.9999999999998
 20
188.5457117137714
 30
0.0
 11
123.3331958593853
 21
50.67755399280124
 31
0.0
 70
    36
 71
     5
 42
132.0
 73
     0
 74
     0
 75
     0
  3
QCADDimStyle
100
AcDbRadialDimension
 15
143.7839418863629
 25
57.80866559905831
 35
0.0
 40
0.0
1001
ACAD
1000
DSTYLE
1002
{
1070
    41
1040
0.18
1070
    44
1040
0.18
1070
    42
1040
0.0625
1070
   147
1040
0.09
1070
    40
1040
20.0
1070
    77
1070
     0
1070
    73
1070
     1
1070
   279
1070
     2
1070
   340
1005
0
1070
   140
1040
0.18
1002
}
  0
DIMENSION
  5
22C
330
7FF
100
AcDbEntity
  8
Dimensions
100
AcDbDimension
280
     0
  2
*D28
 10
273.8454376397106
 20
166.343322424623
 30
0.0
 11
300.0563794709347
 21
166.9427663195632
 31
0.0
 70
    36
 71
     5
 42
2.999999999999937
 73
     0
 74
     0
 75
     0
  3
QCADDimStyle
100
AcDbRadialDimension
 15
276.8402524640202
 25
166.5196294525466
 35
0.0
 40
0.0
1001
ACAD
1000
DSTYLE
1002
{
1070
    41
1040
0.18
1070
    44
1040
0.18
1070
    42
1040
0.0625
1070
   147
1040
0.09
1070
    40
1040
20.0
1070
    77
1070
     0
1070
    73
1070
     1
1070
   279
1070
     2
1070
   340
1005
0
1070
   140
1040
0.18
1002
}
  0
DIMENSION
  5
22D
330
7FF
100
AcDbEntity
  8
Dimensions
100
AcDbDimension
280
     0
  2
*D29
 10
275.0
 20
128.0
 30
0.0
 11
299.3286528348801
 21
133.9286295759348
 31
0.0
 70
    36
 71
     5
 42
3.000000000000004
 73
     0
 74
     0
 75
     0
  3
QCADDimStyle
100
AcDbRadialDimension
 15
277.4412004136202
 25
129.7437145811573
 35
0.0
 40
0.0
1001
ACAD
1000
DSTYLE
1002
{
1070
    41
1040
0.18
1070
    44
1040
0.18
1070
    42
1040
0.0625
1070
   147
1040
0.09
1070
    40
1040
20.0
1070
    77
1070
     0
1070
    73
1070
     1
1070
   279
1070
     2
1070
   340
1005
0
1070
   140
1040
0.18
1002
}
  0
LINE
  5
7D5
330
7FF
100
AcDbEntity
  8
0
100
AcDbLine
 10
129.0
 20
159.7499999999999
 30
0.0
 11
2.999999999999901
 21
159.7500000000001
 31
0.0
  0
LINE
  5
7D6
330
7FF
100
AcDbEntity
  8
0
100
AcDbLine
 10
129.0
 20
160.2499999999999
 30
0.0
 11
2.999999999999901
 21
160.2500000000001
 31
0.0
  0
ARC
  5
7DC
330
7FF
100
AcDbEntity
  8
0
100
AcDbCircle
 10
65.99999999999997
 20
-46.40236030470317
 30
0.0
 40
151.5832535519604
100
AcDbArc
 50
77.17775134562547
 51
102.8222486543745
  0
ARC
  5
7DF
330
7FF
100
AcDbEntity
  8
0
100
AcDbCircle
 10
65.99999999999991
 20
366.4023603047033
 30
0.0
 40
151.5832535519605
100
AcDbArc
 50
257.1777513456254
 51
282.8222486543745
  0
ENDSEC
  0
SECTION
  2
OBJECTS
  0
DICTIONARY
  5
7ED
330
0
100
AcDbDictionary
281
     1
  3
ACAD_DETAILVIEWSTYLE
350
A39
  3
ACAD_GROUP
350
7EE
  3
ACAD_LAYOUT
350
7FA
  3
ACAD_MATERIAL
350
823
  3
ACAD_MLEADERSTYLE
350
84B
  3
ACAD_MLINESTYLE
350
7F7
  3
ACAD_PLOTSETTINGS
350
7F9
  3
ACAD_PLOTSTYLENAME
350
7EF
  3
ACAD_SCALELIST
350
827
  3
ACAD_SECTIONVIEWSTYLE
350
A3A
  3
ACAD_TABLESTYLE
350
849
  3
ACAD_VISUALSTYLE
350
80A
  3
ACDB_RECOMPOSE_DATA
350
A36
  3
AcDbVariableDictionary
350
A32
  3
QCAD_OBJECTS
350
84F
  0
SUN
  5
84D
330
809
100
AcDbSun
 90
        1
290
     0
 63
     7
421
 16777215
 40
1.0
291
     1
 91
  2455826
 92
 54000000
292
     0
 70
     2
 71
   256
280
     1
  0
DICTIONARY
  5
A39
102
{ACAD_REACTORS
330
7ED
102
}
330
7ED
100
AcDbDictionary
281
     1
  0
DICTIONARY
  5
7EE
102
{ACAD_REACTORS
330
7ED
102
}
330
7ED
100
AcDbDictionary
281
     1
  0
DICTIONARY
  5
7FA
102
{ACAD_REACTORS
330
7ED
102
}
330
7ED
100
AcDbDictionary
281
     1
  3
Layout1
350
7FE
  3
Layout2
350
806
  3
Model
350
802
  0
DICTIONARY
  5
823
102
{ACAD_REACTORS
330
7ED
102
}
330
7ED
100
AcDbDictionary
281
     1
  3
ByBlock
350
825
  3
ByLayer
350
824
  3
Global
350
826
  0
DICTIONARY
  5
84B
102
{ACAD_REACTORS
330
7ED
102
}
330
7ED
100
AcDbDictionary
281
     1
  3
Standard
350
84C
  0
DICTIONARY
  5
7F7
102
{ACAD_REACTORS
330
7ED
102
}
330
7ED
100
AcDbDictionary
281
     1
  3
Standard
350
7F8
  0
DICTIONARY
  5
7F9
102
{ACAD_REACTORS
330
7ED
102
}
330
7ED
100
AcDbDictionary
281
     1
  0
ACDBDICTIONARYWDFLT
  5
7EF
102
{ACAD_REACTORS
330
7ED
102
}
330
7ED
100
AcDbDictionary
281
     1
  3
Normal
350
7F0
100
AcDbDictionaryWithDefault
340
7F0
  0
DICTIONARY
  5
827
102
{ACAD_REACTORS
330
7ED
102
}
330
7ED
100
AcDbDictionary
281
     1
  3
A0
350
828
  3
A1
350
829
  3
A2
350
82A
  3
A3
350
82B
  3
A4
350
82C
  3
A5
350
82D
  3
A6
350
82E
  3
A7
350
82F
  3
A8
350
830
  3
A9
350
831
  3
B0
350
832
  3
B1
350
833
  3
B2
350
834
  3
B3
350
835
  3
B4
350
836
  3
B5
350
837
  3
B6
350
838
  3
B7
350
839
  3
B8
350
83A
  3
B9
350
83B
  3
C0
350
83C
  3
C1
350
83D
  3
C2
350
83E
  3
C3
350
83F
  3
C4
350
840
  3
C5
350
841
  3
C6
350
842
  3
C7
350
843
  3
C8
350
844
  3
C9
350
845
  3
D0
350
846
  3
D1
350
847
  3
D2
350
848
  0
DICTIONARY
  5
A3A
102
{ACAD_REACTORS
330
7ED
102
}
330
7ED
100
AcDbDictionary
281
     1
  0
DICTIONARY
  5
849
102
{ACAD_REACTORS
330
7ED
102
}
330
7ED
100
AcDbDictionary
281
     1
  3
Standard
350
84A
  0
DICTIONARY
  5
80A
102
{ACAD_REACTORS
330
7ED
102
}
330
7ED
100
AcDbDictionary
281
     1
  3
2dWireframe
350
80F
  3
Basic
350
812
  3
Brighten
350
816
  3
ColorChange
350
81A
  3
Conceptual
350
814
  3
Dim
350
815
  3
EdgeColorOff
350
81D
  3
Facepattern
350
819
  3
Flat
350
80B
  3
FlatWithEdges
350
80C
  3
Gouraud
350
80D
  3
GouraudWithEdges
350
80E
  3
Hidden
350
811
  3
JitterOff
350
81B
  3
Linepattern
350
818
  3
OverhangOff
350
81C
  3
Realistic
350
813
  3
Shaded
350
822
  3
Shaded with edges
350
821
  3
Shades of Gray
350
81E
  3
Sketchy
350
81F
  3
Thicken
350
817
  3
Wireframe
350
810
  3
X-Ray
350
820
  0
XRECORD
  5
A36
102
{ACAD_REACTORS
330
7ED
102
}
330
7ED
100
AcDbXrecord
280
     1
 90
        1
330
84A
  0
DICTIONARY
  5
A32
102
{ACAD_REACTORS
330
7ED
102
}
330
7ED
100
AcDbDictionary
281
     1
  3
CANNOSCALE
350
A33
  3
CMLEADERSTYLE
350
A38
  3
CTABLESTYLE
350
A37
  0
DICTIONARY
  5
84F
102
{ACAD_REACTORS
330
7ED
102
}
330
7ED
100
AcDbDictionary
281
     1
  3
ColorSettings/BackgroundColor
350
851
  3
ColorSettings/ColorMode
350
852
  3
Grid/DisplayGrid00
350
853
  3
Grid/DisplayGrid01
350
854
  3
Grid/DisplayGrid02
350
855
  3
Grid/DisplayGrid03
350
856
  3
Grid/GridSpacingX00
350
857
  3
Grid/GridSpacingX01
350
858
  3
Grid/GridSpacingX02
350
859
  3
Grid/GridSpacingX03
350
85A
  3
Grid/GridSpacingY00
350
85B
  3
Grid/GridSpacingY01
350
85C
  3
Grid/GridSpacingY02
350
85D
  3
Grid/GridSpacingY03
350
85E
  3
Grid/IsometricGrid00
350
85F
  3
Grid/IsometricGrid01
350
860
  3
Grid/IsometricGrid02
350
861
  3
Grid/IsometricGrid03
350
862
  3
Grid/IsometricProjection00
350
863
  3
Grid/IsometricProjection01
350
864
  3
Grid/IsometricProjection02
350
865
  3
Grid/IsometricProjection03
350
866
  3
Grid/MetaGridSpacingX00
350
867
  3
Grid/MetaGridSpacingX01
350
868
  3
Grid/MetaGridSpacingX02
350
869
  3
Grid/MetaGridSpacingX03
350
86A
  3
Grid/MetaGridSpacingY00
350
86B
  3
Grid/MetaGridSpacingY01
350
86C
  3
Grid/MetaGridSpacingY02
350
86D
  3
Grid/MetaGridSpacingY03
350
86E
  3
MultiPageSettings/Columns
350
86F
  3
MultiPageSettings/GlueMarginsBottom
350
870
  3
MultiPageSettings/GlueMarginsLeft
350
871
  3
MultiPageSettings/GlueMarginsRight
350
872
  3
MultiPageSettings/GlueMarginsTop
350
873
  3
MultiPageSettings/PrintCropMarks
350
874
  3
MultiPageSettings/Rows
350
875
  3
PageSettings/OffsetX
350
876
  3
PageSettings/OffsetY
350
877
  3
PageSettings/PageOrientation
350
878
  3
PageSettings/PaperHeight
350
879
  3
PageSettings/PaperWidth
350
87A
  3
PageSettings/Scale
350
87B
  3
PageSettings/ShowPaperBorders
350
87C
  3
QCADVersion
350
87D
  3
UnitSettings/PaperUnit
350
87E
  0
LAYOUT
  5
7FE
102
{ACAD_REACTORS
330
7FA
102
}
330
7FA
100
AcDbPlotSettings
  1

  2
none_device
  4

  6

 40
0.0
 41
0.0
 42
0.0
 43
0.0
 44
0.0
 45
0.0
 46
0.0
 47
0.0
 48
0.0
 49
0.0
140
0.0
141
0.0
142
1.0
143
1.0
 70
   688
 72
     0
 73
     0
 74
     5
  7

 75
    16
 76
     0
 77
     2
 78
   300
147
1.0
148
0.0
149
0.0
100
AcDbLayout
  1
Layout1
 70
     1
 71
     1
 10
0.0
 20
0.0
 11
12.0
 21
9.0
 12
0.0
 22
0.0
 32
0.0
 14
1.000000000000000E+20
 24
1.000000000000000E+20
 34
1.000000000000000E+20
 15
-1.000000000000000E+20
 25
-1.000000000000000E+20
 35
-1.000000000000000E+20
146
0.0
 13
0.0
 23
0.0
 33
0.0
 16
1.0
 26
0.0
 36
0.0
 17
0.0
 27
1.0
 37
0.0
 76
     0
330
7FB
  0
LAYOUT
  5
806
102
{ACAD_REACTORS
330
7FA
102
}
330
7FA
100
AcDbPlotSettings
  1

  2
none_device
  4

  6

 40
0.0
 41
0.0
 42
0.0
 43
0.0
 44
0.0
 45
0.0
 46
0.0
 47
0.0
 48
0.0
 49
0.0
140
0.0
141
0.0
142
1.0
143
1.0
 70
   688
 72
     0
 73
     0
 74
     5
  7

 75
    16
 76
     0
 77
     2
 78
   300
147
1.0
148
0.0
149
0.0
100
AcDbLayout
  1
Layout2
 70
     1
 71
     2
 10
0.0
 20
0.0
 11
0.0
 21
0.0
 12
0.0
 22
0.0
 32
0.0
 14
0.0
 24
0.0
 34
0.0
 15
0.0
 25
0.0
 35
0.0
146
0.0
 13
0.0
 23
0.0
 33
0.0
 16
1.0
 26
0.0
 36
0.0
 17
0.0
 27
1.0
 37
0.0
 76
     0
330
803
  0
LAYOUT
  5
802
102
{ACAD_REACTORS
330
7FA
102
}
330
7FA
100
AcDbPlotSettings
  1

  2
none_device
  4
Letter_(8.50_x_11.00_Inches)
  6

 40
6.35
 41
6.35
 42
6.35000508
 43
6.35000508
 44
215.9
 45
279.4
 46
0.0
 47
0.0
 48
0.0
 49
0.0
140
0.0
141
0.0
142
1.0
143
1.0
 70
  1712
 72
     0
 73
     0
 74
     0
  7

 75
     0
 76
     0
 77
     2
 78
   300
147
1.0
148
0.0
149
0.0
100
AcDbLayout
  1
Model
 70
     1
 71
     0
 10
0.0
 20
0.0
 11
12.0
 21
9.0
 12
0.0
 22
0.0
 32
0.0
 14
1.000000000000000E+20
 24
1.000000000000000E+20
 34
1.000000000000000E+20
 15
-1.000000000000000E+20
 25
-1.000000000000000E+20
 35
-1.000000000000000E+20
146
0.0
 13
0.0
 23
0.0
 33
0.0
 16
1.0
 26
0.0
 36
0.0
 17
0.0
 27
1.0
 37
0.0
 76
     0
330
7FF
331
809
  0
MATERIAL
  5
825
102
{ACAD_REACTORS
330
823
102
}
330
823
100
AcDbMaterial
  1
ByBlock
 72
     1
 94
      127
  0
MATERIAL
  5
824
102
{ACAD_REACTORS
330
823
102
}
330
823
100
AcDbMaterial
  1
ByLayer
 72
     1
 94
      127
  0
MATERIAL
  5
826
102
{ACAD_REACTORS
330
823
102
}
330
823
100
AcDbMaterial
  1
Global
 72
     1
 94
      127
  0
MLEADERSTYLE
  5
84C
102
{ACAD_REACTORS
330
84B
102
}
330
84B
100
AcDbMLeaderStyle
179
     2
170
     2
171
     1
172
     0
 90
        2
 40
0.0
 41
0.0
173
     1
 91
-1056964608
340
7F4
 92
       -2
290
     1
 42
0.09
291
     1
 43
0.36
  3
Standard
341
0
 44
0.18
300

342
7F2
174
     1
178
     6
175
     1
176
     0
 93
-1056964608
 45
0.18
292
     0
297
     0
 46
0.18
343
0
 94
-1056964608
 47
1.0
 49
1.0
140
1.0
293
     1
141
0.0
294
     1
177
     0
142
1.0
295
     0
296
     0
143
0.125
271
     0
272
     9
273
     9
298
     0
  0
MLINESTYLE
  5
7F8
102
{ACAD_REACTORS
330
7F7
102
}
330
7F7
100
AcDbMlineStyle
  2
Standard
 70
     0
  3

 62
   256
 51
90.0
 52
90.0
 71
     2
 49
0.5
 62
   256
  6
BYLAYER
 49
-0.5
 62
   256
  6
BYLAYER
  0
ACDBPLACEHOLDER
  5
7F0
102
{ACAD_REACTORS
330
7EF
102
}
330
7EF
  0
SCALE
  5
828
102
{ACAD_REACTORS
330
827
102
}
330
827
100
AcDbScale
 70
     0
300
1:1
140
1.0
141
1.0
290
     1
  0
SCALE
  5
829
102
{ACAD_REACTORS
330
827
102
}
330
827
100
AcDbScale
 70
     0
300
1:2
140
1.0
141
2.0
290
     0
  0
SCALE
  5
82A
102
{ACAD_REACTORS
330
827
102
}
330
827
100
AcDbScale
 70
     0
300
1:4
140
1.0
141
4.0
290
     0
  0
SCALE
  5
82B
102
{ACAD_REACTORS
330
827
102
}
330
827
100
AcDbScale
 70
     0
300
1:5
140
1.0
141
5.0
290
     0
  0
SCALE
  5
82C
102
{ACAD_REACTORS
330
827
102
}
330
827
100
AcDbScale
 70
     0
300
1:8
140
1.0
141
8.0
290
     0
  0
SCALE
  5
82D
102
{ACAD_REACTORS
330
827
102
}
330
827
100
AcDbScale
 70
     0
300
1:10
140
1.0
141
10.0
290
     0
  0
SCALE
  5
82E
102
{ACAD_REACTORS
330
827
102
}
330
827
100
AcDbScale
 70
     0
300
1:16
140
1.0
141
16.0
290
     0
  0
SCALE
  5
82F
102
{ACAD_REACTORS
330
827
102
}
330
827
100
AcDbScale
 70
     0
300
1:20
140
1.0
141
20.0
290
     0
  0
SCALE
  5
830
102
{ACAD_REACTORS
330
827
102
}
330
827
100
AcDbScale
 70
     0
300
1:30
140
1.0
141
30.0
290
     0
  0
SCALE
  5
831
102
{ACAD_REACTORS
330
827
102
}
330
827
100
AcDbScale
 70
     0
300
1:40
140
1.0
141
40.0
290
     0
  0
SCALE
  5
832
102
{ACAD_REACTORS
330
827
102
}
330
827
100
AcDbScale
 70
     0
300
1:50
140
1.0
141
50.0
290
     0
  0
SCALE
  5
833
102
{ACAD_REACTORS
330
827
102
}
330
827
100
AcDbScale
 70
     0
300
1:100
140
1.0
141
100.0
290
     0
  0
SCALE
  5
834
102
{ACAD_REACTORS
330
827
102
}
330
827
100
AcDbScale
 70
     0
300
2:1
140
2.0
141
1.0
290
     0
  0
SCALE
  5
835
102
{ACAD_REACTORS
330
827
102
}
330
827
100
AcDbScale
 70
     0
300
4:1
140
4.0
141
1.0
290
     0
  0
SCALE
  5
836
102
{ACAD_REACTORS
330
827
102
}
330
827
100
AcDbScale
 70
     0
300
8:1
140
8.0
141
1.0
290
     0
  0
SCALE
  5
837
102
{ACAD_REACTORS
330
827
102
}
330
827
100
AcDbScale
 70
     0
300
10:1
140
10.0
141
1.0
290
     0
  0
SCALE
  5
838
102
{ACAD_REACTORS
330
827
102
}
330
827
100
AcDbScale
 70
     0
300
100:1
140
100.0
141
1.0
290
     0
  0
SCALE
  5
839
102
{ACAD_REACTORS
330
827
102
}
330
827
100
AcDbScale
 70
     0
300
1/128" = 1'-0"
140
0.0078125
141
12.0
290
     0
  0
SCALE
  5
83A
102
{ACAD_REACTORS
330
827
102
}
330
827
100
AcDbScale
 70
     0
300
1/64" = 1'-0"
140
0.015625
141
12.0
290
     0
  0
SCALE
  5
83B
102
{ACAD_REACTORS
330
827
102
}
330
827
100
AcDbScale
 70
     0
300
1/32" = 1'-0"
140
0.03125
141
12.0
290
     0
  0
SCALE
  5
83C
102
{ACAD_REACTORS
330
827
102
}
330
827
100
AcDbScale
 70
     0
300
1/16" = 1'-0"
140
0.0625
141
12.0
290
     0
  0
SCALE
  5
83D
102
{ACAD_REACTORS
330
827
102
}
330
827
100
AcDbScale
 70
     0
300
3/32" = 1'-0"
140
0.09375
141
12.0
290
     0
  0
SCALE
  5
83E
102
{ACAD_REACTORS
330
827
102
}
330
827
100
AcDbScale
 70
     0
300
1/8" = 1'-0"
140
0.125
141
12.0
290
     0
  0
SCALE
  5
83F
102
{ACAD_REACTORS
330
827
102
}
330
827
100
AcDbScale
 70
     0
300
3/16" = 1'-0"
140
0.1875
141
12.0
290
     0
  0
SCALE
  5
840
102
{ACAD_REACTORS
330
827
102
}
330
827
100
AcDbScale
 70
     0
300
1/4" = 1'-0"
140
0.25
141
12.0
290
     0
  0
SCALE
  5
841
102
{ACAD_REACTORS
330
827
102
}
330
827
100
AcDbScale
 70
     0
300
3/8" = 1'-0"
140
0.375
141
12.0
290
     0
  0
SCALE
  5
842
102
{ACAD_REACTORS
330
827
102
}
330
827
100
AcDbScale
 70
     0
300
1/2" = 1'-0"
140
0.5
141
12.0
290
     0
  0
SCALE
  5
843
102
{ACAD_REACTORS
330
827
102
}
330
827
100
AcDbScale
 70
     0
300
3/4" = 1'-0"
140
0.75
141
12.0
290
     0
  0
SCALE
  5
844
102
{ACAD_REACTORS
330
827
102
}
330
827
100
AcDbScale
 70
     0
300
1" = 1'-0"
140
1.0
141
12.0
290
     0
  0
SCALE
  5
845
102
{ACAD_REACTORS
330
827
102
}
330
827
100
AcDbScale
 70
     0
300
1-1/2" = 1'-0"
140
1.5
141
12.0
290
     0
  0
SCALE
  5
846
102
{ACAD_REACTORS
330
827
102
}
330
827
100
AcDbScale
 70
     0
300
3" = 1'-0"
140
3.0
141
12.0
290
     0
  0
SCALE
  5
847
102
{ACAD_REACTORS
330
827
102
}
330
827
100
AcDbScale
 70
     0
300
6" = 1'-0"
140
6.0
141
12.0
290
     0
  0
SCALE
  5
848
102
{ACAD_REACTORS
330
827
102
}
330
827
100
AcDbScale
 70
     0
300
1'-0" = 1'-0"
140
12.0
141
12.0
290
     0
  0
TABLESTYLE
  5
84A
102
{ACAD_REACTORS
330
849
102
}
102
{ACAD_XDICTIONARY
360
A34
102
}
330
849
100
AcDbTableStyle
  3
Standard
 70
     0
 71
     0
 40
0.06
 41
0.06
280
     0
281
     0
  7
Standard
140
0.18
170
     2
 62
     0
 63
   257
283
     0
 90
        4
 91
        0
  1

274
    -2
284
     1
 64
     0
275
    -2
285
     1
 65
     0
276
    -2
286
     1
 66
     0
277
    -2
287
     1
 67
     0
278
    -2
288
     1
 68
     0
279
    -2
289
     1
 69
     0
  7
Standard
140
0.25
170
     5
 62
     0
 63
   257
283
     0
 90
        4
 91
        0
  1

274
    -2
284
     1
 64
     0
275
    -2
285
     1
 65
     0
276
    -2
286
     1
 66
     0
277
    -2
287
     1
 67
     0
278
    -2
288
     1
 68
     0
279
    -2
289
     1
 69
     0
  7
Standard
140
0.18
170
     5
 62
     0
 63
   257
283
     0
 90
        4
 91
        0
  1

274
    -2
284
     1
 64
     0
275
    -2
285
     1
 65
     0
276
    -2
286
     1
 66
     0
277
    -2
287
     1
 67
     0
278
    -2
288
     1
 68
     0
279
    -2
289
     1
 69
     0
  0
VISUALSTYLE
  5
80F
102
{ACAD_REACTORS
330
80A
102
}
330
80A
100
AcDbVisualStyle
  2
2dWireframe
 70
     4
177
     3
291
     0
 70
    58
 90
        0
176
     1
 90
        2
176
     1
 90
        0
176
     1
 90
        0
176
     1
 40
0.6
176
     1
 40
30.0
176
     1
 62
     7
420
 16777215
176
     1
 90
        1
176
     1
 90
        4
176
     1
 62
     7
176
     1
 62
   257
176
     1
 90
        1
176
     1
 90
        1
176
     1
 40
1.0
176
     1
 90
        0
176
     1
 62
   257
176
     1
 40
1.0
176
     1
 90
        1
176
     1
 90
        6
176
     1
 90
        2
176
     1
 62
     7
176
     1
 90
        5
176
     1
 90
        0
176
     1
 90
        0
176
     1
290
     0
176
     1
 90
        1
176
     1
 40
0.0
176
     1
 90
        0
176
     1
290
     1
176
     1
290
     1
176
     1
290
     0
176
     1
290
     0
176
     1
290
     0
176
     1
290
     0
176
     1
290
     0
176
     1
290
     0
176
     1
290
     0
176
     1
 90
       50
176
     1
 40
0.0
176
     1
 40
1.0
176
     1
 90
        0
176
     1
 62
    18
420
        0
176
     1
 90
       50
176
     1
 90
        3
176
     1
 62
     5
420
      255
176
     1
290
     0
176
     1
 90
       50
176
     1
 90
       50
176
     1
 90
       50
176
     1
290
     0
176
     1
 90
       50
176
     1
 62
   256
176
     0
 40
1.0
176
     0
 90
        2
176
     1
  1
strokes_ogs.tif
176
     1
290
     0
176
     1
 40
1.0
176
     1
 40
1.0
176
     1
  0
VISUALSTYLE
  5
812
102
{ACAD_REACTORS
330
80A
102
}
330
80A
100
AcDbVisualStyle
  2
Basic
 70
     7
177
     3
291
     1
 70
    58
 90
        1
176
     1
 90
        0
176
     1
 90
        1
176
     1
 90
        0
176
     1
 40
0.6
176
     1
 40
30.0
176
     1
 62
     7
420
 16777215
176
     1
 90
        0
176
     1
 90
        4
176
     1
 62
     7
176
     1
 62
   257
176
     1
 90
        1
176
     1
 90
        1
176
     1
 40
1.0
176
     1
 90
        8
176
     1
 62
     7
176
     1
 40
1.0
176
     1
 90
        1
176
     1
 90
        6
176
     1
 90
        2
176
     1
 62
     7
176
     1
 90
        5
176
     1
 90
        0
176
     1
 90
        0
176
     1
290
     0
176
     1
 90
        1
176
     1
 40
0.0
176
     1
 90
        0
176
     1
290
     0
176
     1
290
     1
176
     1
290
     1
176
     1
290
     0
176
     1
290
     0
176
     1
290
     0
176
     1
290
     0
176
     1
290
     0
176
     1
290
     0
176
     1
 90
       50
176
     1
 40
0.0
176
     1
 40
1.0
176
     1
 90
        0
176
     1
 62
    18
420
        0
176
     1
 90
       50
176
     1
 90
        3
176
     1
 62
     5
420
      255
176
     1
290
     0
176
     1
 90
       50
176
     1
 90
       50
176
     1
 90
       50
176
     1
290
     0
176
     1
 90
       50
176
     1
 62
   256
176
     0
 40
1.0
176
     0
 90
        2
176
     1
  1
strokes_ogs.tif
176
     1
290
     0
176
     1
 40
1.0
176
     1
 40
1.0
176
     1
  0
VISUALSTYLE
  5
816
102
{ACAD_REACTORS
330
80A
102
}
330
80A
100
AcDbVisualStyle
  2
Brighten
 70
    12
177
     3
291
     1
 70
    58
 90
        2
176
     1
 90
        2
176
     1
 90
        0
176
     1
 90
        0
176
     1
 40
0.6
176
     1
 40
30.0
176
     1
 62
     7
420
 16777215
176
     1
 90
        1
176
     1
 90
        4
176
     1
 62
     7
176
     1
 62
   257
176
     1
 90
        1
176
     1
 90
        1
176
     1
 40
1.0
176
     1
 90
        8
176
     1
 62
     7
176
     1
 40
1.0
176
     1
 90
        1
176
     1
 90
        6
176
     1
 90
        2
176
     1
 62
     7
176
     1
 90
        5
176
     1
 90
        0
176
     1
 90
        0
176
     1
290
     0
176
     1
 90
        1
176
     1
 40
50.0
176
     1
 90
        0
176
     1
290
     0
176
     1
290
     1
176
     1
290
     1
176
     1
290
     0
176
     1
290
     0
176
     1
290
     0
176
     1
290
     0
176
     1
290
     0
176
     1
290
     0
176
     1
 90
       50
176
     1
 40
0.0
176
     1
 40
1.0
176
     1
 90
        0
176
     1
 62
    18
420
        0
176
     1
 90
       50
176
     1
 90
        3
176
     1
 62
     5
420
      255
176
     1
290
     0
176
     1
 90
       50
176
     1
 90
       50
176
     1
 90
       50
176
     1
290
     0
176
     1
 90
       50
176
     1
 62
   256
176
     0
 40
1.0
176
     0
 90
        2
176
     1
  1
strokes_ogs.tif
176
     1
290
     0
176
     1
 40
1.0
176
     1
 40
1.0
176
     1
  0
VISUALSTYLE
  5
81A
102
{ACAD_REACTORS
330
80A
102
}
330
80A
100
AcDbVisualStyle
  2
ColorChange
 70
    16
177
     3
291
     1
 70
    58
 90
        2
176
     1
 90
        2
176
     1
 90
        3
176
     1
 90
        0
176
     1
 40
0.6
176
     1
 40
30.0
176
     1
 62
     8
420
  8421504
176
     1
 90
        1
176
     1
 90
        4
176
     1
 62
     7
176
     1
 62
   257
176
     1
 90
        1
176
     1
 90
        1
176
     1
 40
1.0
176
     1
 90
        8
176
     1
 62
     8
420
  8421504
176
     1
 40
1.0
176
     1
 90
        1
176
     1
 90
        6
176
     1
 90
        2
176
     1
 62
     7
176
     1
 90
        5
176
     1
 90
        0
176
     1
 90
        0
176
     1
290
     0
176
     1
 90
        1
176
     1
 40
0.0
176
     1
 90
        0
176
     1
290
     0
176
     1
290
     1
176
     1
290
     1
176
     1
290
     0
176
     1
290
     0
176
     1
290
     0
176
     1
290
     0
176
     1
290
     0
176
     1
290
     0
176
     1
 90
       50
176
     1
 40
0.0
176
     1
 40
1.0
176
     1
 90
        0
176
     1
 62
    18
420
        0
176
     1
 90
       50
176
     1
 90
        3
176
     1
 62
     5
420
      255
176
     1
290
     0
176
     1
 90
       50
176
     1
 90
       50
176
     1
 90
       50
176
     1
290
     0
176
     1
 90
       50
176
     1
 62
   256
176
     0
 40
1.0
176
     0
 90
        2
176
     1
  1
strokes_ogs.tif
176
     1
290
     0
176
     1
 40
1.0
176
     1
 40
1.0
176
     1
  0
VISUALSTYLE
  5
814
102
{ACAD_REACTORS
330
80A
102
}
330
80A
100
AcDbVisualStyle
  2
Conceptual
 70
     9
177
     3
291
     0
 70
    58
 90
        3
176
     1
 90
        2
176
     1
 90
        0
176
     1
 90
        0
176
     1
 40
0.6
176
     1
 40
30.0
176
     1
 62
     7
420
 16777215
176
     1
 90
        2
176
     1
 90
        2
176
     1
 62
     7
176
     1
 62
   257
176
     1
 90
        1
176
     1
 90
        1
176
     1
 40
179.0
176
     1
 90
        8
176
     1
 62
     7
176
     1
 40
1.0
176
     1
 90
        1
176
     1
 90
        6
176
     1
 90
        2
176
     1
 62
     7
176
     1
 90
        3
176
     1
 90
        0
176
     1
 90
        0
176
     1
290
     0
176
     1
 90
        1
176
     1
 40
0.0
176
     1
 90
        0
176
     1
290
     0
176
     1
290
     1
176
     1
290
     1
176
     1
290
     0
176
     1
290
     0
176
     1
290
     0
176
     1
290
     0
176
     1
290
     0
176
     1
290
     0
176
     1
 90
       50
176
     1
 40
0.0
176
     1
 40
1.0
176
     1
 90
        0
176
     1
 62
    18
420
        0
176
     1
 90
       50
176
     1
 90
        3
176
     1
 62
     5
420
      255
176
     1
290
     0
176
     1
 90
       50
176
     1
 90
       50
176
     1
 90
       50
176
     1
290
     0
176
     1
 90
       50
176
     1
 62
   256
176
     0
 40
1.0
176
     0
 90
        2
176
     1
  1
strokes_ogs.tif
176
     1
290
     0
176
     1
 40
1.0
176
     1
 40
1.0
176
     1
  0
VISUALSTYLE
  5
815
102
{ACAD_REACTORS
330
80A
102
}
330
80A
100
AcDbVisualStyle
  2
Dim
 70
    11
177
     3
291
     1
 70
    58
 90
        2
176
     1
 90
        2
176
     1
 90
        0
176
     1
 90
        0
176
     1
 40
0.6
176
     1
 40
30.0
176
     1
 62
     7
420
 16777215
176
     1
 90
        1
176
     1
 90
        4
176
     1
 62
     7
176
     1
 62
   257
176
     1
 90
        1
176
     1
 90
        1
176
     1
 40
1.0
176
     1
 90
        8
176
     1
 62
     7
176
     1
 40
1.0
176
     1
 90
        1
176
     1
 90
        6
176
     1
 90
        2
176
     1
 62
     7
176
     1
 90
        5
176
     1
 90
        0
176
     1
 90
        0
176
     1
290
     0
176
     1
 90
        1
176
     1
 40
-50.0
176
     1
 90
        0
176
     1
290
     0
176
     1
290
     1
176
     1
290
     1
176
     1
290
     0
176
     1
290
     0
176
     1
290
     0
176
     1
290
     0
176
     1
290
     0
176
     1
290
     0
176
     1
 90
       50
176
     1
 40
0.0
176
     1
 40
1.0
176
     1
 90
        0
176
     1
 62
    18
420
        0
176
     1
 90
       50
176
     1
 90
        3
176
     1
 62
     5
420
      255
176
     1
290
     0
176
     1
 90
       50
176
     1
 90
       50
176
     1
 90
       50
176
     1
290
     0
176
     1
 90
       50
176
     1
 62
   256
176
     0
 40
1.0
176
     0
 90
        2
176
     1
  1
strokes_ogs.tif
176
     1
290
     0
176
     1
 40
1.0
176
     1
 40
1.0
176
     1
  0
VISUALSTYLE
  5
81D
102
{ACAD_REACTORS
330
80A
102
}
330
80A
100
AcDbVisualStyle
  2
EdgeColorOff
 70
    22
177
     3
291
     1
 70
    58
 90
        2
176
     0
 90
        2
176
     0
 90
        0
176
     0
 90
        0
176
     0
 40
0.6
176
     0
 40
30.0
176
     0
 62
     7
420
 16777215
176
     0
 90
        1
176
     0
 90
        4
176
     0
 62
     7
176
     0
 62
   257
176
     0
 90
        1
176
     0
 90
        1
176
     0
 40
1.0
176
     0
 90
        8
176
     2
 62
     7
176
     0
 40
1.0
176
     0
 90
        1
176
     0
 90
        6
176
     0
 90
        2
176
     0
 62
     7
176
     0
 90
        5
176
     0
 90
        0
176
     0
 90
        0
176
     0
290
     0
176
     0
 90
        1
176
     0
 40
0.0
176
     0
 90
        0
176
     0
290
     0
176
     0
290
     1
176
     0
290
     1
176
     0
290
     0
176
     0
290
     0
176
     0
290
     0
176
     0
290
     0
176
     0
290
     0
176
     0
290
     0
176
     0
 90
       50
176
     0
 40
0.0
176
     0
 40
1.0
176
     0
 90
        0
176
     0
 62
    18
420
        0
176
     0
 90
       50
176
     0
 90
        3
176
     0
 62
     5
420
      255
176
     0
290
     0
176
     0
 90
       50
176
     0
 90
       50
176
     0
 90
       50
176
     0
290
     0
176
     0
 90
       50
176
     0
 62
   256
176
     0
 40
1.0
176
     0
 90
        2
176
     0
  1
strokes_ogs.tif
176
     0
290
     0
176
     0
 40
1.0
176
     0
 40
1.0
176
     0
  0
VISUALSTYLE
  5
819
102
{ACAD_REACTORS
330
80A
102
}
330
80A
100
AcDbVisualStyle
  2
Facepattern
 70
    15
177
     3
291
     1
 70
    58
 90
        2
176
     1
 90
        2
176
     1
 90
        0
176
     1
 90
        0
176
     1
 40
0.6
176
     1
 40
30.0
176
     1
 62
     7
420
 16777215
176
     1
 90
        1
176
     1
 90
        4
176
     1
 62
     7
176
     1
 62
   257
176
     1
 90
        1
176
     1
 90
        1
176
     1
 40
1.0
176
     1
 90
        8
176
     1
 62
     7
176
     1
 40
1.0
176
     1
 90
        1
176
     1
 90
        6
176
     1
 90
        2
176
     1
 62
     7
176
     1
 90
        5
176
     1
 90
        0
176
     1
 90
        0
176
     1
290
     0
176
     1
 90
        1
176
     1
 40
0.0
176
     1
 90
        0
176
     1
290
     0
176
     1
290
     1
176
     1
290
     1
176
     1
290
     0
176
     1
290
     0
176
     1
290
     0
176
     1
290
     0
176
     1
290
     0
176
     1
290
     0
176
     1
 90
       50
176
     1
 40
0.0
176
     1
 40
1.0
176
     1
 90
        0
176
     1
 62
    18
420
        0
176
     1
 90
       50
176
     1
 90
        3
176
     1
 62
     5
420
      255
176
     1
290
     0
176
     1
 90
       50
176
     1
 90
       50
176
     1
 90
       50
176
     1
290
     0
176
     1
 90
       50
176
     1
 62
   256
176
     0
 40
1.0
176
     0
 90
        2
176
     1
  1
strokes_ogs.tif
176
     1
290
     0
176
     1
 40
1.0
176
     1
 40
1.0
176
     1
  0
VISUALSTYLE
  5
80B
102
{ACAD_REACTORS
330
80A
102
}
330
80A
100
AcDbVisualStyle
  2
Flat
 70
     0
177
     3
291
     1
 70
    58
 90
        2
176
     1
 90
        1
176
     1
 90
        1
176
     1
 90
        2
176
     1
 40
0.6
176
     1
 40
30.0
176
     1
 62
     7
420
 16777215
176
     1
 90
        0
176
     1
 90
        0
176
     1
 62
     7
176
     1
 62
   257
176
     1
 90
        1
176
     1
 90
        1
176
     1
 40
1.0
176
     1
 90
        8
176
     1
 62
     7
176
     1
 40
1.0
176
     1
 90
        1
176
     1
 90
        6
176
     1
 90
        2
176
     1
 62
     7
176
     1
 90
        5
176
     1
 90
        0
176
     1
 90
        0
176
     1
290
     0
176
     1
 90
       13
176
     1
 40
0.0
176
     1
 90
        0
176
     1
290
     0
176
     1
290
     1
176
     1
290
     1
176
     1
290
     0
176
     1
290
     0
176
     1
290
     0
176
     1
290
     0
176
     1
290
     0
176
     1
290
     0
176
     1
 90
       50
176
     1
 40
0.0
176
     1
 40
1.0
176
     1
 90
        0
176
     1
 62
    18
420
        0
176
     1
 90
       50
176
     1
 90
        3
176
     1
 62
     5
420
      255
176
     1
290
     0
176
     1
 90
       50
176
     1
 90
       50
176
     1
 90
       50
176
     1
290
     0
176
     1
 90
       50
176
     1
 62
   256
176
     0
 40
1.0
176
     0
 90
        2
176
     1
  1
strokes_ogs.tif
176
     1
290
     0
176
     1
 40
1.0
176
     1
 40
1.0
176
     1
  0
VISUALSTYLE
  5
80C
102
{ACAD_REACTORS
330
80A
102
}
330
80A
100
AcDbVisualStyle
  2
FlatWithEdges
 70
     1
177
     3
291
     1
 70
    58
 90
        2
176
     1
 90
        1
176
     1
 90
        1
176
     1
 90
        2
176
     1
 40
0.6
176
     1
 40
30.0
176
     1
 62
     7
420
 16777215
176
     1
 90
        1
176
     1
 90
        0
176
     1
 62
     7
176
     1
 62
   257
176
     1
 90
        1
176
     1
 90
        1
176
     1
 40
1.0
176
     1
 90
        0
176
     1
 62
   257
176
     1
 40
1.0
176
     1
 90
        1
176
     1
 90
        6
176
     1
 90
        2
176
     1
 62
     7
176
     1
 90
        5
176
     1
 90
        0
176
     1
 90
        0
176
     1
290
     0
176
     1
 90
       13
176
     1
 40
0.0
176
     1
 90
        0
176
     1
290
     0
176
     1
290
     1
176
     1
290
     1
176
     1
290
     0
176
     1
290
     0
176
     1
290
     0
176
     1
290
     0
176
     1
290
     0
176
     1
290
     0
176
     1
 90
       50
176
     1
 40
0.0
176
     1
 40
1.0
176
     1
 90
        0
176
     1
 62
    18
420
        0
176
     1
 90
       50
176
     1
 90
        3
176
     1
 62
     5
420
      255
176
     1
290
     0
176
     1
 90
       50
176
     1
 90
       50
176
     1
 90
       50
176
     1
290
     0
176
     1
 90
       50
176
     1
 62
   256
176
     0
 40
1.0
176
     0
 90
        2
176
     1
  1
strokes_ogs.tif
176
     1
290
     0
176
     1
 40
1.0
176
     1
 40
1.0
176
     1
  0
VISUALSTYLE
  5
80D
102
{ACAD_REACTORS
330
80A
102
}
330
80A
100
AcDbVisualStyle
  2
Gouraud
 70
     2
177
     3
291
     1
 70
    58
 90
        2
176
     1
 90
        2
176
     1
 90
        1
176
     1
 90
        2
176
     1
 40
0.6
176
     1
 40
30.0
176
     1
 62
     7
420
 16777215
176
     1
 90
        0
176
     1
 90
        0
176
     1
 62
     7
176
     1
 62
   257
176
     1
 90
        1
176
     1
 90
        1
176
     1
 40
1.0
176
     1
 90
        0
176
     1
 62
     7
176
     1
 40
1.0
176
     1
 90
        1
176
     1
 90
        6
176
     1
 90
        2
176
     1
 62
     7
176
     1
 90
        5
176
     1
 90
        0
176
     1
 90
        0
176
     1
290
     0
176
     1
 90
       13
176
     1
 40
0.0
176
     1
 90
        0
176
     1
290
     0
176
     1
290
     1
176
     1
290
     1
176
     1
290
     0
176
     1
290
     0
176
     1
290
     0
176
     1
290
     0
176
     1
290
     0
176
     1
290
     0
176
     1
 90
       50
176
     1
 40
0.0
176
     1
 40
1.0
176
     1
 90
        0
176
     1
 62
    18
420
        0
176
     1
 90
       50
176
     1
 90
        3
176
     1
 62
     5
420
      255
176
     1
290
     0
176
     1
 90
       50
176
     1
 90
       50
176
     1
 90
       50
176
     1
290
     0
176
     1
 90
       50
176
     1
 62
   256
176
     0
 40
1.0
176
     0
 90
        2
176
     1
  1
strokes_ogs.tif
176
     1
290
     0
176
     1
 40
1.0
176
     1
 40
1.0
176
     1
  0
VISUALSTYLE
  5
80E
102
{ACAD_REACTORS
330
80A
102
}
330
80A
100
AcDbVisualStyle
  2
GouraudWithEdges
 70
     3
177
     3
291
     1
 70
    58
 90
        2
176
     1
 90
        2
176
     1
 90
        1
176
     1
 90
        2
176
     1
 40
0.6
176
     1
 40
30.0
176
     1
 62
     7
420
 16777215
176
     1
 90
        1
176
     1
 90
        0
176
     1
 62
     7
176
     1
 62
   257
176
     1
 90
        1
176
     1
 90
        1
176
     1
 40
1.0
176
     1
 90
        0
176
     1
 62
   257
176
     1
 40
1.0
176
     1
 90
        1
176
     1
 90
        6
176
     1
 90
        2
176
     1
 62
     7
176
     1
 90
        5
176
     1
 90
        0
176
     1
 90
        0
176
     1
290
     0
176
     1
 90
       13
176
     1
 40
0.0
176
     1
 90
        0
176
     1
290
     0
176
     1
290
     1
176
     1
290
     1
176
     1
290
     0
176
     1
290
     0
176
     1
290
     0
176
     1
290
     0
176
     1
290
     0
176
     1
290
     0
176
     1
 90
       50
176
     1
 40
0.0
176
     1
 40
1.0
176
     1
 90
        0
176
     1
 62
    18
420
        0
176
     1
 90
       50
176
     1
 90
        3
176
     1
 62
     5
420
      255
176
     1
290
     0
176
     1
 90
       50
176
     1
 90
       50
176
     1
 90
       50
176
     1
290
     0
176
     1
 90
       50
176
     1
 62
   256
176
     0
 40
1.0
176
     0
 90
        2
176
     1
  1
strokes_ogs.tif
176
     1
290
     0
176
     1
 40
1.0
176
     1
 40
1.0
176
     1
  0
VISUALSTYLE
  5
811
102
{ACAD_REACTORS
330
80A
102
}
330
80A
100
AcDbVisualStyle
  2
Hidden
 70
     6
177
     3
291
     0
 70
    58
 90
        1
176
     1
 90
        2
176
     1
 90
        2
176
     1
 90
        0
176
     1
 40
0.6
176
     1
 40
30.0
176
     1
 62
     7
420
 16777215
176
     1
 90
        2
176
     1
 90
        2
176
     1
 62
     7
176
     1
 62
   257
176
     1
 90
        2
176
     1
 90
        1
176
     1
 40
40.0
176
     1
 90
        0
176
     1
 62
   257
176
     1
 40
1.0
176
     1
 90
        1
176
     1
 90
        6
176
     1
 90
        2
176
     1
 62
     7
176
     1
 90
        3
176
     1
 90
        0
176
     1
 90
        0
176
     1
290
     0
176
     1
 90
        1
176
     1
 40
0.0
176
     1
 90
        0
176
     1
290
     0
176
     1
290
     1
176
     1
290
     1
176
     1
290
     0
176
     1
290
     0
176
     1
290
     0
176
     1
290
     0
176
     1
290
     0
176
     1
290
     0
176
     1
 90
       50
176
     1
 40
0.0
176
     1
 40
1.0
176
     1
 90
        0
176
     1
 62
    18
420
        0
176
     1
 90
       50
176
     1
 90
        3
176
     1
 62
     5
420
      255
176
     1
290
     0
176
     1
 90
       50
176
     1
 90
       50
176
     1
 90
       50
176
     1
290
     0
176
     1
 90
       50
176
     1
 62
   256
176
     0
 40
1.0
176
     0
 90
        2
176
     1
  1
strokes_ogs.tif
176
     1
290
     0
176
     1
 40
1.0
176
     1
 40
1.0
176
     1
  0
VISUALSTYLE
  5
81B
102
{ACAD_REACTORS
330
80A
102
}
330
80A
100
AcDbVisualStyle
  2
JitterOff
 70
    20
177
     3
291
     1
 70
    58
 90
        2
176
     0
 90
        2
176
     0
 90
        0
176
     0
 90
        0
176
     0
 40
0.6
176
     0
 40
30.0
176
     0
 62
     7
420
 16777215
176
     0
 90
        1
176
     0
 90
        4
176
     0
 62
     7
176
     0
 62
   257
176
     0
 90
        1
176
     0
 90
        1
176
     0
 40
1.0
176
     0
 90
       10
176
     2
 62
     7
176
     0
 40
1.0
176
     0
 90
        1
176
     0
 90
        6
176
     0
 90
        2
176
     0
 62
     7
176
     0
 90
        5
176
     0
 90
        0
176
     0
 90
        0
176
     0
290
     0
176
     0
 90
        1
176
     0
 40
0.0
176
     0
 90
        0
176
     0
290
     0
176
     0
290
     1
176
     0
290
     1
176
     0
290
     0
176
     0
290
     0
176
     0
290
     0
176
     0
290
     0
176
     0
290
     0
176
     0
290
     0
176
     0
 90
       50
176
     0
 40
0.0
176
     0
 40
1.0
176
     0
 90
        0
176
     0
 62
    18
420
        0
176
     0
 90
       50
176
     0
 90
        3
176
     0
 62
     5
420
      255
176
     0
290
     0
176
     0
 90
       50
176
     0
 90
       50
176
     0
 90
       50
176
     0
290
     0
176
     0
 90
       50
176
     0
 62
   256
176
     0
 40
1.0
176
     0
 90
        2
176
     0
  1
strokes_ogs.tif
176
     0
290
     0
176
     0
 40
1.0
176
     0
 40
1.0
176
     0
  0
VISUALSTYLE
  5
818
102
{ACAD_REACTORS
330
80A
102
}
330
80A
100
AcDbVisualStyle
  2
Linepattern
 70
    14
177
     3
291
     1
 70
    58
 90
        2
176
     1
 90
        2
176
     1
 90
        0
176
     1
 90
        0
176
     1
 40
0.6
176
     1
 40
30.0
176
     1
 62
     7
420
 16777215
176
     1
 90
        1
176
     1
 90
        4
176
     1
 62
     7
176
     1
 62
   257
176
     1
 90
        7
176
     1
 90
        7
176
     1
 40
1.0
176
     1
 90
        8
176
     1
 62
     7
176
     1
 40
1.0
176
     1
 90
        1
176
     1
 90
        6
176
     1
 90
        2
176
     1
 62
     7
176
     1
 90
        5
176
     1
 90
        0
176
     1
 90
        0
176
     1
290
     0
176
     1
 90
        1
176
     1
 40
0.0
176
     1
 90
        0
176
     1
290
     0
176
     1
290
     1
176
     1
290
     1
176
     1
290
     0
176
     1
290
     0
176
     1
290
     0
176
     1
290
     0
176
     1
290
     0
176
     1
290
     0
176
     1
 90
       50
176
     1
 40
0.0
176
     1
 40
1.0
176
     1
 90
        0
176
     1
 62
    18
420
        0
176
     1
 90
       50
176
     1
 90
        3
176
     1
 62
     5
420
      255
176
     1
290
     0
176
     1
 90
       50
176
     1
 90
       50
176
     1
 90
       50
176
     1
290
     0
176
     1
 90
       50
176
     1
 62
   256
176
     0
 40
1.0
176
     0
 90
        2
176
     1
  1
strokes_ogs.tif
176
     1
290
     0
176
     1
 40
1.0
176
     1
 40
1.0
176
     1
  0
VISUALSTYLE
  5
81C
102
{ACAD_REACTORS
330
80A
102
}
330
80A
100
AcDbVisualStyle
  2
OverhangOff
 70
    21
177
     3
291
     1
 70
    58
 90
        2
176
     0
 90
        2
176
     0
 90
        0
176
     0
 90
        0
176
     0
 40
0.6
176
     0
 40
30.0
176
     0
 62
     7
420
 16777215
176
     0
 90
        1
176
     0
 90
        4
176
     0
 62
     7
176
     0
 62
   257
176
     0
 90
        1
176
     0
 90
        1
176
     0
 40
1.0
176
     0
 90
        9
176
     2
 62
     7
176
     0
 40
1.0
176
     0
 90
        1
176
     0
 90
        6
176
     0
 90
        2
176
     0
 62
     7
176
     0
 90
        5
176
     0
 90
        0
176
     0
 90
        0
176
     0
290
     0
176
     0
 90
        1
176
     0
 40
0.0
176
     0
 90
        0
176
     0
290
     0
176
     0
290
     1
176
     0
290
     1
176
     0
290
     0
176
     0
290
     0
176
     0
290
     0
176
     0
290
     0
176
     0
290
     0
176
     0
290
     0
176
     0
 90
       50
176
     0
 40
0.0
176
     0
 40
1.0
176
     0
 90
        0
176
     0
 62
    18
420
        0
176
     0
 90
       50
176
     0
 90
        3
176
     0
 62
     5
420
      255
176
     0
290
     0
176
     0
 90
       50
176
     0
 90
       50
176
     0
 90
       50
176
     0
290
     0
176
     0
 90
       50
176
     0
 62
   256
176
     0
 40
1.0
176
     0
 90
        2
176
     0
  1
strokes_ogs.tif
176
     0
290
     0
176
     0
 40
1.0
176
     0
 40
1.0
176
     0
  0
VISUALSTYLE
  5
813
102
{ACAD_REACTORS
330
80A
102
}
330
80A
100
AcDbVisualStyle
  2
Realistic
 70
     8
177
     3
291
     0
 70
    58
 90
        2
176
     1
 90
        3
176
     1
 90
        0
176
     1
 90
        2
176
     1
 40
0.6
176
     1
 40
30.0
176
     1
 62
     7
420
 16777215
176
     1
 90
        0
176
     1
 90
        0
176
     1
 62
     7
176
     1
 62
   257
176
     1
 90
        1
176
     1
 90
        1
176
     1
 40
1.0
176
     1
 90
        8
176
     1
 62
   257
176
     1
 40
1.0
176
     1
 90
        1
176
     1
 90
        6
176
     1
 90
        2
176
     1
 62
     7
176
     1
 90
        3
176
     1
 90
        0
176
     1
 90
        0
176
     1
290
     0
176
     1
 90
       13
176
     1
 40
0.0
176
     1
 90
        0
176
     1
290
     0
176
     1
290
     1
176
     1
290
     1
176
     1
290
     0
176
     1
290
     0
176
     1
290
     0
176
     1
290
     0
176
     1
290
     0
176
     1
290
     0
176
     1
 90
       50
176
     1
 40
0.0
176
     1
 40
1.0
176
     1
 90
        0
176
     1
 62
    18
420
        0
176
     1
 90
       50
176
     1
 90
        3
176
     1
 62
     5
420
      255
176
     1
290
     0
176
     1
 90
       50
176
     1
 90
       50
176
     1
 90
       50
176
     1
290
     0
176
     1
 90
       50
176
     1
 62
   256
176
     0
 40
1.0
176
     0
 90
        2
176
     1
  1
strokes_ogs.tif
176
     1
290
     0
176
     1
 40
1.0
176
     1
 40
1.0
176
     1
  0
VISUALSTYLE
  5
822
102
{ACAD_REACTORS
330
80A
102
}
330
80A
100
AcDbVisualStyle
  2
Shaded
 70
    27
177
     3
291
     0
 70
    58
 90
        2
176
     1
 90
        2
176
     1
 90
        1
176
     1
 90
        2
176
     1
 40
0.6
176
     1
 40
30.0
176
     1
 62
     7
420
 16777215
176
     1
 90
        0
176
     1
 90
        4
176
     1
 62
     7
176
     1
 62
   257
176
     1
 90
        1
176
     1
 90
        1
176
     1
 40
1.0
176
     1
 90
        8
176
     1
 62
   257
176
     1
 40
1.0
176
     1
 90
        1
176
     1
 90
        6
176
     1
 90
        2
176
     1
 62
     8
420
  7895160
176
     1
 90
        3
176
     1
 90
        0
176
     1
 90
        0
176
     1
290
     0
176
     1
 90
        5
176
     1
 40
0.0
176
     1
 90
        0
176
     1
290
     0
176
     1
290
     1
176
     1
290
     1
176
     1
290
     0
176
     1
290
     0
176
     1
290
     0
176
     1
290
     0
176
     1
290
     0
176
     1
290
     0
176
     1
 90
       50
176
     1
 40
0.0
176
     1
 40
1.0
176
     1
 90
        0
176
     1
 62
    18
420
        0
176
     1
 90
       50
176
     1
 90
        3
176
     1
 62
     5
420
      255
176
     1
290
     0
176
     1
 90
       50
176
     1
 90
       50
176
     1
 90
       50
176
     1
290
     0
176
     1
 90
       50
176
     1
 62
   256
176
     0
 40
1.0
176
     0
 90
        2
176
     1
  1
strokes_ogs.tif
176
     1
290
     0
176
     1
 40
1.0
176
     1
 40
1.0
176
     1
  0
VISUALSTYLE
  5
821
102
{ACAD_REACTORS
330
80A
102
}
330
80A
100
AcDbVisualStyle
  2
Shaded with edges
 70
    26
177
     3
291
     0
 70
    58
 90
        2
176
     1
 90
        2
176
     1
 90
        1
176
     1
 90
        2
176
     1
 40
0.6
176
     1
 40
30.0
176
     1
 62
     7
420
 16777215
176
     1
 90
        1
176
     1
 90
       10
176
     1
 62
     7
176
     1
 62
   257
176
     1
 90
        2
176
     1
 90
        1
176
     1
 40
1.0
176
     1
 90
        8
176
     1
 62
   257
176
     1
 40
1.0
176
     1
 90
        1
176
     1
 90
        6
176
     1
 90
        2
176
     1
 62
     7
176
     1
 90
        3
176
     1
 90
        0
176
     1
 90
        0
176
     1
290
     0
176
     1
 90
        5
176
     1
 40
0.0
176
     1
 90
        0
176
     1
290
     0
176
     1
290
     1
176
     1
290
     1
176
     1
290
     0
176
     1
290
     0
176
     1
290
     0
176
     1
290
     0
176
     1
290
     0
176
     1
290
     0
176
     1
 90
       50
176
     1
 40
0.0
176
     1
 40
1.0
176
     1
 90
        0
176
     1
 62
    18
420
        0
176
     1
 90
       50
176
     1
 90
        3
176
     1
 62
     5
420
      255
176
     1
290
     0
176
     1
 90
       50
176
     1
 90
       50
176
     1
 90
       50
176
     1
290
     0
176
     1
 90
       50
176
     1
 62
   256
176
     0
 40
1.0
176
     0
 90
        2
176
     1
  1
strokes_ogs.tif
176
     1
290
     0
176
     1
 40
1.0
176
     1
 40
1.0
176
     1
  0
VISUALSTYLE
  5
81E
102
{ACAD_REACTORS
330
80A
102
}
330
80A
100
AcDbVisualStyle
  2
Shades of Gray
 70
    23
177
     3
291
     0
 70
    58
 90
        2
176
     1
 90
        2
176
     1
 90
        3
176
     1
 90
        0
176
     1
 40
0.6
176
     1
 40
30.0
176
     1
 62
     7
420
 16777215
176
     1
 90
        2
176
     1
 90
        2
176
     1
 62
     7
176
     1
 62
     7
176
     1
 90
        1
176
     1
 90
        1
176
     1
 40
40.0
176
     1
 90
        8
176
     1
 62
     7
176
     1
 40
1.0
176
     1
 90
        1
176
     1
 90
        6
176
     1
 90
        2
176
     1
 62
     7
176
     1
 90
        3
176
     1
 90
        0
176
     1
 90
        0
176
     1
290
     0
176
     1
 90
        1
176
     1
 40
0.0
176
     1
 90
        0
176
     1
290
     0
176
     1
290
     1
176
     1
290
     1
176
     1
290
     0
176
     1
290
     0
176
     1
290
     0
176
     1
290
     0
176
     1
290
     0
176
     1
290
     0
176
     1
 90
       50
176
     1
 40
0.0
176
     1
 40
1.0
176
     1
 90
        0
176
     1
 62
    18
420
        0
176
     1
 90
       50
176
     1
 90
        3
176
     1
 62
     5
420
      255
176
     1
290
     0
176
     1
 90
       50
176
     1
 90
       50
176
     1
 90
       50
176
     1
290
     0
176
     1
 90
       50
176
     1
 62
   256
176
     0
 40
1.0
176
     0
 90
        2
176
     1
  1
strokes_ogs.tif
176
     1
290
     0
176
     1
 40
1.0
176
     1
 40
1.0
176
     1
  0
VISUALSTYLE
  5
81F
102
{ACAD_REACTORS
330
80A
102
}
330
80A
100
AcDbVisualStyle
  2
Sketchy
 70
    24
177
     3
291
     0
 70
    58
 90
        1
176
     1
 90
        2
176
     1
 90
        2
176
     1
 90
        0
176
     1
 40
0.6
176
     1
 40
30.0
176
     1
 62
     7
420
 16777215
176
     1
 90
        2
176
     1
 90
        2
176
     1
 62
     7
176
     1
 62
     7
176
     1
 90
        1
176
     1
 90
        1
176
     1
 40
40.0
176
     1
 90
       11
176
     1
 62
     7
176
     1
 40
1.0
176
     1
 90
        1
176
     1
 90
        6
176
     1
 90
        2
176
     1
 62
     7
176
     1
 90
        6
176
     1
 90
        0
176
     1
 90
        0
176
     1
290
     0
176
     1
 90
        1
176
     1
 40
0.0
176
     1
 90
        0
176
     1
290
     0
176
     1
290
     1
176
     1
290
     1
176
     1
290
     0
176
     1
290
     0
176
     1
290
     0
176
     1
290
     0
176
     1
290
     0
176
     1
290
     0
176
     1
 90
       50
176
     1
 40
0.0
176
     1
 40
1.0
176
     1
 90
        0
176
     1
 62
    18
420
        0
176
     1
 90
       50
176
     1
 90
        3
176
     1
 62
     5
420
      255
176
     1
290
     0
176
     1
 90
       50
176
     1
 90
       50
176
     1
 90
       50
176
     1
290
     0
176
     1
 90
       50
176
     1
 62
   256
176
     0
 40
1.0
176
     0
 90
        2
176
     1
  1
strokes_ogs.tif
176
     1
290
     0
176
     1
 40
1.0
176
     1
 40
1.0
176
     1
  0
VISUALSTYLE
  5
817
102
{ACAD_REACTORS
330
80A
102
}
330
80A
100
AcDbVisualStyle
  2
Thicken
 70
    13
177
     3
291
     1
 70
    58
 90
        2
176
     1
 90
        2
176
     1
 90
        0
176
     1
 90
        0
176
     1
 40
0.6
176
     1
 40
30.0
176
     1
 62
     7
420
 16777215
176
     1
 90
        1
176
     1
 90
        4
176
     1
 62
     7
176
     1
 62
   257
176
     1
 90
        1
176
     1
 90
        1
176
     1
 40
1.0
176
     1
 90
       12
176
     1
 62
     7
176
     1
 40
1.0
176
     1
 90
        1
176
     1
 90
        6
176
     1
 90
        2
176
     1
 62
     7
176
     1
 90
        5
176
     1
 90
        0
176
     1
 90
        0
176
     1
290
     0
176
     1
 90
        1
176
     1
 40
0.0
176
     1
 90
        0
176
     1
290
     0
176
     1
290
     1
176
     1
290
     1
176
     1
290
     0
176
     1
290
     0
176
     1
290
     0
176
     1
290
     0
176
     1
290
     0
176
     1
290
     0
176
     1
 90
       50
176
     1
 40
0.0
176
     1
 40
1.0
176
     1
 90
        0
176
     1
 62
    18
420
        0
176
     1
 90
       50
176
     1
 90
        3
176
     1
 62
     5
420
      255
176
     1
290
     0
176
     1
 90
       50
176
     1
 90
       50
176
     1
 90
       50
176
     1
290
     0
176
     1
 90
       50
176
     1
 62
   256
176
     0
 40
1.0
176
     0
 90
        2
176
     1
  1
strokes_ogs.tif
176
     1
290
     0
176
     1
 40
1.0
176
     1
 40
1.0
176
     1
  0
VISUALSTYLE
  5
810
102
{ACAD_REACTORS
330
80A
102
}
330
80A
100
AcDbVisualStyle
  2
Wireframe
 70
     5
177
     3
291
     0
 70
    58
 90
        0
176
     1
 90
        2
176
     1
 90
        0
176
     1
 90
        0
176
     1
 40
0.6
176
     1
 40
30.0
176
     1
 62
     7
420
 16777215
176
     1
 90
        1
176
     1
 90
        4
176
     1
 62
     7
176
     1
 62
   257
176
     1
 90
        1
176
     1
 90
        1
176
     1
 40
1.0
176
     1
 90
        0
176
     1
 62
   257
176
     1
 40
1.0
176
     1
 90
        1
176
     1
 90
        6
176
     1
 90
        2
176
     1
 62
     7
176
     1
 90
        3
176
     1
 90
        0
176
     1
 90
        0
176
     1
290
     0
176
     1
 90
        1
176
     1
 40
0.0
176
     1
 90
        0
176
     1
290
     0
176
     1
290
     1
176
     1
290
     1
176
     1
290
     0
176
     1
290
     0
176
     1
290
     0
176
     1
290
     0
176
     1
290
     0
176
     1
290
     0
176
     1
 90
       50
176
     1
 40
0.0
176
     1
 40
1.0
176
     1
 90
        0
176
     1
 62
    18
420
        0
176
     1
 90
       50
176
     1
 90
        3
176
     1
 62
     5
420
      255
176
     1
290
     0
176
     1
 90
       50
176
     1
 90
       50
176
     1
 90
       50
176
     1
290
     0
176
     1
 90
       50
176
     1
 62
   256
176
     0
 40
1.0
176
     0
 90
        2
176
     1
  1
strokes_ogs.tif
176
     1
290
     0
176
     1
 40
1.0
176
     1
 40
1.0
176
     1
  0
VISUALSTYLE
  5
820
102
{ACAD_REACTORS
330
80A
102
}
330
80A
100
AcDbVisualStyle
  2
X-Ray
 70
    25
177
     3
291
     0
 70
    58
 90
        2
176
     1
 90
        2
176
     1
 90
        1
176
     1
 90
        1
176
     1
 40
0.5
176
     1
 40
30.0
176
     1
 62
     7
420
 16777215
176
     1
 90
        1
176
     1
 90
        0
176
     1
 62
     7
176
     1
 62
   257
176
     1
 90
        1
176
     1
 90
        1
176
     1
 40
1.0
176
     1
 90
        8
176
     1
 62
     7
176
     1
 40
1.0
176
     1
 90
        1
176
     1
 90
        6
176
     1
 90
        2
176
     1
 62
     7
176
     1
 90
        3
176
     1
 90
        0
176
     1
 90
        0
176
     1
290
     0
176
     1
 90
       13
176
     1
 40
0.0
176
     1
 90
        0
176
     1
290
     0
176
     1
290
     1
176
     1
290
     1
176
     1
290
     0
176
     1
290
     0
176
     1
290
     0
176
     1
290
     0
176
     1
290
     0
176
     1
290
     0
176
     1
 90
       50
176
     1
 40
0.0
176
     1
 40
1.0
176
     1
 90
        0
176
     1
 62
    18
420
        0
176
     1
 90
       50
176
     1
 90
        3
176
     1
 62
     5
420
      255
176
     1
290
     0
176
     1
 90
       50
176
     1
 90
       50
176
     1
 90
       50
176
     1
290
     0
176
     1
 90
       50
176
     1
 62
   256
176
     0
 40
1.0
176
     0
 90
        2
176
     1
  1
strokes_ogs.tif
176
     1
290
     0
176
     1
 40
1.0
176
     1
 40
1.0
176
     1
  0
DICTIONARYVAR
  5
A33
102
{ACAD_REACTORS
330
A32
102
}
330
A32
100
DictionaryVariables
280
     0
  1
1:1
  0
DICTIONARYVAR
  5
A38
102
{ACAD_REACTORS
330
A32
102
}
330
A32
100
DictionaryVariables
280
     0
  1
Standard
  0
DICTIONARYVAR
  5
A37
102
{ACAD_REACTORS
330
A32
102
}
330
A32
100
DictionaryVariables
280
     0
  1
Standard
  0
XRECORD
  5
851
102
{ACAD_REACTORS
330
84F
102
}
330
84F
100
AcDbXrecord
280
     1
1000
#ffffff
  0
XRECORD
  5
852
102
{ACAD_REACTORS
330
84F
102
}
330
84F
100
AcDbXrecord
280
     1
1000
FullColor
  0
XRECORD
  5
853
102
{ACAD_REACTORS
330
84F
102
}
330
84F
100
AcDbXrecord
280
     1
290
     1
  0
XRECORD
  5
854
102
{ACAD_REACTORS
330
84F
102
}
330
84F
100
AcDbXrecord
280
     1
290
     1
  0
XRECORD
  5
855
102
{ACAD_REACTORS
330
84F
102
}
330
84F
100
AcDbXrecord
280
     1
290
     1
  0
XRECORD
  5
856
102
{ACAD_REACTORS
330
84F
102
}
330
84F
100
AcDbXrecord
280
     1
290
     1
  0
XRECORD
  5
857
102
{ACAD_REACTORS
330
84F
102
}
330
84F
100
AcDbXrecord
280
     1
1000
auto
  0
XRECORD
  5
858
102
{ACAD_REACTORS
330
84F
102
}
330
84F
100
AcDbXrecord
280
     1
1000
auto
  0
XRECORD
  5
859
102
{ACAD_REACTORS
330
84F
102
}
330
84F
100
AcDbXrecord
280
     1
1000
auto
  0
XRECORD
  5
85A
102
{ACAD_REACTORS
330
84F
102
}
330
84F
100
AcDbXrecord
280
     1
1000
auto
  0
XRECORD
  5
85B
102
{ACAD_REACTORS
330
84F
102
}
330
84F
100
AcDbXrecord
280
     1
1000
auto
  0
XRECORD
  5
85C
102
{ACAD_REACTORS
330
84F
102
}
330
84F
100
AcDbXrecord
280
     1
1000
auto
  0
XRECORD
  5
85D
102
{ACAD_REACTORS
330
84F
102
}
330
84F
100
AcDbXrecord
280
     1
1000
auto
  0
XRECORD
  5
85E
102
{ACAD_REACTORS
330
84F
102
}
330
84F
100
AcDbXrecord
280
     1
1000
auto
  0
XRECORD
  5
85F
102
{ACAD_REACTORS
330
84F
102
}
330
84F
100
AcDbXrecord
280
     1
290
     0
  0
XRECORD
  5
860
102
{ACAD_REACTORS
330
84F
102
}
330
84F
100
AcDbXrecord
280
     1
290
     0
  0
XRECORD
  5
861
102
{ACAD_REACTORS
330
84F
102
}
330
84F
100
AcDbXrecord
280
     1
290
     0
  0
XRECORD
  5
862
102
{ACAD_REACTORS
330
84F
102
}
330
84F
100
AcDbXrecord
280
     1
290
     0
  0
XRECORD
  5
863
102
{ACAD_REACTORS
330
84F
102
}
330
84F
100
AcDbXrecord
280
     1
 90
        0
  0
XRECORD
  5
864
102
{ACAD_REACTORS
330
84F
102
}
330
84F
100
AcDbXrecord
280
     1
 90
        0
  0
XRECORD
  5
865
102
{ACAD_REACTORS
330
84F
102
}
330
84F
100
AcDbXrecord
280
     1
 90
        0
  0
XRECORD
  5
866
102
{ACAD_REACTORS
330
84F
102
}
330
84F
100
AcDbXrecord
280
     1
 90
        0
  0
XRECORD
  5
867
102
{ACAD_REACTORS
330
84F
102
}
330
84F
100
AcDbXrecord
280
     1
1000
auto
  0
XRECORD
  5
868
102
{ACAD_REACTORS
330
84F
102
}
330
84F
100
AcDbXrecord
280
     1
1000
auto
  0
XRECORD
  5
869
102
{ACAD_REACTORS
330
84F
102
}
330
84F
100
AcDbXrecord
280
     1
1000
auto
  0
XRECORD
  5
86A
102
{ACAD_REACTORS
330
84F
102
}
330
84F
100
AcDbXrecord
280
     1
1000
auto
  0
XRECORD
  5
86B
102
{ACAD_REACTORS
330
84F
102
}
330
84F
100
AcDbXrecord
280
     1
1000
auto
  0
XRECORD
  5
86C
102
{ACAD_REACTORS
330
84F
102
}
330
84F
100
AcDbXrecord
280
     1
1000
auto
  0
XRECORD
  5
86D
102
{ACAD_REACTORS
330
84F
102
}
330
84F
100
AcDbXrecord
280
     1
1000
auto
  0
XRECORD
  5
86E
102
{ACAD_REACTORS
330
84F
102
}
330
84F
100
AcDbXrecord
280
     1
1000
auto
  0
XRECORD
  5
86F
102
{ACAD_REACTORS
330
84F
102
}
330
84F
100
AcDbXrecord
280
     1
 90
        1
  0
XRECORD
  5
870
102
{ACAD_REACTORS
330
84F
102
}
330
84F
100
AcDbXrecord
280
     1
 40
0.5
  0
XRECORD
  5
871
102
{ACAD_REACTORS
330
84F
102
}
330
84F
100
AcDbXrecord
280
     1
 40
0.5
  0
XRECORD
  5
872
102
{ACAD_REACTORS
330
84F
102
}
330
84F
100
AcDbXrecord
280
     1
 40
0.5
  0
XRECORD
  5
873
102
{ACAD_REACTORS
330
84F
102
}
330
84F
100
AcDbXrecord
280
     1
 40
0.5
  0
XRECORD
  5
874
102
{ACAD_REACTORS
330
84F
102
}
330
84F
100
AcDbXrecord
280
     1
290
     0
  0
XRECORD
  5
875
102
{ACAD_REACTORS
330
84F
102
}
330
84F
100
AcDbXrecord
280
     1
 90
        1
  0
XRECORD
  5
876
102
{ACAD_REACTORS
330
84F
102
}
330
84F
100
AcDbXrecord
280
     1
 40
-109.6047319344419
  0
XRECORD
  5
877
102
{ACAD_REACTORS
330
84F
102
}
330
84F
100
AcDbXrecord
280
     1
 40
-57.81751164239653
  0
XRECORD
  5
878
102
{ACAD_REACTORS
330
84F
102
}
330
84F
100
AcDbXrecord
280
     1
1000
Landscape
  0
XRECORD
  5
879
102
{ACAD_REACTORS
330
84F
102
}
330
84F
100
AcDbXrecord
280
     1
 40
11.0
  0
XRECORD
  5
87A
102
{ACAD_REACTORS
330
84F
102
}
330
84F
100
AcDbXrecord
280
     1
 40
8.5
  0
XRECORD
  5
87B
102
{ACAD_REACTORS
330
84F
102
}
330
84F
100
AcDbXrecord
280
     1
1000
0.021548893572255538
  0
XRECORD
  5
87C
102
{ACAD_REACTORS
330
84F
102
}
330
84F
100
AcDbXrecord
280
     1
290
     1
  0
XRECORD
  5
87D
102
{ACAD_REACTORS
330
84F
102
}
330
84F
100
AcDbXrecord
280
     1
1000
3.13.1
  0
XRECORD
  5
87E
102
{ACAD_REACTORS
330
84F
102
}
330
84F
100
AcDbXrecord
280
     1
 90
        1
  0
DICTIONARY
  5
A34
330
84A
100
AcDbDictionary
280
     1
281
     1
  3
ACAD_ROUNDTRIP_2008_TABLESTYLE_CELLSTYLEMAP
360
A35
  0
CELLSTYLEMAP
  5
A35
102
{ACAD_REACTORS
330
A34
102
}
330
A34
100
AcDbCellStyleMap
 90
        3
300
CELLSTYLE
  1
TABLEFORMAT_BEGIN
 90
        5
170
     1
 91
        0
 92
    32768
 62
   257
 93
        1
300
CONTENTFORMAT
  1
CONTENTFORMAT_BEGIN
 90
        0
 91
        0
 92
        4
 93
        0
300

 40
0.0
140
1.0
 94
        5
 62
     0
340
7F2
144
0.25
309
CONTENTFORMAT_END
171
     1
301
MARGIN
  1
CELLMARGIN_BEGIN
 40
0.06
 40
0.06
 40
0.06
 40
0.06
 40
0.06
 40
0.06
309
CELLMARGIN_END
 94
        6
 95
        1
302
GRIDFORMAT
  1
GRIDFORMAT_BEGIN
 90
        0
 91
        1
 62
     0
 92
       -2
340
7F4
 93
        0
 40
0.045
309
GRIDFORMAT_END
 95
        2
302
GRIDFORMAT
  1
GRIDFORMAT_BEGIN
 90
        0
 91
        1
 62
     0
 92
       -2
340
7F4
 93
        0
 40
0.045
309
GRIDFORMAT_END
 95
        4
302
GRIDFORMAT
  1
GRIDFORMAT_BEGIN
 90
        0
 91
        1
 62
     0
 92
       -2
340
7F4
 93
        0
 40
0.045
309
GRIDFORMAT_END
 95
        8
302
GRIDFORMAT
  1
GRIDFORMAT_BEGIN
 90
        0
 91
        1
 62
     0
 92
       -2
340
7F4
 93
        0
 40
0.045
309
GRIDFORMAT_END
 95
       16
302
GRIDFORMAT
  1
GRIDFORMAT_BEGIN
 90
        0
 91
        1
 62
     0
 92
       -2
340
7F4
 93
        0
 40
0.045
309
GRIDFORMAT_END
 95
       32
302
GRIDFORMAT
  1
GRIDFORMAT_BEGIN
 90
        0
 91
        1
 62
     0
 92
       -2
340
7F4
 93
        0
 40
0.045
309
GRIDFORMAT_END
309
TABLEFORMAT_END
  1
CELLSTYLE_BEGIN
 90
        1
 91
        1
300
_TITLE
309
CELLSTYLE_END
300
CELLSTYLE
  1
TABLEFORMAT_BEGIN
 90
        5
170
     1
 91
        0
 92
        0
 62
   257
 93
        1
300
CONTENTFORMAT
  1
CONTENTFORMAT_BEGIN
 90
        0
 91
        0
 92
        4
 93
        0
300

 40
0.0
140
1.0
 94
        5
 62
     0
340
7F2
144
0.18
309
CONTENTFORMAT_END
171
     1
301
MARGIN
  1
CELLMARGIN_BEGIN
 40
0.06
 40
0.06
 40
0.06
 40
0.06
 40
0.06
 40
0.06
309
CELLMARGIN_END
 94
        6
 95
        1
302
GRIDFORMAT
  1
GRIDFORMAT_BEGIN
 90
        0
 91
        1
 62
     0
 92
       -2
340
7F4
 93
        0
 40
0.045
309
GRIDFORMAT_END
 95
        2
302
GRIDFORMAT
  1
GRIDFORMAT_BEGIN
 90
        0
 91
        1
 62
     0
 92
       -2
340
7F4
 93
        0
 40
0.045
309
GRIDFORMAT_END
 95
        4
302
GRIDFORMAT
  1
GRIDFORMAT_BEGIN
 90
        0
 91
        1
 62
     0
 92
       -2
340
7F4
 93
        0
 40
0.045
309
GRIDFORMAT_END
 95
        8
302
GRIDFORMAT
  1
GRIDFORMAT_BEGIN
 90
        0
 91
        1
 62
     0
 92
       -2
340
7F4
 93
        0
 40
0.045
309
GRIDFORMAT_END
 95
       16
302
GRIDFORMAT
  1
GRIDFORMAT_BEGIN
 90
        0
 91
        1
 62
     0
 92
       -2
340
7F4
 93
        0
 40
0.045
309
GRIDFORMAT_END
 95
       32
302
GRIDFORMAT
  1
GRIDFORMAT_BEGIN
 90
        0
 91
        1
 62
     0
 92
       -2
340
7F4
 93
        0
 40
0.045
309
GRIDFORMAT_END
309
TABLEFORMAT_END
  1
CELLSTYLE_BEGIN
 90
        2
 91
        1
300
_HEADER
309
CELLSTYLE_END
300
CELLSTYLE
  1
TABLEFORMAT_BEGIN
 90
        5
170
     1
 91
        0
 92
        0
 62
   257
 93
        1
300
CONTENTFORMAT
  1
CONTENTFORMAT_BEGIN
 90
        0
 91
        0
 92
        4
 93
        0
300

 40
0.0
140
1.0
 94
        2
 62
     0
340
7F2
144
0.18
309
CONTENTFORMAT_END
171
     1
301
MARGIN
  1
CELLMARGIN_BEGIN
 40
0.06
 40
0.06
 40
0.06
 40
0.06
 40
0.06
 40
0.06
309
CELLMARGIN_END
 94
        6
 95
        1
302
GRIDFORMAT
  1
GRIDFORMAT_BEGIN
 90
        0
 91
        1
 62
     0
 92
       -2
340
7F4
 93
        0
 40
0.045
309
GRIDFORMAT_END
 95
        2
302
GRIDFORMAT
  1
GRIDFORMAT_BEGIN
 90
        0
 91
        1
 62
     0
 92
       -2
340
7F4
 93
        0
 40
0.045
309
GRIDFORMAT_END
 95
        4
302
GRIDFORMAT
  1
GRIDFORMAT_BEGIN
 90
        0
 91
        1
 62
     0
 92
       -2
340
7F4
 93
        0
 40
0.045
309
GRIDFORMAT_END
 95
        8
302
GRIDFORMAT
  1
GRIDFORMAT_BEGIN
 90
        0
 91
        1
 62
     0
 92
       -2
340
7F4
 93
        0
 40
0.045
309
GRIDFORMAT_END
 95
       16
302
GRIDFORMAT
  1
GRIDFORMAT_BEGIN
 90
        0
 91
        1
 62
     0
 92
       -2
340
7F4
 93
        0
 40
0.045
309
GRIDFORMAT_END
 95
       32
302
GRIDFORMAT
  1
GRIDFORMAT_BEGIN
 90
        0
 91
        1
 62
     0
 92
       -2
340
7F4
 93
        0
 40
0.045
309
GRIDFORMAT_END
309
TABLEFORMAT_END
  1
CELLSTYLE_BEGIN
 90
        3
 91
        2
300
_DATA
309
CELLSTYLE_END
  0
ENDSEC
  0
EOF
