 0
SECTION
 2
ENTITIES
  0
LINE
 8
Hex Half
10
13.058543568836342
20
69.33118907912181
30
-3.1554436208840472e-30
11
85.05854356883634
21
69.33118907912186
31
-3.1554436208840472e-30
  0
LINE
 8
Hex Half
10
85.05854356883634
20
69.33118907912186
30
-3.1554436208840472e-30
11
85.05854356883628
21
15.331189079121714
31
-1.9288170307591827e-30
  0
LINE
 8
Hex Half
10
13.058543568836342
20
69.33118907912181
30
-3.1554436208840472e-30
11
17.031963536576484
21
65.13403990548645
31
-2.393400969555753e-30
  0
LINE
 8
Hex Half
10
17.031963536576484
20
65.13403990548645
30
-2.393400969555753e-30
11
20.92387563511278
21
60.8612015463801
31
-1.7508662630112774e-30
  0
LINE
 8
Hex Half
10
20.92387563511278
20
60.8612015463801
30
-1.7508662630112774e-30
11
24.732838358838478
21
56.51425659675721
31
-1.2280774864257679e-30
  0
LINE
 8
Hex Half
10
24.732838358838478
20
56.51425659675721
30
-1.2280774864257679e-30
11
28.457440925345793
21
52.09481509953713
31
-8.252282728857227e-31
  0
LINE
 8
Hex Half
10
28.457440925345793
20
52.09481509953713
30
-8.252282728857227e-31
11
32.09630379795817
21
47.60451394926815
31
-5.424678316705798e-31
  0
LINE
 8
Hex Half
10
32.09630379795817
20
47.60451394926815
30
-5.424678316705798e-31
11
35.648079196689736
21
43.045016285846344
31
-3.799008929878369e-31
  0
LINE
 8
Hex Half
10
35.648079196689736
20
43.045016285846344
30
-3.799008929878369e-31
11
39.111451597443136
21
38.41801087851397
31
-3.3758766918242012e-31
  0
LINE
 8
Hex Half
10
39.111451597443136
20
38.41801087851397
30
-3.3758766918242012e-31
11
42.485138219259596
21
33.725211500364395
31
-4.15543832434783e-31
  0
LINE
 8
Hex Half
10
42.485138219259596
20
33.725211500364395
30
-4.15543832434783e-31
11
45.767889499441395
21
28.96835629358671
31
-6.137405089567059e-31
  0
LINE
 8
Hex Half
10
45.767889499441395
20
28.96835629358671
30
-6.137405089567059e-31
11
48.9584895563718
21
24.149207125683773
31
-9.321042896850645e-31
  0
LINE
 8
Hex Half
10
48.9584895563718
20
24.149207125683773
30
-9.321042896850645e-31
11
52.05575663985837
21
19.269548936903078
31
-1.3705172574719524e-30
  0
LINE
 8
Hex Half
10
52.05575663985837
20
19.269548936903078
30
-1.3705172574719524e-30
11
55.05854356883634
21
14.331189079121852
31
-1.9288170307591827e-30
  0
LINE
 8
Hex Half
10
55.05854356883634
20
14.331189079121852
30
-1.9288170307591827e-30
11
60.05288726186699
21
14.636666094084035
31
-1.9288170307591827e-30
  0
LINE
 8
Hex Half
10
60.05288726186699
20
14.636666094084035
30
-1.9288170307591827e-30
11
65.05031575643896
21
14.886653238604197
31
-1.9288170307591827e-30
  0
LINE
 8
Hex Half
10
65.05031575643896
20
14.886653238604197
30
-1.9288170307591827e-30
11
70.05021254903268
21
15.081119673230774
31
-1.9288170307591827e-30
  0
LINE
 8
Hex Half
10
70.05021254903268
20
15.081119673230774
30
-1.9288170307591827e-30
11
75.05196083162906
21
15.220041407777217
31
-1.9288170307591827e-30
  0
LINE
 8
Hex Half
10
75.05196083162906
20
15.220041407777217
30
-1.9288170307591827e-30
11
80.05494356780156
21
15.303401304281806
31
-1.9288170307591827e-30
  0
LINE
 8
Hex Half
10
80.05494356780156
20
15.303401304281806
30
-1.9288170307591827e-30
11
85.05854356883628
21
15.331189079121714
31
-1.9288170307591827e-30
  0
LINE
 8
Hex Half
10
85.05854356883628
20
15.331189079121714
30
-1.9288170307591827e-30
11
90.06214356987101
21
15.303401304281806
31
-1.9288170307591827e-30
  0
LINE
 8
Hex Half
10
90.06214356987101
20
15.303401304281806
30
-1.9288170307591827e-30
11
95.06512630604351
21
15.220041407777217
31
-1.9288170307591827e-30
  0
LINE
 8
Hex Half
10
95.06512630604351
20
15.220041407777217
30
-1.9288170307591827e-30
11
100.06687458863989
21
15.081119673230717
31
-1.9288170307591827e-30
  0
LINE
 8
Hex Half
10
100.06687458863989
20
15.081119673230717
30
-1.9288170307591827e-30
11
105.06677138123361
21
14.88665323860414
31
-1.9288170307591827e-30
  0
LINE
 8
Hex Half
10
105.06677138123361
20
14.88665323860414
30
-1.9288170307591827e-30
11
110.06419987580557
21
14.636666094083978
31
-1.9288170307591827e-30
  0
LINE
 8
Hex Half
10
110.06419987580557
20
14.636666094083978
30
-1.9288170307591827e-30
11
115.05854356883623
21
14.331189079121714
31
-1.9288170307591827e-30
  0
LINE
 8
Hex Half
10
13.058543568836342
20
69.33118907912177
30
-3.1554436208840472e-30
11
85.05854356883634
21
69.33118907912173
31
-3.1554436208840472e-30
  0
LINE
 8
Hex Half
10
85.05854356883634
20
69.33118907912173
30
-3.1554436208840472e-30
11
85.05854356883628
21
123.33118907912187
31
-1.9288170307591827e-30
  0
LINE
 8
Hex Half
10
13.058543568836342
20
69.33118907912177
30
-3.1554436208840472e-30
11
17.031963536576484
21
73.52833825275714
31
-2.393400969555753e-30
  0
LINE
 8
Hex Half
10
17.031963536576484
20
73.52833825275714
30
-2.393400969555753e-30
11
20.92387563511278
21
77.80117661186348
31
-1.7508662630112774e-30
  0
LINE
 8
Hex Half
10
20.92387563511278
20
77.80117661186348
30
-1.7508662630112774e-30
11
24.732838358838478
21
82.14812156148638
31
-1.2280774864257679e-30
  0
LINE
 8
Hex Half
10
24.732838358838478
20
82.14812156148638
30
-1.2280774864257679e-30
11
28.457440925345793
21
86.56756305870645
31
-8.252282728857227e-31
  0
LINE
 8
Hex Half
10
28.457440925345793
20
86.56756305870645
30
-8.252282728857227e-31
11
32.09630379795817
21
91.05786420897543
31
-5.424678316705798e-31
  0
LINE
 8
Hex Half
10
32.09630379795817
20
91.05786420897543
30
-5.424678316705798e-31
11
35.648079196689736
21
95.61736187239724
31
-3.799008929878369e-31
  0
LINE
 8
Hex Half
10
35.648079196689736
20
95.61736187239724
30
-3.799008929878369e-31
11
39.111451597443136
21
100.24436727972962
31
-3.3758766918242012e-31
  0
LINE
 8
Hex Half
10
39.111451597443136
20
100.24436727972962
30
-3.3758766918242012e-31
11
42.485138219259596
21
104.93716665787919
31
-4.15543832434783e-31
  0
LINE
 8
Hex Half
10
42.485138219259596
20
104.93716665787919
30
-4.15543832434783e-31
11
45.767889499441395
21
109.69402186465688
31
-6.137405089567059e-31
  0
LINE
 8
Hex Half
10
45.767889499441395
20
109.69402186465688
30
-6.137405089567059e-31
11
48.9584895563718
21
114.51317103255981
31
-9.321042896850645e-31
  0
LINE
 8
Hex Half
10
48.9584895563718
20
114.51317103255981
30
-9.321042896850645e-31
11
52.05575663985837
21
119.3928292213405
31
-1.3705172574719524e-30
  0
LINE
 8
Hex Half
10
52.05575663985837
20
119.3928292213405
30
-1.3705172574719524e-30
11
55.05854356883634
21
124.33118907912173
31
-1.9288170307591827e-30
  0
LINE
 8
Hex Half
10
55.05854356883634
20
124.33118907912173
30
-1.9288170307591827e-30
11
60.05288726186699
21
124.02571206415955
31
-1.9288170307591827e-30
  0
LINE
 8
Hex Half
10
60.05288726186699
20
124.02571206415955
30
-1.9288170307591827e-30
11
65.05031575643896
21
123.77572491963939
31
-1.9288170307591827e-30
  0
LINE
 8
Hex Half
10
65.05031575643896
20
123.77572491963939
30
-1.9288170307591827e-30
11
70.05021254903268
21
123.58125848501281
31
-1.9288170307591827e-30
  0
LINE
 8
Hex Half
10
70.05021254903268
20
123.58125848501281
30
-1.9288170307591827e-30
11
75.05196083162906
21
123.44233675046637
31
-1.9288170307591827e-30
  0
LINE
 8
Hex Half
10
75.05196083162906
20
123.44233675046637
30
-1.9288170307591827e-30
11
80.05494356780156
21
123.35897685396178
31
-1.9288170307591827e-30
  0
LINE
 8
Hex Half
10
80.05494356780156
20
123.35897685396178
30
-1.9288170307591827e-30
11
85.05854356883628
21
123.33118907912187
31
-1.9288170307591827e-30
  0
LINE
 8
Hex Half
10
85.05854356883628
20
123.33118907912187
30
-1.9288170307591827e-30
11
90.06214356987101
21
123.35897685396178
31
-1.9288170307591827e-30
  0
LINE
 8
Hex Half
10
90.06214356987101
20
123.35897685396178
30
-1.9288170307591827e-30
11
95.06512630604351
21
123.44233675046637
31
-1.9288170307591827e-30
  0
LINE
 8
Hex Half
10
95.06512630604351
20
123.44233675046637
30
-1.9288170307591827e-30
11
100.06687458863989
21
123.58125848501287
31
-1.9288170307591827e-30
  0
LINE
 8
Hex Half
10
100.06687458863989
20
123.58125848501287
30
-1.9288170307591827e-30
11
105.06677138123361
21
123.77572491963944
31
-1.9288170307591827e-30
  0
LINE
 8
Hex Half
10
105.06677138123361
20
123.77572491963944
30
-1.9288170307591827e-30
11
110.06419987580557
21
124.0257120641596
31
-1.9288170307591827e-30
  0
LINE
 8
Hex Half
10
110.06419987580557
20
124.0257120641596
30
-1.9288170307591827e-30
11
115.05854356883623
21
124.33118907912187
31
-1.9288170307591827e-30
  0
LINE
 8
Hex Half
10
157.05854356883628
20
69.33118907912183
30
-3.1554436208840472e-30
11
85.05854356883628
21
69.33118907912178
31
-3.1554436208840472e-30
  0
LINE
 8
Hex Half
10
85.05854356883628
20
69.33118907912178
30
-3.1554436208840472e-30
11
85.05854356883634
21
123.33118907912193
31
-1.9288170307591827e-30
  0
LINE
 8
Hex Half
10
157.05854356883628
20
69.33118907912183
30
-3.1554436208840472e-30
11
153.08512360109614
21
73.5283382527572
31
-2.393400969555753e-30
  0
LINE
 8
Hex Half
10
153.08512360109614
20
73.5283382527572
30
-2.393400969555753e-30
11
149.19321150255985
21
77.80117661186354
31
-1.7508662630112774e-30
  0
LINE
 8
Hex Half
10
149.19321150255985
20
77.80117661186354
30
-1.7508662630112774e-30
11
145.38424877883415
21
82.14812156148643
31
-1.2280774864257679e-30
  0
LINE
 8
Hex Half
10
145.38424877883415
20
82.14812156148643
30
-1.2280774864257679e-30
11
141.65964621232683
21
86.56756305870651
31
-8.252282728857227e-31
  0
LINE
 8
Hex Half
10
141.65964621232683
20
86.56756305870651
30
-8.252282728857227e-31
11
138.02078333971446
21
91.05786420897549
31
-5.424678316705798e-31
  0
LINE
 8
Hex Half
10
138.02078333971446
20
91.05786420897549
30
-5.424678316705798e-31
11
134.4690079409829
21
95.6173618723973
31
-3.799008929878369e-31
  0
LINE
 8
Hex Half
10
134.4690079409829
20
95.6173618723973
30
-3.799008929878369e-31
11
131.0056355402295
21
100.24436727972967
31
-3.3758766918242012e-31
  0
LINE
 8
Hex Half
10
131.0056355402295
20
100.24436727972967
30
-3.3758766918242012e-31
11
127.63194891841303
21
104.93716665787925
31
-4.15543832434783e-31
  0
LINE
 8
Hex Half
10
127.63194891841303
20
104.93716665787925
30
-4.15543832434783e-31
11
124.34919763823123
21
109.69402186465693
31
-6.137405089567059e-31
  0
LINE
 8
Hex Half
10
124.34919763823123
20
109.69402186465693
30
-6.137405089567059e-31
11
121.15859758130082
21
114.51317103255987
31
-9.321042896850645e-31
  0
LINE
 8
Hex Half
10
121.15859758130082
20
114.51317103255987
30
-9.321042896850645e-31
11
118.06133049781425
21
119.39282922134056
31
-1.3705172574719524e-30
  0
LINE
 8
Hex Half
10
118.06133049781425
20
119.39282922134056
30
-1.3705172574719524e-30
11
115.05854356883628
21
124.33118907912178
31
-1.9288170307591827e-30
  0
LINE
 8
Hex Half
10
115.05854356883628
20
124.33118907912178
30
-1.9288170307591827e-30
11
110.06419987580563
21
124.0257120641596
31
-1.9288170307591827e-30
  0
LINE
 8
Hex Half
10
110.06419987580563
20
124.0257120641596
30
-1.9288170307591827e-30
11
105.06677138123366
21
123.77572491963944
31
-1.9288170307591827e-30
  0
LINE
 8
Hex Half
10
105.06677138123366
20
123.77572491963944
30
-1.9288170307591827e-30
11
100.06687458863995
21
123.58125848501287
31
-1.9288170307591827e-30
  0
LINE
 8
Hex Half
10
100.06687458863995
20
123.58125848501287
30
-1.9288170307591827e-30
11
95.06512630604357
21
123.44233675046642
31
-1.9288170307591827e-30
  0
LINE
 8
Hex Half
10
95.06512630604357
20
123.44233675046642
30
-1.9288170307591827e-30
11
90.06214356987107
21
123.35897685396183
31
-1.9288170307591827e-30
  0
LINE
 8
Hex Half
10
90.06214356987107
20
123.35897685396183
30
-1.9288170307591827e-30
11
85.05854356883634
21
123.33118907912193
31
-1.9288170307591827e-30
  0
LINE
 8
Hex Half
10
85.05854356883634
20
123.33118907912193
30
-1.9288170307591827e-30
11
80.05494356780162
21
123.35897685396183
31
-1.9288170307591827e-30
  0
LINE
 8
Hex Half
10
80.05494356780162
20
123.35897685396183
30
-1.9288170307591827e-30
11
75.05196083162912
21
123.44233675046642
31
-1.9288170307591827e-30
  0
LINE
 8
Hex Half
10
75.05196083162912
20
123.44233675046642
30
-1.9288170307591827e-30
11
70.05021254903274
21
123.58125848501292
31
-1.9288170307591827e-30
  0
LINE
 8
Hex Half
10
70.05021254903274
20
123.58125848501292
30
-1.9288170307591827e-30
11
65.05031575643902
21
123.7757249196395
31
-1.9288170307591827e-30
  0
LINE
 8
Hex Half
10
65.05031575643902
20
123.7757249196395
30
-1.9288170307591827e-30
11
60.052887261867056
21
124.02571206415966
31
-1.9288170307591827e-30
  0
LINE
 8
Hex Half
10
60.052887261867056
20
124.02571206415966
30
-1.9288170307591827e-30
11
55.0585435688364
21
124.33118907912193
31
-1.9288170307591827e-30
  0
LINE
 8
Hex Half
10
157.0585435688363
20
69.33118907912174
30
-3.1554436208840472e-30
11
85.05854356883631
21
69.33118907912178
31
-3.1554436208840472e-30
  0
LINE
 8
Hex Half
10
85.05854356883631
20
69.33118907912178
30
-3.1554436208840472e-30
11
85.05854356883637
21
15.33118907912164
31
-1.9288170307591827e-30
  0
LINE
 8
Hex Half
10
157.0585435688363
20
69.33118907912174
30
-3.1554436208840472e-30
11
153.08512360109617
21
65.13403990548638
31
-2.393400969555753e-30
  0
LINE
 8
Hex Half
10
153.08512360109617
20
65.13403990548638
30
-2.393400969555753e-30
11
149.19321150255988
21
60.86120154638003
31
-1.7508662630112774e-30
  0
LINE
 8
Hex Half
10
149.19321150255988
20
60.86120154638003
30
-1.7508662630112774e-30
11
145.38424877883418
21
56.514256596757136
31
-1.2280774864257679e-30
  0
LINE
 8
Hex Half
10
145.38424877883418
20
56.514256596757136
30
-1.2280774864257679e-30
11
141.65964621232686
21
52.09481509953706
31
-8.252282728857227e-31
  0
LINE
 8
Hex Half
10
141.65964621232686
20
52.09481509953706
30
-8.252282728857227e-31
11
138.02078333971448
21
47.60451394926808
31
-5.424678316705798e-31
  0
LINE
 8
Hex Half
10
138.02078333971448
20
47.60451394926808
30
-5.424678316705798e-31
11
134.46900794098292
21
43.04501628584627
31
-3.799008929878369e-31
  0
LINE
 8
Hex Half
10
134.46900794098292
20
43.04501628584627
30
-3.799008929878369e-31
11
131.00563554022952
21
38.4180108785139
31
-3.3758766918242012e-31
  0
LINE
 8
Hex Half
10
131.00563554022952
20
38.4180108785139
30
-3.3758766918242012e-31
11
127.63194891841306
21
33.725211500364324
31
-4.15543832434783e-31
  0
LINE
 8
Hex Half
10
127.63194891841306
20
33.725211500364324
30
-4.15543832434783e-31
11
124.34919763823126
21
28.968356293586634
31
-6.137405089567059e-31
  0
LINE
 8
Hex Half
10
124.34919763823126
20
28.968356293586634
30
-6.137405089567059e-31
11
121.15859758130085
21
24.1492071256837
31
-9.321042896850645e-31
  0
LINE
 8
Hex Half
10
121.15859758130085
20
24.1492071256837
30
-9.321042896850645e-31
11
118.06133049781428
21
19.269548936903004
31
-1.3705172574719524e-30
  0
LINE
 8
Hex Half
10
118.06133049781428
20
19.269548936903004
30
-1.3705172574719524e-30
11
115.05854356883631
21
14.331189079121778
31
-1.9288170307591827e-30
  0
LINE
 8
Hex Half
10
115.05854356883631
20
14.331189079121778
30
-1.9288170307591827e-30
11
110.06419987580566
21
14.63666609408396
31
-1.9288170307591827e-30
  0
LINE
 8
Hex Half
10
110.06419987580566
20
14.63666609408396
30
-1.9288170307591827e-30
11
105.06677138123369
21
14.886653238604122
31
-1.9288170307591827e-30
  0
LINE
 8
Hex Half
10
105.06677138123369
20
14.886653238604122
30
-1.9288170307591827e-30
11
100.06687458863998
21
15.081119673230699
31
-1.9288170307591827e-30
  0
LINE
 8
Hex Half
10
100.06687458863998
20
15.081119673230699
30
-1.9288170307591827e-30
11
95.0651263060436
21
15.220041407777142
31
-1.9288170307591827e-30
  0
LINE
 8
Hex Half
10
95.0651263060436
20
15.220041407777142
30
-1.9288170307591827e-30
11
90.0621435698711
21
15.303401304281731
31
-1.9288170307591827e-30
  0
LINE
 8
Hex Half
10
90.0621435698711
20
15.303401304281731
30
-1.9288170307591827e-30
11
85.05854356883637
21
15.33118907912164
31
-1.9288170307591827e-30
  0
LINE
 8
Hex Half
10
85.05854356883637
20
15.33118907912164
30
-1.9288170307591827e-30
11
80.05494356780164
21
15.303401304281731
31
-1.9288170307591827e-30
  0
LINE
 8
Hex Half
10
80.05494356780164
20
15.303401304281731
30
-1.9288170307591827e-30
11
75.05196083162915
21
15.220041407777142
31
-1.9288170307591827e-30
  0
LINE
 8
Hex Half
10
75.05196083162915
20
15.220041407777142
30
-1.9288170307591827e-30
11
70.05021254903276
21
15.081119673230642
31
-1.9288170307591827e-30
  0
LINE
 8
Hex Half
10
70.05021254903276
20
15.081119673230642
30
-1.9288170307591827e-30
11
65.05031575643905
21
14.886653238604065
31
-1.9288170307591827e-30
  0
LINE
 8
Hex Half
10
65.05031575643905
20
14.886653238604065
30
-1.9288170307591827e-30
11
60.052887261867085
21
14.636666094083903
31
-1.9288170307591827e-30
  0
LINE
 8
Hex Half
10
60.052887261867085
20
14.636666094083903
30
-1.9288170307591827e-30
11
55.05854356883643
21
14.33118907912164
31
-1.9288170307591827e-30
 0
ENDSEC
 0
EOF
