<svg xmlns="http://www.w3.org/2000/svg" width="348.04" height="170.65" viewBox="0 0 348.04 170.65">
  <defs>
    <style>
      .cls-1 {
        fill: #404040;
      }
    </style>
  </defs>
  <title>TarpManualParts</title>
  <g id="Draw_Layer-2" data-name="Draw Layer">
    <path class="cls-1" d="M698.54,456.43c-.95.06-1.91.11-2.86.18l-2.1.17c-1.51.13-3,.25-4.52.4-3,.28-5.95.68-8.9,1.17-1.44.24-2.88.5-4.31.82s-3.07.71-4.6,1.1c-2.84.72-5.64,1.63-8.43,2.55-1.41.46-2.82.93-4.23,1.36s-2.8.82-4.2,1.22q-4.26,1.22-8.5,2.5c-2.84.86-5.69,1.72-8.5,2.71-1.44.5-2.88,1-4.3,1.54s-3,1.13-4.42,1.71c-2,.8-4,1.64-6,2.48l.13,0L618.86,478h0l-.13.05-.28.12-.62.26-.14.06-.09,0,.09,0h0l-.11.05-.28.11-.08,0-.08,0h0C611.55,481,606,483.44,600.51,486c-1.31.6-2.61,1.21-3.92,1.83s-2.62,1.23-3.93,1.88c-2.77,1.37-5.53,2.8-8.25,4.27-1.27.69-2.53,1.4-3.79,2.11s-2.62,1.47-3.91,2.23-2.51,1.51-3.74,2.32-2.53,1.7-3.77,2.58c-1.53,1.08-3.05,2.17-4.52,3.31-.75.59-1.52,1.18-2.24,1.81l-1.11,1-.45.43-.27.26s-.19.18-.21.26,0,0,0,0h0l.05-.06h0a13.66,13.66,0,0,1,1.47-1.27h0c2.36-1.76,4.86-3.32,7.35-4.9s5-3.07,7.53-4.46,5.4-2.89,8.11-4.31,5.28-2.76,7.94-4.08,5.46-2.64,8.21-3.93,5.44-2.51,8.18-3.72c2.07-.93,4.16-1.82,6.25-2.72l0,0,3.74-1.55h0q6.59-2.7,13.24-5.17c2.79-1,5.59-2,8.41-2.95s5.54-1.77,8.31-2.64c5.71-1.78,11.4-3.61,17.14-5.25q4.26-1.22,8.54-2.32c2.95-.76,5.92-1.39,8.9-1.95,2.36-.45,4.73-.85,7.1-1.25l3.38-.56c1.44-.24,2.87-.51,4.31-.74,0,0,0,0,0,0Zm-83,24.38.13-.05-.13.05Zm1.55-2.1.07,0-.07,0Zm.07,0Zm.58-.25Z" transform="translate(-357.86 -350.46)"/>
    <path class="cls-1" d="M643.32,352.53a.66.66,0,0,0,0,.2l0,.31c0,.22,0,.43.08.65h0a26.69,26.69,0,0,0,.58,3c.27,1.09.57,2.17.92,3.24.65,2,1.46,4,2.26,5.9.31.75.62,1.49.94,2.23h0c1.72,4.08,3.53,8.12,5.38,12.14.91,2,1.85,3.95,2.82,5.89s2,4,3.08,5.89,2.18,3.81,3.29,5.71,2.28,3.9,3.4,5.87,2.23,3.86,3.35,5.78,2.16,3.77,3.2,5.68,2.09,3.82,3.16,5.72,2.21,3.89,3.33,5.82,2.21,3.82,3.37,5.7,2.39,3.73,3.64,5.57a63,63,0,0,0,8.59,9.94c2.26,2.15,4.67,4.14,7,6.18,0,0,0,0,0,0-.8-.91-1.58-1.84-2.39-2.74l-2.15-2.37c-1.44-1.61-2.85-3.24-4.2-4.93l.11.16-.7-.92c-1.27-1.71-2.48-3.47-3.63-5.26s-2.38-3.81-3.53-5.73q-3.42-5.73-6.72-11.52c-2.18-3.77-4.25-7.6-6.49-11.33-1.14-1.91-2.3-3.8-3.45-5.7s-2.28-3.82-3.39-5.74c-2.21-3.79-4.35-7.63-6.35-11.53-1-1.92-1.92-3.88-2.88-5.82s-2-3.95-3-5.92-2-3.9-3-5.87-1.95-3.89-2.91-5.85c-.62-1.24-1.2-2.49-1.75-3.76-.41-1-.8-2-1.15-3.05-.18-.54-.35-1.08-.51-1.63a10.25,10.25,0,0,1-.36-1.55h0a1.14,1.14,0,0,1,0-.26v0s0,0,0,0h0Zm49,90.39.12.15-.12-.15Zm-48.9-89.24Z" transform="translate(-357.86 -350.46)"/>
    <path class="cls-1" d="M408.1,422.84c0,.05.17.28.14.23a5.84,5.84,0,0,0,.39.48c.25.27.5.55.76.8.53.5,1.05,1,1.6,1.48,1.12,1,2.28,1.95,3.45,2.88,2.33,1.85,4.73,3.61,7.17,5.32s5.05,3.49,7.63,5.15,5.17,3.21,7.78,4.77,5,3,7.52,4.44c2.7,1.6,5.4,3.2,8.11,4.77,5.16,3,10.4,5.87,15.66,8.68s10.66,5.67,16,8.49,10.44,5.47,15.71,8.09c5.56,2.75,11.14,5.43,16.7,8.15l7.93,3.9q4.26,2.07,8.54,4.1c2,1,4.1,1.95,6.17,2.9l2.77,1.25c1.39.6,2.78,1.19,4.16,1.8,0,0,0,0,0,0-1.54-.84-3-1.72-4.57-2.57-1.35-.75-2.7-1.5-4-2.23-2.61-1.4-5.24-2.75-7.86-4.1q-8.26-4.26-16.66-8.23c-5.36-2.56-10.75-5.07-16-7.75-2.76-1.39-5.51-2.79-8.24-4.25s-5.5-3-8.25-4.46c-5.21-2.84-10.46-5.63-15.67-8.48-2.61-1.44-5.22-2.9-7.8-4.39s-5.21-3.07-7.8-4.62-5.11-3.1-7.68-4.64-5.12-3.08-7.66-4.65-5.23-3.2-7.84-4.8l-3.92-2.42c-1.2-.75-2.4-1.52-3.59-2.3-2.86-1.89-5.72-3.78-8.46-5.84h0a13.27,13.27,0,0,1-1.95-1.72h0l-.12-.16h0a.09.09,0,0,1,0-.05h0Z" transform="translate(-357.86 -350.46)"/>
    <path class="cls-1" d="M361.42,378.55h0l.61.37c.27.17.52.36.78.54.54.4,1.07.82,1.61,1.23h0l5.82,4.49-.1-.09c1.63,1.27,3.26,2.54,4.92,3.77s3.49,2.52,5.25,3.75,3.55,2.46,5.33,3.67,3.57,2.39,5.37,3.56,3.58,2.3,5.38,3.44l5.46,3.45c3.45,2.16,7,4.23,10.36,6.48,1.84,1.21,3.65,2.45,5.45,3.71s3.56,2.54,5.34,3.82,3.3,2.4,5,3.59q2.77,2,5.56,3.92c3.49,2.44,7,4.86,10.55,7.19,1.76,1.16,3.57,2.26,5.38,3.35l5.23,3.1c7.51,4.42,15,8.82,22.48,13.32q5.34,3.23,10.65,6.49,2.81,1.71,5.57,3.48c1.84,1.16,3.65,2.36,5.46,3.56s3.46,2.32,5.2,3.49l5.11,3.47q5.37,3.65,10.71,7.32t10.48,7.22c3.58,2.48,7.16,5,10.81,7.33,1.37.89,2.76,1.75,4.15,2.59s2.88,1.74,4.35,2.56,3,1.61,4.44,2.36c1.72.87,3.46,1.68,5.2,2.5,0,0,0,0,0,0-2-1.13-3.93-2.36-5.83-3.63s-3.48-2.34-5.21-3.53-3.69-2.55-5.53-3.84-3.44-2.44-5.18-3.65q-5.25-3.69-10.57-7.28c-3.52-2.39-7.07-4.74-10.62-7.1l-10.82-7.16c-3.49-2.31-6.94-4.65-10.45-6.91s-7.3-4.66-11-7S477,453,473.42,450.86q-5.64-3.39-11.3-6.69c-1.81-1.06-3.61-2.11-5.39-3.17s-3.69-2.22-5.53-3.34q-5.42-3.32-10.69-6.83c-3.54-2.36-7-4.77-10.51-7.19s-7.18-5.05-10.79-7.56q-2.49-1.72-5-3.43c-1.77-1.2-3.54-2.41-5.33-3.58s-3.72-2.41-5.58-3.6-3.56-2.3-5.32-3.47c-3.57-2.35-7.1-4.74-10.66-7.11-1.66-1.11-3.34-2.22-5-3.3s-3.54-2.24-5.3-3.37c-3.55-2.26-7.07-4.59-10.64-6.81-.88-.55-1.77-1.09-2.66-1.62-.38-.23-.77-.46-1.17-.68l-.52-.28-.56-.29h0s0,0,0,0Zm3,2.14,0,0,0,0Z" transform="translate(-357.86 -350.46)"/>
    <path class="cls-1" d="M462.58,499.48a82.68,82.68,0,0,0-8.75.66c-3,.4-5.92.87-8.84,1.54-1.43.32-2.85.71-4.25,1.13-.65.19-1.29.41-1.93.62s-1.36.46-2,.72c-1.39.53-2.76,1.09-4.11,1.73a32.06,32.06,0,0,0-3.79,2.14c-.62.41-1.22.84-1.81,1.28s-1.12.9-1.66,1.37a16.65,16.65,0,0,0-1.45,1.46c-.19.21-.39.42-.56.65s-.27.35-.39.53-.18.3-.26.45a1.42,1.42,0,0,0-.13.33.06.06,0,0,0,0,0s0,0,0,0h0v0h0a.56.56,0,0,0,0-.12h0a4.38,4.38,0,0,1,.4-.62h0a16.35,16.35,0,0,1,2.59-2.4h0a32.47,32.47,0,0,1,3.28-2.15c.59-.33,1.18-.67,1.79-1s1.31-.62,2-.92l-.12.05,2.13-.85c.65-.26,1.32-.47,2-.69,1.38-.46,2.77-.86,4.17-1.24s2.69-.67,4.05-1,2.77-.62,4.16-.88c1.21-.23,2.42-.44,3.63-.62,1.39-.19,2.79-.37,4.19-.48s3.08-.21,4.63-.28c1.33-.06,2.67-.1,4-.12l4.65-.07c3,0,5.93,0,8.9,0s5.7.1,8.55.2c3.1.11,6.2.24,9.3.41,1.35.07,2.71.16,4.06.26s2.89.2,4.33.33c2.67.24,5.34.49,8,.81s5.44.66,8.16,1h0l5.46.72a.41.41,0,0,0,.16,0h0q5.93.78,11.85,1.5c3.47.42,6.95.85,10.41,1.29l-.08,0,1.11.15h.08l.81.11h0c2.1.29,4.2.57,6.29.9,0,0,0,0,0,0-1.65-.42-3.29-.82-5-1.16-1.51-.3-3-.57-4.53-.83-2.81-.47-5.63-.88-8.45-1.27l-4.46-.61.13,0-2.8-.38.13,0-2.84-.39.14,0-2.63-.36h-.12l-.14,0h0l-2.78-.37.14,0c-5.85-.79-11.69-1.58-17.56-2.13s-11.68-.93-17.53-1.19q-4.67-.19-9.33-.34c-2.92-.09-5.84-.13-8.76-.14H470c-2.47,0-4.93,0-7.39.11Zm64.49,4.06h0ZM422.67,514Zm2.95-3,0,0,0,0Z" transform="translate(-357.86 -350.46)"/>
    <path class="cls-1" d="M364.38,381.47a.76.76,0,0,0,0,.19,4.28,4.28,0,0,0,.18,1.06c.09.37.23.73.35,1.1.21.6.45,1.19.7,1.77.55,1.34,1.11,2.68,1.65,4l1.49,3.78c.52,1.3,1.06,2.6,1.61,3.89,1.08,2.57,2.21,5.13,3.33,7.69s2.27,5.17,3.43,7.75,2.31,5.16,3.51,7.72,2.4,5.1,3.64,7.63,2.5,5.1,3.8,7.62,2.62,5,3.95,7.47l4.09,7.7c1.35,2.57,2.66,5.15,4,7.72s2.64,4.94,3.94,7.42,2.57,5.06,3.82,7.6q1.35,2.75,2.65,5.51c.86,1.81,1.65,3.65,2.45,5.49l-.09-.23c.52,1.27,1.05,2.54,1.56,3.82.56,1.43,1.11,2.86,1.65,4.3.46,1.24.91,2.49,1.32,3.75s.9,2.8,1.32,4.21c.52,1.76,1,3.55,1.36,5.34s.77,3.59,1,5.41h0c0,.21.05.43.08.64,0,0,0,0,0,0,0-1.57-.08-3.13-.26-4.69-.16-1.39-.33-2.77-.57-4.15s-.53-2.9-.84-4.34-.69-2.79-1.08-4.16c-.77-2.71-1.69-5.38-2.69-8-.55-1.43-1.14-2.85-1.74-4.25s-1.16-2.6-1.76-3.89c-1.18-2.5-2.46-5-3.74-7.41s-2.65-4.91-4-7.37c-2.7-5.07-5.35-10.16-8-15.26-1.3-2.49-2.64-5-4-7.45s-2.63-5-3.9-7.46q-3.82-7.56-7.43-15.22c-2.4-5.13-4.69-10.32-7.08-15.45q-1.77-3.76-3.51-7.54c-1.19-2.58-2.4-5.14-3.68-7.68-.72-1.43-1.49-2.84-2.15-4.3l0,0a8,8,0,0,1-.44-1.33h0a2.56,2.56,0,0,1,0-.39,0,0,0,0,0,0,0h0s0,0,0,0Z" transform="translate(-357.86 -350.46)"/>
    <path class="cls-1" d="M365.64,389.33c.4,2.07.78,4.15,1.21,6.22s1,4.25,1.58,6.36,1.21,4.22,1.9,6.31,1.5,4.06,2.33,6.06c.44,1.07.91,2.13,1.4,3.19s.95,2,1.46,2.94c1,1.89,2.1,3.73,3.2,5.57q3.4,5.65,7.11,11.14c1.22,1.79,2.51,3.53,3.79,5.29s2.52,3.45,3.75,5.2c2.57,3.66,5.08,7.35,7.47,11.12,1.12,1.76,2.16,3.58,3.17,5.41.5.9,1,1.79,1.46,2.7.67,1.23,1.34,2.46,2,3.7,0,0,0,0,0,0-.52-1.33-1-2.67-1.52-4-.39-1-.79-2-1.21-2.94q-1.28-3-2.77-5.81c-1-2-2.08-3.88-3.24-5.75s-2.41-3.82-3.67-5.69c-2.4-3.59-5-7-7.49-10.56s-5-7.36-7.34-11.15q-1.67-2.72-3.19-5.51c-.52-1-1-1.94-1.53-2.93s-1-2-1.42-3.05c0-.09-.08-.19-.13-.28-.4-1-.79-1.95-1.16-2.94l-1.19-3.15c-.78-2-1.52-4-2.27-6.09-.69-1.89-1.37-3.79-2-5.7-.3-.91-.58-1.83-.86-2.74s-.59-1.94-.8-2.93h0a0,0,0,0,0,0,0Z" transform="translate(-357.86 -350.46)"/>
    <path class="cls-1" d="M362,380.46c0,.21.1.42.15.63s.13.53.19.79c.13.53.24,1.07.35,1.6.22,1,.44,2.07.68,3.11q.74,3.21,1.49,6.42c.5,2.11,1,4.23,1.36,6.36s.75,4.29,1.1,6.45.71,4.33,1.11,6.48.78,4.27,1.14,6.41.66,4.2,1,6.31.62,4.41.92,6.62l.09.67,0-.24c.29,2.21.58,4.41.89,6.62s.62,4.37.92,6.56.49,4.14.68,6.22.42,4.32.61,6.48.37,4.48.46,6.73.12,4.45.09,6.68c0,1.53-.08,3.07-.14,4.6,0,.7,0,1.39-.08,2.09,0,1,0,2.07-.07,3.12h0c.17-1.26.4-2.52.6-3.78s.36-2.26.51-3.39c.3-2.2.49-4.41.62-6.63s.11-4.32.07-6.48c0-1.07,0-2.15-.11-3.22s-.12-2.15-.22-3.23c-.4-4.46-1.12-8.88-1.75-13.31-.44-3.05-.88-6.11-1.3-9.16,0,0,0,.07,0,.1q-.42-3.19-.8-6.39c-.27-2.32-.57-4.62-.91-6.93-.31-2.14-.7-4.27-1.07-6.41s-.77-4.31-1.19-6.45-.83-4.19-1.38-6.25-1.17-4.19-1.84-6.27q-2-6.14-4-12.3a6.32,6.32,0,0,1-.18-.62h0s0,0,0,0Zm11.31,64.67v.12s0-.08,0-.12Zm0-13.16c0-.05,0-.1,0-.14V432Z" transform="translate(-357.86 -350.46)"/>
    <path class="cls-1" d="M384.16,479.08a14.21,14.21,0,0,0-4.1.64,7.22,7.22,0,0,0-2.21,1.21,5.91,5.91,0,0,0-.68.64,1.12,1.12,0,0,0-.18.2l0,0s0,0,0,0v0h0a5.16,5.16,0,0,1,.54-.5h0a6.16,6.16,0,0,1,1.32-.75h0A10,10,0,0,1,381,480h0c.48-.06,1-.09,1.46-.12h1c.36,0,.72,0,1.09.06s.67.07,1,.11,1,.15,1.44.26l.9.21.76.21c1,.28,2,.65,2.95,1s1.83.78,2.72,1.25c.49.26,1,.51,1.46.78l1.47.85c1.92,1.14,3.81,2.34,5.68,3.57,1.23.8,2.39,1.68,3.56,2.56.53.44,1.08.88,1.6,1.34s1.16,1,1.73,1.56c.3.28.59.6.89.89s.44.47.66.71.45.48.66.74l.81,1c.36.49.74,1,1.07,1.47.2.29.41.58.59.88l.66,1.07c.16.27.31.55.46.82s.29.52.42.79.31.59.45.89.31.7.47,1a.49.49,0,0,1,0-.11c.16.42.34.82.5,1.24s.37,1,.54,1.46c.37,1,.76,2,1.18,3h0l.07.16s0,0,0,0c-.34-1.25-.57-2.52-.84-3.79a25.5,25.5,0,0,0-.92-3.09c-.2-.54-.42-1.06-.65-1.59l-.25-.55c-.13-.25-.24-.5-.36-.75-.5-.94-1-1.88-1.59-2.77-.32-.46-.62-.93-1-1.38s-.72-1-1.1-1.41-.74-.87-1.14-1.29-.79-.83-1.2-1.22c-.8-.79-1.65-1.51-2.51-2.22s-1.77-1.37-2.68-2-1.71-1.13-2.58-1.67-1.92-1.19-2.89-1.76-1.94-1.12-2.94-1.65-2-1-3-1.42c-.52-.23-1.05-.42-1.57-.61l-.64-.22-.73-.23c-.53-.14-1.07-.3-1.61-.41l-.86-.18c-.3-.07-.62-.1-.92-.15a18.23,18.23,0,0,0-2.66-.21Zm1.49,1h0Zm5.85,1.63.11.05-.11-.05Zm27.66,27.83h0Zm-41.62-28.2h0Zm0,0Z" transform="translate(-357.86 -350.46)"/>
    <path class="cls-1" d="M644,354c-1.67.58-3.35,1.14-5,1.69-1.43.47-2.86,1-4.29,1.42l-2.34.75c-.78.25-1.57.48-2.35.72l-1.9.55-2,.55c-.7.18-1.41.39-2.11.56l-2.67.67c-.54.14-1.08.27-1.63.39l-2.1.51c-3.1.71-6.2,1.43-9.31,2.13-11.66,2.6-23.34,5.09-35,7.56-2.94.63-5.88,1.19-8.83,1.76l-2.12.38-2.39.43c-1.54.28-3.1.52-4.64.78-3,.51-6.08,1-9.12,1.45s-6,.92-8.94,1.36c-1.47.23-2.94.43-4.41.64l-2.1.28c-.7.09-1.42.2-2.12.28-1.44.17-2.87.36-4.31.5s-2.91.31-4.36.44l-4.58.4c-6.07.48-12.15.88-18.22,1.3l-9,.58c-3,.19-6,.32-9,.46s-6,.19-8.94.26-6,.09-9,.11q-8.78.06-17.55-.25-4.41-.17-8.84-.37l-9.2-.43-9.53-.39c-3-.11-6-.19-8.93-.26-6-.16-12.05-.21-18.08-.28l-4.28-.08-1.79-.05c-.65,0-1.3,0-1.95,0l-2.64-.11-2-.12c-1.34-.07-2.67-.21-4-.36-.67-.09-1.34-.2-2-.32s-1.14-.27-1.71-.42a0,0,0,0,0,0,0c.57.16,1.13.33,1.7.47l.91.23,1.11.24c.71.13,1.4.25,2.11.36l2.11.29c.65.07,1.3.16,2,.22l2.61.23c.78.07,1.57.11,2.36.17l1.8.11,4.71.21c1.54.06,3.09.11,4.64.15,3,.07,6.06.11,9.09.16q8.73.14,17.46.5c6.29.26,12.57.56,18.86.83,11.84.51,23.7.65,35.54.35q4.52-.12,9-.34t8.88-.5q9-.57,17.92-1.34c3-.25,6-.53,9-.81l1.92-.2,2.17-.22c1.43-.17,2.87-.31,4.3-.49,2.93-.37,5.85-.74,8.77-1.16s6-.87,9-1.33l4.46-.7,4.65-.75,4.64-.8c1.5-.26,3-.55,4.51-.83s2.95-.57,4.43-.86,2.93-.59,4.39-.88c2.91-.59,5.8-1.21,8.69-1.81q8.76-1.83,17.49-3.71l8.88-1.93c1.6-.35,3.2-.7,4.8-1.07s3-.7,4.51-1.07c2.1-.52,4.19-1.08,6.28-1.66,1-.27,2-.58,3-.87.55-.16,1.08-.35,1.62-.52s.92-.29,1.38-.45l2-.71c.49-.17,1-.36,1.45-.55,1.12-.43,2.24-.88,3.35-1.34,2.32-1,4.59-2,6.89-3a0,0,0,0,0,0,0Z" transform="translate(-357.86 -350.46)"/>
    <path class="cls-1" d="M498.55,420.17h0s0,0,0,0a2.57,2.57,0,0,1,.17.66h0a6.64,6.64,0,0,1,0,1.18h0v0h0a7,7,0,0,1-.22,1c-.1.34-.24.67-.37,1h0c-.21.47-.43.94-.66,1.4s-.47.9-.66,1.36c0,0,0,0,0,0,.17-.26.37-.5.55-.76s.32-.47.47-.72a8.68,8.68,0,0,0,.78-1.59,5.67,5.67,0,0,0,.31-1.68,4.08,4.08,0,0,0,0-.78,3.71,3.71,0,0,0-.26-1s-.05-.17-.1-.18v0Zm-.38,3.87v0Zm.57-2h0v0Z" transform="translate(-357.86 -350.46)"/>
    <path class="cls-1" d="M498.39,427.39a6.35,6.35,0,0,1-1,.08h0l-.09,0s0,0,0,0h0a4.44,4.44,0,0,0,.89.06,10.64,10.64,0,0,1,1.26.07,11.42,11.42,0,0,1,1.92.46c.45.14.88.31,1.31.48.64.29,1.28.58,1.91.91,0,0,0,0,0,0a13.9,13.9,0,0,0-1.41-.95,13.72,13.72,0,0,0-1.51-.69,7.8,7.8,0,0,0-2-.45h-.43a6.54,6.54,0,0,0-.89.06Zm1.12.22h0Z" transform="translate(-357.86 -350.46)"/>
    <path class="cls-1" d="M500.27,420.55c.22.2.45.4.7.59h0a6.81,6.81,0,0,0,2.43,1.23,6.49,6.49,0,0,0,1.32.21h.73c.31,0,.61-.07.92-.11,0,0,0,0,0,0l-.75-.05h0l-.46-.06h0l-1.47-.29a12.62,12.62,0,0,1-1.47-.48l0,0-.42-.18h0a8.35,8.35,0,0,1-1.53-.82h0l-.07-.05h0s0,0,0,0Zm1.56.83h0Zm3.38.95h0ZM501,421.14h0Z" transform="translate(-357.86 -350.46)"/>
    <path class="cls-1" d="M506.68,424.41a2.17,2.17,0,0,0-.74,1.27,3.36,3.36,0,0,0,0,1.78,3.49,3.49,0,0,0,1,1.59s0,0,0,0c-.14-.24-.27-.48-.39-.74l0,0a4.61,4.61,0,0,1-.31-1.1v0a6,6,0,0,1,0-1.52,3.93,3.93,0,0,1,.19-.75,2.36,2.36,0,0,1,.29-.48h0l.22-.21h0a.86.86,0,0,1,.2-.13h.06s0,0,0,0h0a1.62,1.62,0,0,0-.56.27Zm-.18.56v0Zm-.21.79h0Zm.69-1.45Zm0,0h0Zm.21-.13Z" transform="translate(-357.86 -350.46)"/>
    <path class="cls-1" d="M620.94,398s0,0,0,0h0a1.47,1.47,0,0,1,.28.08h0l.24.13h0a2.2,2.2,0,0,1,.3.31,3,3,0,0,1,.32.55,4,4,0,0,1,.19.74,3,3,0,0,1,0,.67h0a4.29,4.29,0,0,1-.23.87h0a3,3,0,0,0,.39-.85,2.24,2.24,0,0,0-.1-1.4,1.88,1.88,0,0,0-.71-.89,1.47,1.47,0,0,0-.64-.24h-.13Zm.88.54h0Zm.32.57Zm.2,1.39Zm-.82-2.27h0Zm-.25-.13Z" transform="translate(-357.86 -350.46)"/>
    <path class="cls-1" d="M623.75,402.59a2.77,2.77,0,0,0-.52.38,3,3,0,0,0-.23.26.41.41,0,0,0-.08.13s0,0,0,0h0l0,0h0a2.14,2.14,0,0,1,.32-.28h0a4.49,4.49,0,0,1,.42-.24h0a5,5,0,0,1,1.09-.3h0a4.64,4.64,0,0,1,1.29,0h0a4.59,4.59,0,0,1,.83.21h0a4.77,4.77,0,0,1,.73.42l.43.36s0,0,0,0a3.17,3.17,0,0,0-.66-.76,3.21,3.21,0,0,0-1.83-.56h-.09a3.61,3.61,0,0,0-1.64.43Z" transform="translate(-357.86 -350.46)"/>
    <path class="cls-1" d="M623.55,398c.06.06.14.11.2.16l.2.16a3.1,3.1,0,0,0,.66.39,2.85,2.85,0,0,0,.64.22l.46.07a3.84,3.84,0,0,0,.76-.07s0,0,0,0a4.19,4.19,0,0,1-.5,0h0a9,9,0,0,1-1.68-.51,4,4,0,0,1-.74-.38h0s0,0,0,0Z" transform="translate(-357.86 -350.46)"/>
    <path class="cls-1" d="M628.67,400.52a1.59,1.59,0,0,0-.58,1.14,1.27,1.27,0,0,0,.72,1.11s0,0,0,0a2.28,2.28,0,0,1-.22-.22h0a1.62,1.62,0,0,1-.21-.36,1.67,1.67,0,0,1-.08-.3h0v0h0a2.17,2.17,0,0,1,0-.51h0v0h0a2.35,2.35,0,0,1,.14-.45h0a.77.77,0,0,1,.14-.25h0a.94.94,0,0,1,.1-.1s0,0,0,0Zm0,2h0Zm-.3-.68h0v0Zm0-.53h0Z" transform="translate(-357.86 -350.46)"/>
    <path class="cls-1" d="M501.06,422.82a1.3,1.3,0,0,0,0,.65,6.34,6.34,0,0,1,.19.84,2.26,2.26,0,0,1,0,.52s0-.05,0-.08a2.29,2.29,0,0,1-.07.28v0l0,0v0a1.13,1.13,0,0,1-.12.21v0l-.19.19h0a2.33,2.33,0,0,1-.34.2h0a5.31,5.31,0,0,1-.68.2c-.18,0-.37.05-.54.1,0,0,0,0,0,0h0a2.9,2.9,0,0,1,.51,0,2.22,2.22,0,0,0,.36,0,1.91,1.91,0,0,0,1.32-.47,1.81,1.81,0,0,0,.42-1.23c.08.16.17.32.26.47a2.77,2.77,0,0,0,.87,1,1.12,1.12,0,0,0,.46.17,1.53,1.53,0,0,0,.9-.24s0,0,0,0a1.3,1.3,0,0,1-.33.07h0a1.08,1.08,0,0,1-.36,0h0l-.15-.05a1.88,1.88,0,0,1-.24-.14,3.57,3.57,0,0,1-.27-.28,4.37,4.37,0,0,1-.41-.77l0,.06-.36-.92c-.14-.35-.31-.93-.71-1l-.13,0a.47.47,0,0,0-.46.34Zm2,2.32,0,0,0,0Zm1,.52h0Zm-3.55-.05h0Zm.67-.58Z" transform="translate(-357.86 -350.46)"/>
    <path class="cls-1" d="M624.36,399.21a1.3,1.3,0,0,0,.06.44,2.8,2.8,0,0,1,0,.41,3.77,3.77,0,0,1-.14.58,2.77,2.77,0,0,1-.33.55h0a3.14,3.14,0,0,1-.32.31l-.19.1h0l-.17,0h0s-.13,0-.15,0a0,0,0,0,0,0,0h0c.75.11,1.37-.57,1.65-1.19a2.79,2.79,0,0,0,.12-.34,2.76,2.76,0,0,0,.29.3,3.45,3.45,0,0,0,.63.45,1.42,1.42,0,0,0,1.43-.13s0,0,0,0a1.14,1.14,0,0,1-.32.07h0a1.22,1.22,0,0,1-.33,0h0a1.2,1.2,0,0,1-.27-.08h0a1.2,1.2,0,0,1-.27-.16h0a4.1,4.1,0,0,1-.62-.63h0a5,5,0,0,1-.38-.63c-.1-.18-.17-.37-.41-.38h0a.34.34,0,0,0-.33.25Zm.67,0v.06h0s0,0,0-.06Zm0,.06v0h0v0Zm-.6.2,0,0,0,0Zm0,.05h0Zm1,.43,0,0,0,0Zm-1.23.63h0Zm0,0v0a0,0,0,0,1,0,0Zm-.65.86h0Zm-.19.1Zm3.2-.77h0Z" transform="translate(-357.86 -350.46)"/>
    <path class="cls-1" d="M643.81,350.48c-.38.06-.44.67-.51,1a11.92,11.92,0,0,1-.54,1.66c-.15.33-.31.66-.48,1l-.26.42a1.4,1.4,0,0,0-.16.26s0,0,0,0l0,0c.2-.25.43-.47.63-.71a7.24,7.24,0,0,0,.63-.93c.18-.3.35-.62.51-.94s.23-.42.34-.63a2,2,0,0,0,.48.36,2.64,2.64,0,0,0,.38.18,11.88,11.88,0,0,0-.63,1.23,5.29,5.29,0,0,0-.24.8,2,2,0,0,0,0,1.17s0,0,0,0a.76.76,0,0,1,0-.26,4,4,0,0,1,.16-.49v0l.09-.22a10,10,0,0,1,.9-1.51l.3-.37c.12-.15.32-.34.3-.55a.56.56,0,0,0-.39-.5l-.39-.13-.27-.16a2.08,2.08,0,0,1-.21-.21c-.16-.22-.3-.42-.58-.42l-.12,0Zm-.07.72h0Zm1.26.6,0,.06h0a.17.17,0,0,1,0-.05Zm.19,1v0Zm-2.44.35v0Zm1.53,1.17h0Zm-.25.7Zm.16-.49h0Z" transform="translate(-357.86 -350.46)"/>
    <path class="cls-1" d="M361,372.79l-.72.35a7.58,7.58,0,0,1-.8.28,5.39,5.39,0,0,0-1.2.37,1.08,1.08,0,0,0-.31.33.93.93,0,0,0-.11.47,1.14,1.14,0,0,0,.13.51,3.29,3.29,0,0,0,.21.42l.52.79a20.75,20.75,0,0,1,1.8,3.14,6,6,0,0,1,.39,1.25h0v.08a0,0,0,0,0,0,0,4.19,4.19,0,0,0,0-.5h0a14.1,14.1,0,0,0-.75-2.78c-.3-.88-.65-1.77-.87-2.67.42-.14.85-.25,1.27-.4s.74-.3,1.12-.44c.05.24.09.48.14.71a9.32,9.32,0,0,0,.3,1,6.36,6.36,0,0,0,1.19,2,4.75,4.75,0,0,0,1.62,1.22,4,4,0,0,0,.89.26c.24,0,.48.05.72.08h0l.1,0s0,0,0,0A4.65,4.65,0,0,0,366,379a5.3,5.3,0,0,1-.87-.55l0,0a8.12,8.12,0,0,1-.87-.89,8.3,8.3,0,0,1-.76-1.28,9.41,9.41,0,0,1-.47-1.75q0-.36-.06-.72a5.35,5.35,0,0,0-.08-.7,1,1,0,0,0-.65-.69l-.25,0a2.22,2.22,0,0,0-1,.4Zm-.48,6.68h0Z" transform="translate(-357.86 -350.46)"/>
    <path class="cls-1" d="M420.88,512.16c0,.22,0,.45,0,.66a6.84,6.84,0,0,1-.05.79h0a7.33,7.33,0,0,1-.48,1.72h0v0l0,.07,0-.07c-.09.21-.19.41-.29.6s-.36.7-.16,1,.61.37,1,.35l.69-.05.74,0h.23a1.39,1.39,0,0,0,.7-.12.79.79,0,0,0,.27-1.09,4.27,4.27,0,0,1-.26-.86,3.76,3.76,0,0,1,0-.75,4.36,4.36,0,0,1,.2-.79h0a3.42,3.42,0,0,1,.33-.59,4,4,0,0,1,.68-.69h0a1.86,1.86,0,0,1,.19-.11h0s0,0,0,0a1.32,1.32,0,0,0-.75.27,3.1,3.1,0,0,0-1,1.06,4,4,0,0,0-.49,1.82,5.83,5.83,0,0,0,.06.71c-.32.08-.65.13-1,.18a5.28,5.28,0,0,1-.55,0,15.91,15.91,0,0,0,.2-1.95,6,6,0,0,0,0-1c-.06-.38-.17-.74-.25-1.11h0v0h0Zm0,0h0Zm0,1.45v0Zm.61,2.64h0Zm-.52.38h0v0Zm-.57-1.3Z" transform="translate(-357.86 -350.46)"/>
    <path class="cls-1" d="M561,509a3.84,3.84,0,0,0,.61,1.19,3.22,3.22,0,0,0,.69.69l0,0a2.87,2.87,0,0,0-.91.71,2.68,2.68,0,0,0-.31.54l-.65-.45.05,0c-.38-.3-.72-.63-1.07-.94s-.65-.53-1-.78h0l-.06,0s0,0,0,0h0a13.82,13.82,0,0,1,1.34,1.42h0a6.62,6.62,0,0,1,.76,1.25c.2.42.42,1,1,.74a.51.51,0,0,0,.19-.68v-.05a1.7,1.7,0,0,1,0-.22,2.76,2.76,0,0,1,.08-.27,1.82,1.82,0,0,1,.15-.23l0,0,0,0,0,0,0,0a1.75,1.75,0,0,1,.23-.24,3.38,3.38,0,0,1,.58-.34,5.54,5.54,0,0,1,.58-.17h.08a.34.34,0,0,0,.24-.42h0a.34.34,0,0,0-.33-.25,1.1,1.1,0,0,0-.4.08h-.11a1.59,1.59,0,0,1-.41-.12l0,0a2.31,2.31,0,0,1-.42-.27,3,3,0,0,1-.35-.36h0l-.15-.19h0a5,5,0,0,1-.42-.7h0s0,0,0,0Zm1.72,2.36h0Zm-1,.86,0,0,0,0Zm-.11.46v0Zm.26-.72h0Zm-2.18-.51,0,0,0,0Zm1.77-1.76Z" transform="translate(-357.86 -350.46)"/>
    <path class="cls-1" d="M702,454.47c.24.08.47.18.71.28h0a12.86,12.86,0,0,1,2.13,1.07,6.51,6.51,0,0,1-.73.41,3.67,3.67,0,0,1-.72.2,2.33,2.33,0,0,1-.59,0h0l-1.48-.2h0A16.64,16.64,0,0,0,699,456s0,0,0,0h0a3.26,3.26,0,0,1,.63.18l.66.22c.47.15.93.31,1.39.49a5.4,5.4,0,0,0,1.22.44,2.4,2.4,0,0,0,1.51-.27,10.47,10.47,0,0,0,1-.6.68.68,0,0,0,.36-.75c-.11-.3-.43-.41-.71-.5s-.43-.1-.64-.15l-.8-.19-1.74-.39s0,0,0,0Zm-.68,1.74h0Zm1.38-1.46h0Z" transform="translate(-357.86 -350.46)"/>
    <path class="cls-1" d="M374.81,481.54l-.29.12h0l-.52.22a3.66,3.66,0,0,1-.44.13h-.08a.8.8,0,0,0-.26-.05.49.49,0,0,0-.24.08,1.58,1.58,0,0,0-.29.22h0l0,0,0,0-.52.42h0c-.21.16-.43.3-.63.47a.46.46,0,0,0-.1.52.48.48,0,0,0,.41.24,3.29,3.29,0,0,0,1.69-.25,14.31,14.31,0,0,0,1.54-.71c.25-.12.5-.26.74-.39s.43-.27.66-.38h0s0,0,0,0-.06,0-.08,0h0c-.56.24-1.16.41-1.74.6a11.1,11.1,0,0,1-1.79.43,2.83,2.83,0,0,1-.41,0l.37-.33c.15-.14.28-.33.45-.47a.89.89,0,0,0,.79-.31l.53-.42h0l.2-.14s0,0,0,0Zm-.17.15h0Zm-.59.18h0Zm-.69.52,0,0h0l0,0Zm0,0h0Zm-.63-.16Z" transform="translate(-357.86 -350.46)"/>
    <path class="cls-1" d="M626.9,478a7.37,7.37,0,0,0,.43,1.1c.24.5.48,1,.74,1.48.5.92,1.07,1.81,1.66,2.68s1.23,1.75,1.85,2.63,1.21,1.72,1.81,2.59a60.73,60.73,0,0,1,3.28,5.49c.49.92.92,1.86,1.37,2.79s.9,1.85,1.32,2.79v0c.12.29.24.59.34.89,0,0,0,0,0,0a10.86,10.86,0,0,0-.25-1.6,13.78,13.78,0,0,0-.45-1.42,22.56,22.56,0,0,0-1.35-2.91c-1-1.87-2.12-3.7-3.31-5.48-2.35-3.53-5-6.86-7.19-10.52q-.1-.18-.21-.39h0s0-.07,0-.11h0s0,0,0,0Z" transform="translate(-357.86 -350.46)"/>
    <path class="cls-1" d="M637.64,474s0,.17,0,.21,0,.29,0,.43c0,.32.09.63.15.94.11.67.2,1.35.3,2v0c.11.85.19,1.7.26,2.56s.08,1.85.07,2.78a45,45,0,0,1-.44,5.19l0-.09c-.13.91-.27,1.81-.4,2.72s-.23,1.89-.33,2.84c0,0,0,0,0,0,.3-1.12.67-2.21,1-3.34s.46-2.07.63-3.12a30.13,30.13,0,0,0,.34-3.14,17.64,17.64,0,0,0-.14-3.17q-.23-1.71-.6-3.39c-.13-.56-.26-1.11-.4-1.66s-.32-1.08-.42-1.63h0a.37.37,0,0,1,0-.11h0v0h0Zm.46,3.58v0Z" transform="translate(-357.86 -350.46)"/>
    <path class="cls-1" d="M631.41,487.62l0,.05a1.43,1.43,0,0,0,0,.36,3.62,3.62,0,0,0,0,.57c0,.4.07.79.12,1.18.09.72.19,1.45.22,2.18s.07,1.5,0,2.25a23.16,23.16,0,0,1-.17,2.51h0c-.35,2.21-.94,4.37-1.41,6.55,0,0,0,0,0,0,.23-.47.48-.93.7-1.41s.42-1,.61-1.44a17.64,17.64,0,0,0,.88-3,15.09,15.09,0,0,0-.2-6.24c-.13-.58-.27-1.16-.42-1.73a12.08,12.08,0,0,1-.37-1.58h0a.81.81,0,0,1,0-.22h0v0h0s0,0,0,0Zm.22,9v0Z" transform="translate(-357.86 -350.46)"/>
    <path class="cls-1" d="M640.19,500.64a17.62,17.62,0,0,1-2.3,2h0l-.36.28.06-.05a10.12,10.12,0,0,1-1.81,1.09,6.67,6.67,0,0,1-1.64.46h.07a5.82,5.82,0,0,1-1.56,0,7.12,7.12,0,0,1-1.57-.41h0a2.13,2.13,0,0,1-.45-.23l0-.06h0l0,0h0c0,.13.24.27.32.33a3.12,3.12,0,0,0,.43.27,6.06,6.06,0,0,0,1.09.44,5.79,5.79,0,0,0,2.38.14,5.72,5.72,0,0,0,2.29-.91,7.12,7.12,0,0,0,.89-.63,9.83,9.83,0,0,0,.92-.79,7.7,7.7,0,0,0,.75-.86,6.61,6.61,0,0,0,.57-1s0,0,0,0Zm-9.6,3h0Zm5.17.31h0Zm-3.08.43h0Z" transform="translate(-357.86 -350.46)"/>
    <path class="cls-1" d="M634.51,482.76a2.79,2.79,0,0,0-.94,1.13c-.11.22-.2.43-.29.65a3.75,3.75,0,0,0-.23.81,3.23,3.23,0,0,0-.07.69.74.74,0,0,0,.06.36h0s0,0,0,0l0-.05h0a1.38,1.38,0,0,1,0-.29h0a4.59,4.59,0,0,1,.21-.81v0a6.61,6.61,0,0,1,.67-1.19,3.72,3.72,0,0,1,.52-.53h0a2.39,2.39,0,0,1,.34-.21l.26-.07h.23l.11,0,.09.05.15.14a2.85,2.85,0,0,1,.25.45,9.27,9.27,0,0,1,.36,1.47c.11,1,.13,1.95.15,2.93a21.13,21.13,0,0,0,.1,2.87h0a2.51,2.51,0,0,1,0,.27h0a1.11,1.11,0,0,1,0-.17h0c.07-.45.17-.9.25-1.35s.16-1,.22-1.53a14.53,14.53,0,0,0,.1-3.09,5.27,5.27,0,0,0-.43-1.79,1.71,1.71,0,0,0-1-1,1.9,1.9,0,0,0-.4-.05,1.57,1.57,0,0,0-.82.25Zm-.61,1.34h0Zm2.32,1.22v.1a.34.34,0,0,1,0-.1Zm-3.16,1.06Zm3.41,4.84h0Z" transform="translate(-357.86 -350.46)"/>
    <path class="cls-1" d="M639.9,500.88a.27.27,0,0,0-.08.18c-.05.44,0,.89-.05,1.33a14.09,14.09,0,0,1-.08,1.45,9.4,9.4,0,0,1-.23,1.08c-.13.43-.27.86-.41,1.28s-.27.86-.39,1.3c0,.21-.09.42-.13.63s-.08.44-.1.66,0,.24,0,.36,0,.26,0,.39v.36c0,.13,0,.24,0,.36,0,.44.06.88.11,1.32s.14.94.21,1.41l.21,1.37s0,0,0-.07c.07.54.13,1.07.18,1.61,0,.25,0,.51,0,.77s0,.25,0,.38l0,.35a2,2,0,0,1-.06.34,2.49,2.49,0,0,1-.09.37,5.29,5.29,0,0,1-.27.76.28.28,0,0,0,0,.2.24.24,0,0,0,.15.11.25.25,0,0,0,.19,0,.35.35,0,0,0,.12-.15c.12-.32.23-.64.32-1a4.45,4.45,0,0,0,.13-.89,2.55,2.55,0,0,0,0-.39c0-.18,0-.35,0-.52s0-.6-.07-.9c-.14-1.27-.36-2.53-.54-3.8a.2.2,0,0,0,0,.07,12.3,12.3,0,0,1-.12-1.35c0-.11,0-.22,0-.32v-.4l0-.39c0-.12,0-.24,0-.35s0-.3.07-.45.07-.4.12-.6.17-.65.27-1,.21-.64.31-.95.22-.69.31-1a8.77,8.77,0,0,0,.25-1.91c0-.32,0-.64,0-1s0-.57,0-.86a.26.26,0,0,0-.07-.18.29.29,0,0,0-.18-.07.28.28,0,0,0-.17.07Zm-.82,16.48v0Zm0,0v0Z" transform="translate(-357.86 -350.46)"/>
    <path class="cls-1" d="M639.81,501.58a.47.47,0,0,0,0,.17,2.09,2.09,0,0,0,0,.25c0,.21,0,.42,0,.62,0,.44,0,.87,0,1.3s0,.84,0,1.25c0,.21,0,.42,0,.62s0,.37-.05.56-.07.46-.12.69-.11.54-.17.81c-.12.51-.26,1-.39,1.54s-.25,1-.36,1.55-.18,1-.25,1.56-.1,1-.13,1.49,0,1,0,1.52c0,.23,0,.45,0,.67a5.78,5.78,0,0,0,0,.72,3.06,3.06,0,0,0,0,.32,2.8,2.8,0,0,0,.06.28c.07.25.19.49.28.74a2.32,2.32,0,0,1,.13.45,2.72,2.72,0,0,1,0,.49,6.52,6.52,0,0,1-.21.72,6.88,6.88,0,0,0-.24.89.27.27,0,0,0,0,.2.25.25,0,0,0,.45-.06,8.35,8.35,0,0,1,.28-1c.05-.15.1-.3.14-.46a1.88,1.88,0,0,0,.07-.53,2.19,2.19,0,0,0,0-.51,4.5,4.5,0,0,0-.16-.48,5.38,5.38,0,0,1-.2-.51,4.21,4.21,0,0,1-.12-.48c0-.35,0-.71,0-1.07s0-.8,0-1.19,0-.87.06-1.31.08-.79.13-1.19h0c.07-.48.15-.94.25-1.41s.21-.89.32-1.33.23-.93.35-1.39a12.9,12.9,0,0,0,.27-1.35,10.7,10.7,0,0,0,.12-1.27c0-.43,0-.85,0-1.28s0-.88,0-1.32c0-.21,0-.41,0-.62l0-.56h0a.24.24,0,0,0-.18-.25h-.06a.24.24,0,0,0-.24.19Zm.48.13ZM638.74,517v0Z" transform="translate(-357.86 -350.46)"/>
    <path class="cls-1" d="M638.81,518.65h-.12a.52.52,0,0,0-.22.07.24.24,0,0,0-.09.34l0,0a.34.34,0,0,0,0,.1,1.12,1.12,0,0,0,.05.13.65.65,0,0,0,.16.17,1,1,0,0,0,.27.17l.17.05a.74.74,0,0,0,.21,0,.59.59,0,0,0,.2-.16l0-.12a.13.13,0,0,1,0-.06.76.76,0,0,0,0-.15.84.84,0,0,0-.13-.27.06.06,0,0,0,0,0,.36.36,0,0,0-.13-.19l-.11-.05,0,0-.14,0Zm-.08.52Z" transform="translate(-357.86 -350.46)"/>
    <path class="cls-1" d="M637.19,500.73c-.36.19-.74.36-1.11.53l-.4.17h0c-.4.15-.8.28-1.2.4a11.55,11.55,0,0,1-1.17.24h0l-.3,0h0a5.78,5.78,0,0,1-.72,0h0l-.24-.05-.06,0s0,0,0,0h0a3.2,3.2,0,0,0,1.44.18,5.41,5.41,0,0,0,1.26-.19,5.74,5.74,0,0,0,1.19-.46,8.85,8.85,0,0,0,1.32-.87s0,0,0,0Zm-3.86,1.34h0Zm2.34-.64h0Z" transform="translate(-357.86 -350.46)"/>
    <path class="cls-1" d="M698,451.24a2.93,2.93,0,0,0-.67.37,5.05,5.05,0,0,0-.71.59,4,4,0,0,0-.74,1.08,3.6,3.6,0,0,0-.31,1.11,2.28,2.28,0,0,0,.13,1,0,0,0,1,0,0,0,2,2,0,0,1,0-.49h0a4.77,4.77,0,0,1,.32-1.1,10.38,10.38,0,0,1,.81-1.36v0l0,0h0a5.35,5.35,0,0,1,.91-1h0l.23-.14h0s0,0,0,0Zm-2,2.55v0Zm-.3,1.08v0Zm1.13-2.47h0Z" transform="translate(-357.86 -350.46)"/>
    <path class="cls-1" d="M560.11,503.6a6.05,6.05,0,0,0-2.1.56,4.11,4.11,0,0,0-.86.5,4.48,4.48,0,0,0-.4.36s-.18.17-.15.23,0,0,0,0h0v0h0s0,0,0,0h0a.87.87,0,0,1,.15-.13h0a3.89,3.89,0,0,1,.73-.38,10,10,0,0,1,1.76-.48c.42,0,.82-.07,1.23-.08a6.63,6.63,0,0,1,1.18.08c.44.07.87.16,1.3.27s.89.21,1.31.35c0,0,0,0,0,0a8.81,8.81,0,0,0-2-.93,6.29,6.29,0,0,0-1.88-.27Zm-2.57,1.07h0Z" transform="translate(-357.86 -350.46)"/>
    <path class="cls-1" d="M554.68,506.29s0,0,0,0a1.12,1.12,0,0,0-.18.48.71.71,0,0,0,.06.38,1.11,1.11,0,0,0,.53.47s0,0,0,0a1.88,1.88,0,0,1-.25-.24h0a1.12,1.12,0,0,1-.16-.28,1.18,1.18,0,0,1-.08-.31h0a.7.7,0,0,1,0-.29h0l0-.11h0a.27.27,0,0,1,.06-.12h0s0,0,0,0Zm0,.82h0Z" transform="translate(-357.86 -350.46)"/>
    <path class="cls-1" d="M638.39,357.4h0a.61.61,0,0,1,.07.14h0l.15.39h0a4.84,4.84,0,0,0,2,2.23A6.24,6.24,0,0,0,644,361s0,0,0,0c-.67-.22-1.32-.46-2-.7-.37-.17-.73-.34-1.09-.55a9.38,9.38,0,0,1-.83-.57,9.53,9.53,0,0,1-1.41-1.43h0a.86.86,0,0,1-.07-.1h0l-.08-.1h0a.35.35,0,0,0,0-.08h0s0-.06-.05-.06h0s0,0,0,0Zm.2.21Z" transform="translate(-357.86 -350.46)"/>
    <path class="cls-1" d="M369.87,385.58a15.42,15.42,0,0,1-1.54,1c-.54.3-1.09.57-1.66.84a4.88,4.88,0,0,1-1.12.36h0c-.05,0-.18,0-.21,0v0H366a3.44,3.44,0,0,0,.78-.13,8.18,8.18,0,0,0,1.26-.44,4.22,4.22,0,0,0,1.06-.67,5.83,5.83,0,0,0,.76-1,0,0,0,0,0,0,0Z" transform="translate(-357.86 -350.46)"/>
    <path class="cls-1" d="M373.18,381.2a4.16,4.16,0,0,1-.16.5h0a7.08,7.08,0,0,1-.82,1.34h0l0,0h0a7.42,7.42,0,0,1-.92.94l.05,0-.25.18,0,0a7.36,7.36,0,0,0-.63.47s0,0,0,0c.27-.08.54-.12.8-.22a3.26,3.26,0,0,0,1-.63,3.19,3.19,0,0,0,.9-1.93h0c0-.24,0-.48.06-.72h0l0,0h0s-.06.14-.06.15Zm-1,1.85h0l0,0,0,0Zm1-1.22v0Zm.06-.72Z" transform="translate(-357.86 -350.46)"/>
    <path class="cls-1" d="M421.1,503.45c.29.41.55.82.87,1.2a5.19,5.19,0,0,0,3.33,1.74,7.91,7.91,0,0,0,1.82,0,11.57,11.57,0,0,0,1.64-.41s0,0,0,0c-1-.14-2-.14-2.95-.22h0a3.11,3.11,0,0,0-.44-.06,10.64,10.64,0,0,1-1.78-.49,8.83,8.83,0,0,1-1.74-1h0a4.39,4.39,0,0,1-.72-.71h0l-.06-.07h0s0,0,0,0Z" transform="translate(-357.86 -350.46)"/>
  </g>
</svg>
