<svg xmlns="http://www.w3.org/2000/svg" width="776.01" height="592.58" viewBox="0 0 776.01 592.58">
  <defs>
    <style>
      .cls-1 {
        fill: #404040;
      }

      .cls-2 {
        fill: #7f7f7f;
      }
    </style>
  </defs>
  <title>TarpManualBowlineKnot</title>
  <g id="Cord">
    <path class="cls-1" d="M514.71,308a18.23,18.23,0,0,0-2.44.28,34.16,34.16,0,0,0-4.56,1.25,28.36,28.36,0,0,0-4.48,1.89,42.5,42.5,0,0,0-4,2.39c-.71.48-1.4,1-2.06,1.52a12.77,12.77,0,0,0-1.66,1.71,21.36,21.36,0,0,0-2.4,3.63,16.26,16.26,0,0,0-1,2.35,17.23,17.23,0,0,0-.52,2.26c-.12.81-.22,1.63-.28,2.45a12.64,12.64,0,0,0,0,2.46q.07.65.21,1.29a10.63,10.63,0,0,0,.36,1.22,11.81,11.81,0,0,0,1.14,2.41,18,18,0,0,0,1.59,2.09c.54.62,1.11,1.21,1.68,1.81a41.75,41.75,0,0,0,3.29,3.23c.73.62,1.49,1.19,2.27,1.73s1.41,1,2.1,1.48l2,1.55a10.05,10.05,0,0,0,1.63,1.05c.23-.26.47-.5.71-.76s.25-.27.38-.39a.66.66,0,0,0-.19-.09l-.18-.07a9.66,9.66,0,0,1-1.59-1c-.6-.44-1.19-.9-1.78-1.35s-1.14-.84-1.73-1.25-1.21-.83-1.8-1.27a31.53,31.53,0,0,1-3.34-3.1c-1.06-1.13-2.16-2.23-3.13-3.44-.28-.38-.55-.76-.79-1.16a10.9,10.9,0,0,1-.6-1.18,13.5,13.5,0,0,1-.75-2.59c0-.32-.06-.63-.07-1s0-.82,0-1.23c0-.69.11-1.38.2-2.07s.19-1.24.34-1.85a12,12,0,0,1,.62-1.83,18.29,18.29,0,0,1,1.09-2.11,22.15,22.15,0,0,1,1.3-1.91c.31-.39.63-.77,1-1.14a13.06,13.06,0,0,1,1.41-1.26,40.41,40.41,0,0,1,3.49-2.3,31.18,31.18,0,0,1,3.63-1.88c1.25-.51,2.52-.94,3.81-1.33a26.48,26.48,0,0,1,3.7-.87,23.68,23.68,0,0,1,3.95-.11c.18-.24.35-.49.53-.74s.31-.45.47-.69l-1.25-.08-1.13,0-1.22,0ZM506,311.75l0,0,0,0Zm-9.7,6.67a.81.81,0,0,1-.12.14l.12-.14Zm-1.46,16.74.09.11-.09-.11Z" transform="translate(-177.81 -88.67)"/>
    <path class="cls-1" d="M535.58,315.49a12.34,12.34,0,0,1-.68,1.3,11.58,11.58,0,0,1,1.22,1.3,5.34,5.34,0,0,1,.6,1.07c.15.39.28.78.39,1.18a8.51,8.51,0,0,1,.22,1.14c.12.79.26,1.57.37,2.36.07.61.11,1.21.17,1.81,0,.33.06.66.06,1s0,.65-.07,1-.15.85-.25,1.27a10.24,10.24,0,0,1-.4,1.18,11.45,11.45,0,0,1-.55,1.11c-.23.39-.48.78-.74,1.15-.48.71-1,1.41-1.51,2.09A16.73,16.73,0,0,1,533,336c-.6.58-1.2,1.15-1.81,1.71s-1.17,1.11-1.75,1.66l-1.63,1.57c-.53.49-1.05,1-1.59,1.49s-1.14,1.09-1.7,1.65-1.13,1.08-1.68,1.62-1.18,1.18-1.76,1.77c-2.37,2.39-4.53,4.95-6.85,7.38-1.09,1.15-2.22,2.25-3.27,3.42s-2,2.31-3,3.48-2.05,2.49-3.1,3.73-2.19,2.6-3.26,3.92c-.49.6-1,1.22-1.44,1.82s-1,1.25-1.53,1.86-1,1.2-1.52,1.79-1,1.24-1.53,1.86c-.92,1.12-1.84,2.26-2.77,3.38s-2,2.38-3,3.59l-2.95,3.63c-.64.79-1.28,1.59-1.9,2.39.54.13,1.08.24,1.62.35.76-1,1.54-1.91,2.31-2.86,1-1.2,1.95-2.42,2.94-3.61s2-2.34,2.95-3.53,1.93-2.34,2.89-3.52c.49-.6,1-1.18,1.5-1.76l1.56-1.88c1-1.22,1.93-2.45,2.94-3.65l3.25-3.9c1-1.24,2.05-2.49,3.1-3.7s1.94-2.27,3-3.36,2.27-2.34,3.39-3.53c.57-.61,1.12-1.24,1.68-1.86s1.14-1.26,1.72-1.88c1.15-1.24,2.33-2.46,3.52-3.66.56-.57,1.13-1.11,1.71-1.66s1.11-1.11,1.67-1.65,1.09-1,1.63-1.53l1.57-1.48,1.74-1.68c.6-.57,1.22-1.12,1.82-1.7A19.71,19.71,0,0,0,535,336c.48-.55.9-1.15,1.33-1.74s.79-1.08,1.16-1.64a11.62,11.62,0,0,0,1-1.77,10,10,0,0,0,.67-2,12.56,12.56,0,0,0,.28-2.12,16.07,16.07,0,0,0-.13-1.82c-.07-.73-.15-1.46-.25-2.18s-.23-1.4-.34-2.1a9.29,9.29,0,0,0-.66-2.18,6.79,6.79,0,0,0-.52-1,8.57,8.57,0,0,0-.86-1.05c-.34-.35-.69-.69-1.06-1l0,.07Z" transform="translate(-177.81 -88.67)"/>
    <path class="cls-1" d="M505.85,311.83h0Z" transform="translate(-177.81 -88.67)"/>
    <path class="cls-1" d="M476.09,401.37c-.7,1-1.39,2-2.1,3s-1.54,2.13-2.34,3.17c-.66.83-1.35,1.65-2,2.46s-1.51,1.9-2.24,2.87-1.34,1.83-2,2.75-1.15,1.64-1.75,2.44c-.9,1.13-1.82,2.25-2.71,3.39s-2,2.48-3,3.72-2,2.43-3,3.63-2.11,2.38-3.14,3.6c-.53.63-1.05,1.27-1.56,1.91s-1,1.2-1.48,1.81c-1,1.23-2,2.52-3,3.75s-2.1,2.46-3.07,3.76-1.79,2.51-2.66,3.79c-.74,1.07-1.49,2.15-2.27,3.2-1.88,2.41-3.94,4.69-5.78,7.14-1,1.3-1.95,2.59-2.93,3.87-.44.58-.87,1.15-1.29,1.74a2.78,2.78,0,0,1,.8.26,4.43,4.43,0,0,1,.59.36c.39-.54.79-1.07,1.19-1.6q1.71-2.24,3.41-4.5c.88-1.13,1.8-2.22,2.71-3.33s1.82-2.16,2.68-3.29c1.75-2.34,3.29-4.85,5.07-7.17.47-.6.94-1.18,1.42-1.76s1.09-1.29,1.63-1.94,1-1.22,1.44-1.84,1-1.27,1.54-1.89c1-1.23,2-2.51,3.06-3.73s2.09-2.35,3.1-3.55,2-2.44,3-3.66,2-2.47,3-3.72,1.88-2.29,2.76-3.48,1.65-2.31,2.49-3.47c.67-.92,1.35-1.83,2-2.73s1.64-2,2.44-2.95c.93-1.15,1.81-2.34,2.68-3.53s1.51-2.12,2.25-3.19c.54-.76,1.08-1.51,1.63-2.24a5.64,5.64,0,0,1-.78-.29c-.22-.1-.43-.2-.63-.31-.39.51-.77,1-1.14,1.55Zm-4.35,6-.09.12.09-.12Z" transform="translate(-177.81 -88.67)"/>
    <path class="cls-1" d="M528.7,324.46a8.67,8.67,0,0,0-.63.73c-.22.28-.46.55-.69.81-.46.53-.93,1-1.43,1.53L524.44,329c-.5.47-1,.95-1.45,1.44-1,1-1.85,2-2.75,3.07a38.26,38.26,0,0,1-2.79,2.91q-1.55,1.47-3.12,2.93c-1,.95-2,1.93-3,2.91-2.15,2.11-4.26,4.26-6.25,6.52-.95,1.08-1.91,2.16-2.9,3.21-.49.52-1,1-1.49,1.54L499.24,355c-1,1-1.88,2.06-2.81,3.1s-1.91,2.22-2.86,3.33-1.87,2.1-2.8,3.15-1.76,2.07-2.64,3.12-1.84,2.14-2.75,3.21-1.77,2.14-2.64,3.21c-.65.8-1.35,1.55-2,2.34s-1.47,1.86-2.17,2.82c-1.31,1.81-2.63,3.6-4,5.37-.28.37-.56.73-.85,1.09.41.28.82.57,1.24.84.51-.65,1-1.31,1.52-2l2.23-3c.74-1,1.47-2,2.23-3,.4-.5.79-1,1.21-1.47s.89-1,1.33-1.54c.89-1.06,1.75-2.15,2.64-3.21s1.82-2.11,2.72-3.18,1.76-2.12,2.66-3.16,1.87-2.07,2.78-3.13,1.89-2.23,2.86-3.33,1.85-2.11,2.81-3.13,1.91-2,2.88-3,2-2.13,2.94-3.22c.48-.55,1-1.1,1.47-1.64a.21.21,0,0,1,0-.06,14.59,14.59,0,0,1,1-1.17,5.2,5.2,0,0,1,.63-.61c2-2,4-4.05,6.06-6,1.05-1,2.1-1.95,3.14-2.94s1.93-1.87,2.82-2.88l1.43-1.64c.43-.48.85-1,1.3-1.45s.93-1,1.41-1.43,1-1,1.58-1.48,1.06-1.06,1.56-1.62l.75-.87c.24-.29.48-.6.74-.88a.75.75,0,0,0-.54-1.27.7.7,0,0,0-.52.22Z" transform="translate(-177.81 -88.67)"/>
    <path class="cls-1" d="M463.48,398.27c-1,1.17-1.88,2.35-2.81,3.54s-1.91,2.44-2.85,3.68-1.72,2.38-2.6,3.57-1.59,2.14-2.4,3.2c-1.52,1.94-3.11,3.84-4.71,5.72-.83,1-1.66,2-2.46,2.95S444,423,443.22,424l.12-.15c-1.14,1.47-2.3,2.95-3.44,4.43l.12-.16c-.89,1.15-1.81,2.27-2.74,3.39s-1.85,2.31-2.75,3.48-1.8,2.38-2.66,3.6-1.75,2.57-2.66,3.83c-.53.75-1.08,1.5-1.64,2.23-.88,1.12-1.8,2.2-2.73,3.28S423,450.13,422,451.2s-1.88,2.14-2.77,3.26-1.67,2.13-2.49,3.2q.35.06.69.15a3.52,3.52,0,0,1,.88.25c.37-.49.75-1,1.12-1.45l-.12.15c.87-1.11,1.75-2.22,2.68-3.29s1.9-2.12,2.83-3.19,1.9-2.2,2.82-3.31,1.9-2.41,2.79-3.65c1.06-1.47,2.06-3,3.11-4.46s2-2.73,3.06-4.08l-.12.15c.86-1.11,1.76-2.2,2.66-3.29s1.82-2.27,2.7-3.42l3.31-4.25-.12.15q1.32-1.71,2.7-3.38c.89-1.07,1.81-2.12,2.7-3.2s1.76-2.1,2.62-3.17,1.75-2.26,2.61-3.4c1.55-2.08,3-4.2,4.62-6.25a.76.76,0,0,1-.11.14c.93-1.19,1.86-2.39,2.8-3.57s1.92-2.38,2.88-3.57c.74-.91,1.47-1.83,2.2-2.74l-.32-.15a6,6,0,0,1-1-.43l-.11-.07-3.18,3.94Z" transform="translate(-177.81 -88.67)"/>
    <path class="cls-1" d="M499.6,341.11l-.21.17a26.6,26.6,0,0,1-2.42,1.53c-.86.51-1.74,1-2.63,1.43L493,345l-1.42.71c-.89.46-1.75.95-2.6,1.48s-1.62,1.11-2.44,1.67-1.7,1.11-2.52,1.71-1.56,1.16-2.36,1.71l-2.28,1.59c-1.77,1.24-3.46,2.58-5.14,3.92q-1.14.93-2.22,1.92c-.71.68-1.38,1.41-2.06,2.12s-1.39,1.5-2,2.29a12.49,12.49,0,0,0-1.64,2.43,15.07,15.07,0,0,0-1.51,6.08,10.55,10.55,0,0,0,.08,1.49,9.8,9.8,0,0,0,.28,1.62,13.3,13.3,0,0,0,1.27,3,24.54,24.54,0,0,0,3.74,4.7c.71.71,1.46,1.39,2.23,2a18.84,18.84,0,0,0,2.39,1.79,23.34,23.34,0,0,0,2.53,1.32,27.54,27.54,0,0,0,3,1.22c.94.33,1.9.62,2.85.91.48.15.95.3,1.43.43a15.84,15.84,0,0,0,1.55.35,9.4,9.4,0,0,0,1.68.2,7.57,7.57,0,0,0,1.71-.23,12.35,12.35,0,0,0,2.78-1,21.52,21.52,0,0,0,2.59-1.5,25.36,25.36,0,0,0,2.54-2,30.52,30.52,0,0,0,2.3-2.25c.71-.77,1.36-1.6,2-2.43s1.22-1.63,1.79-2.48,1.1-1.75,1.6-2.65,1-1.79,1.44-2.71a21.19,21.19,0,0,0,1.15-2.95c.2-.6.36-1.2.54-1.79s.32-1.11.46-1.68.27-1.09.39-1.63c.06-.28.12-.55.17-.82a5.28,5.28,0,0,1,.13-.67.78.78,0,0,0-.29-1,.76.76,0,0,0-1,.27,3.72,3.72,0,0,0-.28,1.09c-.06.35-.14.69-.22,1-.17.77-.36,1.53-.57,2.29s-.43,1.48-.66,2.22-.49,1.48-.78,2.2-.7,1.49-1.1,2.21-.85,1.56-1.31,2.33a44,44,0,0,1-2.87,4.17,28.86,28.86,0,0,1-4.92,5,21.85,21.85,0,0,1-4.47,2.69,11.45,11.45,0,0,1-2.43.7,6.18,6.18,0,0,1-1.36,0,18.9,18.9,0,0,1-2.09-.43c-.67-.18-1.34-.41-2-.62-1.43-.44-2.84-.88-4.22-1.45-.79-.35-1.58-.72-2.34-1.13a15.32,15.32,0,0,1-2.17-1.38,33.65,33.65,0,0,1-5.37-5.3c-.37-.49-.72-1-1-1.51a12.83,12.83,0,0,1-.92-1.81l.07.18c-.15-.4-.29-.79-.42-1.19a9.37,9.37,0,0,1-.25-1.17,13.13,13.13,0,0,1-.11-1.54,13.81,13.81,0,0,1,.11-1.57.17.17,0,0,1,0,.07v-.09l0-.11a.31.31,0,0,0,0,.1,15.28,15.28,0,0,1,1-3.51,10.52,10.52,0,0,1,.5-1c.21-.34.43-.67.67-1,.61-.77,1.24-1.53,1.91-2.25s1.38-1.46,2.08-2.18a46.1,46.1,0,0,1,4.58-3.89l.68-.53c.79-.6,1.59-1.2,2.41-1.77l2.38-1.65c.78-.55,1.53-1.12,2.3-1.68s1.68-1.14,2.52-1.71,1.65-1.16,2.5-1.7,1.69-1,2.56-1.43l1.45-.74,1.33-.7c.89-.47,1.77-.94,2.64-1.45a23.06,23.06,0,0,0,2.43-1.59l.09-.06,0,0,0,0a.76.76,0,0,0,.18-1A.83.83,0,0,0,500,341a.65.65,0,0,0-.36.1Zm.75,1.31h0ZM479,387.66l.08,0-.08,0Zm12.13,1.73-.06,0,.06,0Zm-24.66-18.2v0Z" transform="translate(-177.81 -88.67)"/>
    <path class="cls-1" d="M492.33,332.2a28.6,28.6,0,0,0-2.57,1.35c-.88.52-1.77,1-2.67,1.54s-1.77,1-2.65,1.52-1.64,1-2.46,1.56q-2.6,1.66-5.14,3.39c-.86.58-1.71,1.18-2.55,1.78s-1.62,1.2-2.42,1.81c-1.66,1.26-3.33,2.5-4.91,3.86-.77.67-1.54,1.35-2.3,2s-1.46,1.32-2.15,2a61,61,0,0,0-4.05,4.74c-.68.86-1.37,1.71-2,2.6a23,23,0,0,0-1.62,2.52,15.64,15.64,0,0,0-1.2,2.94c-.27.88-.46,1.8-.64,2.7a14.11,14.11,0,0,0-.29,3,16.66,16.66,0,0,0,.4,3.14,23.94,23.94,0,0,0,2.12,5.77c.45.87,1,1.7,1.49,2.52s1.06,1.72,1.6,2.57a28.16,28.16,0,0,0,1.91,2.71c.69.86,1.41,1.69,2.14,2.5s1.44,1.55,2.21,2.26a29.07,29.07,0,0,0,2.32,2,26.21,26.21,0,0,0,2.43,1.61c.86.53,1.73,1,2.62,1.52s1.86.94,2.82,1.36,2,.85,3,1.21a23.44,23.44,0,0,0,5.8,1.18,21.43,21.43,0,0,0,2.89,0c1.05,0,2.1-.12,3.14-.27a40.5,40.5,0,0,0,5.88-1.27c.94-.28,1.89-.56,2.82-.89a15.19,15.19,0,0,0,2.76-1.32c.85-.52,1.69-1.08,2.49-1.68a26.87,26.87,0,0,0,2.37-2,27.79,27.79,0,0,0,2-2.07c.62-.7,1.24-1.42,1.82-2.16a26.68,26.68,0,0,0,1.8-2.64c.26-.45.5-.91.75-1.37s.49-.85.74-1.28c.49-.83,1-1.66,1.43-2.52s.94-1.89,1.36-2.87.85-2.05,1.21-3.1a22.25,22.25,0,0,0,.77-2.91c.27-1.31.48-2.63.73-3.95a4.13,4.13,0,0,1-1.15-.7,1.42,1.42,0,0,1-.2-.22c-.31,1.57-.56,3.16-.88,4.73a19.93,19.93,0,0,1-.72,2.65c-.3.87-.64,1.74-1,2.59s-.81,1.86-1.28,2.75-.93,1.71-1.43,2.54-1,1.73-1.46,2.59a24.27,24.27,0,0,1-1.62,2.5c-.89,1.13-1.83,2.24-2.82,3.29a30.26,30.26,0,0,1-3.26,2.94,22.36,22.36,0,0,1-4.22,2.55,23.46,23.46,0,0,1-2.32.79c-.7.22-1.41.43-2.12.63a39.63,39.63,0,0,1-4.68,1c-1.23.15-2.46.23-3.69.26a21.11,21.11,0,0,1-3.37-.2,22.36,22.36,0,0,1-3.13-.67,31,31,0,0,1-3.29-1.22l.18.08c-.77-.33-1.53-.68-2.29-1s-1.47-.76-2.19-1.17-1.36-.8-2-1.22-1.32-.84-1.94-1.31-1.09-.9-1.62-1.37-1.15-1.09-1.69-1.66c-1.17-1.24-2.31-2.52-3.35-3.87l.11.15c-.53-.71-1-1.45-1.51-2.2s-.87-1.44-1.33-2.15a30.15,30.15,0,0,1-2.41-4.34,27.18,27.18,0,0,1-.93-2.62,19.11,19.11,0,0,1-.58-2.68,12.77,12.77,0,0,1-.12-1.63c0-.53,0-1.06.1-1.58.14-.85.32-1.7.52-2.53a17.58,17.58,0,0,1,.78-2.46,22,22,0,0,1,2.82-4.51c1.22-1.58,2.47-3.16,3.78-4.67a49.92,49.92,0,0,1,4.42-4.31c1.24-1.1,2.49-2.18,3.81-3.19.75-.59,1.53-1.16,2.3-1.75s1.64-1.24,2.48-1.84q2.54-1.81,5.15-3.51c1.65-1.08,3.29-2.18,5-3.19.89-.53,1.79-1,2.69-1.53l2.73-1.58a22.73,22.73,0,0,1,2.35-1.22.7.7,0,0,0,.34-.45.73.73,0,0,0-.07-.58.79.79,0,0,0-.45-.35l-.18,0a1,1,0,0,0-.4.1Zm-36.69,32.46,0,.07,0-.07Zm-1.33,5a.07.07,0,0,1,0,.05.07.07,0,0,0,0-.05Zm60.25,9.09,0,.12,0-.12Z" transform="translate(-177.81 -88.67)"/>
    <path class="cls-1" d="M509.07,360.48a2.77,2.77,0,0,0-.19.62c0,.14-.09.27-.14.41-.12.36-.17.73-.27,1.08l-.16.48c-.06.22-.11.44-.17.67a5.86,5.86,0,0,0-.22,1.51.75.75,0,0,0,1.5,0,3,3,0,0,1,0-.43,10.12,10.12,0,0,1,.25-1.09c.08-.31.19-.61.27-.91s.14-.65.24-1c.05-.12.09-.23.13-.35a2.86,2.86,0,0,1,.1-.42h0a.75.75,0,0,0-.33-.88.78.78,0,0,0-.37-.09.7.7,0,0,0-.65.36Zm1.29.77Zm-.9,3.37,0,.19c0-.06,0-.12,0-.19Z" transform="translate(-177.81 -88.67)"/>
    <path class="cls-1" d="M546.66,342.53l-.14.11c-.78.59-1.6,1.12-2.41,1.66s-1.59,1.06-2.39,1.57-1.73,1.08-2.61,1.58-1.78,1-2.7,1.38c-.48.23-1,.45-1.45.66-.81.32-1.63.61-2.47.86a18.68,18.68,0,0,1-2.57.56h.13l-.16,0h0c-.49.06-1,.11-1.48.15s-1.07.09-1.6.11A17.16,17.16,0,0,1,524,351a10.87,10.87,0,0,1-1.77-.43c-.6-.19-1.2-.39-1.77-.63a.69.69,0,0,0-.58.07.75.75,0,0,0-.35.45.79.79,0,0,0,.08.58.81.81,0,0,0,.45.34,21.4,21.4,0,0,0,2.33.81,13.8,13.8,0,0,0,2.56.41,16.35,16.35,0,0,0,2.71,0,28.73,28.73,0,0,0,3.08-.35,19.66,19.66,0,0,0,2.84-.71,28.25,28.25,0,0,0,2.93-1.15c.9-.4,1.78-.84,2.66-1.31s1.79-1,2.66-1.57,1.86-1.19,2.77-1.79,2.11-1.37,3.09-2.16a.75.75,0,0,0,.22-.53.77.77,0,0,0-.22-.53.79.79,0,0,0-.53-.22.79.79,0,0,0-.53.22ZM523.9,351h0Zm6-.08Z" transform="translate(-177.81 -88.67)"/>
    <path class="cls-1" d="M546,328.89a17.59,17.59,0,0,1-1.3,1.29l-1.28,1.21c-.81.77-1.68,1.45-2.56,2.14l-1.41,1c-.47.34-1,.65-1.44,1a22.61,22.61,0,0,1-3.18,1.8c-.39.16-.78.31-1.19.45a8,8,0,0,1-1.18.35.76.76,0,0,0-.48.21.79.79,0,0,0-.22.54.76.76,0,0,0,.75.75,5.55,5.55,0,0,0,1.32-.33c.47-.15.93-.33,1.4-.52a17.45,17.45,0,0,0,2.77-1.46c.87-.55,1.73-1.11,2.55-1.71s1.71-1.29,2.54-1.95,1.34-1.17,2-1.78,1.38-1.24,2-1.95a.75.75,0,0,0-.55-1.27.67.67,0,0,0-.51.22Zm-11,8.39-.05,0,.05,0Z" transform="translate(-177.81 -88.67)"/>
    <path class="cls-1" d="M521.37,351.6c-.22.75-.4,1.51-.56,2.28-.22,1-.43,2-.66,2.93-.46,1.94-1,3.86-1.38,5.82-.12.61-.22,1.22-.34,1.83s-.26,1.17-.4,1.76-.23,1-.37,1.55-.4,1.22-.6,1.82a.74.74,0,0,0,.52.92.75.75,0,0,0,.92-.52c.17-.47.34-.93.49-1.41s.24-.82.33-1.24c.2-.9.43-1.79.6-2.7s.33-1.81.53-2.72.48-2,.73-3c.32-1.29.64-2.58.92-3.88.22-1,.42-2,.72-3a.75.75,0,0,0-.53-.92.63.63,0,0,0-.19,0,.78.78,0,0,0-.73.55Z" transform="translate(-177.81 -88.67)"/>
    <path class="cls-1" d="M505.92,321.53c-.05.17-.13.35-.19.51s-.16.48-.23.72q-.21.74-.36,1.47c-.11.56-.18,1.13-.24,1.7a7.77,7.77,0,0,0,0,1.6,9,9,0,0,0,.85,2.91,11.75,11.75,0,0,0,1.79,2.42,15.87,15.87,0,0,0,4.27,3.65,25.2,25.2,0,0,0,2.74,1.15c.6.22,1.21.4,1.81.6a.74.74,0,0,0,.92-.52.76.76,0,0,0-.52-.92c-1.09-.36-2.17-.73-3.23-1.16a10.66,10.66,0,0,1-2.23-1.26,22.49,22.49,0,0,1-3.53-3.57c-.16-.21-.31-.43-.45-.65a9.33,9.33,0,0,1-.43-.83,9.65,9.65,0,0,1-.49-1.9,6.69,6.69,0,0,1,0-1.93,16.43,16.43,0,0,1,.36-1.83q.12-.48.27-1c.05-.15.11-.3.16-.46s.1-.22.14-.34a.76.76,0,0,0-.53-.92.63.63,0,0,0-.19,0,.78.78,0,0,0-.73.55Zm.52,4s0,.09,0,.14l0-.14Z" transform="translate(-177.81 -88.67)"/>
    <path class="cls-1" d="M629.25,208.26c-.36.62-.72,1.25-1.09,1.86s-.69,1.16-1,1.75-.56,1.07-.83,1.61-.57,1.17-.86,1.76c-1.12,2.32-2.19,4.68-3.31,7s-2.37,4.61-3.57,6.9-2.39,4.65-3.57,7c-.6,1.2-1.26,2.4-1.92,3.58s-1.33,2.3-2,3.45-1.3,2.22-2,3.31-1.3,2.17-1.93,3.28l-1.94,3.42c-.68,1.18-1.37,2.35-2,3.55-1.26,2.34-2.52,4.69-3.81,7s-2.7,4.49-4,6.78q-.94,1.7-1.86,3.42c-.59,1.13-1.16,2.26-1.75,3.38s-1.23,2.33-1.86,3.48-1.25,2.21-1.85,3.34-1.27,2.38-1.89,3.59-1.22,2.34-1.83,3.52-1.21,2.32-1.83,3.48-1.3,2.35-2,3.5-1.34,2.31-2,3.46-1.31,2.3-2,3.43-1.37,2.27-2.12,3.38-1.47,2.14-2.15,3.25c-1.42,2.33-2.8,4.7-4.27,7-.75,1.19-1.56,2.33-2.41,3.44a.79.79,0,0,1,.12-.15l-1.43,1.78c-.48.59-.93,1.21-1.38,1.82-.83,1.12-1.63,2.26-2.48,3.37-.58.75-1.18,1.49-1.82,2.19s-1.33,1.41-2,2.12l-2.13,2.36c-.33.36-.66.72-1,1.09l-.57.67c-.22.26-.51.52-.51.89a.75.75,0,0,0,1.38.4c.8-1,1.65-1.9,2.49-2.83s1.72-1.9,2.6-2.84c.41-.43.82-.86,1.21-1.31s.81-1,1.19-1.46c.84-1.07,1.63-2.17,2.43-3.27q.63-.88,1.29-1.74c.86-1.1,1.74-2.17,2.58-3.28s1.45-2.1,2.12-3.18,1.44-2.33,2.15-3.5,1.41-2.4,2.17-3.57,1.43-2.13,2.14-3.2,1.4-2.23,2.06-3.38l4.06-7c1.33-2.3,2.52-4.66,3.76-7s2.46-4.78,3.75-7.14c.6-1.1,1.23-2.18,1.83-3.28s1.26-2.35,1.87-3.53c1.18-2.3,2.38-4.59,3.66-6.84.65-1.14,1.35-2.25,2-3.37s1.32-2.25,1.94-3.4c1.27-2.34,2.53-4.69,3.81-7,.64-1.17,1.33-2.31,2-3.47s1.32-2.33,2-3.49,1.3-2.18,2-3.27,1.3-2.2,1.93-3.3,1.33-2.28,2-3.43,1.29-2.41,1.9-3.63l1.78-3.54c.59-1.17,1.21-2.32,1.82-3.47l1.75-3.32c.59-1.15,1.16-2.3,1.72-3.47,1.12-2.37,2.22-4.75,3.37-7.11.48-1,1-2,1.49-2.91.29-.52.6-1,.91-1.53s.64-1.1,1-1.65a.77.77,0,0,0-.27-1,.74.74,0,0,0-.37-.1.76.76,0,0,0-.66.37ZM553.92,338.69h0Z" transform="translate(-177.81 -88.67)"/>
    <path class="cls-1" d="M553,337.55c-.17.16-.34.33-.52.48l-.52.4-.53.45c-.48.4-.92.85-1.42,1.24l.15-.12c-.67.52-1.34,1-2,1.5-.3.21-.61.4-.9.63a4.67,4.67,0,0,0-.85.87.71.71,0,0,0-.07.57.75.75,0,0,0,.92.53.69.69,0,0,0,.39-.27l0,.07a5.62,5.62,0,0,1,.69-.69c.33-.24.67-.45,1-.68.47-.34.93-.67,1.38-1s.6-.45.89-.7.42-.39.64-.58.39-.34.59-.5l.37-.33a4.57,4.57,0,0,0,.49-.38,5.92,5.92,0,0,0,.45-.41.75.75,0,0,0,0-1.06.7.7,0,0,0-.52-.22.81.81,0,0,0-.54.22Zm-5.32,6.2h0v0Z" transform="translate(-177.81 -88.67)"/>
    <path class="cls-1" d="M641.1,169a.85.85,0,0,0-.34.45s0,0,0,0c-.3.64-.65,1.26-1,1.87s-.72,1.29-1.07,1.92c-.69,1.23-1.35,2.47-2.06,3.69s-1.5,2.53-2.24,3.8-1.6,2.69-2.33,4.07c-.37.7-.73,1.42-1.09,2.13l-1.14,2.15c-.75,1.38-1.48,2.76-2.18,4.16s-1.31,2.81-2,4.19l-.87,1.71c.5-.61,1-1.22,1.52-1.82.85-1,1.67-2.06,2.53-3.07.09-.2.19-.4.29-.6.7-1.4,1.44-2.76,2.17-4.13.38-.72.77-1.44,1.14-2.16s.71-1.42,1.09-2.11c.75-1.37,1.56-2.71,2.34-4.06s1.49-2.51,2.22-3.78,1.33-2.39,2-3.58c.36-.64.72-1.28,1.07-1.92a18.15,18.15,0,0,0,1.07-2.11.72.72,0,0,0-.08-.57.75.75,0,0,0-.45-.35l-.19,0a.76.76,0,0,0-.39.1Z" transform="translate(-177.81 -88.67)"/>
    <path class="cls-1" d="M604.06,237.45c-.76.88-1.59,1.69-2.43,2.5a3.45,3.45,0,0,1-.28.26c-.44.79-.87,1.57-1.32,2.35s-.76,1.27-1.13,1.91-.76,1.3-1.15,1.93c-.86,1.36-1.78,2.66-2.59,4s-1.59,2.68-2.41,4-1.56,2.54-2.28,3.85-1.39,2.68-2.1,4-1.55,2.87-2.32,4.31-1.46,2.76-2.24,4.11-1.55,2.58-2.31,3.88-1.61,2.72-2.4,4.07-1.56,2.77-2.31,4.17-1.39,2.51-2.11,3.75-1.5,2.61-2.25,3.92-1.5,2.63-2.27,3.92-1.68,2.75-2.5,4.14-1.59,2.62-2.33,4-1.44,2.55-2.13,3.84-1.39,2.72-2.15,4.05a39,39,0,0,1-2.33,3.61c-.64.89-1.3,1.76-2,2.63-.53.69-1.07,1.38-1.63,2.06-.29.37-.59.73-.89,1.1a1.47,1.47,0,0,1,.93.43c.11.12.23.24.34.37.66-.82,1.32-1.62,2-2.44.93-1.2,1.86-2.41,2.75-3.65a38.54,38.54,0,0,0,2.3-3.65c.74-1.33,1.42-2.71,2.15-4.05s1.42-2.57,2.13-3.84,1.57-2.65,2.35-4,1.69-2.75,2.5-4.15,1.5-2.57,2.24-3.86c1.47-2.6,3-5.16,4.41-7.79s3.08-5.41,4.65-8.1c.79-1.35,1.62-2.68,2.4-4s1.46-2.7,2.19-4,1.55-2.84,2.29-4.27,1.38-2.7,2.11-4,1.53-2.6,2.33-3.89,1.59-2.65,2.38-4,1.75-2.7,2.61-4.06c.39-.62.75-1.25,1.11-1.88s.76-1.27,1.13-1.92c.81-1.41,1.59-2.84,2.38-4.26l1.57-2.81q-.72.74-1.38,1.5Z" transform="translate(-177.81 -88.67)"/>
    <path class="cls-1" d="M554.77,319.27c-.35.36-.7.73-1,1.11s-.8.92-1.21,1.37c-.62.68-1.29,1.3-1.92,2-.36.38-.71.75-1.05,1.13s-.63.74-.94,1.12c-.49.59-1,1.14-1.55,1.7s-.86.88-1.26,1.34a.77.77,0,0,0-.22.54.73.73,0,0,0,.22.52.74.74,0,0,0,1.06,0c.44-.51.92-1,1.38-1.46.62-.65,1.21-1.31,1.77-2a28.53,28.53,0,0,1,2-2.22c.61-.61,1.21-1.2,1.78-1.84s1.3-1.5,2-2.21a.75.75,0,0,0,0-1.06.77.77,0,0,0-.53-.22.73.73,0,0,0-.53.22Z" transform="translate(-177.81 -88.67)"/>
    <path class="cls-1" d="M563.88,280q-2.13,2.25-4.3,4.45c-.68.69-1.34,1.38-2,2.1s-1.32,1.47-2,2.23-1.25,1.53-1.9,2.27-1.24,1.43-1.82,2.17-1.17,1.51-1.79,2.24-1.41,1.68-2.1,2.54c-1.28,1.57-2.58,3.12-3.76,4.76s-2.27,3.2-3.46,4.77c-.27.34-.53.7-.8,1-.65.83-1.32,1.65-2,2.49s-1.09,1.54-1.64,2.3-1.06,1.43-1.57,2.16-1.15,1.6-1.75,2.39l-.53.7c-.79,1-1.57,2.05-2.29,3.13-.36.53-.71,1.07-1.06,1.62a15.68,15.68,0,0,0-.89,1.48.75.75,0,0,0,.27,1,.74.74,0,0,0,1-.27c.23-.45.52-.87.79-1.3s.62-1,.93-1.45c.65-1,1.35-1.94,2.07-2.88l-.12.15,1.62-2.12c.6-.79,1.16-1.6,1.73-2.41s1-1.39,1.53-2.09,1-1.47,1.58-2.19,1.26-1.59,1.87-2.39,1.06-1.4,1.58-2.12l1.7-2.35c.52-.74,1.05-1.48,1.61-2.2s1.19-1.48,1.78-2.22,1.35-1.69,2.05-2.52,1.32-1.55,2-2.35,1.12-1.45,1.71-2.14c.32-.38.65-.74,1-1.12s.67-.8,1-1.21c.61-.74,1.25-1.45,1.87-2.17s1.31-1.47,2-2.19,1.39-1.41,2.09-2.12c1-1,2-2.09,3-3.15a.76.76,0,0,0,0-1.06.79.79,0,0,0-.54-.22.7.7,0,0,0-.52.22Z" transform="translate(-177.81 -88.67)"/>
    <path class="cls-1" d="M556,273c-1.37,1.44-2.82,2.8-4.16,4.26s-2.77,3-4.06,4.53c-.62.76-1.24,1.53-1.89,2.26s-1.33,1.48-2,2.23l-2,2.38c-.67.78-1.29,1.61-1.91,2.44s-1.21,1.65-1.78,2.49-1.1,1.63-1.67,2.44c-1.2,1.7-2.44,3.36-3.62,5.07-.53.77-1.07,1.54-1.61,2.3s-1.1,1.6-1.65,2.4-1.12,1.6-1.69,2.38-1.09,1.57-1.62,2.37-1,1.6-1.61,2.38-1.11,1.55-1.63,2.36-1,1.71-1.57,2.56-1,1.66-1.44,2.51-.93,1.73-1.36,2.61-.93,2-1.36,3a47.42,47.42,0,0,0-2,5.68c-.24.83-.49,1.67-.69,2.51-.09.4-.17.8-.22,1.2l-.09.68a4.45,4.45,0,0,0,0,.5.75.75,0,1,0,1.5,0,7,7,0,0,1,.08-.79v.05a29.51,29.51,0,0,1,1.12-4.42,44.24,44.24,0,0,1,1.61-4.48c.8-1.87,1.69-3.71,2.66-5.49.46-.85.92-1.69,1.42-2.51s1-1.72,1.57-2.56,1.07-1.61,1.63-2.39,1.09-1.57,1.62-2.38,1-1.59,1.6-2.36,1.14-1.56,1.69-2.36,1.08-1.62,1.65-2.42,1.09-1.52,1.61-2.3c1.17-1.7,2.41-3.36,3.6-5.05.74-1,1.43-2.1,2.16-3.13s1.47-2.06,2.24-3.07c.61-.79,1.27-1.53,1.92-2.29s1.33-1.56,2-2.32,1.27-1.43,1.89-2.17,1.29-1.57,2-2.34,1.26-1.42,1.9-2.11,1.13-1.22,1.7-1.82c1.18-1.28,2.46-2.47,3.66-3.73a.76.76,0,0,0,0-1.06.77.77,0,0,0-.54-.22.74.74,0,0,0-.52.22Zm-37.39,53.77,0,0,0,0Z" transform="translate(-177.81 -88.67)"/>
    <path class="cls-1" d="M516.68,326.49c-.25.24-.48.5-.73.74s-.62.53-.93.78c-.63.52-1.18,1.11-1.76,1.68s-1.24,1.21-1.89,1.79l-.91.76a6.85,6.85,0,0,0-.8.72.75.75,0,0,0,0,1.06.73.73,0,0,0,1,0,7.36,7.36,0,0,1,.79-.69c.3-.25.6-.5.89-.76.65-.56,1.26-1.16,1.87-1.76s1.14-1.17,1.77-1.69c.31-.27.64-.51.93-.79s.52-.52.78-.78a.75.75,0,0,0,0-1.06.75.75,0,0,0-1.06,0Z" transform="translate(-177.81 -88.67)"/>
    <path class="cls-1" d="M523.92,298.28c-.51.87-1.07,1.74-1.62,2.6-.29.46-.59.91-.89,1.37l-.85,1.25c-.46.7-.91,1.4-1.39,2.09s-1.07,1.51-1.59,2.26-1,1.54-1.56,2.3-1,1.39-1.53,2.08-1.14,1.41-1.76,2.08-1.47,1.52-2.21,2.27q-.54.53-1,1.08c-.35.38-.67.77-1,1.16s-.65.71-1,1.05-.68.74-1,1.12a1.34,1.34,0,0,1-.11.14.77.77,0,0,0-.22.53.79.79,0,0,0,.22.53.75.75,0,0,0,1.06,0c.29-.35.58-.69.89-1s.68-.7,1-1.07.67-.79,1-1.18.66-.71,1-1.06.76-.73,1.12-1.11l1.11-1.16c.65-.68,1.26-1.39,1.84-2.13s1.24-1.63,1.83-2.46,1.12-1.67,1.69-2.5,1.16-1.6,1.72-2.42,1-1.58,1.54-2.35c1.18-1.71,2.29-3.46,3.35-5.25l.1-.18a1.47,1.47,0,0,1-.95.06,1.52,1.52,0,0,1-.62-.35c-.05.09-.1.18-.16.27Z" transform="translate(-177.81 -88.67)"/>
    <path class="cls-1" d="M565,226.38a26.65,26.65,0,0,1-.63,2.64c-.26.95-.59,1.89-.88,2.84-.62,2-1.24,3.93-1.79,5.92s-1.07,4.06-1.56,6.1c-.23,1-.46,1.93-.72,2.89s-.55,1.83-.87,2.73c-.65,1.86-1.32,3.71-2,5.56-.32.9-.65,1.8-1,2.71s-.71,2.07-1.11,3.1c-.61,1.6-1.25,3.19-1.86,4.79s-1.18,3.06-1.81,4.58c-.41,1-.83,1.9-1.28,2.83s-.89,1.77-1.32,2.65c-.89,1.79-1.76,3.59-2.64,5.39-.28.57-.54,1.14-.8,1.7s-.56,1.16-.85,1.74-.53,1.08-.8,1.62-.56,1.05-.85,1.57a.77.77,0,0,0,.27,1,.76.76,0,0,0,1-.27c.23-.42.48-.83.7-1.26l.6-1.24c.44-.9.9-1.79,1.32-2.7.86-1.85,1.76-3.69,2.67-5.52s1.8-3.52,2.6-5.32,1.63-3.86,2.38-5.81c.37-.94.72-1.87,1.09-2.81s.77-2,1.15-2.95.73-2.08,1.1-3.11l1-2.66c.65-1.85,1.33-3.69,2-5.55.32-.9.6-1.82.85-2.74s.48-2,.72-3c.5-2,1-4.07,1.57-6.09s1.17-3.91,1.79-5.86c.28-.89.58-1.77.82-2.66s.43-1.65.58-2.49a.79.79,0,0,0-.08-.58.72.72,0,0,0-.44-.34l-.18,0a.73.73,0,0,0-.74.55Z" transform="translate(-177.81 -88.67)"/>
    <path class="cls-1" d="M569.22,182.26a53.8,53.8,0,0,0-2.63,4.91,51.75,51.75,0,0,0-2.16,5.8c-.27.83-.53,1.67-.82,2.51-.16.47-.32.94-.5,1.41s-.39,1-.59,1.53c-.34.86-.62,1.74-.93,2.61s-.66,1.89-1,2.84-.62,1.88-.9,2.83-.62,1.94-.94,2.91-.63,1.93-1,2.89-.64,1.86-1,2.79c-.67,1.9-1.23,3.83-1.81,5.76s-1.19,4-1.76,5.94-1,3.78-1.67,5.65-1.35,3.91-2,5.88c-.33,1-.61,2-.91,3s-.59,1.92-.87,2.88-.57,2-.85,3c-.07.26-.14.52-.2.78h.07a1.74,1.74,0,0,1,.39.05,1.56,1.56,0,0,1,.89.69c.11-.4.21-.79.32-1.18q.4-1.5.84-3c.28-1,.58-1.95.87-2.93s.58-2,.9-3c.66-2,1.35-4,2-5.94s1.11-3.75,1.66-5.63,1.17-4,1.77-5.95,1.15-3.86,1.82-5.76c.32-.91.65-1.82.95-2.74s.62-1.92.94-2.88.65-2,.95-3,.57-1.87.9-2.79.67-1.92,1-2.87.6-1.77.94-2.63c.2-.51.4-1,.59-1.53l.48-1.37c.29-.85.56-1.7.83-2.55.5-1.52,1-3,1.62-4.52l0-.08,0-.06,0,.06a47.73,47.73,0,0,1,3-5.67.77.77,0,0,0-.27-1,.74.74,0,0,0-.37-.1.78.78,0,0,0-.66.37Z" transform="translate(-177.81 -88.67)"/>
    <path class="cls-1" d="M567.55,188.69v0Z" transform="translate(-177.81 -88.67)"/>
    <path class="cls-1" d="M574.77,195.9c-.41.71-.8,1.44-1.2,2.17s-.81,1.47-1.16,2.23c-.43,1-.8,2-1.17,3s-.67,1.95-1,2.94c-.13.44-.29.87-.45,1.29s-.34,1-.48,1.46c-.29,1-.59,2-.89,2.94-.55,1.82-1.06,3.66-1.49,5.52-.2.82-.39,1.65-.61,2.47s-.43,1.58-.62,2.39a40,40,0,0,0-.9,4.84.71.71,0,0,0,.22.53.75.75,0,0,0,1.06,0,.79.79,0,0,0,.22-.53c0-.13,0-.26,0-.38v0l0-.16v0c0-.36.11-.73.18-1.09s.21-1,.31-1.47c.17-.86.37-1.72.6-2.57s.49-1.81.71-2.72.42-1.87.66-2.8c.49-1.86,1-3.69,1.61-5.52.16-.51.3-1,.46-1.54s.33-.94.5-1.41c.34-.92.59-1.87.91-2.79.39-1.13.82-2.25,1.27-3.36.35-.81.77-1.59,1.2-2.37s.84-1.55,1.28-2.31a.77.77,0,0,0-.27-1,.74.74,0,0,0-.37-.1.76.76,0,0,0-.66.37Zm-8.39,30.73,0,.12a.68.68,0,0,0,0-.14v0Z" transform="translate(-177.81 -88.67)"/>
    <path class="cls-1" d="M547.42,247.14a.74.74,0,0,0-.34.45c-.07.17-.12.36-.18.54s-.14.4-.21.6l-.48,1.35c-.16.41-.32.82-.47,1.24s-.31.91-.46,1.37c-.33,1-.72,1.9-1.11,2.83s-.77,1.87-1.14,2.81-.59,1.67-.91,2.5c-.16.41-.32.82-.49,1.23s-.37,1-.57,1.43a1.42,1.42,0,0,0,.08-.18c-.42,1-.83,2-1.24,3-.33.84-.67,1.67-1,2.5h0c-.61,1.44-1.27,2.85-1.93,4.27s-1.33,2.94-2,4.43l.08-.18c-.74,1.73-1.52,3.45-2.38,5.13-.39.77-.75,1.56-1.13,2.34s-.73,1.53-1.11,2.29-.73,1.42-1.11,2.12-.94,1.52-1.37,2.31l-.67,1.22c-.23.41-.5.78-.77,1.17s-.54.84-.81,1.25-.48.79-.7,1.2-.44.79-.67,1.18-.28.48-.42.72l-.21.33a1.51,1.51,0,0,0-.19.41.84.84,0,0,0,.07.58.79.79,0,0,0,.45.34.76.76,0,0,0,.92-.48c.18-.34.41-.66.6-1l.59-1.05c.22-.37.42-.76.64-1.13s.53-.82.8-1.24.58-.82.84-1.26.42-.74.62-1.11.43-.79.67-1.16.51-.83.75-1.24c.82-1.43,1.54-2.92,2.24-4.41s1.56-3.19,2.32-4.8c.57-1.22,1.11-2.45,1.63-3.68l-.08.18q.61-1.44,1.26-2.85c.42-.9.85-1.8,1.26-2.71s.86-1.91,1.26-2.87.76-1.82,1.12-2.73c.19-.49.39-1,.59-1.44l0,0,.05-.11,0-.07v0l.6-1.43c.18-.46.36-.93.55-1.39.34-.85.64-1.72.94-2.59.67-1.87,1.54-3.67,2.24-5.53.19-.54.36-1.07.54-1.61s.35-1,.53-1.46.36-1,.53-1.44c.08-.23.16-.46.25-.69s.13-.44.21-.66a.76.76,0,0,0-.52-.93l-.2,0a.7.7,0,0,0-.38.1ZM525,299.37h0Zm17.14-34.54,0,.08,0-.12,0,0Z" transform="translate(-177.81 -88.67)"/>
    <path class="cls-1" d="M646.23,174.9a11.24,11.24,0,0,0-1.16,1c-.34.34-.67.7-1,1.06-.65.71-1.26,1.46-1.89,2.19-1.35,1.56-2.63,3.18-4,4.72-.73.79-1.49,1.56-2.24,2.34s-1.4,1.49-2.07,2.26-1.32,1.56-2,2.32l-2,2.13c-.34.37-.68.73-1,1.12s-.6.72-.9,1.07l-1.91,2.25c-.67.81-1.37,1.6-2.09,2.37s-1.34,1.46-2,2.2-1.32,1.49-2,2.24-1.3,1.53-2,2.27-1.47,1.5-2.19,2.24-1.4,1.43-2.08,2.16-1.26,1.38-1.89,2.06-1.31,1.36-2,2-1.38,1.52-2,2.31-1.37,1.59-2.06,2.39-1.29,1.49-2,2.2l-2,2.1c-.67.74-1.32,1.49-2,2.24l-2,2.2c-.67.77-1.36,1.53-2,2.29s-1.36,1.55-2,2.32c-1.37,1.5-2.8,3-4.22,4.42s-2.77,2.9-4.2,4.31c-.73.73-1.44,1.48-2.16,2.22s-1.45,1.47-2.16,2.23-1.32,1.49-2,2.23-1.36,1.58-2,2.37L575.21,253l-.14.16a1.43,1.43,0,0,1,.56.19,1.53,1.53,0,0,1,.63.72l.57-.66c.65-.76,1.31-1.53,1.95-2.31s1.32-1.51,2-2.27,1.38-1.57,2.11-2.32,1.43-1.46,2.13-2.2,1.45-1.47,2.18-2.2,1.4-1.43,2.09-2.15,1.41-1.47,2.12-2.2c1.4-1.44,2.8-2.88,4.13-4.38s2.72-3.07,4.09-4.6l2-2.24c.64-.73,1.29-1.46,1.94-2.18s1.34-1.41,2-2.13,1.34-1.53,2-2.3,1.31-1.54,2-2.31,1.33-1.49,2-2.2,1.34-1.38,2-2.09,1.29-1.42,2-2.11,1.37-1.41,2.06-2.11,1.51-1.51,2.21-2.32q1.93-2.25,3.91-4.46c.67-.73,1.35-1.45,2-2.19s1.42-1.62,2.1-2.46,1.22-1.41,1.81-2.13,1.33-1.5,2-2.24,1.33-1.43,2-2.17l2-2.27c.7-.8,1.44-1.55,2.18-2.3s1.5-1.57,2.21-2.38c1.33-1.52,2.6-3.1,3.92-4.63a30.23,30.23,0,0,1,3.19-3.41h0a.74.74,0,0,0,.27-1,.77.77,0,0,0-.45-.34.7.7,0,0,0-.58.08Z" transform="translate(-177.81 -88.67)"/>
    <path class="cls-1" d="M655.19,183.44c-.71.57-1.39,1.18-2,1.81a13.84,13.84,0,0,1-1.07,1l-1.24,1.09-2.08,1.78c-.75.63-1.47,1.29-2.19,2l-1.18,1.09c-.38.36-.78.69-1.16,1-.75.67-1.51,1.35-2.25,2-1.43,1.3-2.83,2.64-4.25,4-.76.69-1.51,1.38-2.25,2.1s-1.4,1.42-2.1,2.13-1.29,1.32-1.91,2-1.31,1.33-2,2c-1.39,1.42-2.75,2.87-4.13,4.3-.67.71-1.37,1.39-2,2.08s-1.37,1.42-2,2.15c-1.36,1.51-2.69,3.05-4.06,4.55-.7.77-1.4,1.52-2.09,2.29s-1.4,1.63-2.1,2.44-1.4,1.63-2.12,2.43-1.39,1.5-2.07,2.26-1.35,1.51-2,2.27-1.24,1.51-1.88,2.23-1.35,1.46-2,2.19-1.36,1.53-2.05,2.29-1.36,1.52-2.06,2.27-1.44,1.53-2.16,2.3-1.46,1.54-2.17,2.34-1.37,1.63-2.08,2.43c-1.32,1.52-2.76,3-4.13,4.44-.67.72-1.32,1.47-2,2.21l-2,2.26c-.67.75-1.35,1.49-2,2.25s-1.3,1.48-1.95,2.22l-.86,1a1.5,1.5,0,0,1,.91.43,1.31,1.31,0,0,1,.31.44l1.19-1.33c.65-.75,1.31-1.51,2-2.25,1.36-1.51,2.73-3,4.08-4.52.67-.75,1.33-1.5,2-2.24s1.34-1.41,2-2.12,1.42-1.52,2.09-2.31,1.36-1.63,2.08-2.41c1.45-1.56,2.93-3.1,4.37-4.67s2.7-3,4.08-4.52c.68-.73,1.38-1.45,2-2.22s1.2-1.46,1.82-2.17,1.38-1.56,2.09-2.32,1.41-1.53,2.09-2.31c1.42-1.6,2.77-3.26,4.2-4.84.67-.74,1.35-1.46,2-2.19l2-2.31c1.33-1.5,2.69-3,4.1-4.39.69-.7,1.38-1.4,2.07-2.12s1.39-1.47,2.09-2.19,1.35-1.4,2-2.09,1.3-1.33,1.94-2,1.31-1.35,2-2,1.37-1.4,2.08-2.07,1.51-1.41,2.27-2.11l2.13-2c.72-.66,1.42-1.33,2.15-2s1.49-1.36,2.25-2,1.58-1.45,2.36-2.18,1.43-1.26,2.15-1.88l3-2.61c.49-.42.94-.88,1.41-1.32s.93-.83,1.42-1.22a.73.73,0,0,0,.22-.53.75.75,0,0,0-.22-.53.77.77,0,0,0-.53-.22.79.79,0,0,0-.53.22Z" transform="translate(-177.81 -88.67)"/>
    <path class="cls-1" d="M575.57,252.76c-1.18,1.14-2.42,2.21-3.6,3.36-.59.57-1.14,1.16-1.7,1.76l-1.86,2L566.5,262c-.61.67-1.23,1.33-1.85,2-.31.33-.62.65-.94,1s-.71.67-1.05,1c-.64.64-1.27,1.3-1.89,2-.82.88-1.63,1.78-2.5,2.62l-1.35,1.37a10.05,10.05,0,0,0-1.15,1.37.75.75,0,0,0,.27,1,.76.76,0,0,0,1-.27l.16-.23a10,10,0,0,1,.75-.83c.3-.31.59-.62.89-.92.62-.61,1.22-1.21,1.81-1.84,1.23-1.3,2.43-2.62,3.72-3.85.66-.62,1.26-1.28,1.89-1.93s1.27-1.37,1.9-2c1.23-1.34,2.46-2.69,3.71-4,.36-.37.71-.75,1.08-1.11s1-.9,1.45-1.35c.73-.68,1.48-1.36,2.2-2.05a.76.76,0,0,0,0-1.06.74.74,0,0,0-.53-.22.73.73,0,0,0-.53.22Z" transform="translate(-177.81 -88.67)"/>
    <path class="cls-1" d="M579.8,262.17c-.41.46-.78,1-1.19,1.44-.57.65-1.22,1.23-1.81,1.86s-1.16,1.35-1.77,2-1.13,1.23-1.69,1.86-1.27,1.45-1.89,2.19-1.11,1.33-1.66,2c-1,1.27-2.18,2.48-3.32,3.67-.45.48-.88,1-1.32,1.45a22.33,22.33,0,0,0-1.51,1.7.73.73,0,0,0-.07.58.75.75,0,0,0,.34.44.74.74,0,0,0,.58.08.68.68,0,0,0,.37-.25l0,.05c1.12-1.31,2.31-2.56,3.49-3.82.57-.61,1.15-1.23,1.7-1.87s1.1-1.32,1.66-2,1.17-1.41,1.77-2.1,1.22-1.37,1.83-2.05,1.07-1.16,1.58-1.77c.33-.38.65-.76,1-1.13l1-1c.4-.4.79-.82,1.16-1.27s.56-.7.86-1a.77.77,0,0,0,0-1.06.82.82,0,0,0-.55-.22.7.7,0,0,0-.52.22Z" transform="translate(-177.81 -88.67)"/>
    <polygon class="cls-2" points="42.77 549.88 42.77 549.88 42.77 549.88 42.77 549.88 42.77 549.88 42.77 549.88"/>
  </g>
  <g id="Hands">
    <path class="cls-2" d="M697.86,104.94h0s0,0,0,0,.24.17.31.22.34.21.5.31l1,.62c.67.4,1.34.8,2,1.22,1.35.85,2.68,1.74,3.95,2.69.76.6,1.52,1.21,2.24,1.86s1.59,1.53,2.35,2.33c1.47,1.55,2.92,3.14,4.29,4.79.17.2.33.42.49.63l-.18-.23c.87,1.19,1.66,2.43,2.45,3.68a28.36,28.36,0,0,1,2,3.8c.13.31.25.62.38.92l-.1-.24a41.15,41.15,0,0,1,1.37,4.47c.19.77.38,1.54.52,2.32s.27,1.54.38,2.31c.13,1.06.24,2.12.33,3.19s.13,2.16.16,3.25c.08,2.12.08,4.26,0,6.39-.08,1.8-.24,3.58-.46,5.36v0c-.22,1.54-.47,3.06-.7,4.6,0,0,0,0,0,0,.36-1.18.8-2.34,1.17-3.52.33-1,.6-2,.85-3.08s.43-2,.6-3,.35-2.19.47-3.28a48.79,48.79,0,0,0-.31-13.33,28.42,28.42,0,0,0-1.66-6.22c-.23-.59-.48-1.16-.76-1.73s-.54-1-.82-1.5c-.51-.93-1-1.86-1.63-2.74a36.23,36.23,0,0,0-4.37-5.21c-.75-.75-1.54-1.47-2.32-2.19s-1.48-1.39-2.29-2l-.22-.18a5.77,5.77,0,0,0-.51-.39c-.22-.16-.44-.33-.67-.48a28.61,28.61,0,0,0-2.56-1.65,53.84,53.84,0,0,0-5.72-2.77l.05,0-.63-.26h0l-1-.43a6.33,6.33,0,0,1-1-.52h0s0,0,0,0Zm2,1h0Z" transform="translate(-177.81 -88.67)"/>
    <path class="cls-2" d="M647.51,110.14s-.1.1-.11.12a2.75,2.75,0,0,0-.22.26c-.16.19-.31.39-.46.6a9.43,9.43,0,0,0-.79,1.25c-.25.47-.5.93-.72,1.42s-.45,1-.66,1.53c-.42,1-.79,2-1.15,3s-.71,2.06-1,3.09c-.67,2.06-1.28,4.14-2,6.17s-1.55,4-2.18,6.08c-.32,1-.6,2.12-.84,3.2s-.41,2.15-.56,3.24-.24,2.15-.29,3.23c0,.52-.05,1.05-.05,1.58s0,1.14,0,1.71c0,1.11.15,2.2.28,3.29a28.55,28.55,0,0,0,.6,3.3c.24,1,.53,2,.84,3.05s.67,2.09,1.07,3.12.86,2,1.35,3,1,1.92,1.49,2.85,1.07,1.88,1.65,2.79,1.27,1.92,1.93,2.86,1.34,1.82,2,2.72l-.15-.2c.68.88,1.39,1.73,2.12,2.57.34.4.7.77,1.06,1.15s.71.73,1.09,1.07a32.32,32.32,0,0,0,2.71,2.25c.9.67,1.84,1.28,2.8,1.86a27.3,27.3,0,0,0,2.67,1.42c.56.27,1.13.54,1.71.77s1,.4,1.55.58a21.55,21.55,0,0,0,3,.76c1.1.2,2.21.37,3.32.53,2.15.31,4.32.6,6.49.72s4.36.14,6.55.1c1.1,0,2.19-.07,3.28-.16s2.31-.26,3.46-.44c2.11-.34,4.18-.84,6.26-1.29,1.05-.23,2.11-.46,3.15-.71s2.13-.57,3.18-.91a38.63,38.63,0,0,0,6-2.55c.46-.25.92-.52,1.37-.8s.87-.54,1.29-.83c.89-.61,1.76-1.26,2.62-1.93a26.42,26.42,0,0,0,4.61-4.41,21.7,21.7,0,0,0,1.64-2.37s0,0,0,0-.22.29-.32.44h0a24.44,24.44,0,0,1-1.86,2.08,27,27,0,0,1-2.2,1.94s0,0,0,0l-.49.38c-1.35,1-2.75,1.92-4.18,2.78-.76.45-1.52.87-2.31,1.27s-1.48.7-2.24,1c-1,.39-2,.76-3,1.07s-2,.57-3,.79c-2.13.46-4.29.87-6.43,1.3-1.51.31-3,.59-4.53.83-1,.13-2,.24-2.94.28s-2.16.08-3.23.09c-2.18,0-4.36,0-6.54-.18-2-.16-4-.39-6-.65h.07c-1.53-.22-3.05-.45-4.56-.75a18.73,18.73,0,0,1-2.08-.55c-.67-.21-1.32-.46-2-.73a33.84,33.84,0,0,1-3.16-1.65l-1.65-1c-.51-.33-1-.7-1.5-1.06s-1.21-1-1.8-1.47-1.22-1.09-1.78-1.69-1.17-1.27-1.72-1.93-1-1.26-1.53-1.9l.15.2a65.73,65.73,0,0,1-3.82-5.4,50.59,50.59,0,0,1-3-5.73l-.33-.75c-.32-.79-.62-1.59-.89-2.39s-.55-1.76-.8-2.65-.45-1.71-.63-2.57-.29-1.57-.4-2.36-.19-1.6-.23-2.41-.07-1.8-.06-2.69,0-1.72.1-2.58.16-1.74.26-2.6.28-2,.48-2.94.45-2.15.72-3.21c.54-2.08,1.19-4.14,1.75-6.21s1.06-4.2,1.61-6.29,1.18-4.21,1.89-6.28c.18-.53.38-1,.59-1.55v0c.19-.43.39-.85.6-1.28a9.92,9.92,0,0,1,.79-1.27h0c.1-.12.19-.26.31-.38s0,0,0,0Zm67.12,65.45h0Zm-8.78,5.1-.06,0,.06,0Zm-35.93,3.49.19,0-.19,0Zm-22.71-73.64Z" transform="translate(-177.81 -88.67)"/>
    <path class="cls-2" d="M670,109.05h0a.9.9,0,0,0,.25.36l.32.36.51.53,1.25,1.27c.76.77,1.58,1.48,2.4,2.18s1.64,1.35,2.49,2,1.69,1.28,2.57,1.89c.45.31.9.64,1.36.94l1.46.94c.5.32,1,.61,1.55.92s1,.53,1.47.79.89.44,1.34.66l.76.36.68.29c.49.2,1,.42,1.47.61l1.79.64c.36.13.75.22,1.12.34s.61.19.92.27l1.5.36c.73.18,1.47.31,2.2.46,0,0,0,0,0,0-.69-.23-1.38-.46-2.06-.71L693.9,124c-.65-.25-1.29-.54-1.94-.8l-1.67-.76c-.48-.22-.94-.47-1.41-.7s-.85-.43-1.28-.66-.89-.48-1.32-.73-1-.56-1.48-.86l-1.56-1c-.48-.29-1-.61-1.44-.91s-.92-.6-1.38-.9c-1.34-.85-2.66-1.73-4-2.62s-2.79-1.9-4.13-2.93h0c-.38-.29-.76-.6-1.14-.91l-.52-.46a4.61,4.61,0,0,1-.62-.63h0l0-.06s0,0,0,0Zm2.33,2.09s0,0,0,0l0,0Z" transform="translate(-177.81 -88.67)"/>
    <path class="cls-2" d="M793,105.24c-.77.78-1.57,1.52-2.34,2.29s-1.47,1.49-2.16,2.28a52.27,52.27,0,0,0-3.64,5.09c-.59.89-1.19,1.79-1.85,2.64l.15-.19c-.2.25-.39.51-.59.77l.15-.2c-1.34,1.65-2.73,3.26-4.09,4.88-.7.82-1.4,1.64-2.07,2.48s-1.44,1.82-2.15,2.74l-.44.58q-2,2.52-4,5c-1.33,1.62-2.68,3.24-4.09,4.8q-4.38,4.88-8.9,9.62c-1.52,1.59-3.08,3.14-4.61,4.71s-3.07,3.1-4.65,4.61-3.16,3-4.77,4.43-3.34,2.86-5.06,4.23h0q-2.48,1.89-5,3.64c-.9.63-1.82,1.22-2.74,1.81s-1.73,1.12-2.61,1.64q-2.81,1.69-5.71,3.19c-1.86,1-3.77,1.84-5.69,2.67h0c-1.35.57-2.72,1.12-4.1,1.63l-2.17.78c-.3.11-.61.24-.91.38l-.54.27a3,3,0,0,0-.33.21,0,0,0,0,0,0,0h0l0,0h0a2.73,2.73,0,0,1,.59-.3h0a23.7,23.7,0,0,1,3-.81c1-.25,2.05-.53,3.06-.83s2.11-.65,3.14-1,2.08-.76,3.09-1.17c2-.8,3.93-1.68,5.82-2.65s3.94-2.12,5.84-3.31,3.58-2.36,5.3-3.65,3.53-2.79,5.24-4.25,3.29-2.88,4.91-4.34,3.12-2.86,4.64-4.34,3.12-3.1,4.66-4.66,3-3.06,4.5-4.61c3-3.13,5.92-6.32,8.75-9.61,1.4-1.63,2.8-3.26,4.13-4.94s2.75-3.54,4.08-5.34,2.62-3.46,3.91-5.2A55.29,55.29,0,0,0,786.2,116c1-1.82,2-3.68,3.11-5.48.53-.86,1.12-1.69,1.72-2.51s1.24-1.68,1.85-2.53l.16-.21s0,0,0,0Zm-54.95,60.61-.13.11.13-.11Z" transform="translate(-177.81 -88.67)"/>
    <path class="cls-2" d="M548.08,120.9a2.52,2.52,0,0,0-.08.54h0c0,.1,0,.21,0,.31h0c-.06.47-.12,1-.15,1.43a10.43,10.43,0,0,0,0,1.48,5.25,5.25,0,0,0,.45,1.65,6.75,6.75,0,0,0,1,1.61,13,13,0,0,0,2.29,2.15,15.88,15.88,0,0,0,2.69,1.54,29.57,29.57,0,0,0,3.06,1.15c1,.33,2,.64,3,.95,2,.62,4.08,1.17,6.12,1.79,1.84.56,3.68,1.13,5.47,1.85,1,.43,1.94.88,2.88,1.37a18.74,18.74,0,0,1,2.63,1.65c.44.36.86.74,1.27,1.13a15.56,15.56,0,0,1,1.07,1.22,24.66,24.66,0,0,1,2.81,4.74,25.23,25.23,0,0,1,1,2.93c.28,1.05.5,2.11.71,3.18s.39,2,.6,3,.46,2.11.7,3.16c.07.35.15.7.21,1.06,0,0,0,0,0,0-.1-1.21-.15-2.43-.23-3.64-.07-1-.13-2.05-.2-3.07s-.17-2.18-.32-3.26a23.26,23.26,0,0,0-.65-3.2,18.73,18.73,0,0,0-1.11-3,21.29,21.29,0,0,0-1.5-2.78,14.15,14.15,0,0,0-2.16-2.6,17.71,17.71,0,0,0-2.66-2,27.11,27.11,0,0,0-5.82-2.73c-2-.65-4-1.07-6.06-1.55s-4-1-5.94-1.47a45.75,45.75,0,0,1-5.68-1.67c-.43-.2-.85-.41-1.27-.64a9.11,9.11,0,0,1-1.12-.75c-.31-.24-.62-.5-.92-.77a11.91,11.91,0,0,1-.85-.89c-.14-.19-.28-.37-.41-.57a7.49,7.49,0,0,1-.46-.89.08.08,0,0,1,0,0c-.1-.27-.18-.53-.26-.81a5.49,5.49,0,0,1-.14-.81,11.9,11.9,0,0,1,0-2.86v0s0,0,0,0Zm0,2.91v0Zm23.63,13.43.14.07-.14-.07Zm10.88,10.23.08.18-.08-.18ZM548,121.74Z" transform="translate(-177.81 -88.67)"/>
    <path class="cls-2" d="M546.37,123.13a12.12,12.12,0,0,0-.49,1.31c-.16.51-.29,1-.41,1.55a20.89,20.89,0,0,0-.46,3.24,15.89,15.89,0,0,0,.27,3.23c.14,1,.32,2,.53,3s.42,2,.69,2.93.59,2,.94,2.94a49.35,49.35,0,0,0,2.64,6.06l1.48,2.84c.47.94.91,1.88,1.35,2.83s.92,1.95,1.36,2.93.82,1.89,1.24,2.84c.88,2,1.86,3.91,2.83,5.84s2,3.76,3,5.63,2.13,3.71,3.24,5.55,2.3,3.67,3.45,5.51c.56.9,1.09,1.8,1.67,2.68s1.23,1.78,1.86,2.64,1.37,1.75,2.09,2.58,1.35,1.54,2.05,2.28a12.94,12.94,0,0,0,1.6,1.46,6.61,6.61,0,0,0,1.92,1,3.63,3.63,0,0,0,1.82.11,3.8,3.8,0,0,0,1.71-1,7.24,7.24,0,0,0,1.41-1.88s0,0,0,0l-.25.36h0a7.87,7.87,0,0,1-1.28,1.3,6,6,0,0,1-.77.45,3.49,3.49,0,0,1-.72.2,2.83,2.83,0,0,1-.65,0,4.24,4.24,0,0,1-.61-.17,6,6,0,0,1-1.13-.65,10.27,10.27,0,0,1-1.33-1.39c-.58-.79-1.13-1.6-1.68-2.41s-1.2-1.73-1.77-2.62c-1.14-1.79-2.22-3.61-3.27-5.45s-2.13-3.75-3.24-5.61c-.54-.91-1.08-1.83-1.61-2.75s-1.06-1.89-1.6-2.83c-2.11-3.67-4-7.46-5.84-11.29-.91-1.91-1.82-3.83-2.83-5.7s-2.07-3.74-3.11-5.61c-.61-1.09-1.23-2.18-1.79-3.29s-1.1-2.25-1.59-3.4c-.34-.81-.68-1.61-1-2.43s-.62-1.7-.9-2.56a35.15,35.15,0,0,1-1.45-5.53,18.83,18.83,0,0,1,.1-4.5h0a11.55,11.55,0,0,1,.57-2.17h0Zm-.54,2.18h0v0Z" transform="translate(-177.81 -88.67)"/>
    <path class="cls-2" d="M574.72,190c0,.38-.07.77-.07,1.14a9.19,9.19,0,0,0,.1,1.39h0c.14,1,.37,2.06.6,3.06a28.22,28.22,0,0,0,.95,3q.51,1.46,1.08,2.88a31.7,31.7,0,0,0,1.42,3c1,1.89,2.18,3.69,3.26,5.54.54.93,1.07,1.87,1.58,2.82s1,1.86,1.41,2.79.93,1.88,1.4,2.83.91,1.89,1.41,2.82c.26.48.52,1,.81,1.42s.57.91.86,1.37c.57.9,1.13,1.81,1.73,2.69.49.72,1,1.42,1.5,2.13a16.22,16.22,0,0,0,1.68,2s0,0,0,0a.86.86,0,0,0-.07-.1h0a16,16,0,0,1-1.46-2.7c-.45-.93-.9-1.87-1.31-2.82s-.74-1.92-1.09-2.89-.74-1.91-1.08-2.87q-1.16-3.15-2.46-6.22c-.42-1-.85-2-1.33-3a25.3,25.3,0,0,0-1.54-2.67c-.6-.93-1.26-1.82-1.9-2.72s-1.17-1.71-1.74-2.59c-.44-.67-.85-1.35-1.25-2.05s-.86-1.45-1.29-2.17-.87-1.46-1.26-2.22-.71-1.49-1-2.24a12.17,12.17,0,0,1-.85-2.6h0a5.9,5.9,0,0,1,0-1.11h0Zm0,2.52v-.05a.07.07,0,0,0,0,.05Z" transform="translate(-177.81 -88.67)"/>
    <path class="cls-2" d="M589,177.73a2.87,2.87,0,0,0-.67.3,5.08,5.08,0,0,0-.9.64,6.68,6.68,0,0,0-1.33,1.57,9.5,9.5,0,0,0-.5.88c-.15.28-.29.58-.42.88a14.73,14.73,0,0,0-.65,1.83c-.09.31-.17.61-.24.93l-.12.59c-.06.32-.1.64-.14,1,0,0,0,0,0,0,.19-.58.41-1.15.63-1.72l0,0,.39-.94,0,.06c.28-.62.54-1.25.85-1.87.17-.35.34-.71.52-1.07a11.39,11.39,0,0,1,1.13-1.86h0a5.11,5.11,0,0,1,.86-.88h0a3.37,3.37,0,0,1,.49-.3h0a.59.59,0,0,1,.14-.06s0,0,0,0Zm-.14.08h0Z" transform="translate(-177.81 -88.67)"/>
    <path class="cls-2" d="M587.57,88.68a48.3,48.3,0,0,0-7.77.9,37.83,37.83,0,0,0-7.26,2A32.89,32.89,0,0,0,569,93.23a29.48,29.48,0,0,0-3,2,43.15,43.15,0,0,0-5.79,4.92,63.59,63.59,0,0,0-5.07,5.8,29.55,29.55,0,0,0-3.89,6.5,24.28,24.28,0,0,0-1.19,3.42,20.46,20.46,0,0,0-.61,3.65c0,.28,0,.57,0,.85,0,.07-.06.4,0,.43s0,0,0,0v0c0-.21,0-.42,0-.63h0a21.65,21.65,0,0,1,1.43-5.06h0a26.75,26.75,0,0,1,1.58-3.17c.32-.54.64-1.08,1-1.58s.74-1.06,1.13-1.58l-.09.12a42.68,42.68,0,0,1,4-4.46,54.36,54.36,0,0,1,4.63-4.09l0,0,.08-.06h0l-.1.08h0l0,0,.18-.13a.08.08,0,0,1,0,0l.55-.42c1.34-1,2.68-2,4.12-2.88a42.05,42.05,0,0,1,4.61-2.41l.1-.05h0l.06,0,.1,0-.08,0,.28-.11-.1,0,.1,0-.06,0,.1,0-.06,0a42.66,42.66,0,0,1,10.33-2.6,39.6,39.6,0,0,1,4.21-.35,34,34,0,0,1,4.62.27c1.13.17,2.26.37,3.39.63s2.39.59,3.57.93a64.3,64.3,0,0,1,7,2.39,70.89,70.89,0,0,1,12.72,7.06c.81.58,1.61,1.17,2.41,1.77l.53.41c1.92,1.52,3.77,3.11,5.65,4.67.94.77,1.88,1.54,2.76,2.38s1.77,1.74,2.64,2.62,1.72,1.64,2.6,2.43a32,32,0,0,1,2.48,2.32h0l.11.16s0,0,0,0a8.23,8.23,0,0,0-1.08-1.65q-.54-.7-1.11-1.38c-.8-1-1.6-1.92-2.37-2.91l.06.07-.41-.52a.64.64,0,0,1,.1.13c-.78-1-1.59-2-2.45-3s-1.68-1.7-2.51-2.55c-1.75-1.78-3.54-3.5-5.45-5.1-1.06-.88-2.15-1.73-3.26-2.55-1-.7-2-1.34-3-2a69.91,69.91,0,0,0-6.77-3.77,58.85,58.85,0,0,0-7.09-2.89,50.72,50.72,0,0,0-7.16-1.91,41.18,41.18,0,0,0-7.27-.72Zm-14.33,5.5-.21.09.21-.09Zm-.67.28h0l0,0,.06,0Zm-8.9,5.39-.11.08.11-.08Zm57.94,4.89.09.07-.09-.07Zm.12.1.13.1-.13-.1ZM550.85,115l0,.05,0-.05Zm-1.49,5.76Zm88.48-1.51Zm-74.65-19,0,0h0l.05,0Zm9.75-5.91.19-.08-.19.08Z" transform="translate(-177.81 -88.67)"/>
    <path class="cls-2" d="M639.49,104.83a5.56,5.56,0,0,1-.07,1.47,0,0,0,0,0,0,0c-.18,1.3-.46,2.6-.71,3.9s-.5,2.67-.7,4c-.42,2.75-.71,5.51-.87,8.3a46.56,46.56,0,0,0,0,6.25c.08,1.08.2,2.16.35,3.23.07.49.15,1,.26,1.47a7.18,7.18,0,0,0,.56,1.55,0,0,0,0,0,0,0,.9.9,0,0,1,0-.16h0a9.21,9.21,0,0,1,0-2c.07-.68.15-1.35.22-2q.23-2,.48-4.08c.33-2.67.64-5.34.73-8q.12-3.27.12-6.54,0-1.64-.06-3.27c0-1-.1-2-.24-3h0c0-.17,0-.34-.07-.5h0c0-.16,0-.33-.07-.49s0,0,0,0a0,0,0,0,0,0,0Zm-1.14,30h0Zm1.3-29h0Z" transform="translate(-177.81 -88.67)"/>
    <path class="cls-2" d="M677.38,229.72a.54.54,0,0,0-.11.18l-.12.22c-.14.23-.26.46-.39.69-.27.47-.54.94-.82,1.41-.52.87-1.09,1.72-1.68,2.55-1.26,1.76-2.58,3.49-3.86,5.24-.33.45-.66.9-1,1.35s-.74,1.09-1.13,1.62c0,0,0,0,0,0,.45-.4.91-.78,1.35-1.2s.77-.73,1.13-1.11a31.7,31.7,0,0,0,2.15-2.49,25.33,25.33,0,0,0,1.84-2.67,23.1,23.1,0,0,0,1.46-3c.33-.76.57-1.55.89-2.32h0c.08-.17.16-.34.26-.51h0l0,0s0,0,0,0h0s0,0,0,0Zm0,0Zm-.28.54h0Z" transform="translate(-177.81 -88.67)"/>
    <path class="cls-2" d="M691.2,205.75h0a6.62,6.62,0,0,1,.27,1.15h0a12.4,12.4,0,0,1,0,2.51,40.61,40.61,0,0,1-1.9,7.34c-.43,1.26-.87,2.52-1.36,3.75s-1,2.46-1.49,3.69c-.13.29-.25.58-.37.87a77.32,77.32,0,0,1-3.67,7.55c-.71,1.24-1.44,2.47-2.22,3.66s-1.55,2.3-2.35,3.42-1.53,2.18-2.25,3.3c-.33.52-.65,1.05-1,1.59a10,10,0,0,0-.93,2s0,0,0,0l.12-.19a17.59,17.59,0,0,1,1.46-1.53c.46-.49.94-1,1.41-1.43.94-.95,1.87-1.89,2.79-2.86a56.38,56.38,0,0,0,5.49-6.75c3.33-4.85,5.11-10.58,6.16-16.32a43.59,43.59,0,0,0,.73-6,13.7,13.7,0,0,0-.11-2.86,12.71,12.71,0,0,0-.31-1.49c-.07-.24-.14-.49-.23-.72a4,4,0,0,0-.26-.68h0s0,0,0,0Z" transform="translate(-177.81 -88.67)"/>
    <path class="cls-2" d="M703.83,208.1h0l-.5.21h0a23.38,23.38,0,0,0-3.48,1.88,26.23,26.23,0,0,0-3.17,2.38,33.83,33.83,0,0,0-5.53,6.24c-.66.95-1.24,2-1.81,3s-1.21,2.23-1.77,3.37c-1.09,2.23-2.05,4.51-3,6.8l0-.08a27.51,27.51,0,0,1-1.37,2.71,0,0,0,1,0,0,0c.52-.5,1.08-1,1.56-1.51s.88-1.06,1.3-1.61c.82-1.09,1.61-2.2,2.4-3.31s1.64-2.28,2.41-3.45,1.38-2.2,2.07-3.31,1.39-2.32,2.13-3.45,1.47-2.13,2.26-3.16l0,0,.32-.41c.81-1,1.66-2,2.55-3a24.75,24.75,0,0,1,2.88-2.73h0a4.88,4.88,0,0,1,1-.63h0l.13-.05h0s0,0,0,0h0a1.2,1.2,0,0,0-.45.15Zm.43-.14Zm-6.43,6.26-.05.08.05-.08ZM684.58,232l0,0,0,0Zm18.53-23.31h0Zm.72-.56Z" transform="translate(-177.81 -88.67)"/>
    <path class="cls-2" d="M833.86,193.9c-.07.22-.12.44-.18.66s-.14.54-.22.81l-.42,1.51c-.28,1.07-.54,2.15-.82,3.22a51.12,51.12,0,0,1-2.14,6.4c-.07.17-.14.33-.2.5-.43.92-.84,1.86-1.32,2.76s-1.07,2-1.63,3c-1.07,1.95-2.2,3.87-3.35,5.78-.7,1.18-1.4,2.38-2.08,3.58-.79,1.39-1.53,2.8-2.24,4.23,0,0,0,0,0,0,.8-1,1.64-1.89,2.43-2.87s1.43-1.81,2.13-2.73c1.33-1.76,2.63-3.55,3.82-5.4.64-1,1.24-2,1.81-3.05s1-2,1.44-3a29.24,29.24,0,0,0,1.89-6.55c.43-2.51.54-5.06.87-7.59h0a7.68,7.68,0,0,1,.23-1.27s0,0,0,0Zm-.2,1.27h0Z" transform="translate(-177.81 -88.67)"/>
    <path class="cls-2" d="M832,204.27c-.24.43-.43.89-.63,1.34a12.53,12.53,0,0,0-.53,1.37,24.6,24.6,0,0,0-.77,3,24.19,24.19,0,0,0-.36,3.28c0,.54,0,1.09,0,1.63a14,14,0,0,0,.1,1.58,2.54,2.54,0,0,1,0,.29v0c0,.35.1.68.15,1,0,0,0,0,0,0,0-.34.07-.68.11-1h0c.12-.88.26-1.76.38-2.64v0c0-.29.09-.59.13-.89a.5.5,0,0,1,0,.12c.05-.32.09-.64.13-1v.06c.25-1.82.39-3.65.62-5.46h0a11.74,11.74,0,0,1,.61-2.62h0a1,1,0,0,1,.07-.15s0,0,0,0Zm-1.51,9.89v0Zm.22-1.58s0-.05,0-.07v.07Z" transform="translate(-177.81 -88.67)"/>
    <path class="cls-2" d="M691.36,189l.31.11h0a10.68,10.68,0,0,1,1.57.91c.55.37,1.11.75,1.65,1.13,1.07.73,2.12,1.48,3.15,2.27.44.36.88.72,1.3,1.1s.93.86,1.37,1.31a30.53,30.53,0,0,1,2.28,2.55c.53.7,1,1.42,1.5,2.16s1,1.52,1.48,2.28c0,0,0,0,0,0-.19-.54-.35-1.08-.54-1.61s-.37-.95-.57-1.42a14,14,0,0,0-1.63-2.73,18.47,18.47,0,0,0-2.17-2.42,13.91,13.91,0,0,0-1.26-1c-.42-.32-.84-.63-1.28-.91a39.81,39.81,0,0,0-3.53-2c-.61-.32-1.22-.64-1.84-.93a11.9,11.9,0,0,0-1.81-.75h0s0,0,0,0ZM703,198.36l0,0,0,0Z" transform="translate(-177.81 -88.67)"/>
    <path class="cls-2" d="M656.37,182.71s.09.35.11.41c.08.24.18.46.27.69a7.72,7.72,0,0,0,.78,1.33,17.59,17.59,0,0,0,2,2.22,28.82,28.82,0,0,0,2.23,1.91,26.69,26.69,0,0,0,2.54,1.82,21.93,21.93,0,0,0,2.87,1.43l-.22-.09c1.62.68,3.27,1.32,4.91,2s3,1.24,4.54,1.87c.88.38,1.77.76,2.63,1.18s1.85,1,2.76,1.46,1.83,1,2.73,1.56,1.89,1.13,2.86,1.66,1.75.94,2.65,1.37c.59.28,1.18.56,1.79.8s1,.35,1.48.51c1,.32,2,.71,3,1s2,.58,3,.85c2.08.57,4.13,1.2,6.18,1.87l3,1c1,.33,2,.68,3,1,1.3.39,2.62.7,4,1,.66.13,1.31.24,2,.35a10.29,10.29,0,0,0,2.07.19s0,0,0,0l-.28,0h0a14.25,14.25,0,0,1-1.58-.45l-1.59-.52c-1.06-.35-2.1-.77-3.14-1.19-1.91-.83-3.78-1.75-5.69-2.59s-4-1.77-6.08-2.6-3.91-1.53-5.86-2.31c-.4-.17-.79-.36-1.17-.56s-.91-.5-1.37-.73c-.89-.45-1.77-.91-2.65-1.38s-1.89-1-2.87-1.48-1.9-.8-2.84-1.23c-2-.93-3.95-1.89-6-2.69s-4-1.43-6-2.07c-1.09-.34-2.19-.66-3.28-1s-2-.68-3-1.08a28.07,28.07,0,0,1-3.28-1.67c-1.12-.68-2.23-1.38-3.28-2.17l0,0a13,13,0,0,1-2.39-2.23l0,0a5.36,5.36,0,0,1-.69-1.12h0c0-.09-.07-.19-.1-.28h0Zm9.73,7.46.09,0-.09,0Zm46.77,19.71h0Zm-53.38-23.57,0,0,0,0Zm-3-3.29Z" transform="translate(-177.81 -88.67)"/>
    <path class="cls-2" d="M719.13,213.3h0l-.67.11-.38.09a1.12,1.12,0,0,0-.37.09v0h0l.35-.06h0a5,5,0,0,1,1.34,0h0a8.64,8.64,0,0,1,2,.51,5.3,5.3,0,0,1,1,.58c.87.73,1.62,1.58,2.42,2.38s1.77,1.56,2.67,2.31,1.82,1.5,2.77,2.18,1.95,1.19,2.94,1.77,2,1.22,3,1.88,1.8,1.21,2.74,1.77A34,34,0,0,0,742,228.5c.53.24,1.06.48,1.58.74s1,.53,1.45.82c.17.11.33.21.49.33.56.45,1.09.93,1.66,1.37a13.91,13.91,0,0,0,2.46,1.54c1.55.77,3.21,1.33,4.82,2,.44.19.87.39,1.3.62a13.46,13.46,0,0,1,1.48.92,21.9,21.9,0,0,1,2.38,2.34c.78.89,1.59,1.75,2.44,2.58s1.72,1.6,2.63,2.33a22,22,0,0,0,3.35,2.21,29.37,29.37,0,0,0,3.38,1.53c1.11.44,2.23.83,3.36,1.19a33.48,33.48,0,0,0,7.5,1.3,12.27,12.27,0,0,0,2.1,0,16,16,0,0,0,2.58-.37,11.87,11.87,0,0,0,1.32-.41h0a3.14,3.14,0,0,0,0,1.43c0,.19.08.37.12.56s.18.58.28.87a17.79,17.79,0,0,0,1.62,3.38,35.06,35.06,0,0,0,2.09,3c.7.93,1.34,1.9,2,2.83s1.46,1.86,2.1,2.86,1.16,1.94,1.7,2.93a9.18,9.18,0,0,0,2.61,3.47,4.41,4.41,0,0,0,2.08.54l.15,0,.1.06,0,0a2.39,2.39,0,0,1,.13.21,5.16,5.16,0,0,1,.25,1.1s0-.09,0-.13c0,.53.07,1.05.11,1.58a8.79,8.79,0,0,0,.2,1.35,3.88,3.88,0,0,0,.38.92,4.22,4.22,0,0,0,.6.79s0,0,0,0a5.51,5.51,0,0,1-.38-.67h0a5.56,5.56,0,0,1-.19-.7,8.51,8.51,0,0,1,0-1.82c.09-.6.17-1.21.2-1.82a4,4,0,0,0-.09-1,1.84,1.84,0,0,0-.43-.83,2,2,0,0,0-1.06-.53,4.42,4.42,0,0,1-.52-.14,3.91,3.91,0,0,1-.44-.26,3.23,3.23,0,0,1-.37-.37,11.68,11.68,0,0,1-1.13-2.16l.11.25c-.47-1.12-.95-2.23-1.44-3.35a25.45,25.45,0,0,0-1.71-3.11c-.6-1-1.22-1.95-1.82-2.94-.3-.49-.63-1-1-1.46a2.74,2.74,0,0,0,1.69-.48,1.46,1.46,0,0,0,.5-.42,2.53,2.53,0,0,0,.58-1,5.06,5.06,0,0,0,.11-.86,4.18,4.18,0,0,0-.13-.84,5.16,5.16,0,0,0-.44-1.06l-.16-.3a22.62,22.62,0,0,0-2-2.83c-.63-.78-1.41-1.42-2.06-2.17a3.78,3.78,0,0,1-.26-.43c-.06-.16-.11-.33-.16-.49a5,5,0,0,0-.36-.93,2.07,2.07,0,0,0-.7-.71,1.89,1.89,0,0,0-1-.27,2,2,0,0,0-1.43.67,6.24,6.24,0,0,0-.53.71c-.14.2-.24.42-.37.62l-.06.07a5.9,5.9,0,0,1-.7.38,8.48,8.48,0,0,1-1.27.4c-.39.09-.77.16-1.16.22a18.19,18.19,0,0,1-2.33.12,20.82,20.82,0,0,1-2.08-.17,36.67,36.67,0,0,1-4.51-1,37.35,37.35,0,0,1-4-1.42c-.71-.3-1.42-.62-2.1-1a21,21,0,0,1-2.44-1.5c-.8-.65-1.57-1.34-2.32-2.05s-1.66-1.62-2.43-2.49a25.5,25.5,0,0,0-2.62-2.68,14.1,14.1,0,0,0-3.44-2.15c-1.1-.5-2.24-.91-3.35-1.36a17.13,17.13,0,0,1-1.56-.74,13.46,13.46,0,0,1-1.57-1c-.53-.44-1-.89-1.55-1.35a15.78,15.78,0,0,0-1.89-1.48,14.07,14.07,0,0,0-2.32-1.1l-1.91-.76c-.68-.29-1.35-.6-2-.93s-1.39-.76-2.08-1.15-1.4-.82-2.13-1.18-1.56-.72-2.35-1c-1-.45-2-1-3-1.48s-1.89-1.12-2.82-1.71-2-1.24-3-1.94a10,10,0,0,0-2.89-1.68,5.9,5.9,0,0,0-1.82-.27,8.89,8.89,0,0,0-1.15.08Zm3.21,1.35.06,0-.06,0ZM749.7,229.1l.15.1-.15-.1Zm30.23,17.53.2,0-.2,0Zm22.06,23,0,0,0,0Zm.24.16h0Zm.54,1.58h0Zm.29.08h0Zm0,0,0,0,0,0Zm1.17,2.72v0Zm0,1.74h0Zm.19.74Zm-85.31-63.38h0Z" transform="translate(-177.81 -88.67)"/>
    <path class="cls-2" d="M815.68,249.07c-.06.38-.07.78-.1,1.18s-.07.87-.1,1.31c-.06.91-.15,1.82-.25,2.72s-.27,1.65-.44,2.47a18.89,18.89,0,0,1-.82,2.58c-.1.22-.19.45-.28.67-.32.65-.63,1.31-1,1.93s-.82,1.28-1.26,1.9c-.21.25-.41.51-.63.75s-.59.64-.9.95a16.16,16.16,0,0,1-1.66,1.44,24.83,24.83,0,0,1-2.3,1.46s0,0,0,0c.67-.17,1.34-.3,2-.52a8.42,8.42,0,0,0,1.58-.74,14.85,14.85,0,0,0,3-2.33,15.38,15.38,0,0,0,1.27-1.53,12.12,12.12,0,0,0,1-1.57,11.1,11.1,0,0,0,.76-1.77,11.42,11.42,0,0,0,.46-1.74,16.6,16.6,0,0,0,.12-4.67c-.07-.74-.17-1.48-.27-2.22,0-.4-.1-.8-.14-1.2a5,5,0,0,1,0-1.09h0Zm-.46,5.27v0Zm-3.71,9.39,0,0,0,0ZM808.23,267l0,0,0,0Z" transform="translate(-177.81 -88.67)"/>
    <path class="cls-2" d="M786.87,229.19a15.88,15.88,0,0,0-2.12,1.21c-.27.19-.55.38-.8.59l-.87.77a9.76,9.76,0,0,0-2.56,3.89,7.94,7.94,0,0,0-.44,2.36,7.48,7.48,0,0,0,0,1.34s0,0,0,0,0,0,0,0a2.9,2.9,0,0,1,0-.72h0a7.73,7.73,0,0,1,.48-1.77h0l0,0h0a13.45,13.45,0,0,1,1.76-2.84,36.1,36.1,0,0,1,4.49-4.76,0,0,0,0,0,0,0Zm-6.26,7.65h0s0,0,0,0l0,0Z" transform="translate(-177.81 -88.67)"/>
    <path class="cls-2" d="M803,271.42a9.38,9.38,0,0,1,.63,1.22h0c.17.4.31.8.44,1.2a9.23,9.23,0,0,1,.3,1.26h0c.1.75.13,1.5.18,2.26a9.8,9.8,0,0,0,.45,2.33,10.5,10.5,0,0,0,1,2,15.17,15.17,0,0,0,1.31,1.86,21.85,21.85,0,0,0,3.31,3.35c.61.49,1.23,1,1.88,1.4s1.45.91,2.2,1.32c2.78,1.54,5.65,2.93,8.54,4.25s5.73,2.73,8.52,4.24c2.25,1.21,4.45,2.51,6.62,3.86,1,.65,2.07,1.31,3.11,1.95s2.12,1.38,3.15,2.13l-.17-.13c1,.76,1.93,1.57,2.88,2.37s1.95,1.64,2.94,2.43,2.16,1.7,3.26,2.52l2.94,2.2c1.22.94,2.43,1.91,3.58,2.93s2.43,2.21,3.62,3.34,2.43,2.3,3.66,3.44,2.43,2.21,3.65,3.31,2.27,2.1,3.42,3.13,2.45,2.16,3.69,3.23c2.36,2,4.67,4.1,6.93,6.25s4.59,4.46,6.93,6.65l3.68,3.42c1.17,1.08,2.34,2.16,3.54,3.21s2.34,2,3.55,3,2.59,2.07,3.88,3.11,2.51,2,3.73,3.07,2.37,2.07,3.56,3.1c.58.51,1.17,1,1.78,1.52s1.36,1.12,2.09,1.63,1.33.95,2,1.37a23.54,23.54,0,0,0,2.17,1.13c.81.37,1.63.71,2.47,1s1.6.5,2.41.71c1.63.41,3.28.75,4.94,1.05a61.22,61.22,0,0,0,9.65.92,39.28,39.28,0,0,0,4.73-.15,36.1,36.1,0,0,0,4.75-.87c1-.23,2-.54,2.91-.84,0,0,0,0,0,0q-.88.17-1.77.3h0l-1,.13h0c-1,.12-2.09.22-3.14.3a27.46,27.46,0,0,1-2.87,0c-2-.06-4-.26-5.94-.51h0l-.16,0,.13,0c-1.21-.18-2.41-.37-3.61-.61s-2.45-.54-3.67-.82-2.45-.62-3.67-.95c-.55-.16-1.1-.33-1.64-.52s-1.15-.41-1.73-.63l-.77-.33c-.33-.14-.65-.31-1-.46-.57-.28-1.13-.59-1.68-.91s-1.11-.66-1.63-1L918.12,367c-2.52-2-4.92-4.13-7.41-6.17-1.21-1-2.44-2-3.67-2.94s-2.5-2-3.73-3.07c-2.43-2.06-4.74-4.26-7.06-6.43s-4.62-4.46-6.92-6.7-4.65-4.41-7.08-6.5c-1.22-1.06-2.46-2.09-3.69-3.14L875,328.9q-3.66-3.19-7.3-6.44c-2.39-2.14-4.73-4.35-7.23-6.35-1.39-1.12-2.81-2.19-4.25-3.24s-2.63-1.92-3.93-2.92l.09.07-.12-.09-.07-.06.07.06-2.59-2c-.9-.71-1.8-1.45-2.71-2.16l-.17-.13-.43-.33.08.06-.06-.05-.17-.13c-1.24-1-2.56-1.81-3.86-2.68s-2.64-1.7-4-2.49-2.93-1.61-4.4-2.39-2.7-1.46-4.06-2.15-2.86-1.45-4.31-2.13-3-1.36-4.46-2-2.9-1.36-4.34-2.06c-.67-.33-1.34-.64-2-1s-1.47-.84-2.18-1.3c-.46-.3-.91-.62-1.35-.95s-.64-.5-1-.76-.73-.65-1.09-1a22.35,22.35,0,0,1-1.81-2c-.34-.45-.66-.9-1-1.38a10.79,10.79,0,0,1-.74-1.38,9.11,9.11,0,0,1-.36-1c-.09-.38-.17-.76-.23-1.15-.11-.71-.19-1.42-.34-2.12a9.1,9.1,0,0,0-.66-1.9,15.9,15.9,0,0,0-1.05-1.89,0,0,0,0,0,0,0s0,0,0,0Zm1.37,3.68v0ZM952,374.42h0Zm-12.92-.06h0Zm-86.86-64.43,0,0,0,0Zm-5.73-4.52-.09-.08.09.08Zm-42.86-32.77h0Z" transform="translate(-177.81 -88.67)"/>
    <path class="cls-2" d="M770.23,140.56l-1.1.05-.58,0a2.07,2.07,0,0,0-.5.06h0a0,0,0,0,0,0,0h0a10.48,10.48,0,0,1,1.94,0c.7.06,1.39.14,2.08.23h.06c2.11.31,4.22.68,6.3,1.17,1,.24,2,.53,3.08.81s2.15.57,3.22.85c2.09.54,4.17,1.15,6.25,1.72s4.17,1.17,6.25,1.77c4.25,1.21,8.5,2.38,12.75,3.56a107,107,0,0,1,11.29,3.81c1,.41,1.88.83,2.82,1.26s1.92,1,2.86,1.48c1.87,1,3.69,2.09,5.51,3.18,1.42.87,2.85,1.72,4.24,2.64s2.6,1.83,3.86,2.79h0c.51.4,1,.81,1.5,1.26a14.16,14.16,0,0,1,1.43,1.57h0c.07.08.12.16.19.25s0,0,0,0a17.42,17.42,0,0,0-1-1.61,10.73,10.73,0,0,0-.93-1.18c-.73-.82-1.51-1.58-2.3-2.33a53.63,53.63,0,0,0-5.07-4.21c-1.71-1.26-3.44-2.48-5.25-3.6-.93-.57-1.86-1.16-2.82-1.69s-2-1.07-3-1.56-2.18-1-3.28-1.44-1.93-.78-2.9-1.13-2.06-.74-3.1-1.05-2.22-.63-3.33-.92c-4.19-1.1-8.38-2.21-12.55-3.37-2.16-.61-4.31-1.18-6.5-1.66s-4.12-.89-6.2-1.27-4.37-.81-6.59-1.05-4.34-.42-6.53-.47h-.92c-.41,0-.83,0-1.24,0Zm1.93.43Zm0,0h0Z" transform="translate(-177.81 -88.67)"/>
    <path class="cls-2" d="M850,167a31.94,31.94,0,0,0-5.47,1.1s0,0,0,0a9.48,9.48,0,0,1,1.39-.27h0a36.23,36.23,0,0,1,5.31-.22,51.94,51.94,0,0,1,5.42.48c1.4.2,2.79.42,4.18.69a28.75,28.75,0,0,1,4,1.11l3.86,1.43c1.27.47,2.55,1,3.81,1.47,1.84.75,3.7,1.46,5.54,2.23h0c1.31.57,2.61,1.17,3.93,1.71s2.69,1,4.05,1.46l3.81,1.25c1.27.42,2.53.86,3.8,1.31.7.24,1.4.52,2.09.79a30.34,30.34,0,0,1,2.82,1.35c.48.28.95.56,1.42.86s.87.6,1.29.92c.86.69,1.68,1.4,2.47,2.17s1.72,1.8,2.55,2.73,1.56,1.84,2.31,2.78,1.54,1.93,2.3,2.9,1.52,2,2.24,3.08,1.56,2.37,2.28,3.59,1.32,2.38,1.93,3.6,1.26,2.57,1.86,3.87c.88,1.92,1.7,3.88,2.53,5.82a2.44,2.44,0,0,0-.1-.24c.73,1.72,1.45,3.44,2.18,5.15l-.09-.21.07.18v0l.06.15,0,.08v0l0,.06,0,.07h0l0,0v0l0,.06.12.28,0-.07.14.33,0-.06.07.16,0,.11,0-.05h0l0,.08v0l0-.08.05.11,0-.09.54,1.28,0-.06.08.19.06.15,0,0,.54,1.28q1.56,3.74,3,7.55c1,2.6,2,5.19,2.94,7.79.47,1.28.91,2.56,1.35,3.85s.91,2.61,1.35,3.93c.91,2.67,1.73,5.37,2.57,8.07s1.75,5.29,2.62,7.93c.46,1.37.92,2.74,1.36,4.12s.81,2.52,1.14,3.8c.28,1,.55,2,.77,3.08s.45,2.05.66,3.07.46,2.15.68,3.23.36,1.92.5,2.89.21,2,.23,3,0,2.23,0,3.34-.06,2.13-.1,3.19c0,1.34-.09,2.69-.17,4h0c.47-2.93,1-5.85,1.4-8.8.16-1.38.31-2.76.36-4.15,0-.7,0-1.39,0-2.08s-.09-1.46-.16-2.18c-.14-1.42-.38-2.83-.61-4.23s-.48-2.74-.77-4.1a74.61,74.61,0,0,0-2.31-7.87c-.92-2.74-1.84-5.47-2.74-8.21-.84-2.57-1.62-5.17-2.41-7.75s-1.69-5.38-2.62-8-1.9-5.31-2.91-7.94-2.07-5.25-3.17-7.85-2.17-5.07-3.25-7.59-2.3-5.27-3.48-7.88c-.56-1.22-1.1-2.45-1.69-3.65s-1.29-2.64-2-3.94a51.1,51.1,0,0,0-4.55-6.84c-.9-1.18-1.84-2.33-2.78-3.47s-1.78-2.12-2.75-3.11-1.93-1.85-2.93-2.72a41.93,41.93,0,0,0-3.44-2.65,21.71,21.71,0,0,0-3.44-1.89c-1.27-.57-2.56-1.1-3.87-1.57-2-.73-4-1.42-6-2.08-1.09-.36-2.17-.73-3.24-1.13s-2-.82-3.06-1.24l.31.13c-1.31-.56-2.6-1.14-3.92-1.66s-2.52-1-3.79-1.42c-2.53-.93-5.08-1.81-7.67-2.59-.72-.22-1.43-.42-2.16-.61a20.47,20.47,0,0,0-2.07-.41,38.52,38.52,0,0,0-4.29-.46c-1.34-.07-2.68-.13-4-.13A35,35,0,0,0,850,167Zm60.68,28.06a1.09,1.09,0,0,0,.13.17,1.09,1.09,0,0,1-.13-.17Zm14.61,28.71,0,.09,0-.09Zm-.44-1,0-.11-.06-.13.1.24Zm-.56-1.33.06.15-.06-.14,0,.08c0-.07-.06-.13-.08-.19l0,.1-.07-.17,0,0,.09.2Zm-.41-1h0a2.44,2.44,0,0,0,.1.24l-.09-.21,0,0Zm-.06-.13,0-.05-.06-.13a1.42,1.42,0,0,1,.08.18Zm-2.24-5.3,0-.1a1,1,0,0,0,0,.1Z" transform="translate(-177.81 -88.67)"/>
    <path class="cls-2" d="M949.73,155.72c-1,.39-1.93.84-2.89,1.29l-2.91,1.37c-.95.44-1.9.9-2.81,1.42s-1.81,1.08-2.69,1.67c-1.75,1.16-3.44,2.44-5.11,3.71a66.47,66.47,0,0,0-5.14,4.33,57.18,57.18,0,0,0-4.39,4.69c-1.5,1.78-2.92,3.62-4.29,5.49-.63.87-1.23,1.78-1.8,2.69a31.34,31.34,0,0,0-1.49,2.8c-.47,1-.87,2-1.25,3a26.61,26.61,0,0,0-.86,3c-.06.26-.08.54-.13.8a7.77,7.77,0,0,0-.08.83,11.27,11.27,0,0,0,.08,1.74h0a1.7,1.7,0,0,0,0,.22s0,0,0,0l0-.19h0a6.13,6.13,0,0,1,0-1.21h0v0h0a10.69,10.69,0,0,1,.34-1.38c.17-.5.36-1,.56-1.49a30.92,30.92,0,0,1,1.9-3.6c.38-.6.75-1.21,1.16-1.79l1.14-1.55c1.34-1.67,2.77-3.26,4.19-4.84s2.92-3.24,4.45-4.8c3-3,6.15-6,9.4-8.79,1.38-1.19,2.74-2.39,4.17-3.51s2.76-2,4.16-3l2.08-1.45c.71-.51,1.41-1.05,2.16-1.5a0,0,0,0,0,0,0Zm-30.45,27.69-.1.14.1-.14Zm-4.34,7.13,0,.06,0-.06Zm-.9,2.86h0Z" transform="translate(-177.81 -88.67)"/>
    <path class="cls-2" d="M901.31,223.24a5.85,5.85,0,0,0-.28.56c-.09.19-.18.38-.26.57-.2.46-.4.93-.59,1.39v0c-.35.84-.69,1.68-1,2.52s-.7,1.7-1,2.56-.61,1.56-.9,2.35c-.51,1.4-1,2.8-1.51,4.2,0,0,0,0,0,0l1.35-2.75c.23-.47.46-.94.68-1.41s.5-1.1.75-1.65.44-1.08.65-1.63.35-1,.52-1.49.3-.93.43-1.4c.31-1.06.59-2.14,1-3.18l.15-.37h0c0-.08.07-.15.11-.22s0,0,0,0Z" transform="translate(-177.81 -88.67)"/>
    <path class="cls-2" d="M885.53,270.51a6.64,6.64,0,0,0,.77,2.53c.33.69.66,1.38,1,2.08a13.92,13.92,0,0,1,.65,1.88c.18.71.33,1.42.45,2.14a10.08,10.08,0,0,1,0,2.33,9.59,9.59,0,0,1-.52,1.81v0c-.1.23-.21.46-.33.68,0,0,0,0,0,0a9,9,0,0,0,1-1.2,5.43,5.43,0,0,0,.68-1.49,6.64,6.64,0,0,0,.24-1.93,9,9,0,0,0-.43-2.72,14,14,0,0,0-2.72-4.37l0,0a6,6,0,0,1-.67-1h0a2.29,2.29,0,0,1-.15-.51h0a1.8,1.8,0,0,1,0-.22h0Zm2.82,8.52v.08s0-.05,0-.08Zm.06,2.37v.07a.17.17,0,0,1,0-.07Zm0,.08v0Z" transform="translate(-177.81 -88.67)"/>
    <path class="cls-2" d="M884.54,105.51a4.8,4.8,0,0,0-.23.67c-.09.31-.2.62-.29.93-.18.66-.37,1.32-.54,2a26.68,26.68,0,0,0-.66,3.78c-.14,1.34-.2,2.67-.22,4a27.08,27.08,0,0,0,.18,3.82c.09.79.21,1.58.35,2.37s.28,1.29.43,1.92c.3,1.21.65,2.4,1,3.58s.9,2.54,1.37,3.81.92,2.59,1.37,3.9c.86,2.52,1.74,5,2.85,7.46.51,1.14,1.07,2.27,1.64,3.39a16.28,16.28,0,0,0,1,1.61,10.44,10.44,0,0,0,1.23,1.43,8.33,8.33,0,0,0,3.71,2.22s0,0,0,0a4.72,4.72,0,0,1-.55-.36l0,0a10,10,0,0,1-1.61-1.57,13,13,0,0,1-1.42-2.38,28.9,28.9,0,0,1-1-3.44c-.32-1.26-.67-2.52-1-3.77-.68-2.49-1.3-5-2-7.48-.39-1.31-.81-2.62-1.31-3.9s-1-2.4-1.45-3.6a46.71,46.71,0,0,1-2.32-7.58c-.23-1.09-.42-2.2-.58-3.3v0l-.09-.7c0,.08,0,.16,0,.23a.88.88,0,0,0,0-.16,31.6,31.6,0,0,1-.08-7.59v0a5,5,0,0,1,.28-1.33h0Z" transform="translate(-177.81 -88.67)"/>
    <path class="cls-2" d="M895,150.53c-.78,0-1.55.09-2.32.17a22.14,22.14,0,0,0-2.8.48,13.15,13.15,0,0,0-2.45.85,19.91,19.91,0,0,0-4.3,2.63c-.62.5-1.22,1-1.79,1.57a19.64,19.64,0,0,0-1.47,1.68,16.21,16.21,0,0,1-2,2.09c-.25.18-.5.35-.76.51a5.85,5.85,0,0,1-.79.4,17,17,0,0,1-3,.8c-.59.06-1.17.1-1.76.12-.77,0-1.54,0-2.29.11a35.72,35.72,0,0,0-4.94.76,34.44,34.44,0,0,0-4.31,1.3c-1.54.6-3,1.28-4.53,2s-2.93,1.48-4.37,2.26c0,0,0,0,0,0l.54-.26h0a33.33,33.33,0,0,1,4.68-1.45q2.52-.65,5.08-1.07h-.06a36.86,36.86,0,0,1,4.45-.33,37.66,37.66,0,0,1,4.51.28c.77.09,1.53.18,2.29.24a12.85,12.85,0,0,0,2.15-.1,13.08,13.08,0,0,0,2.69-.6,10.76,10.76,0,0,0,1.32-.54,10.16,10.16,0,0,0,1-.53,14.53,14.53,0,0,0,2.24-1.73,12.84,12.84,0,0,0,1.46-1.67c.5-.62,1-1.24,1.53-1.82a14,14,0,0,1,1.4-1.26c.51-.36,1-.71,1.57-1s.91-.49,1.38-.71.85-.3,1.29-.44a12.21,12.21,0,0,1,1.57-.34,17.86,17.86,0,0,1,2.07-.16c1,0,2,0,2.94,0,1.64.07,3.29.15,4.93.34a35.09,35.09,0,0,1,3.66.8,34.29,34.29,0,0,1,3.4,1.2l.66.28a62.12,62.12,0,0,1,5.78,2.87,56.17,56.17,0,0,1,5.27,3.52l-.08-.06.56.43c2.35,1.88,4.6,3.86,6.84,5.86,0,0,0,0,0,0-.5-.7-.93-1.43-1.42-2.13s-.89-1.21-1.35-1.82c-.94-1.23-1.91-2.43-2.95-3.59a34.12,34.12,0,0,0-7.39-6.25c-1.27-.82-2.62-1.53-4-2.23a40.14,40.14,0,0,0-4.48-2,20.34,20.34,0,0,0-4.47-1.19,25.23,25.23,0,0,0-2.88-.24c-.71,0-1.42,0-2.13,0h-1.24c-.37,0-.74,0-1.11,0Zm-3,4.41-.14,0,.14,0Z" transform="translate(-177.81 -88.67)"/>
    <path class="cls-2" d="M588,219.33l.22.51h0c.34.89.65,1.78,1,2.65s.75,1.75,1.16,2.62.84,1.76,1.25,2.64.84,1.81,1.25,2.72.73,1.63,1.08,2.45c.1-.14.21-.27.32-.4l.28-.32,0,0,.18-.22a1.44,1.44,0,0,1,.19-.22c-.22-.42-.44-.84-.67-1.26-.48-.88-1-1.75-1.5-2.61-.84-1.46-1.73-2.89-2.56-4.35q-.6-1-1.14-2.07c-.37-.71-.69-1.44-1-2.16h0a0,0,0,0,0,0,0Z" transform="translate(-177.81 -88.67)"/>
    <path class="cls-2" d="M605.86,254.94c-.25.42-.53.82-.79,1.23a35.44,35.44,0,0,0,3.83,4.11c.77.71,1.54,1.41,2.36,2.07s1.83,1.46,2.76,2.16c1.64,1.23,3.34,2.37,5.08,3.45.84.51,1.69,1,2.55,1.45s2,1.09,3,1.62c1.77,1,3.57,1.85,5.37,2.73s3.7,1.75,5.53,2.67,3.88,2,5.83,3,3.7,1.87,5.55,2.79,3.75,1.84,5.67,2.65,3.94,1.64,5.93,2.39l4.62,1.73c1.59.59,3.19,1.16,4.78,1.73,3.22,1.17,6.42,2.39,9.59,3.7l-.28-.11c1.91.81,3.81,1.63,5.68,2.51s3.69,1.73,5.5,2.66q1.53.78,3,1.62c.84.48,1.66,1,2.49,1.49,1.73,1.05,3.43,2.15,5.16,3.22s3.67,2.18,5.58,3.15a58.7,58.7,0,0,0,6,2.6c1.06.39,2.12.75,3.19,1.09.92.3,1.87.57,2.81.81,2,.5,4,1,6,1.36,4,.78,8.08,1.41,12.13,2a1.77,1.77,0,0,0,.32.05l.38,0,.43.06h0a1.26,1.26,0,0,0,.33.05c3.94.54,7.87,1,11.82,1.43,2.86.3,5.71.6,8.58.82s5.52.47,8.27.79l2.43.36c.82.14,1.64.3,2.45.47,1.6.33,3.2.71,4.76,1.17,1.74.5,3.45,1,5.16,1.61l2.29.77,3.27,1.1s0,0,0,0c-1.24-.59-2.47-1.21-3.71-1.81-.93-.46-1.86-.89-2.79-1.32-1.9-.88-3.85-1.67-5.82-2.37-1.06-.37-2.13-.73-3.2-1.05s-2-.57-3-.83-1.86-.42-2.8-.57c-1.1-.19-2.19-.35-3.29-.5-2.09-.27-4.2-.45-6.3-.63s-4-.37-6-.56c-3.9-.36-7.79-.81-11.68-1.31h-.09c-.25-.06-.52-.06-.77-.1l-.38-.05a2.47,2.47,0,0,0-.38,0c-2-.27-3.93-.55-5.88-.87s-4.2-.72-6.27-1.19-4.1-1-6.13-1.55-4-1.22-5.92-2l-2.06-.82c-.93-.4-1.85-.81-2.76-1.26s-1.92-1-2.86-1.48c-1.87-1-3.67-2.13-5.48-3.23-1.66-1-3.31-2-5-2.94-1.88-1-3.8-2-5.74-2.88s-3.79-1.79-5.7-2.65-3.87-1.65-5.82-2.42-3.9-1.45-5.86-2.15l-5.94-2.13c-4-1.43-8-2.91-11.89-4.54L648.78,281c-1-.45-1.95-.94-2.93-1.41-1.87-.92-3.74-1.87-5.61-2.8L634.82,274c-1.86-.93-3.72-1.85-5.57-2.79-2.45-1.24-4.89-2.49-7.28-3.82-1.26-.69-2.49-1.42-3.69-2.2s-2.12-1.45-3.15-2.23c-1.55-1.21-3.06-2.45-4.49-3.81-.72-.68-1.42-1.38-2.09-2.11s-1.2-1.36-1.77-2.07c-.18-.25-.36-.49-.53-.74-.13.23-.25.45-.39.67Z" transform="translate(-177.81 -88.67)"/>
    <path class="cls-2" d="M736.63,314.57Z" transform="translate(-177.81 -88.67)"/>
    <path class="cls-2" d="M759.84,318.25c.37,0,.74.05,1.1.1h0c1.16.15,2.32.38,3.47.6s2.25.46,3.36.77a59.79,59.79,0,0,1,6.74,2.36l-.18-.08c1.11.47,2.22,1,3.31,1.49s2.32,1.19,3.49,1.77c2.21,1.12,4.43,2.21,6.62,3.36s4.32,2.27,6.53,3.31,4.46,2.12,6.68,3.2c4,1.94,7.8,4.17,11.83,6l0,0a1.31,1.31,0,0,0,.37.15q.67.3,1.35.57c1.11.44,2.25.83,3.39,1.18s2.39.7,3.59,1a54,54,0,0,0,7.77,1.27c2.58.23,5.16.4,7.74.38,1.26,0,2.52-.1,3.77-.19s2.7-.25,4-.44a31.93,31.93,0,0,0,3.62-.65,33.87,33.87,0,0,0,3.54-1.13,56.46,56.46,0,0,0,7-3.26c1.06-.59,2.11-1.19,3.18-1.76s2.18-1.14,3.27-1.73,2.07-1.14,3.12-1.69,2.09-1,3.16-1.51l-.07,0a19,19,0,0,1,4.53-1.4h0a1,1,0,0,1,.38,0s0,0,0,0a4.81,4.81,0,0,0-1-.07c-.31,0-.61,0-.92.05-.57.06-1.15.15-1.71.26a31.63,31.63,0,0,0-3.5.94c-2.34.78-4.59,1.76-6.87,2.68-1.3.52-2.59,1.06-3.86,1.64s-2.33,1.06-3.5,1.57l-.84.35.32-.14a44.57,44.57,0,0,1-4.67,1.65c-.81.23-1.63.46-2.46.62s-1.6.29-2.41.41a67.47,67.47,0,0,1-7.24.57c-2.57.05-5.13,0-7.69-.23-1-.07-1.93-.18-2.9-.3s-2.11-.32-3.15-.54-2.15-.47-3.22-.74a48.67,48.67,0,0,1-6.22-2.05l.37.16-.39-.17-.3-.12-.06,0,0,0-.13-.06h0l0,0-.91-.41q-1.73-.79-3.45-1.65c-2.2-1.1-4.36-2.27-6.58-3.34l-3.27-1.58c-1.13-.55-2.25-1.11-3.38-1.64s-2.19-1.05-3.28-1.59S791,327,790,326.46c-2.32-1.14-4.71-2.12-7.11-3.07q-1.79-.7-3.57-1.38c-1.16-.45-2.33-.84-3.52-1.21a67.61,67.61,0,0,0-7.29-1.84,29.2,29.2,0,0,0-3.61-.46l-1.81-.11c-.61,0-1.22-.09-1.83-.11l-1.38-.06h0s0,0,0,0Zm54.83,20.3.28.12-.37-.16.09,0Zm57-5.25,0,0,0,0ZM761,318.35h0Z" transform="translate(-177.81 -88.67)"/>
    <path class="cls-2" d="M590.07,183.18a14.07,14.07,0,0,0-.59,1.57c-.08.27-.14.54-.21.81s-.06.3-.09.45l-.09.45c0,.12,0,.24-.05.36s-.06.41-.08.62,0,.57,0,.85a10.65,10.65,0,0,0,.06,1.6c0,.36.11.73.18,1.09s.24.94.36,1.41c0,0,0,0,0,0-.06-.36-.12-.72-.17-1.08h0a19.09,19.09,0,0,1-.14-2.62c0-.37,0-.74,0-1.11,0-.12,0-.24,0-.36s0-.45.05-.67.07-.62.11-.93l.12-.7c0-.21.09-.41.13-.61a8,8,0,0,1,.36-1.08h0l0,0v0Zm-.6,2.41h0Zm-.1,5.73v0Z" transform="translate(-177.81 -88.67)"/>
    <path class="cls-2" d="M417.05,459.86l.15.18h0c.65.86,1.23,1.77,1.81,2.67s1.27,1.89,1.86,2.86a50.51,50.51,0,0,1,3.13,6c.4,1,.78,2,1.1,3a24.78,24.78,0,0,1,.73,3.29c.13,1.1.23,2.19.26,3.29s0,2.36,0,3.54c0,2.37-.18,4.73-.43,7.08l-.12,1a36.69,36.69,0,0,1-1,5.09c-.26.91-.53,1.82-.85,2.71s-.58,1.58-.9,2.35a49.66,49.66,0,0,1-2.71,5.41c-1,1.69-2.08,3.34-3.26,4.93a33.57,33.57,0,0,1-4.94,5c-.7.53-1.4,1-2.14,1.54s-1.55,1-2.35,1.51a44.08,44.08,0,0,1-5.28,2.75h0l-.93.37s0,0,0,0c.8-.19,1.61-.36,2.39-.58l1.86-.56c1.12-.36,2.24-.79,3.32-1.26a37.26,37.26,0,0,0,6.36-3.31,29.62,29.62,0,0,0,3-2.37,21.37,21.37,0,0,0,2.36-2.58,39.91,39.91,0,0,0,3.95-6.09,36.27,36.27,0,0,0,1.68-3.57c.45-1.15.84-2.32,1.2-3.5s.65-2.32.91-3.5.43-2.53.59-3.8a55.29,55.29,0,0,0-.12-14.31c-.68-4.85-3.22-9.18-6.19-13-.84-1.07-1.74-2.08-2.67-3.07s-1.86-2-2.75-3.11h0s0,0,0,0Z" transform="translate(-177.81 -88.67)"/>
    <path class="cls-2" d="M334.6,481.5c-.09.21-.15.43-.22.65s-.17.52-.24.79a11.48,11.48,0,0,0-.33,1.63,13.75,13.75,0,0,0,.06,3.51,23.36,23.36,0,0,0,.77,3.53,20.68,20.68,0,0,0,1.41,3.32,41.8,41.8,0,0,0,4.09,6.06c1.48,1.9,3.05,3.75,4.65,5.55a138.43,138.43,0,0,0,9.92,9.91,52.71,52.71,0,0,0,5.59,4.64,27.76,27.76,0,0,0,3.13,1.9,34.94,34.94,0,0,0,3.38,1.48c.8.3,1.62.52,2.44.75.22.06.44.09.67.13s.37.09.56.12c.64.09,1.28.2,1.92.28h0l.41,0s0,0,0,0c-.77-.22-1.51-.48-2.25-.76a26.42,26.42,0,0,1-3.1-1.56c-1.05-.64-2.06-1.32-3.05-2s-1.81-1.48-2.69-2.27-1.64-1.58-2.42-2.4c-1.65-1.72-3.24-3.49-4.88-5.22-.8-.85-1.6-1.7-2.41-2.54s-1.6-1.59-2.41-2.38c-1.72-1.66-3.43-3.33-5.09-5.05-2.09-2.15-4.13-4.34-6-6.68a24.5,24.5,0,0,1-1.6-2.32,24.09,24.09,0,0,1-1.36-2.62c-.28-.7-.53-1.4-.76-2.11a13.19,13.19,0,0,1-.46-2.05,11.65,11.65,0,0,1-.11-1.45,13,13,0,0,1,.11-1.52h0a6.45,6.45,0,0,1,.3-1.3h0v0Zm-.28,1.31h0Z" transform="translate(-177.81 -88.67)"/>
    <path class="cls-2" d="M350,480c.47.56,1,1.1,1.48,1.64s1.05,1.16,1.58,1.74l1.71,1.92c.51.58,1,1.17,1.5,1.79l-.12-.16.76,1-.13-.16c.63.85,1.24,1.72,1.84,2.6s1.13,1.83,1.67,2.75a57.74,57.74,0,0,1,2.93,5.83l0,.07c.24.59.48,1.18.71,1.77s.47,1.29.7,1.94.39,1.27.56,1.9.26,1.26.37,1.89.1,1.12.13,1.69a20.42,20.42,0,0,1,0,2.07h0c.15-.67.33-1.33.45-2a7.67,7.67,0,0,0,.15-.81c0-.32.08-.65.11-1s0-.56,0-.83a7.06,7.06,0,0,0,0-.8,13.81,13.81,0,0,0-.15-1.59,28.84,28.84,0,0,0-1.64-6.19,31.89,31.89,0,0,0-1.41-3.17,25.91,25.91,0,0,0-1.65-2.84c-.66-.94-1.36-1.85-2.09-2.74a26.57,26.57,0,0,0-2.19-2.31c-.47-.46-1-.87-1.48-1.29s-1-.77-1.46-1.15l0,0c-.83-.65-1.68-1.26-2.52-1.91l0,0A14.06,14.06,0,0,1,350,480h0s0,0,0,0Zm15.6,26.53v0s0,0,0,0Zm-11.2-23-.07-.05.07.05Z" transform="translate(-177.81 -88.67)"/>
    <path class="cls-2" d="M405.26,455.62c-1.14.07-2.27.21-3.41.37-1.44.2-2.87.46-4.3.74s-2.94.57-4.4.89-2.88.68-4.29,1.1-2.88.94-4.3,1.48c-2.83,1.08-5.63,2.24-8.51,3.19s-5.91,1.89-8.87,2.8c-1.29.4-2.57.79-3.85,1.22s-2.7,1-4,1.52-2.82,1.23-4.22,1.85-2.57,1.11-3.85,1.65a59.94,59.94,0,0,1-8.33,2.9c-3,.77-6.1,1.37-9.17,1.95s-6.19,1.11-9.28,1.73-5.95,1.2-8.91,1.87-6.13,1.36-9.22,1.93-6.08,1.08-9.12,1.62l-1.48.27s0,0,0,0c1.9,0,3.8,0,5.69,0,1.53,0,3,0,4.58,0,3-.08,6.06-.37,9.06-.72,3.32-.38,6.62-.8,9.92-1.28,3.08-.44,6.14-1,9.2-1.53s6-1,9-1.7c1.54-.35,3.06-.82,4.56-1.3s2.83-1,4.23-1.53c3-1.18,5.87-2.54,8.81-3.82,2.72-1.13,5.5-2.13,8.29-3.11s5.78-1.81,8.64-2.76,5.66-2.11,8.51-3.08a72.12,72.12,0,0,1,8.66-2.4q3.78-.8,7.61-1.37a31.65,31.65,0,0,1,3.9-.24,34.81,34.81,0,0,1,3.68.25c1.25.19,2.47.45,3.7.75a30.82,30.82,0,0,1,3.84,1.27,28.42,28.42,0,0,1,3,1.51,31.4,31.4,0,0,1,2.8,1.91c.79.63,1.57,1.27,2.33,1.94s1.59,1.48,2.35,2.25a57.28,57.28,0,0,1,4.16,4.77,35.17,35.17,0,0,1,2.33,3.48,38.31,38.31,0,0,1,1.86,3.81,49.08,49.08,0,0,1,2.52,10.06l-.06-.48c.21,1.55.37,3.1.44,4.67s.07,3,0,4.53c-.1,3-.26,6.07-.58,9.09-.08.84-.18,1.68-.28,2.51-.2,1.48-.46,2.95-.76,4.42s-.71,3-1.1,4.41a71.67,71.67,0,0,1-3,8.66l-.18.44c-1.2,2.78-2.46,5.54-3.82,8.24s-2.82,5.45-4.28,8.14c-1.32,2.43-2.77,4.79-4.32,7.09s-3.23,4.49-4.92,6.68-3.63,4.58-5.55,6.79-4.13,4.57-6.28,6.79-4.37,4.5-6.59,6.72-4.63,4.4-7,6.52q-3.16,2.82-6.5,5.47l.2-.16c-1.77,1.36-3.58,2.67-5.45,3.88-.93.59-1.85,1.19-2.8,1.74s-2,1.06-3,1.52h0a14,14,0,0,1-3.09.94h0a6.84,6.84,0,0,1-.91.06H369a0,0,0,1,0,0,0,.75.75,0,0,0,.24,0h.46c.3,0,.6,0,.9-.07h0a28.39,28.39,0,0,0,8.63-3,68.6,68.6,0,0,0,7.95-4.63c1.36-.9,2.64-1.9,3.93-2.89s2.44-2,3.63-3c2.34-2,4.6-4.11,6.81-6.27,4.42-4.3,8.9-8.59,12.89-13.31,2.07-2.46,4.1-4.95,6-7.54.91-1.24,1.81-2.49,2.68-3.76s1.7-2.47,2.47-3.76c1.59-2.63,3-5.36,4.44-8.06s2.91-5.39,4.31-8.12,2.7-5.82,3.93-8.79A56.63,56.63,0,0,0,441,518.7q.53-2.26.87-4.56c.24-1.6.4-3.22.54-4.83.26-3.05.46-6.11.54-9.17a57.85,57.85,0,0,0-.62-9.66,43.28,43.28,0,0,0-2.07-8.92,45.32,45.32,0,0,0-2-4.65c-.35-.66-.69-1.34-1.1-2s-.86-1.31-1.31-1.95a58.56,58.56,0,0,0-6.11-7.23,38.74,38.74,0,0,0-7.49-5.95,29.64,29.64,0,0,0-8.69-3.39,34.8,34.8,0,0,0-5.67-.75c-.64,0-1.27-.06-1.91-.06Zm28.09,74.52-.16.39.16-.39ZM370.6,600.5h0ZM401.81,456h0l.17,0-.21,0Zm.21,0,.35,0-.35,0Z" transform="translate(-177.81 -88.67)"/>
    <path class="cls-2" d="M382.57,596.15c-.5.26-1,.49-1.51.71l0,0c-2.21.87-4.53,1.39-6.81,2s-4.81,1.44-7.2,2.19c-4.62,1.48-9.21,3.08-13.69,4.94-4.74,2-9.34,4.24-13.94,6.48-4.43,2.15-8.87,4.3-13.23,6.59a110.92,110.92,0,0,0-12.75,7.73c-1.85,1.31-3.67,2.65-5.46,4.05-.83.65-1.66,1.3-2.47,2s-1.71,1.44-2.59,2.12h0c-.22.17-.46.32-.67.5,0,0,0,0,0,0,.93-.64,1.89-1.23,2.85-1.84s2.12-1.32,3.19-2c2.13-1.27,4.29-2.49,6.47-3.68s4.52-2.42,6.81-3.57,4.34-2.12,6.52-3.15L335,618c2.27-1.06,4.54-2.12,6.79-3.21s4.5-2.18,6.78-3.21,4.43-2,6.65-2.92l1.06-.45,1.45-.61-.38.16.23-.1-.14.06c4.61-1.89,9.22-3.77,13.79-5.77,1.88-.83,3.76-1.66,5.63-2.51.9-.41,1.8-.81,2.67-1.27.45-.24.9-.49,1.33-.77.6-.39,1.16-.83,1.74-1.26,0,0,0,0,0,0Zm-24.78,11.44-.1,0,.1,0Z" transform="translate(-177.81 -88.67)"/>
    <path class="cls-2" d="M275.87,650.94c-2.28.23-4.57.5-6.82.94-1.12.23-2.24.47-3.35.73s-2.21.59-3.31.91-2,.63-2.95,1-1.95.7-2.91,1.08c-1.17.47-2.33,1-3.49,1.46l-.74.33a21,21,0,0,1-5.24,2.59l-1.44.78c-.72.4-1.43.83-2.14,1.26l-1,.59-.57.36a4.17,4.17,0,0,0-.56.37v0h0l.05-.05c.22-.11.43-.25.64-.38l.68-.37c.53-.26,1.06-.5,1.61-.73l.07,0c1.91-.78,3.86-1.46,5.82-2.1,2.18-.72,4.36-1.4,6.57-2,1-.28,2-.54,2.95-.78s2.09-.53,3.14-.75l3.47-.71c1.09-.21,2.18-.38,3.26-.55l1.58-.23c1.1-.14,2.2-.26,3.3-.38s2.15-.19,3.23-.26c2.14-.16,4.28-.22,6.43-.26s4.3,0,6.45.07,4.4.18,6.6.32c1.22.07,2.45.18,3.68.29s2.32.24,3.48.38c2.1.3,4.18.64,6.27,1,1,.17,2,.35,3,.55,1.17.23,2.32.48,3.48.72s2.13.5,3.18.76,1.95.49,2.92.75c2.13.57,4.26,1.14,6.4,1.66,1.59.39,3.18.77,4.79,1.09.82.16,1.64.34,2.47.48l4.22.72s0,0,0,0c-4.6-1.45-9.12-3.11-13.62-4.82-2.07-.78-4.13-1.57-6.23-2.28-1.11-.38-2.23-.73-3.35-1.08s-2.14-.59-3.22-.85c-2-.49-4.06-.89-6.11-1.22-2.38-.37-4.76-.7-7.16-1-4.23-.46-8.5-.71-12.76-.79l-2.77,0a99.93,99.93,0,0,0-10.09.47Zm-4.32,3.65-.3,0,.3,0Zm-27.12,7.2h0Zm0,0h0Z" transform="translate(-177.81 -88.67)"/>
    <path class="cls-2" d="M326.14,621.47l-3.17,1.3c-.94.39-1.9.77-2.85,1.17-2,.83-4,1.63-5.95,2.57a55,55,0,0,0-5.37,3c-.93.57-1.83,1.18-2.7,1.82s-1.76,1.37-2.62,2.08-1.63,1.37-2.42,2.08a29.6,29.6,0,0,0-2.2,2.28c-1.41,1.57-2.76,3.19-4.12,4.81-1.11,1.32-2.19,2.67-3.18,4.09a24.31,24.31,0,0,0-2.48,4.32h0a6.44,6.44,0,0,0-.25.66,0,0,0,0,0,0,0,2.09,2.09,0,0,1,.08-.23h0a11.31,11.31,0,0,1,1.36-2.17h0a50.79,50.79,0,0,1,4.29-4.63c1.5-1.48,3.06-2.91,4.61-4.36,1-.93,2-1.86,3-2.74s2.2-1.85,3.32-2.74l-.05,0,.41-.32-.1.08c1.67-1.27,3.37-2.49,5.09-3.69s3.43-2.25,5.2-3.28,3.29-1.87,4.88-2.9c.79-.51,1.59-1,2.39-1.48s1.83-1.17,2.77-1.73c0,0,0,0,0,0Zm-35.83,27.77Z" transform="translate(-177.81 -88.67)"/>
    <path class="cls-2" d="M395.81,594.69a59.2,59.2,0,0,0-6.24.38q-1.72.21-3.42.57c-1,.21-2,.45-3,.7s-2.16.55-3.23.85-2,.54-3,.81-2.19.6-3.26,1-2,.74-3,1.16-2,1-3,1.46-1.88,1-2.81,1.53-2.12,1.23-3.15,1.89c0,0,0,0,0,0a16.65,16.65,0,0,1,2.13-1h0c1-.42,2-.82,3-1.21s2-.76,3-1.11a60.72,60.72,0,0,1,6.24-1.75c2.12-.48,4.21-1,6.32-1.52l3-.69,3.19-.74c1.64-.39,3.3-.65,5-.92s3.19-.5,4.78-.73c1.34-.18,2.7-.28,4-.37a0,0,0,1,0,0,0c-1.17-.09-2.33-.2-3.51-.25l-1.34,0c-.59,0-1.19,0-1.78,0Zm-32,9.32h0Z" transform="translate(-177.81 -88.67)"/>
    <path class="cls-2" d="M431,541.11a9.65,9.65,0,0,1,.19,1h0c.18,1.36.27,2.74.39,4.11s.24,2.79.4,4.17c.35,2.87.77,5.73,1.17,8.6s.64,5.69,1,8.53c.21,1.63.43,3.26.7,4.88.23,1.47.52,2.93.76,4.4.14.84.27,1.67.39,2.51.16,1.4.3,2.8.38,4.2.09,1.55.19,3.09.33,4.64.28,3.08.87,6.13,1.34,9.19.6,3.89,1.38,7.75,1.93,11.64a69.13,69.13,0,0,1,.48,8.63c0,1.47-.08,2.92-.14,4.39s-.09,2.74-.13,4.1c0,1,0,2-.07,3s-.13,1.78-.24,2.66a70,70,0,0,1-1.8,8.61c-.8,2.85-1.71,5.66-2.62,8.47s-1.82,5.57-2.7,8.36c-.43,1.37-.84,2.74-1.22,4.12s-.75,2.88-1.09,4.34c-.59,2.57-1.47,5.06-2.15,7.61-.34,1.3-.65,2.6-.91,3.91s-.52,2.68-.87,4a0,0,0,0,0,0,0c.26-.59.54-1.17.79-1.76s.43-1.09.64-1.63c.47-1.25.94-2.49,1.44-3.73s1.19-2.61,1.78-3.91,1.13-2.55,1.71-3.82c1.25-2.76,2.35-5.58,3.44-8.41s2.17-5.42,3.14-8.17,1.83-5.68,2.61-8.55q.59-2.1,1.14-4.2a36.18,36.18,0,0,0,1-4.24c.24-1.64.41-3.28.49-4.93.06-1.37.09-2.75.12-4.12s.11-2.82.14-4.23,0-2.93-.14-4.39-.23-3-.41-4.55-.43-3.2-.71-4.79c-.36-2.11-.81-4.22-1.19-6.34s-.79-4.3-1.1-6.47c-.18-1.33-.35-2.67-.48-4-.15-1.55-.25-3.09-.36-4.64-.23-3-.57-6.06-1.07-9.06s-1-5.89-1.59-8.83c-.29-1.43-.6-2.86-1-4.27s-.81-2.91-1.23-4.35-.79-2.76-1.18-4.14-.86-2.94-1.27-4.42-.72-2.77-1.1-4.15-.78-2.7-1.16-4h0s0,0,0,0Zm5,38.31c0,.14,0,.27.05.4,0-.13,0-.26-.05-.4Zm3.86,52.52v0Zm-10.47,42.22v0Zm1.77-132h0Z" transform="translate(-177.81 -88.67)"/>
    <path class="cls-2" d="M255.55,478.59a13.9,13.9,0,0,0-1.83.26c-1.05.2-2.08.52-3.1.81s-1.92.5-2.9.7c-1.15.23-2.32.45-3.48.66s-2.22.41-3.33.57c-.79.09-1.57.16-2.37.19a14,14,0,0,1-2.24-.1,26.63,26.63,0,0,0-3-.47,5.62,5.62,0,0,0-2.43.36,4.67,4.67,0,0,0-1.26.81,4.87,4.87,0,0,0-.61.68c-.07.08-.18.19-.18.3h0s0,0,0,0v0l.09-.13h0a3.39,3.39,0,0,1,.66-.65h0a4.59,4.59,0,0,1,.83-.48,5,5,0,0,1,1-.26h0a5.6,5.6,0,0,1,1.53,0,13.23,13.23,0,0,1,1.5.39c.51.17,1,.35,1.53.5a12.9,12.9,0,0,0,3.09.46,38.65,38.65,0,0,0,6.45-.36,46.5,46.5,0,0,0,4.85-.89c1.47-.34,2.92-.73,4.42-1,.34,0,.67-.05,1-.06a6.49,6.49,0,0,1,.88,0c.47.09.92.19,1.38.32a12.12,12.12,0,0,1,1.15.41c.81.37,1.58.8,2.37,1.22s1.61.83,2.39,1.3c1.62,1,3.17,2,4.69,3.14s2.85,2.37,4.2,3.64c.71.68,1.41,1.36,2.07,2.08s1.36,1.54,2,2.34,1.21,1.62,1.78,2.45,1.17,1.77,1.72,2.68a60.72,60.72,0,0,1,3,5.75c.24.5.46,1,.68,1.52.37.94.74,1.88,1.05,2.83s.68,2.13,1,3.2q.9,3.17,1.62,6.36.48,2.1.9,4.2c.25,1.25.44,2.51.63,3.77.08.57.15,1.13.23,1.7.23,2.12.44,4.24.59,6.37s.31,4.52.49,6.78.35,4.24.56,6.36.43,4.32.51,6.49c.08,1.91.15,3.83.18,5.75,0,0,0,0,0,0,0-.35.09-.7.14-1.06h0c0-.38.1-.76.16-1.14a.06.06,0,0,0,0,0c.15-1.11.28-2.23.38-3.36s.15-2.21.2-3.32c.08-2.16.09-4.33.11-6.49s0-4.36,0-6.54,0-4.19-.14-6.28c-.06-1.2-.15-2.39-.25-3.59s-.27-2.37-.43-3.55c-.29-2.07-.63-4.15-1.07-6.2s-.91-4.28-1.54-6.37-1.35-4.31-2.19-6.41a55.26,55.26,0,0,0-2.78-6c-.29-.54-.59-1.06-.9-1.57s-.56-.9-.84-1.34c-.61-.94-1.27-1.85-1.93-2.76a42.67,42.67,0,0,0-4.21-5.08c-1.53-1.55-3.13-3-4.79-4.41a38.62,38.62,0,0,0-5.52-3.8c-.92-.53-1.89-1-2.86-1.42s-2-.92-3.08-1.35c-.5-.21-1-.41-1.52-.58a9.2,9.2,0,0,0-1.57-.37,6.75,6.75,0,0,0-1.19-.1,4.78,4.78,0,0,0-.53,0Zm-14.48,3h0Zm-10.59.49h0Zm37.92,5.1.18.14-.18-.14Zm8.31,8a2,2,0,0,0,.17.23,2,2,0,0,1-.17-.23Z" transform="translate(-177.81 -88.67)"/>
    <path class="cls-2" d="M327.57,480l-3.45.6c-1,.16-2,.3-3.05.44l-3.31.47h0l-3.35.41-3.5.48c-2.07.27-4.15.55-6.24.7-1.06.07-2.12.11-3.17.13s-2.19,0-3.28-.07c-2.1-.08-4.21-.21-6.32-.28s-4.38-.14-6.57-.19-4.22-.05-6.32-.16-4.26-.28-6.38-.4c-1.23-.07-2.46-.11-3.69-.14s-2.4-.1-3.59-.07c0,0,0,0,0,0a13.66,13.66,0,0,1,1.8.15h0c2.1.28,4.19.64,6.28,1,1,.19,2.06.38,3.09.55s2.27.33,3.4.46c2.13.25,4.27.43,6.4.61s4.32.43,6.48.6l3.16.26c1.07.09,2.15.18,3.22.21a45,45,0,0,0,6.36-.36c1.14-.14,2.28-.3,3.41-.51s2.13-.43,3.19-.66c2-.44,4.06-.85,6.07-1.33l3.2-.77c1-.24,2-.48,3-.76,2.43-.69,4.84-1.46,7.28-2.13,0,0,0,0,0,0l-4.07.72Zm-9.94,1.53h0Zm-50.47.57h0Zm50.59-.59Z" transform="translate(-177.81 -88.67)"/>
    <path class="cls-2" d="M210.94,479.31c-1.6.07-3.19.16-4.78.38h0l-.41.06a4.71,4.71,0,0,0-.52.09s0,0,0,0l.17,0h0a30.57,30.57,0,0,1,5.24,0c1.86.12,3.71.3,5.57.54.91.14,1.82.3,2.72.51a18.37,18.37,0,0,1,2.61.82l.76.34c.36.19.71.38,1.06.59a19.12,19.12,0,0,1,1.69,1.13c.81.66,1.6,1.34,2.37,2.05s1.57,1.5,2.33,2.26,1.44,1.47,2.13,2.23,1.45,1.61,2.13,2.45c.34.41.67.83,1,1.26,1.26,1.69,2.49,3.42,3.71,5.14s2.51,3.58,3.74,5.39a125.6,125.6,0,0,1,6.72,11.05c.74,1.38,1.49,2.77,2.2,4.16s1.27,2.61,1.85,3.94c.81,2,1.59,4,2.36,6a50.29,50.29,0,0,1,1.95,6c.52,2.09.82,4.22,1.15,6.35.16,1.05.33,2.11.55,3.15s.51,2.21.83,3.3c.22.7.47,1.39.72,2.08s.54,1.56.79,2.35a26.74,26.74,0,0,1,.89,4.43c.1,1,.21,2,.25,3s.08,2.31.1,3.47c0,2.1,0,4.19-.07,6.29,0,1.18,0,2.37,0,3.56,0,.59,0,1.19.06,1.77l.09,1.21c0,.56.12,1.11.18,1.66,0,0,0,0,0,0,0-.51,0-1,0-1.54l0-1.11c0-.53.06-1.07.11-1.6.07-1,.18-2,.3-3,.27-2.28.57-4.56.84-6.83s.4-4.24.45-6.37c0-1.07,0-2.12-.07-3.19,0-.6-.13-1.22-.22-1.82s-.19-1.1-.31-1.65a15.36,15.36,0,0,0-.47-1.6c-.16-.48-.33-1-.5-1.43-.36-1-.68-2.05-1-3.08s-.49-2.08-.69-3.13-.35-2.2-.51-3.3-.37-2.15-.59-3.22-.53-2.06-.84-3.07-.7-2-1.07-3-.88-2.18-1.34-3.27c-.83-2-1.72-3.91-2.64-5.84s-2-4-3.13-5.89-2.23-3.76-3.36-5.64-2.24-3.66-3.38-5.47-2.33-3.63-3.54-5.41-2.49-3.55-3.75-5.3a37.77,37.77,0,0,0-4.26-5.1c-.8-.77-1.6-1.51-2.44-2.23s-1.83-1.51-2.78-2.23a18.78,18.78,0,0,0-2.55-1.69,12.37,12.37,0,0,0-1.6-.77l-.8-.31c-.26-.1-.54-.17-.81-.25-.5-.15-1-.25-1.53-.35s-1.06-.18-1.58-.23c-1.12-.12-2.24-.18-3.36-.19h-.84c-1.31,0-2.62.05-3.93.11Zm24.2,14.86.06.08-.06-.08ZM253.2,523.6l.05.11-.05-.11Zm.05.11.09.21-.09-.21Zm-47.08-44Z" transform="translate(-177.81 -88.67)"/>
    <path class="cls-2" d="M256.48,495.36a16.88,16.88,0,0,0,.66,3,12.57,12.57,0,0,0,.45,1.35c.2.53.4,1.05.62,1.57a56,56,0,0,0,3.08,6.09c.54.95,1.1,1.89,1.67,2.83s1.11,1.86,1.66,2.79,1.05,1.92,1.55,2.9.9,1.93,1.32,2.9l0,0c.52,1.27,1.06,2.53,1.55,3.82,0,0,0,0,0,0q-.25-1.29-.48-2.58c-.09-.51-.21-1-.31-1.53s-.26-1-.39-1.5c-.07-.25-.16-.49-.24-.73s-.14-.51-.23-.75c-.21-.54-.41-1.1-.64-1.63s-.43-1-.68-1.48c-.5-1-1-1.91-1.58-2.83s-1.19-1.84-1.81-2.75-1.24-1.79-1.83-2.7-1.16-1.8-1.7-2.73-1.12-2-1.62-3c-.16-.34-.31-.7-.47-1.05a9.75,9.75,0,0,1-.61-2,0,0,0,0,0,0,0s0,0,0,0Zm.62,2h0Zm10.37,21.38,0,.07,0-.07Z" transform="translate(-177.81 -88.67)"/>
    <path class="cls-2" d="M273.14,535.78c-1.15.11-2.29.35-3.43.56-1.43.27-2.88.52-4.32.72h0c-.48.06-1,.11-1.44.13-.18,0-.37,0-.55,0s-.25,0-.37,0-.07,0-.09,0h0s0,0,0,0h.07a1.38,1.38,0,0,0,.2,0h0l.29,0h0c.4.06.81.12,1.22.15s1.06.07,1.59.09c.92,0,1.85,0,2.77,0a49.16,49.16,0,0,1,5.29.24c.53.09,1.05.19,1.58.3l.77.14c-.27.48-.55.94-.82,1.4-.39.7-.77,1.4-1.13,2.11s-.69,1.48-1,2.23c-.18.41-.31.85-.47,1.27-.27.72-.48,1.45-.72,2.18,0,0,0,0,0,0a24.73,24.73,0,0,1,1.82-3.36c.27-.4.53-.82.82-1.2l.88-1.16-.05.07c.68-.84,1.39-1.66,2.09-2.48.27-.32.53-.63.78-.95a1.41,1.41,0,0,0,.26-1.16,1.29,1.29,0,0,0-1.06-.89c-.5-.1-1-.16-1.52-.26a15.46,15.46,0,0,0-1.79-.27c-.22,0-.45,0-.67,0a8.72,8.72,0,0,0-1,.06Zm-7.73,1.27h0Z" transform="translate(-177.81 -88.67)"/>
    <path class="cls-2" d="M266.73,566h0l0,0h0a6.77,6.77,0,0,1,.43.85c.11.22.2.46.3.69v0c.42,1,.77,2,1.13,3,.08.22.15.44.22.65.11.36.23.71.35,1.07s.29,1,.44,1.48l.23.77c0,.16.09.34.13.5.16.63.33,1.26.5,1.89l.09.42.27,1.18c.09.42.2.84.28,1.26s.2,1.11.31,1.67c.05.29.11.57.16.86.12.9.25,1.79.38,2.69v-.07c.06.56.12,1.13.17,1.69s.1.83.13,1.25c.05.7.09,1.39.14,2.09.07,1,.1,2.05.14,3.07a0,0,0,0,0,0,0c0-1,.07-2.1.06-3.15v-2.09c0-.12,0-.23,0-.34,0-.38,0-.75-.07-1.13s0-.7-.05-1.06l0-.4-.24-2.06c-.05-.4-.1-.79-.16-1.18-.12-.7-.23-1.41-.36-2.11-.07-.46-.19-.9-.28-1.35s-.16-.71-.25-1.06a2.62,2.62,0,0,0-.09-.38c-.17-.64-.36-1.28-.54-1.92-.12-.43-.26-.86-.41-1.28s-.31-1-.49-1.43-.42-1.09-.64-1.63c-.09-.23-.19-.45-.29-.67l-.39-.88c-.1-.23-.22-.46-.33-.69l-.33-.65c-.13-.25-.26-.5-.4-.74l-.24-.43a2.26,2.26,0,0,0-.26-.42h0l0,0Z" transform="translate(-177.81 -88.67)"/>
    <path class="cls-2" d="M241.73,551.82c.09.49.18,1,.24,1.48h0c.14,1,.24,2.08.34,3.12s.24,2.19.37,3.28c.29,2.35.61,4.7,1,7,.17,1,.36,2,.59,3,.11.52.22,1,.36,1.57s.38,1.3.57,1.95q.19.63.42,1.26c.18.5.34,1,.54,1.5.43,1.07.86,2.15,1.36,3.19.23.49.46,1,.7,1.47.16.34.36.68.55,1s.4.77.63,1.14l.89,1.43c.48.75,1,1.46,1.55,2.18a3,3,0,0,0,.28.34l.64.77c.5.59,1,1.16,1.57,1.73a0,0,0,1,0,0,0c-.33-.5-.68-1-1-1.53l-.5-.89c-.26-.48-.51-1-.76-1.45s-.49-.95-.71-1.44-.54-1.17-.8-1.75l-1-2.29a1.54,1.54,0,0,0,.08.19c-.35-1-.73-1.9-1-2.87-.2-.6-.4-1.2-.61-1.8s-.32-1.12-.49-1.67c-.31-1-.58-2.06-.87-3.09-.16-.56-.29-1.13-.44-1.69s-.22-.87-.32-1.31c-.53-2.16-1-4.32-1.59-6.47s-1.18-4.25-1.79-6.37c-.29-1-.59-2-.82-3a0,0,0,0,0,0,0s0,0,0,0Z" transform="translate(-177.81 -88.67)"/>
    <path class="cls-2" d="M310.25,629.93c-.76.2-1.53.42-2.29.65-1.52.44-3,.91-4.57,1.33-3.23.88-6.53,1.51-9.81,2.17-2.4.48-4.81,1-7.22,1.42s-4.85.78-7.28,1.12l.28,0a91.13,91.13,0,0,1-9.62.84c-1.59,0-3.18,0-4.76-.12l-2.77-.12a21.88,21.88,0,0,1,0,2.56c2,.06,4.06.1,6.08,0,1.61-.08,3.22-.22,4.82-.37s3.13-.32,4.7-.51c3.27-.39,6.54-.93,9.77-1.62,1.57-.33,3.12-.73,4.67-1.13s3.21-.83,4.81-1.27c1.36-.38,2.73-.77,4.08-1.21s2.46-.84,3.67-1.33l3.73-1.52c.66-.27,1.32-.54,2-.79a8.46,8.46,0,0,1,1.72-.49h0s0,0,0,0a13,13,0,0,0-2,.45Z" transform="translate(-177.81 -88.67)"/>
    <path class="cls-2" d="M282.23,637.39a24,24,0,0,0-3,1.39,30.34,30.34,0,0,0-2.82,1.72,32.7,32.7,0,0,0-5.21,4.55c-.66.71-1.27,1.45-1.87,2.21s-1.21,1.56-1.78,2.37-1.16,1.7-1.7,2.57a23,23,0,0,0-1.41,2.46s0,0,0,0a5.89,5.89,0,0,1,.59-.91h0c.66-.83,1.4-1.61,2.14-2.37s1.58-1.61,2.38-2.41l2.38-2.36,2.3-2.28c1.23-1.18,2.45-2.37,3.74-3.48s2.56-2.16,3.88-3.19h0l.38-.27s0,0,0,0Z" transform="translate(-177.81 -88.67)"/>
    <path class="cls-2" d="M177.82,631.63c1.35.26,2.68.56,4,.82,1.19.22,2.39.44,3.59.63,2.25.36,4.52.59,6.78.86l2.58.32,1.11.14h-.15q3.35.45,6.67,1c2.2.38,4.38.81,6.58,1.18l1.89.29a1.21,1.21,0,0,0,.38.06h0c1.62.23,3.25.43,4.88.62,2.2.26,4.42.49,6.63.69s4.52.42,6.79.6,4.5.25,6.76.34l6.87.32c2.31.1,4.63.1,6.93,0s4.38-.12,6.56-.22l6.81-.28c4.45-.21,8.89-.59,13.33-1,1.13-.1,2.27-.2,3.4-.28l1.72-.12.77-.06c.22,0,.44-.06.66-.07,0,0,0,0,0,0-.21,0-.42,0-.63,0l-.8,0h-5.12c-2.2,0-4.4,0-6.6,0h-3.46l-3.27-.12-6.81-.2c-2.18-.07-4.37-.1-6.56-.17l-3.53-.1-3.4-.15c-2.3-.12-4.59-.25-6.87-.41l-6.76-.46c-2.27-.16-4.53-.36-6.79-.53s-4.43-.31-6.63-.54c-1.26-.13-2.52-.28-3.78-.44l-1.06-.14h0l-1-.13-3.25-.43c-2.23-.28-4.46-.59-6.7-.8s-4.46-.38-6.7-.48-4.55-.17-6.81-.23c-3-.08-6-.31-9-.6h0s0,0,0,0Zm16.8,2.6h0Z" transform="translate(-177.81 -88.67)"/>
  </g>
</svg>
