<svg xmlns="http://www.w3.org/2000/svg" width="616.19" height="640.71" viewBox="0 0 616.19 640.71">
  <defs>
    <style>
      .cls-1 {
        fill: #7f7f7f;
      }

      .cls-2 {
        fill: #404040;
      }
    </style>
  </defs>
  <title>TarpManualFrictionAdjuster</title>
  <g id="Guyline_Below" data-name="Guyline Below">
    <path class="cls-1" d="M542,461.49a1,1,0,0,0,.3.71h0c.45.49.86,1,1.29,1.51s.86,1,1.3,1.46c.82.91,1.67,1.79,2.51,2.67,1.84,1.92,3.69,3.82,5.49,5.76,3.61,3.92,7,8,10.69,11.89,1.83,1.93,3.72,3.81,5.6,5.69l5.79,5.73c1.89,1.88,3.82,3.71,5.75,5.55q1.56,1.47,3.11,3c1,.94,1.89,1.9,2.82,2.87,1.85,1.9,3.63,3.88,5.43,5.83s3.79,4,5.68,6,3.68,4,5.49,6,3.38,3.85,5.08,5.77q2.83,3.21,5.72,6.36c1.75,1.93,3.52,3.82,5.28,5.73,3.69,4,7.35,8.09,11.14,12s7.5,7.62,11.28,11.41,7.55,7.63,11.35,11.42,7.56,7.75,11.31,11.64,7.54,7.84,11.25,11.83c1.84,2,3.67,4,5.52,5.91s3.77,4,5.66,5.93c3.78,4,7.52,8,11.3,11.91,1.79,1.88,3.61,3.72,5.42,5.58s3.84,4,5.76,6q2.69,2.77,5.38,5.54c1.95,2,3.88,4,5.77,6.09s3.53,4,5.29,6,3.59,4.1,5.39,6.14c3.51,4,7.2,7.77,10.87,11.59s7.53,7.72,11.25,11.63c1.87,2,3.71,4,5.55,6l5.44,5.88q4.07,4.37,8.19,8.67c2.79,2.93,5.62,5.82,8.36,8.78a1,1,0,0,0,1.42,0,1,1,0,0,0,0-1.41c-3.76-4.06-7.64-8-11.45-12s-7.45-8-11.15-12c-1.78-1.93-3.56-3.86-5.38-5.76s-3.81-3.95-5.73-5.9c-3.79-3.87-7.52-7.78-11.23-11.71s-7.16-7.92-10.68-11.93c-1.71-2-3.42-3.9-5.18-5.81s-3.66-3.9-5.52-5.81c-3.81-3.89-7.55-7.83-11.35-11.74-1.76-1.82-3.55-3.62-5.3-5.45-2-2.1-4-4.21-6-6.32-3.75-4-7.56-7.89-11.31-11.87-1.79-1.9-3.56-3.82-5.34-5.73q-2.93-3.15-5.9-6.26c-1.82-1.92-3.66-3.81-5.5-5.71s-3.56-3.73-5.36-5.57c-3.82-4-7.72-7.8-11.58-11.7s-7.55-7.59-11.33-11.39-7.38-7.56-11-11.45l-5.59-6.12c-1.86-2-3.74-4-5.6-6.08-3.64-4-7.17-8.08-10.76-12.12s-7.35-7.91-11-11.88c-1.8-2-3.6-3.93-5.45-5.84s-4-3.94-6-5.86c-3.85-3.65-7.6-7.4-11.37-11.14-1.94-1.94-3.87-3.89-5.76-5.88s-3.52-3.88-5.24-5.84q-4-4.51-8.1-8.86c-1.34-1.39-2.68-2.77-4-4.17-.65-.69-1.29-1.4-1.91-2.11-.3-.34-.59-.69-.88-1s-.71-1-1.33-1a1,1,0,0,0-1,1Z" transform="translate(-181.01 -73.52)"/>
    <path class="cls-1" d="M554.53,458.27a1,1,0,0,0,0,1.41c.39.38.76.78,1.14,1.17l1.47,1.49,2.83,2.88c1.85,1.89,3.72,3.76,5.58,5.64s3.79,3.84,5.65,5.79,3.67,3.9,5.47,5.87l5.52,6c1.77,1.92,3.53,3.84,5.34,5.73s3.81,4,5.73,6,3.8,3.85,5.72,5.76,3.61,3.6,5.38,5.44c2,2.05,3.94,4.12,5.9,6.18q5.65,5.94,11.39,11.78c3.72,3.81,7.51,7.54,11.28,11.3,4,4,7.88,8,11.79,12s7.73,7.87,11.52,11.87c1.79,1.89,3.58,3.79,5.38,5.67s3.66,3.78,5.48,5.67S671,580,673,582c1.8,1.89,3.56,3.82,5.31,5.76,3.62,4,7.19,8.07,10.76,12.12,1.81,2.06,3.6,4.13,5.4,6.19S698,610,699.72,612s3.74,4.07,5.62,6.09,3.67,4,5.51,5.93c3.68,4,7.4,7.89,11.11,11.82q3,3.13,5.93,6.23c1.91,2,3.85,3.94,5.79,5.89,3.72,3.73,7.49,7.4,11.23,11.12,3.89,3.88,7.77,7.77,11.58,11.73s7.5,7.94,11.22,12c1.94,2.1,3.89,4.21,5.85,6.3,1.77,1.89,3.58,3.76,5.38,5.63,2.82,2.9,5.64,5.79,8.35,8.78,1.31,1.45,2.59,2.93,3.88,4.4s2.55,2.92,3.75,4.44l.42.56a1.14,1.14,0,0,0,.6.46,1,1,0,0,0,.77-.1,1,1,0,0,0,.36-1.37c-1.76-2.29-3.66-4.46-5.57-6.63-1.74-2-3.48-4-5.29-5.89-3.68-3.88-7.46-7.66-11.11-11.56-3.8-4-7.54-8.14-11.34-12.19s-7.59-8-11.48-12-7.67-7.67-11.53-11.48-7.58-7.49-11.28-11.32c-3.83-4-7.6-8-11.39-12s-7.45-8-11.16-11.95-7.42-8-11-12.09-7.24-8.3-10.89-12.41c-3.46-3.89-6.9-7.8-10.48-11.57-3.8-4-7.66-8-11.49-11.95-1.77-1.83-3.51-3.69-5.25-5.53q-3-3.19-6.1-6.35l-5.43-5.54c-1.95-2-3.9-4-5.86-6-3.89-4-7.84-7.88-11.78-11.8s-7.63-7.7-11.4-11.6-7.55-7.92-11.34-11.85-7.44-7.45-11.12-11.22-7.42-7.72-11-11.67-7.34-8-11.08-12c-2.74-2.88-5.55-5.69-8.35-8.51-1.46-1.47-2.91-3-4.37-4.45-.66-.67-1.33-1.33-2-2s-1.32-1.37-2-2a1,1,0,0,0-.71-.29.94.94,0,0,0-.7.29Zm240.39,254,.15.19-.15-.19Z" transform="translate(-181.01 -73.52)"/>
    <path class="cls-1" d="M525.63,460.78a1,1,0,0,0-1,1,1.08,1.08,0,0,0,.49.87c.94.82,1.81,1.7,2.68,2.58s1.86,1.92,2.77,2.9c1.77,1.88,3.45,3.83,5.15,5.76s3.4,3.75,5.1,5.62,3.56,4,5.32,6c7.05,7.92,14.35,15.6,21.49,23.44,3.65,4,7.3,8,11,11.94,1.88,2,3.76,4,5.69,5.94s3.65,3.6,5.48,5.39c3.84,3.78,7.66,7.59,11.49,11.38l11,10.88c3.72,3.7,7.42,7.41,11.05,11.21s7.22,7.65,10.89,11.42,7.55,7.58,11.25,11.44,7.65,7.92,11.47,11.89c1.87,2,3.75,3.9,5.64,5.83s3.58,3.63,5.36,5.46,3.85,4,5.75,6,3.51,3.72,5.27,5.57,3.83,4,5.77,6,3.69,3.71,5.52,5.57c3.82,3.87,7.63,7.75,11.4,11.68s7.28,7.6,10.82,11.49c3.69,4.05,7.35,8.11,11,12.15s7.34,8.12,11.11,12.09,7.43,7.66,11.16,11.47c2.73,2.81,5.53,5.55,8.31,8.32,1.43,1.41,2.85,2.84,4.27,4.26,1.59,1.59,3.19,3.17,4.76,4.78a1,1,0,1,0,1.42-1.41c-2-2.08-4.11-4.13-6.17-6.19-1.86-1.87-3.74-3.73-5.62-5.59-3.8-3.75-7.52-7.58-11.26-11.39s-7.4-7.68-11-11.62-7.43-8.15-11.13-12.24l-5.49-6c-1.76-1.94-3.57-3.85-5.37-5.76-3.63-3.84-7.29-7.67-11-11.45s-7.57-7.69-11.37-11.52-7.37-7.67-11-11.52-7.39-7.65-11.12-11.45q-2.84-2.89-5.64-5.82l-5.79-6c-1.9-2-3.78-3.93-5.67-5.9s-3.72-3.79-5.59-5.68-3.79-3.82-5.67-5.75-3.56-3.72-5.33-5.59c-3.6-3.79-7.18-7.59-10.86-11.3s-7.53-7.51-11.3-11.24L597,536.44c-1.91-1.89-3.82-3.79-5.74-5.67s-3.67-3.58-5.47-5.4c-3.85-3.88-7.56-7.91-11.26-11.93s-7.16-7.86-10.77-11.75-7.25-7.8-10.84-11.75S545.8,482,542.24,478.1c-1.33-1.46-2.66-2.91-4-4.37s-2.59-3-3.9-4.41-2.7-3-4.1-4.44c-.69-.71-1.38-1.41-2.09-2.11-.36-.36-.73-.71-1.1-1.06-.21-.2-.44-.4-.66-.59a1.13,1.13,0,0,0-.73-.34Z" transform="translate(-181.01 -73.52)"/>
    <path class="cls-1" d="M184.26,73.81a1,1,0,0,0,0,1.41c.88.88,1.74,1.76,2.62,2.63s1.78,1.71,2.67,2.56c1.82,1.76,3.53,3.62,5.21,5.51s3.14,3.57,4.64,5.43c1.65,2,3.29,4.1,4.95,6.13s3.1,3.8,4.71,5.64,3.46,3.87,5.23,5.78,3.41,3.61,5.1,5.42,3.59,3.81,5.4,5.7c3.49,3.61,7.09,7.1,10.66,10.63s7.34,7.27,11,10.88c1.88,1.84,3.77,3.68,5.63,5.55s3.52,3.54,5.26,5.31,3.56,3.58,5.31,5.39,3.66,3.83,5.47,5.76c3.48,3.73,6.92,7.49,10.41,11.2s6.75,7.25,10,11c3.43,3.9,6.8,7.85,10.26,11.73,3.31,3.71,6.72,7.34,10.16,10.93q5.37,5.63,10.62,11.34c3.35,3.64,6.71,7.28,10.11,10.87s7,7.39,10.61,11,7,7.19,10.46,10.84,6.93,7.43,10.38,11.16,6.93,7.48,10.37,11.24,6.92,7.64,10.41,11.43,6.9,7.35,10.28,11.1c1.15,1.28,2.29,2.57,3.45,3.84s2.34,2.56,3.53,3.82c2.33,2.48,4.7,4.95,7.09,7.37a1,1,0,0,0,.63.29v0s0,0,0,0a.29.29,0,0,1-.06-.24,3.19,3.19,0,0,1,.19-.62.22.22,0,0,1,.11-.15l0,0a2.56,2.56,0,0,1,.11-.24.29.29,0,0,1,.1-.09h0a0,0,0,0,0,0,0c0-.14.08-.29.13-.44-1.6-1.63-3.18-3.29-4.77-4.94s-3.29-3.49-4.91-5.25-3.39-3.75-5.08-5.63-3.4-3.69-5.11-5.52q-5.1-5.43-10.09-11c-3.46-3.84-7-7.64-10.47-11.44s-7-7.53-10.46-11.3-6.89-7.32-10.39-10.93-7.11-7.32-10.64-11-7-7.37-10.48-11.1-6.88-7.47-10.35-11.18q-2.46-2.61-4.94-5.2-2.78-2.9-5.51-5.84c-3.42-3.7-6.74-7.49-10-11.3s-6.63-7.61-10.06-11.33-6.85-7.3-10.25-11-7-7.58-10.6-11.26c-1.73-1.77-3.47-3.52-5.21-5.29s-3.6-3.66-5.43-5.47c-3.77-3.73-7.59-7.42-11.36-11.16-1.77-1.74-3.52-3.5-5.28-5.24l-5.47-5.4q-2.81-2.81-5.55-5.65c-1.67-1.73-3.31-3.49-5-5.25-1.82-1.94-3.66-3.88-5.48-5.83s-3.34-3.66-5-5.55-3.27-3.92-4.89-5.89-3.07-3.86-4.64-5.76c-1.13-1.38-2.3-2.73-3.48-4.06s-2.32-2.64-3.54-3.9-2.55-2.55-3.86-3.8-2.41-2.38-3.61-3.58a1,1,0,0,0-.71-.29,1,1,0,0,0-.71.29Z" transform="translate(-181.01 -73.52)"/>
    <path class="cls-1" d="M181.51,90.25a1,1,0,0,0-.36,1.37c1.53,2,3.21,4,4.87,5.93s3.25,3.81,4.87,5.7c3.2,3.74,6.51,7.39,9.83,11s6.87,7.45,10.36,11.14,6.77,7,10.15,10.57,7.06,7.31,10.55,11,6.72,7.23,10.08,10.84c3.54,3.82,7.14,7.6,10.73,11.38,3.39,3.56,6.83,7.09,10.23,10.65,6.92,7.23,13.84,14.46,20.62,21.81q5,5.46,10,11c3.42,3.78,6.87,7.54,10.28,11.33s6.67,7.52,10,11.24c1.61,1.77,3.24,3.52,4.86,5.28s3.31,3.61,5,5.41q5.17,5.6,10.6,11c1.79,1.77,3.59,3.53,5.36,5.31s3.52,3.57,5.27,5.37c3.5,3.6,7,7.22,10.39,10.9,1.71,1.85,3.4,3.71,5.12,5.55s3.4,3.61,5.1,5.42c3.4,3.59,6.77,7.22,10.13,10.84,1.71,1.85,3.44,3.66,5.17,5.48s3.32,3.53,5,5.31c2.35,2.53,4.65,5.12,7.07,7.59,1.14,1.17,2.32,2.31,3.53,3.4s2.64,2.25,3.93,3.42a1,1,0,0,0,1.41,0,1,1,0,0,0,0-1.42c-1-.87-2-1.71-3-2.56s-1.8-1.6-2.67-2.43c-1.72-1.64-3.34-3.37-5-5.11s-3.37-3.68-5.07-5.51-3.36-3.58-5-5.35c-3.45-3.63-6.82-7.34-10.25-11s-6.82-7.19-10.18-10.82c-1.72-1.86-3.42-3.73-5.14-5.58s-3.44-3.64-5.18-5.44c-3.46-3.6-6.93-7.2-10.47-10.72s-7.1-7-10.53-10.58-7-7.55-10.52-11.34q-5-5.39-9.83-10.85c-3.28-3.7-6.61-7.38-9.94-11-3.47-3.82-6.92-7.65-10.4-11.47s-6.79-7.37-10.23-11q-10.24-10.89-20.65-21.64c-3.38-3.49-6.72-7-10.06-10.56-3.53-3.75-7-7.55-10.53-11.33s-6.94-7.38-10.46-11-6.86-7.13-10.29-10.69-6.85-7.19-10.23-10.83c-1.74-1.88-3.46-3.77-5.18-5.65s-3.2-3.5-4.77-5.27c-2.13-2.41-4.22-4.84-6.3-7.28s-4.36-5-6.43-7.66l0,0-.55-.73a1.06,1.06,0,0,0-.6-.46.84.84,0,0,0-.27,0,1,1,0,0,0-.5.14Z" transform="translate(-181.01 -73.52)"/>
    <path class="cls-1" d="M399.67,323.11a1,1,0,0,0-.59.46,1,1,0,0,0-.11.77,1.15,1.15,0,0,0,.46.6c.13.09.28.15.41.24l.49.36c.53.43,1,.88,1.55,1.33l.69.62h0a.37.37,0,0,1,.05-.11.94.94,0,0,1,0-.16,1.43,1.43,0,0,0,0-.22l0-.33a1.22,1.22,0,0,1,0-.27.64.64,0,0,1,.05-.24.32.32,0,0,1,.1-.1.15.15,0,0,1,.11,0h.08a.29.29,0,0,1,.15.12h0a1,1,0,0,1,0-.17s0-.05,0-.07a.42.42,0,0,1-.06-.14.27.27,0,0,1,.09-.37h0l-.42-.38c-.37-.33-.75-.65-1.14-.95l-.72-.54-.26-.17a2.14,2.14,0,0,1-.22-.13.93.93,0,0,0-.5-.13,1.2,1.2,0,0,0-.28,0Z" transform="translate(-181.01 -73.52)"/>
  </g>
  <g id="Hardware">
    <path class="cls-2" d="M453.26,312.06l-.15,0a1,1,0,0,0,.53,1.93h0a6.11,6.11,0,0,1,1.21,0,21,21,0,0,1,2.23.47,23.28,23.28,0,0,1,2.31.79,11.54,11.54,0,0,1,1.27.63,9.93,9.93,0,0,1,1.22.81,11.55,11.55,0,0,1,.88.84c.36.38.69.78,1,1.2a1,1,0,0,0,.7.29,1,1,0,0,0,.71-.29,1,1,0,0,0,.29-.71,1.1,1.1,0,0,0-.29-.71,14.3,14.3,0,0,0-1.14-1.33l-.55-.52c-.27-.24-.54-.45-.83-.67a11.51,11.51,0,0,0-2.88-1.52,18.89,18.89,0,0,0-3-.95c-.6-.13-1.2-.25-1.81-.32l-.77-.06h-.11a5.82,5.82,0,0,0-.85.09Zm.52,1.93h0Z" transform="translate(-181.01 -73.52)"/>
    <path class="cls-2" d="M479.79,370.27a10.62,10.62,0,0,1-.45,1.42c-.2.56-.41,1.12-.62,1.69-.38,1-.79,2-1.21,3h0c-.63,1.4-1.29,2.78-2,4.12a21.28,21.28,0,0,1-1.1,1.84c-.21.32-.42.65-.64,1l-.68.93c-.43.53-.86,1.05-1.3,1.56-.62.7-1.26,1.38-1.91,2.06a1,1,0,0,0,1.42,1.41c.88-.93,1.78-1.85,2.58-2.85.4-.49.8-1,1.18-1.5s.66-.94,1-1.42a37.09,37.09,0,0,0,3-5.59c.54-1.21,1-2.43,1.5-3.67.23-.6.45-1.19.67-1.8a13.22,13.22,0,0,0,.53-1.65,1,1,0,0,0-.7-1.23,1.15,1.15,0,0,0-.26,0,1,1,0,0,0-1,.73Z" transform="translate(-181.01 -73.52)"/>
    <path class="cls-2" d="M488.42,379.78c-.24.15-.48.3-.71.46-.44.3-.86.62-1.27.94-.92.7-1.8,1.44-2.66,2.22a37.44,37.44,0,0,0-10.51,16.83c-.06.19-.1.38-.16.56a1,1,0,0,0,.7,1.23,1,1,0,0,0,1.23-.7c.22-.78.44-1.56.71-2.33.22-.61.45-1.21.69-1.82l.45-1c.18-.4.39-.79.57-1.18.37-.75.8-1.47,1.23-2.19s.77-1.27,1.2-1.88c.24-.33.46-.67.71-1l.7-.91a37,37,0,0,1,2.83-3.17c.56-.54,1.13-1.07,1.71-1.58s1-.88,1.58-1.31c.34-.26.68-.52,1-.77a8.4,8.4,0,0,1,1.28-.81h.06a1,1,0,0,0,.62-.46,1,1,0,0,0-.35-1.37,1.07,1.07,0,0,0-.51-.13,2.37,2.37,0,0,0-1.13.4Zm1.16,1.59h0Zm.07,0,0,0,0,0Z" transform="translate(-181.01 -73.52)"/>
    <path class="cls-2" d="M504.52,408.45a21.72,21.72,0,0,0-5.35,3.88,39,39,0,0,0-4.43,5.17,60.1,60.1,0,0,0-3.5,5.17c-1.14,1.88-2.25,3.79-3.2,5.78-.29.61-.56,1.22-.83,1.83a1.09,1.09,0,0,0-.1.77,1,1,0,0,0,.46.6,1,1,0,0,0,.77.1,1,1,0,0,0,.6-.46c.32-.75.66-1.5,1-2.24.22-.46.47-.91.7-1.36.49-1,1-1.88,1.58-2.81,1.1-1.92,2.35-3.76,3.63-5.56.41-.59.84-1.15,1.27-1.71.73-.9,1.44-1.81,2.24-2.64.47-.49.93-1,1.42-1.42s.93-.84,1.41-1.25a19.48,19.48,0,0,1,3.32-2.12,1,1,0,0,0,.36-1.37,1,1,0,0,0-.6-.45.77.77,0,0,0-.25,0,1.21,1.21,0,0,0-.52.13Z" transform="translate(-181.01 -73.52)"/>
    <path class="cls-2" d="M509.49,414.07a6.5,6.5,0,0,0-2,1.13,16.22,16.22,0,0,0-1.3,1c-.85.75-1.67,1.54-2.48,2.35s-1.38,1.49-2,2.27c-.75.94-1.48,1.88-2.18,2.86s-1.3,1.87-1.91,2.82-1.08,1.79-1.59,2.7a27.77,27.77,0,0,0-1.39,2.85c-.26.6-.51,1.2-.74,1.81s-.36,1-.53,1.5-.22.75-.34,1.12a1,1,0,0,0,.7,1.23A1,1,0,0,0,495,437c.22-.73.46-1.46.7-2.18.13-.38.28-.74.43-1.11.37-.88.75-1.76,1.19-2.6.52-1,1.07-2,1.66-2.94a56.54,56.54,0,0,1,3.5-5.08,39.29,39.29,0,0,1,2.73-3.17c.55-.55,1.11-1.09,1.67-1.63s1-.86,1.48-1.26a11.4,11.4,0,0,1,1.57-1l.14,0a1,1,0,0,0-.27-2,.82.82,0,0,0-.26,0Zm.3,2-.07,0,.07,0Z" transform="translate(-181.01 -73.52)"/>
    <path class="cls-2" d="M422.46,328.5q-.94,1-1.86,2c-.36.41-.7.83-1,1.25a.69.69,0,0,0-.11.13l0,0,0,0a1.33,1.33,0,0,0-.14.19l-.18.23-.58.75a.64.64,0,0,0-.1.13h0v0l0,0c-.31.41-.6.84-.9,1.25s-.58.84-.84,1.27-.57.91-.84,1.37c-.58,1-1.13,2.07-1.65,3.14s-.9,2-1.29,3.08a23,23,0,0,0-1,3,12.47,12.47,0,0,0-.45,3.32,1.61,1.61,0,0,0,.16.72,1,1,0,0,0,1.84-.75,6.88,6.88,0,0,1,.05-1.11,22.93,22.93,0,0,1,.76-3.15c.3-1,.69-2,1.08-2.92s.92-2,1.43-3,1.06-1.85,1.61-2.76c.27-.43.56-.86.85-1.26l.56-.79.24-.33a.71.71,0,0,0,.1-.14l.07-.09.64-.83a1,1,0,0,0,.13-.16c.31-.37.61-.75.93-1.11.65-.73,1.31-1.45,2-2.16a1,1,0,0,0,0-1.41,1,1,0,0,0-.72-.29,1,1,0,0,0-.7.29ZM421,333.1l0,0h0l0,0Zm-5.62,9.27a.49.49,0,0,1,0,.11l0-.11Z" transform="translate(-181.01 -73.52)"/>
    <path class="cls-2" d="M419.94,321.59c-1.56,1.72-3.08,3.49-4.47,5.35-.68.92-1.35,1.85-2,2.8s-1.19,1.82-1.75,2.75-1.12,1.91-1.62,2.89c-.25.47-.49.94-.7,1.42-.15.32-.29.63-.42.95a2.29,2.29,0,0,0-.27.85,1,1,0,0,0,1,1,1,1,0,0,0,1-.75v0c.07-.2.16-.39.23-.59l-.09.24a42.13,42.13,0,0,1,2.91-5.47c1.07-1.75,2.23-3.43,3.45-5.07s2.72-3.37,4.17-5a1,1,0,0,0-.73-1.71.89.89,0,0,0-.68.29Z" transform="translate(-181.01 -73.52)"/>
    <path class="cls-2" d="M418.54,298.41a6,6,0,0,0-.42.79,7.87,7.87,0,0,0-.62,2.28c-.06.55-.11,1.09-.15,1.65s0,1,0,1.51,0,1,.09,1.56.14,1.22.24,1.83.22,1.16.35,1.74c.05.19.1.38.16.58s.15.55.24.82c.17.49.33,1,.52,1.48a31.77,31.77,0,0,0,1.44,3.21c.26.48.53,1,.82,1.43s.58.91.89,1.35.68.95,1,1.4.68.88,1.06,1.29l1.27,1.4c.39.43.82.83,1.23,1.25.69.69,1.42,1.35,2.16,2,.42.37.83.74,1.26,1.09l1.52,1.21c.88.7,1.81,1.34,2.73,2s1.73,1.16,2.61,1.71q2.08,1.29,4.22,2.5a1,1,0,0,0,1-1.73c-1.64-.94-3.3-1.89-4.89-2.92-.81-.52-1.61-1.06-2.41-1.6s-1.31-.95-2-1.43-1.47-1.17-2.18-1.78c-.34-.29-.68-.57-1-.88l-1.37-1.26c-.37-.34-.71-.72-1.07-1.08s-.6-.62-.89-.94-.65-.69-.95-1.06l-1-1.25-.93-1.27c-.32-.44-.58-.93-.88-1.4s-.51-.93-.76-1.4-.41-.86-.61-1.29a29.82,29.82,0,0,1-1-2.87c-.08-.3-.17-.6-.26-.9s-.12-.56-.19-.84c-.1-.48-.18-1-.26-1.44s-.1-.77-.12-1.15c0-.56-.07-1.11-.08-1.66a17.76,17.76,0,0,1,.14-2.63,7.65,7.65,0,0,1,.42-1.56,4.38,4.38,0,0,1,.37-.67,1,1,0,0,0-.36-1.37,1,1,0,0,0-.49-.14,1.1,1.1,0,0,0-.88.49ZM433,326.8l.1.08-.1-.08Z" transform="translate(-181.01 -73.52)"/>
    <path class="cls-2" d="M469.49,348.6a1,1,0,0,0,0,1.42c.26.24.54.46.82.68s.54.42.81.64l1.72,1.31c.76.6,1.51,1.2,2.24,1.83s1.59,1.44,2.36,2.18a42.79,42.79,0,0,1,4,4.5c2.57,3.38,4.93,6.92,7.43,10.35,1.23,1.68,2.47,3.35,3.65,5.06.65.95,1.28,1.89,1.88,2.86s1.07,1.85,1.56,2.8.89,1.84,1.3,2.76l0-.1.06.15,0,.08,0-.07c.38.91.75,1.82,1.09,2.74s.75,2.11,1.11,3.17c.71,2.09,1.41,4.18,2.14,6.26.36,1,.73,2,1.11,3s.87,2.07,1.37,3.08a29.76,29.76,0,0,0,1.67,2.84c.58.93,1.25,1.81,1.92,2.68s1.37,1.74,2.09,2.58,1.4,1.59,2.14,2.35c1.54,1.57,3.13,3.1,4.81,4.52.86.73,1.74,1.45,2.66,2.1s1.9,1.31,2.89,1.92a62.6,62.6,0,0,0,5.89,3.13l1,.47a1,1,0,0,0,.77.1,1,1,0,0,0,.59-.46,1,1,0,0,0-.35-1.37c-2-.95-4-1.95-6-3.06-.85-.49-1.68-1-2.49-1.55s-1.46-1-2.17-1.56a63.5,63.5,0,0,1-4.77-4.21c-.79-.78-1.56-1.58-2.33-2.39s-1.5-1.7-2.22-2.57c-.26-.31-.51-.63-.77-1-.43-.57-.86-1.15-1.28-1.73s-.83-1.23-1.23-1.86a28.91,28.91,0,0,1-1.94-3.75c-1.63-4-2.89-8.11-4.32-12.17-.73-2.07-1.57-4.1-2.5-6.09a40.64,40.64,0,0,0-3.18-5.55c-1.19-1.77-2.44-3.5-3.7-5.22s-2.57-3.55-3.82-5.34-2.47-3.5-3.75-5.21a43.75,43.75,0,0,0-4.23-5c-1.09-1.1-2.22-2.18-3.41-3.18s-2.39-1.9-3.61-2.83l0,0-.11-.08-.09-.07.06,0-.66-.52c-.28-.22-.57-.45-.84-.7a1,1,0,0,0-.71-.29,1,1,0,0,0-.7.29Zm27.82,36.45h0l0-.05,0,.06Zm-24.88-35.2.08.06-.11-.09,0,0Z" transform="translate(-181.01 -73.52)"/>
    <path class="cls-2" d="M554.61,397.61a1,1,0,0,0,0,1.41,8.39,8.39,0,0,1,.74.84c.3.41.58.82.84,1.25s.43.81.63,1.23a24.74,24.74,0,0,1,.81,2.48c.22.84.39,1.69.53,2.55,0,.4.07.79.09,1.19a9.88,9.88,0,0,1-.06,1.63,8.35,8.35,0,0,1-.28,1.2l-.21.6c-.16.37-.33.73-.51,1.09a9.94,9.94,0,0,1-.71,1.11c-.13.16-.25.32-.39.47a11.21,11.21,0,0,1-1.06,1,8.26,8.26,0,0,1-1.38.8,8.38,8.38,0,0,1-1.63.45,9.72,9.72,0,0,1-2.35,0,14.92,14.92,0,0,1-3-.79l-1.39-.53c-.46-.2-.91-.42-1.36-.63a1,1,0,0,0-1.37.36,1,1,0,0,0,.36,1.37c.6.28,1.2.59,1.82.82l1,.37a18.31,18.31,0,0,0,3.33.94,10.2,10.2,0,0,0,4.66-.22,8.15,8.15,0,0,0,1.94-.9,10,10,0,0,0,.84-.61,5.63,5.63,0,0,0,.72-.65,12.36,12.36,0,0,0,1.17-1.43,12.54,12.54,0,0,0,.83-1.42,11.3,11.3,0,0,0,.67-1.66,10.5,10.5,0,0,0,.42-3.15,9.33,9.33,0,0,0-.11-1.4,15.12,15.12,0,0,0-.26-1.64,20,20,0,0,0-.75-2.86,14.75,14.75,0,0,0-1.27-2.84c-.26-.43-.54-.84-.84-1.24a8.1,8.1,0,0,0-1-1.18,1.09,1.09,0,0,0-.73-.29,1,1,0,0,0-.69.29Zm.8,2.32.05.07a.18.18,0,0,1-.05-.07Zm2.81,10,0,.21,0-.21ZM556.6,414l-.08.11.08-.11Zm-2.79,2.38-.1,0,.1,0Zm-4.13.49.24,0-.24,0Z" transform="translate(-181.01 -73.52)"/>
    <path class="cls-2" d="M522.75,394.14a1.1,1.1,0,0,0-.6.46,2.15,2.15,0,0,0-.2.9c0,.22-.05.45-.06.68a9,9,0,0,0,.11,1.47,19.44,19.44,0,0,0,.61,2.72c.3.94.62,1.86,1,2.77a32.67,32.67,0,0,0,1.48,3,1,1,0,0,0,1.37.36,1,1,0,0,0,.36-1.36c-.3-.55-.61-1.09-.89-1.66s-.4-.87-.59-1.3c-.31-.8-.59-1.6-.84-2.41a17.23,17.23,0,0,1-.56-2.44,9.19,9.19,0,0,1,0-1.74.5.5,0,0,0,0-.12,1,1,0,0,0-.44-1.19.93.93,0,0,0-.5-.13l-.27,0Zm2.52,7.82,0,.08,0-.08Z" transform="translate(-181.01 -73.52)"/>
    <path class="cls-2" d="M442.1,286.79c-1.06,0-2.11.11-3.17.21a51.2,51.2,0,0,0-6.51,1c-1,.22-2,.49-3,.79s-2.09.74-3.11,1.18a28.83,28.83,0,0,0-2.77,1.41c-.91.52-1.82,1-2.71,1.59s-1.68,1.13-2.5,1.72-1.81,1.34-2.66,2.07a27.12,27.12,0,0,0-3.75,3.9c-.3.4-.6.8-.88,1.21l-.6.85c-.6.87-1.19,1.74-1.75,2.63a42.51,42.51,0,0,0-2.88,5.31c-.46,1-.84,2-1.22,3.06s-.72,2-1.07,2.94a53.9,53.9,0,0,0-1.72,6c-.22,1-.42,2-.58,3s-.35,2.27-.43,3.41a27.84,27.84,0,0,0,.43,6.57,27.06,27.06,0,0,0,.74,3.08c.33,1,.74,2,1.16,3,.82,1.9,1.71,3.76,2.61,5.62a40.81,40.81,0,0,0,3,5.19,25.09,25.09,0,0,0,1.93,2.43,1,1,0,0,0,.21.34l.17.14c.33.29.64.62.94.94l1.1,1.14c.7.73,1.4,1.46,2.15,2.14s1.61,1.38,2.4,2.07,1.61,1.39,2.42,2.08,1.49,1.23,2.26,1.82h0l.09.06c.79.62,1.57,1.24,2.4,1.8a24.39,24.39,0,0,0,2.55,1.55,9.57,9.57,0,0,0,3,1.09,6.84,6.84,0,0,0,1.63.08,8.73,8.73,0,0,0,1.69-.34,6.07,6.07,0,0,0,1.53-.76,7,7,0,0,0,1.26-1.17,19.4,19.4,0,0,0,1.92-2.58,62,62,0,0,0,2.78-5.67c.91-1.9,2-3.72,3-5.56s2-3.75,2.9-5.65c.49-1,1-2,1.44-3.05s.85-2,1.24-3,.73-2,1.09-3,.71-1.87,1.06-2.8c.72-1.88,1.4-3.76,1.93-5.69a26.62,26.62,0,0,0,.63-3.05,17,17,0,0,0,.21-3.18,7.75,7.75,0,0,0-.17-1.27,4.48,4.48,0,0,0-.27-.88,1,1,0,0,0,.13-.48.94.94,0,0,0-.3-.7c-.53-.43-1.06-.86-1.62-1.26l-1.51-1.09c-1-.77-1.9-1.57-2.79-2.42a26.26,26.26,0,0,1-2.35-2.6c-.35-.49-.68-1-1-1.49a12.33,12.33,0,0,1-.76-1.44c-.11-.31-.21-.62-.3-.94a8,8,0,0,1-.2-1.07c0,.09,0,.18,0,.26a9,9,0,0,1,0-1.47,6.93,6.93,0,0,1,.35-1.26,8.17,8.17,0,0,1,.57-1,6.67,6.67,0,0,1,.91-.93,7,7,0,0,1,1.16-.66,8.57,8.57,0,0,1,.85-.3l1-.21a13.88,13.88,0,0,1,2.23-.1c.8,0,1.58.1,2.37.2s1.84.31,2.76.52,2,.53,2.93.83c1.75.56,3.47,1.25,5.16,2s3.31,1.54,4.91,2.39a38.14,38.14,0,0,1,4.58,2.91c.7.55,1.38,1.14,2,1.75a21.36,21.36,0,0,1,1.79,2l0,.05.05.06-.05-.06a18.44,18.44,0,0,1,1.89,3,5.45,5.45,0,0,1,.22.79,3.75,3.75,0,0,1,0,.67,3.83,3.83,0,0,1-.16.58,2.27,2.27,0,0,1-.19.34h0a1,1,0,0,0-.36,1.37,1,1,0,0,0,1.36.35,2.4,2.4,0,0,0,.66-.61,3.12,3.12,0,0,0,.34-.59,4.61,4.61,0,0,0,.37-2.07,6.33,6.33,0,0,0-.87-2.57,15.13,15.13,0,0,0-.86-1.38c-.31-.47-.65-.92-1-1.37a24.07,24.07,0,0,0-2.27-2.47,22.88,22.88,0,0,0-2.55-2,31.49,31.49,0,0,0-2.68-1.74c-.9-.52-1.82-1-2.75-1.49s-1.88-.95-2.84-1.36-2.11-.9-3.18-1.32a49.12,49.12,0,0,0-6-1.95,30.67,30.67,0,0,0-3.29-.6,23,23,0,0,0-2.75-.2h-.37a12.32,12.32,0,0,0-3.36.51,8.06,8.06,0,0,0-2,.94,7.19,7.19,0,0,0-2,2.06,5.49,5.49,0,0,0-.34.63,7.32,7.32,0,0,0-.35.88,8.36,8.36,0,0,0-.33,2.33,8.65,8.65,0,0,0,.22,1.76,8,8,0,0,0,.54,1.58,19,19,0,0,0,3.72,5.23,33.12,33.12,0,0,0,4.91,4.17c.27.19.54.38.8.58s.35.27.52.41a1,1,0,0,0,.05.59h0v0a5.6,5.6,0,0,1,.34,1.26,13.27,13.27,0,0,1-.12,3.08,32.18,32.18,0,0,1-1.49,5.79c-.65,1.91-1.42,3.77-2.11,5.67-.61,1.67-1.23,3.34-1.91,5-.86,2-1.81,3.92-2.8,5.85s-1.94,3.72-3,5.55c-.48.87-1,1.74-1.41,2.64s-.86,1.83-1.29,2.75-.8,1.74-1.25,2.59a19.2,19.2,0,0,1-1.59,2.5,11.52,11.52,0,0,1-1.54,1.66,5.42,5.42,0,0,1-.71.4,6.15,6.15,0,0,1-1.32.36,7.1,7.1,0,0,1-1.22,0,8.74,8.74,0,0,1-1.73-.49,24.4,24.4,0,0,1-4.69-2.9L423,363.75c-1.67-1.3-3.24-2.74-4.85-4.11-.76-.65-1.54-1.29-2.24-2-.4-.39-.78-.79-1.16-1.18a.93.93,0,0,0-.23-.35c-.65-.63-1.31-1.25-1.92-1.9s-1-1.14-1.52-1.74a33.15,33.15,0,0,1-3.21-5.29q-1.36-2.76-2.62-5.56c-.14-.3-.27-.59-.39-.88,0,0,0,0,0,0v0h0l-.07-.18.07.17a30.8,30.8,0,0,1-1.18-3.34,29,29,0,0,1-.67-3.44c-.12-1.09-.2-2.17-.22-3.26a24.69,24.69,0,0,1,.22-3.09,50.65,50.65,0,0,1,1.2-6.08,61.3,61.3,0,0,1,1.91-5.94c.41-1.14.82-2.27,1.28-3.38.34-.79.73-1.55,1.11-2.32s.86-1.68,1.35-2.48l.41-.66a.9.9,0,0,0,.55-.44c.61-1.13,1.26-2.23,2-3.28l.23-.3,0,0,0-.06,0,0v0l.05-.07c.23-.28.46-.57.7-.84a1.34,1.34,0,0,0,.23-.4,30.21,30.21,0,0,1,4.42-4.19,41.44,41.44,0,0,1,4.45-3c.82-.47,1.62-.95,2.44-1.41s1.51-.76,2.28-1.1a39.29,39.29,0,0,1,9.48-2.41c1.75-.21,3.52-.38,5.29-.42.92,0,1.85,0,2.78,0s1.66.13,2.49.23c1,.16,2.05.34,3.07.57s2.07.52,3.1.82c2,.57,3.92,1.32,5.84,2.08l1.86.76-.11,0c1.92.82,3.84,1.65,5.73,2.53s3.9,1.9,5.81,2.93,3.86,2.09,5.76,3.2,3.63,2.26,5.44,3.39,3.65,2.27,5.43,3.47,3.48,2.34,5.21,3.54l.69.49a.81.81,0,0,0,.37.36l.39.19.11.08a.81.81,0,0,0,.27.11c.58.31,1.15.64,1.72,1,.92.57,1.84,1.14,2.75,1.73,1.68,1.12,3.33,2.27,5,3.41.86.58,1.67,1.21,2.49,1.84s1.57,1.19,2.37,1.77,1.7,1.22,2.55,1.83,1.57,1.15,2.34,1.74l1.34,1h0l0,0,0,0,.15.12-.12-.09.12.09h0a0,0,0,0,0,0,0h0c1.6,1.25,3.16,2.55,4.72,3.85.8.67,1.61,1.33,2.39,2s1.54,1.42,2.29,2.15q2.19,2.14,4.32,4.38c.66.71,1.29,1.45,1.93,2.18s1.32,1.45,2,2.21c.12.15.25.3.36.46a4.61,4.61,0,0,1,.53.82,2.68,2.68,0,0,1,.07.27,1.93,1.93,0,0,1,0,.48,1,1,0,0,0,.07.38v.14h0l-.07.11a5.9,5.9,0,0,1-.57.55,10.15,10.15,0,0,1-1.8,1c-.84.34-1.68.64-2.54.92a14.42,14.42,0,0,1-2.51.55,18.17,18.17,0,0,1-4,.09,9.43,9.43,0,0,1-1.06-.2,7,7,0,0,1-1.15-.37,20,20,0,0,1-2.5-1.33c-.87-.55-1.74-1.11-2.62-1.64-.43-.26-.87-.51-1.32-.74a12.42,12.42,0,0,0-1.51-.64,7.34,7.34,0,0,0-1.46-.4,8.82,8.82,0,0,0-1.46-.16h-.23a2,2,0,0,0-.87.19,1,1,0,0,0-.5.86,1,1,0,0,0,1,1,.88.88,0,0,0,.29,0,5.5,5.5,0,0,1,.91,0,8.24,8.24,0,0,1,1.1.22c.4.12.79.26,1.18.41a54.63,54.63,0,0,1,5.06,3,15,15,0,0,0,2.9,1.36,8.22,8.22,0,0,0,1.11.29l-.32.5-.13.16c-.29.4-.53.84-.78,1.26s-.52.9-.77,1.36c-.48.86-1,1.72-1.46,2.58s-1,1.75-1.51,2.63l-.77,1.34a11.51,11.51,0,0,0-.74,1.44.73.73,0,0,0,0,.25l-.29.52c-.2.35-.42.69-.63,1a2,2,0,0,0-.36,1,2.32,2.32,0,0,0,.07.59c0,.16.05.33.08.5a14.83,14.83,0,0,1,0,2.31c0,.24,0,.48,0,.72-.48-.26-1-.53-1.42-.8a40.87,40.87,0,0,1-3.86-2.68c-.54-.44-1.08-.89-1.6-1.35s-1-.93-1.44-1.41a40.65,40.65,0,0,1-2.73-3.14l.11.15-.12-.16,0,0,0,0a18.32,18.32,0,0,1-2.05-3.32c-.1-.27-.2-.54-.28-.82s-.12-.52-.17-.79a5.48,5.48,0,0,1,0-.81,1,1,0,0,0-2,0,5.84,5.84,0,0,0,.14,1.67,8.75,8.75,0,0,0,.54,1.64,14.88,14.88,0,0,0,1.54,2.68,40.05,40.05,0,0,0,4.34,5,36.9,36.9,0,0,0,5.14,4.11,36.24,36.24,0,0,0,5.6,3.07,30,30,0,0,0,3,1.16c1,.34,2.07.61,3.13.85a31.62,31.62,0,0,0,3.2.6,12.08,12.08,0,0,0,2.25,0,1.37,1.37,0,0,1,.31-.58,2.2,2.2,0,0,1,1-.62l.28-.1.19-.07v0h0a4.31,4.31,0,0,1,.93-.49,6.76,6.76,0,0,1,1.47-.38l1.08-.16c.12,0,.25,0,.37,0h.11a5.7,5.7,0,0,0,.8-1.22,7.19,7.19,0,0,0,.58-1.63,11.34,11.34,0,0,0,.24-1.75,12.92,12.92,0,0,0-.25-3.34c-.11-.49-.24-1-.39-1.45a14.71,14.71,0,0,0-.77-1.78,1,1,0,0,0-1.37-.36,1,1,0,0,0-.46.6,1.09,1.09,0,0,0,.1.77c.14.27.27.55.39.83a12,12,0,0,1,.69,2.63c0,.45.08.89.09,1.35a9.27,9.27,0,0,1-.09,1.39,8,8,0,0,1-.43,1.61,5.78,5.78,0,0,1-.57,1,6,6,0,0,1-.66.67,9.59,9.59,0,0,1-.88.51,12.27,12.27,0,0,1-2.45.64,11.38,11.38,0,0,1-1.31.07,12.92,12.92,0,0,1-1.38-.08l-1.28-.23a.91.91,0,0,1,.11-.16l.94-1.31c.61-.83,1.22-1.66,1.82-2.51q1.77-2.54,3.47-5.13c1-1.5,1.86-3.07,2.93-4.5a20.13,20.13,0,0,1,2.71-2.75,11.24,11.24,0,0,1,1.8-1.07,10,10,0,0,1,2-.52,6.25,6.25,0,0,1,1.06,0l.32.07a1,1,0,0,0,.93.47h.12a6.4,6.4,0,0,1,1,.31,16.46,16.46,0,0,1,2.83,1.6,31.22,31.22,0,0,1,3.59,3.5c.31.33.61.67.9,1a1.13,1.13,0,0,1,.11-.22,2.26,2.26,0,0,1,.64-.63h0a3.29,3.29,0,0,1,.59-.53l0-.05c-.12-.15-.25-.29-.37-.43a28.43,28.43,0,0,0-4.64-4.47,13.8,13.8,0,0,0-2.23-1.3L545,355a1.42,1.42,0,0,0-.46-.28,11.61,11.61,0,0,0-1.52-.47,6.32,6.32,0,0,0-1.37-.15h-.31a9.2,9.2,0,0,0-1.64.27A9.69,9.69,0,0,0,538,355a10.34,10.34,0,0,0-2.68,1.87,19.22,19.22,0,0,0-2.06,2.17,62.06,62.06,0,0,0-3.43,5.19c-1.12,1.72-2.29,3.43-3.47,5.11-.6.85-1.21,1.68-1.83,2.52l-.87,1.22-.37.54-.66-.17h0a14.13,14.13,0,0,1,.79-1.22l.83-1.23c.6-.89,1.19-1.8,1.77-2.71,1.11-1.75,2.2-3.51,3.24-5.3,2.12-3.64,4-7.43,6.38-10.91.43-.62.85-1.24,1.31-1.85.13-.15.25-.31.39-.46a1,1,0,0,0,.22-1.16,1.43,1.43,0,0,0,.14-.2,2.09,2.09,0,0,0,.26-.89,5.61,5.61,0,0,0,0-.71,1.35,1.35,0,0,0-.05-.29,4.53,4.53,0,0,0-.07-.62,3,3,0,0,0-.35-.91,8.4,8.4,0,0,0-.85-1.2c-.62-.78-1.29-1.5-1.95-2.25s-1.27-1.47-1.93-2.18-1.47-1.52-2.2-2.28c-1.41-1.46-2.86-2.9-4.36-4.27-.77-.7-1.59-1.37-2.39-2s-1.63-1.39-2.46-2.07c-1.66-1.35-3.36-2.65-5.06-3.95s-3.31-2.38-4.94-3.6l-2.41-1.81c-.81-.62-1.63-1.2-2.47-1.77-1.66-1.14-3.31-2.31-5-3.4a45.15,45.15,0,0,0-4.25-2.51c-1.77-1.32-3.62-2.53-5.45-3.76s-3.47-2.32-5.24-3.42-3.67-2.31-5.51-3.45-3.8-2.23-5.73-3.28-3.83-2.07-5.79-3-3.72-1.72-5.61-2.53-4-1.7-6.07-2.45a60,60,0,0,0-6.16-1.9c-1-.24-2-.44-3-.59a32.51,32.51,0,0,0-3.42-.38c-.68,0-1.36-.05-2-.05l-1.11,0Zm-29,15.74,0,0,0,0Zm0,0,0,.05,0-.05Zm-5.7,9.61v0Zm45,11.18,0,0,0,0Zm65,4.61h0Zm-6,19h0Zm0,0h0Zm25.71,3-.06.08.06-.08Zm6.65,6.56h0Zm3.64,1.84.07.06-.07-.06Zm-125,7.27Zm13.45.06,0,.05,0-.05Zm74.52,1.2.16.12-.16-.12Zm7.47,3.44v-.05a.89.89,0,0,0,.23.13l-.23-.08ZM521.1,372a.41.41,0,0,0,0-.09.41.41,0,0,1,0,.09Z" transform="translate(-181.01 -73.52)"/>
    <path class="cls-2" d="M463.89,330.85l-.89.07H463a8.76,8.76,0,0,0-.89.18,3.57,3.57,0,0,0-.44.43,1,1,0,0,0-.29.71,1,1,0,0,0,.1.44,51.18,51.18,0,0,0-2.7,4.51c-1,1.84-2,3.71-2.94,5.6s-1.89,3.77-2.79,5.68-1.84,4.07-2.7,6.14-1.62,3.9-2.39,5.87c-.37,1-.72,2-1,3a17.32,17.32,0,0,0-.68,3.18,18.54,18.54,0,0,0,0,3c0,1.09.07,2.18.07,3.26s-.08,2,0,3a8.71,8.71,0,0,0,.17,1.61,1.89,1.89,0,0,0,.78,1.21,1.07,1.07,0,0,0,.28.77c.34.35.64.75.95,1.13s.73.85,1.11,1.26c.67.75,1.35,1.48,2,2.22,1.49,1.66,3,3.29,4.5,4.94,2.86,3.13,5.85,6.13,8.76,9.22,1.25,1.33,2.46,2.7,3.66,4.06s2.32,2.69,3.42,4.09c1.2,1.6,2.35,3.23,3.43,4.91a35.59,35.59,0,0,1,2.71,5.24c.8,1.95,1.52,3.94,2.25,5.93s1.45,4,2.15,6c.34,1,.68,2,1.06,2.93a27.44,27.44,0,0,0,1.3,3,47.8,47.8,0,0,0,3.31,5.55c.73,1,1.48,2.07,2.28,3.06a.22.22,0,0,0,0,.08,1.06,1.06,0,0,0,.3.71,31.68,31.68,0,0,0,2.18,2.31c.69.65,1.42,1.25,2.14,1.87s1.51,1.33,2.29,2l2.32,1.84c1.14.89,2.28,1.78,3.47,2.6.5.34,1,.7,1.51,1l-.13.16.15.08c.92.52,1.84,1.06,2.76,1.6,1.76,1,3.55,2,5.35,2.9s3.92,1.93,5.94,2.74,4,1.48,6,2.16,4,1.26,6.11,1.76A61.38,61.38,0,0,0,536.9,468a50.16,50.16,0,0,0,6.13.34c.88,0,1.77,0,2.65,0a1,1,0,0,0,.45-.1q1.23-.06,2.46-.21c1.09-.12,2.18-.27,3.27-.47s2-.41,3-.7a29.35,29.35,0,0,0,2.9-1,33.16,33.16,0,0,0,5.43-2.88,37.25,37.25,0,0,0,5-4,23.81,23.81,0,0,0,2.19-2.3c.67-.83,1.32-1.69,1.93-2.57,1.2-1.72,2.33-3.49,3.44-5.27.56-.9,1.1-1.8,1.6-2.73a23.08,23.08,0,0,0,1.31-2.91,52.4,52.4,0,0,0,1.9-6c.25-1,.47-2,.66-3.07s.34-2,.52-3,.44-2.06.63-3.09a21.09,21.09,0,0,0,.37-3.17,25.87,25.87,0,0,0,0-2.92c-.06-1-.1-2-.22-3a2.7,2.7,0,0,0,0-.28.93.93,0,0,0-.1-.25l0-.43a25.83,25.83,0,0,0-.47-3.39c-.2-1.07-.49-2.12-.78-3.17-.57-2.06-1.28-4.08-2-6.09s-1.53-3.95-2.33-5.91a117.22,117.22,0,0,0-5.39-11.73c-2.07-3.76-4.32-7.4-6.68-11-.29-.45-.58-.89-.88-1.33a6,6,0,0,1-1.27,1.08l-.28.2q3.36,5,6.34,10.2c1,1.8,2,3.62,2.9,5.48s1.61,3.52,2.36,5.3h0q1.23,2.91,2.39,5.85c.79,2,1.56,4.05,2.22,6.11.37,1.16.71,2.32,1,3.5s.54,2.34.73,3.54c.1.82.18,1.65.2,2.48a18.28,18.28,0,0,1-.12,2.45c-.13.82-.29,1.63-.5,2.44a20.72,20.72,0,0,1-.79,2.42,26.06,26.06,0,0,1-1.22,2.49l-.06.11c-.06.09-.12.16-.18.24l0,0h0l0,0v0s0,0,0,0h0c-.47.61-1,1.21-1.49,1.78a17.07,17.07,0,0,1-1.81,1.69c-.55.4-1.12.77-1.71,1.12a19.38,19.38,0,0,1-1.89.92,20.9,20.9,0,0,1-2.64.87,22.85,22.85,0,0,1-2.47.46,27.7,27.7,0,0,1-3.14.19c-1.06,0-2.12,0-3.18-.11-2.07-.15-4.14-.38-6.2-.64l-1.53-.19c-2.09-.29-4.16-.63-6.23-.94s-4.3-.56-6.45-.79c-1-.11-2.08-.23-3.12-.28s-2.13-.06-3.2,0a58.42,58.42,0,0,0-6.46.79,35.82,35.82,0,0,0-12.06,4.29,26,26,0,0,0-2.51,1.67,13.48,13.48,0,0,0-2.36,2.23q-.69.84-1.29,1.74a10.27,10.27,0,0,0-.7.78,12.55,12.55,0,0,0-1,1.33,9.33,9.33,0,0,0-1.19,2.75,7.7,7.7,0,0,0-.22,1.65,8.69,8.69,0,0,0,.15,1.61,8,8,0,0,0,.22,1l-.5-.35c-.94-.65-1.86-1.31-2.76-2l0,0c-1.55-1.2-3.09-2.41-4.57-3.7-1.32-1.15-2.69-2.27-3.9-3.53a.56.56,0,0,1,0-.12l0-.12c-.69-.8-1.37-1.62-2-2.46-1.05-1.39-2-2.83-2.95-4.31-.48-.77-.94-1.55-1.37-2.34s-.79-1.57-1.14-2.37l0,0c-.78-1.89-1.43-3.82-2.12-5.75s-1.42-3.95-2.14-5.93-1.49-4.1-2.42-6.06c-.45-1-.93-1.93-1.47-2.86s-1.14-1.84-1.75-2.74c-1.24-1.81-2.54-3.57-3.93-5.28s-2.8-3.24-4.22-4.83-2.82-3-4.24-4.5-2.94-3.05-4.4-4.6-3-3.29-4.55-4.94c-.74-.81-1.47-1.62-2.2-2.44s-1.38-1.49-2.05-2.26l-.85-1-.18-.23a7.38,7.38,0,0,0,1.32-.91,9.65,9.65,0,0,0,1-1,27.17,27.17,0,0,0,2-2.58c.6-.87,1.19-1.74,1.73-2.64s1-1.78,1.52-2.69c1-1.88,1.95-3.79,2.85-5.72s1.8-3.93,2.72-5.87a59.49,59.49,0,0,0,2.53-5.94,40.34,40.34,0,0,0,1.68-6.18,51,51,0,0,0,.66-5.52,19.14,19.14,0,0,0,0-2.73c-.07-.95-.21-1.9-.34-2.84l-.21-1.49c0-.23-.05-.45-.06-.68l0-.34a.76.76,0,0,0,.09-.18l-.11,0-.95-.25c-.31-.07-.62-.14-.93-.18h.06a6.81,6.81,0,0,0-.78,0Zm-15.58,46.09.23-.11-.19.1Zm.21-.08a.24.24,0,0,1-.09,0l.09,0ZM570.41,435l-.07,0,.07,0Zm-5.15,1.3h0Zm-46.49,2.08-.11,0,.11,0Zm-4.92,2.55.31,0-.33.06,0,0Zm62.32,3.1,0,0-.25.24.27-.27ZM518.63,460.8h0l0,0,1.09.44-1-.41Z" transform="translate(-181.01 -73.52)"/>
  </g>
  <g id="Guyline_Above" data-name="Guyline Above">
    <path class="cls-1" d="M530.62,393a3.34,3.34,0,0,0-.63.43c-.19.15-.37.29-.55.45a12,12,0,0,0-1.06,1.08,11,11,0,0,0-2.34,4.27,9.05,9.05,0,0,0-.3,1.62,6.39,6.39,0,0,0,.58,3.32,10.35,10.35,0,0,0,1.8,2.7c.65.77,1.36,1.5,2.08,2.21s1.38,1.44,2.13,2.1a25.68,25.68,0,0,0,2.64,2c.84.56,1.69,1.09,2.57,1.56a20.89,20.89,0,0,0,2.88,1.25,13.37,13.37,0,0,0,3,.64c.52.06,1,.11,1.56.14a14.61,14.61,0,0,0,1.61.09,5.69,5.69,0,0,0,3.24-.95,6,6,0,0,0,2-2.76,4.52,4.52,0,0,0,.28-1.49,4.11,4.11,0,0,0-1.08-2.73c-.65-.76-1.41-1.43-2-2.2l-.42-.5c-.62-.82-1.19-1.68-1.79-2.53s-1.35-1.84-2.06-2.74a21.39,21.39,0,0,0-4.63-4.28,27.83,27.83,0,0,0-3.89-2.15,17,17,0,0,0-2.19-.83,19.22,19.22,0,0,0-2.13-.46.94.94,0,0,0-.75-.37,1.13,1.13,0,0,0-.53.14Zm.47,2.1a.35.35,0,0,0,.11,0c.65.11,1.29.23,1.93.39a14.79,14.79,0,0,1,1.74.58,25.56,25.56,0,0,1,5.1,2.93,22.83,22.83,0,0,1,2.07,1.87,28.89,28.89,0,0,1,1.89,2.23l0,0c1,1.24,1.79,2.55,2.71,3.81a21.1,21.1,0,0,0,1.54,1.86c.48.52,1,1,1.47,1.54a4,4,0,0,1,.39.62,2.77,2.77,0,0,1,.12.41,3.49,3.49,0,0,1,0,.56,4.61,4.61,0,0,1-.19.73,7.18,7.18,0,0,1-.56,1,6.05,6.05,0,0,1-.61.63,5.24,5.24,0,0,1-.61.34,5.79,5.79,0,0,1-.93.25,12.51,12.51,0,0,1-2,0c-.66-.05-1.31-.1-2-.18a14.15,14.15,0,0,1-3.19-.9,28.06,28.06,0,0,1-5.5-3.28,16.53,16.53,0,0,1-1.4-1.24c-.46-.46-.92-.93-1.39-1.39a33.23,33.23,0,0,1-2.68-2.89,10.15,10.15,0,0,1-1-1.72,6.64,6.64,0,0,1-.32-1.16,6.47,6.47,0,0,1,0-1.32,10.18,10.18,0,0,1,.52-1.87,11.33,11.33,0,0,1,1.18-2.06,11.7,11.7,0,0,1,1.63-1.67Zm3.83,1,.06,0-.06,0Zm-5.53.73,0,.06,0-.06ZM528.22,399a.14.14,0,0,1,0,.06l0-.06Zm-.51,2.86a.36.36,0,0,0,0,.1.36.36,0,0,1,0-.1ZM528,403l0,.06,0-.06Z" transform="translate(-181.01 -73.52)"/>
    <path class="cls-1" d="M553.06,398.54a1.65,1.65,0,0,0,.16,1,6,6,0,0,0,.38.81c.24.42.5.82.77,1.22a15.33,15.33,0,0,1,1.28,2.4,21.18,21.18,0,0,1,1.23,4.21,6.21,6.21,0,0,1,0,1.14,5.63,5.63,0,0,1-.28,1,6.93,6.93,0,0,1-.43.75,12.17,12.17,0,0,1-1.49,1.47c-.56.48-1.13.94-1.7,1.4-.26.18-.51.37-.79.53a10.67,10.67,0,0,1-1.21.63,1,1,0,0,0-.46.6,1,1,0,0,0,.7,1.23,1.09,1.09,0,0,0,.77-.1,10.49,10.49,0,0,0,1.61-.89,16.72,16.72,0,0,0,1.35-1,19.48,19.48,0,0,0,2.31-2,5.74,5.74,0,0,0,1-1.33c.13-.27.25-.56.37-.84a5.09,5.09,0,0,0,.3-1.59,7.91,7.91,0,0,0-.16-1.68,15.31,15.31,0,0,0-.37-1.52,21.78,21.78,0,0,0-1.37-3.69,14.87,14.87,0,0,0-1-1.69,12.44,12.44,0,0,1-1-1.61,2,2,0,0,1-.1-.35v0a1,1,0,0,0-.7-.73,1.07,1.07,0,0,0-.25,0,1,1,0,0,0-1,.72Z" transform="translate(-181.01 -73.52)"/>
    <path class="cls-1" d="M534.4,372.36a12.69,12.69,0,0,0-3,.92,11.79,11.79,0,0,0-2.77,1.7,25,25,0,0,0-2.37,2.11,10.8,10.8,0,0,0-1.86,2.63,14.34,14.34,0,0,0-1.13,3,19.67,19.67,0,0,0-.5,3.24,18.72,18.72,0,0,0,.6,6.19,13.09,13.09,0,0,0,1.2,3,6.35,6.35,0,0,0,2.22,2.54,1.1,1.1,0,0,0,.37.16,1,1,0,0,0,1.13-.46,1,1,0,0,0-.36-1.36l-.13-.07a1.07,1.07,0,0,1-.22-.15,6.44,6.44,0,0,1-.64-.64,12.35,12.35,0,0,1-1.17-2.1,17.5,17.5,0,0,1-.92-3.64,18.53,18.53,0,0,1-.13-2.11,21.8,21.8,0,0,1,.14-2.28,16,16,0,0,1,.87-3.41,13.71,13.71,0,0,1,1.41-2.47,21,21,0,0,1,3.06-2.83,11.64,11.64,0,0,1,2.14-1.23,13.1,13.1,0,0,1,2.6-.75,7.5,7.5,0,0,1,1.34,0,4.49,4.49,0,0,1,1,.27,9.38,9.38,0,0,1,1.33.8l1.44,1c1,.65,2,1.31,2.9,2q1.77,1.36,3.46,2.83c.57.5,1.13,1,1.66,1.54s1,1.08,1.45,1.65a21.78,21.78,0,0,1,2.29,3.9,14.08,14.08,0,0,1,.56,1.66,17.48,17.48,0,0,1,.36,1.89c.1.86.19,1.71.22,2.58a18.23,18.23,0,0,1,0,2.56,3,3,0,0,1-.14.57l-.1.17-.23.24-.13.07a1.43,1.43,0,0,1-.28.07,5.58,5.58,0,0,1-1,0,2.85,2.85,0,0,1-.5-.14,4.79,4.79,0,0,1-.68-.42c-.79-.64-1.48-1.38-2.32-2a9.74,9.74,0,0,0-1.43-.84,8.82,8.82,0,0,0-1.56-.64,11.48,11.48,0,0,0-3.35-.41,16.11,16.11,0,0,0-3.3.47,1,1,0,0,0,.53,1.92c.52-.12,1.05-.22,1.58-.3a13.42,13.42,0,0,1,2.69,0l1,.18a6.36,6.36,0,0,1,1,.35,11.43,11.43,0,0,1,2.09,1.22,23,23,0,0,0,2.46,2.05,4.08,4.08,0,0,0,2.18.58,4.2,4.2,0,0,0,1.58-.22,3.1,3.1,0,0,0,1.64-1.66,5.1,5.1,0,0,0,.3-1.6,23.08,23.08,0,0,0,0-3,18.54,18.54,0,0,0-1.34-6.29,21.41,21.41,0,0,0-1.5-2.79,20.3,20.3,0,0,0-2-2.62,28.43,28.43,0,0,0-2.24-2.15c-.79-.71-1.62-1.37-2.44-2s-1.67-1.33-2.54-1.94-1.69-1.14-2.53-1.72a11.07,11.07,0,0,0-2.61-1.54,5.7,5.7,0,0,0-1.57-.32h-.35a9,9,0,0,0-1.37.11Zm-4.07,3.81a.18.18,0,0,0-.07.05l.07-.05Z" transform="translate(-181.01 -73.52)"/>
    <path class="cls-1" d="M589.9,363.26c-1.09.08-2.18.21-3.25.39a44.88,44.88,0,0,0-6.29,1.47c-1.05.32-2.08.67-3.09,1.08s-2.18.92-3.24,1.45a43.85,43.85,0,0,0-5.52,3.28,63.83,63.83,0,0,0-5.23,4.18,41.36,41.36,0,0,0-4.4,4.48c-.7.83-1.38,1.68-2.06,2.54s-1.37,1.66-2,2.54a15.41,15.41,0,0,0-1.06,1.61c-.18.31-.35.64-.5,1a5.53,5.53,0,0,0-.42,1,1,1,0,0,0,.7,1.23,1,1,0,0,0,1.23-.69c0-.12.08-.22.12-.34a15,15,0,0,1,1-1.85c.37-.57.78-1.11,1.2-1.66v0l.14-.19-.07.11c.61-.78,1.24-1.55,1.86-2.33s1.32-1.64,2-2.42a51.77,51.77,0,0,1,4.72-4.53c.75-.64,1.52-1.26,2.3-1.87a43.74,43.74,0,0,1,4.33-2.92c.81-.46,1.62-.92,2.45-1.34s1.61-.77,2.42-1.13,1.8-.69,2.72-1,1.88-.58,2.83-.83a43.84,43.84,0,0,1,5.59-1.1c.74-.08,1.49-.14,2.24-.2s1.56,0,2.33,0a32.52,32.52,0,0,1,4.51.37c2.12.32,4.23.71,6.31,1.23,1.05.26,2.08.56,3.09.92s2,.74,3,1.14l2.06.85a104.87,104.87,0,0,1,11.34,5.75c1.8,1,3.54,2.17,5.34,3.2.83.48,1.68.94,2.49,1.46s1.54,1.07,2.29,1.64a.52.52,0,0,0,.11.1,1.12,1.12,0,0,0,.71.29,1,1,0,0,0,1-1,1,1,0,0,0-.29-.71c-.9-.7-1.81-1.39-2.77-2s-1.73-1-2.6-1.52c-1.87-1.08-3.68-2.25-5.55-3.33a99,99,0,0,0-11.65-5.84l-3.12-1.27c-1-.41-2.08-.77-3.14-1.11s-2.09-.57-3.14-.81-2.07-.43-3.1-.61-2.2-.37-3.31-.49-2.3-.2-3.46-.24h-.7c-.83,0-1.66.05-2.48.11Zm-12.46,5-.06,0,.06,0ZM554.88,388.5l-.06.15.06-.15ZM557.1,385h0l.07-.08-.07.08Z" transform="translate(-181.01 -73.52)"/>
    <path class="cls-1" d="M585.72,347.58a45.67,45.67,0,0,0-6.51.48,48.65,48.65,0,0,0-6.35,1.31,51,51,0,0,0-6.22,2.19,45.36,45.36,0,0,0-5.83,3,58.06,58.06,0,0,0-5.43,3.74,60.46,60.46,0,0,0-4.86,4.18q-2.32,2.25-4.61,4.56c-.78.79-1.56,1.6-2.32,2.42a33.47,33.47,0,0,0-2.17,2.57l-.6.83-.29.45a1.68,1.68,0,0,0-.26.75,1,1,0,0,0,.3.74,1,1,0,0,0,1.66-.42,9,9,0,0,1,.83-1.22,61.07,61.07,0,0,1,4.33-4.77c1.5-1.53,3-3,4.57-4.52a56.78,56.78,0,0,1,4.71-4,.18.18,0,0,0-.07,0l.08-.06.12-.1-.09.07c1.7-1.27,3.44-2.47,5.26-3.58a44.32,44.32,0,0,1,5.77-3,58,58,0,0,1,6.08-2.07,48.69,48.69,0,0,1,6.23-1.24c1.07-.13,2.14-.22,3.23-.29s2.15-.07,3.22-.07c2.13,0,4.25.12,6.36.32,1.42.14,2.84.31,4.25.5,4.23.58,8.43,1.39,12.62,2.25q3.3.66,6.55,1.48a59,59,0,0,1,6.05,1.92c1.9.7,3.79,1.43,5.71,2.1s3.7,1.24,5.5,2a8,8,0,0,1,1.38.74,7.07,7.07,0,0,1,.71.74c.22.26.45.49.67.74s.3.52.44.79c.18.48.33,1,.47,1.45s.22,1,.31,1.53.12,1.12.17,1.68,0,1.36,0,2a29.3,29.3,0,0,1-.27,3.51c-.18,1.17-.37,2.32-.65,3.47a27.3,27.3,0,0,1-1.08,3.43,9.76,9.76,0,0,1-1,1.77c-.21.25-.43.49-.63.75a1,1,0,0,0,.36,1.37,1.05,1.05,0,0,0,.78.1,1.09,1.09,0,0,0,.58-.43,9.64,9.64,0,0,0,1-1.42,10.64,10.64,0,0,0,.63-1.32,19.07,19.07,0,0,0,1.05-3.12c.26-1,.5-2.08.66-3.13.18-1.21.32-2.41.43-3.62a29.91,29.91,0,0,0,0-3.28c0-.51-.08-1-.14-1.54s-.15-1.16-.28-1.74-.28-1.11-.46-1.66a7.35,7.35,0,0,0-.32-.77,5.32,5.32,0,0,0-.35-.67,8.12,8.12,0,0,0-.56-.75c-.16-.19-.34-.35-.5-.52s-.28-.34-.43-.5a5.12,5.12,0,0,0-.71-.6,5.69,5.69,0,0,0-1.28-.7c-.53-.23-1.07-.45-1.61-.65-1-.37-1.95-.7-2.92-1l-3-1.06c-1-.35-2-.73-3-1.1-2-.77-4.08-1.48-6.17-2.09s-4.22-1.06-6.35-1.51-4.21-.85-6.32-1.25-4.3-.79-6.47-1.11c-1.12-.17-2.25-.32-3.39-.46s-2-.24-3.07-.33-2.14-.17-3.2-.21-2.14-.06-3.21-.06Zm-5.57,2.35h0Zm17.07.48h0Zm-29.4,2.8,0,0,0,0Zm65.59,6.86.12.06-.12-.06Zm.16.07.08,0-.08,0Zm2.8,2.3.06.07-.06-.07Zm-.43,21.22,0,0,0,0Zm-79.26-23.82h0l0,0,0,0Z" transform="translate(-181.01 -73.52)"/>
    <path class="cls-1" d="M633.65,360.57a2.89,2.89,0,0,0-.38.47,4.23,4.23,0,0,0-.41.68,8.1,8.1,0,0,0-.77,2.2,17,17,0,0,0-.27,1.9c-.05.55,0,1.11,0,1.66s0,.95.07,1.42a42.58,42.58,0,0,0,1.06,6.55c.33,1.32.71,2.62,1.16,3.91a1,1,0,0,0,1.23.7,1,1,0,0,0,.7-1.24,39.63,39.63,0,0,1-1.21-4.12c-.31-1.35-.57-2.69-.76-4.06-.11-.93-.19-1.87-.24-2.81a17.42,17.42,0,0,1,.1-2.7,11,11,0,0,1,.51-2A6.38,6.38,0,0,1,635,362l0,0h0a1,1,0,0,0,.26-1,1,1,0,0,0-.7-.7.77.77,0,0,0-.25,0,1.11,1.11,0,0,0-.72.3Zm1.35,1.48,0,.06,0-.06Z" transform="translate(-181.01 -73.52)"/>
    <path class="cls-1" d="M463.53,330.08c-1.84.22-3.28,1.51-4.57,2.73-.61.58-1.19,1.19-1.8,1.77s-1.17,1.05-1.79,1.54l0,0,0,0h0l-.06.05.06-.05a23.26,23.26,0,0,1-2.21,1.44l-1.2.67c-.23.13-.46.27-.68.42-.13.33-.28.65-.43,1s-.19.43-.29.64c0,0,0,0,0,.05h0l0,.1.11.14a1.05,1.05,0,0,0,.71.29,1.11,1.11,0,0,0,.68-.27,27,27,0,0,1,2.49-1.46,23.2,23.2,0,0,0,2.71-1.91,24.54,24.54,0,0,0,2.07-1.88c.37-.37.74-.74,1.13-1.1s.68-.66,1-1l.29-.24a8.14,8.14,0,0,1,1.36-.81,4,4,0,0,1,.67-.2,5.93,5.93,0,0,1,.73,0,14.91,14.91,0,0,1,2,.56l2.2.77c.72.26,1.43.55,2.13.83l.46.19.14.06a.72.72,0,0,0,.2.09c1.83.79,3.63,1.65,5.4,2.55,2,1,3.89,2,5.78,3.12a80.19,80.19,0,0,1,8.43,5.56l0,0h0c.77.61,1.53,1.24,2.26,1.9s1.54,1.47,2.27,2.24a52.51,52.51,0,0,1,3.76,4.26,12,12,0,0,1,.79,1.17.55.55,0,0,1,.25-.31.94.94,0,0,1,.22-.12.57.57,0,0,1,.22,0h.12a1,1,0,0,1,.39.12,1,1,0,0,1,.34.3l.11.18a2.34,2.34,0,0,1,.09.24,3.57,3.57,0,0,0,.1.35.61.61,0,0,1,.05.12.8.8,0,0,1,0,.15c0,.11,0,.22.05.34v0c0,.11,0,.22.05.33a1,1,0,0,0,.45-.83,2.08,2.08,0,0,0-.23-.78,9.06,9.06,0,0,0-.42-.89,13.11,13.11,0,0,0-.77-1.17c-.57-.79-1.22-1.53-1.86-2.27-1.34-1.55-2.76-3-4.25-4.45a45.49,45.49,0,0,0-5-4c-1.67-1.19-3.4-2.28-5.16-3.33-1-.57-1.93-1.14-2.91-1.69s-1.89-1-2.85-1.52q-2.76-1.43-5.58-2.72c-.47-.22-.94-.43-1.42-.63l-.06,0-.17-.08-.19-.07c-.86-.37-1.72-.72-2.6-1s-1.88-.67-2.84-1a8.1,8.1,0,0,0-2.38-.46l-.5,0Zm8.05,4.48h0Zm19.62,11.25Zm11.06,10.83v0Z" transform="translate(-181.01 -73.52)"/>
    <polygon class="cls-1" points="274.29 262.66 274.29 262.66 274.29 262.65 274.29 262.66 274.29 262.66 274.29 262.66"/>
    <path class="cls-1" d="M502.13,356.1s0,0,0-.05l0,.05Z" transform="translate(-181.01 -73.52)"/>
    <path class="cls-1" d="M491.27,345.86l0,0,0,0Z" transform="translate(-181.01 -73.52)"/>
    <path class="cls-1" d="M464.36,317.77a18.48,18.48,0,0,0-3.15.62,25.37,25.37,0,0,0-2.94,1.24c-.9.41-1.81.82-2.72,1.21-.3.13-.62.24-.93.34l-.7.19a.78.78,0,0,1,.11.2c.05.16.08.32.12.48a5.36,5.36,0,0,1,.14.54c0,.13,0,.25,0,.38s0,.23.05.34c.45-.13.9-.24,1.33-.4.63-.22,1.23-.51,1.84-.78,1.08-.48,2.14-1,3.22-1.45a11.28,11.28,0,0,1,1.64-.55,17.3,17.3,0,0,1,1.88-.36,13.33,13.33,0,0,1,3.5,0,32.2,32.2,0,0,1,4.71,1.11c1.57.49,3.11,1,4.64,1.67a76.46,76.46,0,0,1,11.06,6c1.8,1.17,3.6,2.34,5.36,3.58s3.42,2.47,5.09,3.75l.89.68c1.66,1.29,3.35,2.57,4.88,4a44.2,44.2,0,0,1,4.33,4.54,21.16,21.16,0,0,1,1.68,2.55,31.57,31.57,0,0,1,1.39,2.87l0,0c.41,1,.81,2,1.14,3s.61,2.07.89,3.11a50.05,50.05,0,0,1,1.37,6.15c.15,1.28.26,2.57.32,3.85a24.84,24.84,0,0,1-.13,3.76h0l0-.17c0,.05,0,.11,0,.17l.29.13c.31.15.62.29.94.42l-.06,0,.67.28-.06,0,.1,0a3.81,3.81,0,0,0,.07-.47c0-.32.07-.65.11-1,0-.48.07-1,.09-1.45a28.92,28.92,0,0,0-.11-3.09c-.08-1.1-.17-2.2-.35-3.29s-.38-2.09-.62-3.13-.53-2.1-.82-3.15-.56-2-.9-3.05-.81-2.16-1.26-3.22a27.59,27.59,0,0,0-1.35-2.79,24.86,24.86,0,0,0-3.91-5.1,47.46,47.46,0,0,0-4.65-4.31c-1.73-1.39-3.5-2.74-5.27-4.08s-3.38-2.51-5.13-3.68a107.42,107.42,0,0,0-11-6.74,60.62,60.62,0,0,0-5.8-2.64,45.75,45.75,0,0,0-5.9-1.84,25,25,0,0,0-3.19-.54q-.6-.06-1.2-.06a12.5,12.5,0,0,0-1.74.12ZM508.64,345l.12.16-.12-.16Z" transform="translate(-181.01 -73.52)"/>
  </g>
</svg>
