<svg xmlns="http://www.w3.org/2000/svg" width="769.68" height="453.12" viewBox="0 0 769.68 453.12">
  <defs>
    <style>
      .cls-1 {
        fill: #bebebe;
      }

      .cls-2 {
        fill: #404040;
      }

      .cls-3 {
        fill: #7f7f7f;
      }
    </style>
  </defs>
  <title>TarpManualQuickAdjuster</title>
  <g id="Guyline_Below" data-name="Guyline Below">
    <path class="cls-1" d="M352.8,355.68l0,0a1.32,1.32,0,0,0-.84.43c-.36.45-.71.9-1.05,1.36-.88,1.13-1.77,2.24-2.66,3.35s-1.86,2.23-2.87,3.26-2.14,2.08-3.2,3.13-2.31,2.27-3.43,3.45c-2.11,2.24-4.22,4.49-6.34,6.72-1,1.07-1.95,2.21-2.91,3.34s-2,2.54-3.07,3.82-1.9,2.44-2.87,3.65-1.92,2.36-2.89,3.53-2.08,2.47-3.11,3.72-2,2.46-3.07,3.65-2.08,2.27-3.16,3.37-2.28,2.24-3.4,3.39-2.06,2.26-3.05,3.41-2,2.3-2.93,3.49-2.07,2.59-3.17,3.83-2,2.28-2.93,3.46c-.44.55-.89,1.1-1.35,1.63s-1,1.1-1.45,1.65c-1,1.14-1.92,2.3-2.89,3.43s-2.07,2.22-3.15,3.29-2.17,2.3-3.21,3.5c-2,2.28-4,4.55-6,6.84-1,1.14-2,2.28-3,3.4s-2.15,2.22-3.22,3.33-2,2.32-2.92,3.51-2,2.42-3.06,3.57-2,2.06-3,3.08l-3.07,3.07c-1.06,1-2.08,2.12-3.17,3.13s-2.1,1.93-3.14,2.91-2.36,2.17-3.53,3.27c-1,.95-2,1.93-3,2.92s-2.1,2.09-3.15,3.14-2.24,2.14-3.38,3.2-2.28,2.18-3.48,3.21c-.53.45-1.1.87-1.65,1.31a15.59,15.59,0,0,0-1.46,1.47c-1,1.07-2.16,2-3.22,3S228.12,490,227,491l-.1.09a1.43,1.43,0,0,0-.41.75l-.43.36c-1.13,1-2.31,1.87-3.48,2.77s-2.35,1.71-3.52,2.58-2.3,1.71-3.48,2.54c-2.4,1.68-4.76,3.44-7.15,5.13s-4.95,3.72-7.43,5.56c-1.26.94-2.55,1.83-3.82,2.75s-2.5,1.87-3.78,2.77c-4.94,3.48-9.88,7-15,10.26L174.62,529q-1.91,1.25-3.84,2.45c-2.61,1.63-5.28,3.16-7.89,4.8s-5.43,3.47-8.24,5.08c-2.66,1.51-5.38,2.95-8.05,4.46s-5.46,3.2-8.28,4.65c-1.37.71-2.76,1.37-4.13,2.09s-2.74,1.51-4.1,2.28c-1.13.64-2.29,1.24-3.45,1.82a1.5,1.5,0,0,0-.54,2.05,1.54,1.54,0,0,0,.89.69,1.46,1.46,0,0,0,1-.08c.06.5.13,1,.19,1.48.2,1.52.37,3,.49,4.56s.21,3.08.32,4.62.17,3.11.2,4.66.08,3,.14,4.56q0,1.05.12,2.1c0,.71.11,1.43.13,2.13a1.5,1.5,0,0,0,2.83.7,81.07,81.07,0,0,0,8.37-4.24c1.29-.74,2.57-1.51,3.85-2.27s2.82-1.64,4.2-2.5l4-2.48c1.32-.82,2.65-1.62,4-2.42s2.61-1.54,3.94-2.28,2.71-1.48,4.06-2.23,2.59-1.5,3.88-2.27,2.75-1.62,4.13-2.43c2.69-1.58,5.36-3.19,8-4.78s5.44-3.08,8.13-4.68,5.37-3.19,8.07-4.75c1.32-.77,2.64-1.54,3.93-2.36s2.56-1.66,3.84-2.5,2.57-1.71,3.85-2.57,2.41-1.64,3.57-2.53,2.27-1.82,3.41-2.73c1-.79,2-1.56,3-2.33,2.44-1.88,5-3.66,7.49-5.42,1.24-.86,2.46-1.75,3.7-2.61s2.6-1.88,3.84-2.89,2.53-2.07,3.82-3.08a1,1,0,0,0,.27-.21l.21-.16a1.81,1.81,0,0,0,.23-.18c.92-.7,1.85-1.38,2.76-2.09s1.57-1.25,2.31-1.92l1.12-1,.52-.49a4.18,4.18,0,0,0,.53-.5,2,2,0,0,0,.18-.25l1.32-1.21c1.11-1,2.27-2,3.37-3.05s2.17-2,3.23-3.06,2.16-2.13,3.28-3.13l.52-.43c.65-.49,1.3-1,1.93-1.48s1.08-.93,1.61-1.41c1.13-1,2.13-2.19,3.22-3.27s2.36-2.16,3.6-3.18c.59-.49,1.19-1,1.76-1.48a16.73,16.73,0,0,0,1.55-1.6c1-1.13,1.9-2.35,2.89-3.49s2-2.23,3-3.35,2.12-2.31,3.2-3.46,2.05-2.27,3.09-3.4c1.52-1.64,3.19-3.12,4.77-4.7.8-.8,1.57-1.61,2.29-2.48s1.63-2.07,2.43-3.12l-.23.31c1-1.23,2-2.41,3-3.56s2-2.27,3-3.4,2-2.14,3-3.25,2.14-2.45,3.21-3.67c1.49-1.71,2.92-3.49,4.28-5.3s2.46-3.44,3.74-5.13c.88-1.12,1.81-2.2,2.72-3.29s1.91-2.42,2.87-3.63,2-2.44,3-3.67,1.94-2.44,2.93-3.66q.79-1,1.56-2c1.13-1.44,2.27-2.86,3.38-4.32l-.23.31c1.22-1.57,2.47-3.11,3.71-4.66l1.85-2.28c.65-.81,1.27-1.64,1.9-2.46.89-1.12,1.81-2.22,2.71-3.34s2-2.46,3.12-3.59,2.11-2.11,3.12-3.22,2.05-2.19,3.07-3.31,2.07-2.31,3.09-3.48,2-2.18,3.09-3.24,2.09-2.13,3.13-3.19,2-2.21,3-3.34c.62-.72,1.29-1.39,1.93-2.08s1.3-1.41,2-2.09,1.32-1.31,1.95-2a12.56,12.56,0,0,0,1-1.22,7.21,7.21,0,0,0,.84-1.45,1.14,1.14,0,0,0,0-.66,1.57,1.57,0,0,0,.14-.64,1.63,1.63,0,0,0-.44-1.06.76.76,0,0,1-.08-.11s0,0,0,0l-.08-.1.08.1,0,0-.1-.13h0c-.79-1-1.55-2.1-2.41-3.09s-1.88-2.09-2.84-3.1q-3.09-3.23-5.89-6.69c-.31-.4-.61-.81-.9-1.22l-.49-.69c-.17-.26-.37-.51-.51-.78a1.44,1.44,0,0,0-1.29-.74,1.54,1.54,0,0,0-.76.2Zm12.69,17.87s0,0,0,.07l0,.08.06-.15ZM336.29,410l-.11.14.11-.14ZM218.83,531.54l-.27.21.27-.21Z" transform="translate(-125.9 -220.13)"/>
    <path class="cls-1" d="M131.16,220.13a1.51,1.51,0,0,0-1.46,1.09,1.53,1.53,0,0,0,.8,1.76,1.71,1.71,0,0,0-.31.9c-.14,3-.3,5.91-.48,8.86-.1,1.53-.22,3.06-.32,4.59s-.11,2.93-.12,4.4,0,2.7-.1,4.05c-.07,1.14-.22,2.28-.28,3.42a1.5,1.5,0,0,0,1.5,1.5,1.59,1.59,0,0,0,.69-.16,1.48,1.48,0,0,0,.29.12c1.31.41,2.61.85,3.89,1.31s2.57,1,3.84,1.56l-.08,0,1.66.7c.81.35,1.62.71,2.42,1.1,1,.48,2,1,2.92,1.5,1.94,1,3.91,1.92,5.94,2.74s3.81,1.45,5.71,2.17,3.75,1.47,5.64,2.16c2.16.79,4.28,1.65,6.44,2.45,1.06.4,2.14.76,3.21,1.13s2.29.85,3.42,1.32c1.72.74,3.42,1.52,5.12,2.28,1.87.84,3.75,1.64,5.63,2.45l5.73,2.48,1.46.63.72.31.18.08.14.06a4.29,4.29,0,0,0,.59.24c4,1.69,8.05,3.29,12.07,4.92,3.85,1.56,7.72,3.06,11.55,4.66,1.18.5,2.34,1,3.53,1.48s2.31.85,3.47,1.26c2.25.81,4.49,1.66,6.7,2.58l-.36-.15c2.11.9,4.21,1.83,6.34,2.67s4.23,1.57,6.36,2.32,4.27,1.47,6.4,2.21,4,1.41,5.95,2.13c1.18.43,2.36.83,3.53,1.28,1.36.52,2.7,1.07,4.05,1.61,2.59,1.05,5.2,2,7.78,3.11,3.81,1.63,7.57,3.35,11.38,5l.88.37.1,0,.52.22,1.69.71c1.92.8,3.85,1.6,5.78,2.37l2.72,1.12L296,317c2.35,1,4.68,2.07,7,3.07s4.72,1.91,7.07,2.9l-.05,0c2.2.93,4.41,1.87,6.6,2.82,1.08.46,2.18.92,3.27,1.36s2,.73,3,1.13,2,.92,2.94,1.43c1.11.58,2.18,1.24,3.29,1.81s2.37,1.09,3.57,1.59,2.24.91,3.36,1.36a15.13,15.13,0,0,0,2.1.85c.26.07.52.11.77.16a1.54,1.54,0,0,0,1.3.26,1.52,1.52,0,0,0,1.05-1.85c-.32-1.17-.69-2.32-1-3.5s-.59-2.53-.79-3.82-.28-2.9-.4-4.34c-.13-1.63-.22-3.26-.24-4.9-.05-3-.09-5.9,0-8.84,0-.92.1-1.83.22-2.74l0,.19a1.51,1.51,0,0,0-.16-1.06,1.45,1.45,0,0,0-.83-.67l0-.06a1.5,1.5,0,0,0-.71-.61l.16.07c-.59-.26-1.16-.57-1.75-.85-.91-.44-1.86-.77-2.8-1.16-1.55-.68-3.07-1.42-4.63-2.09-1.8-.76-3.6-1.54-5.41-2.29l.36.14c-1.91-.8-3.81-1.66-5.7-2.53s-3.9-1.76-5.83-2.67c-3.74-1.76-7.54-3.39-11.34-5-2.13-.91-4.27-1.79-6.41-2.67h0c-1-.41-1.92-.85-2.89-1.27s-2.11-.88-3.17-1.28c-1.86-.72-3.72-1.42-5.61-2.07-1-.34-1.95-.66-2.9-1l-2.6-1.05c-1.93-.79-3.9-1.5-5.83-2.3l.36.15c-1.75-.74-3.47-1.52-5.22-2.27s-3.72-1.5-5.6-2.21c-3.53-1.32-7.07-2.65-10.55-4.11l.35.15c-1.87-.79-3.74-1.61-5.62-2.38s-3.66-1.47-5.49-2.16-3.68-1.47-5.52-2.19-3.82-1.35-5.7-2.12-3.49-1.58-5.21-2.41-3.75-1.68-5.62-2.51c-3.84-1.67-7.73-3.23-11.64-4.7-2-.76-4-1.54-6-2.29s-3.91-1.41-5.84-2.18c-3.93-1.59-7.85-3.21-11.77-4.81q-2.92-1.19-5.88-2.3c-1.94-.73-3.91-1.39-5.87-2s-4.15-1.39-6.21-2.15-4-1.44-6.06-2.19c-.86-.32-1.73-.67-2.59-1-1.86-.81-3.67-1.73-5.54-2.53q-3.12-1.35-6.29-2.58c-2-.77-3.94-1.52-5.89-2.29s-3.71-1.43-5.61-2l-.49-.14a1.74,1.74,0,0,0-.39-.05Zm14.74,8.66,1.31.54.07,0-1.38-.57Zm1.2.49.09,0h0l-.09,0ZM222.66,285h0Zm0,0h0ZM339.1,306.13v0Zm-66.05,1.14.2.08-.2-.08Zm14.63,3.09.59.26-.58-.24h0l.09,0-.09,0Zm31.07,13.09h.05l.77.33-.64-.27-.14,0,0,0Zm.08,0,.07,0-.07,0Zm18.71,8c0,.14.07.27.1.41h0l-.09-.41Z" transform="translate(-125.9 -220.13)"/>
  </g>
  <g id="Hardware">
    <path class="cls-2" d="M559.36,267.73a33.84,33.84,0,0,0-5,.71,26.66,26.66,0,0,0-4.38,1.42,42.41,42.41,0,0,0-4.71,2.13c-1.37.75-2.68,1.58-4,2.45a50.1,50.1,0,0,0-7.5,6c-2.25,2.24-4.31,4.67-6.41,7s-3.93,4.62-5.84,7c-1,1.23-2,2.47-3,3.71L517.16,300c-.48.61-1,1.2-1.42,1.85a1.5,1.5,0,1,0,2.59,1.52c.09-.14.18-.27.28-.4,1.9-2.44,3.85-4.85,5.8-7.25s3.9-4.72,5.94-7c1.48-1.66,2.93-3.35,4.47-5a44.54,44.54,0,0,1,4.74-4.37q2.36-1.8,4.86-3.39a39.47,39.47,0,0,1,5.35-2.8c1.21-.5,2.42-1,3.66-1.37a25.49,25.49,0,0,1,3.76-.83,47.27,47.27,0,0,1,9-.25c1.63.11,3.25.29,4.88.44s3.05.25,4.58.38,3.17.34,4.75.52,3.21.36,4.82.48c2.94.23,5.88.28,8.82.37s6.12.3,9.18.33,6.12.1,9.17.38c1,.09,2.07.21,3.1.34,3,.43,6.07,1,9.12,1.41,1.55.2,3.1.37,4.65.52s3.08.28,4.62.46,2.85.35,4.28.47a1.5,1.5,0,0,0,1.06-2.56,1.56,1.56,0,0,0-1.06-.44c-2.4-.19-4.79-.56-7.18-.77s-4.65-.45-7-.75c-3-.43-6-1-9-1.41-1.58-.19-3.16-.34-4.75-.43s-3.14-.18-4.71-.21-3.06,0-4.6-.05-3-.12-4.52-.2c-3-.15-5.92-.14-8.88-.31-3.17-.18-6.32-.53-9.47-.91-1.52-.18-3-.29-4.56-.41l-4.73-.43c-1.58-.16-3.17-.27-4.76-.31h-.91c-1.23,0-2.47,0-3.69.13Zm64.81,4.57.18,0-.18,0Z" transform="translate(-125.9 -220.13)"/>
    <path class="cls-2" d="M637.54,273.86a1.5,1.5,0,0,0-.48,2.94,3.4,3.4,0,0,0,1,.06h.34c.4,0,.78,0,1.17.06a21.84,21.84,0,0,1,3,.84c1.11.36,2.2.77,3.32,1.09s2,.52,3,.85,2,.73,3,1.14a28.13,28.13,0,0,1,5.71,3.22,35.77,35.77,0,0,1,2.66,2.4c1,1,2.14,1.94,3.2,2.92a31.61,31.61,0,0,1,2.67,2.88c.82.95,1.62,1.91,2.39,2.9q2.52,3.32,4.76,6.84c1.56,2.45,3.07,4.94,4.46,7.5q1,1.92,1.92,3.93a27.71,27.71,0,0,1,1.65,6.33c.36,2.81.53,5.65.62,8.49,0,1.46.05,2.93,0,4.39s-.27,2.78-.43,4.16c-.09.78-.24,1.56-.28,2.34a1.5,1.5,0,0,0,3,0c0-.63.14-1.26.23-1.89s.16-1.41.25-2.12a40.82,40.82,0,0,0,.28-4.28,83.89,83.89,0,0,0-.38-8.68,32.78,32.78,0,0,0-1.83-9.09,64,64,0,0,0-4.42-8.6c-1.44-2.47-3-4.88-4.59-7.22-.81-1.16-1.64-2.31-2.49-3.44s-2-2.45-3-3.65a32,32,0,0,0-3-3.17c-.6-.55-1.23-1.08-1.84-1.63s-1.08-1-1.62-1.56a25.76,25.76,0,0,0-3.35-2.8,30.26,30.26,0,0,0-3.79-2.18,41.69,41.69,0,0,0-4.43-1.83c-1.32-.45-2.67-.75-4-1.15s-2.67-.9-4-1.33a13.86,13.86,0,0,0-2.55-.58,14.29,14.29,0,0,0-1.6-.08Zm.32.05h0Z" transform="translate(-125.9 -220.13)"/>
    <path class="cls-2" d="M625.69,303.22a44.83,44.83,0,0,0-5,.66c-2.93.57-5.8,1.33-8.66,2.12-1.53.42-3.06.84-4.58,1.31s-2.93,1-4.39,1.48c-2.9,1-5.8,1.95-8.71,2.89s-5.83,1.72-8.73,2.62-5.8,1.91-8.68,2.92-5.78,2-8.63,3.13-5.93,2.35-9,3.31L555,325c-1.43.44-2.85.91-4.28,1.35s-2.87.85-4.28,1.31-2.75.93-4.12,1.4c-.95.32-1.89.64-2.82,1s-2,.81-2.91,1.25-1.6.78-2.4,1.18l-1.17.59c-.22.1-.44.21-.65.33a4.47,4.47,0,0,0-.61.33l0,0L531,334c-.68.25-1.36.47-2,.71-1.28.47-2.56,1-3.84,1.46-1.5.58-3,1.15-4.48,1.76l-2,.82c-1.42.59-2.85,1.16-4.25,1.8s-2.64,1.2-3.92,1.86c-.62.32-1.2.72-1.77,1.09a21.35,21.35,0,0,0-1.89,1.39l-.09.07a2.62,2.62,0,0,0-.53.34c-.54.42-1,.89-1.55,1.36s-1.11,1.05-1.64,1.59a33.29,33.29,0,0,0-3.24,3.69,32.8,32.8,0,0,0-4.21,8.2,48.76,48.76,0,0,0-2.53,9.1c-.27,1.63-.47,3.26-.59,4.91s-.13,3.07-.14,4.61,0,3,.07,4.53a41,41,0,0,0,.55,5.05,47.41,47.41,0,0,0,1,4.7c.4,1.43.9,2.84,1.41,4.23l1.62,4.44c.5,1.36,1,2.74,1.5,4.09.64,1.64,1.27,3.29,1.9,4.93a2.34,2.34,0,0,0,.19.49h0c.42,1.09.83,2.17,1.24,3.26.54,1.46,1.11,2.9,1.66,4.35s1.12,3,1.69,4.49c1.06,2.78,2.06,5.59,3.08,8.39s2.13,5.72,3.13,8.61q.7,2,1.35,4.08c.44,1.45.85,2.9,1.27,4.35.89,3.06,2,6.06,3.08,9.06,1,2.82,2.17,5.61,3.27,8.41,1.38,3.5,2.81,7,4.28,10.47l0-.07c.51,1.22,1,2.45,1.56,3.65s1,2.21,1.49,3.33c0-.13-.1-.24-.15-.36.41,1,.8,2,1.21,2.94l.51,1.35c.54,1.44,1.07,2.87,1.72,4.25.31.64.66,1.26,1,1.9s.62,1.34.94,2a20,20,0,0,0,1,2,17.84,17.84,0,0,0,1.53,2.12,13.87,13.87,0,0,0,2.29,2.24,9.91,9.91,0,0,0,2.72,1.46,9.14,9.14,0,0,0,2.69.55,7,7,0,0,0,1.64-.11,4.07,4.07,0,0,0,1.31-.59,1.52,1.52,0,0,0,.54-2.05,1.5,1.5,0,0,0-2.05-.54l-.38.22-.27.07a8,8,0,0,1-1.2,0,9,9,0,0,1-1.77-.52,10,10,0,0,1-1.51-.89,16.25,16.25,0,0,1-2.11-2.2,16.68,16.68,0,0,1-1.25-2c-.38-.7-.7-1.44-1-2.16-.65-1.42-1.41-2.78-2-4.21-.26-.64-.5-1.29-.75-1.94a.81.81,0,0,0-.06-.31l-.44-1.05s0,0,0-.05,0,0,0,0,0,0,0,0a1,1,0,0,0-.07-.15q-.24-.66-.51-1.32c-.19-.49-.4-1-.56-1.5a1.5,1.5,0,0,0-.32-.58c-.14-.32-.27-.65-.41-1-.54-1.23-1.12-2.45-1.66-3.69L527,474.63a1.8,1.8,0,0,0,.08.21c-.59-1.39-1.15-2.8-1.72-4.21s-1.19-2.89-1.76-4.34c-1.1-2.79-2.21-5.57-3.28-8.36-.55-1.46-1.06-2.93-1.59-4.4s-1.05-2.95-1.5-4.45-.84-2.95-1.28-4.41-.87-2.78-1.33-4.17c-1-2.86-2-5.69-3.08-8.53s-2-5.69-3.11-8.52-2.23-5.9-3.37-8.85q-.9-2.34-1.78-4.7c-.07-.34-.09-.7-.16-1-.1-.65-.23-1.29-.33-1.94-.13-1.1-.23-2.21-.38-3.31s-.38-2.47-.55-3.7a.43.43,0,0,1,0,0s0,0,0-.06,0-.23-.05-.34c0,.1,0,.19.05.29a41.57,41.57,0,0,1-.41-5.11,39.87,39.87,0,0,1,.31-5.12,43.18,43.18,0,0,1,.84-4.37,38.27,38.27,0,0,1,1.57-4.75,23.39,23.39,0,0,1,1.28-2.49,27,27,0,0,1,1.66-2.45c.59-.74,1.19-1.45,1.85-2.13A24.48,24.48,0,0,1,511,371.6a1,1,0,0,0,.31-.42,10.77,10.77,0,0,1,1.18-.7c.64-.33,1.31-.59,2-.89,1.41-.63,2.81-1.3,4.23-1.91s2.61-1,3.92-1.52,2.71-1,4.07-1.51,2.63-1,4-1.51c.59-.2,1.19-.37,1.79-.56s1.29-.44,1.94-.63c.49-.15,1-.27,1.47-.41s1.1-.36,1.64-.55a1.64,1.64,0,0,0,.85-.61l.5-.2c.74-.29,1.47-.6,2.19-.94,1.32-.6,2.63-1.19,3.95-1.77,2.81-1.17,5.68-2.18,8.58-3.09s5.91-1.77,8.86-2.71c6.07-1.95,12.18-3.76,18.21-5.86,3-1,6-2.07,9-3.05s5.9-1.83,8.87-2.68c1.49-.44,3-.85,4.49-1.19s2.77-.59,4.15-.92c2.92-.7,5.79-1.61,8.74-2.22,1.25-.26,2.52-.48,3.78-.66a18.28,18.28,0,0,1,2.66-.17,1.41,1.41,0,0,0,1,.41,11.13,11.13,0,0,1,2.58,0,10.13,10.13,0,0,1,2,.62l.9.39c.05-.19.1-.37.16-.54a23.16,23.16,0,0,1,1.87-4.23,9.44,9.44,0,0,1,1.59-2.15,8.2,8.2,0,0,1,4.08-1.91,7.76,7.76,0,0,1,3.11,0c.22,0,.46,0,.69,0,.51-.08,1-.2,1.53-.27,1.07-.15,2.14-.23,3.21-.37l-.88.12,2-.25c.37-.07.73-.16,1.11-.22a11.51,11.51,0,0,1,1.68-.19,2.94,2.94,0,0,1,1.16.21,5.06,5.06,0,0,1,1,.41l0-.08a.93.93,0,0,0,.05-.29,9.9,9.9,0,0,0,.92-3.75,15.15,15.15,0,0,0,0-2.13,20.28,20.28,0,0,0-.32-2.45,15.9,15.9,0,0,0-.52-2,21.79,21.79,0,0,0-3.68-6.57,9.69,9.69,0,0,0-1.55-1.45c-.72-.56-1.49-1.07-2.25-1.56a19.45,19.45,0,0,0-4.48-2.09,27.81,27.81,0,0,0-4.62-1,38.23,38.23,0,0,0-4.54-.36l-1.64,0c-1,0-2,0-3,.09ZM620.07,335l-.26,0,.26,0Zm-102.81,7.53h0l-.76.32.72-.31Zm0,0-.06,0,.06,0Zm-.06,0h0Zm-11.34,7.59v.05a.08.08,0,0,1,0-.05Zm-7.33,47.05c0-.23,0-.45,0-.68,0,.24,0,.47,0,.71v0Z" transform="translate(-125.9 -220.13)"/>
    <path class="cls-2" d="M640.63,327.47l.78-.1-.78.1Z" transform="translate(-125.9 -220.13)"/>
    <path class="cls-2" d="M391.93,255.93c-1.63,0-3.25.09-4.86.17a42.06,42.06,0,0,0-4.87.49,60.05,60.05,0,0,0-8.64,2.38,43.79,43.79,0,0,0-4.53,1.77c-1.39.63-2.72,1.37-4.06,2.1a54.48,54.48,0,0,0-8.14,5.32c-1.26,1-2.47,2.11-3.64,3.22S351,273.5,350,274.62a49.45,49.45,0,0,0-5.65,7.6,55.14,55.14,0,0,0-4,8.4c-.56,1.43-1.09,2.89-1.59,4.35-.26.78-.52,1.56-.75,2.36a1.28,1.28,0,0,0-.39.67.19.19,0,0,1,0,.08,6.44,6.44,0,0,0-.37.95c-.09.35-.14.71-.21,1.06-.14.75-.21,1.5-.29,2.25a13.91,13.91,0,0,1-.37,1.37,11.53,11.53,0,0,0-.26,1.68c-.1.59-.3,1.15-.39,1.75-.11.82-.13,1.66-.19,2.49s-.14,1.42-.21,2.14-.05,1.38-.09,2.07c-.08,1.42-.11,2.86-.1,4.28s0,3,.16,4.45.31,3.1.45,4.65c.13,1.35.2,2.69.29,4a26.49,26.49,0,0,0,1.63,8.41c.56,1.37,1.18,2.72,1.81,4.06.57,1.18,1.13,2.37,1.76,3.52s1.31,2.3,2,3.41c.89,1.35,1.91,2.61,2.91,3.88l2.73,3.43c.83,1,1.72,2.07,2.59,3.1s1.85,2.34,2.79,3.51,1.85,2.27,2.78,3.41c.41.49.81,1,1.2,1.49.85,1.11,1.7,2.23,2.61,3.29s1.94,2.19,2.88,3.32,1.87,2.31,2.84,3.44,1.89,2.23,2.79,3.38c.47.62.91,1.26,1.36,1.89s1.09,1.46,1.65,2.18,1.07,1.38,1.61,2.06,1,1.26,1.54,1.89c.73,1,1.44,1.94,2.19,2.9s1.39,1.66,2.12,2.47,1.48,1.64,2.21,2.47l1.2,1.32c.34.39.72.76,1,1.18a1.34,1.34,0,0,0,.75.4,67.45,67.45,0,0,0,5.13,4.73,26.14,26.14,0,0,0,3.94,2.9,18.65,18.65,0,0,0,1.72.89,10.19,10.19,0,0,0,2,.73,11.07,11.07,0,0,0,2.22.29,6.13,6.13,0,0,0,2.66-.61,7.94,7.94,0,0,0,1.5-.92,12.69,12.69,0,0,0,1.65-1.45,13.6,13.6,0,0,0,2.56-3.89c.6-1.42,1.06-2.89,1.56-4.35s1-2.74,1.38-4.14.85-2.8,1.3-4.19.75-2.56,1.16-3.82c.2-.61.44-1.22.64-1.83s.34-1.05.54-1.56a1.49,1.49,0,0,0-.15-1.15,17.18,17.18,0,0,0-1.15-.92,1.49,1.49,0,0,0-1.15-.15,1.42,1.42,0,0,0-.9.69,31.77,31.77,0,0,1-1.56,3,29,29,0,0,0-1.54,3.35,24.94,24.94,0,0,1-2.67,5,6.71,6.71,0,0,1-.7.71,3.21,3.21,0,0,1-1.61.67,5.13,5.13,0,0,1-1,0,5.47,5.47,0,0,1-2.7-1.19c-1.21-1-2.37-2-3.52-3-.57-.52-1.15-1-1.68-1.6a24.43,24.43,0,0,1-1.6-1.93c-.67-.87-1.37-1.72-2.05-2.58-.42-.55-.85-1.11-1.29-1.66s-.86-1-1.29-1.5l-.08-.08c-.34-.4-.68-.81-1-1.21-.68-.78-1.36-1.57-2-2.37-1.37-1.66-2.7-3.36-4-5.07-.88-1.14-1.73-2.32-2.58-3.48s-1.83-2.44-2.76-3.65-2.06-2.68-3.11-4-1.92-2.34-2.88-3.5c-1.13-1.39-2.24-2.81-3.34-4.23l-3-3.86c-1.77-2.3-3.44-4.66-5.17-7s-3.64-4.62-5.45-6.93c-.88-1.16-1.7-2.35-2.53-3.54s-1.73-2.42-2.6-3.62a63.87,63.87,0,0,1-4.58-7.45c-.62-1.17-1.22-2.36-1.75-3.58l0,0a24.94,24.94,0,0,1-1.66-5.46c-.06-.46-.1-.92-.14-1.37s0-1.18,0-1.77a1.33,1.33,0,0,0-.13-.62v-.45c0-.75,0-1.5.07-2.24.08-1.44.19-2.88.36-4.31.15-1,.35-2.06.6-3.07s.64-2.24,1-3.34c.7-2.14,1.5-4.23,2.36-6.3a55.56,55.56,0,0,1,2.65-5.36,46,46,0,0,1,3.26-4.88,55.53,55.53,0,0,1,4.22-4.72,62.65,62.65,0,0,1,5.06-4.57,52.65,52.65,0,0,1,6-3.94,67.11,67.11,0,0,1,6.37-3.27c2-.79,4-1.42,6.06-2.05a41.92,41.92,0,0,1,6.17-1.46c1.4-.17,2.81-.24,4.23-.31,1.62-.08,3.24-.12,4.86-.13,3,0,6,.34,9,.51,1,.06,2,.09,3,.11s2,0,3,.12a18.56,18.56,0,0,1,4.14,1.08,14.94,14.94,0,0,1,2.62,1.53,10,10,0,0,1,1.24,1.28,9.07,9.07,0,0,1,.76,1.27,10.6,10.6,0,0,1,.52,2,16.79,16.79,0,0,1,.13,2,17.3,17.3,0,0,1-.16,2.16,40.85,40.85,0,0,1-.85,4.1c-.38,1.4-.93,2.75-1.43,4.11s-.94,2.65-1.35,4c-.2.68-.41,1.36-.58,2.06s-.3,1.34-.51,2a1.5,1.5,0,0,0,1.05,1.84,1.51,1.51,0,0,0,1.84-1c.21-.65.34-1.33.51-2s.39-1.41.6-2.11c.43-1.42.92-2.83,1.43-4.23s1.05-2.79,1.44-4.24a34.38,34.38,0,0,0,.9-4.82A18.24,18.24,0,0,0,420,266a9.1,9.1,0,0,0-1.65-4,9.9,9.9,0,0,0-1.73-1.87,14.62,14.62,0,0,0-2.25-1.49A16.36,16.36,0,0,0,409.9,257a22.62,22.62,0,0,0-4.57-.44c-1.43,0-2.86-.07-4.28-.18s-3.05-.23-4.58-.34c-1.2-.08-2.4-.11-3.6-.11Zm-8.22,3.44-.29,0,.29,0Zm-11.8,3.36-.25.11.25-.11Zm44.59,1.82.05.11-.05-.11Zm-76.49,38a.49.49,0,0,0,0,.12.49.49,0,0,1,0-.12Zm48,83.64.07.1h0l-.07-.1Zm.08.11h0Zm20,10.07h0l-.12.13.12-.14ZM405.8,403a.42.42,0,0,0,0,.1.42.42,0,0,1,0-.1Z" transform="translate(-125.9 -220.13)"/>
    <path class="cls-2" d="M437.66,358.07a1.52,1.52,0,0,0,.54,2.06,8.4,8.4,0,0,1,.94.61,10.36,10.36,0,0,1,1.4,1.41,10,10,0,0,1,.94,1.65,13.63,13.63,0,0,1,.69,2.5,14.61,14.61,0,0,1,0,3.17,28.41,28.41,0,0,1-.91,3.72c-.35,1.19-.73,2.38-1.1,3.57-.78,2.48-1.54,5-2.53,7.36-1.17,2.74-2.41,5.45-3.6,8.18s-2.48,5.69-3.56,8.6c-.53,1.45-1,2.91-1.46,4.39-.32,1-.68,2-1,3.08l-.06.14c-.54,1.44-1.14,2.85-1.64,4.3-.91,2.65-1.84,5.3-2.63,8-.41,1.39-.82,2.78-1.14,4.2a45.51,45.51,0,0,0-.8,5.06,47.26,47.26,0,0,0-.13,8.9c.13,1.61.36,3.22.65,4.81.14.76.36,1.51.57,2.25s.44,1.51.69,2.26a35.31,35.31,0,0,0,4.58,8.23c.46.66.95,1.32,1.44,2l.19.24h0a1.24,1.24,0,0,0,.19.26,1.66,1.66,0,0,0,.16.21l.12.15.11.13c.1.13.19.26.3.39.25.32.51.64.77.95.52.65,1.06,1.27,1.6,1.9,1,1.2,2.09,2.37,3.1,3.59,2.05,2.44,4.14,4.85,6.17,7.31s4,4.7,6,7c1.56,1.81,3.11,3.62,4.69,5.42,1.33,1.51,2.68,3,4,4.56l.07.1c.79,1,1.57,2.08,2.3,3.16s1.67,2.42,2.56,3.58,1.88,2.44,2.87,3.62,1.87,2.16,2.81,3.24,1.92,2.17,2.94,3.2,2.12,2.15,3.14,3.26c1.88,2.05,3.61,4.22,5.47,6.29,1.68,1.88,3.3,3.8,4.93,5.72s3.18,3.66,4.68,5.58c.8,1,1.59,2.11,2.39,3.17,1,1.29,2,2.52,3.09,3.75s2,2.25,3,3.36,2.05,2.19,3.14,3.22,2.41,2.16,3.65,3.18,2.47,2,3.74,2.93a85.4,85.4,0,0,0,7.64,5A43.17,43.17,0,0,0,524.3,557c1.49.47,3,.84,4.54,1.22s3,.74,4.5,1a38.87,38.87,0,0,0,9.81.57,32,32,0,0,0,5-.76,40.13,40.13,0,0,0,4.43-1.3,73.53,73.53,0,0,0,9.11-4.07q2.18-1.14,4.32-2.33c1.36-.76,2.74-1.51,4.08-2.3,2.68-1.57,5.27-3.28,7.8-5.06a55.36,55.36,0,0,0,7.17-5.79,24.52,24.52,0,0,0,2.74-3.19c.69-1,1.33-1.94,2-2.9a1.75,1.75,0,0,0,.65-.59,9.68,9.68,0,0,0,.5-.87c.16-.2.3-.41.45-.62a1.33,1.33,0,0,0,.18-.49c.14-.23.29-.45.42-.68a5.54,5.54,0,0,1-1.34-.49c-.87-.46-1.71-1-2.55-1.46-.53-.3-1.07-.58-1.6-.9-.36-.23-.7-.48-1-.74-.5.54-1,1.06-1.51,1.59-.93,1-1.84,1.94-2.76,2.91a54.61,54.61,0,0,1-5.41,4.9,40,40,0,0,1-4.06,2.73,47.15,47.15,0,0,1-4.38,2.2,56.64,56.64,0,0,1-13.09,3.95,59.17,59.17,0,0,1-6.09.44,40.49,40.49,0,0,1-5.93-.31,65.36,65.36,0,0,1-9-2c-1.46-.42-2.9-.88-4.35-1.33s-2.88-.9-4.29-1.41c-.93-.32-1.83-.68-2.74-1-.71-.31-1.41-.63-2.1-1-.86-.45-1.7-.94-2.53-1.44a47,47,0,0,1-4.19-2.8l.07.07a25.58,25.58,0,0,1-2.62-2.26c-.57-.58-1.11-1.19-1.64-1.82l-.05-.06-.6-.71a1.15,1.15,0,0,0-.23-.21c-.26-.31-.53-.63-.8-.93l-1.44-1.68c-1-1.19-2.05-2.34-3.08-3.51-2.05-2.33-4.2-4.58-6.19-7-2.41-2.89-4.74-5.85-7.05-8.83-1.69-2.22-3.33-4.48-5.08-6.66s-3.53-4.21-5.22-6.38c-.87-1.15-1.71-2.31-2.57-3.46s-1.87-2.51-2.75-3.79-1.66-2.5-2.5-3.75-1.62-2.35-2.38-3.55c-.43-.67-.83-1.35-1.22-2s-.92-1.48-1.38-2.23a1.46,1.46,0,0,0-.8-.65l-.8-1.05c-1.89-2.48-3.67-5.06-5.56-7.55q-1.57-2.08-3.23-4.09c-1-1.21-2-2.38-3-3.56-2.1-2.46-4.14-5-6.28-7.39s-4.31-4.56-6.33-7c-1.07-1.27-2.1-2.57-3.12-3.88-1.27-1.67-2.51-3.37-3.72-5.08a26.74,26.74,0,0,1-1.67-2.56,27.76,27.76,0,0,1-1.36-2.73,16.64,16.64,0,0,1-.8-2.38,21.76,21.76,0,0,1-.41-2.28v0a.06.06,0,0,1,0,0,.09.09,0,0,1,0-.05l0-.23,0,.2a25.31,25.31,0,0,1-.22-3.48,29.08,29.08,0,0,1,.25-3.48,52.08,52.08,0,0,1,1.67-7.58l.15-.39c.43-1.15.84-2.31,1.24-3.47a1.23,1.23,0,0,0,0-.63c.52-1.6,1.07-3.2,1.7-4.76l1-2.57c1.14-2.68,2.3-5.34,3.48-8,.68-1.52,1.36-3,2-4.55.57-1.36,1-2.75,1.5-4.14s.91-2.85,1.35-4.28.89-2.81,1.25-4.23a17.42,17.42,0,0,0,.58-4.87,13.21,13.21,0,0,0-1.15-4.91,9.59,9.59,0,0,0-1.8-2.73,10.45,10.45,0,0,0-2.57-2.06,1.59,1.59,0,0,0-.76-.19,1.53,1.53,0,0,0-1.3.73Zm-8.44,65.73v0Zm27,42h0l0,0,0,0h0l0,0,0,0,0,0ZM580,538.69c-.23.19-.47.39-.71.57h0l0,0-.07,0h0l.76-.6Z" transform="translate(-125.9 -220.13)"/>
    <path class="cls-2" d="M456.29,465.82h0v0Z" transform="translate(-125.9 -220.13)"/>
    <path class="cls-2" d="M579.3,539.23l0,0,0,0Z" transform="translate(-125.9 -220.13)"/>
    <path class="cls-2" d="M463.19,263.24a21.92,21.92,0,0,0-2.3.31,14.6,14.6,0,0,0-1.93.55,22.24,22.24,0,0,0-4.32,2.06,43.87,43.87,0,0,0-3.86,2.78q-1.78,1.38-3.46,2.91a80.1,80.1,0,0,0-6.16,6.34q-2.84,3.24-5.53,6.59c-.66.83-1.31,1.67-2,2.48s-1.57,1.79-2.35,2.7-1.42,1.71-2.12,2.59a18,18,0,0,0-1.93,2.81,1.5,1.5,0,0,0,2.6,1.51,13.73,13.73,0,0,1,1.33-2c.87-1.1,1.75-2.2,2.68-3.25s2-2.24,2.89-3.41c1.79-2.23,3.6-4.45,5.47-6.62,1.61-1.87,3.25-3.71,5-5.45A64.7,64.7,0,0,1,453,271c.88-.67,1.78-1.32,2.69-1.94a21.71,21.71,0,0,1,2.92-1.59c.59-.24,1.2-.46,1.82-.66a12.76,12.76,0,0,1,1.83-.42c1.31-.16,2.64-.25,4-.28a30.93,30.93,0,0,1,4.3.26c3.09.37,6.19.56,9.29.7,1.59.08,3.17.08,4.75.07s2.92.11,4.38.15c1.3,0,2.61,0,3.92,0s2.88-.1,4.33-.07c.46,0,.93,0,1.39.09.75.13,1.49.3,2.23.47a15.73,15.73,0,0,1,1.53.43l0,.06a15.64,15.64,0,0,1,1.16,2,9,9,0,0,1,.5,1.92,13.58,13.58,0,0,1,.07,3.12,14.11,14.11,0,0,1-.86,3c-.51,1.15-1.06,2.27-1.59,3.41-.61,1.29-1.29,2.55-1.95,3.82s-1.23,2.5-2,3.67c-.4.63-.8,1.27-1.23,1.89-.28.42-.56.84-.81,1.29a22.34,22.34,0,0,1-1.54,2.45l.05-.07c-.32.43-.64.87-.94,1.33l-.21.33a1,1,0,0,0-.21.3l-.05.09c-.06.09-.11.18-.17.26a1.66,1.66,0,0,0-.38,1.21,9.1,9.1,0,0,0-.24,3.33,7.73,7.73,0,0,0,.22,1.26,8.58,8.58,0,0,0,.5,1.34,5.34,5.34,0,0,0,1.84,2.13,6.72,6.72,0,0,0,1.46.75,4.28,4.28,0,0,0,2.74.05,6.28,6.28,0,0,0,3.24-2.66,21.45,21.45,0,0,0,2-4.24,18.61,18.61,0,0,0,1-3c.14-.69.24-1.4.39-2.1a1.46,1.46,0,0,0,.37-.64c.33-1.36.65-2.73,1-4.09s.73-2.85,1.08-4.28.66-3,1-4.51a20.88,20.88,0,0,0,.77-4.7,14.93,14.93,0,0,0-.69-4.65,18.48,18.48,0,0,0-1.07-2.46,16.17,16.17,0,0,0-1.07-1.85,5.91,5.91,0,0,0-1.92-1.87,10.07,10.07,0,0,0-2-.84c-.62-.19-1.25-.34-1.88-.48a22.3,22.3,0,0,0-2.42-.43,32.75,32.75,0,0,0-4.54,0c-1.29,0-2.58.06-3.87,0s-2.83-.09-4.25-.15c-.83,0-1.67,0-2.51,0s-1.45,0-2.17,0c-1.57,0-3.13-.13-4.7-.23s-3.14-.2-4.7-.38-2.87-.35-4.31-.4h-.75c-1.18,0-2.37.09-3.54.19Zm32.17,35.13h0l-.06.13.06-.14Zm5.22,2.49c0,.05-.05.1-.07.16a1.12,1.12,0,0,0,.05-.13l0,0Z" transform="translate(-125.9 -220.13)"/>
    <path class="cls-2" d="M417.69,269.27a1.61,1.61,0,0,0-.44,1.06c0,.32,0,.63,0,.95s-.14.86-.19,1.29c-.09.7-.13,1.41-.22,2.11s-.15,1.24-.23,1.86-.22,1.48-.31,2.23v0c-.12.89-.29,1.78-.39,2.68-.08.7-.15,1.41-.22,2.11s-.15,1.45-.2,2.18c0,.37-.05.74-.08,1.11a5.93,5.93,0,0,0,0,.94,1.59,1.59,0,0,0,.44,1.07,1.53,1.53,0,0,0,1.06.43,1.55,1.55,0,0,0,1.06-.43,1.48,1.48,0,0,0,.44-1.07,3.88,3.88,0,0,1,0-.68l.06-1c0-.55.08-1.1.13-1.64.12-1.12.21-2.23.36-3.34.13-.87.27-1.74.39-2.62v.08c.15-1.11.3-2.22.44-3.33,0,.13,0,.26-.05.39.09-.67.18-1.34.25-2,.05-.41.07-.81.12-1.22s.12-.69.16-1,0-.64,0-1a1.4,1.4,0,0,0-.44-1.06,1.5,1.5,0,0,0-2.12,0Zm-.77,5a.68.68,0,0,0,0,.14.68.68,0,0,1,0-.14Zm-.25,1.92,0,.14a.68.68,0,0,0,0-.14Zm-.37,2.68,0,.23,0-.23Z" transform="translate(-125.9 -220.13)"/>
    <path class="cls-2" d="M413.36,286.87a1.54,1.54,0,0,0,.37,1.44,2.06,2.06,0,0,0,.34.51,1.63,1.63,0,0,0,.69.41,1.52,1.52,0,0,0,1.74-.28,1.29,1.29,0,0,0,.28-.38,1.51,1.51,0,0,0,.43-1.06,1.63,1.63,0,0,0-.44-1.06,2.71,2.71,0,0,0-1.56-.63h0a1.75,1.75,0,0,0-.4-.05,1.51,1.51,0,0,0-1.45,1.1Zm1.43-.36-.13.07,0,0,.09,0Zm-.08,0Zm1.78,2.38Z" transform="translate(-125.9 -220.13)"/>
    <path class="cls-2" d="M438.72,359.59a1.51,1.51,0,0,0,0,2.12c.17.18.33.37.49.56a7.82,7.82,0,0,1,.57,1,12.7,12.7,0,0,1,.67,2.56,7.86,7.86,0,0,1,0,1.68,64.06,64.06,0,0,1-2.08,8.18c-.4,1.38-.88,2.7-1.38,4s-1,2.51-1.48,3.75c-.89,2.11-1.73,4.24-2.54,6.38-.43,1.12-.91,2.21-1.31,3.33a14.15,14.15,0,0,0-.73,3.07,1.64,1.64,0,0,0,.15,1.15,1.5,1.5,0,0,0,2.05.54,1.42,1.42,0,0,0,.69-.9,15.38,15.38,0,0,1,.65-2.84c.35-1.06.84-2.08,1.23-3.12q1.15-3.11,2.42-6.15c.52-1.23,1-2.46,1.49-3.7s1-2.65,1.43-4,.82-2.84,1.24-4.26a40.21,40.21,0,0,0,1-4.21,11.61,11.61,0,0,0,.23-2.42,12,12,0,0,0-.41-2.6,12.51,12.51,0,0,0-.77-2.12,7.62,7.62,0,0,0-1.47-2.05,1.44,1.44,0,0,0-1-.43,1.55,1.55,0,0,0-1.07.43ZM438.1,385c0,.11-.09.22-.13.32,0-.1.09-.21.13-.32Z" transform="translate(-125.9 -220.13)"/>
    <path class="cls-2" d="M438.36,359.86a1.51,1.51,0,0,0-1.05,1.84c.14.61.31,1.21.46,1.81.21.82.38,1.65.52,2.48a10.67,10.67,0,0,1,.09,1.26,11.2,11.2,0,0,1-.09,1.3,30.07,30.07,0,0,1-1.05,4.18c-.44,1.44-1,2.85-1.44,4.28s-.91,2.83-1.33,4.25-.87,2.86-1.33,4.28-.95,2.62-1.38,3.94c-.2.61-.38,1.24-.56,1.86-.24.77-.47,1.54-.64,2.33a1.5,1.5,0,0,0,2.89.8c.18-.83.43-1.64.67-2.45s.42-1.39.65-2.08c.46-1.42,1-2.8,1.46-4.22.91-2.86,1.71-5.75,2.69-8.59.45-1.3.9-2.6,1.31-3.92a26.92,26.92,0,0,0,1-4,11,11,0,0,0,.17-2.22,18.06,18.06,0,0,0-.29-2.44c-.22-1.25-.6-2.45-.88-3.69a1.49,1.49,0,0,0-1.46-1.1,1.21,1.21,0,0,0-.38.06Z" transform="translate(-125.9 -220.13)"/>
    <path class="cls-2" d="M416.29,274.32v.05c-.21.46-.46.9-.67,1.36-.37.78-.76,1.54-1.16,2.31-.55,1-1.21,2-1.81,3.07s-1.26,2.29-1.94,3.4a28.22,28.22,0,0,0-2.86,4.7,1.41,1.41,0,0,0,.15,1.15,1.49,1.49,0,0,0,.89.69,1.47,1.47,0,0,0,1.16-.15,1.59,1.59,0,0,0,.69-.9h0a15.77,15.77,0,0,1,1.26-2.08c.29-.43.61-.84.9-1.28s.69-1.09,1-1.66c.64-1.14,1.28-2.3,2-3.42.3-.5.64-1,.92-1.49l.67-1.25c.32-.59.59-1.23.88-1.84s.5-1,.72-1.5a2.44,2.44,0,0,1-.1.24,4.47,4.47,0,0,0,.25-.6,1.51,1.51,0,0,0-1.05-1.84,1.32,1.32,0,0,0-.39-.06,1.53,1.53,0,0,0-1.46,1.1Z" transform="translate(-125.9 -220.13)"/>
  </g>
  <g id="Webbing">
    <path class="cls-3" d="M635,324.67a9.32,9.32,0,0,0-2.17.39,11.41,11.41,0,0,0-2,.85,10.23,10.23,0,0,0-1.75,1.33,18.66,18.66,0,0,0-1.35,1.32,7.53,7.53,0,0,0-1.11,1.68,9.82,9.82,0,0,0-.46,1.05,4.51,4.51,0,0,0-.22,1.14c-.06.5.08,1,.06,1.48a11.65,11.65,0,0,1-.53,2c-.18.4-.35.79-.51,1.19s-.32.92-.47,1.38a13.19,13.19,0,0,0-.4,1.26c0,.13-.07.26-.1.38-.27.3-.56.58-.84.87a8,8,0,0,0-1.39,1.88,40.26,40.26,0,0,0-1.65,4.15,9.32,9.32,0,0,1-.8,1.36c-.52.64-1.08,1.25-1.57,1.92a10.32,10.32,0,0,0-1.06,2.77,4.39,4.39,0,0,1-.27.47c-.1.11-.21.21-.32.31a7,7,0,0,1-1.08.59,18.3,18.3,0,0,0-2.13.93,8.11,8.11,0,0,0-2,1.75,23.23,23.23,0,0,0-1.62,2.18c-.47.71-.92,1.44-1.32,2.19a34.69,34.69,0,0,0-2,4.68c-.28.78-.52,1.56-.74,2.36a9.64,9.64,0,0,0-.24,1.19,8,8,0,0,0-.14,1.47c0,.64.17,1.26.14,1.9,0,.05,0,.09,0,.14a2.58,2.58,0,0,1-.18.32,10.62,10.62,0,0,1-.85.78,7,7,0,0,0-1,1.13c-.54.74-1,1.58-1.44,2.36a9.6,9.6,0,0,0-1.08,2.63c-.2.79-.33,1.59-.58,2.36a6,6,0,0,1-.54.91c-.41.49-.84.95-1.27,1.42s-1,1.21-1.47,1.84c-.29.36-.57.73-.84,1.1a7.59,7.59,0,0,0-.79,1.62,5.59,5.59,0,0,0-.28,1.51c0,.45.07.89.06,1.34,0,0,0,.07,0,.1a2,2,0,0,0-.11.2,2.09,2.09,0,0,1-.22.2,18.73,18.73,0,0,0-2.74,2.2,5.44,5.44,0,0,0-1.33,2.56c-.14.61-.25,1.23-.44,1.82a3.82,3.82,0,0,1-.29.48,18.71,18.71,0,0,1-2.09,2,23,23,0,0,0-2.19,1.89,6.52,6.52,0,0,0-1.45,3.36,19.76,19.76,0,0,1-.59,2.77,2.54,2.54,0,0,1-.16.28,1.21,1.21,0,0,1-.16.16l-.79.55a6.54,6.54,0,0,0-1.37,1.41,9.18,9.18,0,0,0-1.25,2.67,17.69,17.69,0,0,0-.52,2.89c-.11.82-.09,1.65-.18,2.46a4.21,4.21,0,0,1-.16.61c-.18.35-.39.68-.61,1s-.34.55-.53.81c-.39.48-.82.93-1.2,1.42a12.27,12.27,0,0,0-.87,1.3,7.16,7.16,0,0,0-.46,1,5.37,5.37,0,0,0-.33,1.58c0,.42,0,.84-.06,1.26a3.59,3.59,0,0,1-.12.47l-.12.21A11,11,0,0,1,573,431.3c-.63.47-1.3.89-1.94,1.35a4.19,4.19,0,0,0-1,1,3.4,3.4,0,0,0-.6,1.5c-.07.45-.08.91-.11,1.37a13.26,13.26,0,0,0-1.39,1,5.5,5.5,0,0,0-.69.84,7.17,7.17,0,0,0-.46.75,25.61,25.61,0,0,0-1.38,3.39,12.85,12.85,0,0,1-.77,1.41c-.37.61-.73,1.24-1.08,1.86a32.25,32.25,0,0,0-2,4.17c-.25.66-.48,1.32-.72,2s-.51,1.35-.74,2-.45,1.38-.64,2.07a19.23,19.23,0,0,0-.44,2.5l.06-.4c-.13.9-.32,1.77-.51,2.65a16.47,16.47,0,0,1-.65,2.41,5.77,5.77,0,0,1-.4.68,8.7,8.7,0,0,1-.92.9l-.89.59a6.24,6.24,0,0,0-1,.86,13.63,13.63,0,0,0-1.51,2.1c-.4.65-.79,1.3-1.17,2a20.81,20.81,0,0,0-1,2.2,6.2,6.2,0,0,1-.44.85l-.18.19c-.27.16-.55.31-.81.49a4.81,4.81,0,0,0-1,.92,12.61,12.61,0,0,0-1.25,2,23.27,23.27,0,0,0-1.2,2.46c-.23.59-.45,1.18-.67,1.77s-.63,1.34-1,2-.81,1.44-1.17,2.19c-.08.17-.16.35-.25.53a14.47,14.47,0,0,0-1,1.9c-.25.47-.48,1-.7,1.45a9.75,9.75,0,0,1-.71,1.36c-.18.23-.37.46-.53.7a8,8,0,0,0-.49.84,15.75,15.75,0,0,0-.85,1.87c-.23.56-.39,1.14-.6,1.71-.07.2-.14.38-.2.57l0,0a1.51,1.51,0,0,0-.54,2.05A5.33,5.33,0,0,0,539,499.9a15.1,15.1,0,0,0,1.6.82c.54.27,1.1.5,1.64.75a11.6,11.6,0,0,1,2.08,1.32c.19.15.39.3.57.47s.51.55.77.81a14.06,14.06,0,0,0,1.9,1.54c.47.33.95.65,1.45,1,.29.17.59.35.88.54a2.61,2.61,0,0,1,.23.24c.11.11.2.23.3.35h0a2.5,2.5,0,0,0,.23.23,1.93,1.93,0,0,0,.63.37c.9.65,1.77,1.33,2.68,1.95,1.49,1,3.07,1.89,4.62,2.79l2,1.16c.75.45,1.49.92,2.25,1.37,1.35.8,2.75,1.52,4.16,2.23,1.6.8,3.22,1.54,4.83,2.31q2.17,1.05,4.36,2c1.55.71,3.1,1.41,4.63,2.16a48.08,48.08,0,0,1,4.3,2.45c1.37.85,2.72,1.72,4.15,2.49.49.26,1,.52,1.5.76-.18.27-.35.56-.52.82-.5.76-1,1.53-1.57,2.25l.24-.31-.49.64c-.48.61-1,1.21-1.48,1.81s-1,1.3-1.53,1.94-.83,1-1.27,1.53a8.35,8.35,0,0,1-.95.93,4.49,4.49,0,0,1-.84,1.78h0a4,4,0,0,1-.4.43c-.56.53-1,1.16-1.59,1.66l-.12.1.45.3a11.78,11.78,0,0,0,1.63.81l4.94,2.34q2.31,1.1,4.64,2.15c1.82.82,3.69,1.51,5.53,2.28l-.35-.15c1.41.6,2.81,1.21,4.2,1.86s2.84,1.38,4.24,2.11c2.62,1.39,5.22,2.82,7.93,4q4.32,1.9,8.69,3.67c1.43.57,2.87,1.09,4.31,1.64s2.92,1.16,4.37,1.76c2.79,1.16,5.63,2.2,8.41,3.37s5.58,2.41,8.31,3.74l4.24,2c1.34.65,2.69,1.29,4.05,1.91s2.68,1.25,4,1.81,2.62,1,3.94,1.55q4.14,1.63,8.33,3.15c4,1.44,7.8,3.12,11.72,4.64s8.15,3,12.17,4.71c0,0,0,0-.08,0q2.1.9,4.18,1.87c1.47.69,2.94,1.4,4.42,2.08,3,1.35,6,2.59,8.94,3.84s6,2.47,9,3.72,5.83,2.36,8.74,3.57c1.4.59,2.79,1.18,4.2,1.74s2.88,1.1,4.33,1.65c2.85,1.08,5.71,2.15,8.56,3.24,1.52.58,3,1.18,4.55,1.77s3.21,1.3,4.82,1.92,3,1.15,4.5,1.68,3,1,4.53,1.59c2.23.82,4.46,1.67,6.66,2.59l-.22-.1c1.76.75,3.52,1.47,5.27,2.21l-.35-.15c3,1.27,6,2.51,9.07,3.65,1.45.55,2.89,1.09,4.35,1.59s3,1,4.43,1.5c3,1,6,2.16,8.93,3.25s5.84,2.25,8.73,3.46c.3.13.6.28.91.38l1,.43c3.17,1.36,6.33,2.75,9.49,4.13,1.58.69,3.15,1.39,4.73,2.06s3.17,1.31,4.76,2c2.48,1.06,4.93,2.2,7.43,3.24s5.1,2,7.66,2.91c2.71,1,5.41,2.05,8.1,3.12,2.45,1,4.9,2,7.33,3l-.08,0c1.58.68,3.15,1.38,4.68,2.14s3.3,1.59,5,2.34,3.19,1.33,4.78,2a5.92,5.92,0,0,0,.9.38c2.12.9,4.24,1.82,6.39,2.67s4.5,1.71,6.75,2.55a1.5,1.5,0,0,0,1.86-1.81,1.93,1.93,0,0,0,.09-.49c.11-1.23.09-2.46.13-3.69,0-.45,0-.91.05-1.36s0-1,0-1.52c0-.76-.07-1.51-.08-2.26a1.65,1.65,0,0,0-.08-.91,1.54,1.54,0,0,0-1.42-1h-.1c-1-.32-2-.71-3-1.09-1.35-.51-2.7-1-4-1.57-2.27-.89-4.55-1.77-6.8-2.71s-4.51-2-6.75-3.1-4.68-2.17-7.06-3.19-4.81-2-7.22-2.93-5-1.93-7.48-3c-4.48-2-8.84-4.15-13.32-6.08s-9.06-3.65-13.57-5.53c-3.25-1.39-6.47-2.87-9.74-4.24-3-1.28-6.11-2.49-9.16-3.76l.36.14c-4.17-1.78-8.32-3.6-12.51-5.35l-7-3c-2.43-1-4.85-2.07-7.29-3.08l.36.14c-4.13-1.76-8.18-3.69-12.33-5.42s-8.44-3.41-12.65-5.17l.12,0c-2.8-1.18-5.6-2.38-8.41-3.52q-3.93-1.58-7.84-3.19c-1.86-.8-3.7-1.63-5.57-2.43-2.22-1-4.44-1.88-6.67-2.81q-4.87-2.07-9.6-4.46-2.26-1.16-4.51-2.33c-1.65-.87-3.33-1.69-5-2.51-3.32-1.61-6.68-3.14-10-4.65-1.57-.71-3.16-1.37-4.73-2.06s-3.34-1.5-5-2.3c-3.15-1.52-6.3-3-9.44-4.57s-6.09-3-9.2-4.32c-3.32-1.45-6.68-2.78-9.94-4.37-1.49-.71-3-1.44-4.47-2.15a52.59,52.59,0,0,0-5.28-2.15c-1.9-.66-3.79-1.35-5.65-2.13-3.19-1.38-6.37-2.82-9.51-4.34-1.65-.8-3.27-1.64-4.92-2.45s-3.28-1.6-4.93-2.37-3.6-1.68-5.42-2.48-3.53-1.53-5.29-2.31c-1.6-.71-3.18-1.5-4.75-2.28s-3.15-1.55-4.72-2.34-3-1.52-4.59-2.24-3.19-1.38-4.79-2.06a43.92,43.92,0,0,1-4.68-2.28c-1.47-.84-2.9-1.78-4.35-2.68a80,80,0,0,0-8.8-4.36c-1.48-.68-2.94-1.41-4.43-2.09s-3.25-1.56-4.86-2.38q-1.9-1-3.72-2.07c-1.36-.82-2.72-1.63-4.1-2.42s-3-1.73-4.39-2.7c-.92-.62-1.79-1.3-2.69-1.95a4.47,4.47,0,0,0-.35-.41,7,7,0,0,0-1-.76c-.81-.52-1.62-1-2.39-1.58a10,10,0,0,1-.86-.73c-.34-.33-.63-.7-1-1a16,16,0,0,0-1.4-1.09,15.07,15.07,0,0,0-1.37-.87c-.65-.34-1.35-.61-2-.93-.46-.22-.93-.43-1.37-.69,0-.11.09-.22.13-.32.1-.29.2-.58.31-.87.21-.63.43-1.27.68-1.89a9.21,9.21,0,0,1,.91-1.62,7.16,7.16,0,0,0,.48-.61,6.11,6.11,0,0,0,.44-.79c.26-.56.5-1.12.78-1.67.2-.4.41-.79.6-1.19.05-.12.11-.24.17-.36l.14.08c.09-.25.19-.49.3-.73.51-1.16,1.16-2.25,1.74-3.38.34-.69.66-1.38,1-2.09s.45-1.18.68-1.77.61-1.22.93-1.83.53-1,.85-1.43a4.26,4.26,0,0,1,.42-.43c.16-.11.33-.2.5-.3a4.4,4.4,0,0,0,1.47-1.41,4.83,4.83,0,0,0,.39-.79l.36-.84a23.46,23.46,0,0,1,1.19-2.28c.46-.77.93-1.54,1.45-2.26a5.63,5.63,0,0,1,.67-.71c.32-.23.66-.43,1-.66a9.69,9.69,0,0,0,1.13-1,7.87,7.87,0,0,0,.89-1.11,7.11,7.11,0,0,0,.64-1.44,20.14,20.14,0,0,0,.65-2.57c.21-1,.38-1.94.51-2.93,0,.13,0,.27,0,.4a21.74,21.74,0,0,1,1.24-4.6c.51-1.39,1-2.81,1.56-4.19a40.51,40.51,0,0,1,2.25-4.21,14.86,14.86,0,0,0,1.16-2.24c.27-.7.5-1.4.77-2.09a9.56,9.56,0,0,1,.79-1.39c.13-.14.26-.27.4-.4a4.64,4.64,0,0,0,1.77-1.6,5.31,5.31,0,0,0,.36-2.13c0-.1.05-.2.08-.3a.54.54,0,0,1,.07-.13l.21-.2c.44-.31.88-.59,1.31-.89a21.46,21.46,0,0,0,1.69-1.33,7.76,7.76,0,0,0,1.06-1.16,3.52,3.52,0,0,0,.49-1.08c0-.14.07-.28.1-.43a14.86,14.86,0,0,0,.15-2,3.62,3.62,0,0,1,.18-.62,9.48,9.48,0,0,1,.92-1.49c.47-.57,1-1.09,1.4-1.7a14.75,14.75,0,0,0,1-1.6,6.1,6.1,0,0,0,.7-2.75c0-.65.06-1.29.13-1.94a14.05,14.05,0,0,1,.67-2.85,7.64,7.64,0,0,1,.64-1.15,5.12,5.12,0,0,1,.56-.58,4.69,4.69,0,0,0,2.54-3.61,25.47,25.47,0,0,1,.72-3.34,3.38,3.38,0,0,1,.24-.41,10.92,10.92,0,0,1,1.51-1.37,23.85,23.85,0,0,0,1.86-1.61c.29-.27.56-.55.83-.83a5.7,5.7,0,0,0,1.17-1.89c.29-.81.36-1.67.62-2.48a5.48,5.48,0,0,1,.31-.52,9.72,9.72,0,0,1,1.15-1.07c.27-.21.55-.41.82-.6a5.37,5.37,0,0,0,1.47-1.34,3.55,3.55,0,0,0,.61-2.26c0-.37,0-.74,0-1.11a4.5,4.5,0,0,1,.17-.63,8.83,8.83,0,0,1,.8-1.31c.21-.28.43-.55.64-.84.43-.55.89-1.08,1.36-1.6a12.27,12.27,0,0,0,1.54-1.91,8.21,8.21,0,0,0,.89-2.5,16.65,16.65,0,0,1,.56-2.1c.25-.52.55-1,.85-1.5s.63-1.1,1-1.63a10.32,10.32,0,0,1,1-.91,4.36,4.36,0,0,0,.93-1,4.49,4.49,0,0,0,.51-1,5,5,0,0,0,.21-1.09,6.72,6.72,0,0,0-.12-1.41,6.18,6.18,0,0,1,0-1.29,25.81,25.81,0,0,1,1.66-5.2,32.25,32.25,0,0,1,1.54-3.05,24.11,24.11,0,0,1,1.75-2.6,10.18,10.18,0,0,1,1.24-1.3,8.13,8.13,0,0,1,1-.6c.48-.19,1-.37,1.43-.58a6.57,6.57,0,0,0,1.61-1,5.15,5.15,0,0,0,1.54-2.38c.16-.48.27-1,.44-1.44a3.21,3.21,0,0,1,.31-.5,17.85,17.85,0,0,0,2.2-3,12.66,12.66,0,0,0,.76-1.91c.19-.55.39-1.1.61-1.64a9.86,9.86,0,0,1,.86-1.6c.27-.32.56-.61.85-.9a1.46,1.46,0,0,0,1-1,1.6,1.6,0,0,1,.05-.21c.27-.36.53-.74.78-1.12a19.71,19.71,0,0,0,1.09-2.15,14.84,14.84,0,0,1,1-2.07h0a1.46,1.46,0,0,0,.31-.9,1.47,1.47,0,0,0-1-1.41,2.71,2.71,0,0,0,0-.29,8.85,8.85,0,0,1-.06-1A3.1,3.1,0,0,1,629,332a8.24,8.24,0,0,1,.69-1.23,14.67,14.67,0,0,1,2-1.92,6,6,0,0,1,1.1-.62,9.71,9.71,0,0,1,1.82-.53,30,30,0,0,1,3.42,0c1.28,0,2.54.19,3.82.29.64,0,1.28.08,1.92.07s1.21-.05,1.82-.09a22.48,22.48,0,0,1,3.93.16,30.51,30.51,0,0,1,4.79,1.11c1.72.55,3.39,1.21,5,1.91h0l3.41,1.45.79.33.38.16a1.38,1.38,0,0,0,.36.15c1.31.57,2.58,1.21,3.88,1.82s2.85,1.29,4.29,1.89,2.86,1.18,4.31,1.71,2.89,1,4.34,1.42c3.05.93,6.09,1.86,9.14,2.77l4.55,1.37c1.44.45,2.89.9,4.3,1.44.8.3,1.6.62,2.39.95.62.26,1.23.53,1.84.81s1.31.58,1.93.92,1.26.74,1.9,1.1,1.41.74,2.13,1.09c2.71,1.32,5.51,2.45,8.25,3.7q2.25,1,4.57,1.87c1.53.53,3.07,1,4.62,1.47s2.87.85,4.29,1.33,2.92,1.07,4.36,1.64c1.75.7,3.48,1.42,5.22,2.15l5.78,2.48c.93.4,1.85.82,2.76,1.25,1.06.51,2.09,1.08,3.15,1.59a1.57,1.57,0,0,0,1.16.15l.13,0,.15.05.92.25c.72.18,1.44.34,2.17.48,1.48.31,3,.6,4.45,1,2.93.78,5.65,2.19,8.62,2.85.7.16,1.41.3,2.11.5a18.71,18.71,0,0,1,1.82.65l0,0,.27.11-.27-.11a72.85,72.85,0,0,1,7.67,4c.63.38,1.25.76,1.89,1.13a21.27,21.27,0,0,0,2.09,1c.73.31,1.46.62,2.23.87s1.3.41,2,.62c1.22.4,2.44.81,3.67,1.2,1,.34,2.05.74,3.06,1.16a44.22,44.22,0,0,1,4,2c1.41.8,2.77,1.67,4.12,2.55a41,41,0,0,0,3.63,2.36,34.12,34.12,0,0,0,4.45,1.78q1.13.39,2.22.84c2.74,1.19,5.41,2.55,8.05,3.94a68.37,68.37,0,0,0,8.15,3.78c1.91.71,3.85,1.34,5.78,2s3.8,1.38,5.67,2.17l-.1,0c2.1.88,4.18,1.78,6.29,2.62s4.39,1.67,6.56,2.56c1.68.72,3.3,1.56,4.9,2.44a57.49,57.49,0,0,0,5.51,2.57l-.36-.15c1.72.73,3.41,1.52,5.13,2.27s3.65,1.46,5.46,2.22l-.36-.15c1.39.6,2.74,1.28,4.11,1.93s2.78,1.26,4.16,1.9l4,1.88c1.33.62,2.67,1.23,4,1.86.45.22.9.45,1.36.65a1.59,1.59,0,0,0,1.15.15,1.5,1.5,0,0,0,1-1.84,1.46,1.46,0,0,0-.69-.9c-.65-.28-1.28-.62-1.92-.91l-2-.94-4-1.9c-1.32-.62-2.66-1.21-4-1.83s-2.8-1.36-4.22-2c-2.06-.94-4.19-1.71-6.27-2.58l.23.09c-1-.41-1.9-.85-2.84-1.27s-2.2-1-3.3-1.43l.06,0c-1.24-.52-2.47-1.06-3.67-1.67-.66-.34-1.3-.71-2-1.06l-2-1a46,46,0,0,0-4.26-1.84c-1.51-.57-3-1.16-4.52-1.75-1.24-.48-2.46-1-3.69-1.51-2.57-1.09-5.12-2.21-7.75-3.13s-5.56-1.81-8.26-2.92-5.19-2.51-7.75-3.85c-1.36-.71-2.73-1.37-4.12-2s-2.87-1.33-4.37-1.86c-1.05-.39-2.14-.73-3.18-1.14q-.81-.36-1.59-.78a19.35,19.35,0,0,1-1.87-1.22q-1.89-1.33-3.87-2.52a41.15,41.15,0,0,0-4.11-2.27c-1.46-.68-3-1.3-4.45-1.85-.69-.26-1.39-.47-2.08-.7l-2.12-.7c-1.26-.41-2.53-.78-3.77-1.28-.64-.28-1.26-.57-1.87-.9s-1.23-.73-1.84-1.09c-1.28-.76-2.59-1.48-3.88-2.2s-2.53-1.34-3.85-1.91a22.36,22.36,0,0,0-2.39-.94,20.21,20.21,0,0,0-2-.51c-.76-.17-1.51-.35-2.26-.58s-1.4-.49-2.1-.74c-1.43-.52-2.82-1.1-4.28-1.51s-3-.74-4.58-1.05a30.85,30.85,0,0,1-4-1,4.34,4.34,0,0,0-.48-.14,1.61,1.61,0,0,0-.37,0,1.42,1.42,0,0,0-.29,0c-1.14-.57-2.27-1.16-3.43-1.7-1.35-.61-2.72-1.16-4.08-1.75-3.07-1.34-6.16-2.65-9.27-3.89-1.25-.5-2.5-1-3.76-1.43s-2.64-.86-4-1.25c-2.68-.8-5.36-1.63-7.94-2.69-1.32-.58-2.61-1.19-3.93-1.76s-2.68-1.16-4-1.76-2.91-1.37-4.3-2.17c-.63-.36-1.25-.75-1.9-1.06s-1.28-.61-1.93-.9c-1.48-.66-3-1.29-4.5-1.85s-3-1-4.45-1.47c-3-.93-6.09-1.83-9.12-2.75-2.29-.7-4.59-1.38-6.87-2.12-2.1-.69-4.16-1.52-6.2-2.37l.08,0c-1.67-.7-3.32-1.44-4.95-2.24-.85-.41-1.7-.82-2.57-1.19l-.52-.22h0a1.3,1.3,0,0,0-.32-.14l.25.1-.23-.09h0l-1.77-.74.35.15a93,93,0,0,0-8.7-3.43,29.1,29.1,0,0,0-4.42-1,24.35,24.35,0,0,0-4.75-.28c-.69,0-1.38.1-2.06.09s-1.47-.05-2.2-.12l-2.13-.19c-.72-.05-1.43-.05-2.15-.07-.47,0-.94,0-1.42,0l-.7,0Zm14.24,3.42h0Zm-19.78,8.31,0,0,0,0ZM624,345a.87.87,0,0,1-.07.17A.87.87,0,0,0,624,345Zm-54.65,91.42s0,0,0,0,0,0,0,0Zm-.12.22,0,0,0,0Zm24.09,95v0ZM591,535l0,0-.06.06L591,535h0Zm-6.53,7.47h0l.08,0-.08,0Zm143.45,50.77.4.16h0l-.09,0,.1,0,.06,0-.48-.2Zm-17.29,3.43.7.3-.63-.26h0l.09,0-.1,0,0,0ZM780,615.15l1.19.5.06,0-1.25-.53Zm1.09.45.07,0h0l-.07,0Zm12.76,5.5.5.21.06,0-.56-.24Zm.38.16.09,0h0l-.1,0Zm-18.32,1.07.74.31-.66-.27-.08,0Zm.09,0,.13.06-.13,0Zm4.34,1.8,1.79.76-1.71-.72-.08,0Zm.09.05.08,0-.07,0Zm50.86,20.11.23.1-.19-.08,0,0Zm.06,0,.09,0-.08,0Zm61.18,25.15v.1h0v-.1Z" transform="translate(-125.9 -220.13)"/>
    <path class="cls-3" d="M615.43,356.45a7,7,0,0,0-2,1.09,14.22,14.22,0,0,0-1.84,1.62,18.83,18.83,0,0,0-2.59,3.71,26.36,26.36,0,0,0-2.09,4.1,9.9,9.9,0,0,0-.52,2.34,9.76,9.76,0,0,0,.07,2,11.88,11.88,0,0,1,0,2.31,3.2,3.2,0,0,1-.15.61,3.56,3.56,0,0,1-.31.48c-.55.67-1.13,1.32-1.65,2a9.18,9.18,0,0,0-1.15,2.08,6.15,6.15,0,0,0-.29,1.1,8.31,8.31,0,0,1-.32,1.11c-.21.62-.38,1.25-.6,1.86a8.14,8.14,0,0,1-.87,1.37,38,38,0,0,0-3,3.37,10.48,10.48,0,0,0-1,2.12,9.72,9.72,0,0,0-.4,2.33,3.63,3.63,0,0,1-.16.65,4.15,4.15,0,0,1-.35.57c-.37.43-.78.82-1.2,1.22a11.6,11.6,0,0,0-1.63,1.73,15.71,15.71,0,0,0-.91,1.6,9,9,0,0,1-.76,1.17c-.67.85-1.39,1.65-2.08,2.47s-1.55,1.77-2.34,2.64a14.93,14.93,0,0,0-1.18,1.45,5.07,5.07,0,0,0-.72,1.71l-.33,1.52c-.12.55-.15,1.11-.32,1.64a3.38,3.38,0,0,1-.24.41c-.17.2-.35.39-.53.58a7.85,7.85,0,0,0-1,1.31,14.85,14.85,0,0,0-1,2.43,24.09,24.09,0,0,0-.72,2.33,22.13,22.13,0,0,0-.39,2.44,8.73,8.73,0,0,1-.49,1.8,22.77,22.77,0,0,1-2.29,3.7,9.48,9.48,0,0,0-1.14,1.67,5.86,5.86,0,0,0-.47,1.47,6.7,6.7,0,0,1-.32,1.08,8.39,8.39,0,0,1-.84,1.49,18.56,18.56,0,0,1-1.33,1.47c-.45.46-.89.94-1.36,1.39a6.06,6.06,0,0,0-1.42,1.69,3.41,3.41,0,0,0-.33,1.44c0,.19,0,.38,0,.58,0,0,0,0,0,.06l-.12.19c-.49.56-1.09,1-1.56,1.58-.21.28-.41.55-.6.85a7.77,7.77,0,0,0-.46,1c-.19.45-.34.92-.52,1.38a32,32,0,0,1-1.89,3.5,37.69,37.69,0,0,0-2.11,3.71,21.42,21.42,0,0,0-.93,2.26,17.14,17.14,0,0,0-.54,2.25c-.27,1.45-.61,2.88-.94,4.31-.13.59-.3,1.16-.47,1.73s-.31,1.05-.5,1.55a19.73,19.73,0,0,1-1.24,2.2c-.41.67-.84,1.32-1.31,1.95s-1,1.12-1.47,1.65a12.22,12.22,0,0,0-1.7,2.22c-.45.77-.83,1.58-1.21,2.38a16.74,16.74,0,0,1-1,2,10.35,10.35,0,0,1-1.37,1.19,9.1,9.1,0,0,0-1.26,1.37,8.26,8.26,0,0,0-1.2,1.85c-.28.63-.51,1.27-.77,1.9-.45,1-.92,2.05-1.47,3-.27.49-.57,1-.85,1.44s-.59,1.09-.87,1.64c-.67,1.37-1.5,2.65-2.22,4a15.92,15.92,0,0,0-.84,1.71c-.28.64-.49,1.3-.74,1.95-.17.37-.35.75-.54,1.12-.26.55-.51,1.11-.78,1.66a1.62,1.62,0,0,0-.15,1.16,1.47,1.47,0,0,0,.69.89,1.51,1.51,0,0,0,2-.53c.39-.8.75-1.61,1.14-2.41.22-.45.42-.92.6-1.39s.26-.78.41-1.16a32.3,32.3,0,0,1,1.79-3.33c.37-.62.73-1.26,1.06-1.9s.55-1.12.86-1.66c.56-1,1.15-1.91,1.63-2.93.27-.56.53-1.13.79-1.71s.5-1.23.75-1.84a8.15,8.15,0,0,1,.77-1.34q.3-.37.63-.75a8.4,8.4,0,0,1,1.13-1,6.74,6.74,0,0,0,1.86-2.31,28.49,28.49,0,0,1,2.31-4.37c.69-.85,1.5-1.6,2.18-2.47a31.41,31.41,0,0,0,2.17-3.19,15.47,15.47,0,0,0,1-2,20,20,0,0,0,.7-2.15c.21-.76.39-1.52.56-2.29s.35-1.42.5-2.13.28-1.52.45-2.28a13.57,13.57,0,0,1,.69-2.16,18.84,18.84,0,0,1,1-2.06c.52-.88,1.06-1.75,1.58-2.62s.94-1.64,1.36-2.48c.24-.48.44-1,.64-1.46s.29-.8.45-1.19a4.77,4.77,0,0,1,.42-.73c.46-.54,1-1,1.5-1.51a3.71,3.71,0,0,0,.89-1.71,4.57,4.57,0,0,0,.07-.83c0-.13,0-.26,0-.4a.19.19,0,0,0,0-.07l.07-.11c.43-.48.93-.92,1.39-1.38.6-.61,1.21-1.24,1.78-1.89a10,10,0,0,0,1.52-2.25,9,9,0,0,0,.62-1.63c.1-.41.17-.81.3-1.2a11.5,11.5,0,0,1,1.17-1.71c.48-.66,1-1.34,1.39-2a15.85,15.85,0,0,0,1.25-2.55,10.59,10.59,0,0,0,.51-2.61,21.85,21.85,0,0,1,1.41-4.82,6.25,6.25,0,0,1,.58-1c.36-.43.77-.82,1.11-1.28a4.42,4.42,0,0,0,.79-1.88c.09-.56.19-1.1.32-1.66a12.44,12.44,0,0,1,.36-1.46,4.45,4.45,0,0,1,.33-.55c.61-.73,1.27-1.42,1.91-2.13s1.31-1.53,2-2.3a28.57,28.57,0,0,0,1.94-2.45c.52-.74.86-1.59,1.38-2.34.74-.85,1.68-1.51,2.39-2.39a5.79,5.79,0,0,0,1.14-2,10.77,10.77,0,0,0,.26-1.88,6.6,6.6,0,0,1,.39-1.29,7.42,7.42,0,0,1,.71-1.26c.55-.65,1.18-1.22,1.76-1.84a14.07,14.07,0,0,0,1.68-2.22,11.75,11.75,0,0,0,1-2.57,13.63,13.63,0,0,0,.44-1.37c.1-.41.16-.82.3-1.22a9.2,9.2,0,0,1,.92-1.49c.52-.65,1.09-1.27,1.6-1.93a5.27,5.27,0,0,0,.89-2.8,11.94,11.94,0,0,0-.06-2.07,10.62,10.62,0,0,1-.09-1.95,9.36,9.36,0,0,1,.47-1.82c.46-1,1-2,1.58-2.94a26.41,26.41,0,0,1,1.65-2.68,13.05,13.05,0,0,1,1.9-1.89,8.77,8.77,0,0,1,1.11-.72l.14-.05a1.52,1.52,0,0,0,1-1.85,1.54,1.54,0,0,0-1.44-1.11,1.09,1.09,0,0,0-.4.07Zm-.25,3.49-.11.09.11-.09ZM580.9,420.21l0,.11s0-.08,0-.11Zm-33,60.34-.05.11a.37.37,0,0,1,.05-.11Z" transform="translate(-125.9 -220.13)"/>
    <path class="cls-3" d="M635.12,325.58a5.13,5.13,0,0,0-1.34.63c-.41.23-.81.48-1.21.73a13.3,13.3,0,0,0-2.45,1.84A10.87,10.87,0,0,0,629,330a7.58,7.58,0,0,0-.71,1.12,6.17,6.17,0,0,0-.6,1.72c-.07.43-.1.85-.14,1.27a4.65,4.65,0,0,1-.24.83c-.27.59-.55,1.18-.79,1.78s-.45,1.33-.71,2-.5,1.06-.78,1.57c-.39.69-.82,1.36-1.22,2-.64,1.08-1.25,2.18-1.81,3.3s-1,2.23-1.52,3.34a17.51,17.51,0,0,1-1.07,2c-.39.63-.81,1.22-1.19,1.84a16,16,0,0,0-.9,1.61,6.13,6.13,0,0,1-.57,1c-.18.22-.38.42-.57.63a6.55,6.55,0,0,1-.49.56,1.55,1.55,0,0,0-.61.85,1.49,1.49,0,0,0,.15,1.15,1.51,1.51,0,0,0,2.06.54,3.47,3.47,0,0,0,.71-.61c.13-.15.24-.3.37-.44a15,15,0,0,0,1-1.22,12,12,0,0,0,.67-1.28,15.08,15.08,0,0,1,1-1.65c.42-.63.84-1.26,1.23-1.91s.67-1.28,1-1.92c.52-1.13,1-2.27,1.55-3.38.73-1.44,1.55-2.84,2.4-4.22a20.58,20.58,0,0,0,1.23-2.32c.37-.85.64-1.74,1-2.61.31-.71.66-1.4.93-2.13a7.84,7.84,0,0,0,.29-1.88,6,6,0,0,1,.22-.83,7.36,7.36,0,0,1,.69-1.14,10.45,10.45,0,0,1,1.32-1.34c.48-.34,1-.67,1.49-1a17.2,17.2,0,0,1,1.5-.87l.07,0a1.51,1.51,0,0,0,1.05-1.85,1.49,1.49,0,0,0-1.48-1.08,2.31,2.31,0,0,0-.37,0Zm-4.45,7.77v0Z" transform="translate(-125.9 -220.13)"/>
  </g>
  <g id="Guyline_Above" data-name="Guyline Above">
    <path class="cls-1" d="M502,293.72c-.55,0-1.09,0-1.63.09a15.87,15.87,0,0,0-3.29.51c-2.94.81-5.07,3.15-6.64,5.65a15.6,15.6,0,0,0-2.28,5.95,11.59,11.59,0,0,0-.16,2.63,10.69,10.69,0,0,0,.21,1.38,4.91,4.91,0,0,0,.15.51,5.62,5.62,0,0,0,.19.53,15,15,0,0,0,1.35,3.48,28.75,28.75,0,0,0,2.06,3.4c.81,1.19,1.67,2.34,2.47,3.54s1.66,2.49,2.45,3.76a34.09,34.09,0,0,1,1.93,3.37c.57,1.17,1.07,2.36,1.59,3.55s1,2.4,1.53,3.59,1,2.29,1.53,3.44c.57,1.41,1.07,2.85,1.57,4.28s1,2.91,1.46,4.37.78,2.9,1.16,4.36.78,2.89,1.1,4.35c.19.85.35,1.71.47,2.56.05.47.1.93.14,1.4s.11,1.11.11,1.67a29,29,0,0,1-.26,3.72,19.09,19.09,0,0,1-1.15,4.41,26.87,26.87,0,0,1-1.84,3.63c-.75,1.19-1.55,2.35-2.22,3.59a27.44,27.44,0,0,0-1.79,4,20,20,0,0,0-.91,4.34c-.06.66-.11,1.33-.15,2s-.1,1.53-.11,2.3c0,1.42,0,2.84.08,4.26a1.52,1.52,0,0,0,1.5,1.5,1.66,1.66,0,0,0,.32,0c1.37-.16,2.73-.47,4.08-.74s2.86-.7,4.26-1.13,2.85-1,4.23-1.52a48.89,48.89,0,0,0,4.59-2.27,25.83,25.83,0,0,0,4-2.73c1.15-1,2.31-1.95,3.4-3s2.2-2.3,3.27-3.47a28.49,28.49,0,0,0,2.85-3.54c.22-.33.41-.67.6-1a12.79,12.79,0,0,0,.64-1.21,2.85,2.85,0,0,0,.16-.43l0-.08a40.78,40.78,0,0,0,2.48-8.52,45.11,45.11,0,0,0,.48-5.06c.06-1.46.23-2.92.27-4.39s0-2.86,0-4.29a31.43,31.43,0,0,0-.37-4.64c-.26-1.48-.68-2.93-1.06-4.39s-.79-2.87-1.17-4.31-.69-2.75-1.11-4.1c-.46-1.51-1-3-1.49-4.49-1-2.92-2.09-5.8-3.32-8.62-.3-.67-.6-1.34-.89-2-.64-1.52-1.24-3-1.91-4.56-.59-1.33-1.25-2.63-1.95-3.91s-1.4-2.62-2.18-3.89-1.6-2.53-2.43-3.77a31,31,0,0,0-3.22-4,24.23,24.23,0,0,0-3.48-3.16,13.89,13.89,0,0,0-4.5-2.21,17.65,17.65,0,0,0-2-.37c-.77-.12-1.55-.2-2.34-.26-.64,0-1.28,0-1.91-.08a1.26,1.26,0,0,0-.38-.06,1.83,1.83,0,0,0-.52.09Zm-2.81,3.2h0Zm-5.43,3.48-.07.09.07-.09ZM491,308.8l0-.06.16.26a1.43,1.43,0,0,0-.14-.2Zm39.49,67.87-.06.09.06-.09Zm-26.43,16h0Z" transform="translate(-125.9 -220.13)"/>
    <path class="cls-1" d="M414.83,287.11c-.84.08-1.69.22-2.53.38a10.4,10.4,0,0,0-3.61,1.28,13.84,13.84,0,0,0-3.36,3.12,22.33,22.33,0,0,0-2.47,3.68,18.16,18.16,0,0,0-1.68,4.34,16.36,16.36,0,0,0-.32,4.47,24.92,24.92,0,0,0,.55,4.56,24.38,24.38,0,0,0,1.56,4.2c.32.76.61,1.52.91,2.28h0c.08.38.16.75.26,1.13a17.33,17.33,0,0,0,.74,2.05c.27.6.56,1.19.83,1.79s.59,1.25.92,1.86c.65,1.21,1.27,2.43,1.81,3.7a1.22,1.22,0,0,0,.07.17l-.12-.29c.32.77.63,1.54.94,2.32.35,1.16.69,2.33,1,3.49.41,1.37.83,2.74,1.16,4.14s.68,3,1,4.55c.44,2.11.8,4.24,1.11,6.36v0a73,73,0,0,1,.57,9c0,1.56-.07,3.13-.13,4.69s-.11,3-.22,4.43c-.13,1.94-.35,3.87-.58,5.8s-.41,3.77-.65,5.66c-.2,1.42-.43,2.83-.59,4.26a32.39,32.39,0,0,0-.18,4.4c0,.64.07,1.28.15,1.91a19.29,19.29,0,0,0,.41,2.49,11.94,11.94,0,0,0,.92,2.46,17.35,17.35,0,0,0,1.24,2,16.47,16.47,0,0,0,6.65,5.93,13,13,0,0,0,4.85,1.18,12.63,12.63,0,0,0,4.05-.6l.66-.23c.18-.42.37-.83.57-1.24s.31-.94.48-1.4c.29-.85.61-1.68.95-2.51,0-.36.06-.72.1-1.07a19.82,19.82,0,0,1,.56-2.54c.28-1,.55-1.94.85-2.9s.6-1.61.92-2.4.54-1.37.82-2.05.56-1.27.82-1.92.39-1.19.57-1.79c.35-1.2.7-2.42,1-3.65.31-1.38.56-2.76.75-4.16s.35-3,.48-4.53a51.11,51.11,0,0,0,.13-8.48c-.1-1.32-.15-2.66-.18-4,0-1.48-.08-3-.14-4.44a30.88,30.88,0,0,0-1.58-8.94c-.24-.68-.52-1.34-.75-2s-.4-1.33-.58-2a38.7,38.7,0,0,0-1.19-3.79c-.25-.65-.52-1.29-.74-1.94s-.4-1.37-.57-2.07l-.54-2.25c-.17-.7-.38-1.39-.56-2.08-.34-1.3-.53-2.63-.79-3.95s-.45-2.52-.69-3.79a47.87,47.87,0,0,0-1.25-5.23c-.25-1.07-.44-2.15-.64-3.22s-.36-1.9-.5-2.86a16.84,16.84,0,0,1-.16-2c0-.78,0-1.56.09-2.34.08-1.28.1-2.55.11-3.82a11.75,11.75,0,0,0-.57-4.29,11.13,11.13,0,0,0-1.23-2.31,9.42,9.42,0,0,0-1.76-1.86,14.16,14.16,0,0,0-2.08-1.54,7.58,7.58,0,0,0-2.29-.87l-2.15-.44c-.73-.15-1.49-.23-2.23-.31a10.28,10.28,0,0,0-1.1-.06,8.24,8.24,0,0,0-.85.05Zm-7.44,27v0a1.57,1.57,0,0,0,0,.23,1.55,1.55,0,0,1,0-.21Zm0,.1s0,0,0-.07h0c0,.05,0,.1,0,.15v-.08Zm28.76,58.15v0Zm0,.09a.13.13,0,0,0,0,.06.13.13,0,0,1,0-.06Zm-21,6.92c0,.29-.09.59-.12.89l.09-.78,0-.11,0,.05v0h0Zm0,0v0h0v-.05Zm0,.13h0s0,.09,0,.12a.37.37,0,0,0,0-.11Zm17.7,14.58s0,.08,0,.12,0-.08,0-.12Z" transform="translate(-125.9 -220.13)"/>
  </g>
</svg>
