 0
SECTION
 2
ENTITIES
  0
LINE
 8
cut triangle
10
113.0585435688364
20
117.33118907912181
30
-1.8772117973722222e-14
11
157.0585435688364
21
69.33118907912181
31
0.0
  0
LINE
 8
cut triangle
10
25.05854356883637
20
69.33118907912181
30
0.0
11
157.0585435688364
21
69.33118907912181
31
0.0
  0
LINE
 8
cut triangle
10
25.05854356883637
20
69.33118907912181
30
0.0
11
113.0585435688364
21
117.33118907912181
31
-1.8772117973722222e-14
  0
LINE
 8
cut triangle
10
69.05854356883628
20
21.331189079121785
30
-1.8772117973722225e-14
11
25.058543568836285
21
69.33118907912178
31
-3.1554436208840472e-30
  0
LINE
 8
cut triangle
10
157.0585435688363
20
69.33118907912178
30
-3.1554436208840472e-30
11
25.058543568836285
21
69.33118907912178
31
-3.1554436208840472e-30
  0
LINE
 8
cut triangle
10
157.0585435688363
20
69.33118907912178
30
-3.1554436208840472e-30
11
69.05854356883628
21
21.331189079121785
31
-1.8772117973722225e-14
  0
LINE
 8
pattern
10
116.02369748057615
20
182.2010736770265
30
0.0
11
160.02369748057615
21
134.2010736770265
31
1.8772117973722222e-14
  0
LINE
 8
pattern
10
28.023697480576118
20
134.2010736770265
30
1.8772117973722222e-14
11
160.02369748057615
21
134.2010736770265
31
1.8772117973722222e-14
  0
LINE
 8
pattern
10
28.023697480576118
20
134.2010736770265
30
1.8772117973722222e-14
11
116.02369748057615
21
182.2010736770265
31
0.0
  0
LINE
 8
pattern
10
116.12783238363053
20
182.82741835533534
30
-2.4495450402971627e-16
11
26.06286714006424
21
133.7010736770265
31
1.8967660869281827e-14
  0
LINE
 8
pattern
10
26.06286714006424
20
133.7010736770265
30
1.8967660869281827e-14
11
161.1603150054136
21
133.7010736770265
31
1.8967660869281824e-14
  0
LINE
 8
pattern
10
161.1603150054136
20
133.7010736770265
30
1.8967660869281824e-14
11
116.12783238363053
21
182.82741835533534
31
-2.4495450402971627e-16
  0
LINE
 8
Side Corner Reinforcements
10
111.30782681223518
20
116.37625266643025
30
-1.8398655911296196e-14
11
111.32649276126752
21
116.33118907912181
31
-1.8381032182603008e-14
  0
LINE
 8
Side Corner Reinforcements
10
113.0585435688364
20
117.33118907912181
30
-1.8772117973722222e-14
11
111.30782681223518
21
116.37625266643025
31
-1.8398655911296196e-14
  0
LINE
 8
Side Corner Reinforcements
10
113.0585435688364
20
117.33118907912181
30
-1.8772117973722222e-14
11
114.40357062107373
21
115.86388684031746
31
-1.819827691684843e-14
  0
LINE
 8
Side Corner Reinforcements
10
114.0585435688364
20
115.59913827155293
30
-1.8094737513385475e-14
11
114.40357062107373
21
115.86388684031746
31
-1.819827691684843e-14
  0
LINE
 8
Side Corner Reinforcements
10
113.57618165904144
20
115.39933742654368
30
-1.801659824184874e-14
11
114.0585435688364
21
115.59913827155293
31
-1.8094737513385475e-14
  0
LINE
 8
Side Corner Reinforcements
10
113.0585435688364
20
115.33118907912181
30
-1.7989946391483793e-14
11
113.57618165904144
21
115.39933742654368
31
-1.801659824184874e-14
  0
LINE
 8
Side Corner Reinforcements
10
112.54090547863136
20
115.39933742654368
30
-1.801659824184874e-14
11
113.0585435688364
21
115.33118907912181
31
-1.7989946391483793e-14
  0
LINE
 8
Side Corner Reinforcements
10
112.0585435688364
20
115.59913827155293
30
-1.8094737513385475e-14
11
112.54090547863136
21
115.39933742654368
31
-1.801659824184874e-14
  0
LINE
 8
Side Corner Reinforcements
10
111.6443300064633
20
115.91697551674872
30
-1.821903914387002e-14
11
112.0585435688364
21
115.59913827155293
31
-1.8094737513385475e-14
  0
LINE
 8
Side Corner Reinforcements
10
111.32649276126752
20
116.33118907912181
30
-1.8381032182603008e-14
11
111.6443300064633
21
115.91697551674872
31
-1.821903914387002e-14
  0
LINE
 8
Side Corner Reinforcements
10
70.8092603254375
20
22.286125491813365
30
-1.83986559112962e-14
11
70.79059437640517
21
22.3311890791218
31
-1.838103218260301e-14
  0
LINE
 8
Side Corner Reinforcements
10
69.05854356883628
20
21.3311890791218
30
-1.8772117973722225e-14
11
70.8092603254375
21
22.286125491813365
31
-1.83986559112962e-14
  0
LINE
 8
Side Corner Reinforcements
10
69.05854356883628
20
21.3311890791218
30
-1.8772117973722225e-14
11
67.71351651659896
21
22.79849131792615
31
-1.8198276916848433e-14
  0
LINE
 8
Side Corner Reinforcements
10
68.05854356883628
20
23.06323988669068
30
-1.8094737513385478e-14
11
67.71351651659896
21
22.79849131792615
31
-1.8198276916848433e-14
  0
LINE
 8
Side Corner Reinforcements
10
68.54090547863125
20
23.26304073169993
30
-1.8016598241848742e-14
11
68.05854356883628
21
23.06323988669068
31
-1.8094737513385478e-14
  0
LINE
 8
Side Corner Reinforcements
10
69.05854356883628
20
23.3311890791218
30
-1.7989946391483796e-14
11
68.54090547863125
21
23.26304073169993
31
-1.8016598241848742e-14
  0
LINE
 8
Side Corner Reinforcements
10
69.57618165904132
20
23.26304073169993
30
-1.8016598241848742e-14
11
69.05854356883628
21
23.3311890791218
31
-1.7989946391483796e-14
  0
LINE
 8
Side Corner Reinforcements
10
70.05854356883628
20
23.06323988669068
30
-1.8094737513385478e-14
11
69.57618165904132
21
23.26304073169993
31
-1.8016598241848742e-14
  0
LINE
 8
Side Corner Reinforcements
10
70.47275713120938
20
22.74540264149489
30
-1.8219039143870022e-14
11
70.05854356883628
21
23.06323988669068
31
-1.8094737513385478e-14
  0
LINE
 8
Side Corner Reinforcements
10
70.79059437640517
20
22.3311890791218
30
-1.838103218260301e-14
11
70.47275713120938
21
22.74540264149489
31
-1.8219039143870022e-14
  0
LINE
 8
Ends Reinforcements
10
25.05854356883637
20
69.33118907912181
30
0.0
11
26.809260325437585
21
70.28612549181338
31
1.7749370367472766e-30
  0
LINE
 8
Ends Reinforcements
10
26.403570621073634
20
67.8638868403174
30
-5.738410568738068e-16
11
26.472757131209455
21
67.9169755167487
31
-5.530788298522039e-16
  0
LINE
 8
Ends Reinforcements
10
25.05854356883637
20
69.33118907912181
30
0.0
11
26.403570621073634
21
67.8638868403174
31
-5.738410568738068e-16
  0
LINE
 8
Ends Reinforcements
10
26.990395221414502
20
68.81355098891676
30
-2.0244090202127984e-16
11
27.05854356883637
21
69.3311890791218
31
-2.1693674893577825e-30
  0
LINE
 8
Ends Reinforcements
10
26.472757131209455
20
67.9169755167487
30
-5.530788298522039e-16
11
26.790594376405238
21
68.3311890791218
31
-3.9108579111921508e-16
  0
LINE
 8
Ends Reinforcements
10
26.790594376405238
20
68.3311890791218
30
-3.9108579111921508e-16
11
26.990395221414502
21
68.81355098891676
31
-2.0244090202127984e-16
  0
LINE
 8
Ends Reinforcements
10
27.05854356883637
20
69.3311890791218
30
-2.1693674893577825e-30
11
26.99039522141451
21
69.84882716932684
31
2.0244090202127505e-16
  0
LINE
 8
Ends Reinforcements
10
26.99039522141451
20
69.84882716932684
30
2.0244090202127505e-16
11
26.809260325437585
21
70.28612549181338
31
1.7749370367472766e-30
  0
LINE
 8
Ends Reinforcements
10
157.0585435688364
20
69.33118907912181
30
-1.9721522630525295e-31
11
155.3078268122352
21
68.37625266643025
31
1.5777218104420236e-30
  0
LINE
 8
Ends Reinforcements
10
155.71351651659913
20
70.79849131792622
30
-5.73841056873807e-16
11
155.64433000646332
21
70.74540264149492
31
-5.530788298522041e-16
  0
LINE
 8
Ends Reinforcements
10
157.0585435688364
20
69.33118907912181
30
-1.9721522630525295e-31
11
155.71351651659913
21
70.79849131792622
31
-5.73841056873807e-16
  0
LINE
 8
Ends Reinforcements
10
155.12669191625827
20
69.84882716932687
30
-2.0244090202128003e-16
11
155.0585435688364
21
69.33118907912183
31
-2.3665827156630354e-30
  0
LINE
 8
Ends Reinforcements
10
155.64433000646332
20
70.74540264149492
30
-5.530788298522041e-16
11
155.32649276126753
21
70.33118907912183
31
-3.9108579111921527e-16
  0
LINE
 8
Ends Reinforcements
10
155.32649276126753
20
70.33118907912183
30
-3.9108579111921527e-16
11
155.12669191625827
21
69.84882716932687
31
-2.0244090202128003e-16
  0
LINE
 8
Ends Reinforcements
10
155.0585435688364
20
69.33118907912183
30
-2.3665827156630354e-30
11
155.12669191625827
21
68.81355098891679
31
2.0244090202127486e-16
  0
LINE
 8
Ends Reinforcements
10
155.12669191625827
20
68.81355098891679
30
2.0244090202127486e-16
11
155.3078268122352
21
68.37625266643025
31
1.5777218104420236e-30
 0
ENDSEC
 0
EOF
